<svg width="195" height="200" viewBox="0 0 195 200" fill="none" xmlns="http://www.w3.org/2000/svg">
<path d="M94.3269 17.6935C86.7556 17.6497 80.0349 17.7901 78.3596 17.8058C76.7812 18.0301 73.2594 18.8944 72.4221 19.0624C70.6473 19.3451 67.8482 19.7351 58.1027 22.2517C55.5336 23.0921 53.5388 23.9869 48.5404 27.6783C43.5421 31.3698 35.7755 37.667 31.7668 40.9542C27.7582 44.2414 27.5009 44.5009 26.7622 45.5941C24.785 48.5206 21.513 53.5503 19.8004 59.0329C18.9542 61.7417 16.9228 65.9144 16.4638 73.7376C15.9339 82.7696 12.9558 88.1904 12.5808 89.6082C12.0273 91.7002 13.2843 97.5276 12.5808 106.002C12.2606 109.859 12.3493 112.942 12.9675 115.861C14.1729 121.553 14.3587 126.077 16.4478 130.643C20.2583 138.971 22.8264 144.53 23.327 145.775C24.0209 147.501 24.7531 149.235 26.702 151.18C30.339 154.81 34.2067 157.793 36.3597 159.55C38.073 160.948 40.0597 166.812 47.8619 171.022C54.2329 174.461 58.8642 177.087 62.0111 178.272C66.9707 180.14 72.6194 182.346 77.6828 182.649C82.6487 182.947 85.5726 183.151 86.5435 183.312C87.539 183.478 90.4879 183.85 95.826 183.095C106.51 181.584 107.998 182.179 111.418 182.002C116.188 181.756 122.185 181.228 127.36 179.363C131.844 177.748 135.648 176.546 140.231 174.635C143.209 173.393 147.41 171.554 149.71 170.333C152.549 168.827 153.284 168.053 155.253 166.286C159.768 162.235 163.749 158.835 164.992 156.997L165.054 156.906C165.846 155.736 166.539 154.712 168.372 150.792C169.993 147.325 172.81 141.095 174.261 137.688C175.711 134.282 175.792 133.716 176.792 129.854C177.791 125.992 179.968 119.095 180.595 114.199C181.558 106.691 181.803 103.341 181.81 99.2544C181.815 95.838 182.03 89.8241 181.515 86.2827C180.61 80.0498 180.857 77.5777 177.645 71.376C176.161 68.5093 173.84 64.3129 172.247 61.555C170.654 58.797 169.814 57.5162 166.831 54.0003C163.849 50.4845 158.873 44.9026 155.736 41.6365C152.598 38.3705 151.336 37.4483 148.108 35.6453C144.881 33.8422 139.84 31.2373 136.834 29.8258C133.827 28.4143 132.882 28.2027 128.486 26.5583C124.089 24.914 116.47 21.9275 112.481 20.3919C108.491 18.8563 108.141 18.7742 105.589 18.5184C103.037 18.2627 98.4264 17.7172 94.3269 17.6935Z" fill="url(#paint0_linear_4055_409)" stroke="#361700" stroke-width="5" stroke-linecap="round"/>
<path d="M75.8142 17.6776C80.6707 18.0095 88.0041 16.5616 88.2015 16.5773C88.8187 16.4959 89.4178 16.4169 90.2589 16.2434C94.792 15.663 100.834 16.624 104.096 17.9613C105.354 18.4335 112.933 20.1552 125.427 24.261C131.391 26.2212 136.53 28.2722 141.482 30.8383C146.433 33.4044 151.057 36.395 157.373 42.7874C163.689 49.1798 171.579 58.5954 175.661 63.9762C180.465 70.3089 181.355 71.9963 181.704 73.3097C182.373 75.8199 185.226 78.6585 184.784 91.5142C184.555 98.1955 183.757 108.709 182.73 114.991C181.356 123.389 179.658 130.423 174.705 140.115C171.941 145.522 168.124 151.583 165.983 155.179C163.241 159.782 158.488 165.314 150.788 170.976C146.746 173.949 143.144 175.94 138.697 177.112C135.47 177.962 130.737 177.745 125.444 179.006C122.016 179.823 117.334 181.716 106.562 182.381C99.2652 182.831 88.4198 183.085 82.5957 182.867C75.9773 182.62 70.9307 181.389 60.905 176.517C54.6338 173.47 46.2897 168.923 41.862 166.409C37.4342 163.895 36.9376 163.428 34.1763 159.876C31.4149 156.324 26.3638 149.997 23.0427 144.819C17.5016 136.179 14.1313 129.888 13.0614 124.313C12.0221 118.897 12.3637 111.761 12.0912 104.968C11.9693 101.927 11.4316 99.7424 11.5113 96.3673C11.6013 92.5619 12.1828 84.985 14.6988 74.5718C15.949 69.3975 17.5436 64.5259 19.2885 60.2919C21.0334 56.058 22.7646 52.4984 25.0415 49.0508C29.6347 42.0959 35.0387 34.892 41.912 29.8385C47.7987 25.5105 51.9212 22.7337 56.9578 21.408C66.0797 19.0069 72.7492 17.4682 75.8142 17.6776Z" fill="url(#paint1_linear_4055_409)"/>
<path d="M113.445 23.165C112.825 23.0163 111.992 22.6088 111.272 22.3971C108.224 21.4995 107.146 21.1158 104.318 20.2716C104.047 20.1863 103.805 20.1218 103.348 19.9535L103.289 19.9303C100.466 18.6223 93.5985 17.834 90.482 17.9861L90.6138 17.9641C89.2289 18.1031 88.3796 17.9763 88.3498 17.7016C88.3498 17.7016 88.3498 17.7015 88.3498 17.7015C88.3483 17.6906 88.3481 17.6793 88.3491 17.6678C88.3599 17.4523 89.4286 17.067 89.5466 16.794C89.6377 16.5832 89.4334 15.6058 90.0054 15.0147L90.0995 14.999C90.2894 14.8455 90.5537 14.7264 90.9048 14.6765C93.3125 14.2253 98.7984 15.2267 99.9823 15.5298C100.807 15.6792 101.857 15.7703 102.92 16.0653C103.541 16.2379 104.107 16.4261 104.639 16.6368L104.6 16.6212C106.572 17.1891 108.341 17.6257 110.766 17.9766C111.886 18.4981 112.991 19.0223 114.098 19.5541C115.646 19.9001 117.859 20.8434 118.781 21.111C119.54 21.3304 120.033 21.3135 120.811 21.548C121.693 21.8137 122.991 22.4052 124.59 22.8969C125.03 23.0324 125.419 23.1404 125.766 23.2279C127.445 23.6523 128.083 23.5587 129.396 23.9754C131.039 24.4964 133.464 25.6557 135.549 26.3789C135.822 26.4436 136.094 26.5095 136.367 26.5765C136.226 26.402 136.084 26.2273 135.942 26.0535C136.988 26.446 137.341 26.8367 138.272 27.2634C139.366 27.7693 140.008 27.8544 140.739 28.2133C141.207 28.444 141.758 28.832 142.342 29.1785C142.505 29.2751 142.671 29.3685 142.838 29.4544C143.959 30.0339 143.827 29.7 144.448 29.9915C144.715 30.0574 149.116 32.6329 149.326 32.8498C151.118 34.1092 151.07 34.4965 152.402 35.5918C154.623 37.4499 156.802 39.3831 158.85 41.3283C160.184 42.5949 161.467 43.8586 162.664 45.0968C164.01 46.4898 165.346 48.0065 166.579 49.4884C163.962 47.7578 167.891 53.2183 167.216 50.4845C168.482 52.2202 169.732 53.1489 170.993 54.7442C171.805 55.7766 172.251 56.5911 173.436 58.04C174.804 59.7123 176.396 61.3826 177.295 62.7364C177.779 63.4638 178.059 64.082 178.003 64.5466C180.487 67.6175 182.108 70.4358 183.516 71.883C183.61 72.101 183.71 72.4116 183.78 72.757C183.843 73.4117 184.512 75.5433 184.75 76.4662C185.438 77.5461 186.378 86.0292 186.188 87.3535C186.21 88.4902 186.186 90.3146 186.176 91.562C186.175 91.8071 186.176 92.0351 186.181 92.2281C186.212 93.6425 187.011 94.6887 185.879 97.1513C185.775 100.08 185.669 101.123 185.33 103.829C185.267 104.319 185.116 104.362 185.091 104.649C185.039 105.24 185.055 106.257 184.962 107.314C184.809 109.055 184.385 110.008 184.875 109.869C184.823 111.025 184.759 112.184 184.676 113.343C184.529 113.739 184.381 114.128 184.229 114.516C184.231 114.754 184.23 115 184.23 115.236C184.228 115.624 184.226 116.008 184.222 116.397C183.685 115.569 183.309 119.915 183.944 118.598C183.394 120.785 182.778 122.966 182.062 125.113C181.437 124.619 180.583 129.833 181.079 129.546C180.996 129.793 180.911 130.039 180.826 130.284C179.883 132.361 179.276 134.364 178.013 136.822C176.733 139.268 176.756 138.981 176.072 139.577C175.919 139.91 175.766 140.24 175.607 140.576C175.49 140.825 175.369 141.077 175.249 141.325C174.509 144.767 173.349 143.448 171.093 148.776C169.823 149.883 168.074 153.083 166.75 155.636C166.552 156.019 166.352 156.39 166.162 156.731C165.985 157.043 166.083 157.112 165.848 157.53C165.292 158.568 163.342 160.809 163.693 160.961C162.955 161.691 162.198 162.393 161.427 163.07C160.914 163.732 160.384 164.384 159.843 165.023C159.931 165.105 160.018 165.187 160.106 165.268C158.631 166.184 156.782 168.06 155.714 168.82C155.504 168.97 155.356 168.883 154.709 169.356C153.953 169.911 152.609 171.023 151.681 171.642C151.621 171.742 151.561 171.843 151.5 171.944C151.318 172.249 151.133 172.553 150.945 172.855C149.35 174.104 148.471 174.078 147.441 174.662C147.284 174.809 143.816 176.662 143.596 176.706C142.184 177.353 142.556 177.71 139.117 178.706C138.674 178.824 138.18 178.925 137.634 179.009C136.715 179.147 135.982 179.085 135.192 179.161C133.771 179.285 129.76 179.999 129.514 180.37C128.697 180.294 127.239 180.468 125.866 180.776C124.517 181.083 123.088 181.524 122.434 181.64C122.03 181.714 121.893 181.513 120.668 181.771C119.684 181.988 117.176 182.721 115.898 182.894C114.553 183.086 114.038 182.951 113.439 183.021C112.865 183.086 112.362 183.313 111.589 183.401C109.813 183.597 108.152 183.59 106.637 183.607C106.091 183.612 105.556 183.623 105.047 183.65C102.296 183.791 99.891 184.359 97.5921 184.643C97.0193 184.63 96.4548 184.543 95.8556 184.558C91.6208 184.653 87.0862 184.702 82.5343 184.506C79.0832 184.364 75.5678 183.811 72.4236 182.836C68.912 181.922 61.3629 177.68 63.0088 179.621C62.6111 179.51 61.4551 178.969 60.0632 178.25C57.3241 176.842 53.683 174.725 52.7133 174.208C51.2483 173.431 49.9988 172.983 48.8488 172.367C46.0266 170.853 43.9363 169.605 40.9648 167.989C40.2827 167.616 39.5584 167.229 38.7535 166.777C37.6397 166.168 36.2527 165.447 35.6195 164.835C34.8475 164.12 34.327 163.17 33.6064 162.247C33.3243 161.886 33.0098 161.48 32.6722 161.045C30.9615 158.849 28.5081 155.787 27.2163 154.014C26.9338 153.627 26.9879 153.376 26.6265 152.791C25.2145 150.518 23.4847 148.07 23.2777 148.858C22.6934 147.806 22.0723 146.813 21.4494 145.84C20.2962 144.039 19.0802 142.364 18.0005 140.582C15.7642 136.815 12.2779 130.861 11.0455 124.7C10.429 121.488 10.2981 118.643 10.1261 116.597C9.85269 112.902 9.61855 112.975 9.76445 107.644C9.78415 106.807 9.80876 105.976 9.81921 105.059C9.82424 104.703 9.82191 104.331 9.81034 103.935C9.71768 101.422 9.67039 98.6763 9.59197 96.3219C9.56147 95.727 9.50448 95.1509 9.40422 94.5939C9.77215 90.7367 10.0579 87.6795 11.0082 84.956C10.9335 84.6041 10.8592 84.2584 10.7878 83.9037C10.8595 83.4437 10.935 82.9776 11.0127 82.5145C11.1579 82.3894 11.3029 82.2676 11.448 82.1462C11.9123 79.662 12.2702 76.6228 12.7431 74.0993C12.8965 73.276 13.0623 72.5074 13.2423 71.8311C13.9446 69.1372 15.5456 64.038 17.5071 59.5578C18.883 56.3506 20.3977 53.4134 21.3955 51.7678C22.6626 49.687 22.542 49.443 23.7397 48.5576C23.7895 48.4685 23.8395 48.3794 23.89 48.2904C24.1026 47.9136 24.3178 47.5354 24.5339 47.159C24.623 46.8158 24.7121 46.4743 24.8039 46.1309C26.5208 43.5857 28.8267 40.7375 30.7026 38.4636C33.2026 35.3834 36.8789 31.2334 40.8262 28.3617C42.1487 27.3864 43.4283 26.4832 44.605 25.7318C45.7413 25.0036 47.2866 24.2662 48.4315 23.5747C50.1098 22.5874 50.3192 21.9654 52.6535 20.9104C53.6948 20.4587 55.0212 19.9972 56.4965 19.6554C60.4784 18.7316 65.399 17.7601 68.2831 17.1472C69.4347 16.8998 69.951 16.6523 70.7611 16.495C72.5055 16.1758 74.0677 15.9016 75.9316 15.9585C77.2754 16.0126 78.6884 15.9098 80.1941 15.6835C83.5591 15.77 83.357 16.2326 84.4722 16.6005C85.3006 16.8781 87.988 17.3215 88.2804 17.613C88.3144 17.6431 88.1152 17.6773 88.1125 17.7036C88.1502 17.7409 88.3083 17.7663 88.3015 17.7969C88.3156 17.86 88.2489 17.9373 88.1827 18.0168C88.0624 18.1735 87.9419 18.3342 88.1279 18.4333C84.0378 19.3071 82.1954 19.3294 78.7067 19.1471C77.7249 19.1861 76.7305 19.1935 75.7151 19.1273C71.0506 19.1679 65.7086 20.7504 60.6858 21.9786C60.1082 21.9821 59.5277 21.9876 58.9438 21.995C58.9437 21.9947 58.9437 21.9944 58.9436 21.9941C58.264 22.1222 57.7055 22.2658 57.2229 22.4152C56.1015 22.7697 55.4701 23.2029 54.6857 23.5681C51.3445 25.0914 47.3521 27.9321 42.9388 31.2351C36.5145 35.9552 30.7932 43.289 26.3279 49.9004C24.3247 52.8392 22.8168 55.8062 21.6428 58.4175C21.3883 58.9832 21.028 59.8313 20.6218 60.8414C19.1038 64.4774 17.3854 70.3365 16.8347 71.7941C16.6425 72.2728 16.3974 72.3546 16.249 72.8812C16.0963 73.533 15.9499 74.186 15.8099 74.8403C14.9251 78.9758 14.2249 83.141 13.7661 87.3175C13.2593 90.302 12.9162 93.3601 12.8265 96.3984C12.7099 99.1275 13.2841 101.878 13.4363 104.914C13.6511 109.294 13.6312 113.635 13.8501 117.846C13.9634 119.952 14.1446 122.04 14.5353 124.03C16.0596 131.091 20.374 137.582 24.4037 143.946C27.7618 149.072 31.6624 153.931 35.5128 158.837C37.58 161.724 39.5727 163.234 42.7114 164.913C48.9508 168.411 55.2872 171.826 61.6609 174.961C62.3825 175.313 63.0871 175.651 63.8064 175.988C68.5039 178.229 74.6068 180.385 79.4792 180.876C80.7446 181.033 81.5548 181.222 82.6539 181.309C83.3273 181.361 84.1132 181.371 85.1716 181.288C85.1994 181.382 85.2273 181.475 85.2553 181.569C87.7024 181.484 89.2658 181.264 92.0117 181.203C94.3258 181.163 100.45 180.961 102.493 180.89C103.553 180.858 103.163 181.052 104.153 181.001C104.742 180.97 105.554 180.896 106.464 180.802C108.174 180.627 110.197 180.343 111.683 180.162C113.753 179.938 117.226 179.531 118.775 179.121C120.794 178.633 122.763 177.942 125.04 177.309C129.045 176.2 133.392 176.023 137.053 175.515C137.44 175.454 137.844 175.391 138.224 175.315C139.504 175.059 140.751 174.74 141.109 174.596C142.039 174.223 142.222 173.896 142.817 173.595C144.763 172.616 147.36 171.106 149.679 169.467C150.972 168.564 152.164 167.67 153.118 166.887C157.459 163.316 161.539 159.102 164.428 154.253C167.457 149.189 170.525 144.242 173.086 139.287C173.122 139.217 173.158 139.146 173.194 139.076C176.728 132.798 180.061 121.532 181.054 114.915C181.067 114.847 181.08 114.783 181.092 114.723C181.329 113.558 181.501 113.875 181.661 112.745C181.842 111.427 181.763 110.689 181.824 110.067C182.273 105.776 182.817 96.205 183.105 92.1422C183.125 91.8921 183.159 91.6635 183.197 91.4597C183.278 91.0138 183.374 90.6612 183.379 90.3555C183.384 90.1156 183.266 89.5954 183.253 88.8612C183.105 82.9063 182.605 79.2622 180.169 73.7183C180.064 73.298 179.881 72.8717 179.619 72.3791C178.277 69.9761 176.325 67.4497 174.417 64.9199C168.879 57.7714 162.488 50.4301 156.221 43.9263C155.684 43.3758 155.153 42.8418 154.615 42.3124C152.637 40.3661 151.419 38.8772 151.117 38.6273C150.452 38.0881 149.876 37.9231 148.469 36.9419C146.238 35.3873 143.578 33.7253 140.751 32.2482C137.643 30.6033 134.429 29.1678 131.708 28.1833C129.731 27.461 127.104 26.7398 124.816 26.1189C124.131 25.9314 123.494 25.7544 122.902 25.5803C120.83 24.9597 116.006 23.356 115.037 23.2254C114.463 23.144 114.12 23.3256 113.445 23.165ZM174.528 59.7294C173.949 59.685 176.767 62.693 176 61.3361C175.831 61.0302 174.678 59.7343 174.528 59.7294ZM85.9231 183.907C85.9593 184.031 85.9956 184.155 86.0322 184.279C86.5736 184.232 87.1067 184.182 87.645 184.131C87.3403 184.057 87.0453 183.982 86.7403 183.906C86.4689 183.907 86.1959 183.907 85.9231 183.907Z" fill="#361700"/>
<path d="M71.7284 19.7431C76.5395 19.8646 83.722 18.114 83.9177 18.1212C84.5239 18.014 85.1123 17.91 85.9358 17.7019C90.389 16.932 96.3981 17.6269 99.6767 18.8142C100.939 19.229 108.498 20.613 121.012 24.1522C126.987 25.842 132.15 27.6572 137.149 29.9915C142.148 32.3258 146.842 35.0952 153.352 41.1678C159.861 47.2403 168.052 56.2452 172.311 61.4096C177.324 67.4876 178.274 69.1238 178.675 70.412C179.442 72.8742 182.38 75.5686 182.487 88.3435C182.543 94.9829 182.2 105.449 181.45 111.726C180.448 120.118 179.068 127.17 174.586 136.998C172.084 142.483 168.57 148.66 166.607 152.319C164.093 157.003 159.632 162.697 152.266 168.644C148.398 171.766 144.925 173.897 140.582 175.249C137.43 176.231 132.746 176.219 127.571 177.696C124.22 178.654 119.675 180.732 109.062 181.853C101.874 182.612 91.1721 183.328 85.41 183.361C78.8621 183.399 73.8252 182.393 63.7161 177.989C57.3928 175.233 48.9586 171.079 44.4787 168.774C39.9987 166.469 39.4885 166.027 36.6108 162.62C33.733 159.214 28.4763 153.152 24.9769 148.156C19.1383 139.821 15.5433 133.723 14.2508 128.237C12.9953 122.908 13.031 115.812 12.4747 109.083C12.2257 106.071 11.6022 103.927 11.5383 100.574C11.4663 96.7945 11.7204 89.2515 13.7655 78.8114C14.7816 73.6238 16.1508 68.7217 17.6954 64.4459C19.2399 60.1701 20.7995 56.564 22.9028 53.0458C27.1458 45.9482 32.1792 38.5689 38.7549 33.2605C44.3866 28.7141 48.3413 25.7825 53.2603 24.2515C62.1692 21.4786 68.692 19.6665 71.7284 19.7431Z" fill="url(#paint2_linear_4055_409)"/>
<path d="M109.176 23.6065C108.553 23.4845 107.715 23.1151 106.993 22.9353C103.935 22.1722 102.856 21.8364 100.021 21.1191C99.742 21.0441 99.4912 20.9892 99.0124 20.8355L98.9522 20.8147C96.0999 19.6364 89.2972 19.1526 86.235 19.4326L86.3662 19.4047C85.002 19.6015 84.1569 19.5108 84.1152 19.2379C84.1151 19.2379 84.1151 19.2379 84.1151 19.2378C84.1132 19.227 84.1125 19.2158 84.1129 19.2042C84.1138 18.9886 85.1551 18.5584 85.2595 18.2807C85.34 18.0669 85.0942 17.1024 85.629 16.4881L85.7225 16.4682C85.9042 16.3054 86.1618 16.1739 86.51 16.1087C88.8767 15.5564 94.3528 16.3216 95.5377 16.5734C96.3618 16.6873 97.4047 16.733 98.4712 16.9825C99.0799 17.1252 99.6376 17.2853 100.164 17.4687L100.123 17.4547C102.114 17.9371 103.89 18.2983 106.317 18.5433C107.449 19.0154 108.561 19.4892 109.68 19.9719C111.229 20.2501 113.457 21.0942 114.38 21.3209C115.14 21.5061 115.627 21.4676 116.408 21.668C117.292 21.894 118.602 22.4278 120.204 22.8481C120.614 22.9557 120.978 23.0417 121.307 23.1111C123.045 23.4808 123.672 23.3507 125.01 23.7148C126.658 24.1631 129.106 25.2148 131.2 25.8459C131.473 25.8984 131.746 25.9525 132.018 26.0075C131.873 25.8394 131.725 25.6715 131.578 25.504C132.63 25.8505 132.994 26.2249 133.933 26.6103C135.037 27.0677 135.677 27.1246 136.415 27.4511C136.862 27.6494 137.387 27.9847 137.943 28.2913C138.139 28.3996 138.34 28.5042 138.543 28.5981C139.676 29.128 139.534 28.8008 140.16 29.0648C140.428 29.119 144.889 31.501 145.103 31.7072C146.928 32.8866 146.891 33.2726 148.254 34.308C150.491 36.0368 152.688 37.8356 154.765 39.6528C156.17 40.8823 157.524 42.1109 158.787 43.3162C160.176 44.6419 161.558 46.0905 162.837 47.5088C160.172 45.9049 164.275 51.1585 163.507 48.4709C164.828 50.1399 166.104 51.0067 167.417 52.5374C168.262 53.5277 168.734 54.3164 169.966 55.7048C171.348 57.2627 172.947 58.8137 173.899 60.0997C174.449 60.8409 174.787 61.4865 174.742 61.9671C177.325 64.9131 179.043 67.6284 180.49 69.0626C180.576 69.2484 180.664 69.4952 180.735 69.7712C180.827 70.3937 181.604 72.5852 181.881 73.525C182.595 74.5739 183.85 82.9235 183.72 84.2461C183.786 85.3453 183.836 87.0991 183.877 88.3318C183.888 88.6055 183.899 88.8641 183.914 89.0711C184.005 90.4724 184.847 91.4734 183.821 93.9587C183.843 96.862 183.782 97.8988 183.559 100.593C183.518 101.08 183.369 101.129 183.356 101.415C183.329 102.002 183.389 103.007 183.342 104.058C183.265 105.789 182.883 106.749 183.366 106.591C183.364 107.738 183.351 108.887 183.319 110.039C183.19 110.437 183.058 110.829 182.924 111.219C182.936 111.448 182.945 111.681 182.955 111.905C182.971 112.299 182.987 112.688 183 113.082C182.426 112.284 182.244 116.603 182.82 115.273C182.368 117.461 181.851 119.646 181.233 121.803C180.586 121.34 179.973 126.539 180.456 126.235C180.384 126.483 180.311 126.73 180.237 126.976C179.393 129.073 178.881 131.084 177.739 133.572C176.578 136.05 176.589 135.765 175.935 136.383C175.795 136.729 175.654 137.07 175.508 137.419C175.407 137.662 175.302 137.908 175.199 138.15C174.627 141.595 173.406 140.334 171.416 145.711C170.197 146.868 168.596 150.149 167.397 152.743C167.227 153.113 167.055 153.471 166.888 153.803C166.729 154.119 166.829 154.186 166.616 154.609C166.114 155.663 164.286 157.97 164.642 158.107C163.945 158.863 163.226 159.594 162.493 160.298C162.015 160.978 161.523 161.646 161.017 162.305C161.108 162.383 161.199 162.46 161.29 162.538C159.869 163.509 158.125 165.453 157.103 166.253C156.9 166.413 156.751 166.329 156.13 166.828C155.407 167.412 154.128 168.574 153.237 169.228C153.172 169.352 153.106 169.477 153.039 169.601C152.884 169.891 152.727 170.179 152.568 170.467C151.046 171.777 150.173 171.788 149.179 172.414C149.031 172.567 145.684 174.562 145.468 174.616C144.092 175.325 144.491 175.668 141.072 176.824C140.652 176.955 140.186 177.073 139.67 177.177C138.767 177.356 138.035 177.325 137.257 177.436C135.853 177.622 131.914 178.503 131.687 178.883C130.87 178.841 129.423 179.078 128.071 179.445C126.759 179.805 125.377 180.3 124.738 180.443C124.342 180.533 124.195 180.338 122.994 180.647C122.03 180.905 119.579 181.744 118.321 181.97C116.997 182.219 116.481 182.106 115.892 182.202C115.326 182.291 114.838 182.539 114.076 182.659C112.33 182.93 110.688 182.994 109.191 183.075C108.648 183.104 108.115 183.138 107.609 183.186C104.892 183.444 102.536 184.115 100.272 184.496C99.7047 184.507 99.142 184.445 98.5495 184.485C94.3802 184.76 89.915 185.001 85.4194 185.002C81.9745 185.01 78.4445 184.601 75.2739 183.755C71.7624 182.988 64.1162 179.085 65.8206 180.951C65.4354 180.861 64.3074 180.39 62.9457 179.757C60.1677 178.474 56.4026 176.485 55.4105 176.007C53.9287 175.296 52.6718 174.905 51.509 174.343C48.6933 172.977 46.5912 171.838 43.6483 170.388C42.9216 170.027 42.1502 169.655 41.2813 169.209C40.1517 168.648 38.7399 167.964 38.0989 167.377C37.3165 166.692 36.7759 165.771 36.0337 164.892C35.7678 164.578 35.4724 164.226 35.1554 163.85C33.3683 161.736 30.7525 158.732 29.3795 156.997C29.0838 156.625 29.1292 156.373 28.7487 155.808C27.262 153.613 25.4524 151.255 25.2742 152.048C24.6807 151.07 24.054 150.145 23.4262 149.242C22.1899 147.463 20.8863 145.819 19.7232 144.061C17.3741 140.442 13.7211 134.73 12.2534 128.708C11.5003 125.508 11.2519 122.656 10.9931 120.612C10.5679 116.967 10.3367 117.05 10.2577 111.767C10.2424 110.958 10.232 110.154 10.2052 109.271C10.195 108.9 10.1761 108.512 10.1459 108.097C9.94684 105.627 9.79338 102.926 9.62231 100.611C9.56699 100.006 9.48482 99.4222 9.35774 98.8605C9.56207 95.0257 9.71384 91.987 10.5432 89.2511C10.4529 88.9068 10.3637 88.566 10.2766 88.2188C10.3279 87.7598 10.3826 87.2958 10.4397 86.8335C10.5793 86.7034 10.7186 86.5774 10.8582 86.4509C11.2118 83.9704 11.4327 80.9443 11.7908 78.4246C11.9065 77.6043 12.0369 76.8376 12.1855 76.1613C12.7652 73.4573 14.134 68.3213 15.8839 63.7915C17.1013 60.5692 18.464 57.609 19.3746 55.9411C20.5357 53.8244 20.4029 53.5871 21.5525 52.6584C21.6062 52.5508 21.6603 52.4432 21.7149 52.3357C21.8999 51.9699 22.0874 51.6024 22.2755 51.2369C22.3473 50.8928 22.4195 50.55 22.4939 50.2055C24.0793 47.6092 26.2346 44.6867 27.9879 42.3504C30.3345 39.1708 33.8072 34.8645 37.6034 31.8342C38.8483 30.8271 40.0539 29.8924 41.1668 29.1082C42.2604 28.335 43.7562 27.5373 44.8576 26.7998C46.4731 25.745 46.6488 25.1168 48.9112 23.9626C49.9361 23.4592 51.251 22.9325 52.7222 22.5229C56.6131 21.4385 61.4084 20.2704 64.2221 19.5397C65.3493 19.2443 65.8506 18.9748 66.6454 18.7831C68.3696 18.3873 69.9089 18.0443 71.7719 18.0199C73.0944 18.0157 74.4801 17.8538 75.9512 17.5659C79.2847 17.5105 79.1056 17.9811 80.2264 18.3015C81.0587 18.5439 83.7408 18.8734 84.0424 19.1524C84.0773 19.181 83.8788 19.224 83.8772 19.2503C83.9168 19.286 84.0766 19.3044 84.0715 19.3352C84.0888 19.3976 84.0263 19.4776 83.9645 19.5597C83.8523 19.7214 83.7407 19.8868 83.9291 19.978C79.918 21.0231 78.0939 21.1235 74.6299 21.0888C73.668 21.1686 72.6917 21.2178 71.6917 21.1957C67.0776 21.4372 61.8457 23.2444 56.9213 24.6834C56.3503 24.7107 55.775 24.7407 55.1969 24.7725C55.1968 24.7722 55.1967 24.7719 55.1966 24.7717C54.5566 24.9216 54.0274 25.0812 53.569 25.2436C52.4418 25.6506 51.8306 26.12 51.0596 26.5247C47.8419 28.1832 44.0411 31.1602 39.8434 34.609C33.7 39.5672 28.3596 47.0857 24.2266 53.8372C22.3634 56.8519 20.9951 59.8732 19.9433 62.5238C19.7187 63.0892 19.4043 63.932 19.0513 64.9357C17.7084 68.6001 16.2555 74.5048 15.7709 75.9755C15.6009 76.4576 15.3599 76.5488 15.2358 77.0765C15.1133 77.7271 14.997 78.3787 14.8871 79.0311C14.1908 83.1645 13.6775 87.319 13.4019 91.4745C13.0245 94.4644 12.8134 97.5227 12.8534 100.549C12.8537 103.262 13.5377 105.966 13.8168 108.972C14.212 113.277 14.3773 117.553 14.7647 121.693C14.9665 123.809 15.2351 125.906 15.7122 127.893C17.5139 134.826 22.0498 141.084 26.3016 147.228C29.8341 152.169 33.8929 156.823 37.9044 161.527C40.0678 164.302 42.0905 165.71 45.2659 167.244C51.5759 170.447 57.979 173.565 64.407 176.403C65.1035 176.708 65.7857 177.001 66.4772 177.291C71.2192 179.32 77.3461 181.213 82.184 181.503C83.4647 181.609 84.2799 181.767 85.4011 181.804C86.0549 181.824 86.8201 181.799 87.8326 181.674C87.864 181.767 87.8955 181.859 87.9271 181.951C90.3433 181.763 91.8842 181.476 94.5984 181.298C96.8872 181.159 102.94 180.696 104.96 180.538C106.008 180.461 105.63 180.671 106.608 180.578C107.191 180.521 107.995 180.413 108.896 180.279C110.579 180.032 112.564 179.663 114.024 179.421C116.063 179.109 119.482 178.556 120.996 178.082C122.964 177.512 124.874 176.744 127.092 176.019C131.019 174.741 135.331 174.382 138.927 173.713C139.292 173.639 139.671 173.561 140.029 173.473C141.3 173.159 142.546 172.78 142.897 172.619C143.8 172.207 143.965 171.873 144.539 171.548C146.404 170.496 148.88 168.9 151.089 167.185C152.347 166.219 153.504 165.268 154.425 164.437C158.544 160.718 162.377 156.375 165.013 151.463C167.79 146.309 170.611 141.268 172.931 136.244C172.968 136.164 173.004 136.084 173.041 136.004C176.258 129.634 179.067 118.338 179.77 111.746C179.781 111.669 179.792 111.596 179.804 111.529C179.988 110.395 180.171 110.69 180.281 109.572C180.404 108.261 180.294 107.533 180.327 106.914C180.589 102.648 180.72 93.1523 180.836 89.1153C180.847 88.8384 180.877 88.5806 180.912 88.3568C180.972 87.9484 181.042 87.6186 181.036 87.3334C181.031 87.1047 180.891 86.5808 180.848 85.8616C180.452 79.9274 179.822 76.3221 177.16 70.8837C177.045 70.4963 176.867 70.1144 176.614 69.6718C175.198 67.3265 173.121 64.8614 171.106 62.4033C165.332 55.5463 158.708 48.5359 152.247 42.352C151.722 41.8561 151.21 41.38 150.683 40.9011C148.651 39.0524 147.39 37.6225 147.08 37.3851C146.4 36.8763 145.827 36.7399 144.392 35.8208C142.099 34.3518 139.368 32.791 136.478 31.4297C133.367 29.9436 130.166 28.6691 127.461 27.814C125.452 27.1723 122.787 26.5617 120.479 26.0379C119.821 25.8868 119.21 25.7443 118.637 25.6017C116.561 25.0736 111.719 23.6843 110.755 23.5966C110.181 23.5402 109.849 23.7367 109.176 23.6065ZM171.113 57.3353C170.534 57.3152 173.446 60.1799 172.636 58.8678C172.454 58.569 171.261 57.3311 171.113 57.3353ZM88.6881 184.258C88.7292 184.381 88.7704 184.503 88.8118 184.626C89.347 184.556 89.8723 184.484 90.4019 184.409C90.0984 184.348 89.8007 184.286 89.4968 184.223C89.2295 184.235 88.9568 184.247 88.6881 184.258Z" fill="#361700"/>
<path d="M68.0023 44.8981C69.7379 42.8713 70.6557 41.7988 71.1394 41.233C71.2785 41.1857 71.4315 41.1443 71.6022 41.1101C75.3054 41.0144 77.514 41.4188 79.0288 42.6828C79.2623 43.0861 79.4209 43.5427 79.2501 44.0108C78.8818 45.0197 75.1543 51.2935 67.4436 60.8872C60.6989 69.2789 56.9853 73.5341 55.7459 73.5878C54.2689 73.6518 52.8166 73.6114 51.6303 72.7956C49.8858 71.5959 48.2198 70.3706 48.3267 69.1692C48.3873 68.4871 48.8121 67.6469 52.8468 62.7645C56.8126 57.9656 64.0488 49.5151 67.8094 45.1234L68.0023 44.8981Z" fill="url(#paint3_linear_4055_409)"/>
<path d="M74.2451 43.6485C74.1459 43.671 74.0153 43.4999 73.8976 43.485C73.4003 43.4224 73.2111 43.3068 72.7393 43.239C72.4989 43.2052 72.0918 43.2111 71.6561 43.1963L72.0114 43.1564C71.776 43.1812 71.6828 43.1654 71.4622 43.1389C71.245 43.1127 70.8888 43.1103 70.6659 42.8134C70.6659 42.8134 70.6659 42.8134 70.6658 42.8133C70.6591 42.8046 70.6524 42.7957 70.6458 42.7865C70.5217 42.611 70.5212 42.3151 70.3962 42.1058C70.2778 41.8931 69.2867 40.6683 69.5382 40.3853C69.8312 40.0346 70.9082 39.8452 71.3564 39.8813L71.5698 39.8573C71.6634 39.8773 71.7362 39.8887 71.7788 39.8843C71.9231 39.8689 72.1056 39.7234 72.2933 39.6966C72.9081 39.6115 73.223 39.7197 73.8049 39.3545C74.0238 39.5677 74.241 39.7839 74.4496 40.0034C74.7519 39.9289 75.1737 40.2429 75.3513 40.2517C75.4999 40.2583 75.6076 40.1104 75.7652 40.1268C75.9418 40.1446 76.1789 40.3602 76.4996 40.404C77.0239 40.4809 77.2371 40.1105 77.5866 40.1649C77.9532 40.2249 78.394 40.6458 78.8831 40.7474C78.9588 40.7359 79.0348 40.7254 79.112 40.7165C79.1255 40.6035 79.1377 40.4901 79.1477 40.376C79.4002 40.4616 79.386 40.7049 79.5794 40.8369C79.8064 40.9952 80.0426 40.9203 80.1949 41.0419C80.2319 41.0718 80.2633 41.1166 80.2929 41.1679L80.7363 41.6942C80.7688 41.8454 80.7821 42.0352 80.8636 42.2013C81.0291 42.5612 81.2168 42.4097 81.3348 42.6417C81.3494 42.6786 81.4673 42.9643 81.5199 43.409C81.5801 43.8497 81.5082 44.4362 81.3892 44.7916C81.3335 44.9763 81.2968 45.0701 81.2925 45.0825C81.0745 45.5739 80.7779 45.4243 80.5992 45.7021C80.1037 46.4491 79.8826 47.3091 79.5482 48.0312C79.4048 48.3434 79.1945 48.6393 78.9606 48.9071C78.5621 48.0029 77.3764 48.6561 78.7012 48.984C78.3371 49.2083 78.4856 49.6169 78.2315 49.8941C78.0737 50.0625 77.8327 50.1019 77.6509 50.3808C77.3312 50.874 77.3826 51.6977 76.5296 51.3149C76.2718 51.9748 75.655 52.2717 76.1746 52.9431C76.1154 53.1133 75.4506 53.2148 75.2844 53.3341C75.1289 53.4484 74.099 54.5008 73.9531 54.6766C73.8058 54.8576 73.5448 55.1899 73.4873 55.3872C73.4121 55.6371 73.9783 56.2872 72.9253 56.0525C72.6829 56.5097 72.5427 56.6492 72.1662 56.9575C72.0974 57.0142 71.9749 56.9338 71.9441 56.9742C71.8811 57.0574 71.8583 57.2661 71.7547 57.4238C71.5882 57.6778 71.2369 57.6305 71.6308 57.8887C71.5706 58.0968 71.5072 58.3087 71.4459 58.5173C71.3312 58.5176 71.2165 58.5179 71.1016 58.5184C71.1141 58.6638 71.1261 58.8097 71.1377 58.9561C70.6795 58.4383 70.5252 59.2908 70.986 59.3331C70.6348 59.5557 70.2837 59.7764 69.9272 60.002C69.3554 59.4805 69.327 60.6187 69.7021 60.8209C69.6735 60.8559 69.6449 60.891 69.6162 60.9262C69.2085 61.1094 69.1204 61.4893 68.7086 61.7821C68.6797 61.8026 68.6526 61.8214 68.6271 61.8383C68.2925 62.0608 68.2429 61.9814 67.9009 61.8798C67.8464 61.9799 67.7922 62.0797 67.7384 62.1789C68.127 63.2485 66.8806 62.1088 66.8267 63.3631C66.1493 63.2272 65.8977 64.0475 65.7099 64.5711C65.6875 64.6327 65.7788 64.7087 65.7553 64.7955C65.6955 65.0082 65.2599 65.2993 65.5648 65.5318C65.3656 65.5999 65.1677 65.6663 64.971 65.731C64.9347 65.8849 64.8964 66.0411 64.8571 66.1983C64.9499 66.2738 65.0427 66.3494 65.1355 66.4249C64.6343 66.3921 64.4671 66.8399 64.2456 66.9539C64.2018 66.9758 64.0684 66.8781 63.9453 66.9558C63.8032 67.0433 63.6419 67.3131 63.4785 67.4279C63.5705 67.603 63.6625 67.7778 63.7547 67.9524C63.6065 68.2834 63.1559 68.0692 62.9975 68.1988C62.9731 68.2181 62.5582 68.761 62.5455 68.7913C62.4163 69.068 62.7828 69.2749 62.1525 69.8702C62.0391 69.9769 61.8541 69.973 61.7571 70.0754C61.5864 70.2568 61.3378 71.0247 61.5211 71.2659C61.042 71.2443 60.6149 71.9404 60.3701 72.0432C60.2963 72.0738 60.1102 71.9254 59.9246 72.049C59.7711 72.1526 59.5879 72.619 59.401 72.7623C59.2076 72.9089 58.9968 72.8361 58.9114 72.9006C58.8314 72.9609 58.8701 73.1485 58.7656 73.2472C58.4335 73.5569 57.9511 73.6408 57.6558 73.8718C57.4308 74.0466 57.3006 74.2915 57.1053 74.581C56.8939 74.8594 56.7202 75.2204 55.9796 75.4353C55.9296 75.4365 55.8782 75.4351 55.8258 75.4313C55.7324 75.3947 55.6377 75.321 55.5398 75.3235C54.2124 75.3611 52.2298 75.2108 50.7657 74.0529C50.7504 74.0405 50.7351 74.0282 50.7199 74.0158C50.2362 73.6419 49.3504 72.1636 49.0307 73.2739C48.7307 73.3138 47.6312 71.7743 47.4018 71.3384C47.1602 70.9924 46.7874 70.7302 46.6337 70.2668C46.5066 69.8788 46.4569 69.4378 46.5072 69.0074C46.6415 68.0072 47.0615 67.4718 47.3175 66.8192C47.4194 66.5788 47.373 66.2426 47.4605 66.1224C47.56 65.9872 47.8463 65.9687 47.9839 65.805C48.308 65.4137 48.8104 64.6452 49.1314 64.3025C49.1923 64.2376 49.3616 64.3378 49.4843 64.2812C49.9659 64.0571 50.2783 63.6378 49.7358 63.319C50.3891 63.0719 50.4957 62.432 50.8317 61.9921C50.9584 61.827 51.0981 61.6552 51.2638 61.4564C52.026 60.5412 53.109 59.3436 53.4858 58.5586C53.7768 57.9558 53.5498 57.7917 54.3444 57.2222C54.5214 57.0952 54.7116 56.9813 54.9241 56.8283C55.4262 56.4659 56.173 56.3814 55.9918 55.6336C56.5445 55.23 56.7985 54.7536 57.5217 54.7226C57.4621 54.5959 57.4025 54.4691 57.3429 54.3424C57.3931 54.2783 57.4437 54.2138 57.4937 54.1501C57.6027 54.2094 57.7118 54.2688 57.8209 54.3281C58.2225 53.9055 58.3205 53.0187 58.6428 52.6455C59.1828 52.0188 60.7104 50.5254 61.344 50.036C61.6816 49.7746 61.4976 49.5891 62.0587 49.7561C62.0901 49.662 62.123 49.5662 62.1553 49.471C62.1041 49.3505 62.0529 49.23 62.0016 49.1096C62.3424 48.7033 62.8934 48.3386 63.223 47.9501C63.8225 47.2431 64.4794 45.9791 65.2471 45.4081C65.4403 45.2645 65.8109 45.2032 65.9593 45.0258C66.1687 44.7754 65.9237 44.445 66.1873 44.1255C66.2958 43.9945 66.4498 43.8503 66.6169 43.7118C67.1829 43.2365 67.985 42.7109 68.3051 42.295C68.4267 42.1371 68.3812 41.9607 68.4566 41.8481C68.7913 41.352 69.1109 40.9972 69.3062 40.4142C69.994 40.2013 70.3365 40.5639 70.8389 40.7465C71.2258 40.8749 72.1467 41.1465 72.481 41.2605C72.4975 41.2508 72.4936 41.2702 72.5413 41.2166C72.5538 41.1997 72.5689 41.1814 72.6023 41.124C72.6193 41.093 72.6419 41.0558 72.6757 40.9644C72.69 40.864 72.8229 40.7413 72.6666 40.2238C72.5845 39.9681 72.2763 39.6665 72.0018 39.593C71.7289 39.5084 71.5515 39.5442 71.447 39.5635C71.2359 39.614 71.1804 39.6599 71.1266 39.6872C71.033 39.7432 71.0127 39.7632 70.9892 39.7801C70.9165 39.8371 70.9254 39.8274 70.9148 39.8315C70.889 39.8358 70.8833 39.8201 70.8714 39.8101C70.8618 39.7979 70.8452 39.792 70.8551 39.7603C70.8652 39.7483 70.8404 39.7523 70.98 39.6412C71.0404 39.609 71.0428 39.5544 71.3935 39.4495C71.4889 39.4282 71.6275 39.3981 71.8517 39.4298C72.0686 39.4563 72.3955 39.5999 72.5952 39.8538C72.9907 40.4018 72.847 40.7354 72.8367 40.8699C72.7636 41.1481 72.7245 41.1661 72.7009 41.2198C72.677 41.2617 72.6644 41.2811 72.6545 41.2973C72.6181 41.3615 72.6351 41.3505 72.6301 41.3704C72.647 41.4529 72.6963 41.4977 72.7359 41.5562C72.8197 41.6676 72.9061 41.7802 73.0268 41.8355C72.6978 42.5373 72.3353 42.6138 71.6759 42.8312C70.9779 43.669 70.2734 44.5139 69.5775 45.3487C69.4056 45.3347 69.2338 45.3206 69.065 45.303C69.0648 45.3028 69.0646 45.3026 69.0643 45.3024C68.9198 45.3796 68.8478 45.4814 68.8104 45.5901C68.7535 45.7677 68.7962 45.967 68.741 46.1107C67.922 48.2684 64.6913 51.1034 63.0764 52.8627C62.7279 53.2423 61.7889 54.6351 61.3877 54.7569C61.2836 54.7881 61.1031 54.6679 61.033 54.7358C60.5683 55.4798 60.105 56.2231 59.6417 56.9675C58.232 58.1127 57.2558 59.6959 56.1408 61.1051C55.4414 61.9894 54.739 62.8837 54.0548 63.7628C53.2432 64.8059 52.4464 65.8364 51.6745 66.8707C51.2934 67.3831 50.9145 67.9006 50.5814 68.3964C50.2498 68.8586 49.9669 69.4807 50.05 69.3224C50.0467 69.0549 50.013 69.223 50.2475 69.4773C50.4606 69.7305 50.794 70.0317 51.1567 70.3244C51.5553 70.648 52.1147 70.9687 52.6509 71.3116C52.8303 71.42 53.0112 71.5094 53.1936 71.6142C53.3929 71.7255 53.434 72.098 53.8462 71.9018C53.8367 71.9946 53.8275 72.0874 53.8185 72.1802C54.1794 72.1148 54.4128 71.9168 54.8303 71.9001C55.0045 71.8931 55.3291 71.8803 55.6711 71.8634C55.3098 71.9012 55.3885 71.934 55.4199 71.906C55.469 71.8836 55.5494 71.8377 55.5997 71.8133C55.7131 71.7542 55.7795 71.9214 55.8841 71.8406C56.0697 71.6982 56.334 71.1429 56.6044 70.8783C56.8492 70.6447 57.4175 70.35 57.5836 70.1316C58.1965 69.3376 58.708 68.3152 59.4765 67.5495C59.6945 67.3323 60.1108 67.1934 60.1701 67.1142C60.2827 66.9624 60.1488 66.7813 60.207 66.6694C60.5094 66.0949 61.3347 65.5165 61.7396 65.0449C63.0554 63.5142 64.3337 61.7875 65.6294 60.2426C65.7529 60.0954 65.8884 59.9308 66.0332 59.7535C66.8316 58.7786 67.8558 57.4657 68.5744 56.7634C68.7562 56.5864 68.9055 56.7861 69.0335 56.62C69.1783 56.4319 69.1279 56.231 69.1843 56.1358C69.5746 55.4786 70.4481 54.0458 71.0093 53.5624C71.1159 53.4719 71.3233 53.5077 71.3732 53.4389C71.3981 53.405 71.3509 53.2524 71.4175 53.1395C72.002 52.1456 72.548 51.5152 73.2312 50.6221C74.5378 48.9084 75.7341 46.7117 76.9695 44.8865C77.2345 44.4946 77.7204 44.3857 77.7469 44.33C77.8088 44.2014 77.6394 43.9928 77.7037 43.7309C77.7324 43.6134 77.7753 43.4711 77.762 43.4677C77.7181 43.5239 77.7138 43.6453 77.7233 43.6554C77.7312 43.6707 77.7204 43.5929 77.6622 43.474L78.017 43.8952C77.7344 43.6252 77.4024 43.404 77.063 43.3206C76.7019 43.2263 76.1184 43.3864 75.7318 43.3821C75.4336 43.3694 74.6797 43.1502 74.5145 43.2804C74.4161 43.3563 74.3545 43.6228 74.2451 43.6485ZM77.2805 50.5562C76.9598 50.2581 76.8519 51.0567 77.1959 50.9644C77.2718 50.9462 77.3638 50.6338 77.2805 50.5562ZM53.6291 74.5054C53.6213 74.6291 53.6138 74.7528 53.6067 74.8766C53.7237 74.8389 53.8377 74.7986 53.9489 74.7562C53.895 74.6771 53.8421 74.5975 53.7907 74.5174C53.7371 74.514 53.6831 74.51 53.6291 74.5054Z" fill="#361700"/>
<path d="M108.433 48.1626C105.507 46.3398 104.228 45.5975 103.464 45.1933C103.195 44.9176 103.02 44.7592 102.847 44.5819C102.217 43.8605 101.735 43.0557 101.47 42.1519C101.365 41.076 101.245 39.9708 101.734 39.3375C102.218 38.7126 103.206 37.6736 104.921 37.6205C108.41 37.5126 110.301 38.0591 116.616 41.9942C120.025 44.1178 125.571 47.2804 128.82 49.6334C135.097 54.1796 137.236 56.128 137.136 58.0816C137.052 59.7246 136.695 62.3564 135.133 62.5966C134.393 62.7104 132.752 63.1513 125.097 58.5562C120.415 55.7462 112.692 50.8155 108.433 48.1626Z" fill="url(#paint4_linear_4055_409)"/>
<path d="M103.97 41.7497C104.021 41.7961 103.909 41.9454 103.938 42.0229C104.057 42.3416 104.034 42.5159 104.19 42.8385C104.238 42.9346 104.325 43.0571 104.436 43.1952L104.359 43.1113C104.567 43.3376 105.136 43.9203 105.356 44.3638C105.603 44.8261 105.655 45.254 105.315 45.5483C105.315 45.5483 105.315 45.5483 105.315 45.5483C105.307 45.5555 105.298 45.5627 105.289 45.5697C105.12 45.7023 104.819 45.7113 104.617 45.8497C104.416 45.989 103.245 47.0291 103.014 46.9002C102.685 46.6945 102.407 45.8275 102.234 45.6938C102.158 45.6312 102.018 45.598 101.876 45.5265L101.827 45.4726C101.771 45.4418 101.718 45.4066 101.672 45.3636C101.172 44.8825 101.06 44.5394 100.4 44.1538C100.452 43.8216 100.523 43.4985 100.615 43.1895C100.469 43.0084 100.464 42.6837 100.467 42.4457L100.43 42.2533C100.453 42.1613 100.469 42.0811 100.459 42.0285C100.434 41.8926 100.265 41.8258 100.245 41.6771C100.222 41.5092 100.373 41.2371 100.341 40.9079C100.296 40.3619 99.8887 40.2084 99.9107 39.7568C99.936 39.4262 100.171 38.9227 100.565 38.4334C100.658 38.3216 100.743 38.2006 100.803 38.0654C100.808 37.9894 100.815 37.9127 100.823 37.8351C100.716 37.7975 100.608 37.7599 100.499 37.726C100.639 37.4969 100.873 37.5642 101.049 37.4026C101.258 37.2139 101.245 36.9631 101.407 36.8388C101.541 36.7371 101.817 36.7414 101.992 36.6217C102.252 36.4491 102.08 36.2804 102.215 36.1571C102.246 36.0795 103.459 35.4837 103.548 35.498C104.114 35.3635 104.209 35.6858 104.631 35.6766C104.707 35.6765 104.784 35.6763 104.861 35.6762C105.659 35.6832 106.524 35.4558 107.368 35.4557C107.769 35.4543 108.188 35.5384 108.57 35.6703C107.82 36.3571 108.962 37.2572 108.769 35.8936C109.15 36.1697 109.538 35.917 109.914 36.0983C110.156 36.2174 110.269 36.4443 110.608 36.5675C111.212 36.7846 112.053 36.6144 111.821 37.5216C112.541 37.6806 112.92 38.261 113.526 37.6638C113.714 37.7071 113.892 38.3559 114.028 38.5079C114.174 38.6548 115.307 39.5649 115.495 39.6956C115.696 39.8301 116.028 40.0459 116.239 40.0912C116.488 40.1398 117.088 39.5196 116.938 40.5843C117.116 40.6589 117.249 40.7242 117.364 40.7951C117.542 40.905 117.675 41.0322 117.884 41.2442C117.945 41.3063 117.877 41.436 117.919 41.4615C118.003 41.5134 118.21 41.5134 118.37 41.5954C118.635 41.7319 118.622 42.0833 118.837 41.6645C119.045 41.699 119.255 41.7339 119.464 41.7681C119.476 41.8814 119.49 41.9957 119.501 42.1083C119.642 42.0778 119.783 42.0477 119.925 42.0178C119.468 42.5363 120.31 42.5753 120.305 42.1169C120.561 42.4348 120.816 42.7522 121.073 43.0707C120.628 43.7046 121.748 43.581 121.9 43.1826C121.938 43.2058 121.975 43.2291 122.013 43.2524C122.235 43.6263 122.626 43.6656 122.956 44.0267C123.287 44.3882 123.21 44.4297 123.148 44.8074C123.253 44.8474 123.358 44.8875 123.463 44.9276C124.466 44.3992 123.498 45.7823 124.736 45.668C124.683 46.3551 125.516 46.495 126.056 46.6181C126.119 46.6323 126.183 46.5323 126.271 46.5448C126.487 46.577 126.828 46.978 127.022 46.647C127.108 46.8348 127.196 47.0241 127.282 47.2124C127.439 47.2315 127.599 47.2534 127.757 47.2742C127.822 47.174 127.888 47.0738 127.953 46.9735C127.97 47.4729 128.437 47.5982 128.568 47.8058C128.593 47.8471 128.509 47.989 128.599 48.1055C128.702 48.2412 128.982 48.3762 129.109 48.5297C129.277 48.4243 129.446 48.3207 129.615 48.2168C129.685 48.2421 129.732 48.2809 129.765 48.328C129.896 48.5148 129.8 48.833 129.911 48.9509C129.934 48.975 130.492 49.339 130.524 49.3504C130.802 49.4529 130.987 49.0772 131.612 49.649C131.724 49.7522 131.736 49.9386 131.84 50.023C132.03 50.1771 132.802 50.3559 133.029 50.155C133.034 50.6264 133.759 50.9941 133.87 51.2206C133.906 51.2911 133.773 51.4884 133.91 51.6624C134.018 51.8004 134.492 51.9386 134.647 52.1085C134.811 52.2889 134.743 52.4926 134.818 52.5749C134.888 52.6509 135.064 52.5887 135.166 52.6782C135.497 52.9697 135.612 53.4228 135.863 53.6666C136.221 54.0156 136.879 54.0041 137.352 54.2226C137.404 54.329 137.404 54.4867 137.481 54.5826C138.088 55.3409 138.895 56.6105 138.751 58.1642C138.697 58.6537 138.621 59.1423 138.52 59.6152C138.429 60.2856 137.264 61.7735 138.421 61.6894C138.458 61.8527 138.212 62.4019 137.698 62.9748C137.212 63.5677 136.273 64.0104 135.975 64.08C135.769 64.153 135.579 64.2223 135.392 64.2818C135.29 64.355 135.033 64.4794 134.81 64.4949C133.715 64.5483 133.169 64.2553 132.191 64.1521C131.945 64.1236 131.621 64.2556 131.485 64.2043C131.318 64.1411 131.227 63.8708 131.029 63.779C130.556 63.5654 129.672 63.2539 129.26 63.0127C129.186 62.9689 129.242 62.78 129.156 62.6708C128.832 62.2511 128.353 62.0279 128.153 62.625C127.765 62.0299 127.132 62.0565 126.623 61.7989C125.925 61.4463 124.926 60.8103 124.04 60.3164C123.584 60.0631 123.143 59.8447 122.804 59.7441C122.173 59.5526 122.043 59.8005 121.371 59.1049C121.224 58.952 121.082 58.7799 120.904 58.5949C120.48 58.157 120.294 57.435 119.586 57.7264C119.116 57.2447 118.614 57.0663 118.484 56.3589C118.369 56.4368 118.253 56.5147 118.137 56.5926C118.067 56.5529 117.998 56.5131 117.928 56.4732C117.971 56.3569 118.014 56.2405 118.058 56.1242C117.59 55.7933 116.708 55.8299 116.299 55.5693C115.613 55.1325 113.945 53.8537 113.381 53.3044C113.08 53.012 112.925 53.2216 113.012 52.6439C112.914 52.6264 112.817 52.609 112.72 52.5918C112.609 52.6604 112.498 52.7292 112.387 52.798C111.94 52.5217 111.513 52.0373 111.088 51.7722C110.317 51.291 108.986 50.8352 108.331 50.1751C108.16 50.0053 108.053 49.6534 107.858 49.5348C107.775 49.4845 107.693 49.4763 107.61 49.4839C107.405 49.497 107.198 49.6034 106.947 49.4537C106.338 49.0893 105.458 48.0011 104.867 47.6887C104.689 47.5939 104.539 47.6777 104.41 47.6198C103.888 47.3884 103.489 47.141 102.92 47.0887C102.621 46.4866 102.892 46.0738 102.961 45.5459C103.019 45.1496 102.999 44.1691 103.085 43.8444C103.145 43.6156 103.419 43.4148 103.474 43.1574C104.258 43.3025 104.477 43.6829 104.82 44.2881C105.794 44.8247 106.724 45.3751 107.653 45.9282C107.666 46.0997 107.676 46.2697 107.685 46.4394C107.685 46.4397 107.685 46.44 107.684 46.4402C107.954 46.7959 108.295 46.584 108.523 46.6294C108.758 46.6792 108.996 46.7486 109.253 46.8462C111.415 47.6519 114.181 49.9904 115.915 51.1746C116.333 51.4599 117.823 52.1745 117.996 52.5506C118.041 52.6483 117.947 52.844 118.023 52.9027C118.814 53.2474 119.604 53.5911 120.394 53.9333C121.703 55.144 123.39 55.8653 124.916 56.7321C125.236 56.9141 125.555 57.0943 125.869 57.2696C128.901 58.9091 132.745 61.0935 134.869 60.882C134.795 60.8855 134.699 60.9679 134.751 60.9235C134.792 60.8836 134.893 60.7305 134.978 60.5228C135.215 59.9819 135.209 58.9441 135.356 58.1617C135.368 58.1002 135.389 58.0438 135.416 57.9936C135.52 57.9244 135.707 57.8156 135.462 57.7044C135.551 57.6775 135.64 57.6501 135.729 57.6223C135.554 57.4351 135.304 57.4017 135.11 57.1434C134.968 56.9303 134.366 56.2705 134.153 56.0234C134.05 55.897 134.215 55.8152 134.101 55.7057C133.907 55.5211 133.311 55.3075 133.019 55.0591C132.753 54.8303 132.427 54.3036 132.188 54.15C131.358 53.6154 130.31 53.1931 129.499 52.4921C129.27 52.2945 129.104 51.892 129.022 51.8391C128.866 51.7411 128.696 51.8886 128.581 51.8391C128.287 51.712 127.992 51.4618 127.695 51.1869C127.419 50.9268 127.141 50.65 126.899 50.4776C125.322 49.3577 123.486 48.3343 121.82 47.2726C120.767 46.6012 118.959 45.5626 118.045 44.8189C117.85 44.6591 118.031 44.488 117.85 44.3785C117.65 44.2579 117.457 44.3306 117.357 44.2849C116.962 44.1066 116.3 43.7922 115.708 43.4525C115.261 43.1965 114.86 42.9384 114.643 42.7224C114.545 42.6254 114.558 42.413 114.489 42.3723C114.454 42.3513 114.31 42.4139 114.196 42.3612C113.174 41.8847 112.521 41.418 111.594 40.8762C109.778 39.8123 107.791 39.2895 105.802 39.2103C105.36 39.1787 105.029 38.8191 104.961 38.8244C104.96 38.8244 104.959 38.8245 104.958 38.8246C104.849 38.8391 104.794 39.0881 104.62 39.1774C104.096 39.4358 103.365 39.6464 102.976 40.2976C102.988 40.2896 102.999 40.2833 103.008 40.2796C103.088 40.2222 103.317 40.5976 103.416 40.9486C103.46 41.1382 103.45 41.6047 103.502 41.9539L103.43 41.5782C103.461 41.6611 103.501 41.7209 103.549 41.7361C103.65 41.7689 103.913 41.6992 103.97 41.7497ZM110.888 36.9022C110.66 37.2738 111.5 37.2398 111.329 36.9139C111.289 36.8389 110.949 36.805 110.888 36.9022ZM137.925 56.8349C138.04 56.7883 138.154 56.741 138.269 56.6929C138.178 56.5838 138.082 56.4807 137.986 56.3888C137.946 56.483 137.902 56.5714 137.857 56.6631C137.881 56.7201 137.904 56.7773 137.925 56.8349Z" fill="#361700"/>
<path d="M82.305 80.7131C81.6052 80.267 81.225 76.2195 81.1232 73.3694C81.9053 73.1347 82.5799 72.9785 83.2703 72.8472C86.0329 72.4287 88.5822 72.0975 91.7525 71.7097C96.6805 71.2283 100.105 70.7616 102.814 70.7323C108.695 70.6688 113.127 70.3865 113.789 70.9711C114.371 71.4866 115.747 72.893 115.282 75.8959C115.094 77.1043 114.823 78.141 114.026 78.522C113.196 78.9181 106.517 80.473 95.8289 81.2178C88.4231 81.7339 84.1568 81.8936 82.305 80.7131Z" fill="url(#paint5_linear_4055_409)"/>
<path d="M82.9152 75.4728C82.8356 75.5222 82.6753 75.3942 82.5703 75.4121C82.1322 75.4865 81.9426 75.4248 81.5287 75.4852C80.9162 75.5591 79.2166 76.4351 78.7936 75.3984C78.7935 75.3984 78.7935 75.3983 78.7935 75.3983C78.7895 75.388 78.7855 75.3776 78.7817 75.3669C78.7094 75.1647 78.7798 74.8851 78.7142 74.6503C78.6483 74.4154 78.0598 72.9622 78.2594 72.7904C78.5551 72.549 79.5121 72.6277 79.6897 72.5502C79.8109 72.4953 79.9204 72.3076 80.0761 72.2298C80.5802 71.9801 80.8854 71.9974 81.2798 71.4895C81.5318 71.6332 81.7795 71.781 82.0218 71.9332C82.2563 71.7794 82.6999 71.9604 82.849 71.9163C82.9394 71.8892 82.9866 71.7896 83.0569 71.7254L83.0993 71.7182C83.1249 71.6958 83.1533 71.6783 83.1873 71.6711C83.3293 71.6402 83.5752 71.7793 83.8322 71.7147C84.2535 71.6099 84.269 71.1827 84.5188 71.0925C84.7779 70.9992 85.2247 71.1665 85.5445 70.9724C85.5808 70.9206 85.6172 70.8688 85.6535 70.817C85.6084 70.7176 85.5634 70.6182 85.5182 70.5188C85.6833 70.4465 85.7868 70.6488 85.9449 70.6309C86.1313 70.6099 86.1982 70.3956 86.3235 70.3794C86.4259 70.3664 86.5869 70.5092 86.7179 70.4812C86.9096 70.4413 86.8359 70.2136 86.9342 70.156C86.9738 70.1332 87.725 69.9029 87.7682 69.8956C88.0967 69.8434 88.1665 70.1594 88.433 70.1535C89.1706 70.136 89.8852 69.7839 90.5454 69.6031C90.84 69.5223 91.156 69.5023 91.4616 69.5168C91.2911 69.9183 91.4343 70.2427 91.5872 70.3579L91.6201 70.3543C91.7977 70.4951 91.9925 70.3434 91.7139 69.6678C92.0616 69.8182 92.2622 69.4479 92.5816 69.4749C92.7884 69.4926 92.947 69.6563 93.2361 69.6219C93.7501 69.5595 94.2595 68.9943 94.5044 69.893C95.0921 69.6681 95.6542 69.9436 95.7865 69.1134C95.9387 69.0474 96.3912 69.4857 96.5734 69.5327C96.7453 69.5762 98.0492 69.6616 98.2616 69.6542C98.4736 69.6456 98.8439 69.6237 99.0148 69.5367C99.2302 69.4286 99.3159 68.5753 99.8004 69.5226C100.26 69.4052 100.43 69.4207 100.874 69.5058C100.955 69.5213 100.973 69.6666 101.019 69.6639C101.113 69.658 101.271 69.5404 101.44 69.5184C101.721 69.4822 101.895 69.7835 101.844 69.3155C102.027 69.2291 102.213 69.144 102.402 69.0606C102.471 69.1496 102.539 69.2388 102.608 69.3282C102.67 69.2649 102.733 69.2018 102.796 69.1389C102.832 69.102 102.867 69.065 102.902 69.028C102.798 69.709 103.465 69.2997 103.242 68.9125C103.591 69.0487 103.939 69.1841 104.288 69.3189C104.251 70.0922 105.052 69.3946 104.976 68.9759C105.016 68.9757 105.056 68.9756 105.096 68.9754C105.447 69.1741 105.763 68.9998 106.193 69.1288C106.618 69.2577 106.584 69.3336 106.719 69.6861C106.819 69.6637 106.917 69.6413 107.018 69.6188C107.524 68.6343 107.464 70.3214 108.354 69.5574C108.652 70.164 109.358 69.8308 109.832 69.6417C109.886 69.6198 109.886 69.5009 109.961 69.4638C110.141 69.374 110.605 69.5266 110.588 69.1437C110.753 69.255 110.907 69.3668 111.072 69.4797C111.206 69.4117 111.338 69.3442 111.475 69.2776C111.477 69.158 111.479 69.0384 111.481 68.9188C111.744 69.3319 112.174 69.1923 112.395 69.3052C112.438 69.3279 112.432 69.4924 112.568 69.5478C112.715 69.6122 113.03 69.594 113.228 69.6781C113.342 69.511 113.448 69.3435 113.59 69.1861C114.062 69.2076 114.165 69.6342 114.586 70.0698C114.591 70.0804 114.597 70.0904 114.604 70.0998C114.632 70.1182 115.185 70.6314 115.212 70.6665C115.475 70.879 115.8 70.5243 116.249 71.4803C116.322 71.6523 116.257 71.8479 116.315 71.9957C116.432 72.2488 116.979 72.9831 117.277 73.0025C117.008 73.4402 117.245 74.3184 117.129 74.5873C117.097 74.6655 116.862 74.6868 116.807 74.9172C116.765 75.1019 116.921 75.592 116.857 75.825C116.818 75.9671 116.726 76.0464 116.652 76.1084C116.603 76.1462 116.561 76.1773 116.549 76.2165C116.521 76.3086 116.665 76.4225 116.64 76.5559C116.558 76.9734 116.213 77.3096 116.088 77.6628C115.904 78.1584 116.1 78.9195 115.64 79.6501C115.472 79.7628 115.255 79.8016 115.079 79.9102C114.979 79.9715 114.876 80.0275 114.769 80.0775C113.137 80.6668 112.159 80.6928 110.955 80.8574C110.402 80.9228 108.943 80.5248 109.491 81.5244C109.338 81.7465 107.892 81.5468 107.626 81.5793C107.37 81.613 107.189 81.8368 106.982 81.8709C106.37 81.9714 105.905 81.8975 105.179 82.1661C104.989 82.2363 104.808 82.4917 104.695 82.5039C104.556 82.5182 104.377 82.3174 104.193 82.3266C103.762 82.3497 102.971 82.5184 102.55 82.5273C102.473 82.5286 102.425 82.3379 102.312 82.2893C101.871 82.0995 101.398 82.1706 101.549 82.7804C100.978 82.486 100.513 82.857 100.013 82.9248C98.9626 83.0693 97.0237 83.0825 96.1251 83.4053C96.0741 83.4236 96.0278 83.4424 95.9852 83.4614C95.5525 83.656 95.5154 83.8718 94.7264 83.7049C94.5363 83.6641 94.3387 83.605 94.1083 83.5561C93.5607 83.4415 93.0363 82.9572 92.6659 83.6015C92.0557 83.4759 91.5875 83.6153 91.1123 83.1064C91.0663 83.2362 91.0203 83.366 90.9744 83.4958C90.9014 83.5024 90.8254 83.5091 90.7516 83.5156C90.7229 83.3952 90.6944 83.2748 90.6659 83.1544C90.1385 83.1455 89.4837 83.6688 89.0245 83.6759C88.2698 83.6986 86.2633 83.496 85.5079 83.2587C85.1157 83.1412 85.0597 83.3953 84.8848 82.8391C84.7893 82.8662 84.6944 82.8925 84.6 82.918C84.528 83.027 84.4525 83.1352 84.3773 83.2431C83.8325 83.1732 83.2036 82.8635 82.6444 82.6747C82.296 82.5576 81.8585 82.4264 81.3763 82.1699C80.5658 81.5888 80.5546 81.2817 80.379 81.0111C80.249 80.7549 80.1608 80.5231 80.095 80.3237C79.9617 79.9115 79.9019 79.5539 79.9134 79.2378C79.9229 78.9988 80.1154 78.6788 80.0814 78.4687C80.0318 78.1563 79.6237 78.1353 79.5667 77.7384C79.4664 77.052 79.8224 75.7645 79.7488 75.1417C79.7262 74.9546 79.5721 74.8776 79.5484 74.7486C79.4484 74.2089 79.4402 73.7636 79.1925 73.2457C79.5598 72.6691 80.0591 72.7074 80.5559 72.5283C80.9307 72.3891 81.8032 71.9911 82.1347 71.9443C82.3671 71.9081 82.6663 72.0431 82.9221 71.9916C83.1297 72.6039 82.9135 72.8702 82.5717 73.3964C82.6218 74.3458 82.6959 75.3001 82.7966 76.2403C82.6654 76.3382 82.5347 76.4385 82.4041 76.5382C82.4038 76.5382 82.4035 76.5382 82.4032 76.5383C82.2791 76.9193 82.6548 77.0351 82.7582 77.2176C82.9861 77.6183 83.1588 78.1184 83.3115 78.63C83.388 78.8856 83.4612 79.1478 83.5308 79.3651C83.564 79.4699 83.6006 79.5706 83.6168 79.6099C83.6241 79.6295 83.6279 79.6333 83.6003 79.5925C83.5656 79.5538 83.5253 79.447 83.2356 79.2534C83.8183 79.7175 85.5485 80.0873 86.6005 80.1596C87.0327 80.2012 88.4762 80.0068 88.7923 80.2215C88.8724 80.2788 88.8996 80.4936 88.985 80.5008C89.7447 80.3536 90.5053 80.193 91.2654 80.0261C92.7419 80.2606 94.2425 79.9462 95.7278 79.7684C95.8474 79.7541 95.9663 79.7405 96.0846 79.7282C100.373 79.2765 104.594 78.6376 108.738 77.9681C109.535 77.8393 110.517 77.4868 111.297 77.4225C111.624 77.3949 111.833 77.7035 112.188 77.3534C112.214 77.443 112.24 77.5325 112.266 77.622C112.597 77.4251 112.784 77.1596 113.114 77.0369C113.179 77.0139 113.361 76.9404 113.284 76.9688C113.239 76.9829 113.192 77.0279 113.204 77.0194C113.213 77.0141 113.255 76.9562 113.286 76.9168C113.333 76.8557 113.482 76.9504 113.514 76.8648C113.573 76.7163 113.445 76.2387 113.498 75.9191C113.512 75.8372 113.545 75.7393 113.585 75.6329C113.679 75.4022 113.798 75.1398 113.784 74.9964C113.719 74.2452 113.308 73.649 113.119 73.1394C113.071 72.9943 113.137 72.6952 113.096 72.6535C113.021 72.5775 112.833 72.6963 112.77 72.6671C112.67 72.6203 112.591 72.5469 112.49 72.4395C112.882 72.7393 112.91 72.6582 112.922 72.6608C112.922 72.6434 112.863 72.6101 112.794 72.581C112.652 72.5209 112.458 72.4687 112.295 72.4533C110.684 72.32 108.704 72.488 106.911 72.4787C105.782 72.4782 103.908 72.5521 102.832 72.4044C102.819 72.4025 102.806 72.4006 102.794 72.3986C102.581 72.3661 102.632 72.125 102.451 72.1292C102.248 72.1345 102.144 72.301 102.05 72.3177C101.404 72.4286 99.9519 72.7042 99.3009 72.6008C99.1769 72.5802 99.0727 72.4009 98.9995 72.4084C98.9623 72.4119 98.8917 72.5476 98.778 72.5718C97.7701 72.7862 97.015 72.7917 96.0015 72.8546C94.7194 72.9353 93.3153 73.1702 91.9112 73.3345L91.9507 73.3302C91.2364 73.4317 90.5255 73.5182 89.834 73.5612C89.3906 73.5888 89.0426 73.2581 88.9807 73.2698C88.8461 73.2946 88.7909 73.5542 88.5246 73.6511C87.6387 73.9706 86.3768 73.8714 85.5295 74.1189C85.1108 74.2406 84.5707 74.6403 84.1624 74.7722C84.024 74.8169 83.7996 74.8417 83.5764 74.8681L83.6522 74.8552C83.3706 74.8983 83.0998 74.9494 83.0407 75.0451C82.9779 75.1455 83.0014 75.4179 82.9152 75.4728ZM93.5668 69.7978C93.551 70.2349 94.148 69.8108 93.8857 69.6045C93.8257 69.5581 93.5711 69.6844 93.5668 69.7978ZM112.923 79.86C112.959 79.9786 112.995 80.0972 113.031 80.2158C113.107 80.144 113.179 80.0727 113.247 80.002C113.183 79.9417 113.118 79.8815 113.053 79.8212C113.011 79.8341 112.967 79.847 112.923 79.86Z" fill="#361700"/>
<defs>
<linearGradient id="paint0_linear_4055_409" x1="97.1291" y1="17.6851" x2="97.1291" y2="183.551" gradientUnits="userSpaceOnUse">
<stop stop-color="#D58937"/>
<stop offset="0.495192" stop-color="#9A4C0F"/>
<stop offset="1" stop-color="#5E2C06"/>
</linearGradient>
<linearGradient id="paint1_linear_4055_409" x1="104.356" y1="16.8642" x2="91.0576" y2="183.592" gradientUnits="userSpaceOnUse">
<stop stop-color="#D58937"/>
<stop offset="0.495192" stop-color="#9A4C0F"/>
<stop offset="1" stop-color="#5E2C06"/>
</linearGradient>
<linearGradient id="paint2_linear_4055_409" x1="99.887" y1="17.7145" x2="93.799" y2="183.718" gradientUnits="userSpaceOnUse">
<stop stop-color="#D58937"/>
<stop offset="0.495192" stop-color="#9A4C0F"/>
<stop offset="1" stop-color="#5E2C06"/>
</linearGradient>
<linearGradient id="paint3_linear_4055_409" x1="63.8218" y1="40.6084" x2="63.8218" y2="73.6084" gradientUnits="userSpaceOnUse">
<stop stop-color="#D58937"/>
<stop offset="0.495192" stop-color="#9A4C0F"/>
<stop offset="1" stop-color="#5E2C06"/>
</linearGradient>
<linearGradient id="paint4_linear_4055_409" x1="119.257" y1="37.6084" x2="119.257" y2="62.6621" gradientUnits="userSpaceOnUse">
<stop stop-color="#D58937"/>
<stop offset="0.495192" stop-color="#9A4C0F"/>
<stop offset="1" stop-color="#5E2C06"/>
</linearGradient>
<linearGradient id="paint5_linear_4055_409" x1="96.876" y1="70.6084" x2="96.876" y2="81.6084" gradientUnits="userSpaceOnUse">
<stop stop-color="#D58937"/>
<stop offset="0.495192" stop-color="#9A4C0F"/>
<stop offset="1" stop-color="#5E2C06"/>
</linearGradient>
</defs>
</svg>
