<svg width="195" height="200" viewBox="0 0 195 200" fill="none" xmlns="http://www.w3.org/2000/svg">
<path d="M94.3269 17.6935C86.7556 17.6497 80.0349 17.7901 78.3596 17.8058C76.7812 18.0301 73.2594 18.8944 72.4221 19.0624C70.6473 19.3451 67.8482 19.7351 58.1027 22.2517C55.5336 23.0921 53.5388 23.9869 48.5404 27.6783C43.5421 31.3698 35.7755 37.667 31.7668 40.9542C27.7582 44.2414 27.5009 44.5009 26.7622 45.5941C24.785 48.5206 21.513 53.5503 19.8004 59.0329C18.9542 61.7417 16.9228 65.9144 16.4638 73.7376C15.9339 82.7696 12.9558 88.1904 12.5808 89.6082C12.0273 91.7002 13.2843 97.5276 12.5808 106.002C12.2606 109.859 12.3493 112.942 12.9675 115.861C14.1729 121.553 14.3587 126.077 16.4478 130.643C20.2583 138.971 22.8264 144.53 23.327 145.775C24.0209 147.501 24.7531 149.235 26.702 151.18C30.339 154.81 34.2067 157.793 36.3597 159.55C38.073 160.948 40.0597 166.812 47.8619 171.022C54.2329 174.461 58.8642 177.087 62.0111 178.272C66.9707 180.14 72.6194 182.346 77.6828 182.649C82.6487 182.947 85.5726 183.151 86.5435 183.312C87.539 183.478 90.4879 183.85 95.826 183.095C106.51 181.584 107.998 182.179 111.418 182.002C116.188 181.756 122.185 181.228 127.36 179.363C131.844 177.748 135.648 176.546 140.231 174.635C143.209 173.393 147.41 171.554 149.71 170.333C152.549 168.827 153.284 168.053 155.253 166.286C159.768 162.235 163.749 158.835 164.992 156.997L165.054 156.906C165.846 155.736 166.539 154.712 168.372 150.792C169.993 147.325 172.81 141.095 174.261 137.688C175.711 134.282 175.792 133.716 176.792 129.854C177.791 125.992 179.968 119.095 180.595 114.199C181.558 106.691 181.803 103.341 181.81 99.2544C181.815 95.838 182.03 89.8241 181.515 86.2827C180.61 80.0498 180.857 77.5777 177.645 71.376C176.161 68.5093 173.84 64.3129 172.247 61.555C170.654 58.797 169.814 57.5162 166.831 54.0003C163.849 50.4845 158.873 44.9026 155.736 41.6365C152.598 38.3705 151.336 37.4483 148.108 35.6453C144.881 33.8422 139.84 31.2373 136.834 29.8258C133.827 28.4143 132.882 28.2027 128.486 26.5583C124.089 24.914 116.47 21.9275 112.481 20.3919C108.491 18.8563 108.141 18.7742 105.589 18.5184C103.037 18.2627 98.4264 17.7172 94.3269 17.6935Z" fill="url(#paint0_linear_4055_174)" stroke="#C9A16C" stroke-width="5" stroke-linecap="round"/>
<path d="M75.8142 17.6776C80.6707 18.0095 88.0041 16.5616 88.2015 16.5773C88.8187 16.4959 89.4178 16.4169 90.2589 16.2434C94.792 15.663 100.834 16.624 104.096 17.9613C105.354 18.4335 112.933 20.1552 125.427 24.261C131.391 26.2212 136.53 28.2722 141.482 30.8383C146.433 33.4044 151.057 36.395 157.373 42.7874C163.689 49.1798 171.579 58.5954 175.661 63.9762C180.465 70.3089 181.355 71.9963 181.704 73.3097C182.373 75.8199 185.226 78.6585 184.784 91.5142C184.555 98.1955 183.757 108.709 182.73 114.991C181.356 123.389 179.658 130.423 174.705 140.115C171.941 145.522 168.124 151.583 165.983 155.179C163.241 159.782 158.488 165.314 150.788 170.976C146.746 173.949 143.144 175.94 138.697 177.112C135.47 177.962 130.737 177.745 125.444 179.006C122.016 179.823 117.334 181.716 106.562 182.381C99.2652 182.831 88.4198 183.085 82.5957 182.867C75.9773 182.62 70.9307 181.389 60.905 176.517C54.6338 173.47 46.2897 168.923 41.862 166.409C37.4342 163.895 36.9376 163.428 34.1763 159.876C31.4149 156.324 26.3638 149.997 23.0427 144.819C17.5016 136.179 14.1313 129.888 13.0614 124.313C12.0221 118.897 12.3637 111.761 12.0912 104.968C11.9693 101.927 11.4316 99.7424 11.5113 96.3673C11.6013 92.5619 12.1828 84.985 14.6988 74.5718C15.949 69.3975 17.5436 64.5259 19.2885 60.2919C21.0334 56.058 22.7646 52.4984 25.0415 49.0508C29.6347 42.0959 35.0387 34.892 41.912 29.8385C47.7987 25.5105 51.9212 22.7337 56.9578 21.408C66.0797 19.0069 72.7492 17.4682 75.8142 17.6776Z" fill="url(#paint1_linear_4055_174)"/>
<path d="M113.445 23.165C112.825 23.0163 111.992 22.6088 111.272 22.3971C108.224 21.4995 107.146 21.1158 104.318 20.2716C104.047 20.1863 103.805 20.1218 103.348 19.9535L103.289 19.9303C100.466 18.6223 93.5985 17.834 90.482 17.9861L90.6138 17.9641C89.2289 18.1031 88.3796 17.9763 88.3498 17.7016C88.3498 17.7016 88.3498 17.7015 88.3498 17.7015C88.3483 17.6906 88.3481 17.6793 88.3491 17.6678C88.3599 17.4523 89.4286 17.067 89.5466 16.794C89.6377 16.5832 89.4334 15.6058 90.0054 15.0147L90.0995 14.999C90.2894 14.8455 90.5537 14.7264 90.9048 14.6765C93.3125 14.2253 98.7984 15.2267 99.9823 15.5298C100.807 15.6792 101.857 15.7703 102.92 16.0653C103.541 16.2379 104.107 16.4261 104.639 16.6368L104.6 16.6212C106.572 17.1891 108.341 17.6257 110.766 17.9766C111.886 18.4981 112.991 19.0223 114.098 19.5541C115.646 19.9001 117.859 20.8434 118.781 21.111C119.54 21.3304 120.033 21.3135 120.811 21.548C121.693 21.8137 122.991 22.4052 124.59 22.8969C125.03 23.0324 125.419 23.1404 125.766 23.2279C127.445 23.6523 128.083 23.5587 129.396 23.9754C131.039 24.4964 133.464 25.6557 135.549 26.3789C135.822 26.4436 136.094 26.5095 136.367 26.5765C136.226 26.402 136.084 26.2273 135.942 26.0535C136.988 26.446 137.341 26.8367 138.272 27.2634C139.366 27.7693 140.008 27.8544 140.739 28.2133C141.207 28.444 141.758 28.832 142.342 29.1785C142.505 29.2751 142.671 29.3685 142.838 29.4544C143.959 30.0339 143.827 29.7 144.448 29.9915C144.715 30.0574 149.116 32.6329 149.326 32.8498C151.118 34.1092 151.07 34.4965 152.402 35.5918C154.623 37.4499 156.802 39.3831 158.85 41.3283C160.184 42.5949 161.467 43.8586 162.664 45.0968C164.01 46.4898 165.346 48.0065 166.579 49.4884C163.962 47.7578 167.891 53.2183 167.216 50.4845C168.482 52.2202 169.732 53.1489 170.993 54.7442C171.805 55.7766 172.251 56.5911 173.436 58.04C174.804 59.7123 176.396 61.3826 177.295 62.7364C177.779 63.4638 178.059 64.082 178.003 64.5466C180.487 67.6175 182.108 70.4358 183.516 71.883C183.61 72.101 183.71 72.4116 183.78 72.757C183.843 73.4117 184.512 75.5433 184.75 76.4662C185.438 77.5461 186.378 86.0292 186.188 87.3535C186.21 88.4902 186.186 90.3146 186.176 91.562C186.175 91.8071 186.176 92.0351 186.181 92.2281C186.212 93.6425 187.011 94.6887 185.879 97.1513C185.775 100.08 185.669 101.123 185.33 103.829C185.267 104.319 185.116 104.362 185.091 104.649C185.039 105.24 185.055 106.257 184.962 107.314C184.809 109.055 184.385 110.008 184.875 109.869C184.823 111.025 184.759 112.184 184.676 113.343C184.529 113.739 184.381 114.128 184.229 114.516C184.231 114.754 184.23 115 184.23 115.236C184.228 115.624 184.226 116.008 184.222 116.397C183.685 115.569 183.309 119.915 183.944 118.598C183.394 120.785 182.778 122.966 182.062 125.113C181.437 124.619 180.583 129.833 181.079 129.546C180.996 129.793 180.911 130.039 180.826 130.284C179.883 132.361 179.276 134.364 178.013 136.822C176.733 139.268 176.756 138.981 176.072 139.577C175.919 139.91 175.766 140.24 175.607 140.576C175.49 140.825 175.369 141.077 175.249 141.325C174.509 144.767 173.349 143.448 171.093 148.776C169.823 149.883 168.074 153.083 166.75 155.636C166.552 156.019 166.352 156.39 166.162 156.731C165.985 157.043 166.083 157.112 165.848 157.53C165.292 158.568 163.342 160.809 163.693 160.961C162.955 161.691 162.198 162.393 161.427 163.07C160.914 163.732 160.384 164.384 159.843 165.023C159.931 165.105 160.018 165.187 160.106 165.268C158.631 166.184 156.782 168.06 155.714 168.82C155.504 168.97 155.356 168.883 154.709 169.356C153.953 169.911 152.609 171.023 151.681 171.642C151.621 171.742 151.561 171.843 151.5 171.944C151.318 172.249 151.133 172.553 150.945 172.855C149.35 174.104 148.471 174.078 147.441 174.662C147.284 174.809 143.816 176.662 143.596 176.706C142.184 177.353 142.556 177.71 139.117 178.706C138.674 178.824 138.18 178.925 137.634 179.009C136.715 179.147 135.982 179.085 135.192 179.161C133.771 179.285 129.76 179.999 129.514 180.37C128.697 180.294 127.239 180.468 125.866 180.776C124.517 181.083 123.088 181.524 122.434 181.64C122.03 181.714 121.893 181.513 120.668 181.771C119.684 181.988 117.176 182.721 115.898 182.894C114.553 183.086 114.038 182.951 113.439 183.021C112.865 183.086 112.362 183.313 111.589 183.401C109.813 183.597 108.152 183.59 106.637 183.607C106.091 183.612 105.556 183.623 105.047 183.65C102.296 183.791 99.891 184.359 97.5921 184.643C97.0193 184.63 96.4548 184.543 95.8556 184.558C91.6208 184.653 87.0862 184.702 82.5343 184.506C79.0832 184.364 75.5678 183.811 72.4236 182.836C68.912 181.922 61.3629 177.68 63.0088 179.621C62.6111 179.51 61.4551 178.969 60.0632 178.25C57.3241 176.842 53.683 174.725 52.7133 174.208C51.2483 173.431 49.9988 172.983 48.8488 172.367C46.0266 170.853 43.9363 169.605 40.9648 167.989C40.2827 167.616 39.5584 167.229 38.7535 166.777C37.6397 166.168 36.2527 165.447 35.6195 164.835C34.8475 164.12 34.327 163.17 33.6064 162.247C33.3243 161.886 33.0098 161.48 32.6722 161.045C30.9615 158.849 28.5081 155.787 27.2163 154.014C26.9338 153.627 26.9879 153.376 26.6265 152.791C25.2145 150.518 23.4847 148.07 23.2777 148.858C22.6934 147.806 22.0723 146.813 21.4494 145.84C20.2962 144.039 19.0802 142.364 18.0005 140.582C15.7642 136.815 12.2779 130.861 11.0455 124.7C10.429 121.488 10.2981 118.643 10.1261 116.597C9.85269 112.902 9.61855 112.975 9.76445 107.644C9.78415 106.807 9.80876 105.976 9.81921 105.059C9.82424 104.703 9.82191 104.331 9.81034 103.935C9.71768 101.422 9.67039 98.6763 9.59197 96.3219C9.56147 95.727 9.50448 95.1509 9.40422 94.5939C9.77215 90.7367 10.0579 87.6795 11.0082 84.956C10.9335 84.6041 10.8592 84.2584 10.7878 83.9037C10.8595 83.4437 10.935 82.9776 11.0127 82.5145C11.1579 82.3894 11.3029 82.2676 11.448 82.1462C11.9123 79.662 12.2702 76.6228 12.7431 74.0993C12.8965 73.276 13.0623 72.5074 13.2423 71.8311C13.9446 69.1372 15.5456 64.038 17.5071 59.5578C18.883 56.3506 20.3977 53.4134 21.3955 51.7678C22.6626 49.687 22.542 49.443 23.7397 48.5576C23.7895 48.4685 23.8395 48.3794 23.89 48.2904C24.1026 47.9136 24.3178 47.5354 24.5339 47.159C24.623 46.8158 24.7121 46.4743 24.8039 46.1309C26.5208 43.5857 28.8267 40.7375 30.7026 38.4636C33.2026 35.3834 36.8789 31.2334 40.8262 28.3617C42.1487 27.3864 43.4283 26.4832 44.605 25.7318C45.7413 25.0036 47.2866 24.2662 48.4315 23.5747C50.1098 22.5874 50.3192 21.9654 52.6535 20.9104C53.6948 20.4587 55.0212 19.9972 56.4965 19.6554C60.4784 18.7316 65.399 17.7601 68.2831 17.1472C69.4347 16.8998 69.951 16.6523 70.7611 16.495C72.5055 16.1758 74.0677 15.9016 75.9316 15.9585C77.2754 16.0126 78.6884 15.9098 80.1941 15.6835C83.5591 15.77 83.357 16.2326 84.4722 16.6005C85.3006 16.8781 87.988 17.3215 88.2804 17.613C88.3144 17.6431 88.1152 17.6773 88.1125 17.7036C88.1502 17.7409 88.3083 17.7663 88.3015 17.7969C88.3156 17.86 88.2489 17.9373 88.1827 18.0168C88.0624 18.1735 87.9419 18.3342 88.1279 18.4333C84.0378 19.3071 82.1954 19.3294 78.7067 19.1471C77.7249 19.1861 76.7305 19.1935 75.7151 19.1273C71.0506 19.1679 65.7086 20.7504 60.6858 21.9786C60.1082 21.9821 59.5277 21.9876 58.9438 21.995C58.9437 21.9947 58.9437 21.9944 58.9436 21.9941C58.264 22.1222 57.7055 22.2658 57.2229 22.4152C56.1015 22.7697 55.4701 23.2029 54.6857 23.5681C51.3445 25.0914 47.3521 27.9321 42.9388 31.2351C36.5145 35.9552 30.7932 43.289 26.3279 49.9004C24.3247 52.8392 22.8168 55.8062 21.6428 58.4175C21.3883 58.9832 21.028 59.8313 20.6218 60.8414C19.1038 64.4774 17.3854 70.3365 16.8347 71.7941C16.6425 72.2728 16.3974 72.3546 16.249 72.8812C16.0963 73.533 15.9499 74.186 15.8099 74.8403C14.9251 78.9758 14.2249 83.141 13.7661 87.3175C13.2593 90.302 12.9162 93.3601 12.8265 96.3984C12.7099 99.1275 13.2841 101.878 13.4363 104.914C13.6511 109.294 13.6312 113.635 13.8501 117.846C13.9634 119.952 14.1446 122.04 14.5353 124.03C16.0596 131.091 20.374 137.582 24.4037 143.946C27.7618 149.072 31.6624 153.931 35.5128 158.837C37.58 161.724 39.5727 163.234 42.7114 164.913C48.9508 168.411 55.2872 171.826 61.6609 174.961C62.3825 175.313 63.0871 175.651 63.8064 175.988C68.5039 178.229 74.6068 180.385 79.4792 180.876C80.7446 181.033 81.5548 181.222 82.6539 181.309C83.3273 181.361 84.1132 181.371 85.1716 181.288C85.1994 181.382 85.2273 181.475 85.2553 181.569C87.7024 181.484 89.2658 181.264 92.0117 181.203C94.3258 181.163 100.45 180.961 102.493 180.89C103.553 180.858 103.163 181.052 104.153 181.001C104.742 180.97 105.554 180.896 106.464 180.802C108.174 180.627 110.197 180.343 111.683 180.162C113.753 179.938 117.226 179.531 118.775 179.121C120.794 178.633 122.763 177.942 125.04 177.309C129.045 176.2 133.392 176.023 137.053 175.515C137.44 175.454 137.844 175.391 138.224 175.315C139.504 175.059 140.751 174.74 141.109 174.596C142.039 174.223 142.222 173.896 142.817 173.595C144.763 172.616 147.36 171.106 149.679 169.467C150.972 168.564 152.164 167.67 153.118 166.887C157.459 163.316 161.539 159.102 164.428 154.253C167.457 149.189 170.525 144.242 173.086 139.287C173.122 139.217 173.158 139.146 173.194 139.076C176.728 132.798 180.061 121.532 181.054 114.915C181.067 114.847 181.08 114.783 181.092 114.723C181.329 113.558 181.501 113.875 181.661 112.745C181.842 111.427 181.763 110.689 181.824 110.067C182.273 105.776 182.817 96.205 183.105 92.1422C183.125 91.8921 183.159 91.6635 183.197 91.4597C183.278 91.0138 183.374 90.6612 183.379 90.3555C183.384 90.1156 183.266 89.5954 183.253 88.8612C183.105 82.9063 182.605 79.2622 180.169 73.7183C180.064 73.298 179.881 72.8717 179.619 72.3791C178.277 69.9761 176.325 67.4497 174.417 64.9199C168.879 57.7714 162.488 50.4301 156.221 43.9263C155.684 43.3758 155.153 42.8418 154.615 42.3124C152.637 40.3661 151.419 38.8772 151.117 38.6273C150.452 38.0881 149.876 37.9231 148.469 36.9419C146.238 35.3873 143.578 33.7253 140.751 32.2482C137.643 30.6033 134.429 29.1678 131.708 28.1833C129.731 27.461 127.104 26.7398 124.816 26.1189C124.131 25.9314 123.494 25.7544 122.902 25.5803C120.83 24.9597 116.006 23.356 115.037 23.2254C114.463 23.144 114.12 23.3256 113.445 23.165ZM174.528 59.7294C173.949 59.685 176.767 62.693 176 61.3361C175.831 61.0302 174.678 59.7343 174.528 59.7294ZM85.9231 183.907C85.9593 184.031 85.9956 184.155 86.0322 184.279C86.5736 184.232 87.1067 184.182 87.645 184.131C87.3403 184.057 87.0453 183.982 86.7403 183.906C86.4689 183.907 86.1959 183.907 85.9231 183.907Z" fill="#C9A16C"/>
<path d="M71.7284 19.7431C76.5395 19.8646 83.722 18.114 83.9177 18.1212C84.5239 18.014 85.1123 17.91 85.9358 17.7019C90.389 16.932 96.3981 17.6269 99.6767 18.8142C100.939 19.229 108.498 20.613 121.012 24.1522C126.987 25.842 132.15 27.6572 137.149 29.9915C142.148 32.3258 146.842 35.0952 153.352 41.1678C159.861 47.2403 168.052 56.2452 172.311 61.4096C177.324 67.4876 178.274 69.1238 178.675 70.412C179.442 72.8742 182.38 75.5686 182.487 88.3435C182.543 94.9829 182.2 105.449 181.45 111.726C180.448 120.118 179.068 127.17 174.586 136.998C172.084 142.483 168.57 148.66 166.607 152.319C164.093 157.003 159.632 162.697 152.266 168.644C148.398 171.766 144.925 173.897 140.582 175.249C137.43 176.231 132.746 176.219 127.571 177.696C124.22 178.654 119.675 180.732 109.062 181.853C101.874 182.612 91.1721 183.328 85.41 183.361C78.8621 183.399 73.8252 182.393 63.7161 177.989C57.3928 175.233 48.9586 171.079 44.4787 168.774C39.9987 166.469 39.4885 166.027 36.6108 162.62C33.733 159.214 28.4763 153.152 24.9769 148.156C19.1383 139.821 15.5433 133.723 14.2508 128.237C12.9953 122.908 13.031 115.812 12.4747 109.083C12.2257 106.071 11.6022 103.927 11.5383 100.574C11.4663 96.7945 11.7204 89.2515 13.7655 78.8114C14.7816 73.6238 16.1508 68.7217 17.6954 64.4459C19.2399 60.1701 20.7995 56.564 22.9028 53.0458C27.1458 45.9482 32.1792 38.5689 38.7549 33.2605C44.3866 28.7141 48.3413 25.7825 53.2603 24.2515C62.1692 21.4786 68.692 19.6665 71.7284 19.7431Z" fill="url(#paint2_linear_4055_174)"/>
<path d="M109.176 23.6065C108.553 23.4845 107.715 23.1151 106.993 22.9353C103.935 22.1722 102.856 21.8364 100.021 21.1191C99.742 21.0441 99.4912 20.9892 99.0124 20.8355L98.9522 20.8147C96.0999 19.6364 89.2972 19.1526 86.235 19.4326L86.3662 19.4047C85.002 19.6015 84.1569 19.5108 84.1152 19.2379C84.1151 19.2379 84.1151 19.2379 84.1151 19.2378C84.1132 19.227 84.1125 19.2158 84.1129 19.2042C84.1138 18.9886 85.1551 18.5584 85.2595 18.2807C85.34 18.0669 85.0942 17.1024 85.629 16.4881L85.7225 16.4682C85.9042 16.3054 86.1618 16.1739 86.51 16.1087C88.8767 15.5564 94.3528 16.3216 95.5377 16.5734C96.3618 16.6873 97.4047 16.733 98.4712 16.9825C99.0799 17.1252 99.6376 17.2853 100.164 17.4687L100.123 17.4547C102.114 17.9371 103.89 18.2983 106.317 18.5433C107.449 19.0154 108.561 19.4892 109.68 19.9719C111.229 20.2501 113.457 21.0942 114.38 21.3209C115.14 21.5061 115.627 21.4676 116.408 21.668C117.292 21.894 118.602 22.4278 120.204 22.8481C120.614 22.9557 120.978 23.0417 121.307 23.1111C123.045 23.4808 123.672 23.3507 125.01 23.7148C126.658 24.1631 129.106 25.2148 131.2 25.8459C131.473 25.8984 131.746 25.9525 132.018 26.0075C131.873 25.8394 131.725 25.6715 131.578 25.504C132.63 25.8505 132.994 26.2249 133.933 26.6103C135.037 27.0677 135.677 27.1246 136.415 27.4511C136.862 27.6494 137.387 27.9847 137.943 28.2913C138.139 28.3996 138.34 28.5042 138.543 28.5981C139.676 29.128 139.534 28.8008 140.16 29.0648C140.428 29.119 144.889 31.501 145.103 31.7072C146.928 32.8866 146.891 33.2726 148.254 34.308C150.491 36.0368 152.688 37.8356 154.765 39.6528C156.17 40.8823 157.524 42.1109 158.787 43.3162C160.176 44.6419 161.558 46.0905 162.837 47.5088C160.172 45.9049 164.275 51.1585 163.507 48.4709C164.828 50.1399 166.104 51.0067 167.417 52.5374C168.262 53.5277 168.734 54.3164 169.966 55.7048C171.348 57.2627 172.947 58.8137 173.899 60.0997C174.449 60.8409 174.787 61.4865 174.742 61.9671C177.325 64.9131 179.043 67.6284 180.49 69.0626C180.576 69.2484 180.664 69.4952 180.735 69.7712C180.827 70.3937 181.604 72.5852 181.881 73.525C182.595 74.5739 183.85 82.9235 183.72 84.2461C183.786 85.3453 183.836 87.0991 183.877 88.3318C183.888 88.6055 183.899 88.8641 183.914 89.0711C184.005 90.4724 184.847 91.4734 183.821 93.9587C183.843 96.862 183.782 97.8988 183.559 100.593C183.518 101.08 183.369 101.129 183.356 101.415C183.329 102.002 183.389 103.007 183.342 104.058C183.265 105.789 182.883 106.749 183.366 106.591C183.364 107.738 183.351 108.887 183.319 110.039C183.19 110.437 183.058 110.829 182.924 111.219C182.936 111.448 182.945 111.681 182.955 111.905C182.971 112.299 182.987 112.688 183 113.082C182.426 112.284 182.244 116.603 182.82 115.273C182.368 117.461 181.851 119.646 181.233 121.803C180.586 121.34 179.973 126.539 180.456 126.235C180.384 126.483 180.311 126.73 180.237 126.976C179.393 129.073 178.881 131.084 177.739 133.572C176.578 136.05 176.589 135.765 175.935 136.383C175.795 136.729 175.654 137.07 175.508 137.419C175.407 137.662 175.302 137.908 175.199 138.15C174.627 141.595 173.406 140.334 171.416 145.711C170.197 146.868 168.596 150.149 167.397 152.743C167.227 153.113 167.055 153.471 166.888 153.803C166.729 154.119 166.829 154.186 166.616 154.609C166.114 155.663 164.286 157.97 164.642 158.107C163.945 158.863 163.226 159.594 162.493 160.298C162.015 160.978 161.523 161.646 161.017 162.305C161.108 162.383 161.199 162.46 161.29 162.538C159.869 163.509 158.125 165.453 157.103 166.253C156.9 166.413 156.751 166.329 156.13 166.828C155.407 167.412 154.128 168.574 153.237 169.228C153.172 169.352 153.106 169.477 153.039 169.601C152.884 169.891 152.727 170.179 152.568 170.467C151.046 171.777 150.173 171.788 149.179 172.414C149.031 172.567 145.684 174.562 145.468 174.616C144.092 175.325 144.491 175.668 141.072 176.824C140.652 176.955 140.186 177.073 139.67 177.177C138.767 177.356 138.035 177.325 137.257 177.436C135.853 177.622 131.914 178.503 131.687 178.883C130.87 178.841 129.423 179.078 128.071 179.445C126.759 179.805 125.377 180.3 124.738 180.443C124.342 180.533 124.195 180.338 122.994 180.647C122.03 180.905 119.579 181.744 118.321 181.97C116.997 182.219 116.481 182.106 115.892 182.202C115.326 182.291 114.838 182.539 114.076 182.659C112.33 182.93 110.688 182.994 109.191 183.075C108.648 183.104 108.115 183.138 107.609 183.186C104.892 183.444 102.536 184.115 100.272 184.496C99.7047 184.507 99.142 184.445 98.5495 184.485C94.3802 184.76 89.915 185.001 85.4194 185.002C81.9745 185.01 78.4445 184.601 75.2739 183.755C71.7624 182.988 64.1162 179.085 65.8206 180.951C65.4354 180.861 64.3074 180.39 62.9457 179.757C60.1677 178.474 56.4026 176.485 55.4105 176.007C53.9287 175.296 52.6718 174.905 51.509 174.343C48.6933 172.977 46.5912 171.838 43.6483 170.388C42.9216 170.027 42.1502 169.655 41.2813 169.209C40.1517 168.648 38.7399 167.964 38.0989 167.377C37.3165 166.692 36.7759 165.771 36.0337 164.892C35.7678 164.578 35.4724 164.226 35.1554 163.85C33.3683 161.736 30.7525 158.732 29.3795 156.997C29.0838 156.625 29.1292 156.373 28.7487 155.808C27.262 153.613 25.4524 151.255 25.2742 152.048C24.6807 151.07 24.054 150.145 23.4262 149.242C22.1899 147.463 20.8863 145.819 19.7232 144.061C17.3741 140.442 13.7211 134.73 12.2534 128.708C11.5003 125.508 11.2519 122.656 10.9931 120.612C10.5679 116.967 10.3367 117.05 10.2577 111.767C10.2424 110.958 10.232 110.154 10.2052 109.271C10.195 108.9 10.1761 108.512 10.1459 108.097C9.94684 105.627 9.79338 102.926 9.62231 100.611C9.56699 100.006 9.48482 99.4222 9.35774 98.8605C9.56207 95.0257 9.71384 91.987 10.5432 89.2511C10.4529 88.9068 10.3637 88.566 10.2766 88.2188C10.3279 87.7598 10.3826 87.2958 10.4397 86.8335C10.5793 86.7034 10.7186 86.5774 10.8582 86.4509C11.2118 83.9704 11.4327 80.9443 11.7908 78.4246C11.9065 77.6043 12.0369 76.8376 12.1855 76.1613C12.7652 73.4573 14.134 68.3213 15.8839 63.7915C17.1013 60.5692 18.464 57.609 19.3746 55.9411C20.5357 53.8244 20.4029 53.5871 21.5525 52.6584C21.6062 52.5508 21.6603 52.4432 21.7149 52.3357C21.8999 51.9699 22.0874 51.6024 22.2755 51.2369C22.3473 50.8928 22.4195 50.55 22.4939 50.2055C24.0793 47.6092 26.2346 44.6867 27.9879 42.3504C30.3345 39.1708 33.8072 34.8645 37.6034 31.8342C38.8483 30.8271 40.0539 29.8924 41.1668 29.1082C42.2604 28.335 43.7562 27.5373 44.8576 26.7998C46.4731 25.745 46.6488 25.1168 48.9112 23.9626C49.9361 23.4592 51.251 22.9325 52.7222 22.5229C56.6131 21.4385 61.4084 20.2704 64.2221 19.5397C65.3493 19.2443 65.8506 18.9748 66.6454 18.7831C68.3696 18.3873 69.9089 18.0443 71.7719 18.0199C73.0944 18.0157 74.4801 17.8538 75.9512 17.5659C79.2847 17.5105 79.1056 17.9811 80.2264 18.3015C81.0587 18.5439 83.7408 18.8734 84.0424 19.1524C84.0773 19.181 83.8788 19.224 83.8772 19.2503C83.9168 19.286 84.0766 19.3044 84.0715 19.3352C84.0888 19.3976 84.0263 19.4776 83.9645 19.5597C83.8523 19.7214 83.7407 19.8868 83.9291 19.978C79.918 21.0231 78.0939 21.1235 74.6299 21.0888C73.668 21.1686 72.6917 21.2178 71.6917 21.1957C67.0776 21.4372 61.8457 23.2444 56.9213 24.6834C56.3503 24.7107 55.775 24.7407 55.1969 24.7725C55.1968 24.7722 55.1967 24.7719 55.1966 24.7717C54.5566 24.9216 54.0274 25.0812 53.569 25.2436C52.4418 25.6506 51.8306 26.12 51.0596 26.5247C47.8419 28.1832 44.0411 31.1602 39.8434 34.609C33.7 39.5672 28.3596 47.0857 24.2266 53.8372C22.3634 56.8519 20.9951 59.8732 19.9433 62.5238C19.7187 63.0892 19.4043 63.932 19.0513 64.9357C17.7084 68.6001 16.2555 74.5048 15.7709 75.9755C15.6009 76.4576 15.3599 76.5488 15.2358 77.0765C15.1133 77.7271 14.997 78.3787 14.8871 79.0311C14.1908 83.1645 13.6775 87.319 13.4019 91.4745C13.0245 94.4644 12.8134 97.5227 12.8534 100.549C12.8537 103.262 13.5377 105.966 13.8168 108.972C14.212 113.277 14.3773 117.553 14.7647 121.693C14.9665 123.809 15.2351 125.906 15.7122 127.893C17.5139 134.826 22.0498 141.084 26.3016 147.228C29.8341 152.169 33.8929 156.823 37.9044 161.527C40.0678 164.302 42.0905 165.71 45.2659 167.244C51.5759 170.447 57.979 173.565 64.407 176.403C65.1035 176.708 65.7857 177.001 66.4772 177.291C71.2192 179.32 77.3461 181.213 82.184 181.503C83.4647 181.609 84.2799 181.767 85.4011 181.804C86.0549 181.824 86.8201 181.799 87.8326 181.674C87.864 181.767 87.8955 181.859 87.9271 181.951C90.3433 181.763 91.8842 181.476 94.5984 181.298C96.8872 181.159 102.94 180.696 104.96 180.538C106.008 180.461 105.63 180.671 106.608 180.578C107.191 180.521 107.995 180.413 108.896 180.279C110.579 180.032 112.564 179.663 114.024 179.421C116.063 179.109 119.482 178.556 120.996 178.082C122.964 177.512 124.874 176.744 127.092 176.019C131.019 174.741 135.331 174.382 138.927 173.713C139.292 173.639 139.671 173.561 140.029 173.473C141.3 173.159 142.546 172.78 142.897 172.619C143.8 172.207 143.965 171.873 144.539 171.548C146.404 170.496 148.88 168.9 151.089 167.185C152.347 166.219 153.504 165.268 154.425 164.437C158.544 160.718 162.377 156.375 165.013 151.463C167.79 146.309 170.611 141.268 172.931 136.244C172.968 136.164 173.004 136.084 173.041 136.004C176.258 129.634 179.067 118.338 179.77 111.746C179.781 111.669 179.792 111.596 179.804 111.529C179.988 110.395 180.171 110.69 180.281 109.572C180.404 108.261 180.294 107.533 180.327 106.914C180.589 102.648 180.72 93.1523 180.836 89.1153C180.847 88.8384 180.877 88.5806 180.912 88.3568C180.972 87.9484 181.042 87.6186 181.036 87.3334C181.031 87.1047 180.891 86.5808 180.848 85.8616C180.452 79.9274 179.822 76.3221 177.16 70.8837C177.045 70.4963 176.867 70.1144 176.614 69.6718C175.198 67.3265 173.121 64.8614 171.106 62.4033C165.332 55.5463 158.708 48.5359 152.247 42.352C151.722 41.8561 151.21 41.38 150.683 40.9011C148.651 39.0524 147.39 37.6225 147.08 37.3851C146.4 36.8763 145.827 36.7399 144.392 35.8208C142.099 34.3518 139.368 32.791 136.478 31.4297C133.367 29.9436 130.166 28.6691 127.461 27.814C125.452 27.1723 122.787 26.5617 120.479 26.0379C119.821 25.8868 119.21 25.7443 118.637 25.6017C116.561 25.0736 111.719 23.6843 110.755 23.5966C110.181 23.5402 109.849 23.7367 109.176 23.6065ZM171.113 57.3353C170.534 57.3152 173.446 60.1799 172.636 58.8678C172.454 58.569 171.261 57.3311 171.113 57.3353ZM88.6881 184.258C88.7292 184.381 88.7704 184.503 88.8118 184.626C89.347 184.556 89.8723 184.484 90.4019 184.409C90.0984 184.348 89.8007 184.286 89.4968 184.223C89.2295 184.235 88.9568 184.247 88.6881 184.258Z" fill="#C9A16C"/>
<path d="M68.0023 44.8979C69.7379 42.8711 70.6557 41.7985 71.1394 41.2327C71.2785 41.1855 71.4315 41.144 71.6022 41.1099C75.3054 41.0142 77.514 41.4185 79.0288 42.6826C79.2623 43.0859 79.4209 43.5425 79.2501 44.0106C78.8818 45.0195 75.1543 51.2933 67.4436 60.8869C60.6989 69.2787 56.9853 73.5338 55.7459 73.5876C54.2689 73.6516 52.8166 73.6112 51.6303 72.7954C49.8858 71.5956 48.2198 70.3704 48.3267 69.1689C48.3873 68.4869 48.8121 67.6466 52.8468 62.7643C56.8126 57.9654 64.0488 49.5149 67.8094 45.1232L68.0023 44.8979Z" fill="url(#paint3_linear_4055_174)"/>
<path d="M74.2451 43.6482C74.1459 43.6707 74.0153 43.4996 73.8976 43.4847C73.4003 43.4222 73.2111 43.3065 72.7393 43.2388C72.4989 43.2049 72.0918 43.2109 71.6561 43.196L72.0114 43.1562C71.776 43.181 71.6828 43.1652 71.4622 43.1386C71.245 43.1124 70.8888 43.1101 70.6659 42.8132C70.6659 42.8131 70.6659 42.8131 70.6658 42.8131C70.6591 42.8044 70.6524 42.7954 70.6458 42.7862C70.5217 42.6108 70.5212 42.3149 70.3962 42.1056C70.2778 41.8929 69.2867 40.6681 69.5382 40.385C69.8312 40.0344 70.9082 39.8449 71.3564 39.881L71.5698 39.8571C71.6634 39.877 71.7362 39.8885 71.7788 39.8841C71.9231 39.8687 72.1056 39.7232 72.2933 39.6963C72.9081 39.6112 73.223 39.7194 73.8049 39.3543C74.0238 39.5674 74.241 39.7837 74.4496 40.0032C74.7519 39.9287 75.1737 40.2426 75.3513 40.2515C75.4999 40.2581 75.6076 40.1101 75.7652 40.1265C75.9418 40.1444 76.1789 40.36 76.4996 40.4037C77.0239 40.4807 77.2371 40.1102 77.5866 40.1647C77.9532 40.2247 78.394 40.6456 78.8831 40.7472C78.9588 40.7357 79.0348 40.7252 79.112 40.7163C79.1255 40.6032 79.1377 40.4899 79.1477 40.3758C79.4002 40.4614 79.386 40.7047 79.5794 40.8367C79.8064 40.995 80.0426 40.92 80.1949 41.0416C80.2319 41.0715 80.2633 41.1163 80.2929 41.1676L80.7363 41.6939C80.7688 41.8451 80.7821 42.035 80.8636 42.2011C81.0291 42.561 81.2168 42.4095 81.3348 42.6414C81.3494 42.6784 81.4673 42.964 81.5199 43.4088C81.5801 43.8494 81.5082 44.4359 81.3892 44.7914C81.3335 44.976 81.2968 45.0698 81.2925 45.0823C81.0745 45.5737 80.7779 45.4241 80.5992 45.7018C80.1037 46.4488 79.8826 47.3088 79.5482 48.031C79.4048 48.3432 79.1945 48.639 78.9606 48.9068C78.5621 48.0026 77.3764 48.6558 78.7012 48.9838C78.3371 49.208 78.4856 49.6167 78.2315 49.8938C78.0737 50.0622 77.8327 50.1016 77.6509 50.3806C77.3312 50.8737 77.3826 51.6974 76.5296 51.3146C76.2718 51.9746 75.655 52.2714 76.1746 52.9428C76.1154 53.113 75.4506 53.2145 75.2844 53.3338C75.1289 53.4482 74.099 54.5006 73.9531 54.6764C73.8058 54.8574 73.5448 55.1897 73.4873 55.387C73.4121 55.6368 73.9783 56.287 72.9253 56.0523C72.6829 56.5095 72.5427 56.6489 72.1662 56.9573C72.0974 57.014 71.9749 56.9336 71.9441 56.974C71.8811 57.0572 71.8583 57.2659 71.7547 57.4235C71.5882 57.6775 71.2369 57.6303 71.6308 57.8885C71.5706 58.0966 71.5072 58.3084 71.4459 58.517C71.3312 58.5173 71.2165 58.5177 71.1016 58.5181C71.1141 58.6636 71.1261 58.8095 71.1377 58.9559C70.6795 58.4381 70.5252 59.2906 70.986 59.3329C70.6348 59.5555 70.2837 59.7761 69.9272 60.0018C69.3554 59.4802 69.327 60.6184 69.7021 60.8206C69.6735 60.8557 69.6449 60.8908 69.6162 60.9259C69.2085 61.1092 69.1204 61.4891 68.7086 61.7819C68.6797 61.8024 68.6526 61.8211 68.6271 61.8381C68.2925 62.0605 68.2429 61.9812 67.9009 61.8795C67.8464 61.9797 67.7922 62.0794 67.7384 62.1787C68.127 63.2483 66.8806 62.1086 66.8267 63.3629C66.1493 63.227 65.8977 64.0472 65.7099 64.5709C65.6875 64.6325 65.7788 64.7084 65.7553 64.7953C65.6955 65.0079 65.2599 65.299 65.5648 65.5315C65.3656 65.5996 65.1677 65.6661 64.971 65.7308C64.9347 65.8847 64.8964 66.0409 64.8571 66.1981C64.9499 66.2736 65.0427 66.3491 65.1355 66.4246C64.6343 66.3919 64.4671 66.8397 64.2456 66.9537C64.2018 66.9756 64.0684 66.8779 63.9453 66.9556C63.8032 67.043 63.6419 67.3129 63.4785 67.4277C63.5705 67.6027 63.6625 67.7775 63.7547 67.9522C63.6065 68.2831 63.1559 68.069 62.9975 68.1985C62.9731 68.2179 62.5582 68.7608 62.5455 68.791C62.4163 69.0678 62.7828 69.2747 62.1525 69.87C62.0391 69.9766 61.8541 69.9727 61.7571 70.0752C61.5864 70.2565 61.3378 71.0244 61.5211 71.2656C61.042 71.2441 60.6149 71.9402 60.3701 72.0429C60.2963 72.0735 60.1102 71.9252 59.9246 72.0487C59.7711 72.1524 59.5879 72.6187 59.401 72.762C59.2076 72.9086 58.9968 72.8359 58.9114 72.9004C58.8314 72.9606 58.8701 73.1482 58.7656 73.247C58.4335 73.5567 57.9511 73.6405 57.6558 73.8716C57.4308 74.0464 57.3006 74.2912 57.1053 74.5807C56.8939 74.8591 56.7202 75.2202 55.9796 75.4351C55.9296 75.4363 55.8782 75.4349 55.8258 75.431C55.7324 75.3944 55.6377 75.3208 55.5398 75.3232C54.2124 75.3608 52.2298 75.2105 50.7657 74.0526C50.7504 74.0403 50.7351 74.0279 50.7199 74.0156C50.2362 73.6417 49.3504 72.1634 49.0307 73.2737C48.7307 73.3135 47.6312 71.7741 47.4018 71.3382C47.1602 70.9921 46.7874 70.73 46.6337 70.2666C46.5066 69.8786 46.4569 69.4376 46.5072 69.0071C46.6415 68.007 47.0615 67.4715 47.3175 66.8189C47.4194 66.5786 47.373 66.2423 47.4605 66.1222C47.56 65.987 47.8463 65.9685 47.9839 65.8048C48.308 65.4135 48.8104 64.645 49.1314 64.3023C49.1923 64.2373 49.3616 64.3375 49.4843 64.2809C49.9659 64.0569 50.2783 63.6375 49.7358 63.3187C50.3891 63.0716 50.4957 62.4318 50.8317 61.9918C50.9584 61.8268 51.0981 61.655 51.2638 61.4561C52.026 60.541 53.109 59.3434 53.4858 58.5584C53.7768 57.9555 53.5498 57.7914 54.3444 57.222C54.5214 57.0949 54.7116 56.9811 54.9241 56.8281C55.4262 56.4657 56.173 56.3812 55.9918 55.6334C56.5445 55.2298 56.7985 54.7534 57.5217 54.7224C57.4621 54.5956 57.4025 54.4689 57.3429 54.3421C57.3931 54.278 57.4437 54.2136 57.4937 54.1498C57.6027 54.2092 57.7118 54.2685 57.8209 54.3279C58.2225 53.9053 58.3205 53.0185 58.6428 52.6452C59.1828 52.0185 60.7104 50.5252 61.344 50.0358C61.6816 49.7743 61.4976 49.5889 62.0587 49.7559C62.0901 49.6618 62.123 49.5659 62.1553 49.4708C62.1041 49.3502 62.0529 49.2297 62.0016 49.1093C62.3424 48.7031 62.8934 48.3383 63.223 47.9499C63.8225 47.2428 64.4794 45.9788 65.2471 45.4078C65.4403 45.2642 65.8109 45.203 65.9593 45.0255C66.1687 44.7752 65.9237 44.4447 66.1873 44.1253C66.2958 43.9942 66.4498 43.8501 66.6169 43.7115C67.1829 43.2362 67.985 42.7106 68.3051 42.2948C68.4267 42.1368 68.3812 41.9604 68.4566 41.8479C68.7913 41.3517 69.1109 40.997 69.3062 40.4139C69.994 40.201 70.3365 40.5637 70.8389 40.7463C71.2258 40.8747 72.1467 41.1462 72.481 41.2602C72.4975 41.2505 72.4936 41.27 72.5413 41.2164C72.5538 41.1995 72.5689 41.1812 72.6023 41.1237C72.6193 41.0927 72.6419 41.0555 72.6757 40.9641C72.69 40.8638 72.8229 40.7411 72.6666 40.2236C72.5845 39.9678 72.2763 39.6663 72.0018 39.5928C71.7289 39.5082 71.5515 39.544 71.447 39.5633C71.2359 39.6137 71.1804 39.6597 71.1266 39.687C71.033 39.743 71.0127 39.7629 70.9892 39.7798C70.9165 39.8368 70.9254 39.8272 70.9148 39.8313C70.889 39.8355 70.8833 39.8198 70.8714 39.8099C70.8618 39.7977 70.8452 39.7918 70.8551 39.7601C70.8652 39.748 70.8404 39.7521 70.98 39.641C71.0404 39.6088 71.0428 39.5542 71.3935 39.4493C71.4889 39.4279 71.6275 39.3979 71.8517 39.4295C72.0686 39.4561 72.3955 39.5996 72.5952 39.8535C72.9907 40.4015 72.847 40.7352 72.8367 40.8696C72.7636 41.1479 72.7245 41.1658 72.7009 41.2195C72.677 41.2614 72.6644 41.2809 72.6545 41.2971C72.6181 41.3613 72.6351 41.3502 72.6301 41.3702C72.647 41.4526 72.6963 41.4974 72.7359 41.556C72.8197 41.6673 72.9061 41.7799 73.0268 41.8353C72.6978 42.5371 72.3353 42.6136 71.6759 42.8309C70.9779 43.6687 70.2734 44.5136 69.5775 45.3485C69.4056 45.3344 69.2338 45.3204 69.065 45.3027C69.0648 45.3025 69.0646 45.3023 69.0643 45.3021C68.9198 45.3794 68.8478 45.4812 68.8104 45.5899C68.7535 45.7675 68.7962 45.9668 68.741 46.1105C67.922 48.2682 64.6913 51.1031 63.0764 52.8624C62.7279 53.242 61.7889 54.6349 61.3877 54.7567C61.2836 54.7879 61.1031 54.6677 61.033 54.7356C60.5683 55.4796 60.105 56.2228 59.6417 56.9673C58.232 58.1124 57.2558 59.6956 56.1408 61.1049C55.4414 61.9892 54.739 62.8835 54.0548 63.7626C53.2432 64.8056 52.4464 65.8362 51.6745 66.8705C51.2934 67.3828 50.9145 67.9004 50.5814 68.3962C50.2498 68.8584 49.9669 69.4804 50.05 69.3222C50.0467 69.0547 50.013 69.2228 50.2475 69.477C50.4606 69.7303 50.794 70.0315 51.1567 70.3242C51.5553 70.6478 52.1147 70.9685 52.6509 71.3114C52.8303 71.4197 53.0112 71.5092 53.1936 71.614C53.3929 71.7253 53.434 72.0977 53.8462 71.9015C53.8367 71.9943 53.8275 72.0871 53.8185 72.18C54.1794 72.1146 54.4128 71.9165 54.8303 71.8999C55.0045 71.8929 55.3291 71.88 55.6711 71.8632C55.3098 71.9009 55.3885 71.9337 55.4199 71.9058C55.469 71.8833 55.5494 71.8375 55.5997 71.8131C55.7131 71.754 55.7795 71.9212 55.8841 71.8403C56.0697 71.698 56.334 71.1427 56.6044 70.878C56.8492 70.6445 57.4175 70.3497 57.5836 70.1313C58.1965 69.3373 58.708 68.315 59.4765 67.5492C59.6945 67.3321 60.1108 67.1932 60.1701 67.114C60.2827 66.9621 60.1488 66.7811 60.207 66.6691C60.5094 66.0947 61.3347 65.5163 61.7396 65.0446C63.0554 63.5139 64.3337 61.7873 65.6294 60.2424C65.7529 60.0951 65.8884 59.9305 66.0332 59.7533C66.8316 58.7783 67.8558 57.4655 68.5744 56.7631C68.7562 56.5861 68.9055 56.7859 69.0335 56.6198C69.1783 56.4317 69.1279 56.2307 69.1843 56.1356C69.5746 55.4783 70.4481 54.0455 71.0093 53.5622C71.1159 53.4717 71.3233 53.5075 71.3732 53.4386C71.3981 53.4048 71.3509 53.2522 71.4175 53.1393C72.002 52.1453 72.548 51.515 73.2312 50.6218C74.5378 48.9081 75.7341 46.7115 76.9695 44.8862C77.2345 44.4943 77.7204 44.3854 77.7469 44.3297C77.8088 44.2011 77.6394 43.9925 77.7037 43.7306C77.7324 43.6131 77.7753 43.4708 77.762 43.4675C77.7181 43.5237 77.7138 43.6451 77.7233 43.6552C77.7312 43.6704 77.7204 43.5927 77.6622 43.4738L78.017 43.895C77.7344 43.625 77.4024 43.4037 77.063 43.3203C76.7019 43.226 76.1184 43.3862 75.7318 43.3819C75.4336 43.3691 74.6797 43.1499 74.5145 43.2802C74.4161 43.356 74.3545 43.6226 74.2451 43.6482ZM77.2805 50.5559C76.9598 50.2579 76.8519 51.0564 77.1959 50.9641C77.2718 50.9459 77.3638 50.6335 77.2805 50.5559ZM53.6291 74.5052C53.6213 74.6289 53.6138 74.7526 53.6067 74.8763C53.7237 74.8386 53.8377 74.7983 53.9489 74.756C53.895 74.6769 53.8421 74.5972 53.7907 74.5171C53.7371 74.5137 53.6831 74.5097 53.6291 74.5052Z" fill="#C9A16C"/>
<path d="M108.433 48.1623C105.507 46.3396 104.228 45.5973 103.464 45.193C103.195 44.9174 103.02 44.7589 102.847 44.5817C102.217 43.8602 101.735 43.0554 101.47 42.1517C101.365 41.0758 101.245 39.9706 101.734 39.3372C102.218 38.7124 103.206 37.6733 104.921 37.6203C108.41 37.5123 110.301 38.0588 116.616 41.994C120.025 44.1176 125.571 47.2802 128.82 49.6331C135.097 54.1794 137.236 56.1278 137.136 58.0814C137.052 59.7244 136.695 62.3561 135.133 62.5964C134.393 62.7101 132.752 63.151 125.097 58.5559C120.415 55.7459 112.692 50.8153 108.433 48.1623Z" fill="url(#paint4_linear_4055_174)"/>
<path d="M103.97 41.7495C104.021 41.7959 103.909 41.9451 103.938 42.0227C104.057 42.3414 104.034 42.5156 104.19 42.8383C104.238 42.9344 104.325 43.0568 104.436 43.195L104.359 43.1111C104.567 43.3373 105.136 43.9201 105.356 44.3635C105.603 44.8259 105.655 45.2537 105.315 45.548C105.315 45.5481 105.315 45.5481 105.315 45.5481C105.307 45.5553 105.298 45.5624 105.289 45.5694C105.12 45.7021 104.819 45.7111 104.617 45.8494C104.416 45.9888 103.245 47.0288 103.014 46.8999C102.685 46.6942 102.407 45.8273 102.234 45.6936C102.158 45.631 102.018 45.5977 101.876 45.5263L101.827 45.4724C101.771 45.4416 101.718 45.4064 101.672 45.3634C101.172 44.8823 101.06 44.5391 100.4 44.1535C100.452 43.8213 100.523 43.4983 100.615 43.1893C100.469 43.0081 100.464 42.6834 100.467 42.4454L100.43 42.2531C100.453 42.1611 100.469 42.0809 100.459 42.0283C100.434 41.8923 100.265 41.8256 100.245 41.6769C100.222 41.5089 100.373 41.2368 100.341 40.9076C100.296 40.3616 99.8887 40.2081 99.9107 39.7565C99.936 39.426 100.171 38.9225 100.565 38.4331C100.658 38.3214 100.743 38.2004 100.803 38.0651C100.808 37.9891 100.815 37.9124 100.823 37.8349C100.716 37.7973 100.608 37.7597 100.499 37.7257C100.639 37.4967 100.873 37.564 101.049 37.4023C101.258 37.2137 101.245 36.9629 101.407 36.8385C101.541 36.7369 101.817 36.7411 101.992 36.6215C102.252 36.4489 102.08 36.2802 102.215 36.1569C102.246 36.0793 103.459 35.4834 103.548 35.4977C104.114 35.3632 104.209 35.6855 104.631 35.6763C104.707 35.6762 104.784 35.676 104.861 35.6759C105.659 35.683 106.524 35.4555 107.368 35.4555C107.769 35.4541 108.188 35.5382 108.57 35.6701C107.82 36.3569 108.962 37.257 108.769 35.8933C109.15 36.1695 109.538 35.9168 109.914 36.098C110.156 36.2171 110.269 36.4441 110.608 36.5672C111.212 36.7844 112.053 36.6141 111.821 37.5213C112.541 37.6803 112.92 38.2607 113.526 37.6636C113.714 37.7069 113.892 38.3556 114.028 38.5077C114.174 38.6546 115.307 39.5647 115.495 39.6954C115.696 39.8298 116.028 40.0456 116.239 40.0909C116.488 40.1396 117.088 39.5193 116.938 40.5841C117.116 40.6587 117.249 40.724 117.364 40.7949C117.542 40.9048 117.675 41.0319 117.884 41.244C117.945 41.3061 117.877 41.4358 117.919 41.4612C118.003 41.5132 118.21 41.5131 118.37 41.5952C118.635 41.7317 118.622 42.0831 118.837 41.6643C119.045 41.6987 119.255 41.7336 119.464 41.7679C119.476 41.8811 119.49 41.9954 119.501 42.1081C119.642 42.0776 119.783 42.0474 119.925 42.0175C119.468 42.536 120.31 42.575 120.305 42.1167C120.561 42.4346 120.816 42.7519 121.073 43.0705C120.628 43.7044 121.748 43.5808 121.9 43.1823C121.938 43.2056 121.975 43.2289 122.013 43.2521C122.235 43.626 122.626 43.6653 122.956 44.0265C123.287 44.3879 123.21 44.4294 123.148 44.8071C123.253 44.8471 123.358 44.8872 123.463 44.9274C124.466 44.3989 123.498 45.7821 124.736 45.6678C124.683 46.3548 125.516 46.4948 126.056 46.6179C126.119 46.6321 126.183 46.532 126.271 46.5446C126.487 46.5768 126.828 46.9778 127.022 46.6468C127.108 46.8345 127.196 47.0239 127.282 47.2122C127.439 47.2312 127.599 47.2532 127.757 47.2739C127.822 47.1737 127.888 47.0735 127.953 46.9733C127.97 47.4726 128.437 47.5979 128.568 47.8055C128.593 47.8469 128.509 47.9887 128.599 48.1053C128.702 48.2409 128.982 48.376 129.109 48.5294C129.277 48.4241 129.446 48.3204 129.615 48.2166C129.685 48.2418 129.732 48.2807 129.765 48.3278C129.896 48.5146 129.8 48.8328 129.911 48.9507C129.934 48.9747 130.492 49.3388 130.524 49.3502C130.802 49.4527 130.987 49.0769 131.612 49.6487C131.724 49.752 131.736 49.9383 131.84 50.0228C132.03 50.1769 132.802 50.3556 133.029 50.1548C133.034 50.6261 133.759 50.9939 133.87 51.2203C133.906 51.2909 133.773 51.4881 133.91 51.6621C134.018 51.8001 134.492 51.9384 134.647 52.1082C134.811 52.2887 134.743 52.4924 134.818 52.5747C134.888 52.6506 135.064 52.5885 135.166 52.6779C135.497 52.9694 135.612 53.4226 135.863 53.6663C136.221 54.0154 136.879 54.0038 137.352 54.2224C137.404 54.3287 137.404 54.4864 137.481 54.5823C138.088 55.3407 138.895 56.6103 138.751 58.1639C138.697 58.6535 138.621 59.142 138.52 59.615C138.429 60.2854 137.264 61.7732 138.421 61.6892C138.458 61.8525 138.212 62.4016 137.698 62.9746C137.212 63.5675 136.273 64.0102 135.975 64.0798C135.769 64.1528 135.579 64.2221 135.392 64.2816C135.29 64.3547 135.033 64.4792 134.81 64.4946C133.715 64.548 133.169 64.2551 132.191 64.1519C131.945 64.1234 131.621 64.2554 131.485 64.204C131.318 64.1408 131.227 63.8705 131.029 63.7788C130.556 63.5651 129.672 63.2537 129.26 63.0124C129.186 62.9686 129.242 62.7798 129.156 62.6705C128.832 62.2509 128.353 62.0277 128.153 62.6248C127.765 62.0297 127.132 62.0562 126.623 61.7987C125.925 61.4461 124.926 60.8101 124.04 60.3162C123.584 60.0628 123.143 59.8444 122.804 59.7438C122.173 59.5523 122.043 59.8003 121.371 59.1046C121.224 58.9518 121.082 58.7797 120.904 58.5946C120.48 58.1567 120.294 57.4347 119.586 57.7262C119.116 57.2445 118.614 57.0661 118.484 56.3586C118.369 56.4366 118.253 56.5145 118.137 56.5923C118.067 56.5526 117.998 56.5128 117.928 56.473C117.971 56.3566 118.014 56.2403 118.058 56.1239C117.59 55.793 116.708 55.8297 116.299 55.5691C115.613 55.1322 113.945 53.8534 113.381 53.3042C113.08 53.0117 112.925 53.2214 113.012 52.6436C112.914 52.6261 112.817 52.6087 112.72 52.5915C112.609 52.6602 112.498 52.7289 112.387 52.7977C111.94 52.5215 111.513 52.0371 111.088 51.772C110.317 51.2908 108.986 50.8349 108.331 50.1749C108.16 50.005 108.053 49.6532 107.858 49.5346C107.775 49.4843 107.693 49.4761 107.61 49.4837C107.405 49.4967 107.198 49.6032 106.947 49.4534C106.338 49.089 105.458 48.0008 104.867 47.6885C104.689 47.5937 104.539 47.6775 104.41 47.6196C103.888 47.3882 103.489 47.1407 102.92 47.0885C102.621 46.4864 102.892 46.0735 102.961 45.5457C103.019 45.1493 102.999 44.1689 103.085 43.8442C103.145 43.6154 103.419 43.4145 103.474 43.1571C104.258 43.3023 104.477 43.6827 104.82 44.2879C105.794 44.8244 106.724 45.3749 107.653 45.9279C107.666 46.0995 107.676 46.2694 107.685 46.4392C107.685 46.4395 107.685 46.4397 107.684 46.44C107.954 46.7956 108.295 46.5838 108.523 46.6292C108.758 46.6789 108.996 46.7484 109.253 46.8459C111.415 47.6517 114.181 49.9902 115.915 51.1743C116.333 51.4596 117.823 52.1743 117.996 52.5504C118.041 52.6481 117.947 52.8438 118.023 52.9024C118.814 53.2471 119.604 53.5909 120.394 53.9331C121.703 55.1438 123.39 55.8651 124.916 56.7318C125.236 56.9139 125.555 57.094 125.869 57.2694C128.901 58.9088 132.745 61.0932 134.869 60.8817C134.795 60.8852 134.699 60.9676 134.751 60.9233C134.792 60.8833 134.893 60.7302 134.978 60.5225C135.215 59.9817 135.209 58.9438 135.356 58.1615C135.368 58.1 135.389 58.0436 135.416 57.9934C135.52 57.9241 135.707 57.8154 135.462 57.7041C135.551 57.6772 135.64 57.6499 135.729 57.622C135.554 57.4348 135.304 57.4015 135.11 57.1432C134.968 56.9301 134.366 56.2703 134.153 56.0231C134.05 55.8968 134.215 55.815 134.101 55.7054C133.907 55.5209 133.311 55.3073 133.019 55.0588C132.753 54.83 132.427 54.3033 132.188 54.1498C131.358 53.6151 130.31 53.1929 129.499 52.4919C129.27 52.2943 129.104 51.8918 129.022 51.8389C128.866 51.7408 128.696 51.8883 128.581 51.8389C128.287 51.7118 127.992 51.4616 127.695 51.1867C127.419 50.9266 127.141 50.6497 126.899 50.4774C125.322 49.3575 123.486 48.334 121.82 47.2723C120.767 46.601 118.959 45.5623 118.045 44.8187C117.85 44.6589 118.031 44.4877 117.85 44.3782C117.65 44.2577 117.457 44.3304 117.357 44.2847C116.962 44.1064 116.3 43.792 115.708 43.4522C115.261 43.1962 114.86 42.9381 114.643 42.7222C114.545 42.6251 114.558 42.4127 114.489 42.372C114.454 42.3511 114.31 42.4137 114.196 42.3609C113.174 41.8845 112.521 41.4178 111.594 40.8759C109.778 39.8121 107.791 39.2893 105.802 39.2101C105.36 39.1784 105.029 38.8188 104.961 38.8241C104.96 38.8242 104.959 38.8242 104.958 38.8243C104.849 38.8388 104.794 39.0879 104.62 39.1772C104.096 39.4356 103.365 39.6462 102.976 40.2973C102.988 40.2894 102.999 40.2831 103.008 40.2794C103.088 40.222 103.317 40.5973 103.416 40.9484C103.46 41.138 103.45 41.6044 103.502 41.9536L103.43 41.578C103.461 41.6609 103.501 41.7207 103.549 41.7358C103.65 41.7686 103.913 41.699 103.97 41.7495ZM110.888 36.902C110.66 37.2736 111.5 37.2395 111.329 36.9137C111.289 36.8387 110.949 36.8048 110.888 36.902ZM137.925 56.8346C138.04 56.788 138.154 56.7407 138.269 56.6926C138.178 56.5836 138.082 56.4805 137.986 56.3885C137.946 56.4827 137.902 56.5711 137.857 56.6629C137.881 56.7198 137.904 56.7771 137.925 56.8346Z" fill="#C9A16C"/>
<path d="M82.305 80.7128C81.6052 80.2667 81.225 76.2193 81.1232 73.3691C81.9053 73.1345 82.5799 72.9782 83.2703 72.8469C86.0329 72.4285 88.5822 72.0972 91.7525 71.7094C96.6805 71.2281 100.105 70.7614 102.814 70.7321C108.695 70.6685 113.127 70.3863 113.789 70.9709C114.371 71.4863 115.747 72.8928 115.282 75.8957C115.094 77.1041 114.823 78.1408 114.026 78.5218C113.196 78.9179 106.517 80.4728 95.8289 81.2176C88.4231 81.7337 84.1568 81.8934 82.305 80.7128Z" fill="url(#paint5_linear_4055_174)"/>
<path d="M82.9152 75.4726C82.8356 75.5219 82.6753 75.394 82.5703 75.4119C82.1322 75.4863 81.9426 75.4246 81.5287 75.485C80.9162 75.5589 79.2166 76.4349 78.7936 75.3981C78.7935 75.3981 78.7935 75.3981 78.7935 75.3981C78.7895 75.3878 78.7855 75.3773 78.7817 75.3667C78.7094 75.1645 78.7798 74.8849 78.7142 74.65C78.6483 74.4152 78.0598 72.962 78.2594 72.7902C78.5551 72.5487 79.5121 72.6274 79.6897 72.55C79.8109 72.4951 79.9204 72.3074 80.0761 72.2296C80.5802 71.9798 80.8854 71.9972 81.2798 71.4892C81.5318 71.6329 81.7795 71.7808 82.0218 71.9329C82.2563 71.7792 82.6999 71.9602 82.849 71.916C82.9394 71.8889 82.9866 71.7894 83.0569 71.7252L83.0993 71.7179C83.1249 71.6955 83.1533 71.678 83.1873 71.6708C83.3293 71.64 83.5752 71.7791 83.8322 71.7145C84.2535 71.6096 84.269 71.1824 84.5188 71.0923C84.7779 70.9989 85.2247 71.1662 85.5445 70.9721C85.5808 70.9203 85.6172 70.8685 85.6535 70.8167C85.6084 70.7173 85.5634 70.6179 85.5182 70.5185C85.6833 70.4463 85.7868 70.6485 85.9449 70.6306C86.1313 70.6097 86.1982 70.3953 86.3235 70.3792C86.4259 70.3662 86.5869 70.5089 86.7179 70.481C86.9096 70.441 86.8359 70.2134 86.9342 70.1558C86.9738 70.133 87.725 69.9026 87.7682 69.8954C88.0967 69.8432 88.1665 70.1592 88.433 70.1532C89.1706 70.1358 89.8852 69.7837 90.5454 69.6028C90.84 69.522 91.156 69.502 91.4616 69.5166C91.2911 69.918 91.4343 70.2424 91.5872 70.3577L91.6201 70.354C91.7977 70.4948 91.9925 70.3431 91.7139 69.6676C92.0616 69.8179 92.2622 69.4477 92.5816 69.4746C92.7884 69.4923 92.947 69.6561 93.2361 69.6216C93.7501 69.5592 94.2595 68.994 94.5044 69.8928C95.0921 69.6678 95.6542 69.9434 95.7865 69.1132C95.9387 69.0472 96.3912 69.4855 96.5734 69.5324C96.7453 69.576 98.0492 69.6614 98.2616 69.654C98.4736 69.6453 98.8439 69.6235 99.0148 69.5365C99.2302 69.4284 99.3159 68.5751 99.8004 69.5223C100.26 69.405 100.43 69.4205 100.874 69.5055C100.955 69.521 100.973 69.6664 101.019 69.6636C101.113 69.6578 101.271 69.5402 101.44 69.5182C101.721 69.4819 101.895 69.7833 101.844 69.3152C102.027 69.2288 102.213 69.1437 102.402 69.0604C102.471 69.1493 102.539 69.2386 102.608 69.328C102.67 69.2647 102.733 69.2016 102.796 69.1387C102.832 69.1017 102.867 69.0648 102.902 69.0278C102.798 69.7087 103.465 69.2995 103.242 68.9123C103.591 69.0484 103.939 69.1838 104.288 69.3186C104.251 70.0919 105.052 69.3944 104.976 68.9756C105.016 68.9755 105.056 68.9753 105.096 68.9752C105.447 69.1739 105.763 68.9996 106.193 69.1285C106.618 69.2575 106.584 69.3334 106.719 69.6859C106.819 69.6634 106.917 69.641 107.018 69.6186C107.524 68.6341 107.464 70.3211 108.354 69.5572C108.652 70.1637 109.358 69.8305 109.832 69.6415C109.886 69.6195 109.886 69.5007 109.961 69.4635C110.141 69.3738 110.605 69.5264 110.588 69.1434C110.753 69.2547 110.907 69.3666 111.072 69.4795C111.206 69.4114 111.338 69.3439 111.475 69.2774C111.477 69.1578 111.479 69.0382 111.481 68.9186C111.744 69.3316 112.174 69.192 112.395 69.305C112.438 69.3277 112.432 69.4921 112.568 69.5476C112.715 69.612 113.03 69.5937 113.228 69.6778C113.342 69.5107 113.448 69.3432 113.59 69.1859C114.062 69.2074 114.165 69.634 114.586 70.0696C114.591 70.0802 114.597 70.0902 114.604 70.0996C114.632 70.118 115.185 70.6312 115.212 70.6662C115.475 70.8787 115.8 70.5241 116.249 71.48C116.322 71.6521 116.257 71.8477 116.315 71.9955C116.432 72.2485 116.979 72.9828 117.277 73.0022C117.008 73.4399 117.245 74.3182 117.129 74.587C117.097 74.6652 116.862 74.6865 116.807 74.9169C116.765 75.1017 116.921 75.5917 116.857 75.8247C116.818 75.9669 116.726 76.0462 116.652 76.1081C116.603 76.1459 116.561 76.1771 116.549 76.2163C116.521 76.3083 116.665 76.4223 116.64 76.5556C116.558 76.9731 116.213 77.3094 116.088 77.6626C115.904 78.1581 116.1 78.9192 115.64 79.6499C115.472 79.7625 115.255 79.8014 115.079 79.9099C114.979 79.9712 114.876 80.0273 114.769 80.0773C113.137 80.6666 112.159 80.6925 110.955 80.8572C110.402 80.9226 108.943 80.5246 109.491 81.5241C109.338 81.7462 107.892 81.5466 107.626 81.579C107.37 81.6127 107.189 81.8366 106.982 81.8706C106.37 81.9711 105.905 81.8972 105.179 82.1659C104.989 82.2361 104.808 82.4915 104.695 82.5036C104.556 82.518 104.377 82.3172 104.193 82.3263C103.762 82.3495 102.971 82.5182 102.55 82.527C102.473 82.5283 102.425 82.3376 102.312 82.2891C101.871 82.0993 101.398 82.1704 101.549 82.7801C100.978 82.4858 100.513 82.8567 100.013 82.9246C98.9626 83.0691 97.0237 83.0822 96.1251 83.405C96.0741 83.4233 96.0278 83.4421 95.9852 83.4612C95.5525 83.6558 95.5154 83.8716 94.7264 83.7047C94.5363 83.6639 94.3387 83.6047 94.1083 83.5559C93.5607 83.4412 93.0363 82.957 92.6659 83.6012C92.0557 83.4756 91.5875 83.615 91.1123 83.1061C91.0663 83.236 91.0203 83.3658 90.9744 83.4955C90.9014 83.5021 90.8254 83.5088 90.7516 83.5153C90.7229 83.3949 90.6944 83.2745 90.6659 83.1541C90.1385 83.1453 89.4837 83.6685 89.0245 83.6757C88.2698 83.6983 86.2633 83.4958 85.5079 83.2585C85.1157 83.141 85.0597 83.395 84.8848 82.8389C84.7893 82.8659 84.6944 82.8922 84.6 82.9178C84.528 83.0268 84.4525 83.135 84.3773 83.2428C83.8325 83.1729 83.2036 82.8633 82.6444 82.6744C82.296 82.5573 81.8585 82.4262 81.3763 82.1696C80.5658 81.5886 80.5546 81.2814 80.379 81.0109C80.249 80.7547 80.1608 80.5229 80.095 80.3234C79.9617 79.9113 79.9019 79.5536 79.9134 79.2376C79.9229 78.9986 80.1154 78.6786 80.0814 78.4685C80.0318 78.156 79.6237 78.135 79.5667 77.7382C79.4664 77.0518 79.8224 75.7642 79.7488 75.1414C79.7262 74.9544 79.5721 74.8773 79.5484 74.7484C79.4484 74.2086 79.4402 73.7634 79.1925 73.2454C79.5598 72.6688 80.0591 72.7071 80.5559 72.528C80.9307 72.3888 81.8032 71.9908 82.1347 71.944C82.3671 71.9078 82.6663 72.0428 82.9221 71.9914C83.1297 72.6036 82.9135 72.8699 82.5717 73.3962C82.6218 74.3455 82.6959 75.2998 82.7966 76.2401C82.6654 76.338 82.5347 76.4382 82.4041 76.5379C82.4038 76.538 82.4035 76.538 82.4032 76.538C82.2791 76.919 82.6548 77.0348 82.7582 77.2174C82.9861 77.6181 83.1588 78.1182 83.3115 78.6298C83.388 78.8854 83.4612 79.1476 83.5308 79.3649C83.564 79.4697 83.6006 79.5704 83.6168 79.6097C83.6241 79.6293 83.6279 79.633 83.6003 79.5923C83.5656 79.5535 83.5253 79.4467 83.2356 79.2531C83.8183 79.7172 85.5485 80.087 86.6005 80.1593C87.0327 80.201 88.4762 80.0066 88.7923 80.2213C88.8724 80.2786 88.8996 80.4934 88.985 80.5006C89.7447 80.3533 90.5053 80.1928 91.2654 80.0258C92.7419 80.2604 94.2425 79.946 95.7278 79.7681C95.8474 79.7538 95.9663 79.7403 96.0846 79.7279C100.373 79.2763 104.594 78.6374 108.738 77.9678C109.535 77.8391 110.517 77.4865 111.297 77.4223C111.624 77.3946 111.833 77.7033 112.188 77.3532C112.214 77.4427 112.24 77.5323 112.266 77.6218C112.597 77.4248 112.784 77.1593 113.114 77.0367C113.179 77.0137 113.361 76.9401 113.284 76.9686C113.239 76.9827 113.192 77.0277 113.204 77.0192C113.213 77.0138 113.255 76.9559 113.286 76.9165C113.333 76.8555 113.482 76.9502 113.514 76.8646C113.573 76.7161 113.445 76.2384 113.498 75.9189C113.512 75.837 113.545 75.739 113.585 75.6326C113.679 75.402 113.798 75.1396 113.784 74.9961C113.719 74.245 113.308 73.6487 113.119 73.1391C113.071 72.994 113.137 72.695 113.096 72.6533C113.021 72.5772 112.833 72.6961 112.77 72.6668C112.67 72.62 112.591 72.5466 112.49 72.4392C112.882 72.7391 112.91 72.658 112.922 72.6605C112.922 72.6431 112.863 72.6099 112.794 72.5807C112.652 72.5207 112.458 72.4685 112.295 72.4531C110.684 72.3198 108.704 72.4878 106.911 72.4785C105.782 72.478 103.908 72.5518 102.832 72.4041C102.819 72.4022 102.806 72.4003 102.794 72.3984C102.581 72.3659 102.632 72.1248 102.451 72.129C102.248 72.1343 102.144 72.3008 102.05 72.3175C101.404 72.4283 99.9519 72.7039 99.3009 72.6005C99.1769 72.5799 99.0727 72.4006 98.9995 72.4082C98.9623 72.4117 98.8917 72.5474 98.778 72.5715C97.7701 72.7859 97.015 72.7914 96.0015 72.8543C94.7194 72.9351 93.3153 73.17 91.9112 73.3343L91.9507 73.3299C91.2364 73.4314 90.5255 73.518 89.834 73.5609C89.3906 73.5885 89.0426 73.2578 88.9807 73.2695C88.8461 73.2944 88.7909 73.5539 88.5246 73.6509C87.6387 73.9704 86.3768 73.8711 85.5295 74.1186C85.1108 74.2403 84.5707 74.64 84.1624 74.772C84.024 74.8166 83.7996 74.8414 83.5764 74.8679L83.6522 74.8549C83.3706 74.898 83.0998 74.9492 83.0407 75.0449C82.9779 75.1453 83.0014 75.4176 82.9152 75.4726ZM93.5668 69.7976C93.551 70.2347 94.148 69.8106 93.8857 69.6042C93.8257 69.5579 93.5711 69.6841 93.5668 69.7976ZM112.923 79.8598C112.959 79.9784 112.995 80.097 113.031 80.2156C113.107 80.1437 113.179 80.0725 113.247 80.0018C113.183 79.9415 113.118 79.8812 113.053 79.821C113.011 79.8338 112.967 79.8467 112.923 79.8598Z" fill="#C9A16C"/>
<defs>
<linearGradient id="paint0_linear_4055_174" x1="97.1291" y1="17.6851" x2="97.1291" y2="183.551" gradientUnits="userSpaceOnUse">
<stop stop-color="#FFE8C9"/>
<stop offset="0.495192" stop-color="#FFEDAE"/>
<stop offset="1" stop-color="#FBC579"/>
</linearGradient>
<linearGradient id="paint1_linear_4055_174" x1="104.356" y1="16.8642" x2="91.0576" y2="183.592" gradientUnits="userSpaceOnUse">
<stop stop-color="#FFE8C9"/>
<stop offset="0.495192" stop-color="#FFEDAE"/>
<stop offset="1" stop-color="#FBC579"/>
</linearGradient>
<linearGradient id="paint2_linear_4055_174" x1="99.887" y1="17.7145" x2="93.799" y2="183.718" gradientUnits="userSpaceOnUse">
<stop stop-color="#FFE8C9"/>
<stop offset="0.495192" stop-color="#FFEDAE"/>
<stop offset="1" stop-color="#FBC579"/>
</linearGradient>
<linearGradient id="paint3_linear_4055_174" x1="63.8218" y1="40.6082" x2="63.8218" y2="73.6082" gradientUnits="userSpaceOnUse">
<stop stop-color="#FFE8C9"/>
<stop offset="0.495192" stop-color="#FFEDAE"/>
<stop offset="1" stop-color="#FBC579"/>
</linearGradient>
<linearGradient id="paint4_linear_4055_174" x1="119.257" y1="37.6082" x2="119.257" y2="62.6618" gradientUnits="userSpaceOnUse">
<stop stop-color="#FFE8C9"/>
<stop offset="0.495192" stop-color="#FFEDAE"/>
<stop offset="1" stop-color="#FBC579"/>
</linearGradient>
<linearGradient id="paint5_linear_4055_174" x1="96.876" y1="70.6082" x2="96.876" y2="81.6082" gradientUnits="userSpaceOnUse">
<stop stop-color="#FFE8C9"/>
<stop offset="0.495192" stop-color="#FFEDAE"/>
<stop offset="1" stop-color="#FBC579"/>
</linearGradient>
</defs>
</svg>
