<svg width="195" height="200" viewBox="0 0 195 200" fill="none" xmlns="http://www.w3.org/2000/svg">
<path d="M46.0642 28.6267C44.8664 24.6673 44.6226 20.5885 44.588 19.0644C44.6299 18.2861 46.0721 13.6797 46.2084 13.3561C46.5696 12.7519 48.3549 11.0558 52.2617 8.36165C55.2411 6.95834 57.3755 5.40977 61.9069 6.53625C66.3921 7.65122 71.8348 8.83181 73.284 12.1496C74.4673 14.8585 75.2989 21.0133 80.622 25.8408C81.8852 26.9863 83.2056 27.6332 86.1247 28.2916C90.9536 29.3809 94.9779 30.1573 97.8882 30.1657C102.087 30.1777 107.228 29.7601 111.31 28.8555C112.774 28.5309 113.14 28.3851 113.373 26.8191C114.029 22.4123 113.785 13.4181 117.035 11.9155L117.044 11.911C117.824 11.5507 125.765 7.87831 131.581 8.6208C133.304 8.8407 135.972 8.68468 139.066 9.25754C144.129 10.1951 147.304 11.2298 148.377 12.9038C148.793 13.5529 149.052 14.6553 148.531 18.7404C148.105 22.0804 147.279 27.8302 146.884 30.9285C146.49 34.0269 146.487 34.4746 146.751 35.1513C147.379 36.7611 147.352 43.5809 151.243 50.0088C152.62 52.2828 154.612 53.0589 154.579 57.5088C154.545 61.9587 155.648 68.129 155.495 72.4988C155.342 76.8687 155.279 77.3689 154.579 80.1974C152.637 88.0444 151.251 93.6744 151.243 94.8637C151.239 95.4523 149.313 99.0336 150.428 100.509C153.419 104.468 155.733 109.753 156.928 112.509C157.533 113.905 160.947 112.212 160.711 121.95C160.527 129.55 159.937 142.226 158.646 151.793C157.354 161.36 159.578 162.325 158.646 166.009C157.464 170.675 152.701 177.555 151.411 178.916C149.388 181.05 147.153 183.222 142.934 184.909C139.904 186.12 134.456 191.671 124.927 193.009C115.399 194.346 102.19 191.269 94.8292 192.065C86.5432 192.962 85.2498 193.333 81.1879 192.397C77.4615 191.538 70.5723 189.861 66.6715 188.937C62.7707 188.014 61.8853 187.851 58.5746 185.756C55.264 183.661 49.6226 179.852 46.5047 177.399C42.5195 174.264 40.7935 171.477 39.1444 164.723C37.9967 160.022 36.4544 152.839 35.6833 147.105C34.9121 141.371 34.9121 137.213 35.1124 133.25C35.3126 129.287 35.7013 125.629 36.685 121.674C37.6686 117.718 39.0513 113.519 40.6318 110.405C43.3535 105.044 44.8621 102.491 45.068 101.662C45.2874 100.778 45.467 99.9109 44.3809 96.8611C41.648 89.1872 39.6042 83.5902 39.4564 82.4272C39.3493 81.5837 39.1019 78.7087 40.2848 72.5596C41.0161 68.7576 42.2876 63.6984 43.1339 60.7452C44.2288 56.9249 44.5963 55.3307 45.4135 54.293C47.6514 51.4513 51.4132 48.4478 51.4328 46.454C51.4501 44.6927 51.3615 42.7433 50.0125 39.0964C48.9586 36.2472 46.9555 31.5732 46.0642 28.6267Z" fill="url(#paint0_linear_4055_524)" stroke="#361700" stroke-width="5" stroke-linecap="round"/>
<path d="M41.2595 65.0558C43.961 52.1667 52.1558 42.426 53.5895 39.8222C50.7802 36.8915 49.6229 35.6055 48.7997 34.4634C47.9764 33.3214 47.5015 32.3527 47.0315 31.3706C45.2904 27.4349 41.801 17.1604 45.5006 11.2618C46.646 9.4357 52.7943 5.22999 55.8509 5.13812C63.3968 4.91132 67.8318 4.32088 72.6112 9.77962C76.3427 14.0415 75.8081 23.7636 79.8328 27.2581C80.5913 27.9168 81.6258 27.9573 84.4242 28.0671L84.4479 28.0681C97.6529 28.5862 112.078 32.2374 113.449 28.0681C114.78 24.0178 114.894 15.5581 118.103 12.1004C121.411 8.53768 124.511 7.21557 130.075 7.45894C139.273 7.86121 142.611 9.58173 146.855 14.17C148.714 16.1799 150.209 19.8478 149.517 24.0945C148.633 29.5246 146.855 39.9495 146.855 39.9495C146.855 39.9495 157.383 56.8956 157.11 64.5639C156.36 85.6958 149.101 97.5443 151.886 103.195C154.27 108.033 160.658 112.923 160.87 130.556C161.103 149.986 160.376 163.722 158.326 168.082C156.053 172.914 154.143 178.431 150.222 181.843C143.217 187.939 137.519 192.127 130.382 192.585C121.716 193.142 105.839 195.123 88.1765 193.132C69.2937 191.002 60.9217 189.596 53.1182 182.669C43.4863 174.119 37.1484 168.317 36.5015 145.876C36.1419 133.403 37.0628 121.857 40.0232 113.401C41.8115 108.293 46.8117 103.946 47.4615 97.6867C47.7429 94.9757 45.9035 92.7902 44.8981 90.8261C41.9814 85.1281 37.9852 80.6774 41.2595 65.0558Z" fill="url(#paint1_linear_4055_524)"/>
<path d="M46.9063 14.1144C46.7579 14.6374 46.4189 15.3958 46.3271 16.108C46.0296 19.1089 46.1406 20.393 46.6516 23.3225C46.963 24.9472 47.7721 27.8111 48.9324 30.5297L48.9065 30.4733C49.4009 31.5535 49.8584 32.442 50.4337 33.2855C52.4894 36.1121 54.8597 38.6674 54.4081 39.0375C54.4081 39.0375 54.4081 39.0375 54.4081 39.0375C54.4001 39.0452 54.3911 39.0519 54.381 39.0577C54.1895 39.1686 53.1998 38.4721 52.9028 38.511C52.6036 38.5464 51.5589 39.7323 50.3237 38.5408C49.6242 37.8438 48.587 36.719 47.6298 35.3067C46.8622 34.1808 46.2727 32.8898 45.8704 31.9263L45.8543 31.8914C45.5013 30.9883 45.2528 30.251 45.1117 29.8922C44.776 29.0361 44.2698 28.004 43.9114 26.8769C42.808 23.2065 42.5189 21.2353 42.1011 17.6389C42.3266 16.1903 42.6995 14.746 43.3068 13.3964C43.5065 12.5484 43.9516 11.5307 44.5535 10.6678C45.456 9.4781 46.3314 8.98569 46.7998 8.56709C47.4995 7.99553 47.8322 7.55552 48.6085 7.02337C49.4868 6.43313 50.9262 5.71658 52.7078 4.91935C54.0011 4.35779 54.8966 4.03056 55.8134 3.8918C56.686 3.7356 57.2935 3.56587 58.3156 3.50195C60.1978 3.39891 63.204 3.47015 65.849 3.88525C66.1842 3.90873 66.5246 3.9446 66.8656 3.99393C66.6585 3.82589 66.4469 3.66331 66.2284 3.50536C67.5961 3.79312 68.1149 4.21351 69.2635 4.77937C70.5983 5.48517 71.3233 5.80693 72.0987 6.44709C72.7119 6.96396 73.3575 7.81431 74.0064 8.55802C74.026 8.58026 74.0454 8.6025 74.0648 8.62471C75.1189 9.93625 75.0515 9.53723 75.5478 10.2711C76 10.5872 77.908 16.126 77.8794 16.3841C78.4611 18.6656 78.1672 18.9257 78.6086 20.6526C79.1502 22.752 79.9849 24.827 81.1516 25.7393C81.1928 25.7551 81.1708 25.749 81.3851 25.7946C81.5842 25.8326 81.9122 25.8629 82.2585 25.879C82.9629 25.9118 83.753 25.9132 84.5321 25.9216C85.7258 25.9337 86.8982 25.9719 88.0331 26.0318C90.1842 26.1449 92.4091 26.3853 94.51 26.6646C91.1065 27.1265 98.3715 28.5634 95.7687 26.9796C98.0931 27.4216 99.7678 27.2685 101.955 27.5442C103.358 27.7147 104.331 27.9967 106.297 28.0822C107.748 28.1376 109.245 28.0319 110.324 27.7934C110.86 27.6789 111.263 27.5187 111.429 27.4385C111.599 27.3453 111.548 27.4566 111.662 27.4808C111.824 27.2531 111.997 27.0576 112.189 26.9412C112.927 23.012 113.711 19.2202 113.37 17.4743C113.559 16.3217 114.962 13.4799 115.882 12.2842C116.032 12.0712 116.342 11.5929 116.916 10.9977C117.969 9.91402 119.856 8.20038 122.029 7.27511C124.184 6.32044 126.251 6.19355 126.877 6.13651C127.765 6.06074 128.999 6.04479 130.135 6.09062C131.01 6.12257 131.819 6.1592 132.383 6.1716C133.954 6.22878 135.257 5.42932 137.942 7.04091C141.26 7.85069 142.536 8.52191 144.989 10.5728C145.421 10.9582 145.369 11.1127 145.619 11.3347C146.116 11.7772 146.978 12.4745 147.778 13.3162C147.806 13.3457 147.834 13.3756 147.862 13.4059C149.329 15.0697 149.412 16.3717 149.763 15.9376C150.455 17.1814 150.943 18.5361 151.223 19.9395C151.205 20.4488 151.158 20.9519 151.086 21.4464C151.213 22.1905 151.281 22.9525 151.289 23.7198C151.1 23.4067 150.963 23.7641 150.845 24.3107C150.616 25.3357 150.581 27.1847 151.011 26.1982C150.472 28.5944 149.928 30.984 149.382 33.3758C148.678 32.9136 148.399 38.6513 148.891 38.2571C148.844 38.5313 148.797 38.802 148.748 39.0862C148.649 39.4717 148.561 39.8503 148.48 40.2267L148.255 39.0794C149.254 40.8768 150.35 42.5733 151.462 44.8519C152.771 47.5725 152.557 47.3766 152.659 48.3472C153 48.973 153.332 49.5978 153.659 50.2286C156.089 53.2355 154.492 53.1841 157.263 59.0329C157.25 60.2479 157.836 62.2417 157.845 64.59C157.827 66.3375 157.821 68.1197 157.773 69.6146C157.761 70.0022 157.88 70.0138 157.867 70.5339C157.85 71.8095 157.286 74.984 157.671 74.9298C157.408 76.0139 157.127 77.101 156.828 78.1905C156.745 79.0891 156.646 80.0094 156.54 80.9174C156.658 80.9358 156.776 80.9541 156.895 80.9725C156.149 82.7019 155.671 85.5442 155.243 86.8993C155.157 87.1721 154.987 87.1771 154.734 88.0292C154.443 89.0055 154.031 90.8582 153.694 92.0231C153.761 92.5204 153.827 93.0241 153.9 93.5147C153.511 95.623 152.902 96.2397 152.67 97.4493C152.652 97.5542 152.487 98.6083 152.465 99.616C152.426 100.634 152.608 101.535 152.639 101.619C152.78 102.116 152.949 102.343 153.14 102.577C153.578 103.154 154.101 103.752 156.047 106.763C156.564 107.588 156.866 108.347 157.303 109.121C158.167 110.442 160.302 114.756 160.639 115.061C160.999 117.015 162.161 122.008 162.17 123.517C162.19 123.97 161.979 124.103 162.056 125.48C162.121 126.507 162.419 129.032 162.424 130.538C162.425 130.658 162.425 130.771 162.424 130.875C162.406 132.35 162.209 132.878 162.2 133.537C162.191 134.152 162.356 134.739 162.358 135.582C162.361 138.23 162.089 140.638 162.057 142.733C162.01 145.768 162.417 148.461 162.523 151.017C162.466 151.65 162.335 152.261 162.3 152.93C161.917 157.933 161.955 163.149 159.803 168.777C158.355 171.783 157.065 174.986 155.307 177.891C154.499 179.241 152.957 181.33 151.093 182.845C148.52 184.974 146.27 186.77 147.884 186.313C147.119 187.443 138.531 192.731 136.439 192.999C134.596 193.644 133.082 194.154 131.524 194.336C131.175 194.376 130.837 194.405 130.5 194.426C126.717 194.669 123.737 194.858 118.861 195.349C117.496 195.486 116.053 195.802 115.237 195.843C114.264 195.892 113.193 195.723 111.933 195.759C108.916 195.867 103.275 195.999 100.369 195.867C99.8409 195.846 99.6529 195.646 98.9025 195.56C95.9609 195.232 92.6674 194.999 93.2027 195.663C91.4086 195.363 89.6729 195.186 87.9628 195.027C86.1078 194.854 84.2933 194.738 82.4859 194.529C75.255 193.774 61.4791 191.559 55.6179 187.358C53.5464 186.088 52.6827 185.5 51.4743 184.521C50.5926 183.787 49.5097 182.847 47.6267 180.941C46.6799 179.973 45.7549 178.973 44.6657 177.697C42.0799 174.689 40.5306 171.349 38.7027 168.872C36.9824 164.769 36.1018 161.374 36.0507 158.163C35.8604 157.821 35.6713 157.464 35.4864 157.112C35.4025 156.603 35.3234 156.083 35.249 155.553C35.3477 155.374 35.4478 155.202 35.548 155.027C35.2066 152.203 34.6968 148.79 34.4853 145.934C34.4186 145.059 34.374 144.237 34.3636 143.501C34.1286 138.265 35.092 124.694 36.5178 119.794C37.1584 117.196 36.9741 116.984 37.8917 115.645C38.0194 115.057 38.1577 114.471 38.3079 113.887C38.3118 113.53 38.322 113.168 38.3347 112.81C38.3372 112.77 38.3398 112.729 38.3426 112.689C39.6548 109.078 42.3689 106.043 43.7878 103.384C44.7205 101.704 45.5669 99.6719 45.7395 97.508C45.9304 95.835 44.6113 94.0614 43.2691 91.66C42.3191 89.8401 41.2403 88.009 40.5201 86.2462C39.9107 84.8089 39.4977 82.8598 39.1784 81.3704C38.7446 79.2066 38.2535 78.7015 38.1553 75.8816C38.0713 72.9354 38.7464 68.5507 39.7011 64.7292C40.3046 62.2305 41.0822 59.9726 41.655 58.3398C42.0924 57.1017 42.187 56.4751 42.5203 55.6287C43.9431 52.0841 45.4334 49.3388 47.1372 46.1155C49.5426 43.0144 49.8033 43.62 50.8772 42.9066C51.6982 42.3651 53.9636 40.6653 54.4751 40.3689C54.8397 40.2112 54.4959 41.369 54.9377 41.1329C52.4452 45.2281 51.2405 46.461 49.0646 49.4557C46.1661 54.4414 43.8683 59.7811 42.7114 65.3601C42.5157 66.3039 42.3417 67.2306 42.1901 68.149C41.9491 68.7445 41.7232 69.3004 41.501 69.9027C41.5007 69.9027 41.5004 69.9026 41.5001 69.9026C41.01 72.4384 41.3352 73.5613 41.3857 74.9217C41.4328 79.3869 42.9508 84.2945 46.4447 90.0344C47.3562 91.8578 49.5284 94.3536 49.1842 97.8656C48.417 104.748 43.1555 109.256 41.5054 113.92C39.8793 118.424 39.0916 122.926 38.6177 126.669C38.0926 129.809 37.9252 140.187 37.8089 142.389C37.7555 142.956 37.5421 143.119 37.5426 143.724C37.5714 144.43 37.6044 145.136 37.6416 145.843C37.8933 150.541 38.3871 155.2 39.4756 159.661C40.7952 168.649 46.8694 175.765 54.0623 181.605C55.5708 182.92 57.1679 184.077 58.8678 185.05C67.5332 189.85 78.2161 190.254 88.357 191.531C102.29 193.089 116.217 192.036 130.271 190.856C135.631 190.565 140.485 187.559 144.921 184.033C146.25 182.982 147.643 181.788 149.072 180.523C152.073 177.885 153.875 173.473 155.564 169.878C156.031 168.876 156.444 168.166 156.871 167.398C157.25 166.744 157.584 165.792 157.758 164.215C157.855 164.203 157.953 164.191 158.05 164.178C158.416 161.582 158.38 159.854 158.608 156.862C158.823 154.345 159.069 147.61 159.13 145.347C159.17 144.187 159.337 144.61 159.353 143.527C159.383 141.66 159.166 137.656 159.151 135.078C159.145 133.832 159.189 132.167 159.218 130.576C159.245 129.173 159.221 127.894 159.151 127.059C158.667 120.722 156.775 114.183 153.069 108.68C152.072 107.138 150.824 104.847 150.533 104.206C150.482 104.11 150.433 104.019 150.387 103.934C149.823 102.804 149.584 102.389 149.419 101.502C148.806 96.5406 151.18 90.7933 151.988 86.9735C153.802 79.705 155.062 72.1195 155.294 64.4995C155.189 60.0461 152.733 54.9401 150.58 50.4379C149.236 47.7087 147.371 44.2629 145.324 40.9001L144.967 40.3356L145.079 39.6465C146.039 34.0592 147.055 28.1778 147.842 23.8217C147.931 23.3362 147.986 22.8676 148.015 22.4222C148.059 21.0334 148.306 21.3854 148.159 20.201C147.938 18.8896 147.51 18.2764 147.274 17.7285C146.932 16.9693 146.405 16.05 145.661 15.2743C142.387 11.009 135.835 9.44912 132.183 9.24265C131.343 9.14627 130.747 8.92746 130.237 8.90387C130.179 8.90114 130.104 8.90421 130.012 8.91045C129.705 8.93268 129.235 8.99441 128.638 9.00949C124.458 9.04935 121.735 10.5461 119.296 13.2079C118.051 14.5472 117.306 16.9286 116.743 19.5418C116.115 22.3263 115.902 25.258 114.93 28.5549C114.05 30.8565 111.978 31.1494 110.726 31.4066C109.324 31.6275 108.038 31.6349 106.744 31.6103C104.171 31.5445 101.652 31.2868 99.1532 31.0293C94.1505 30.5006 89.1971 29.9059 84.3839 29.699C83.578 29.6627 82.7877 29.6362 81.9211 29.5615C81.1092 29.4636 79.9049 29.4315 78.7818 28.4685C78.7185 28.4128 78.6564 28.3561 78.5954 28.2985C75.8709 25.3462 76.1209 22.9101 75.8639 22.5205C75.5653 21.5693 75.1482 21.0108 74.6184 19.1159C73.8152 16.337 73.1492 12.9019 71.4138 10.828C68.9634 7.78518 65.5681 6.54951 62.3173 6.60807C60.504 6.57504 58.1716 6.83542 55.9074 7.01868C55.2203 7.1069 54.0757 7.61378 53.2174 8.06219C51.5894 8.7876 47.5289 11.5805 47.2524 12.3605C47.1621 12.5232 47.1015 12.6584 47.0698 12.7518C46.9125 13.2341 47.0674 13.5462 46.9063 14.1144ZM108.366 28.3132C108.17 28.5331 109.131 28.54 109.874 28.3785C110.622 28.2191 111.074 27.9293 110.415 27.9613C110.152 27.995 108.47 28.2164 108.366 28.3132ZM160.479 163.85C160.608 163.83 160.737 163.81 160.866 163.789C160.919 163.172 160.957 162.568 160.985 161.976C160.867 162.296 160.745 162.624 160.62 162.946C160.578 163.238 160.529 163.553 160.479 163.85Z" fill="#361700"/>
<path d="M64.3429 137.295C64.2526 137.322 64.1325 137.156 64.026 137.142C63.5731 137.08 63.3958 136.956 62.9437 136.827C62.806 136.786 62.5992 136.742 62.427 136.699C61.8021 136.53 61.0407 136.383 61.1169 135.495C61.1169 135.495 61.1169 135.495 61.1169 135.495C61.1182 135.484 61.1197 135.473 61.1213 135.462C61.1519 135.249 61.3043 135.032 61.3542 134.794C61.4042 134.555 61.584 132.998 61.7953 132.937C62.1018 132.857 62.734 133.379 62.8708 133.392C62.9371 133.397 63.0231 133.349 63.1085 133.315C63.1533 133.297 63.1963 133.282 63.235 133.281C63.5751 133.263 63.7104 133.38 64.0458 133.016C64.1544 133.227 64.276 133.437 64.4049 133.645C64.5663 133.565 64.8007 133.78 64.9287 133.811L64.8575 133.813C64.8717 133.815 64.8844 133.815 64.8953 133.813C64.9886 133.795 65.0331 133.63 65.1303 133.616C65.2394 133.6 65.4181 133.762 65.616 133.722C65.9406 133.658 65.9684 133.234 66.159 133.167C66.3586 133.097 66.6891 133.302 66.9361 133.135C66.9651 133.086 66.994 133.037 67.0229 132.989C66.9916 132.886 66.9605 132.783 66.9293 132.681C67.0555 132.622 67.1277 132.832 67.2469 132.826C67.3873 132.82 67.4412 132.612 67.5363 132.605C67.6137 132.6 67.7317 132.754 67.8307 132.735C67.975 132.709 67.9236 132.477 67.9978 132.427C68.0264 132.408 68.5936 132.228 68.624 132.223C68.8688 132.192 68.9212 132.511 69.1202 132.521C69.6729 132.546 70.2067 132.23 70.6934 132.077C70.9127 132.008 71.1431 132.001 71.3726 132.025C71.1186 132.886 71.9761 133.429 71.5282 132.183C71.795 132.336 71.9296 131.967 72.1671 131.995C72.32 132.014 72.4514 132.177 72.6644 132.142C73.0446 132.079 73.3724 131.513 73.6282 132.403C74.0447 132.172 74.4882 132.431 74.4978 131.604C74.6017 131.534 74.9735 131.955 75.1164 131.993C75.2477 132.033 76.2028 132.046 76.3514 132.017C76.4994 131.993 76.7626 131.938 76.8622 131.837C76.9987 131.708 76.8559 130.875 77.4053 131.737C77.6903 131.565 77.8065 131.556 78.1233 131.565C78.1814 131.566 78.2372 131.701 78.2672 131.69C78.3297 131.667 78.3921 131.529 78.4945 131.474C78.6618 131.384 78.8768 131.626 78.6746 131.202C78.7547 131.082 78.8315 130.961 78.8991 130.842C78.974 130.907 79.0507 130.971 79.1275 131.034C79.1404 130.918 79.1499 130.803 79.1557 130.688C79.407 131.326 79.6008 130.763 79.2852 130.491C79.5316 130.514 79.7797 130.524 80.0227 130.52C80.2591 130.875 80.3773 130.768 80.3586 130.559C80.3681 130.371 80.3004 130.113 80.1621 129.984C80.186 129.964 80.2099 129.945 80.2337 129.926C80.5704 129.914 80.6511 129.629 80.9867 129.528C81.3224 129.427 81.3467 129.505 81.6505 129.714C81.6956 129.649 81.7405 129.585 81.7851 129.521C81.4565 128.522 82.4999 129.851 82.5232 128.842C83.0886 129.162 83.2781 128.564 83.4044 128.192C83.4192 128.149 83.3391 128.061 83.3532 127.998C83.389 127.845 83.7337 127.726 83.4582 127.459C83.6158 127.46 83.7752 127.459 83.9336 127.457C83.9493 127.343 83.9652 127.227 83.9784 127.114C83.8922 127.031 83.8059 126.948 83.7197 126.865C84.1388 127.019 84.2209 126.701 84.3844 126.663C84.4175 126.655 84.5445 126.761 84.6361 126.725C84.7448 126.683 84.8293 126.508 84.945 126.447C84.833 126.296 84.7186 126.146 84.6028 125.998C84.6487 125.78 85.0738 126.015 85.1771 125.937C85.1978 125.924 85.3892 125.581 85.3886 125.558C85.4051 125.372 85.0458 125.197 85.3161 124.865C85.3632 124.805 85.5173 124.81 85.5496 124.75C85.6155 124.634 85.4089 124.22 85.1169 124.141C85.4363 124.136 85.4292 123.912 85.4632 123.809C85.4727 123.764 85.4856 123.726 85.5064 123.7C85.5416 123.656 85.7797 123.659 85.8357 123.523C85.8818 123.412 85.6989 123.126 85.731 122.991C85.7666 122.847 85.9655 122.793 85.979 122.728C85.9914 122.665 85.8294 122.611 85.8282 122.528C85.8273 122.27 86.0725 122.02 86.0602 121.811C86.0427 121.508 85.5363 121.305 85.2918 121.112C85.3135 121.051 85.4052 120.978 85.3957 120.917C85.2839 120.173 85.125 119.351 84.892 118.633C84.8617 118.538 84.8549 118.384 84.8347 118.226C84.7504 117.768 84.6299 117.301 84.039 117.836C83.8017 117.792 83.7052 116.678 83.6194 116.511C83.5331 116.339 83.2913 116.302 83.2168 116.175C82.9926 115.796 82.9569 115.455 82.5378 115.115C82.4289 115.027 82.1614 115.041 82.1215 114.978C82.0738 114.901 82.2002 114.694 82.1423 114.59C82.0049 114.339 81.6285 113.983 81.4836 113.766C81.4577 113.726 81.5917 113.583 81.59 113.49C81.5829 113.127 81.3405 112.919 80.9444 113.402C80.9511 112.913 80.4924 112.938 80.2414 112.763C79.7238 112.376 78.7265 111.605 78.0537 111.582C77.6911 111.566 77.5701 111.763 77.2657 111.519C77.2241 111.485 77.178 111.441 77.1248 111.385C77.0338 111.289 76.9448 111.176 76.8273 111.063C76.5487 110.796 76.3816 110.194 75.9206 110.699C75.5738 110.418 75.2237 110.436 75.06 109.839C74.9897 109.952 74.9198 110.065 74.8502 110.178C74.7984 110.167 74.748 110.157 74.697 110.147C74.7126 110.025 74.7281 109.903 74.7433 109.782C74.3835 109.652 73.7965 110.024 73.4891 109.95C72.9721 109.82 71.6401 109.359 71.1531 109.113C70.8957 108.979 70.8384 109.234 70.77 108.68C70.7026 108.707 70.6353 108.733 70.5681 108.76C70.511 108.87 70.454 108.979 70.3972 109.089C70.0473 109.037 69.6577 108.794 69.3224 108.748C68.7087 108.663 67.7518 108.867 67.1594 108.59C67.0107 108.52 66.8407 108.258 66.6898 108.246C66.4686 108.227 66.3715 108.62 66.0948 108.601C65.612 108.566 64.7527 108.029 64.29 108.035C64.1575 108.037 64.0799 108.182 63.9862 108.192C63.597 108.237 63.2677 108.209 62.8962 108.426C62.5158 108.029 62.5585 107.536 62.4434 107.032C62.3645 106.652 62.0587 105.774 62.0178 105.444C61.9869 105.211 62.1024 104.912 62.0597 104.656C62.6034 104.455 62.8191 104.689 63.2249 105.064C63.9995 105.082 64.7643 105.118 65.5262 105.166C65.5837 105.311 65.6413 105.456 65.6989 105.601C65.6988 105.602 65.6988 105.602 65.6988 105.602C65.9768 105.788 66.1278 105.441 66.2953 105.374C67.8789 104.725 70.786 105.726 72.4039 106.135C72.7533 106.216 73.9493 106.272 74.1434 106.552C74.1934 106.624 74.163 106.838 74.2273 106.862C74.8507 106.874 75.4749 106.899 76.1114 106.947C76.9339 107.433 77.8635 107.655 78.7994 107.97C79.1524 108.089 79.4981 108.215 79.8332 108.368C83.2459 109.717 85.8957 113.159 87.205 116.051C87.3174 116.273 87.4638 116.501 87.6133 116.731C87.8877 117.166 88.1354 117.638 88.2333 118.076C88.3005 118.381 88.0136 118.603 88.3745 118.901C88.2865 118.931 88.1984 118.962 88.1103 118.993C88.3128 119.281 88.5745 119.442 88.6786 119.813C88.7721 120.124 88.9162 120.965 88.9032 121.248C88.9002 121.394 88.7217 121.358 88.7348 121.49C88.7595 121.716 89.0292 122.192 89.0343 122.509C89.0421 122.797 88.836 123.27 88.8572 123.48C88.8745 123.649 88.8989 123.819 88.9251 123.99C89.0123 124.835 88.8993 125.754 88.4939 126.429C88.3516 126.671 87.9858 126.85 87.9498 126.921C87.8806 127.06 88.0409 127.216 88.0062 127.322C87.8297 127.867 87.1231 128.339 86.7993 128.684C85.7379 129.831 84.6329 130.907 83.5284 131.788C83.1693 132.073 82.7033 132.465 82.242 132.827C81.6504 133.299 81.0434 133.599 80.5937 133.737C80.394 133.797 80.3366 133.557 80.1859 133.629C80.0217 133.705 79.9949 133.894 79.9194 133.941C79.411 134.276 78.2358 134.834 77.678 134.804C77.5725 134.8 77.4541 134.637 77.3965 134.653C77.3672 134.66 77.3333 134.802 77.2429 134.839C76.4507 135.158 75.838 135.208 75.037 135.31C73.5058 135.505 71.7868 135.961 70.1917 135.991C69.8454 135.997 69.5727 135.649 69.5262 135.657C69.4216 135.675 69.3776 135.93 69.1678 136.012C68.4723 136.28 67.4906 136.091 66.8241 136.265C66.4939 136.352 66.0586 136.702 65.7324 136.794C65.577 136.839 65.2866 136.827 65.0559 136.842L64.9105 136.846C64.7497 136.845 64.6117 136.856 64.5615 136.911C64.4816 136.994 64.4395 137.264 64.3429 137.295ZM72.9212 132.316C72.9397 132.752 73.3575 132.325 73.1465 132.122C73.0997 132.076 72.917 132.203 72.9212 132.316ZM85.8997 119.734C85.7821 119.772 85.6644 119.811 85.5466 119.849C85.6115 119.888 85.6763 119.928 85.7408 119.97C85.8043 119.92 85.8674 119.869 85.9301 119.817C85.9202 119.789 85.91 119.762 85.8997 119.734Z" fill="#361700"/>
<path d="M131.941 130.735C131.983 130.701 132.063 130.855 132.115 130.857C132.331 130.866 132.419 130.965 132.628 130.985C132.915 131.035 133.897 130.485 134.278 131.54C134.278 131.54 134.278 131.54 134.278 131.54C134.282 131.551 134.285 131.561 134.289 131.572C134.355 131.776 134.335 132.031 134.399 132.265C134.464 132.5 134.981 133.98 134.863 134.112C134.688 134.296 134.037 134.077 133.921 134.125C133.842 134.161 133.776 134.326 133.67 134.379C133.327 134.548 133.116 134.484 132.825 134.92C132.654 134.739 132.494 134.553 132.344 134.363C132.182 134.476 131.914 134.226 131.82 134.246C131.807 134.249 131.796 134.255 131.785 134.264C131.729 134.312 131.691 134.429 131.623 134.439C131.53 134.453 131.381 134.286 131.217 134.318C130.948 134.37 130.911 134.791 130.748 134.848C130.578 134.907 130.312 134.682 130.097 134.831C130.07 134.877 130.043 134.924 130.016 134.97C130.036 135.075 130.055 135.179 130.075 135.284C129.965 135.333 129.918 135.118 129.817 135.114C129.699 135.109 129.637 135.312 129.556 135.31C129.49 135.308 129.403 135.144 129.318 135.153C129.193 135.165 129.216 135.4 129.147 135.443C129.122 135.461 128.614 135.575 128.582 135.575C128.479 135.575 128.422 135.504 128.375 135.425L128.056 135.385C128.023 135.289 128 135.184 127.921 135.153C127.508 134.992 127.009 135.16 126.579 135.174C126.388 135.181 126.199 135.123 126.026 135.035C126.481 134.287 125.975 133.526 125.949 134.839C125.784 134.617 125.563 134.926 125.382 134.826C125.264 134.761 125.213 134.567 125.033 134.531C124.713 134.469 124.238 134.878 124.363 133.962C123.949 134.028 123.711 133.62 123.363 134.366C123.251 134.388 123.128 133.852 123.038 133.758C122.951 133.672 122.228 133.224 122.105 133.168C121.981 133.114 121.762 133.026 121.631 133.055C121.469 133.092 121.079 133.847 121.179 132.834C120.872 132.803 120.78 132.736 120.567 132.525C120.528 132.486 120.579 132.349 120.552 132.338C120.497 132.314 120.36 132.373 120.255 132.341C120.082 132.289 120.117 131.966 119.94 132.402C119.798 132.423 119.656 132.443 119.511 132.461C119.512 132.361 119.514 132.26 119.516 132.16C119.415 132.22 119.312 132.279 119.209 132.337C119.585 131.768 119 131.914 118.947 132.327C118.8 132.089 118.659 131.849 118.528 131.606C118.954 130.964 118.139 131.259 117.941 131.628C117.918 131.612 117.895 131.596 117.872 131.58C117.78 131.272 117.499 131.279 117.339 130.983C117.186 130.688 117.257 130.644 117.415 130.315C117.349 130.287 117.284 130.258 117.219 130.228C116.289 130.7 117.485 129.528 116.531 129.609C116.819 129.093 116.391 128.944 116.051 128.78C116.024 128.769 115.997 128.758 115.971 128.748C115.934 128.732 115.836 128.8 115.78 128.783C115.641 128.74 115.604 128.414 115.292 128.636C115.327 128.49 115.363 128.344 115.4 128.199C115.297 128.169 115.194 128.138 115.09 128.106C114.99 128.171 114.89 128.236 114.789 128.302C115.041 127.94 114.771 127.803 114.786 127.641C114.79 127.609 114.927 127.518 114.925 127.427C114.923 127.32 114.793 127.197 114.782 127.076C114.602 127.132 114.423 127.186 114.243 127.24C114.056 127.114 114.442 126.815 114.418 126.696C114.413 126.675 114.2 126.357 114.182 126.343C114.032 126.232 113.687 126.467 113.541 125.983C113.515 125.897 113.611 125.77 113.581 125.696C113.529 125.567 113.057 125.319 112.771 125.408C113.037 125.095 112.713 124.731 112.761 124.561C112.776 124.51 112.992 124.411 112.992 124.276C112.993 124.168 112.719 123.99 112.704 123.856C112.688 123.714 112.859 123.599 112.852 123.537C112.845 123.478 112.675 123.481 112.65 123.405C112.573 123.164 112.751 122.871 112.7 122.683C112.627 122.411 112.1 122.291 111.835 122.093C111.85 122.025 111.936 121.941 111.922 121.876C111.758 121.084 111.711 120.116 111.876 119.203C111.921 118.758 112.841 117.863 111.731 117.836C111.708 117.795 111.716 117.723 111.748 117.633C111.842 117.366 112.329 116.894 112.384 116.769C112.449 116.619 112.318 116.422 112.363 116.3C112.504 115.925 112.738 115.725 112.78 115.212C112.79 115.08 112.638 114.86 112.671 114.793C112.712 114.712 112.955 114.717 113.017 114.617C113.163 114.379 113.33 113.878 113.491 113.657C113.52 113.616 113.701 113.692 113.787 113.659C114.124 113.53 114.253 113.259 113.684 113.001C114.165 112.865 114.052 112.423 114.213 112.127C114.545 111.499 115.425 110.533 115.657 109.88C115.801 109.466 115.589 109.275 116.195 108.996C116.33 108.936 116.478 108.891 116.643 108.822C117.036 108.658 117.624 108.833 117.468 108.163C117.91 108.017 118.144 107.715 118.702 107.988C118.664 107.86 118.628 107.732 118.594 107.604C118.638 107.572 118.683 107.541 118.728 107.51C118.806 107.605 118.883 107.7 118.959 107.796C119.291 107.633 119.503 106.966 119.825 106.828C119.826 106.827 119.827 106.827 119.827 106.827C120.284 106.623 121.526 106.357 122.005 106.375C122.259 106.381 122.191 106.13 122.487 106.596C122.525 106.544 122.564 106.493 122.603 106.441C122.599 106.319 122.596 106.197 122.592 106.076C122.885 105.978 123.284 106.049 123.563 105.968C124.067 105.819 124.761 105.308 125.327 105.397C125.467 105.42 125.684 105.619 125.807 105.589C125.99 105.546 125.951 105.144 126.187 105.088C126.595 104.99 127.434 105.31 127.814 105.215C127.927 105.187 127.956 105.032 128.035 105.004C128.362 104.885 128.638 104.86 128.95 104.593C129.358 104.935 129.369 105.435 129.522 105.924C129.635 106.293 129.93 107.152 129.952 107.484C129.976 107.715 129.928 108.017 129.962 108.271C129.69 108.49 129.512 108.285 129.177 107.961C128.631 108.042 128.067 108.146 127.514 108.263C127.438 108.135 127.361 108.007 127.283 107.88C127.283 107.879 127.283 107.879 127.283 107.879C127.037 107.762 127.011 108.134 126.913 108.237C125.964 109.211 123.71 109.177 122.522 109.535C122.262 109.604 121.548 110.093 121.297 109.959C121.242 109.929 121.163 109.787 121.11 109.751C121.101 109.744 121.093 109.74 121.086 109.742C120.769 110.023 120.486 110.329 120.233 110.654C119.362 110.835 118.873 111.673 118.365 112.362C116.967 114.256 116.081 116.559 115.223 118.849C115.22 118.855 115.218 118.862 115.215 118.868C115.127 119.084 115.243 119.503 115.158 119.862C115.122 120.013 114.782 120.114 115.062 120.302C114.97 120.315 114.878 120.329 114.785 120.342C114.921 120.526 115.149 120.614 115.211 120.824C115.259 121.001 115.391 121.487 115.406 121.661C115.413 121.752 115.236 121.768 115.261 121.849C115.304 121.988 115.627 122.21 115.693 122.397C115.751 122.567 115.672 122.928 115.753 123.051C116.038 123.493 116.536 123.876 116.709 124.399C116.756 124.544 116.646 124.822 116.674 124.862C116.729 124.939 116.936 124.86 116.99 124.902C117.263 125.112 117.281 125.668 117.437 125.942C117.68 126.374 117.971 126.793 118.276 127.196C118.528 127.524 118.834 127.826 119.156 128.126C119.541 128.504 120.376 128.98 120.812 129.373C120.905 129.459 120.77 129.66 120.864 129.706C120.969 129.757 121.095 129.636 121.149 129.647C121.526 129.726 122.354 129.878 122.644 130.15C122.698 130.202 122.685 130.397 122.725 130.41C122.745 130.417 122.832 130.31 122.899 130.319C123.491 130.393 123.881 130.585 124.437 130.779C125.506 131.152 126.852 131.186 128.042 131.55C128.303 131.63 128.411 132.031 128.451 132.036C128.53 132.044 128.625 131.841 128.781 131.791L128.558 131.763C128.568 131.758 128.578 131.753 128.589 131.749C129.115 131.572 129.839 131.847 130.35 131.715C130.602 131.651 130.938 131.325 131.172 131.245C131.273 131.211 131.449 131.224 131.597 131.221C131.728 131.217 131.833 131.201 131.862 131.133C131.9 131.045 131.896 130.774 131.941 130.735ZM124.888 134.284C125.022 133.87 124.55 134.13 124.643 134.39C124.664 134.449 124.853 134.391 124.888 134.284ZM112.481 120.689C112.358 120.708 112.236 120.728 112.114 120.748C112.173 120.8 112.232 120.852 112.291 120.901C112.36 120.858 112.429 120.817 112.498 120.774C112.492 120.746 112.486 120.717 112.481 120.689Z" fill="#361700"/>
<path d="M92.5857 187.169C92.616 187.233 92.4541 187.324 92.4458 187.4C92.4092 187.717 92.2971 187.834 92.2337 188.12C92.1399 188.545 92.353 189.8 91.2266 189.8C91.2265 189.8 91.2265 189.8 91.2265 189.8C91.2154 189.8 91.2043 189.799 91.193 189.799C90.9784 189.795 90.7441 189.688 90.5014 189.672C90.2587 189.656 88.6914 189.668 88.6032 189.517C88.4871 189.297 88.8889 188.771 88.8709 188.654C88.8586 188.574 88.7161 188.476 88.6907 188.374C88.6088 188.045 88.7127 187.872 88.3249 187.577C88.5285 187.458 88.7321 187.338 88.9357 187.219C88.8406 187.065 89.1085 186.829 89.0932 186.735C89.0806 186.659 88.9191 186.614 88.9112 186.534C88.9013 186.444 89.0745 186.305 89.0471 186.141C89.0028 185.873 88.5816 185.829 88.5266 185.669C88.4697 185.503 88.6954 185.243 88.5443 185.032C88.4977 185.006 88.451 184.981 88.4043 184.955C88.2999 184.975 88.1956 184.996 88.0912 185.016C88.0409 184.911 88.2547 184.861 88.257 184.764C88.2598 184.649 88.0555 184.594 88.055 184.517C88.0548 184.453 88.2162 184.366 88.2043 184.284C88.1878 184.164 87.9529 184.196 87.9074 184.133C87.8901 184.107 87.7484 183.641 87.7455 183.615C87.7304 183.415 88.0519 183.387 88.0747 183.227C88.092 183.102 88.0826 182.978 88.0574 182.856C87.9922 182.537 87.8215 182.237 87.7315 181.967C87.6757 181.799 87.6801 181.625 87.7153 181.456C88.5629 181.645 89.1408 180.979 87.8803 181.338C88.0432 181.134 87.6813 181.048 87.7163 180.874C87.7388 180.76 87.9044 180.657 87.8732 180.501C87.8161 180.22 87.2552 180.037 88.1332 179.752C87.9002 179.456 88.1413 179.073 87.3255 179.169C87.2554 179.1 87.6555 178.743 87.6884 178.626C87.7091 178.552 87.7112 178.193 87.6954 177.913L87.7154 177.97C87.6991 177.816 87.6821 177.688 87.6702 177.645C87.6358 177.519 87.5674 177.3 87.4619 177.222C87.3305 177.124 86.5101 177.334 87.3423 176.754C87.1664 176.517 87.156 176.411 87.1675 176.123C87.1695 176.071 87.3039 176.013 87.2939 175.987C87.2733 175.934 87.1367 175.88 87.0871 175.789C87.0056 175.639 87.2569 175.437 86.8263 175.626C86.7125 175.551 86.5981 175.475 86.4842 175.401C86.5543 175.331 86.6243 175.262 86.6942 175.192C86.5806 175.173 86.4668 175.154 86.353 175.135C87.0105 174.949 86.4826 174.708 86.1709 174.979C86.2224 174.729 86.2713 174.474 86.321 174.223C87.0479 173.96 86.2237 173.75 85.852 173.951C85.8433 173.928 85.8347 173.906 85.8257 173.883C85.9326 173.604 85.7028 173.489 85.7273 173.194C85.7521 172.9 85.8307 172.893 86.1256 172.679C86.0824 172.63 86.0392 172.581 85.996 172.533C84.9749 172.627 86.5425 172 85.633 171.795C86.1193 171.383 85.6435 171.114 85.3521 170.933C85.3183 170.911 85.2106 170.962 85.1585 170.937C85.0333 170.878 85.0497 170.56 84.7091 170.736C84.7674 170.602 84.8256 170.469 84.8822 170.333C84.785 170.293 84.6879 170.255 84.591 170.217C84.4842 170.271 84.3774 170.325 84.2707 170.379C84.5655 170.056 84.314 169.909 84.3446 169.757C84.351 169.727 84.4949 169.646 84.4998 169.558C84.5062 169.455 84.387 169.335 84.3821 169.218C84.2019 169.269 84.0221 169.321 83.8427 169.374C83.6694 169.264 84.0581 168.971 84.0375 168.858C84.0345 168.838 83.8263 168.545 83.8077 168.535C83.6583 168.444 83.3284 168.687 83.1737 168.269C83.1458 168.194 83.2323 168.065 83.1992 168.002C83.1394 167.888 82.6646 167.759 82.4041 167.908C82.6314 167.577 82.2777 167.35 82.296 167.199C82.3016 167.152 82.4866 167.002 82.4597 166.886C82.438 166.791 82.1524 166.741 82.1086 166.642C82.0634 166.536 82.1844 166.372 82.161 166.325C82.1411 166.285 82.0238 166.339 81.9674 166.321C81.9586 166.318 81.9509 166.313 81.9447 166.306C81.7887 166.129 81.8341 165.797 81.7114 165.658C81.5337 165.456 81.0235 165.609 80.7175 165.593C80.7021 165.531 80.7395 165.421 80.7005 165.379C80.221 164.848 79.7303 164.214 79.2999 163.65C79.1041 163.389 78.9522 162.362 78.3755 163.302C78.1692 163.365 77.866 162.51 77.7511 162.409C77.6392 162.305 77.4245 162.379 77.3322 162.307C77.0548 162.092 76.9434 161.826 76.5042 161.716C76.3902 161.688 76.1657 161.811 76.1162 161.773C76.0569 161.728 76.1154 161.499 76.0409 161.432C75.8638 161.274 75.4595 161.111 75.2883 160.973C75.2573 160.947 75.3404 160.77 75.3186 160.688C75.2337 160.369 74.9886 160.27 74.7534 160.849C74.7249 160.709 74.6654 160.632 74.5917 160.589C74.41 160.487 74.1641 160.545 73.9771 160.477C73.4012 160.261 72.4034 159.706 71.8046 159.769C71.4284 159.809 71.3473 160.075 70.9551 159.685C70.8678 159.599 70.7869 159.496 70.678 159.392C70.4261 159.151 70.2977 158.57 69.8824 159.093C69.5937 158.836 69.2893 158.866 69.1817 158.284C69.1169 158.398 69.0521 158.512 68.9877 158.626C68.9448 158.618 68.9019 158.609 68.8591 158.6C68.8784 158.48 68.8976 158.359 68.9167 158.238C68.6223 158.123 68.1083 158.504 67.8576 158.438C67.4309 158.321 66.3627 157.88 65.9779 157.638C65.7743 157.508 65.7136 157.761 65.6904 157.211C65.633 157.238 65.5758 157.265 65.5189 157.292C65.4656 157.401 65.4126 157.51 65.3598 157.62C65.0792 157.571 64.7712 157.331 64.5014 157.287C64.0047 157.205 63.2161 157.413 62.7478 157.139C62.6305 157.07 62.5058 156.811 62.3802 156.798C62.1986 156.78 62.1154 157.174 61.885 157.156C61.5003 157.124 60.8166 156.593 60.4421 156.603C60.3318 156.605 60.2678 156.751 60.1923 156.762C59.876 156.81 59.6121 156.784 59.3109 157.003C59.0092 156.608 59.0438 156.114 58.9526 155.612C58.891 155.232 58.6396 154.354 58.6058 154.024C58.5803 153.791 58.6759 153.492 58.6406 153.236C59.0943 153.035 59.274 153.267 59.6089 153.64C60.2502 153.653 60.8919 153.686 61.5221 153.731C61.5654 153.875 61.6087 154.019 61.6518 154.164C61.6518 154.164 61.6518 154.165 61.6517 154.165C61.8774 154.349 62.0142 154.002 62.1529 153.935C63.4959 153.28 65.8753 154.281 67.1883 154.671C67.4767 154.75 68.4594 154.787 68.6046 155.059C68.6417 155.13 68.6043 155.342 68.6556 155.365C69.168 155.362 69.6869 155.369 70.2054 155.384C71.1041 155.99 72.1965 156.055 73.2003 156.372C74.1708 156.677 75.1319 157.017 76.0753 157.406C77.9129 158.172 79.4711 159.328 80.7834 160.581C81.1798 160.959 81.7866 161.325 82.0831 161.772C82.2077 161.96 82.0235 162.265 82.4074 162.29C82.3426 162.358 82.2778 162.425 82.213 162.492C82.4668 162.592 82.7299 162.56 82.9374 162.746C83.1129 162.904 83.545 163.343 83.6583 163.518C83.7178 163.608 83.5634 163.697 83.6316 163.769C83.7456 163.888 84.1475 163.986 84.3152 164.149C84.3208 164.154 84.3261 164.16 84.3313 164.165C84.5017 164.348 84.6139 164.791 84.7469 164.913C85.2375 165.358 85.8872 165.775 86.1797 166.395C86.2614 166.568 86.1887 166.885 86.2239 166.933C86.2927 167.023 86.4979 166.939 86.5607 166.991C86.8807 167.254 86.9401 167.904 87.0995 168.233C87.6277 169.313 88.2366 170.41 88.6608 171.497C88.9314 172.184 89.4264 173.293 89.5192 173.98C89.5391 174.127 89.3015 174.179 89.3459 174.292C89.3952 174.417 89.5729 174.426 89.6082 174.48C89.8527 174.85 90.35 175.689 90.3389 176.13C90.3367 176.214 90.1806 176.334 90.1978 176.377C90.2061 176.399 90.3454 176.404 90.3836 176.468C90.4698 176.613 90.5404 176.753 90.6009 176.89L90.6234 176.954C90.7888 177.381 90.8617 177.784 90.9648 178.287C91.2458 179.559 91.6927 181.162 91.6059 182.487C91.6016 182.571 91.5684 182.646 91.5236 182.715C91.4116 182.883 91.2267 182.998 91.2304 183.026C91.241 183.114 91.4933 183.161 91.5607 183.337C91.7826 183.924 91.5295 184.721 91.6615 185.276C91.7267 185.55 92.0482 185.925 92.1204 186.195C92.1783 186.411 92.0562 186.921 92.1961 187.016C92.2806 187.073 92.5516 187.099 92.5857 187.169ZM88.0491 180.297C88.482 180.251 88.0592 179.967 87.8575 180.144C87.8122 180.184 87.9371 180.308 88.0491 180.297ZM80.5879 164.163C80.5015 164.251 80.4152 164.34 80.3288 164.429C80.4016 164.43 80.4747 164.431 80.5475 164.433C80.5811 164.36 80.6142 164.288 80.6474 164.215C80.6276 164.198 80.6077 164.18 80.5879 164.163Z" fill="#361700"/>
<path d="M136.168 152.509C136.225 152.467 136.347 152.607 136.422 152.601C136.741 152.575 136.877 152.663 137.169 152.671C137.601 152.683 138.778 152.246 138.984 153.354C138.984 153.354 138.984 153.354 138.984 153.354C138.986 153.365 138.988 153.376 138.99 153.387C139.024 153.599 138.963 153.848 138.993 154.09C139.022 154.331 139.322 155.87 139.192 155.984C139.003 156.137 138.424 155.837 138.315 155.876C138.24 155.903 138.173 156.061 138.08 156.104C137.781 156.245 137.595 156.175 137.39 156.61C137.238 156.433 137.086 156.255 136.933 156.078C136.806 156.2 136.529 155.983 136.443 156.017C136.372 156.044 136.363 156.211 136.289 156.235C136.207 156.261 136.045 156.126 135.897 156.176C135.901 156.176 135.897 156.177 135.894 156.179C135.649 156.278 135.699 156.698 135.561 156.785C135.419 156.875 135.125 156.711 134.965 156.903C134.952 156.954 134.939 157.005 134.926 157.056C134.969 157.153 135.012 157.25 135.055 157.348C134.97 157.419 134.876 157.222 134.786 157.241C134.681 157.264 134.68 157.474 134.611 157.492C134.554 157.506 134.435 157.37 134.364 157.4C134.261 157.443 134.348 157.663 134.303 157.722C134.284 157.744 133.908 157.99 133.886 158C133.714 158.063 133.602 157.761 133.451 157.78C133.033 157.834 132.717 158.223 132.395 158.451C132.25 158.553 132.078 158.6 131.898 158.617C131.849 157.748 131.036 157.383 131.734 158.493C131.486 158.395 131.49 158.771 131.298 158.788C131.249 158.792 131.196 158.774 131.139 158.755L131.249 158.704C131.159 158.683 131.063 158.659 130.966 158.71C130.682 158.863 130.606 159.469 130.108 158.69C129.841 159.004 129.412 158.846 129.649 159.635C129.584 159.723 129.147 159.401 129.022 159.39C128.905 159.379 128.106 159.536 127.984 159.584C127.862 159.632 127.656 159.721 127.593 159.833C127.517 159.97 127.805 160.768 127.146 159.998C126.934 160.195 126.831 160.216 126.545 160.233C126.494 160.236 126.423 160.108 126.398 160.121C126.348 160.147 126.313 160.286 126.229 160.343C126.087 160.44 125.862 160.21 126.093 160.619C126.031 160.74 125.97 160.859 125.91 160.978C125.836 160.915 125.758 160.853 125.682 160.79C125.674 160.905 125.667 161.02 125.66 161.135C125.409 160.5 125.229 161.044 125.526 161.33C125.277 161.3 125.016 161.278 124.768 161.249C124.438 160.549 124.309 161.388 124.544 161.739C124.523 161.75 124.501 161.76 124.48 161.771C124.197 161.688 124.103 161.928 123.811 161.928C123.516 161.929 123.504 161.851 123.267 161.575C123.224 161.621 123.18 161.668 123.135 161.716C123.32 162.724 122.559 161.217 122.445 162.134C121.991 161.686 121.772 162.177 121.623 162.479C121.604 162.514 121.663 162.617 121.644 162.671C121.596 162.8 121.285 162.807 121.489 163.132C121.351 163.084 121.219 163.034 121.079 162.99C121.049 163.089 121.021 163.188 120.994 163.286C121.057 163.388 121.12 163.489 121.183 163.591C120.839 163.324 120.723 163.582 120.572 163.564C120.543 163.56 120.449 163.424 120.364 163.425C120.263 163.427 120.16 163.554 120.048 163.567C120.118 163.741 120.189 163.913 120.262 164.085C120.182 164.261 119.85 163.906 119.746 163.934C119.725 163.94 119.48 164.166 119.473 164.186C119.411 164.339 119.689 164.635 119.339 164.817C119.276 164.85 119.141 164.78 119.091 164.818C119.034 164.86 119.006 165.055 119.049 165.245C119.064 165.373 119.102 165.499 119.175 165.587C118.798 165.437 118.616 165.841 118.453 165.855C118.403 165.859 118.226 165.7 118.111 165.747C118.016 165.786 117.99 166.09 117.887 166.153C117.775 166.221 117.6 166.116 117.551 166.148C117.506 166.178 117.591 166.323 117.541 166.375C117.386 166.535 117.057 166.511 116.935 166.641C116.757 166.828 116.967 167.313 116.991 167.61C116.933 167.629 116.822 167.601 116.786 167.642C116.335 168.148 115.795 168.685 115.32 169.168C115.099 169.385 114.129 169.675 115.146 170.098C115.244 170.285 114.478 170.693 114.403 170.82C114.326 170.942 114.441 171.134 114.392 171.232C114.244 171.526 114.011 171.677 114.007 172.104C114.007 172.213 114.179 172.399 114.156 172.45C114.127 172.511 113.893 172.499 113.848 172.58C113.74 172.771 113.692 173.164 113.61 173.341C113.594 173.373 113.402 173.338 113.33 173.375C113.326 173.377 113.321 173.379 113.317 173.381C113.042 173.56 113.011 173.832 113.62 173.919C113.207 174.145 113.461 174.503 113.423 174.787C113.338 175.396 112.999 176.487 113.174 177.066C113.284 177.429 113.56 177.463 113.248 177.924C113.179 178.026 113.091 178.127 113.009 178.252C112.816 178.546 112.265 178.771 112.849 179.095C112.643 179.427 112.721 179.722 112.161 179.921C112.284 179.967 112.407 180.014 112.529 180.06C112.527 180.104 112.525 180.148 112.523 180.192C112.401 180.191 112.278 180.19 112.156 180.189C112.086 180.499 112.537 180.952 112.505 181.215C112.45 181.656 112.142 182.781 111.942 183.189C111.834 183.407 112.093 183.441 111.548 183.523C111.581 183.576 111.614 183.63 111.646 183.683C111.76 183.724 111.874 183.766 111.988 183.808C111.968 184.098 111.758 184.422 111.739 184.699C111.702 185.202 111.97 185.971 111.726 186.464C111.665 186.583 111.414 186.73 111.409 186.854C111.402 187.034 111.799 187.098 111.794 187.33C111.783 187.718 111.28 188.429 111.301 188.805C111.306 188.915 111.454 188.967 111.466 189.048C111.522 189.372 111.501 189.626 111.723 189.939C111.331 190.244 110.836 190.218 110.333 190.305C109.954 190.367 109.075 190.611 108.745 190.637C108.512 190.659 108.214 190.567 107.958 190.599C107.758 190.167 107.988 190.008 108.357 189.677C108.361 189.064 108.373 188.455 108.39 187.845C108.532 187.797 108.675 187.75 108.817 187.702C108.817 187.702 108.818 187.702 108.818 187.702C108.991 187.474 108.638 187.359 108.563 187.229C107.846 185.978 108.636 183.638 108.856 182.333C108.901 182.051 108.809 181.104 109.057 180.932C109.121 180.888 109.336 180.898 109.352 180.845C109.277 180.352 109.206 179.857 109.138 179.36C109.593 178.414 109.46 177.359 109.571 176.352C109.708 175.107 109.869 173.862 110.111 172.618C110.459 170.918 111.199 169.454 112.067 168.169C112.376 167.712 112.651 167.05 113.058 166.69C113.228 166.54 113.555 166.681 113.532 166.296C113.607 166.351 113.682 166.407 113.756 166.463C113.824 166.198 113.761 165.939 113.925 165.708C114.062 165.514 114.459 165.031 114.625 164.9C114.709 164.831 114.813 164.977 114.878 164.902C114.99 164.772 115.057 164.339 115.218 164.166C115.364 164.007 115.756 163.884 115.848 163.746C116.064 163.422 116.24 163.027 116.477 162.684C116.633 162.472 116.813 162.281 117.024 162.135C117.191 162.02 117.529 162.038 117.573 161.996C117.657 161.913 117.549 161.719 117.596 161.648C117.836 161.282 118.487 161.151 118.801 160.961C119.832 160.334 120.846 159.66 121.868 159.153C122.508 158.835 123.54 158.251 124.196 158.099C124.339 158.065 124.418 158.295 124.522 158.242C124.636 158.183 124.625 158.006 124.674 157.966C125.015 157.688 125.766 157.122 126.203 157.088C126.284 157.082 126.418 157.225 126.458 157.204C126.478 157.194 126.467 157.056 126.526 157.012C127.047 156.619 127.492 156.479 128.075 156.237C128.582 156.026 129.094 155.737 129.625 155.439L129.711 155.4C130.369 155.08 131.057 154.767 131.761 154.595C132.046 154.525 132.352 154.818 132.388 154.801C132.47 154.767 132.447 154.511 132.602 154.397C133.12 154.019 133.978 154.065 134.491 153.813C134.725 153.698 134.995 153.354 135.23 153.2L135.243 153.197C135.263 153.184 135.283 153.172 135.303 153.162C135.501 153.061 136.028 153.077 136.093 152.921C136.134 152.827 136.105 152.556 136.168 152.509ZM130.701 158.609C130.541 158.205 130.353 158.701 130.587 158.844C130.64 158.876 130.742 158.714 130.701 158.609ZM115.619 167.864C115.718 167.939 115.817 168.013 115.915 168.088C115.906 168.017 115.897 167.946 115.888 167.876C115.813 167.85 115.737 167.825 115.662 167.801C115.647 167.822 115.633 167.843 115.619 167.864Z" fill="#361700"/>
<path d="M75.026 61.1616C75.0183 60.9846 75.0196 60.8103 75.0281 60.641C74.8542 60.4939 74.7016 60.3096 74.6759 60.0628C74.6014 59.3483 74.6334 58.6764 74.9218 58.219C75.2551 57.6904 75.6879 57.0598 76.3993 57.0156C77.305 56.9595 78.1724 56.9887 78.6965 57.3714C79.2879 57.8032 79.9093 58.3442 79.9338 59.0001C79.9572 59.6283 79.8042 60.3511 79.313 60.9876C78.8233 61.622 78.3123 62.1867 77.6425 62.2104C76.7688 62.2413 75.9911 62.2512 75.5929 61.9364C75.3641 61.7555 75.0398 61.4745 75.026 61.1616Z" fill="url(#paint2_linear_4055_524)"/>
<path d="M76.5842 58.6611C76.6038 58.6335 76.6078 58.7975 76.63 58.8088C76.7239 58.858 76.7576 58.9745 76.863 59.0504C77.0098 59.1591 77.6349 59.0263 77.4614 60.1422C77.4614 60.1422 77.4614 60.1422 77.4614 60.1423C77.4597 60.1532 77.458 60.1642 77.4562 60.1754C77.4217 60.3872 77.3419 60.6121 77.3006 60.8514C77.2591 61.0907 77.0345 62.6417 76.9709 62.7216C76.8817 62.8258 76.7436 62.4037 76.6956 62.4162C76.6641 62.4249 76.6111 62.5622 76.5692 62.583C76.4333 62.6498 76.3777 62.5392 76.2028 62.9085C76.1736 62.6997 76.1438 62.4906 76.1158 62.2812C76.0313 62.3657 75.9556 62.0821 75.9075 62.0886C75.8874 62.0913 75.8644 62.131 75.8408 62.1701C75.8169 62.2093 75.7926 62.248 75.7702 62.2474C75.7192 62.2469 75.6827 62.0618 75.5888 62.0652C75.4347 62.0688 75.281 62.4606 75.1559 62.4753C75.0226 62.4887 74.9387 62.2096 74.7334 62.2707C74.6945 62.3029 74.6548 62.3345 74.6145 62.3655C74.579 62.4652 74.5448 62.5654 74.5119 62.6661C74.4058 62.6662 74.4735 62.4584 74.4059 62.4144C74.3265 62.3619 74.1746 62.5056 74.1174 62.4663C74.0959 62.4513 74.0912 62.4044 74.0868 62.3558C74.0913 62.3074 74.0949 62.2563 74.0694 62.2444C73.9991 62.2102 73.871 62.4082 73.8068 62.4148C73.792 62.4311 73.3819 62.2561 73.3498 62.2191C73.1827 62.0658 73.4048 61.8291 73.3092 61.6677C73.0985 61.3136 72.6981 60.8607 72.5278 60.2868C72.4929 60.2428 72.4608 60.1987 72.4361 60.1539C72.3833 60.0585 72.3942 59.9494 72.4402 59.8427C73.2717 59.948 73.8965 59.5905 72.613 59.7713C72.7915 59.651 72.4412 59.5778 72.4998 59.4588C72.5384 59.3826 72.7176 59.3341 72.7168 59.2257C72.7122 59.0436 72.2337 58.735 73.1543 58.7927C73.0249 58.5286 73.3981 58.399 72.6444 58.0812C72.6183 57.9845 73.143 57.9329 73.2348 57.8819C73.291 57.8452 73.5081 57.609 73.6999 57.4486C73.7639 57.4163 73.8164 57.3851 73.8308 57.3704C73.873 57.327 73.9438 57.2437 73.9163 57.1579C73.8793 57.056 73.2292 56.5152 74.1046 56.9864C74.1333 56.8152 74.1952 56.7822 74.3829 56.7392C74.4172 56.7313 74.5288 56.8258 74.5394 56.814C74.5611 56.7896 74.5201 56.6741 74.5554 56.6187C74.6148 56.5266 74.8714 56.7089 74.54 56.3756C74.5411 56.2663 74.5491 56.1536 74.5662 56.0377C74.6472 56.0884 74.7269 56.1407 74.8052 56.1946C74.7791 56.0898 74.7573 55.9828 74.7405 55.8736C75.0879 56.4567 75.1236 55.9536 74.8316 55.6785C75.0703 55.6941 75.3079 55.7317 75.5301 55.7967C75.78 56.5209 75.9045 55.7692 75.8114 55.3651C75.8354 55.3602 75.8587 55.3558 75.8825 55.3515C76.0447 55.4562 76.1589 55.4146 76.2997 55.4108C76.3351 55.4113 76.3729 55.4204 76.4164 55.4653C76.5426 55.5966 76.5354 55.6726 76.5866 56.0258C76.6128 56.0043 76.6395 55.9828 76.6662 55.9615C76.7847 54.9835 76.7984 56.6679 77.0389 55.9194C77.1201 56.5311 77.3082 56.2125 77.4625 56.0361C77.48 56.0155 77.4874 55.897 77.512 55.8618C77.5728 55.7769 77.7013 55.9416 77.7342 55.5602C77.7756 55.6756 77.8151 55.7916 77.8517 55.908C77.9018 55.8441 77.9538 55.7809 78.0085 55.7188C78.0264 55.6005 78.0443 55.4822 78.0621 55.3639C78.0927 55.7805 78.2597 55.6531 78.3152 55.7659C78.3254 55.7885 78.2917 55.9499 78.3242 56.004C78.3613 56.0677 78.4684 56.0459 78.5153 56.1145C78.5928 55.9471 78.674 55.7811 78.7599 55.617C78.926 55.5686 78.8018 56.0394 78.8535 56.1013C78.862 56.1089 79.1101 56.189 79.1288 56.1908C79.2581 56.1817 79.4139 55.8692 79.6687 56.0399C79.6835 56.0499 79.6975 56.0648 79.7105 56.0858C79.7329 56.1221 79.6735 56.2552 79.6986 56.2812C79.7411 56.3253 80.0963 56.1936 80.299 55.9748C80.1321 56.3179 80.4081 56.3521 80.3921 56.4841C80.3862 56.5235 80.2305 56.7028 80.2435 56.7837C80.2528 56.8479 80.4863 56.809 80.5154 56.8854C80.5447 56.9656 80.4171 57.1221 80.4293 57.1562C80.4408 57.1883 80.5812 57.1034 80.6112 57.1394C80.7042 57.2551 80.5818 57.5215 80.6431 57.6187C80.7299 57.7576 81.2267 57.6591 81.5095 57.7644C81.5031 57.8244 81.4287 57.9102 81.4477 57.9597C81.5524 58.2342 81.619 58.5826 81.6004 58.938C81.5724 59.1967 81.5088 59.4528 81.4245 59.6826C81.359 59.8943 80.6204 60.1998 81.6985 60.3335C81.8696 60.4636 81.2826 60.8669 81.234 60.9427C81.1898 61.0325 81.3324 61.1871 81.2984 61.2643C81.1932 61.4972 80.9918 61.5742 80.962 61.9192C80.9544 62.0084 81.088 62.2145 81.0557 62.2529C81.0424 62.2684 81.0083 62.2688 80.9671 62.2642C80.8965 62.2445 80.8001 62.2072 80.772 62.228C80.6734 62.3035 80.577 62.5391 80.4575 62.6177C80.4357 62.6315 80.2828 62.5104 80.2142 62.4962C79.9479 62.4397 79.8584 62.5629 80.3267 62.9737C79.9376 62.8695 80.0303 63.228 79.868 63.3895C79.5731 63.7311 78.5092 64.1457 77.8617 64.4039C77.81 64.4299 77.7644 64.4564 77.723 64.4824C77.6283 64.6453 77.613 64.8281 77.4035 64.6251C77.3496 64.573 77.295 64.5022 77.2281 64.4396C77.068 64.2923 76.931 63.7768 76.7918 64.3957C76.6073 64.2311 76.4256 64.3359 76.315 63.7926C76.2858 63.9179 76.2549 64.0431 76.2225 64.1679C76.1943 64.1683 76.1665 64.1685 76.1373 64.1683C76.1421 64.0465 76.1476 63.9248 76.1536 63.8031C75.9784 63.7506 75.5957 64.1905 75.3365 64.1062C75.1482 64.0426 74.7701 63.8774 74.3703 63.483C74.2369 63.2902 74.0603 63.0039 73.9986 62.8051C73.9387 62.6078 73.7169 62.7425 74.0748 62.3282C74.018 62.3134 73.9598 62.2948 73.9003 62.2712C73.7842 62.3073 73.6655 62.3381 73.5443 62.3631C73.3967 62.1222 73.3287 61.6801 73.3602 61.2346C73.3716 61.1989 73.3785 61.1648 73.3772 61.1328C73.3631 60.8683 73.0567 60.4388 73.2965 60.1855C73.3563 60.123 73.6057 60.0681 73.611 60.006C73.6191 59.9143 73.2248 59.8357 73.2366 59.7113C73.2571 59.4902 73.7939 59.2076 73.8133 59.0127C73.8191 58.9529 73.6836 58.8845 73.6805 58.8387C73.6685 58.6419 73.7238 58.5114 73.5956 58.2168C74.0476 58.1389 74.4928 58.3723 74.9629 58.5506C75.3267 58.6652 76.1232 59.071 76.288 59.3907C76.4318 59.5794 76.7535 59.6647 76.9147 59.87C77.1893 59.6791 77.1333 59.7139 77.0823 59.6609C77.0162 59.6236 76.876 59.5777 76.6964 59.5429C76.6634 59.667 76.6262 59.8513 76.6041 60.0294C76.464 60.0168 76.3237 60.0061 76.1831 59.9971C76.1828 59.997 76.1825 59.997 76.1822 59.9969C76.009 60.0431 76.3575 60.1404 76.4318 60.1912C76.8592 60.4895 76.7964 60.7813 76.689 61.0886C76.6203 60.7076 76.4516 60.6191 76.4061 60.62C76.3499 60.6206 76.3528 60.6842 76.3802 60.7304C76.3915 60.7497 76.4376 60.7609 76.501 60.7876C76.4143 60.6832 76.3846 60.6624 76.3487 60.7987C76.3312 60.8551 76.2677 61.061 76.2722 61.0722C76.3703 60.9683 76.4972 60.8585 76.637 60.7398C76.8753 61.0633 77.2401 60.8514 77.5912 60.7615C77.5848 60.7543 77.5774 60.7487 77.5699 60.7451C77.4815 60.7133 77.4751 60.699 77.5713 60.5558C77.6617 60.4196 77.8008 60.2 77.9641 59.9467C78.0479 59.7886 78.1037 59.646 78.1664 59.4821C78.2003 59.3921 78.0558 59.2624 78.1623 59.179C78.2066 59.1452 78.553 59.1207 78.2937 59.0684C78.3868 59.0648 78.4799 59.061 78.573 59.0571C78.5688 59.0552 78.5644 59.0533 78.5599 59.0514C78.4456 59.0782 78.2544 59.1447 78.2468 59.1969C78.2412 59.248 78.2537 59.2984 78.2773 59.2673C78.291 59.2555 78.4382 59.1625 78.4328 59.156C78.4207 59.1428 78.2065 59.2583 78.1856 59.2351C78.1688 59.2152 78.2611 59.0225 78.2109 59.0152C78.0374 58.9926 77.7201 59.1179 77.6073 58.936C77.5997 58.9235 77.5983 58.9007 77.6001 58.8731C77.6635 58.8296 77.7395 58.7255 77.7386 58.7306C77.7362 58.7444 77.6319 58.9374 77.6255 58.9659C77.6064 59.1154 77.6906 58.8633 77.6332 58.8388C77.4849 58.7653 77.1122 58.84 76.7382 58.8179C76.6736 58.8138 76.596 58.8155 76.5111 58.818C76.6328 58.8096 76.7803 58.7114 76.6927 58.6195C76.6709 58.5913 76.5221 58.4025 76.5135 58.4096C76.5027 58.4187 76.6049 58.5452 76.6101 58.5582C76.6456 58.6462 76.6671 58.8766 76.4607 58.8889C76.4221 58.8891 76.256 58.7987 76.2485 58.8114C76.2443 58.8176 76.3422 58.9024 76.3404 58.9291C76.3362 58.988 76.3231 59.0404 76.3024 59.0896C76.3476 59.0676 76.2962 59.0405 76.2509 59.0835C76.1439 59.1904 76.3026 59.5403 76.3006 59.8933C76.2859 59.8076 76.2525 59.7196 76.2086 59.6537C76.1211 59.5232 75.7873 59.7153 75.7929 59.713C75.795 59.7033 75.9861 59.5405 76.0164 59.4819C76.069 59.3856 76.0601 59.4105 76.1194 59.4852C76.1125 59.5115 76.1082 59.5456 76.1468 59.4957C76.1893 59.4464 76.3066 59.1502 76.3462 59.0871C76.3619 59.0638 76.3782 59.0811 76.4031 59.0931C76.4291 59.1064 76.47 59.113 76.4928 59.0413C76.5191 58.9598 76.5627 58.6924 76.5842 58.6611ZM72.931 59.1202C73.361 59.1688 73.0195 58.9137 72.7811 58.9811C72.7268 58.9986 72.8189 59.1088 72.931 59.1202ZM80.8997 58.9323C81.0231 58.923 81.1465 58.9132 81.2698 58.9028C81.2157 58.8587 81.1605 58.818 81.1043 58.7803C81.0332 58.8133 80.9615 58.844 80.8893 58.8723C80.893 58.8921 80.8965 58.9121 80.8997 58.9323Z" fill="#361700"/>
<path d="M115.793 58.4411C115.809 58.4312 115.825 58.4215 115.842 58.412C115.907 57.9589 116.106 57.4383 116.484 56.9217C116.919 56.8048 117.474 56.7481 117.906 57.016C118.328 57.2772 118.802 57.6194 119.103 58.134C119.394 58.631 119.64 59.1667 119.472 59.6178C119.313 60.0475 119.092 60.6792 118.536 60.7812C117.963 60.8863 116.116 61.309 115.432 60.1133C115.284 59.854 115.284 59.5159 115.36 59.2075C115.437 58.899 115.555 58.5894 115.793 58.4411Z" fill="url(#paint3_linear_4055_524)"/>
<path d="M118.015 57.842C118.025 57.8003 117.87 57.8613 117.85 57.849C117.766 57.7979 117.671 57.8658 117.619 57.9027C117.514 57.9394 117.885 57.9753 117.188 58.8586C117.188 58.8586 117.188 58.8587 117.188 58.8587C117.181 58.8672 117.174 58.8758 117.167 58.8845C117.029 59.0496 116.856 59.2102 116.698 59.3947C116.54 59.5791 115.55 60.7939 115.454 60.8295C115.325 60.874 115.428 60.4335 115.38 60.413C115.347 60.3999 115.219 60.475 115.166 60.459C114.99 60.4009 115.012 60.2763 114.583 60.3592C114.69 60.166 114.807 59.9787 114.937 59.8034C114.818 59.7721 114.919 59.5545 114.929 59.4714L114.855 59.2295C114.86 59.2204 114.862 59.2129 114.859 59.2072C114.841 59.1723 114.678 59.172 114.665 59.1315C114.65 59.0848 114.816 58.9994 114.785 58.9256C114.737 58.8038 114.317 58.7845 114.264 58.6962C114.21 58.6029 114.445 58.4857 114.308 58.3679C114.263 58.3499 114.219 58.3315 114.174 58.3126C114.069 58.311 113.964 58.3101 113.859 58.31C113.817 58.2443 114.033 58.2444 114.044 58.1938C114.056 58.1339 113.86 58.0727 113.868 58.0299C113.875 57.9948 114.043 57.9789 114.042 57.9348C114.04 57.871 113.807 57.8372 113.771 57.7932C113.755 57.7756 113.691 57.49 113.695 57.4742C113.716 57.3627 114.029 57.4449 114.08 57.3751C114.221 57.183 114.061 56.8792 114.063 56.6404C114.063 56.5356 114.124 56.4533 114.213 56.395C114.885 56.8905 115.582 56.9442 114.395 56.4283C114.602 56.4293 114.333 56.1984 114.433 56.1445C114.498 56.1105 114.672 56.1696 114.713 56.0964C114.781 55.9705 114.467 55.5349 115.236 56.0413C115.234 56.0286 115.233 56.0168 115.233 56.0058L116.012 55.4219L116.082 55.4242C116.213 55.28 116.395 55.502 116.32 54.737C116.366 54.6774 116.578 55.1328 116.638 55.1915C116.7 55.2402 117.124 55.4288 117.192 55.4483C117.261 55.4606 117.382 55.48 117.451 55.4153C117.523 55.3334 117.732 54.5093 117.72 55.507C117.902 55.4617 117.969 55.5083 118.089 55.6686C118.111 55.6981 118.065 55.8368 118.08 55.8425C118.112 55.854 118.207 55.7748 118.273 55.7896C118.383 55.8154 118.293 56.1174 118.5 55.6954C118.586 55.6679 118.675 55.6446 118.767 55.6264C118.781 55.6178 118.795 55.6094 118.81 55.6009C118.774 55.6855 118.739 55.7702 118.702 55.8545C118.773 55.7824 118.845 55.711 118.918 55.6401C118.529 56.1982 118.878 55.9459 119.048 55.5919C119.044 55.7569 119.037 55.9221 119.027 56.0867C118.571 56.7095 119.122 56.2661 119.367 55.9252C119.375 55.9322 119.383 55.9392 119.392 55.9463C119.341 56.1659 119.514 56.0884 119.516 56.2711C119.516 56.4523 119.457 56.5019 119.245 56.7882C119.277 56.7898 119.309 56.792 119.342 56.7946C120.121 56.1934 118.917 57.3675 119.611 57.0198C119.206 57.4837 119.548 57.3916 119.778 57.3941C119.804 57.3936 119.901 57.3251 119.943 57.3212C120.046 57.3134 119.988 57.5062 120.311 57.3002C120.261 57.3747 120.209 57.4473 120.156 57.5183C120.136 57.5409 120.115 57.5635 120.094 57.586C120.169 57.5754 120.244 57.5657 120.319 57.5571C120.423 57.4979 120.527 57.4387 120.631 57.3795C120.306 57.6337 120.489 57.6414 120.427 57.732C120.414 57.7499 120.269 57.8289 120.243 57.8759C120.211 57.9309 120.284 57.9671 120.257 58.0283C120.428 57.9629 120.601 57.8994 120.774 57.8378C120.901 57.8753 120.474 58.1034 120.459 58.1613C120.456 58.1702 120.551 58.3103 120.563 58.317C120.666 58.3617 121.049 58.1914 121.044 58.4797C121.042 58.5318 120.914 58.6064 120.919 58.6503C120.928 58.7182 121.29 58.9256 121.588 58.9323C121.238 59.0972 121.394 59.4434 121.269 59.559C121.233 59.59 120.997 59.5739 120.933 59.6596C120.884 59.7246 121.024 59.9725 120.956 60.071C120.934 60.1029 120.897 60.1212 120.857 60.1318C120.784 60.1229 120.692 60.1001 120.679 60.1084C120.661 60.1199 120.806 60.1913 120.796 60.2147C120.763 60.2877 120.492 60.2698 120.461 60.3334C120.416 60.4245 120.814 60.7065 120.953 60.9071C120.912 60.9201 120.808 60.9002 120.793 60.9271C120.613 61.25 120.221 61.7144 119.609 61.9706C119.375 62.0844 118.829 61.8477 118.791 62.1701C118.798 62.2603 118.824 62.404 118.874 62.6239C118.878 62.6345 118.883 62.6451 118.887 62.656C118.886 62.6596 118.884 62.6631 118.882 62.6664C118.899 62.8307 118.537 62.4715 118.478 62.4743C118.42 62.4777 118.403 62.677 118.356 62.6873C118.211 62.7184 118.091 62.5948 117.922 62.7829C117.877 62.832 117.845 63.0655 117.813 63.0656C117.775 63.0651 117.718 62.847 117.671 62.8363C117.557 62.8132 117.343 62.8946 117.225 62.8555C117.204 62.8481 117.197 62.6531 117.168 62.592C117.058 62.3534 116.937 62.3676 116.927 62.9902C116.788 62.6295 116.618 62.9377 116.448 62.9338C116.098 62.936 115.47 62.6103 114.992 62.6329C114.691 62.6521 114.522 62.8887 114.32 62.4382C114.279 62.3379 114.252 62.2217 114.214 62.1005C114.112 61.8004 114.39 61.3297 113.784 61.557C113.761 61.3681 113.691 61.2553 113.705 61.1015C113.692 60.9521 113.738 60.7911 113.907 60.6139C113.778 60.6358 113.648 60.6537 113.517 60.6676C113.499 60.6268 113.482 60.5859 113.466 60.5453C113.577 60.4957 113.69 60.4476 113.803 60.4013C113.757 60.1512 113.224 59.8903 113.225 59.6601C113.221 59.4268 113.338 59.0197 113.513 58.7469C113.601 58.6302 113.703 58.5149 113.789 58.45C113.912 58.3597 113.676 58.2516 114.201 58.3785C114.177 58.338 114.154 58.2959 114.132 58.2523C114.033 58.1873 113.935 58.1201 113.838 58.0504C113.921 57.8557 114.222 57.6971 114.399 57.4924C114.515 57.3561 114.657 57.157 114.873 56.9694C115.088 56.743 115.3 56.5669 115.51 56.6333C115.594 56.6592 115.745 56.8632 115.799 56.8435C115.877 56.8153 115.784 56.4242 115.89 56.3873C116.08 56.3215 116.482 56.7162 116.62 56.6604C116.664 56.6432 116.663 56.4925 116.693 56.4722C116.817 56.3857 116.926 56.3854 117.046 56.1441C117.23 56.5155 117.242 57.0132 117.305 57.5109C117.359 57.8864 117.448 58.7604 117.442 59.0916C117.444 59.3241 117.439 59.6231 117.443 59.879C117.429 60.0835 117.385 59.8602 117.286 59.5078C117.159 59.534 117.022 59.5693 116.903 59.6093C116.863 59.4751 116.821 59.3412 116.778 59.2077C116.778 59.2075 116.778 59.2072 116.778 59.2069C116.688 59.062 116.75 59.4175 116.748 59.5024C116.737 59.8652 116.649 59.987 116.711 59.9108C116.965 59.718 116.977 59.5186 116.928 59.4795C116.88 59.4299 116.795 59.4715 116.756 59.5277C116.752 59.5336 116.751 59.5427 116.751 59.5542C116.764 59.5959 116.88 59.6102 116.684 59.6023C116.625 59.602 116.409 59.6047 116.4 59.6085C116.527 59.6352 116.667 59.5824 116.732 59.4186C116.709 59.4148 116.687 59.4107 116.668 59.4064C116.476 59.5766 116.685 59.437 116.725 59.3969C116.908 59.3481 117.437 59.2031 118.199 59.0885C118.208 59.0874 118.216 59.0859 118.225 59.0841C118.064 59.0962 117.736 59.1279 117.734 59.2796C117.728 59.3465 117.99 59.5731 117.779 59.4247C117.853 59.4813 117.927 59.5378 118.002 59.5941C117.914 59.5234 117.734 59.4104 117.72 59.3926C117.707 59.3815 117.724 59.3157 117.772 59.2925C117.795 59.2827 117.953 59.3563 117.96 59.338C117.97 59.3054 117.774 59.1446 117.797 59.0829C117.805 59.0628 117.839 59.0454 117.881 59.0267C117.914 59.0995 117.976 59.1623 117.954 59.1824C117.823 59.2926 117.556 59.4605 117.637 59.4486C117.66 59.4468 117.869 59.361 117.861 59.3569C117.845 59.3522 117.639 59.4267 117.611 59.4324C117.472 59.4665 117.678 59.2893 117.653 59.2191C117.633 59.1623 117.599 59.1021 117.556 59.0383C117.518 58.9979 117.443 58.969 117.381 58.8724C117.331 58.789 117.136 58.6925 117.085 58.4674C117.075 58.4191 117.211 58.2204 117.184 58.2041C117.181 58.2019 117.176 58.2019 117.171 58.2035C117.16 58.233 117.103 58.3461 117.103 58.3593C117.095 58.4652 117.168 58.6493 117.174 58.4803C117.177 58.4485 117.188 58.2605 117.185 58.261C117.183 58.2609 117.174 58.3891 117.17 58.4021C117.139 58.5177 117.095 58.4443 116.995 58.4187C116.961 58.4101 116.925 58.4138 116.889 58.4255L117.741 57.8414C117.624 58.0151 117.657 58.251 117.502 58.3608C117.461 58.3889 117.098 58.3019 117.099 58.3114C117.101 58.3296 117.336 58.415 117.389 58.4573C117.561 58.5892 117.283 58.6359 117.404 58.7074C117.464 58.7427 117.783 58.7611 117.853 58.7439C117.887 58.7383 117.852 58.7306 117.851 58.7154L117.701 58.2232C117.679 58.1736 117.674 58.1354 117.714 58.0966C117.777 58.0365 118.004 57.8874 118.015 57.842ZM114.936 56.1368C115.288 56.3889 115.084 56.0485 114.856 55.9697C114.804 55.9529 114.844 56.0714 114.936 56.1368ZM119.879 60.9739C119.98 61.0456 120.081 61.1172 120.182 61.1884C120.159 61.1328 120.134 61.0787 120.108 61.0262C120.037 60.9974 119.967 60.9678 119.898 60.9369C119.892 60.9492 119.886 60.9615 119.879 60.9739Z" fill="#361700"/>
<path d="M112.523 76.4662C112.569 76.4366 112.633 76.5992 112.687 76.6081C112.915 76.6473 112.999 76.7602 113.205 76.8253C113.51 76.922 114.423 76.7138 114.418 77.8402C114.418 77.8402 114.418 77.8402 114.418 77.8402C114.418 77.8513 114.417 77.8625 114.417 77.8738C114.413 78.0883 114.334 78.3222 114.321 78.5648C114.308 78.8075 114.308 80.3748 114.198 80.4623C114.037 80.5776 113.656 80.1736 113.57 80.1909C113.512 80.2028 113.439 80.3449 113.364 80.3697C113.123 80.4498 112.998 80.3448 112.778 80.7303C112.692 80.5257 112.607 80.3211 112.522 80.1165C112.408 80.2102 112.238 79.9398 112.169 79.954C112.113 79.9657 112.078 80.1267 112.019 80.1337C111.953 80.1424 111.853 79.9674 111.733 79.9923C111.535 80.0325 111.495 80.4528 111.376 80.5048C111.252 80.5586 111.064 80.3276 110.904 80.4733C110.884 80.5193 110.863 80.5653 110.843 80.6113C110.856 80.7161 110.868 80.821 110.881 80.9259C110.801 80.9734 110.769 80.7584 110.697 80.7534C110.612 80.7473 110.563 80.9499 110.505 80.948C110.459 80.9462 110.396 80.782 110.335 80.7911C110.245 80.8034 110.259 81.0392 110.21 81.0823C110.191 81.0992 109.828 81.2212 109.808 81.2224C109.652 81.2279 109.648 80.9053 109.524 80.8737C109.213 80.7945 108.881 80.996 108.568 81.0927L108.462 81.085C108.43 81.0921 108.399 81.0984 108.368 81.1035C108.202 81.1306 108.034 81.0916 107.88 81.0183C108.233 80.2344 107.795 79.5247 107.808 80.8302C107.66 80.623 107.48 80.9467 107.321 80.8584C107.219 80.8008 107.178 80.6113 107.026 80.585C106.759 80.5408 106.337 80.9607 106.488 80.0501C106.142 80.1296 105.981 79.7337 105.637 80.4773C105.541 80.5005 105.486 79.9762 105.424 79.8863C105.359 79.8028 104.832 79.3842 104.744 79.3344C104.652 79.2865 104.491 79.2092 104.384 79.2427C104.254 79.2854 103.855 80.0322 104.058 79.0499C103.823 79.0367 103.76 78.9787 103.619 78.7913C103.594 78.7573 103.649 78.622 103.63 78.6132C103.59 78.5954 103.477 78.663 103.399 78.6419C103.272 78.6074 103.334 78.2973 103.15 78.7294C103.038 78.7641 102.928 78.7995 102.815 78.8334C102.827 78.7385 102.838 78.6434 102.85 78.5488C102.766 78.6184 102.682 78.6877 102.598 78.7566C102.941 78.1678 102.478 78.389 102.401 78.7849C102.312 78.5853 102.227 78.386 102.142 78.1862C102.373 77.7576 102.204 77.7746 102.003 77.9409L101.783 77.7976C101.59 77.8214 101.383 77.8818 101.294 78.0124C101.261 77.9797 101.231 77.9473 101.202 77.9151C101.135 77.5389 100.883 77.4629 100.858 77.1701C100.841 76.8842 100.923 76.8692 101.195 76.6318C101.152 76.5981 101.109 76.5634 101.066 76.5278C100.082 76.7594 101.586 76.0015 100.728 75.9618C101.214 75.5655 100.782 75.4134 100.52 75.2904C100.49 75.2762 100.381 75.3256 100.334 75.3108C100.219 75.2738 100.268 75.0166 99.9235 75.1837C99.9927 75.0689 100.064 74.9584 100.134 74.8457C100.046 74.8208 99.958 74.7955 99.8698 74.77C99.7611 74.8199 99.6524 74.8698 99.5437 74.9198C99.865 74.6419 99.6454 74.5373 99.696 74.4129C99.7064 74.3881 99.8551 74.3163 99.8727 74.2462C99.894 74.1639 99.7986 74.072 99.813 73.9791C99.634 74.027 99.455 74.075 99.276 74.1231C99.1279 74.0373 99.5465 73.7925 99.5465 73.7025C99.5464 73.6862 99.4026 73.457 99.3873 73.4489C99.2642 73.3781 98.9047 73.5775 98.8428 73.2407C98.8319 73.1805 98.9392 73.0752 98.9212 73.0245C98.8897 72.9341 98.476 72.8242 98.2007 72.9409C98.4867 72.6772 98.2173 72.4885 98.2731 72.3664C98.2904 72.3287 98.4966 72.2101 98.5037 72.1179C98.5105 72.0441 98.265 71.997 98.2565 71.9212C98.2484 71.84 98.4014 71.7081 98.395 71.6713C98.3884 71.636 98.2367 71.6977 98.2158 71.664C98.1504 71.5538 98.2977 71.3172 98.2512 71.2545C98.2012 71.1587 97.7318 71.4792 98.0162 71.8648C98.1191 71.8752 98.2814 71.8213 98.4382 71.8371C98.6256 71.8598 98.8893 71.8305 99.089 71.7484C99.279 71.6761 99.4432 71.5494 99.5101 71.4799C99.6717 71.313 99.6726 71.2509 99.6729 71.233C99.7172 71.0819 99.6387 71.2045 99.5881 71.3293C99.5306 71.4632 99.4652 71.6383 99.3922 71.8169C99.2975 72.0922 98.4225 72.6448 99.5053 72.8135C99.5236 72.8395 99.5251 72.8762 99.513 72.9212C99.4815 73.0867 99.0122 73.4122 98.9689 73.5103C98.9201 73.6206 99.0664 73.7808 99.0337 73.8734C98.9337 74.1542 98.7277 74.2988 98.7302 74.7192C98.7312 74.8279 98.8956 75.0224 98.8675 75.0776C98.8332 75.1438 98.5982 75.1229 98.5444 75.2028C98.4197 75.3943 98.2811 75.8169 98.1291 75.9979C98.1015 76.0305 97.9259 75.9448 97.8435 75.9641C97.5232 76.038 97.4022 76.2555 97.9446 76.5639C97.4811 76.6233 97.5767 77.0359 97.4016 77.2818C97.0447 77.8109 96.1053 78.4695 95.8062 78.9792C95.632 79.2868 95.7514 79.5138 95.3114 79.594C95.2802 79.5988 95.2461 79.6025 95.2087 79.6051C95.0886 79.6135 94.9601 79.6037 94.8174 79.6091C94.4791 79.6228 94.0276 79.2704 94.0946 79.9254C93.7387 79.9141 93.5487 80.1181 93.1389 79.7106C93.1621 79.8387 93.1846 79.9669 93.2065 80.0954C93.1725 80.1123 93.1383 80.1291 93.1042 80.1457C93.0491 80.0367 92.9943 79.9275 92.9398 79.8183C92.6839 79.8827 92.5334 80.4656 92.314 80.5339C91.949 80.6554 90.9697 80.7283 90.598 80.6439C90.3998 80.602 90.448 80.8577 90.2272 80.3594C90.1964 80.4046 90.1652 80.4498 90.1337 80.495C90.1345 80.6149 90.1349 80.7349 90.135 80.8548C89.9058 80.9102 89.5981 80.7871 89.3812 80.8301C88.9888 80.9097 88.4384 81.326 88.0071 81.1704C87.8988 81.1315 87.7443 80.9081 87.6464 80.9233C87.5052 80.9447 87.5208 81.347 87.3373 81.3758C87.0218 81.4255 86.3958 81.0162 86.1061 81.0718C86.0189 81.0885 85.9916 81.2399 85.9293 81.2601C85.6788 81.3452 85.4649 81.3445 85.226 81.5846C84.9385 81.2105 84.9521 80.7127 84.8591 80.2145C84.7906 79.8385 84.5981 78.9655 84.579 78.6345C84.5621 78.4021 84.6173 78.1027 84.5936 77.847C84.8509 77.6397 84.9676 77.8604 85.2078 78.2106C85.6279 78.1776 86.0439 78.1331 86.4645 78.0784C86.5165 78.2138 86.5693 78.3489 86.6213 78.4841C86.6213 78.4844 86.6213 78.4847 86.6214 78.485C86.8006 78.6289 86.8354 78.2631 86.9115 78.1725C87.6541 77.3138 89.3251 77.6464 90.2338 77.4844C90.4307 77.4551 90.9743 77.0976 91.167 77.27C91.2178 77.3156 91.2943 77.5171 91.3325 77.5143C91.6055 77.2887 91.8655 77.056 92.1065 76.8172C92.6147 76.8598 93.0152 76.593 93.3493 76.3028C93.4902 76.1798 93.6163 76.0536 93.7484 75.9379C94.9517 74.9014 95.3184 73.513 96.0869 71.5815C96.0873 71.5806 96.0877 71.5796 96.0881 71.5787C96.1718 71.4015 96.0861 71.0417 96.2744 70.6444C96.3616 70.463 96.693 70.5053 96.5657 70.068C96.6551 70.0948 96.7443 70.122 96.8334 70.1495C96.8353 70.0508 96.8356 69.9448 96.8512 69.8223C96.8797 69.5618 96.8455 69.2912 97.3066 68.8686C97.4722 68.7335 97.7286 68.5441 98.1716 68.443C98.6151 68.3409 99.0848 68.4225 99.3915 68.5523C99.976 68.8097 100.154 69.0639 100.245 69.1653C100.335 69.2835 100.171 69.3631 100.255 69.4561C100.389 69.5981 100.804 69.7596 100.92 69.9427C101.03 70.111 101.01 70.473 101.1 70.5763C101.424 70.9439 101.911 71.2595 102.043 71.7225C102.078 71.8493 101.945 72.096 101.967 72.1299C102.012 72.1956 102.221 72.1241 102.269 72.1601C102.511 72.3448 102.444 72.8269 102.54 73.0623C102.85 73.826 103.297 74.5899 103.588 75.184C103.631 75.2715 103.688 75.3711 103.734 75.4422C103.769 75.5076 103.845 75.5706 103.698 75.4475L103.379 75.2397C103.668 75.4028 103.945 75.5743 104.118 75.7491C104.191 75.8235 104.064 76.0293 104.14 76.0652C104.224 76.1049 104.337 75.9783 104.382 75.9848C104.691 76.03 105.341 76.1347 105.529 76.386C105.565 76.4349 105.53 76.6237 105.56 76.6345C105.575 76.6404 105.654 76.5335 105.705 76.5391C106.149 76.5856 106.412 76.756 106.794 76.9168C107.408 77.1735 108.148 77.1678 108.833 77.2543L108.755 77.2485C108.903 77.2601 109.052 77.2775 109.2 77.3042C109.394 77.3393 109.519 77.7153 109.548 77.7124C109.609 77.7066 109.657 77.4575 109.781 77.3988C110.199 77.2064 110.755 77.4832 111.154 77.3627C111.352 77.3035 111.625 76.9887 111.82 76.9202C111.975 76.8656 112.339 76.9935 112.409 76.8544C112.451 76.7704 112.473 76.4997 112.523 76.4662ZM106.909 80.3466C107.032 79.931 106.633 80.2094 106.701 80.4633C106.717 80.521 106.877 80.455 106.909 80.3466ZM99.0333 70.9181C99.1485 70.9633 99.2633 71.0092 99.3778 71.056C99.344 71.0457 99.309 71.0378 99.2722 71.0327C99.2588 71.0231 99.2454 71.0138 99.2319 71.0046C99.1943 70.9865 99.1559 70.9699 99.1168 70.955C99.0886 70.9383 99.0596 70.9231 99.03 70.9094C99.0319 70.9103 99.0329 70.9133 99.0333 70.9181Z" fill="#361700"/>
<defs>
<linearGradient id="paint0_linear_4055_524" x1="97.8811" y1="6.14844" x2="97.8811" y2="193.35" gradientUnits="userSpaceOnUse">
<stop stop-color="#FFE8C9"/>
<stop offset="0.495192" stop-color="#FFEDAE"/>
<stop offset="1" stop-color="#FBC579"/>
</linearGradient>
<linearGradient id="paint1_linear_4055_524" x1="98.6697" y1="5" x2="98.6697" y2="194" gradientUnits="userSpaceOnUse">
<stop stop-color="#E58237"/>
<stop offset="0.495192" stop-color="#B7550A"/>
<stop offset="1" stop-color="#914207"/>
</linearGradient>
<linearGradient id="paint2_linear_4055_524" x1="77.2888" y1="56.9937" x2="77.2888" y2="62.2249" gradientUnits="userSpaceOnUse">
<stop stop-color="#E58237"/>
<stop offset="0.495192" stop-color="#B7550A"/>
<stop offset="1" stop-color="#914207"/>
</linearGradient>
<linearGradient id="paint3_linear_4055_524" x1="117.418" y1="56.8242" x2="117.418" y2="60.9396" gradientUnits="userSpaceOnUse">
<stop stop-color="#E58237"/>
<stop offset="0.495192" stop-color="#B7550A"/>
<stop offset="1" stop-color="#914207"/>
</linearGradient>
</defs>
</svg>
