<svg width="195" height="200" viewBox="0 0 195 200" fill="none" xmlns="http://www.w3.org/2000/svg">
<path d="M49.2148 28.0985C51.3227 28.1158 54.0691 28.1752 57.292 28.2528C59.8302 28.3139 61.8804 28.6083 63.7676 28.9256C65.6609 29.244 67.3622 29.5798 69.2539 29.7401C72.5208 30.0171 75.1741 31.8019 78.0205 34.0799C82.7813 37.89 86.5026 41.2081 87.6104 42.4549C89.1087 44.1416 91.3472 46.082 93.4463 47.6727C94.4937 48.4664 95.4999 49.1682 96.3535 49.7039C97.1914 50.2298 97.8472 50.5713 98.2432 50.701C99.2861 50.7784 99.8726 51.658 100.253 52.2635C100.474 52.6151 100.631 52.8889 100.8 53.0877C100.933 53.2446 101.006 53.2714 101.037 53.2752C101.041 53.273 101.046 53.2709 101.051 53.2674C101.093 53.2389 101.152 53.188 101.233 53.1063C101.314 53.0259 101.402 52.9291 101.506 52.8153C101.607 52.704 101.721 52.5782 101.844 52.45C102.321 51.9503 103 51.3341 103.927 51.159C103.933 51.1563 103.942 51.1528 103.952 51.1483C104.001 51.1266 104.076 51.0902 104.183 51.036C104.394 50.928 104.711 50.7579 105.147 50.5145C106.02 50.0278 107.362 49.2532 109.284 48.1043C112.142 46.3962 114.527 44.8665 116.478 43.6619C118.406 42.4708 119.939 41.5776 121.038 41.1991C126.95 39.1625 129.077 38.5497 137.451 37.575C142.99 36.9304 147.778 37.7697 150.723 38.285L150.805 38.2996C151.576 38.4346 152.185 38.5595 152.856 38.8035C153.526 39.0467 154.242 39.4022 155.245 39.9823C159.938 42.6949 164.033 45.8906 166.134 47.6678C167.528 48.8469 171.238 51.9988 176.411 56.37C180.773 60.0559 182.167 63.4995 183.524 67.9315C184.494 71.096 185.485 74.0835 186.276 76.7743C187.069 79.4718 187.679 81.931 187.887 84.0877C188.151 86.8306 187.904 90.7296 187.644 93.7948C187.379 96.9026 186.942 99.1136 185.786 102.639C183.049 110.986 180.581 116.37 180.019 117.497C179.746 118.043 178.967 119.28 177.729 121.091C176.484 122.912 174.758 125.338 172.573 128.276C169.12 132.92 166.361 135.043 163.825 136.768C161.466 138.373 159.374 139.67 157.926 140.631C157.191 141.118 156.622 141.518 156.24 141.84C156.049 142.001 155.92 142.13 155.843 142.228C155.805 142.276 155.788 142.305 155.781 142.319C155.786 142.409 155.822 142.561 155.926 142.792C156.036 143.037 156.206 143.334 156.435 143.684C156.892 144.385 157.553 145.253 158.361 146.281C159.97 148.328 162.136 150.978 164.286 154.064C166.662 157.474 166.41 160.764 166.172 163.111C166.04 164.41 165.076 165.375 164.259 166.034C163.516 166.634 162.498 167.114 161.375 167.507C160.246 167.902 158.979 168.219 157.714 168.478C155.189 168.995 152.622 169.291 151.14 169.505C149.475 169.744 147.245 170.366 139.684 170.375C138.078 170.377 136.679 169.818 135.029 168.572C133.397 167.34 131.48 165.404 128.835 162.61C127.51 161.21 126.081 160.354 124.171 159.561C122.234 158.758 119.865 158.043 116.613 156.889C116.281 156.772 115.699 156.731 114.823 156.802C113.965 156.871 112.884 157.042 111.592 157.301C109.008 157.817 105.628 158.672 101.591 159.721C95.7403 161.24 92.8226 161.128 89.6455 160.274C88.4283 159.947 86.8105 159.311 84.6074 158.385C83.502 157.92 82.2411 157.379 80.8027 156.764C79.3636 156.148 77.7444 155.456 75.918 154.689C75.1286 154.358 74.5532 154.058 74.1045 153.818C73.6413 153.57 73.3595 153.413 73.1055 153.324C72.9825 153.281 72.89 153.257 72.7637 153.251C72.6271 153.244 72.4312 153.257 72.1064 153.314C71.4495 153.43 70.3612 153.71 68.3477 154.273C64.3351 155.395 56.7521 157.613 52.3164 159.006C46.7782 160.745 42.2128 162.375 36.6348 163.716C33.9235 164.367 31.3224 162.691 29.2061 160.619C27.0642 158.522 25.2626 155.866 24.1318 154.241C22.9162 152.494 22.168 150.134 21.7393 147.997C21.3102 145.858 21.1885 143.876 21.2627 142.85C21.3299 141.924 21.8629 141.19 22.626 140.545C23.384 139.904 24.431 139.3 25.6377 138.644C28.0729 137.321 31.2741 135.727 34.6348 133.072C35.6962 132.234 36.8179 131.529 37.7939 130.929C38.7885 130.317 39.5967 129.833 40.0986 129.41C40.6023 128.986 40.7424 128.711 40.7783 128.56C40.8095 128.429 40.7807 128.32 40.6924 128.136C40.3189 127.356 39.6404 126.509 38.1836 125.103C36.7301 123.701 34.5445 121.782 31.2022 118.853C28.6062 116.579 24.2984 112.47 18.5938 107.63C17.2973 106.53 16.4684 105.703 15.8994 104.934C15.3219 104.154 15.0255 103.449 14.7666 102.617C14.3031 101.128 13.8422 98.8378 13.2969 96.1532C12.7488 93.455 12.1099 90.3304 11.2861 87.1326C10.5828 84.4023 10.4406 83.584 9.99414 81.3338C8.96207 76.1319 8.00491 70.0939 8 65.7576C7.9986 64.5145 8.46147 62.4873 9.21582 59.8748C9.9761 57.2419 11.0518 53.9505 12.3125 50.1473C13.4538 46.7042 15.5783 44.2279 18.752 40.6815C21.6894 37.3991 24.6188 35.8639 26.8008 34.658C29.7555 33.0252 32.6286 31.9329 35.3467 30.8416C39.504 29.1725 43.1338 28.4398 44.9121 28.2C45.6208 28.1046 47.1235 28.0813 49.2148 28.0985ZM108.048 117.237C107.81 117.134 107.559 117.169 107.403 117.202C107.204 117.244 106.987 117.324 106.808 117.389C106.613 117.461 106.447 117.521 106.298 117.557C106.142 117.595 106.074 117.587 106.059 117.583L105.991 117.562H105.922C105.782 117.562 102.597 117.584 97.7188 117.644C94.9951 117.678 92.1974 119.047 89.9326 120.632C87.6645 122.219 85.8485 124.081 85.0898 125.207C84.4614 126.14 84.3954 127.219 84.4131 128.183C84.4341 129.319 84.9241 130.356 85.5654 131.271C86.2067 132.187 87.0298 133.023 87.7695 133.758C89.5963 135.571 91.9708 136.566 94.4424 137.157C96.911 137.748 99.5218 137.946 101.838 138.134C103.014 138.229 104.144 137.825 105.299 137.171C106.45 136.519 107.686 135.582 109.069 134.553C112.22 132.209 113.072 129.842 113.945 127.349L113.975 127.267L113.973 127.181C113.936 125.68 113.112 123.857 112.03 122.133C110.936 120.389 109.53 118.67 108.234 117.359L108.195 117.32L108.149 117.291L108.048 117.237ZM149.563 62.3817C147.669 61.7526 145.061 61.6 140.878 62.4325C135.919 63.4193 130.974 63.965 129.033 64.1893C128.952 64.1575 128.86 64.1476 128.768 64.1659C128.608 64.1974 128.432 64.2315 128.221 64.2928C127.964 64.3676 127.665 64.4793 127.269 64.6668L127.26 64.6707L127.25 64.6756C125.519 65.5863 123.959 66.5856 122.271 68.328L122.261 68.3397L122.25 68.3524C120.792 70.0831 119.372 71.8107 118.199 73.4569C117.03 75.098 116.087 76.6873 115.603 78.1424C114.109 82.6305 112.974 87.2432 115.311 93.8973C115.981 95.805 117.268 98.3492 120.22 100.904C121.644 102.137 123.233 103.183 124.787 104.148C126.353 105.12 127.865 106 129.192 106.924C130.652 107.94 132.235 109.465 133.797 110.806C134.565 111.467 135.328 112.079 136.044 112.533C136.749 112.98 137.47 113.312 138.149 113.335C139.175 113.369 140.522 113.397 142.196 112.958C143.871 112.518 145.85 111.618 148.175 109.827L148.377 109.671C150.276 108.207 152.072 106.824 153.547 105.558C155.013 104.301 156.205 103.125 156.866 102.071C157.67 100.79 159.115 98.3753 160.352 95.66C161.581 92.9604 162.638 89.8971 162.605 87.3358C162.527 81.085 162.293 78.2451 160.25 74.9354C159.112 73.0922 158.066 71.0549 156.998 69.2088C155.958 67.4107 154.889 65.7801 153.756 64.9539C152.588 64.1025 151.44 63.0055 149.563 62.3817ZM71.2451 57.286C65.7281 57.04 60.5187 57.0817 57.6543 57.1287C56.2253 57.1522 55.3605 57.1761 54.5 57.2743C53.6386 57.3726 52.7898 57.5445 51.3906 57.8514H51.3877C47.5246 58.7282 44.1488 59.4529 41.6367 60.0575C40.3801 60.3599 39.3263 60.6358 38.5264 60.8885C38.1266 61.0148 37.7809 61.1384 37.502 61.2596C37.2331 61.3765 36.9865 61.5076 36.8145 61.6619C35.8353 62.5408 34.6259 63.7287 33.6621 65.0623C32.7054 66.3863 31.9466 67.9147 31.9629 69.4637C31.981 71.1596 31.9789 72.5237 32.3232 73.8114C32.6744 75.124 33.3753 76.3305 34.7314 77.7772C36.5714 79.7398 38.1858 80.9255 39.5068 81.9744C40.829 83.0243 41.8447 83.9287 42.6064 85.3563C44.0169 88 45.2873 90.4389 46.374 92.3934C47.4519 94.3319 48.3839 95.8578 49.1231 96.6414C49.7572 97.3136 50.448 97.8707 51.0986 98.3846C51.7581 98.9055 52.3669 99.3755 52.8887 99.8973C53.8925 100.901 55.0277 102.085 56.9395 103.251C58.8496 104.416 61.5162 105.554 65.5938 106.524C69.8011 107.525 74.1904 108.535 77.9766 106.244C80.526 104.702 82.7138 103.096 84.3994 101.656C86.0738 100.225 87.2852 98.9297 87.8467 98.0008C89.6047 95.0921 92.0933 92.0661 90.6553 86.8016C88.8745 80.2826 87.1907 75.2685 83.9805 71.0321C80.7972 66.8312 77.7016 63.4261 75.3975 61.0711C74.2454 59.8936 73.2898 58.9777 72.6201 58.3553C72.2855 58.0443 72.0217 57.8054 71.8398 57.6444C71.7492 57.5641 71.6776 57.5022 71.6279 57.4598C71.6036 57.4391 71.5825 57.4212 71.5664 57.408C71.559 57.402 71.5488 57.3939 71.5391 57.3866C71.5347 57.3832 71.524 57.3753 71.5117 57.367C71.506 57.3632 71.4912 57.3537 71.4727 57.3436C71.462 57.338 71.436 57.3259 71.4199 57.3192C71.3943 57.3101 71.3219 57.295 71.2647 57.2889L71.2656 57.286C71.2592 57.2857 71.2525 57.2863 71.2461 57.286L71.2451 57.285V57.286Z" fill="url(#paint0_linear_4055_423)"/>
<path d="M49.2148 28.0985L49.2345 25.7145H49.2345L49.2148 28.0985ZM57.292 28.2528L57.3494 25.8695L57.3494 25.8695L57.292 28.2528ZM63.7676 28.9256L64.1629 26.5746L64.1629 26.5746L63.7676 28.9256ZM69.2539 29.7401L69.4554 27.3646L69.4552 27.3646L69.2539 29.7401ZM78.0205 34.0799L79.5101 32.2186L79.5101 32.2186L78.0205 34.0799ZM87.6104 42.4549L89.3926 40.8716L89.3926 40.8715L87.6104 42.4549ZM93.4463 47.6727L92.0064 49.5727L92.0064 49.5728L93.4463 47.6727ZM96.3535 49.7039L95.0863 51.7232L95.0863 51.7232L96.3535 49.7039ZM98.2432 50.701L97.5013 52.9666L97.7771 53.057L98.0666 53.0785L98.2432 50.701ZM100.253 52.2635L102.272 50.9955L102.272 50.9954L100.253 52.2635ZM100.8 53.0877L98.9821 54.6303L98.9827 54.631L100.8 53.0877ZM101.037 53.2752L100.749 55.6418L101.574 55.742L102.282 55.3086L101.037 53.2752ZM101.051 53.2674L102.392 55.2381L102.394 55.2369L101.051 53.2674ZM101.233 53.1063L102.919 54.7921L102.919 54.7918L101.233 53.1063ZM101.506 52.8153L103.269 54.4197V54.4197L101.506 52.8153ZM101.844 52.45L100.119 50.8038L100.119 50.8039L101.844 52.45ZM103.927 51.159L104.369 53.5016L104.614 53.4553L104.844 53.3593L103.927 51.159ZM103.952 51.1483L104.922 53.3261L104.923 53.3258L103.952 51.1483ZM104.183 51.036L105.266 53.1597L105.266 53.1596L104.183 51.036ZM105.147 50.5145L106.308 52.5967L106.309 52.5967L105.147 50.5145ZM109.284 48.1043L110.507 50.1506L110.507 50.1506L109.284 48.1043ZM116.478 43.6619L115.225 41.6336L115.225 41.6336L116.478 43.6619ZM121.038 41.1991L120.262 38.9451V38.9451L121.038 41.1991ZM137.451 37.575L137.176 35.207L137.176 35.207L137.451 37.575ZM150.723 38.285L151.142 35.9381L151.134 35.9367L150.723 38.285ZM150.805 38.2996L150.386 40.6465L150.394 40.648L150.805 38.2996ZM152.856 38.8035L153.671 36.5629L153.671 36.5628L152.856 38.8035ZM155.245 39.9823L156.438 37.9183L156.438 37.9183L155.245 39.9823ZM166.134 47.6678L167.673 45.8476V45.8476L166.134 47.6678ZM176.411 56.37L177.95 54.549L177.95 54.549L176.411 56.37ZM183.524 67.9315L181.245 68.6298V68.6298L183.524 67.9315ZM186.276 76.7743L188.564 76.102V76.1019L186.276 76.7743ZM187.887 84.0877L190.26 83.859V83.8589L187.887 84.0877ZM187.644 93.7948L190.019 93.9969V93.9969L187.644 93.7948ZM185.786 102.639L188.051 103.381L188.051 103.381L185.786 102.639ZM180.019 117.497L182.151 118.562L182.151 118.562L180.019 117.497ZM177.729 121.091L179.698 122.436V122.436L177.729 121.091ZM172.573 128.276L174.486 129.699L174.486 129.699L172.573 128.276ZM163.825 136.768L165.166 138.74V138.74L163.825 136.768ZM157.926 140.631L156.608 138.644L156.608 138.644L157.926 140.631ZM156.24 141.84L154.704 140.016L154.704 140.016L156.24 141.84ZM155.843 142.228L153.969 140.754L153.969 140.754L155.843 142.228ZM155.781 142.319L153.656 141.239L153.367 141.808L153.401 142.445L155.781 142.319ZM155.926 142.792L153.752 143.771L153.752 143.771L155.926 142.792ZM156.435 143.684L154.438 144.987L154.438 144.987L156.435 143.684ZM158.361 146.281L156.487 147.754L156.487 147.754L158.361 146.281ZM164.286 154.064L166.242 152.701L166.242 152.701L164.286 154.064ZM166.172 163.111L168.544 163.352L168.544 163.352L166.172 163.111ZM164.259 166.034L165.756 167.889L165.756 167.889L164.259 166.034ZM161.375 167.507L162.162 169.757H162.162L161.375 167.507ZM157.714 168.478L158.192 170.814H158.192L157.714 168.478ZM151.14 169.505L150.8 167.145H150.8L151.14 169.505ZM139.684 170.375L139.687 172.759H139.687L139.684 170.375ZM135.029 168.572L133.593 170.475L133.593 170.475L135.029 168.572ZM128.835 162.61L127.104 164.249V164.249L128.835 162.61ZM124.171 159.561L125.084 157.359L125.084 157.359L124.171 159.561ZM116.613 156.889L117.41 154.643L117.41 154.643L116.613 156.889ZM114.823 156.802L114.631 154.425L114.631 154.425L114.823 156.802ZM111.592 157.301L111.125 154.963H111.125L111.592 157.301ZM101.591 159.721L102.19 162.028L102.19 162.028L101.591 159.721ZM89.6455 160.274L89.0265 162.576L89.0266 162.577L89.6455 160.274ZM84.6074 158.385L85.5314 156.187L85.5314 156.187L84.6074 158.385ZM80.8027 156.764L81.7405 154.572H81.7405L80.8027 156.764ZM75.918 154.689L76.8406 152.491V152.491L75.918 154.689ZM74.1045 153.818L72.9791 155.92L72.9792 155.92L74.1045 153.818ZM73.1055 153.324L73.895 151.075L73.8945 151.074L73.1055 153.324ZM72.7637 153.251L72.8837 150.87L72.8823 150.87L72.7637 153.251ZM72.1064 153.314L71.6918 150.967L71.6917 150.967L72.1064 153.314ZM68.3477 154.273L67.7057 151.977H67.7057L68.3477 154.273ZM52.3164 159.006L53.0307 161.28H53.0307L52.3164 159.006ZM36.6348 163.716L37.1917 166.034H37.1917L36.6348 163.716ZM29.2061 160.619L27.5384 162.323L27.5384 162.323L29.2061 160.619ZM24.1318 154.241L22.1749 155.603L22.1749 155.603L24.1318 154.241ZM21.7393 147.997L19.4018 148.466L19.4018 148.466L21.7393 147.997ZM21.2627 142.85L18.8849 142.678L18.8849 142.678L21.2627 142.85ZM22.626 140.545L21.0871 138.724L21.087 138.724L22.626 140.545ZM25.6377 138.644L24.4994 136.55H24.4994L25.6377 138.644ZM34.6348 133.072L33.1569 131.201L33.1569 131.201L34.6348 133.072ZM37.7939 130.929L36.5447 128.898L36.5447 128.898L37.7939 130.929ZM40.0986 129.41L41.6348 131.233L41.6348 131.233L40.0986 129.41ZM40.7783 128.56L43.0975 129.112L43.0977 129.112L40.7783 128.56ZM40.6924 128.136L42.8426 127.106L42.8425 127.106L40.6924 128.136ZM38.1836 125.103L39.8388 123.388L39.8387 123.388L38.1836 125.103ZM31.2022 118.853L32.7733 117.06V117.06L31.2022 118.853ZM18.5938 107.63L17.0514 109.448H17.0514L18.5938 107.63ZM15.8994 104.934L13.9829 106.352L13.983 106.352L15.8994 104.934ZM14.7666 102.617L12.4903 103.326L12.4904 103.326L14.7666 102.617ZM13.2969 96.1532L10.9606 96.6277V96.6277L13.2969 96.1532ZM11.2861 87.1326L13.5948 86.5379L13.5948 86.5379L11.2861 87.1326ZM9.99414 81.3338L7.65572 81.7978L9.99414 81.3338ZM8 65.7576L5.616 65.7603V65.7603L8 65.7576ZM9.21582 59.8748L6.9254 59.2135L6.9254 59.2135L9.21582 59.8748ZM12.3125 50.1473L10.0496 49.3972V49.3972L12.3125 50.1473ZM18.752 40.6815L16.9755 39.0917L16.9754 39.0917L18.752 40.6815ZM26.8008 34.658L25.6477 32.5715L25.6477 32.5715L26.8008 34.658ZM35.3467 30.8416L34.4585 28.6293L34.4585 28.6293L35.3467 30.8416ZM44.9121 28.2L44.5939 25.8374L44.5935 25.8374L44.9121 28.2ZM108.048 117.237L109.162 115.13L109.081 115.087L108.997 115.05L108.048 117.237ZM107.403 117.202L106.909 114.87L106.909 114.87L107.403 117.202ZM106.808 117.389L105.99 115.15V115.15L106.808 117.389ZM106.298 117.557L106.857 119.875L106.858 119.875L106.298 117.557ZM106.059 117.583L105.364 119.864L105.388 119.871L105.411 119.877L106.059 117.583ZM105.991 117.562L106.685 115.282L106.346 115.178H105.991V117.562ZM105.922 117.562V115.178H105.921L105.922 117.562ZM97.7188 117.644L97.6891 115.261H97.6891L97.7188 117.644ZM89.9326 120.632L88.5659 118.678L88.5658 118.678L89.9326 120.632ZM85.0898 125.207L83.1126 123.875L83.1123 123.875L85.0898 125.207ZM84.4131 128.183L82.0295 128.227L82.0295 128.227L84.4131 128.183ZM85.5654 131.271L83.6128 132.639L83.6129 132.639L85.5654 131.271ZM87.7695 133.758L86.09 135.45V135.45L87.7695 133.758ZM94.4424 137.157L93.8876 139.476L93.8876 139.476L94.4424 137.157ZM101.838 138.134L102.031 135.757V135.757L101.838 138.134ZM105.299 137.171L106.474 139.245L106.474 139.245L105.299 137.171ZM109.069 134.553L107.646 132.64H107.646L109.069 134.553ZM113.945 127.349L111.7 126.548L111.698 126.554L111.695 126.561L113.945 127.349ZM113.975 127.267L116.22 128.069L116.368 127.654L116.358 127.214L113.975 127.267ZM113.973 127.181L116.356 127.127L116.356 127.123L113.973 127.181ZM112.03 122.133L114.05 120.866L114.05 120.866L112.03 122.133ZM108.234 117.359L109.93 115.683L109.92 115.673L108.234 117.359ZM108.195 117.32L109.881 115.634L109.697 115.451L109.478 115.311L108.195 117.32ZM108.149 117.291L109.432 115.281L109.35 115.229L109.264 115.183L108.149 117.291ZM149.562 62.3817L150.314 60.1193L150.314 60.1192L149.562 62.3817ZM140.878 62.4325L140.413 60.0943L140.413 60.0943L140.878 62.4325ZM129.033 64.1893L128.168 66.4107L128.719 66.6255L129.307 66.5575L129.033 64.1893ZM128.768 64.1659L129.231 66.5045L129.231 66.5045L128.768 64.1659ZM128.221 64.2928L127.555 62.0037L127.554 62.0038L128.221 64.2928ZM127.269 64.6668L128.237 66.8454L128.262 66.8342L128.287 66.8224L127.269 64.6668ZM127.26 64.6707L126.292 62.4922L126.242 62.5142L126.194 62.5384L127.26 64.6707ZM127.25 64.6756L126.184 62.5433L126.162 62.5543L126.14 62.5658L127.25 64.6756ZM122.271 68.328L120.559 66.6693L120.536 66.6929L120.514 66.717L122.271 68.328ZM122.261 68.3397L120.503 66.7288L120.471 66.7636L120.441 66.7998L122.261 68.3397ZM122.25 68.3524L120.43 66.8124L120.427 66.8165L122.25 68.3524ZM118.199 73.4569L116.257 72.0739L116.257 72.0739L118.199 73.4569ZM115.603 78.1424L113.341 77.3896L113.34 77.3897L115.603 78.1424ZM115.311 93.8973L113.061 94.6872L113.061 94.6872L115.311 93.8973ZM120.22 100.904L118.66 102.707L118.66 102.707L120.22 100.904ZM124.787 104.148L123.53 106.174L123.53 106.174L124.787 104.148ZM129.192 106.924L130.555 104.967L130.555 104.967L129.192 106.924ZM133.797 110.806L132.243 112.615L132.243 112.615L133.797 110.806ZM136.044 112.533L134.768 114.547L134.768 114.547L136.044 112.533ZM138.149 113.335L138.07 115.717L138.071 115.717L138.149 113.335ZM142.196 112.958L142.802 115.264L142.802 115.264L142.196 112.958ZM148.175 109.827L149.63 111.715L149.633 111.713L148.175 109.827ZM148.377 109.671L146.922 107.782L146.919 107.785L148.377 109.671ZM153.547 105.558L155.099 107.368L155.099 107.368L153.547 105.558ZM156.866 102.071L158.886 103.338L158.886 103.338L156.866 102.071ZM160.352 95.66L162.521 96.6483V96.6483L160.352 95.66ZM162.605 87.3358L164.989 87.3058V87.3057L162.605 87.3358ZM160.25 74.9354L158.221 76.1875L158.221 76.1876L160.25 74.9354ZM156.998 69.2088L159.062 68.0151L159.062 68.015L156.998 69.2088ZM153.756 64.9539L152.351 66.8803L152.351 66.8804L153.756 64.9539ZM71.2451 57.286L71.1389 59.6676L73.6291 59.7786V57.286H71.2451ZM57.6543 57.1287L57.6151 54.7451H57.6151L57.6543 57.1287ZM54.5 57.2743L54.2297 54.9056L54.2296 54.9056L54.5 57.2743ZM51.3906 57.8514V60.2354H51.649L51.9015 60.18L51.3906 57.8514ZM51.3877 57.8514V55.4674H51.1205L50.86 55.5265L51.3877 57.8514ZM41.6367 60.0575L41.0789 57.7396L41.0789 57.7396L41.6367 60.0575ZM38.5264 60.8885L37.8081 58.6153L37.8081 58.6153L38.5264 60.8885ZM37.502 61.2596L36.5518 59.0731L36.5516 59.0732L37.502 61.2596ZM36.8145 61.6619L35.2222 59.8877L35.222 59.8878L36.8145 61.6619ZM33.6621 65.0623L31.7299 63.666L31.7298 63.666L33.6621 65.0623ZM31.9629 69.4637L29.579 69.4888L29.579 69.4892L31.9629 69.4637ZM32.3232 73.8114L30.0202 74.4272L30.0202 74.4274L32.3232 73.8114ZM34.7314 77.7772L32.9922 79.4077L32.9922 79.4077L34.7314 77.7772ZM39.5068 81.9744L40.9893 80.1074L40.9893 80.1074L39.5068 81.9744ZM42.6064 85.3563L44.7098 84.2341L44.7097 84.2339L42.6064 85.3563ZM46.374 92.3934L44.2905 93.5519L44.2905 93.5519L46.374 92.3934ZM49.1231 96.6414L47.3888 98.2773L47.3891 98.2775L49.1231 96.6414ZM51.0986 98.3846L49.621 100.255V100.255L51.0986 98.3846ZM52.8887 99.8973L54.5745 98.2117L54.5744 98.2116L52.8887 99.8973ZM56.9395 103.251L55.6979 105.286L55.698 105.286L56.9395 103.251ZM65.5938 106.524L65.0421 108.844L65.0422 108.844L65.5938 106.524ZM77.9766 106.244L79.2106 108.284V108.284L77.9766 106.244ZM84.3994 101.656L85.9481 103.469L85.9481 103.469L84.3994 101.656ZM87.8467 98.0008L89.8869 99.2341L89.887 99.234L87.8467 98.0008ZM90.6553 86.8016L92.955 86.1734V86.1734L90.6553 86.8016ZM83.9805 71.0321L85.8806 69.5922L85.8806 69.5922L83.9805 71.0321ZM75.3975 61.0711L77.1015 59.4039L77.1015 59.4039L75.3975 61.0711ZM72.6201 58.3553L74.243 56.609L74.243 56.609L72.6201 58.3553ZM71.8398 57.6444L73.4202 55.8594L73.4201 55.8593L71.8398 57.6444ZM71.6279 57.4598L73.1756 55.6465L73.1754 55.6463L71.6279 57.4598ZM71.5664 57.408L73.0743 55.5615L73.0727 55.5602L71.5664 57.408ZM71.5391 57.3866L72.9826 55.4892L72.9793 55.4868L71.5391 57.3866ZM71.5117 57.367L72.839 55.3867L72.835 55.384L71.5117 57.367ZM71.4727 57.3436L72.6113 55.2491L72.5947 55.2401L72.578 55.2313L71.4727 57.3436ZM71.4199 57.3192L72.3365 55.1184L72.2777 55.0939L72.2178 55.0726L71.4199 57.3192ZM71.2647 57.2889L69.003 56.535L68.0656 59.3473L71.0135 59.6596L71.2647 57.2889ZM71.2656 57.286L73.5273 58.0399L74.5292 55.0342L71.3636 54.904L71.2656 57.286ZM71.2461 57.286L69.5604 58.9717L70.215 59.6264L71.1399 59.6676L71.2461 57.286ZM71.2451 57.285L72.9309 55.5992L68.8611 51.5295V57.285H71.2451ZM49.2148 28.0985L49.1952 30.4824C51.2816 30.4996 54.0103 30.5585 57.2346 30.6361L57.292 28.2528L57.3494 25.8695C54.1279 25.7919 51.3637 25.7321 49.2345 25.7145L49.2148 28.0985ZM57.292 28.2528L57.2346 30.6361C59.6103 30.6933 61.5345 30.9676 63.3722 31.2766L63.7676 28.9256L64.1629 26.5746C62.2262 26.2489 60.0501 25.9345 57.3494 25.8695L57.292 28.2528ZM63.7676 28.9256L63.3722 31.2766C65.1842 31.5813 67.0332 31.9444 69.0526 32.1156L69.2539 29.7401L69.4552 27.3646C67.6911 27.2151 66.1377 26.9067 64.1629 26.5746L63.7676 28.9256ZM69.2539 29.7401L69.0525 32.1155C71.5457 32.327 73.7083 33.6823 76.5309 35.9412L78.0205 34.0799L79.5101 32.2186C76.64 29.9216 73.4959 27.7073 69.4554 27.3646L69.2539 29.7401ZM78.0205 34.0799L76.5309 35.9412C81.3054 39.7624 84.8734 42.9637 85.8281 44.0383L87.6104 42.4549L89.3926 40.8715C88.1318 39.4524 84.2571 36.0177 79.5101 32.2186L78.0205 34.0799ZM87.6104 42.4549L85.8281 44.0382C87.47 45.8865 89.8427 47.9331 92.0064 49.5727L93.4463 47.6727L94.8862 45.7726C92.8517 44.2309 90.7475 42.3967 89.3926 40.8716L87.6104 42.4549ZM93.4463 47.6727L92.0064 49.5728C93.0957 50.3982 94.1603 51.1421 95.0863 51.7232L96.3535 49.7039L97.6208 47.6847C96.8396 47.1944 95.8917 46.5346 94.8861 45.7726L93.4463 47.6727ZM96.3535 49.7039L95.0863 51.7232C95.9416 52.26 96.8077 52.7395 97.5013 52.9666L98.2432 50.701L98.9851 48.4354C98.9886 48.4365 98.9543 48.4251 98.875 48.3895C98.799 48.3554 98.6989 48.3069 98.5737 48.241C98.3222 48.1087 98.0025 47.9242 97.6208 47.6846L96.3535 49.7039ZM98.2432 50.701L98.0666 53.0785C98.0016 53.0736 97.9359 53.0539 97.8857 53.029C97.8423 53.0075 97.8355 52.9947 97.8631 53.0207C97.8923 53.0482 97.9404 53.1004 98.0079 53.1917C98.0764 53.2845 98.145 53.3896 98.2342 53.5316L100.253 52.2635L102.272 50.9954C101.973 50.5199 100.81 48.501 98.4197 48.3236L98.2432 50.701ZM100.253 52.2635L98.2341 53.5315C98.3648 53.7396 98.6675 54.2595 98.9821 54.6303L100.8 53.0877L102.618 51.5452C102.637 51.5682 102.623 51.556 102.553 51.4459C102.52 51.3948 102.483 51.3357 102.435 51.2575C102.389 51.1834 102.332 51.0916 102.272 50.9955L100.253 52.2635ZM100.8 53.0877L98.9827 54.631C99.2239 54.915 99.8001 55.5264 100.749 55.6418L101.037 53.2752L101.325 50.9087C101.781 50.9641 102.116 51.1419 102.313 51.2781C102.498 51.4064 102.598 51.5222 102.617 51.5445L100.8 53.0877ZM101.037 53.2752L102.282 55.3086C102.226 55.3425 102.182 55.3663 102.169 55.3736C102.164 55.3759 102.161 55.3777 102.159 55.3788C102.158 55.3794 102.157 55.3799 102.156 55.3801C102.156 55.3804 102.155 55.3806 102.155 55.3806C102.154 55.3813 102.16 55.3782 102.166 55.3749C102.191 55.3614 102.283 55.3125 102.392 55.2381L101.051 53.2674L99.7093 51.2967C99.763 51.2601 99.8102 51.2313 99.8464 51.2102C99.8817 51.1896 99.9098 51.1745 99.9209 51.1686C99.9259 51.1659 99.9306 51.1634 99.9282 51.1647C99.9279 51.1649 99.9205 51.1688 99.9116 51.1735C99.9023 51.1785 99.8868 51.187 99.8677 51.1977C99.8486 51.2085 99.8227 51.2234 99.7925 51.2419L101.037 53.2752ZM101.051 53.2674L102.394 55.2369C102.622 55.0816 102.805 54.9057 102.919 54.7921L101.233 53.1063L99.5477 51.4205C99.5331 51.435 99.5365 51.4308 99.5549 51.4147C99.5647 51.4061 99.5816 51.3916 99.605 51.3731C99.628 51.3549 99.6625 51.3286 99.7075 51.2979L101.051 53.2674ZM101.233 53.1063L102.919 54.7918C103.046 54.6647 103.173 54.5251 103.269 54.4197L101.506 52.8153L99.7425 51.2109C99.6313 51.3332 99.5811 51.387 99.5475 51.4207L101.233 53.1063ZM101.506 52.8153L103.269 54.4197C103.374 54.305 103.469 54.2003 103.568 54.0962L101.844 52.45L100.119 50.8039C99.974 50.9561 99.8406 51.1031 99.7425 51.2109L101.506 52.8153ZM101.844 52.45L103.568 54.0962C103.761 53.8944 103.92 53.7486 104.071 53.6446C104.215 53.5456 104.31 53.5129 104.369 53.5016L103.927 51.159L103.484 48.8165C101.777 49.1391 100.654 50.2434 100.119 50.8038L101.844 52.45ZM103.927 51.159L104.844 53.3593C104.841 53.3607 104.838 53.362 104.842 53.3604C104.844 53.3596 104.85 53.3571 104.857 53.3542C104.871 53.3481 104.894 53.3384 104.922 53.3261L103.952 51.1483L102.982 48.9705C103 48.9627 103.013 48.957 103.019 48.9544C103.022 48.9533 103.024 48.9525 103.022 48.9532C103.022 48.9533 103.02 48.9542 103.018 48.9549C103.016 48.9557 103.013 48.9571 103.009 48.9587L103.927 51.159ZM103.952 51.1483L104.923 53.3258C105.027 53.2794 105.145 53.2215 105.266 53.1597L104.183 51.036L103.099 48.9123C103.057 48.9339 103.026 48.9495 103.004 48.9601C102.981 48.9714 102.975 48.9739 102.982 48.9708L103.952 51.1483ZM104.183 51.036L105.266 53.1596C105.515 53.0324 105.861 52.8462 106.308 52.5967L105.147 50.5145L103.986 48.4323C103.561 48.6696 103.273 48.8236 103.099 48.9123L104.183 51.036ZM105.147 50.5145L106.309 52.5967C107.209 52.0944 108.573 51.3067 110.507 50.1506L109.284 48.1043L108.061 46.058C106.151 47.1998 104.831 47.9613 103.986 48.4323L105.147 50.5145ZM109.284 48.1043L110.507 50.1506C113.382 48.4326 115.826 46.8666 117.73 45.6902L116.478 43.6619L115.225 41.6336C113.229 42.8664 110.902 44.3598 108.061 46.058L109.284 48.1043ZM116.478 43.6619L117.73 45.6903C119.72 44.4615 121.016 43.7282 121.815 43.453L121.038 41.1991L120.262 38.9451C118.863 39.427 117.092 40.4801 115.225 41.6336L116.478 43.6619ZM121.038 41.1991L121.815 43.453C127.566 41.4716 129.526 40.8975 137.727 39.943L137.451 37.575L137.176 35.207C128.628 36.2018 126.333 36.8534 120.262 38.9451L121.038 41.1991ZM137.451 37.575L137.727 39.9431C142.891 39.3421 147.379 40.1201 150.312 40.6333L150.723 38.285L151.134 35.9367C148.177 35.4193 143.089 34.5188 137.176 35.207L137.451 37.575ZM150.723 38.285L150.304 40.6319L150.386 40.6465L150.805 38.2996L151.224 35.9528L151.142 35.9381L150.723 38.285ZM150.805 38.2996L150.394 40.648C151.133 40.7773 151.574 40.874 152.042 41.0443L152.856 38.8035L153.671 36.5628C152.796 36.245 152.019 36.0919 151.216 35.9513L150.805 38.2996ZM152.856 38.8035L152.042 41.0442C152.521 41.2182 153.099 41.4953 154.052 42.0462L155.245 39.9823L156.438 37.9183C155.384 37.3091 154.53 36.8752 153.671 36.5629L152.856 38.8035ZM155.245 39.9823L154.052 42.0462C158.584 44.6661 162.561 47.7687 164.594 49.488L166.134 47.6678L167.673 45.8476C165.504 44.0126 161.291 40.7237 156.438 37.9183L155.245 39.9823ZM166.134 47.6678L164.594 49.488C165.978 50.6585 169.704 53.8235 174.872 58.1909L176.411 56.37L177.95 54.549C172.773 50.1742 169.078 47.0352 167.673 45.8476L166.134 47.6678ZM176.411 56.37L174.872 58.1909C178.734 61.4538 179.948 64.3973 181.245 68.6298L183.524 67.9315L185.804 67.2332C184.385 62.6018 182.812 58.6579 177.95 54.549L176.411 56.37ZM183.524 67.9315L181.245 68.6298C182.244 71.8902 183.197 74.7504 183.989 77.4466L186.276 76.7743L188.564 76.1019C187.774 73.4166 186.744 70.3018 185.804 67.2332L183.524 67.9315ZM186.276 76.7743L183.989 77.4465C184.774 80.1153 185.329 82.3953 185.514 84.3165L187.887 84.0877L190.26 83.8589C190.029 81.4666 189.365 78.8283 188.564 76.102L186.276 76.7743ZM187.887 84.0877L185.514 84.3165C185.755 86.8143 185.531 90.5084 185.268 93.5926L187.644 93.7948L190.019 93.9969C190.278 90.9509 190.548 86.847 190.26 83.859L187.887 84.0877ZM187.644 93.7948L185.268 93.5926C185.02 96.5048 184.623 98.5345 183.521 101.896L185.786 102.639L188.051 103.381C189.261 99.6927 189.738 97.3004 190.019 93.9969L187.644 93.7948ZM185.786 102.639L183.521 101.896C180.816 110.144 178.392 115.419 177.886 116.432L180.019 117.497L182.151 118.562C182.771 117.321 185.282 111.828 188.051 103.381L185.786 102.639ZM180.019 117.497L177.886 116.432C177.698 116.807 177.015 117.911 175.761 119.745L177.729 121.091L179.698 122.436C180.919 120.649 181.794 119.278 182.151 118.562L180.019 117.497ZM177.729 121.091L175.761 119.745C174.537 121.536 172.83 123.936 170.66 126.854L172.573 128.276L174.486 129.699C176.686 126.741 178.431 124.289 179.698 122.436L177.729 121.091ZM172.573 128.276L170.66 126.854C167.4 131.237 164.855 133.185 162.484 134.797L163.825 136.768L165.166 138.74C167.868 136.902 170.839 134.603 174.486 129.699L172.573 128.276ZM163.825 136.768L162.484 134.797C160.106 136.415 158.171 137.608 156.608 138.644L157.926 140.631L159.243 142.618C160.577 141.733 162.825 140.332 165.166 138.74L163.825 136.768ZM157.926 140.631L156.608 138.644C155.871 139.133 155.201 139.598 154.704 140.016L156.24 141.84L157.776 143.663C158.044 143.437 158.511 143.103 159.243 142.617L157.926 140.631ZM156.24 141.84L154.704 140.016C154.456 140.225 154.19 140.474 153.969 140.754L155.843 142.228L157.716 143.702C157.695 143.73 157.679 143.748 157.673 143.755C157.666 143.762 157.665 143.763 157.671 143.757C157.684 143.744 157.717 143.713 157.776 143.663L156.24 141.84ZM155.843 142.228L153.969 140.754C153.858 140.896 153.748 141.057 153.656 141.239L155.781 142.319L157.907 143.399C157.828 143.554 157.753 143.656 157.717 143.702L155.843 142.228ZM155.781 142.319L153.401 142.445C153.427 142.953 153.591 143.413 153.752 143.771L155.926 142.792L158.099 141.813C158.085 141.78 158.092 141.791 158.107 141.841C158.119 141.884 158.152 142.008 158.162 142.193L155.781 142.319ZM155.926 142.792L153.752 143.771C153.934 144.174 154.177 144.587 154.438 144.987L156.435 143.684L158.431 142.382C158.236 142.082 158.139 141.9 158.099 141.812L155.926 142.792ZM156.435 143.684L154.438 144.987C154.96 145.787 155.683 146.731 156.487 147.754L158.361 146.281L160.236 144.808C159.424 143.775 158.824 142.983 158.431 142.382L156.435 143.684ZM158.361 146.281L156.487 147.754C158.128 149.842 160.231 152.415 162.33 155.427L164.286 154.064L166.242 152.701C164.041 149.542 161.812 146.814 160.236 144.808L158.361 146.281ZM164.286 154.064L162.33 155.427C164.183 158.086 164.029 160.612 163.8 162.871L166.172 163.111L168.544 163.352C168.791 160.915 169.14 156.861 166.242 152.701L164.286 154.064ZM166.172 163.111L163.8 162.87C163.789 162.982 163.737 163.15 163.556 163.394C163.368 163.648 163.097 163.908 162.762 164.179L164.259 166.034L165.756 167.889C166.629 167.184 168.307 165.684 168.544 163.352L166.172 163.111ZM164.259 166.034L162.762 164.179C162.327 164.53 161.603 164.901 160.588 165.256L161.375 167.507L162.162 169.757C163.393 169.326 164.705 168.737 165.756 167.889L164.259 166.034ZM161.375 167.507L160.588 165.256C159.596 165.603 158.441 165.896 157.235 166.143L157.714 168.478L158.192 170.814C159.516 170.543 160.896 170.2 162.162 169.757L161.375 167.507ZM157.714 168.478L157.235 166.143C154.803 166.641 152.37 166.919 150.8 167.145L151.14 169.505L151.479 171.864C152.873 171.664 155.576 171.35 158.192 170.814L157.714 168.478ZM151.14 169.505L150.8 167.145C149.102 167.389 147.043 167.982 139.681 167.991L139.684 170.375L139.687 172.759C147.447 172.749 149.847 172.099 151.479 171.864L151.14 169.505ZM139.684 170.375L139.681 167.991C138.748 167.992 137.842 167.709 136.466 166.67L135.029 168.572L133.593 170.475C135.516 171.927 137.409 172.762 139.687 172.759L139.684 170.375ZM135.029 168.572L136.466 166.67C135.019 165.577 133.236 163.792 130.566 160.971L128.835 162.61L127.104 164.249C129.723 167.017 131.775 169.102 133.593 170.475L135.029 168.572ZM128.835 162.61L130.566 160.971C128.943 159.257 127.197 158.236 125.084 157.359L124.171 159.561L123.258 161.763C124.965 162.472 126.077 163.164 127.104 164.249L128.835 162.61ZM124.171 159.561L125.084 157.359C123.079 156.527 120.503 155.74 117.41 154.643L116.613 156.889L115.816 159.136C119.227 160.347 121.389 160.988 123.258 161.764L124.171 159.561ZM116.613 156.889L117.41 154.643C116.57 154.345 115.552 154.351 114.631 154.425L114.823 156.802L115.015 159.178C115.381 159.148 115.633 159.147 115.793 159.155C115.973 159.165 115.95 159.184 115.816 159.136L116.613 156.889ZM114.823 156.802L114.631 154.425C113.638 154.506 112.454 154.697 111.125 154.963L111.592 157.301L112.059 159.638C113.314 159.388 114.291 159.236 115.016 159.178L114.823 156.802ZM111.592 157.301L111.125 154.963C108.463 155.495 105.018 156.368 100.992 157.413L101.591 159.721L102.19 162.028C106.239 160.976 109.553 160.139 112.059 159.638L111.592 157.301ZM101.591 159.721L100.992 157.413C95.4255 158.859 92.9418 158.692 90.2644 157.972L89.6455 160.274L89.0266 162.577C92.7035 163.565 96.055 163.621 102.19 162.028L101.591 159.721ZM89.6455 160.274L90.2645 157.972C89.227 157.693 87.753 157.121 85.5314 156.187L84.6074 158.385L83.6835 160.582C85.868 161.501 87.6296 162.201 89.0265 162.576L89.6455 160.274ZM84.6074 158.385L85.5314 156.187C84.4349 155.726 83.1833 155.189 81.7405 154.572L80.8027 156.764L79.865 158.955C81.299 159.569 82.5692 160.114 83.6835 160.582L84.6074 158.385ZM80.8027 156.764L81.7405 154.572C80.3009 153.956 78.6752 153.261 76.8406 152.491L75.918 154.689L74.9954 156.888C76.8136 157.651 78.4264 158.34 79.865 158.955L80.8027 156.764ZM75.918 154.689L76.8406 152.491C76.1491 152.201 75.6476 151.94 75.2298 151.716L74.1045 153.818L72.9792 155.92C73.4589 156.177 74.1081 156.515 74.9954 156.888L75.918 154.689ZM74.1045 153.818L75.2299 151.717C74.8717 151.525 74.3717 151.242 73.895 151.075L73.1055 153.324L72.3159 155.574C72.297 155.567 72.3228 155.574 72.4462 155.637C72.5764 155.703 72.7249 155.784 72.9791 155.92L74.1045 153.818ZM73.1055 153.324L73.8945 151.074C73.6415 150.986 73.3138 150.892 72.8837 150.87L72.7637 153.251L72.6437 155.632C72.5788 155.629 72.4995 155.619 72.4162 155.6C72.3427 155.584 72.2989 155.568 72.3165 155.574L73.1055 153.324ZM72.7637 153.251L72.8823 150.87C72.4918 150.85 72.098 150.895 71.6918 150.967L72.1064 153.314L72.5211 155.662C72.6354 155.642 72.6961 155.635 72.7183 155.633C72.7389 155.631 72.709 155.635 72.645 155.632L72.7637 153.251ZM72.1064 153.314L71.6917 150.967C70.8977 151.107 69.691 151.422 67.7057 151.977L68.3477 154.273L68.9897 156.569C71.0314 155.998 72.0013 155.754 72.5212 155.662L72.1064 153.314ZM68.3477 154.273L67.7057 151.977C63.6763 153.104 56.0682 155.329 51.6021 156.731L52.3164 159.006L53.0307 161.28C57.4361 159.897 64.9939 157.687 68.9897 156.569L68.3477 154.273ZM52.3164 159.006L51.6021 156.731C45.9649 158.502 41.55 160.083 36.0778 161.398L36.6348 163.716L37.1917 166.034C42.8756 164.668 47.5915 162.988 53.0307 161.28L52.3164 159.006ZM36.6348 163.716L36.0779 161.398C34.6812 161.733 32.9264 160.925 30.8737 158.915L29.2061 160.619L27.5384 162.323C29.7185 164.457 33.1658 167.001 37.1917 166.034L36.6348 163.716ZM29.2061 160.619L30.8737 158.915C28.9241 157.007 27.2532 154.553 26.0888 152.879L24.1318 154.241L22.1749 155.603C23.2719 157.179 25.2043 160.038 27.5384 162.323L29.2061 160.619ZM24.1318 154.241L26.0888 152.88C25.1454 151.523 24.4792 149.534 24.0767 147.528L21.7393 147.997L19.4018 148.466C19.8567 150.734 20.687 153.464 22.1749 155.603L24.1318 154.241ZM21.7393 147.997L24.0767 147.528C23.6757 145.529 23.5863 143.772 23.6405 143.022L21.2627 142.85L18.8849 142.678C18.7907 143.98 18.9446 146.187 19.4018 148.466L21.7393 147.997ZM21.2627 142.85L23.6405 143.023C23.6429 142.99 23.6499 142.944 23.7061 142.854C23.7731 142.747 23.907 142.583 24.165 142.365L22.626 140.545L21.087 138.724C20.0864 139.57 19.0179 140.844 18.8849 142.678L21.2627 142.85ZM22.626 140.545L24.1648 142.366C24.7109 141.904 25.5501 141.405 26.776 140.739L25.6377 138.644L24.4994 136.55C23.3118 137.195 22.0571 137.904 21.0871 138.724L22.626 140.545ZM25.6377 138.644L26.776 140.739C29.1405 139.454 32.5547 137.754 36.1126 134.943L34.6348 133.072L33.1569 131.201C29.9935 133.701 27.0053 135.188 24.4994 136.55L25.6377 138.644ZM34.6348 133.072L36.1126 134.943C37.0548 134.198 38.0716 133.557 39.0432 132.959L37.7939 130.929L36.5447 128.898C35.5641 129.501 34.3376 130.269 33.1569 131.201L34.6348 133.072ZM37.7939 130.929L39.0432 132.959C39.9374 132.409 40.9585 131.803 41.6348 131.233L40.0986 129.41L38.5625 127.587C38.2349 127.863 37.6396 128.224 36.5447 128.898L37.7939 130.929ZM40.0986 129.41L41.6348 131.233C42.3055 130.668 42.8901 129.984 43.0975 129.112L40.7783 128.56L38.4591 128.008C38.5292 127.714 38.6457 127.535 38.6878 127.478C38.7267 127.424 38.7105 127.462 38.5624 127.587L40.0986 129.41ZM40.7783 128.56L43.0977 129.112C43.3246 128.157 42.9913 127.417 42.8426 127.106L40.6924 128.136L38.5421 129.165C38.5637 129.21 38.4949 129.081 38.4493 128.869C38.4234 128.748 38.405 128.604 38.4066 128.442C38.4081 128.279 38.4294 128.133 38.4589 128.009L40.7783 128.56ZM40.6924 128.136L42.8425 127.106C42.274 125.919 41.3289 124.825 39.8388 123.388L38.1836 125.103L36.5284 126.819C37.9518 128.192 38.3639 128.793 38.5423 129.165L40.6924 128.136ZM38.1836 125.103L39.8387 123.388C38.3338 121.936 36.0949 119.971 32.7733 117.06L31.2022 118.853L29.631 120.646C32.9942 123.594 35.1263 125.467 36.5285 126.819L38.1836 125.103ZM31.2022 118.853L32.7733 117.06C30.3187 114.909 25.8174 110.632 20.1361 105.812L18.5938 107.63L17.0514 109.448C22.7793 114.307 26.8937 118.248 29.631 120.646L31.2022 118.853ZM18.5938 107.63L20.1361 105.812C18.8858 104.751 18.2214 104.064 17.8158 103.516L15.8994 104.934L13.983 106.352C14.7154 107.342 15.7088 108.309 17.0514 109.448L18.5938 107.63ZM15.8994 104.934L17.8159 103.516C17.4459 103.016 17.2511 102.577 17.0428 101.908L14.7666 102.617L12.4904 103.326C12.7999 104.32 13.1978 105.291 13.9829 106.352L15.8994 104.934ZM14.7666 102.617L17.0429 101.908C16.6247 100.565 16.1912 98.426 15.6332 95.6786L13.2969 96.1532L10.9606 96.6277C11.4932 99.2496 11.9815 101.691 12.4903 103.326L14.7666 102.617ZM13.2969 96.1532L15.6332 95.6786C15.0858 92.9838 14.4359 89.8029 13.5948 86.5379L11.2861 87.1326L8.97751 87.7274C9.78397 90.8578 10.4118 93.9262 10.9606 96.6277L13.2969 96.1532ZM11.2861 87.1326L13.5948 86.5379C12.9093 83.8773 12.7781 83.1153 12.3326 80.8699L9.99414 81.3338L7.65572 81.7978C8.10311 84.0527 8.25616 84.9273 8.97751 87.7274L11.2861 87.1326ZM9.99414 81.3338L12.3326 80.8699C11.3031 75.6812 10.3886 69.8401 10.384 65.7549L8 65.7576L5.616 65.7603C5.6212 70.3476 6.62103 76.5827 7.65572 81.7978L9.99414 81.3338ZM8 65.7576L10.384 65.755C10.383 64.9043 10.7377 63.1978 11.5063 60.5362L9.21582 59.8748L6.9254 59.2135C6.18522 61.7769 5.61416 64.1248 5.616 65.7603L8 65.7576ZM9.21582 59.8748L11.5063 60.5362C12.2516 57.955 13.3126 54.7071 14.5754 50.8974L12.3125 50.1473L10.0496 49.3972C8.79108 53.1939 7.70062 56.5287 6.9254 59.2135L9.21582 59.8748ZM12.3125 50.1473L14.5754 50.8974C15.538 47.9935 17.3138 45.8635 20.5285 42.2713L18.752 40.6815L16.9754 39.0917C13.8427 42.5924 11.3696 45.4149 10.0496 49.3972L12.3125 50.1473ZM18.752 40.6815L20.5285 42.2713C23.1683 39.3215 25.7685 37.9523 27.9539 36.7446L26.8008 34.658L25.6477 32.5715C23.469 33.7755 20.2105 35.4768 16.9755 39.0917L18.752 40.6815ZM26.8008 34.658L27.9539 36.7446C30.7505 35.1992 33.4639 34.1665 36.2349 33.054L35.3467 30.8416L34.4585 28.6293C31.7933 29.6993 28.7605 30.8512 25.6477 32.5715L26.8008 34.658ZM35.3467 30.8416L36.2349 33.054C40.1876 31.4671 43.623 30.7794 45.2307 30.5627L44.9121 28.2L44.5935 25.8374C42.6445 26.1002 38.8205 26.878 34.4585 28.6293L35.3467 30.8416ZM44.9121 28.2L45.2304 30.5627C45.7345 30.4948 47.047 30.4647 49.1952 30.4824L49.2148 28.0985L49.2345 25.7145C47.2001 25.6978 45.5072 25.7143 44.5939 25.8374L44.9121 28.2ZM108.048 117.237L108.997 115.05C108.047 114.638 107.171 114.814 106.909 114.87L107.403 117.202L107.897 119.534C107.895 119.535 107.816 119.552 107.695 119.552C107.571 119.552 107.352 119.534 107.098 119.424L108.048 117.237ZM107.403 117.202L106.909 114.87C106.513 114.954 106.13 115.099 105.99 115.15L106.808 117.389L107.625 119.629C107.722 119.593 107.784 119.571 107.843 119.552C107.902 119.532 107.916 119.53 107.898 119.534L107.403 117.202ZM106.808 117.389L105.99 115.15C105.885 115.188 105.823 115.211 105.771 115.229C105.72 115.246 105.716 115.245 105.738 115.24L106.298 117.557L106.858 119.875C107.166 119.8 107.473 119.684 107.625 119.629L106.808 117.389ZM106.298 117.557L105.739 115.24C105.77 115.232 105.858 115.213 105.989 115.206C106.055 115.202 106.141 115.201 106.244 115.208C106.327 115.213 106.496 115.229 106.706 115.288L106.059 117.583L105.411 119.877C106.027 120.051 106.584 119.941 106.857 119.875L106.298 117.557ZM106.059 117.583L106.753 115.302L106.685 115.282L105.991 117.562L105.297 119.843L105.364 119.864L106.059 117.583ZM105.991 117.562V115.178H105.922V117.562V119.946H105.991V117.562ZM105.922 117.562L105.921 115.178C105.765 115.178 102.567 115.2 97.6891 115.261L97.7188 117.644L97.7484 120.028C100.185 119.998 102.198 119.977 103.619 119.965C104.329 119.958 104.892 119.954 105.285 119.951C105.482 119.949 105.636 119.948 105.745 119.947C105.799 119.947 105.842 119.947 105.873 119.947C105.889 119.946 105.901 119.946 105.91 119.946C105.92 119.946 105.924 119.946 105.923 119.946L105.922 117.562ZM97.7188 117.644L97.6891 115.261C94.2578 115.303 90.9805 116.989 88.5659 118.678L89.9326 120.632L91.2994 122.585C93.4143 121.105 95.7323 120.053 97.7485 120.028L97.7188 117.644ZM89.9326 120.632L88.5658 118.678C86.1309 120.382 84.0782 122.442 83.1126 123.875L85.0898 125.207L87.0671 126.539C87.6188 125.72 89.1982 124.055 91.2994 122.585L89.9326 120.632ZM85.0898 125.207L83.1123 123.875C82.0468 125.458 82.0104 127.185 82.0295 128.227L84.4131 128.183L86.7967 128.14C86.7804 127.252 86.876 126.823 87.0674 126.538L85.0898 125.207ZM84.4131 128.183L82.0295 128.227C82.0627 130.028 82.8345 131.528 83.6128 132.639L85.5654 131.271L87.518 129.904C87.0136 129.184 86.8054 128.61 86.7967 128.139L84.4131 128.183ZM85.5654 131.271L83.6129 132.639C84.3909 133.75 85.3566 134.722 86.09 135.45L87.7695 133.758L89.4491 132.066C88.703 131.325 88.0225 130.624 87.5179 129.903L85.5654 131.271ZM87.7695 133.758L86.09 135.45C88.3454 137.689 91.189 138.83 93.8876 139.476L94.4424 137.157L94.9972 134.839C92.7525 134.301 90.8471 133.454 89.4491 132.066L87.7695 133.758ZM94.4424 137.157L93.8876 139.476C96.5686 140.117 99.3723 140.325 101.645 140.51L101.838 138.134L102.031 135.757C99.6713 135.566 97.2533 135.378 94.9972 134.839L94.4424 137.157ZM101.838 138.134L101.645 140.51C103.508 140.661 105.136 140.003 106.474 139.245L105.299 137.171L104.124 135.096C103.151 135.647 102.52 135.797 102.031 135.757L101.838 138.134ZM105.299 137.171L106.474 139.245C107.786 138.502 109.165 137.453 110.492 136.465L109.069 134.553L107.646 132.64C106.207 133.71 105.114 134.536 104.124 135.096L105.299 137.171ZM109.069 134.553L110.492 136.465C114.238 133.679 115.285 130.737 116.195 128.138L113.945 127.349L111.695 126.561C110.859 128.948 110.202 130.739 107.646 132.64L109.069 134.553ZM113.945 127.349L116.19 128.151L116.22 128.069L113.975 127.267L111.729 126.466L111.7 126.548L113.945 127.349ZM113.975 127.267L116.358 127.214L116.356 127.127L113.973 127.181L111.589 127.234L111.591 127.321L113.975 127.267ZM113.973 127.181L116.356 127.123C116.303 124.945 115.175 122.659 114.05 120.866L112.03 122.133L110.011 123.399C111.05 125.055 111.569 126.415 111.589 127.238L113.973 127.181ZM112.03 122.133L114.05 120.866C112.854 118.96 111.335 117.105 109.93 115.683L108.234 117.359L106.539 119.035C107.725 120.235 109.019 121.819 110.011 123.4L112.03 122.133ZM108.234 117.359L109.92 115.673L109.881 115.634L108.195 117.32L106.51 119.006L106.549 119.045L108.234 117.359ZM108.195 117.32L109.478 115.311L109.432 115.281L108.149 117.291L106.867 119.3L106.913 119.33L108.195 117.32ZM108.149 117.291L109.264 115.183L109.162 115.13L108.048 117.237L106.933 119.345L107.035 119.398L108.149 117.291ZM149.562 62.3817L150.314 60.1192C147.879 59.3104 144.813 59.2187 140.413 60.0943L140.878 62.4325L141.343 64.7706C145.31 63.9814 147.458 64.1949 148.811 64.6441L149.562 62.3817ZM140.878 62.4325L140.413 60.0943C135.563 61.0593 130.712 61.5954 128.759 61.8211L129.033 64.1893L129.307 66.5575C131.236 66.3346 136.274 65.7792 141.343 64.7706L140.878 62.4325ZM129.033 64.1893L129.899 61.9679C129.41 61.7776 128.858 61.7177 128.305 61.8272L128.768 64.1659L129.231 66.5045C128.862 66.5775 128.493 66.5374 128.168 66.4107L129.033 64.1893ZM128.768 64.1659L128.305 61.8272C128.155 61.8568 127.88 61.909 127.555 62.0037L128.221 64.2928L128.887 66.5819C128.983 66.5539 129.062 66.5379 129.231 66.5045L128.768 64.1659ZM128.221 64.2928L127.554 62.0038C127.153 62.1207 126.736 62.2819 126.25 62.5113L127.269 64.6668L128.287 66.8224C128.595 66.6768 128.774 66.6146 128.887 66.5818L128.221 64.2928ZM127.269 64.6668L126.3 62.4883L126.292 62.4922L127.26 64.6707L128.228 66.8493L128.237 66.8454L127.269 64.6668ZM127.26 64.6707L126.194 62.5384L126.184 62.5433L127.25 64.6756L128.316 66.8079L128.326 66.8031L127.26 64.6707ZM127.25 64.6756L126.14 62.5658C124.261 63.5545 122.473 64.6933 120.559 66.6693L122.271 68.328L123.984 69.9866C125.445 68.4779 126.778 67.6181 128.36 66.7854L127.25 64.6756ZM122.271 68.328L120.514 66.717L120.503 66.7288L122.261 68.3397L124.018 69.9506L124.029 69.9389L122.271 68.328ZM122.261 68.3397L120.441 66.7998L120.43 66.8124L122.25 68.3524L124.07 69.8923L124.081 69.8796L122.261 68.3397ZM122.25 68.3524L120.427 66.8165C118.966 68.5507 117.491 70.3422 116.257 72.0739L118.199 73.4569L120.141 74.8398C121.253 73.2792 122.618 71.6156 124.073 69.8883L122.25 68.3524ZM118.199 73.4569L116.257 72.0739C115.044 73.7772 113.937 75.5961 113.341 77.3896L115.603 78.1424L117.865 78.8952C118.236 77.7786 119.017 76.4189 120.141 74.8398L118.199 73.4569ZM115.603 78.1424L113.34 77.3897C111.773 82.1017 110.472 87.3152 113.061 94.6872L115.311 93.8973L117.56 93.1074C115.475 87.1712 116.446 83.1593 117.865 78.8951L115.603 78.1424ZM115.311 93.8973L113.061 94.6872C113.844 96.9155 115.341 99.8346 118.66 102.707L120.22 100.904L121.78 99.1015C119.194 96.8639 118.117 94.6945 117.56 93.1074L115.311 93.8973ZM120.22 100.904L118.66 102.707C120.231 104.067 121.95 105.193 123.53 106.174L124.787 104.148L126.045 102.123C124.516 101.174 123.057 100.207 121.78 99.1015L120.22 100.904ZM124.787 104.148L123.53 106.174C125.18 107.198 126.571 108.004 127.83 108.88L129.192 106.924L130.555 104.967C129.159 103.995 127.526 103.043 126.045 102.123L124.787 104.148ZM129.192 106.924L127.83 108.88C129.159 109.806 130.516 111.131 132.243 112.615L133.797 110.806L135.35 108.998C133.953 107.798 132.145 106.075 130.555 104.967L129.192 106.924ZM133.797 110.806L132.243 112.615C133.034 113.294 133.901 113.998 134.768 114.547L136.044 112.533L137.32 110.519C136.754 110.161 136.097 109.64 135.35 108.998L133.797 110.806ZM136.044 112.533L134.768 114.547C135.567 115.053 136.736 115.673 138.07 115.717L138.149 113.335L138.229 110.952C138.243 110.953 138.172 110.952 137.994 110.88C137.818 110.81 137.595 110.694 137.32 110.519L136.044 112.533ZM138.149 113.335L138.071 115.717C139.15 115.753 140.781 115.794 142.802 115.264L142.196 112.958L141.591 110.652C140.263 111.001 139.2 110.984 138.228 110.952L138.149 113.335ZM142.196 112.958L142.802 115.264C144.822 114.733 147.085 113.676 149.63 111.715L148.175 109.827L146.72 107.939C144.615 109.56 142.92 110.303 141.591 110.652L142.196 112.958ZM148.175 109.827L149.633 111.713L149.835 111.557L148.377 109.671L146.919 107.785L146.717 107.941L148.175 109.827ZM148.377 109.671L149.832 111.559C151.717 110.107 153.567 108.682 155.099 107.368L153.547 105.558L151.995 103.749C150.577 104.965 148.836 106.308 146.922 107.782L148.377 109.671ZM153.547 105.558L155.099 107.368C156.58 106.098 158.017 104.723 158.886 103.338L156.866 102.071L154.847 100.804C154.393 101.527 153.447 102.504 151.995 103.749L153.547 105.558ZM156.866 102.071L158.886 103.338C159.716 102.014 161.222 99.4996 162.521 96.6483L160.352 95.66L158.182 94.6717C157.007 97.251 155.624 99.5651 154.846 100.805L156.866 102.071ZM160.352 95.66L162.521 96.6483C163.777 93.8903 165.029 90.4222 164.989 87.3058L162.605 87.3358L160.222 87.3658C160.247 89.3719 159.385 92.0304 158.182 94.6717L160.352 95.66ZM162.605 87.3358L164.989 87.3057C164.911 81.0778 164.705 77.6149 162.279 73.6832L160.25 74.9354L158.221 76.1876C159.88 78.8752 160.143 81.0922 160.222 87.3658L162.605 87.3358ZM160.25 74.9354L162.279 73.6832C161.144 71.845 160.232 70.0382 159.062 68.0151L156.998 69.2088L154.934 70.4026C155.9 72.0717 157.081 74.3393 158.221 76.1875L160.25 74.9354ZM156.998 69.2088L159.062 68.015C158.057 66.2787 156.763 64.1956 155.16 63.0275L153.756 64.9539L152.351 66.8804C153.016 67.3646 153.859 68.5427 154.934 70.4026L156.998 69.2088ZM153.756 64.9539L155.16 63.0276C154.255 62.3675 152.654 60.8967 150.314 60.1193L149.562 62.3817L148.811 64.6441C150.226 65.1143 150.921 65.8376 152.351 66.8803L153.756 64.9539ZM71.2451 57.286L71.3513 54.9043C65.764 54.6552 60.4996 54.6977 57.6151 54.7451L57.6543 57.1287L57.6935 59.5124C60.5379 59.4657 65.6923 59.4248 71.1389 59.6676L71.2451 57.286ZM57.6543 57.1287L57.6151 54.7451C56.1989 54.7683 55.2223 54.7924 54.2297 54.9056L54.5 57.2743L54.7703 59.6429C55.4986 59.5598 56.2516 59.5361 57.6935 59.5124L57.6543 57.1287ZM54.5 57.2743L54.2296 54.9056C53.2324 55.0195 52.2743 55.2168 50.8798 55.5228L51.3906 57.8514L51.9015 60.18C53.3053 59.8721 54.0447 59.7257 54.7704 59.6429L54.5 57.2743ZM51.3906 57.8514V55.4674H51.3877V57.8514V60.2354H51.3906V57.8514ZM51.3877 57.8514L50.86 55.5265C47.0419 56.3931 43.6081 57.131 41.0789 57.7396L41.6367 60.0575L42.1945 62.3753C44.6895 61.7749 48.0074 61.0633 51.9154 60.1763L51.3877 57.8514ZM41.6367 60.0575L41.0789 57.7396C39.8088 58.0453 38.6897 58.3368 37.8081 58.6153L38.5264 60.8885L39.2446 63.1617C39.9629 62.9348 40.9514 62.6744 42.1945 62.3753L41.6367 60.0575ZM38.5264 60.8885L37.8081 58.6153C37.3685 58.7542 36.9364 58.906 36.5518 59.0731L37.502 61.2596L38.4521 63.4461C38.6254 63.3708 38.8848 63.2754 39.2447 63.1617L38.5264 60.8885ZM37.502 61.2596L36.5516 59.0732C36.2255 59.215 35.689 59.4687 35.2222 59.8877L36.8145 61.6619L38.4067 63.4362C38.365 63.4737 38.3332 63.4969 38.3179 63.5075C38.3023 63.5184 38.2965 63.5213 38.3041 63.5169C38.3115 63.5127 38.3272 63.5041 38.3533 63.4914C38.3792 63.4787 38.4118 63.4636 38.4523 63.446L37.502 61.2596ZM36.8145 61.6619L35.222 59.8878C34.1904 60.8137 32.838 62.1325 31.7299 63.666L33.6621 65.0623L35.5944 66.4587C36.4137 65.325 37.4802 64.2679 38.4069 63.4361L36.8145 61.6619ZM33.6621 65.0623L31.7298 63.666C30.6632 65.142 29.5547 67.1816 29.579 69.4888L31.9629 69.4637L34.3468 69.4386C34.3384 68.6478 34.7476 67.6305 35.5944 66.4587L33.6621 65.0623ZM31.9629 69.4637L29.579 69.4892C29.5961 71.0813 29.5814 72.7862 30.0202 74.4272L32.3232 73.8114L34.6263 73.1955C34.3765 72.2612 34.366 71.2379 34.3468 69.4382L31.9629 69.4637ZM32.3232 73.8114L30.0202 74.4274C30.4996 76.2197 31.4487 77.7612 32.9922 79.4077L34.7314 77.7772L36.4707 76.1467C35.3019 74.8999 34.8491 74.0283 34.6263 73.1953L32.3232 73.8114ZM34.7314 77.7772L32.9922 79.4077C34.9793 81.5272 36.7559 82.8342 38.0244 83.8415L39.5068 81.9744L40.9893 80.1074C39.6157 79.0167 38.1636 77.9524 36.4707 76.1466L34.7314 77.7772ZM39.5068 81.9744L38.0243 83.8414C39.299 84.8536 39.9841 85.5059 40.5032 86.4786L42.6064 85.3563L44.7097 84.2339C43.7052 82.3514 42.359 81.1951 40.9893 80.1074L39.5068 81.9744ZM42.6064 85.3563L40.5031 86.4785C41.896 89.0893 43.1905 91.5736 44.2905 93.5519L46.374 92.3934L48.4576 91.2349C47.384 89.3041 46.1378 86.9107 44.7098 84.2341L42.6064 85.3563ZM46.374 92.3934L44.2905 93.5519C45.3388 95.4373 46.409 97.2385 47.3888 98.2773L49.1231 96.6414L50.8573 95.0056C50.3588 94.4772 49.5651 93.2266 48.4576 91.2348L46.374 92.3934ZM49.1231 96.6414L47.3891 98.2775C48.1546 99.0888 48.9685 99.7401 49.621 100.255L51.0986 98.3846L52.5763 96.5138C51.9275 96.0014 51.3599 95.5383 50.857 95.0053L49.1231 96.6414ZM51.0986 98.3846L49.621 100.255C50.3261 100.812 50.8032 101.183 51.2029 101.583L52.8887 99.8973L54.5744 98.2116C53.9307 97.5678 53.1901 96.9986 52.5763 96.5138L51.0986 98.3846ZM52.8887 99.8973L51.2028 101.583C52.1968 102.577 53.5135 103.953 55.6979 105.286L56.9395 103.251L58.181 101.216C56.542 100.216 55.5883 99.2256 54.5745 98.2117L52.8887 99.8973ZM56.9395 103.251L55.698 105.286C57.8709 106.612 60.7842 107.831 65.0421 108.844L65.5938 106.524L66.1454 104.205C62.2481 103.278 59.8284 102.221 58.181 101.216L56.9395 103.251ZM65.5938 106.524L65.0422 108.844C69.0378 109.794 74.4499 111.164 79.2106 108.284L77.9766 106.244L76.7425 104.204C73.9308 105.905 70.5644 105.256 66.1453 104.205L65.5938 106.524ZM77.9766 106.244L79.2106 108.284C81.8652 106.678 84.159 104.997 85.9481 103.469L84.3994 101.656L82.8507 99.8436C81.2686 101.196 79.1868 102.725 76.7425 104.204L77.9766 106.244ZM84.3994 101.656L85.9481 103.469C87.6709 101.996 89.1217 100.5 89.8869 99.2341L87.8467 98.0008L85.8065 96.7675C85.4486 97.3595 84.4768 98.4542 82.8507 99.8436L84.3994 101.656ZM87.8467 98.0008L89.887 99.234C91.4971 96.57 94.7119 92.6051 92.955 86.1734L90.6553 86.8016L88.3555 87.4298C89.4747 91.527 87.7123 93.6143 85.8064 96.7677L87.8467 98.0008ZM90.6553 86.8016L92.955 86.1734C91.1706 79.641 89.3929 74.2274 85.8806 69.5922L83.9805 71.0321L82.0804 72.4719C84.9885 76.3097 86.5784 80.9242 88.3555 87.4298L90.6553 86.8016ZM83.9805 71.0321L85.8806 69.5922C82.6246 65.2955 79.4601 61.8145 77.1015 59.4039L75.3975 61.0711L73.6934 62.7384C75.9431 65.0377 78.9697 68.3669 82.0804 72.4719L83.9805 71.0321ZM75.3975 61.0711L77.1015 59.4039C75.9211 58.1974 74.9383 57.2551 74.243 56.609L72.6201 58.3553L70.9972 60.1016C71.6413 60.7002 72.5697 61.5898 73.6934 62.7384L75.3975 61.0711ZM72.6201 58.3553L74.243 56.609C73.898 56.2884 73.6197 56.0361 73.4202 55.8594L71.8398 57.6444L70.2595 59.4293C70.4238 59.5747 70.673 59.8003 70.9972 60.1016L72.6201 58.3553ZM71.8398 57.6444L73.4201 55.8593C73.3189 55.7698 73.2365 55.6985 73.1756 55.6465L71.6279 57.4598L70.0802 59.2731C70.1188 59.306 70.1795 59.3585 70.2596 59.4294L71.8398 57.6444ZM71.6279 57.4598L73.1754 55.6463C73.1514 55.6258 73.1126 55.5928 73.0743 55.5615L71.5664 57.408L70.0585 59.2546C70.0556 59.2522 70.0541 59.2509 70.0543 59.2511C70.0545 59.2513 70.0557 59.2523 70.058 59.2542C70.0629 59.2584 70.07 59.2644 70.0805 59.2733L71.6279 57.4598ZM71.5664 57.408L73.0727 55.5602C73.0427 55.5357 73.0114 55.5112 72.9826 55.4892L71.5391 57.3866L70.0956 59.2839C70.0895 59.2792 70.0844 59.2753 70.08 59.2718C70.0759 59.2686 70.0692 59.2633 70.0601 59.2559L71.5664 57.408ZM71.5391 57.3866L72.9793 55.4868C72.9571 55.47 72.9055 55.4312 72.839 55.3867L71.5117 57.367L70.1844 59.3474C70.1614 59.3319 70.1432 59.319 70.1309 59.3101C70.1182 59.3009 70.1073 59.2928 70.0988 59.2863L71.5391 57.3866ZM71.5117 57.367L72.835 55.384C72.7869 55.3519 72.7092 55.3023 72.6113 55.2491L71.4727 57.3436L70.334 59.4381C70.3012 59.4202 70.2737 59.404 70.2522 59.3908C70.2307 59.3777 70.2097 59.3642 70.1885 59.3501L71.5117 57.367ZM71.4727 57.3436L72.578 55.2313C72.4958 55.1883 72.4054 55.1471 72.3365 55.1184L71.4199 57.3192L70.5034 59.5199C70.484 59.5119 70.4699 59.5056 70.4633 59.5027C70.4557 59.4993 70.4495 59.4965 70.4444 59.4941C70.4394 59.4918 70.4325 59.4885 70.4235 59.4842C70.4179 59.4815 70.3964 59.4711 70.3673 59.4559L71.4727 57.3436ZM71.4199 57.3192L72.2178 55.0726C71.9441 54.9755 71.6652 54.934 71.5158 54.9182L71.2647 57.2889L71.0135 59.6596C70.9529 59.6532 70.9116 59.6456 70.8881 59.6409C70.8736 59.638 70.8507 59.6332 70.8205 59.6257C70.8052 59.6219 70.7824 59.6161 70.7543 59.6081C70.7293 59.6009 70.6818 59.5869 70.6221 59.5657L71.4199 57.3192ZM71.2647 57.2889L73.5263 58.0428L73.5273 58.0399L71.2656 57.286L69.004 56.5321L69.003 56.535L71.2647 57.2889ZM71.2656 57.286L71.3636 54.904C71.3375 54.9029 71.3143 54.9024 71.2949 54.9021C71.2756 54.9019 71.259 54.9019 71.2462 54.9019C71.2335 54.902 71.2231 54.9022 71.2167 54.9023C71.2134 54.9023 71.2107 54.9024 71.209 54.9024C71.2081 54.9025 71.2074 54.9025 71.2069 54.9025C71.2065 54.9025 71.206 54.9025 71.2059 54.9025C71.2048 54.9025 71.2088 54.9024 71.2138 54.9024C71.2192 54.9023 71.2286 54.9021 71.2404 54.9021C71.2523 54.902 71.2679 54.902 71.2863 54.9023C71.3048 54.9026 71.327 54.9032 71.3523 54.9043L71.2461 57.286L71.1399 59.6676C71.1668 59.6688 71.1906 59.6694 71.2107 59.6697C71.2307 59.6701 71.248 59.6701 71.2615 59.67C71.2749 59.67 71.2859 59.6698 71.293 59.6697C71.2997 59.6696 71.3053 59.6695 71.3058 59.6695C71.3078 59.6694 71.3041 59.6695 71.2999 59.6696C71.2952 59.6696 71.2864 59.6698 71.2753 59.6699C71.2642 59.6699 71.2492 59.6699 71.2315 59.6697C71.2137 59.6695 71.1922 59.669 71.1676 59.668L71.2656 57.286ZM71.2461 57.286L72.9318 55.6002L72.9309 55.5992L71.2451 57.285L69.5594 58.9707L69.5604 58.9717L71.2461 57.286ZM71.2451 57.285H68.8611V57.286H71.2451H73.6291V57.285H71.2451Z" fill="#361700"/>
<path d="M20.4155 148.632C20.2466 148.038 20.2176 147.367 20.2107 146.823C20.1952 146.363 20.2051 145.724 20.3121 145.133C20.5775 143.681 21.2784 142.777 21.8198 142.143C23.2953 140.505 24.3508 139.515 26.3771 137.888C28.6674 135.868 34.3543 132.812 37.9851 130.655L38.0422 130.618C39.0301 130.044 40.0276 129.702 40.5161 129.478C41.6455 128.931 42.6281 128.267 42.8042 128.522C42.8042 128.522 42.8042 128.522 42.8042 128.522C42.811 128.53 42.8168 128.539 42.8216 128.549C42.9121 128.742 42.151 129.662 42.1514 129.944C42.1306 130.2 43.0315 131.092 42.062 132.1C41.9281 132.23 41.7614 132.354 41.57 132.462C41.0055 132.776 40.4099 133.037 39.7703 133.417L39.8141 133.389C37.3629 134.963 33.9869 136.533 33.1601 137.082C32.4073 137.55 31.5639 138.237 30.6651 138.889C27.9001 140.939 26.4782 142.166 24.7653 144.635C24.7192 144.707 24.6772 144.779 24.6385 144.851C24.0985 145.362 23.8209 145.63 23.7567 146.492C23.7377 146.835 23.7202 147.155 23.7214 147.452C23.8026 147.791 23.8953 148.118 24.0412 148.432C24.7464 150.01 25.1124 151.644 25.4252 152.399C25.7406 153.201 26.0639 153.614 26.4085 154.428C26.7999 155.334 27.2458 156.811 28.1842 158.295C29.79 160.657 30.5457 160.626 31.7333 161.274C32.122 161.45 32.5711 161.612 33.0864 161.68C34.6704 161.882 36.5277 162.036 38.0551 161.783C38.3265 161.713 38.593 161.635 38.8537 161.551C38.6471 161.482 38.4432 161.408 38.2411 161.33C39.2948 161.152 39.7771 161.261 40.6879 160.982C40.7197 160.971 40.7509 160.961 40.7815 160.95C41.9192 160.553 42.4735 160.157 43.2602 159.871C43.9345 159.625 44.8918 159.433 45.7567 159.092C47.0162 158.594 46.6614 158.489 47.3249 158.186C47.589 158.072 52.5721 155.969 52.8615 155.854C55.0299 154.993 55.3291 155.205 57.0832 154.564C62.0954 152.95 66.4655 150.252 72.7668 150.634C72.7723 150.635 72.7777 150.636 72.7832 150.637C75.092 151.161 76.2129 152.211 77.5441 153.038C78.0787 153.4 78.5787 153.74 79.0994 154.093C75.892 152.963 81.7148 157.422 80.0776 154.918C81.9405 156.301 83.528 156.875 85.3975 157.987C86.6079 158.694 87.3849 159.32 89.1745 160.147C92.3677 161.688 95.5966 161.716 96.531 162.259C96.55 162.277 96.569 162.296 96.5879 162.316C99.7759 161.311 103.343 159.033 104.255 157.716C105.192 157.102 107.959 156.078 109.155 155.585C109.718 155.358 112.112 154.191 114.888 153.625C117.655 152.936 120.816 153.689 121.563 154.148C122.378 154.503 123.423 155.186 124.241 156.022C124.95 156.732 125.596 157.435 126.03 157.876C127.141 159.007 128.448 159.347 129.534 162.027C131.706 164.332 132.424 165.217 134.585 166.946C134.983 167.24 134.959 167.383 135.205 167.53C135.31 167.591 135.431 167.654 135.565 167.717C136.142 167.992 136.942 168.315 137.764 168.652C139.45 169.342 140.383 169.843 140.306 169.368C141.46 169.615 142.62 169.74 143.784 169.749C144.185 169.864 144.594 169.966 145.01 170.056C145.647 169.967 146.279 169.848 146.909 169.706C146.192 170.464 150.735 169.526 149.191 169.345C149.79 169.294 150.394 169.229 151.002 169.156C152.851 168.926 154.686 168.762 156.468 168.546C156.361 168.935 157.694 168.74 158.893 168.31C160.115 167.891 161.04 167.171 160.762 167.075C160.977 166.98 161.18 166.88 161.374 166.771C161.689 166.632 161.971 166.467 162.221 166.275C163.417 165.35 164.275 164.394 164.346 163.406C164.375 163.058 164.364 162.662 164.312 162.23C163.837 159.726 163.746 159.902 163.733 158.99C163.415 158.401 163.059 157.825 162.681 157.265C162.453 157.053 162.255 156.863 162.078 156.684C160.113 154.73 161.208 154.014 157.099 149.843C156.477 147.812 152.354 144.381 152.501 140.052C152.522 139.836 152.52 139.713 152.519 139.58C152.568 139.222 152.716 138.921 152.975 138.618C154.132 137.378 156.82 136.002 156.541 135.7C157.513 135.187 158.481 134.662 159.434 134.117C160.123 133.549 160.801 132.97 161.469 132.375C161.396 132.287 161.324 132.199 161.251 132.111C162.913 131.349 164.968 129.41 166.037 128.537C166.25 128.365 166.412 128.435 167.059 127.881C167.814 127.239 169.069 125.915 169.918 125.06C169.932 125.045 169.947 125.031 169.962 125.016C170.143 124.564 170.323 124.102 170.496 123.639C171.811 121.972 172.619 121.664 173.423 120.689C173.59 120.527 175.985 117.152 176.078 116.949C177.001 115.375 176.513 115.658 179.182 111.162C179.644 110.354 180.113 109.749 180.494 108.997C181.224 107.684 182.604 103.438 182.391 103.019C183.178 101.748 184.015 98.3584 184.195 96.4735C184.246 96.0619 184.292 95.7077 184.333 95.4657C184.404 95.0355 184.647 94.9614 184.797 93.6426C184.929 92.5724 184.861 89.8084 184.858 88.4608C184.87 87.0263 185.023 86.5106 184.998 85.8641C184.971 85.2583 184.775 84.7118 184.687 83.8941C184.415 81.3438 184.163 79.015 183.57 77.0696C182.778 74.4738 181.4 72.4364 180.062 70.6603C179.942 70.5003 179.825 70.3408 179.709 70.1816C179.407 69.6315 179.167 69.0552 178.822 68.4956C175.095 62.5744 170.999 55.6771 165.992 50.9589C165.173 50.2313 164.342 49.5335 163.506 48.8723C160.755 46.3604 152.747 41.6467 154.493 43.7086C154.06 43.5711 152.763 42.9372 151.136 42.2683C148.053 40.8749 144.123 39.6484 142.98 39.5338C141.26 39.2519 139.885 39.3545 138.523 39.3403C134.42 39.3689 131.447 39.6636 126.535 41.1616C125.28 41.5561 123.972 42.2106 123.248 42.4563C122.967 42.5507 122.669 42.6307 122.355 42.7106C121.683 42.8805 120.977 43.0379 120.201 43.3491C117.486 44.3473 112.89 47.1297 110.712 48.8574C110.302 49.1646 110.053 49.1211 109.443 49.538C107.111 51.1504 104.633 53.4307 105.447 53.4802C104.694 54.0021 103.988 54.5696 102.927 55.0971C102.39 55.345 101.669 55.6403 100.697 55.5309C99.7133 55.4182 98.9449 54.8155 98.5161 54.3247C97.1651 52.7742 96.0011 51.4388 94.7691 50.049C90.2492 44.4098 79.9402 36.178 73.9901 34.3811C73.9821 34.3782 73.9742 34.3752 73.9662 34.3722C70.2236 33.0245 70.196 33.0952 64.9228 31.1572C63.7517 30.7704 62.5957 30.4206 61.1864 30.2038C60.5063 30.1012 59.839 30.0282 59.1824 29.998C56.2978 29.8891 53.6569 29.7225 51.4148 30.2599C47.2654 30.2331 44.0331 30.508 41.0494 30.4793C40.7305 30.6554 40.4132 30.8374 40.1076 31.0251C39.6525 31.1226 39.1951 31.2362 38.7702 31.3644C38.601 31.2934 38.4391 31.2224 38.2663 31.1575C37.9216 31.2681 37.5781 31.4042 37.2703 31.5611C34.208 33.0847 30.886 35.1644 28.5936 36.5216C25.5104 38.2669 18.9612 42.5203 16.5228 47.4054C15.3824 49.5272 14.525 51.366 14.0088 52.6329C13.0778 54.9689 13.3243 55.1739 12.4481 56.4374C12.341 56.9939 12.2443 57.5585 12.1605 58.1164C12.1935 58.4941 12.235 58.8524 12.2778 59.224C11.6614 62.4018 11.1841 66.2591 11.138 69.4053C11.076 72.531 11.3073 76.4653 11.6962 80.3801C12.0139 83.6773 12.3874 86.8431 12.8774 89.3383C13.1321 90.7106 13.4235 92.4478 13.9376 93.7261C14.2043 94.398 14.4638 94.8595 14.7295 95.2841C15.2167 96.0686 15.6968 96.7488 16.4133 98.2677C18.2532 102.404 21.9836 109.893 24.9654 112.844C25.7731 113.711 26.2791 114.016 26.8699 114.537C26.895 114.559 26.9202 114.581 26.9456 114.604C29.6797 117.034 31.9929 118.971 34.9311 120.844C37.7576 123.298 37.2786 123.459 38.0126 124.494C38.6115 125.282 40.4092 127.306 41.2487 127.701C41.5929 127.839 41.0339 127.934 40.7678 127.974C40.4893 128.027 40.2422 128.073 40.4537 128.277C35.5639 126.262 34.4266 124.833 31.5136 122.308C29.2011 120.547 26.9887 118.672 24.8592 116.705C21.7601 113.837 19.3138 110.416 17.238 106.87C17.0311 106.249 16.8349 105.628 16.6481 105.008C16.6484 105.008 16.6487 105.007 16.6489 105.007C15.5135 102.58 14.7342 101.713 14.0366 100.448C13.3875 99.2592 12.7139 97.9369 12.0146 96.5319C9.76115 92.2498 8.75478 86.4155 8.33188 80.6659C7.07351 68.5198 8.66445 54.156 13.7161 45.9826C13.795 45.8293 13.8753 45.6783 13.9568 45.5297C15.2022 41.9872 23.8196 34.9543 25.9893 34.2338C26.5199 33.9789 26.7665 34.0713 27.3058 33.7679C30.1556 32.0298 33.1241 30.5075 36.0518 29.0247C38.311 27.9399 40.5564 27.6108 42.7746 27.2916C48.2379 26.8743 53.666 26.9221 59.102 26.7449C65.1025 26.6485 70.2999 29.174 75.3206 31.1522C75.8228 31.3601 76.315 31.5744 76.8047 31.7979C86.6551 36.2676 94.6361 44.0486 101.035 52.1129C101.123 52.2131 101.176 52.2354 101.157 52.2244C101.14 52.2109 101.066 52.2076 101.104 52.2056C101.177 52.2063 101.551 52.0431 101.911 51.7883C102.642 51.2841 103.458 50.5514 104.256 49.847C105.864 48.4123 107.562 46.9353 109.347 45.6134C112.927 42.9386 116.926 40.7914 121.144 39.2932C130.859 35.6429 142.719 34.357 152.388 39.0202C153.327 39.3833 154.254 39.7762 155.167 40.1969C159.453 42.138 164.308 45.1913 168.098 48.5328C169.225 49.5172 170.175 50.5459 171.013 51.5346C172.592 53.4399 172.951 54.4315 175.011 56.8548C174.959 56.9337 174.906 57.0125 174.853 57.0913C176.539 59.2816 177.683 60.6339 179.369 63.2148C180.154 64.4182 181.616 66.7335 182.938 68.9061C184.072 70.7532 184.886 72.615 185.265 73.6139C185.698 74.7781 185.382 74.4036 185.758 75.4875C186.436 77.3325 187.57 81.3989 187.781 84.0978C188.059 86.5378 187.858 90.6276 187.756 92.4693C187.699 93.9055 187.603 95.3635 187.48 96.8247C186.984 102.438 184.874 107.934 182.132 112.808C181.167 114.536 179.642 116.555 179.308 117.073C178.665 118.084 178.635 118.496 178.201 119.176C176.717 121.495 174.361 124.48 171.966 126.964C170.805 128.165 169.664 129.256 168.698 130.161C166.517 132.206 164.16 134.145 161.696 135.926C160.458 136.823 159.196 137.676 157.934 138.506C157.307 138.92 156.674 139.33 156.09 139.73C155.792 139.935 155.518 140.129 155.284 140.316C155.169 140.408 155.07 140.497 155.024 140.546C154.971 140.572 155.01 140.678 155.16 140.21C154.935 144.444 161.214 149.832 164.486 155.044C164.891 155.64 165.274 156.252 165.631 156.887C166.543 158.599 167.668 160.675 167.584 163.598C167.436 166.08 165.614 167.709 164.352 168.776C159.818 172.018 155.262 171.558 151.58 172.397C149.589 172.735 147.702 172.949 146.047 172.971C144.335 172.966 144.794 172.739 143.364 172.651C141.777 172.512 140.894 172.457 140.16 172.296C138.566 171.941 136.442 171.189 134.314 170.087C129.248 167.234 125.892 162.113 123.853 159.844C123.314 159.187 123.034 158.62 122.687 158.259C122.612 158.18 122.477 158.073 122.306 157.939C122.096 157.778 121.839 157.597 121.533 157.376C116.452 154.336 110.873 158.178 104.966 161.44C102.536 162.746 100.487 164.485 96.8751 165.245C88.1739 165.3 82.0228 160.022 75.5043 156.131C74.2702 155.337 72.9334 154.411 72.0509 154.263C70.0176 153.938 67.0873 154.772 64.566 155.518C61.6367 156.422 59.5241 156.87 59.111 157.02C58.2143 157.365 57.7229 157.804 55.9279 158.566C51.82 160.302 46.6577 162.357 41.8172 163.99C39.3446 164.809 36.9628 164.849 34.9405 164.809C34.2614 164.792 33.5329 164.762 32.7789 164.715C28.9883 164.47 26.4472 161.134 25.2123 159.02C23.7762 156.766 22.0061 151.171 21.5107 150.419C21.3648 150.17 21.2086 150.022 21.0658 149.905C20.8176 149.585 20.5762 149.198 20.4155 148.632ZM91.0189 161.14C90.7561 161.259 91.6503 161.629 92.4349 161.796C93.2181 161.966 93.8532 161.952 93.1489 161.67C92.8393 161.563 91.1505 161.092 91.0189 161.14ZM173.486 59.0052C173.413 59.1066 173.34 59.208 173.267 59.3093C173.643 59.7585 174.015 60.2113 174.387 60.6701C174.259 60.3557 174.133 60.0468 174.002 59.7342C173.83 59.4887 173.661 59.2501 173.486 59.0052Z" fill="#361700"/>
<path d="M84.4374 104.314C84.2891 104.469 83.9589 104.534 83.7569 104.682C82.9044 105.301 82.5228 105.455 81.6962 105.969C81.2414 106.25 80.4734 106.782 79.6246 107.247L79.4861 107.322C77.7882 108.131 75.9437 108.216 75.8483 107.565C75.8483 107.565 75.8483 107.564 75.8483 107.564C75.8462 107.554 75.8445 107.544 75.8432 107.533C75.8194 107.33 76.1219 107.038 76.1213 106.8C76.1195 106.563 75.7723 105.114 76.1787 104.927C76.6266 104.74 77.4643 104.651 78.0709 104.445L77.9855 104.492C78.215 104.399 78.3948 104.317 78.4771 104.261C78.6813 104.119 78.8638 103.841 79.1128 103.645C79.9118 103.012 80.4065 102.766 80.9224 101.907C81.3371 101.833 81.7529 101.754 82.1704 101.67C82.5004 101.292 83.2471 101.014 83.4714 100.812C83.6588 100.643 83.6691 100.435 83.8665 100.262C84.0823 100.072 84.5356 99.9119 84.9252 99.554C85.5688 98.9638 85.424 98.561 85.7949 98.1835C86.1741 97.7964 86.9606 97.4204 87.3993 96.8679C87.4241 96.8098 87.4492 96.7516 87.4745 96.6933L87.2913 96.8753C87.2998 96.8411 87.3084 96.8068 87.3171 96.7725C87.2589 96.7645 87.2006 96.7565 87.1423 96.7486L87.3488 96.5435C87.292 96.5255 87.2353 96.5074 87.1787 96.4892C87.2015 96.4643 87.2243 96.4423 87.2474 96.4226L87.0221 96.6464C87.2113 96.4202 87.4396 96.4134 87.6353 96.1931C87.8873 95.9101 87.8664 95.6393 88.0304 95.4513C88.1643 95.2983 88.4611 95.1921 88.621 94.9878C88.8527 94.6918 88.6269 94.6107 88.7208 94.4312C88.7745 94.3566 89.5361 93.1644 89.5587 93.1038C89.8756 92.6256 90.1575 92.7495 90.4093 92.3727C91.1063 91.3149 91.1581 90.1362 90.9874 89.2835C90.9186 88.8919 90.8465 88.4842 90.7421 88.0602C91.7484 88.507 91.6882 86.6658 90.7983 87.7474C90.7922 87.6573 90.7713 87.5745 90.7402 87.4979C90.5594 87.0644 90.1782 86.8088 89.9808 86.3405C89.8262 85.9757 89.8408 85.6464 89.5541 85.1473C89.0389 84.2528 88.0458 83.5426 88.6401 82.8313C87.88 81.8717 87.5798 80.803 86.6924 80.8501C86.4841 80.6094 86.4381 79.6858 86.2958 79.3538C86.1691 79.0397 84.9156 76.7897 84.6815 76.4403C84.4536 76.0875 84.0434 75.4768 83.784 75.2276C83.4578 74.9118 82.6295 75.1297 82.9279 73.9414C82.3264 73.244 82.1539 72.9664 81.7271 72.22C81.6495 72.0851 81.7499 71.987 81.6954 71.9153C81.5933 71.7814 81.3552 71.6108 81.1542 71.3923C81.1341 71.3703 81.1142 71.3477 81.0949 71.3246C80.7391 70.8994 80.7775 70.4689 80.461 70.7919C80.1787 70.5492 79.8958 70.3051 79.6142 70.0628C79.6047 69.9088 79.5951 69.7548 79.5855 69.6009C79.392 69.5041 79.1987 69.4077 79.0054 69.3114C79.658 69.0957 78.5189 68.248 78.4965 68.8268C78.1723 68.1892 77.8468 67.5533 77.518 66.9209C78.1581 66.5396 76.6252 65.6646 76.4004 66.0273C76.3508 65.965 76.3013 65.9029 76.2517 65.841C75.9632 65.1763 75.4346 64.787 74.9855 64.0616C74.5354 63.3397 74.6365 63.3522 74.7206 62.9353C74.5751 62.801 74.4249 62.6632 74.2772 62.5299C72.8921 62.4065 74.1955 61.4069 72.4212 60.6696C72.4197 59.8525 71.1488 59.1319 70.3148 58.756C70.2176 58.7107 70.1497 58.8012 70.0177 58.7502C69.6996 58.6179 69.0536 58.0476 68.8938 58.3837C68.7047 58.1502 68.5012 57.9205 68.2894 57.7013C68.0483 57.659 67.8134 57.6292 67.5791 57.6098C67.539 57.7166 67.4988 57.8234 67.4586 57.9301C67.1902 57.4005 66.4712 57.3673 66.1659 57.2381C66.1033 57.2107 66.1128 57.0501 65.9056 56.9859C65.7135 56.9256 65.3832 56.933 65.1098 56.9354C65.024 56.9363 64.9427 56.9346 64.8696 56.9284C64.7428 57.11 64.6165 57.2915 64.4909 57.4732C63.8727 57.6029 63.6366 57.1564 63.2634 57.1431C63.1943 57.1404 61.9977 57.2498 61.9369 57.2644C61.4099 57.3785 61.5844 57.756 60.0545 57.7841C59.7798 57.7894 59.5495 57.671 59.3043 57.6847C58.8787 57.7069 57.5828 58.1242 57.5134 58.4166C56.9518 58.107 55.5675 58.3827 55.1413 58.3232C55.014 58.3042 54.9623 58.0814 54.5777 58.0722C54.2604 58.0648 53.4766 58.3308 53.0855 58.3445C52.6593 58.359 52.4893 58.1873 52.3006 58.1957C52.1223 58.2039 51.9807 58.3753 51.7404 58.4034C50.9796 58.4898 50.2775 58.3312 49.6799 58.4076C48.8239 58.5165 48.1363 59.0771 47.452 59.3882C47.2714 59.3865 47.0859 59.317 46.9025 59.3457C44.607 59.7006 42.0435 60.1127 39.8259 60.6324C38.7849 60.8337 36.1634 61.1883 37.1926 61.899C37.0729 62.0456 36.3903 62.2605 35.7979 62.5153C35.184 62.7695 34.7957 63.0435 34.7701 63.095C34.7677 63.0981 34.7657 63.1011 34.7638 63.1041C34.5911 63.3724 34.6282 63.7242 34.531 64.003C34.24 64.8965 33.9847 65.6563 34.1382 66.9912C34.1815 67.3383 34.4197 67.6975 34.4319 67.9004C34.4458 68.1462 34.2591 68.4329 34.2857 68.762C34.2895 68.8079 34.2941 68.8563 34.2996 68.9071C34.3945 69.789 34.6553 71.2078 34.7465 71.9603C34.7633 72.1068 34.5883 72.1884 34.5661 72.4047C34.4778 73.2521 34.6848 74.1468 35.2331 73.8663C35.1121 74.9455 35.6426 75.7939 35.9344 76.6678C36.4755 78.5519 38.0043 81.7425 39.2849 82.9328C39.9498 83.589 40.1818 83.5349 40.7773 84.3717C40.8854 84.5185 41.0039 84.6892 41.1358 84.8897C41.3488 85.2129 41.5359 85.5331 41.7938 85.9221C42.3996 86.8363 42.682 87.9066 43.6604 88.1231C44.3423 89.1332 45.0521 89.7716 45.2559 90.7637C45.4177 90.7627 45.579 90.7612 45.7399 90.759C45.8404 90.8673 45.9401 90.9747 46.039 91.081C45.9827 91.192 45.9264 91.3029 45.87 91.4138C46.5499 92.2223 47.7865 92.88 48.3855 93.538C49.373 94.641 51.8516 97.5172 52.7513 98.5669C53.2218 99.131 53.4163 98.9694 53.3816 99.6311C53.5278 99.7166 53.6712 99.7982 53.8129 99.877C53.9652 99.8631 54.116 99.8471 54.265 99.8291C54.955 100.431 55.687 101.237 56.38 101.695C57.12 102.193 58.1203 102.618 59.1119 102.873C59.9098 103.089 60.6952 103.295 61.3335 103.54C61.7143 103.687 62.1623 104.028 62.5572 104.111C63.1321 104.231 63.348 103.887 64.0766 104.02C65.3273 104.258 67.6363 105.055 68.86 105.16C69.2259 105.194 69.405 105.07 69.6583 105.083C70.7056 105.132 71.5659 105.223 72.5793 105.075C73.6138 105.512 73.5105 105.973 73.8175 106.467C74.0549 106.841 74.8275 107.696 74.9573 108.008C75.0414 108.23 74.7262 108.514 74.843 108.759C73.4164 108.927 72.8687 108.663 71.804 108.242C69.7913 108.096 67.7904 107.875 65.7953 107.579C65.6339 107.419 65.4742 107.259 65.3156 107.098C65.3157 107.098 65.3157 107.097 65.3157 107.097C64.5804 106.82 64.2007 107.098 63.7739 107.099C62.2616 107.096 60.236 106.772 58.0925 106.102C53.9454 104.763 51.2382 101.313 49.32 99.4031C48.6551 98.721 46.4358 96.621 46.1626 95.994C46.0925 95.8344 46.2127 95.6616 46.0993 95.5246C44.9421 94.4413 43.7994 93.3488 42.6608 92.2484C41.2703 90.329 39.6191 88.5523 37.9879 86.789C37.3562 86.1045 36.75 85.3895 36.1962 84.6367C32.7669 80.1872 31.5593 74.4617 30.8911 69.3524C30.5952 66.8116 30.4164 64.1014 32.0719 61.3151C33.2411 59.753 34.4698 59.3369 35.6262 58.7986C37.3257 58.0821 39.4054 57.3585 41.0886 57.0708C41.7762 56.9553 42.1326 57.2133 42.9872 56.7883C43.0144 56.8735 43.0415 56.9586 43.0687 57.0438C43.8233 56.7837 44.2899 56.4901 45.1753 56.3142C45.906 56.1645 47.8812 55.8444 48.5395 55.7899C48.8857 55.7582 48.7834 55.9402 49.0964 55.8961C49.6356 55.8182 50.7659 55.4401 51.5241 55.3506C52.1977 55.269 53.3685 55.3317 53.8896 55.25C55.7608 54.9544 57.7917 54.4894 59.8079 54.4153C60.3702 54.3945 61.0895 54.5602 61.2663 54.5422C61.6063 54.5064 61.6965 54.2909 61.9198 54.2493C62.749 54.0959 63.9311 54.1276 64.9596 54.1409C65.4569 54.14 65.9148 54.1837 66.3045 54.23C70.9855 54.9529 73.9968 58.2163 76.5258 60.9543C78.1259 62.742 80.5546 65.7938 81.7317 67.5855C81.9869 67.972 81.7303 68.0145 81.9667 68.3212C82.2285 68.6608 82.4933 68.7507 82.6253 68.9012C82.8179 69.1204 83.06 69.3986 83.3257 69.7067C84.3493 70.8894 85.6766 72.5971 86.176 73.5276C86.2971 73.7519 86.2551 74.005 86.3422 74.1285C86.3859 74.1912 86.5855 74.263 86.7327 74.4536C88.0302 76.1375 88.8253 77.4701 89.9023 79.247C91.1542 81.3379 92.5956 83.5353 93.8475 86.018C94.7675 87.7939 94.9524 90.1507 94.2751 91.9828C93.9134 93.0181 93.2417 93.4534 93.1865 93.578C93.0464 93.8497 93.1614 94.1453 92.8746 94.7032C92.0989 96.2115 90.6066 97.639 89.5925 98.833L89.4168 99.0075C89.1214 99.2572 88.8491 99.4979 88.606 99.7318C87.9696 100.343 87.2387 101.353 86.6113 101.963C86.1159 102.449 84.7613 103.409 84.6003 103.707C84.5032 103.889 84.5956 104.146 84.4374 104.314ZM89.4206 84.5119C89.8383 84.4058 88.9015 83.4847 88.9504 84.0066C88.964 84.1272 89.3102 84.5344 89.4206 84.5119ZM43.7202 59.1795C43.7544 59.293 43.7886 59.4064 43.8228 59.5199C43.975 59.4398 44.1294 59.3598 44.2858 59.28C44.1794 59.2281 44.0733 59.1764 43.9676 59.1247C43.8846 59.1429 43.8022 59.1612 43.7202 59.1795Z" fill="#361700"/>
<path d="M105.148 119.41C105.067 119.386 105.07 119.199 105.007 119.145C104.751 118.928 104.735 118.794 104.513 118.61C104.235 118.328 102.68 118.041 102.962 117.015C102.962 117.015 102.962 117.015 102.962 117.015C102.965 117.005 102.969 116.995 102.972 116.984C103.036 116.79 103.238 116.617 103.325 116.402C103.413 116.186 103.832 114.751 104.068 114.737C104.413 114.724 105.033 115.35 105.204 115.407C105.321 115.441 105.517 115.376 105.677 115.422C106.196 115.575 106.402 115.802 107.019 115.762C107.079 116.034 107.118 116.299 107.144 116.558C107.269 116.589 107.358 116.714 107.43 116.834C107.489 116.937 107.543 117.043 107.597 117.073C107.69 117.125 107.831 117.037 107.925 117.096C108.031 117.161 108.091 117.407 108.29 117.519C108.617 117.704 108.905 117.416 109.119 117.507C109.34 117.601 109.508 117.991 109.834 118.055C109.891 118.042 109.947 118.028 110.004 118.015C110.041 117.919 110.078 117.822 110.115 117.726C110.267 117.779 110.197 117.982 110.309 118.069C110.438 118.17 110.623 118.066 110.711 118.133C110.784 118.189 110.791 118.388 110.891 118.452C111.037 118.546 111.143 118.344 111.243 118.368C111.282 118.376 111.908 118.704 111.94 118.729C112.181 118.908 112.01 119.165 112.178 119.335C112.645 119.806 113.324 120.057 113.851 120.402C114.085 120.554 114.288 120.764 114.456 120.989C113.607 121.271 113.876 122.363 114.464 121.226C114.565 121.563 114.952 121.475 115.121 121.721C115.168 121.789 115.189 121.869 115.214 121.952L115.407 122.177C115.428 122.297 115.454 122.424 115.552 122.563C115.855 122.98 116.592 123.311 115.882 123.857C116.321 124.369 116.199 125.017 117.013 125.072C117.117 125.257 116.765 125.85 116.719 126.064C116.702 126.169 116.68 126.623 116.574 127.075C116.475 127.528 116.288 127.955 116.24 128.072C116.212 128.145 116.177 128.232 116.138 128.325C116.057 128.521 115.963 128.734 115.95 128.863C115.925 129.098 116.54 129.653 115.53 129.513C115.36 129.933 115.245 130.055 114.922 130.321C114.863 130.37 114.744 130.295 114.72 130.328C114.67 130.396 114.661 130.581 114.577 130.711C114.434 130.928 114.114 130.854 114.48 131.115C114.43 131.295 114.377 131.474 114.319 131.655C114.214 131.644 114.109 131.633 114.005 131.619C114.016 131.749 114.024 131.88 114.03 132.013C113.626 131.498 113.471 132.218 113.881 132.327C113.551 132.477 113.22 132.614 112.887 132.74C112.424 132.17 112.302 133.15 112.602 133.416C112.573 133.44 112.543 133.465 112.513 133.489C112.133 133.553 111.995 133.869 111.589 134.008C111.187 134.141 111.173 134.059 110.882 133.85C110.818 133.918 110.752 133.986 110.686 134.054C110.782 135.101 110 133.706 109.656 134.731C109.138 134.356 108.733 134.917 108.405 135.259C108.368 135.298 108.414 135.402 108.367 135.462C108.251 135.608 107.804 135.637 107.955 135.969C107.778 135.927 107.598 135.884 107.426 135.836C107.339 135.94 107.248 136.043 107.156 136.146C107.194 136.254 107.232 136.361 107.271 136.469C107 136.257 106.762 136.345 106.565 136.39C106.501 136.405 106.442 136.414 106.391 136.405C106.351 136.397 106.298 136.249 106.179 136.24C106.039 136.228 105.818 136.34 105.656 136.333C105.644 136.517 105.631 136.702 105.617 136.886C105.367 137.051 105.157 136.629 104.991 136.634C104.96 136.637 104.448 136.794 104.421 136.809C104.207 136.937 104.361 137.309 103.665 137.369C103.542 137.379 103.418 137.265 103.308 137.281C103.116 137.31 102.59 137.717 102.589 138.004C102.293 137.695 101.686 137.936 101.485 137.859C101.424 137.835 101.38 137.613 101.202 137.588C101.059 137.568 100.722 137.793 100.541 137.782C100.349 137.771 100.262 137.588 100.177 137.584C100.096 137.579 100.038 137.74 99.9295 137.749C99.5903 137.777 99.2627 137.555 98.9967 137.568C98.6118 137.588 98.2926 138.06 97.9692 138.273C97.8855 138.247 97.8015 138.152 97.7157 138.154C96.6534 138.171 95.4467 138.059 94.3744 137.849C93.8678 137.766 92.7398 136.941 92.8848 138.011C92.6718 138.171 91.4324 137.447 91.1955 137.339C90.9424 137.249 90.6823 137.348 90.4728 137.265C90.1044 137.117 89.8115 136.922 89.4704 136.715C89.2713 136.593 89.053 136.475 88.7707 136.359C88.5881 136.284 88.2913 136.339 88.1991 136.267C88.0892 136.181 88.0989 135.922 87.9698 135.802C87.6557 135.52 87.0222 135.049 86.7638 134.735C86.7165 134.678 86.8285 134.528 86.7978 134.414C86.6763 133.969 86.3721 133.651 85.9783 134.102C85.8818 133.484 85.3471 133.303 85.0394 132.906C84.7452 132.527 84.4 131.961 84.0872 131.374C83.6555 130.631 83.3022 129.441 83.2409 128.65C83.1623 127.852 82.9682 127.689 83.3458 126.955C83.3768 126.905 83.4136 126.85 83.4564 126.79C83.5665 126.635 83.6956 126.484 83.8389 126.29C84.1807 125.824 84.8335 125.605 84.5439 124.924C85.005 124.433 85.2786 123.9 85.9991 123.873C85.9513 123.746 85.9061 123.618 85.8645 123.488C85.9247 123.423 85.9865 123.359 86.05 123.296C86.1491 123.363 86.2473 123.43 86.3445 123.498C86.4057 123.449 86.4637 123.392 86.5215 123.33C86.8055 123 86.972 122.406 87.2476 122.195C87.7763 121.78 89.2607 120.923 89.8602 120.701C90.1778 120.58 90.0517 120.366 90.4963 120.679C90.5365 120.608 90.5767 120.538 90.6173 120.467C90.592 120.349 90.5669 120.23 90.5419 120.112C90.8882 119.87 91.4005 119.735 91.7335 119.513C92.3384 119.108 93.0961 118.256 93.8236 118.039C94.0045 117.986 94.3226 118.059 94.4721 117.963C94.6895 117.824 94.5459 117.463 94.8219 117.285C95.3024 116.975 96.4405 116.807 96.8813 116.505C97.0116 116.415 97.0058 116.253 97.0911 116.185C97.4545 115.893 97.7846 115.711 98.0502 115.298C98.638 115.376 98.8496 115.801 99.2153 116.139C99.497 116.391 100.217 116.933 100.419 117.18C100.562 117.352 100.602 117.661 100.767 117.846C100.372 118.31 100.059 118.244 99.4896 118.183C98.7667 118.626 98.053 119.066 97.3401 119.514C97.2042 119.44 97.0715 119.365 96.9371 119.291C96.9369 119.291 96.9368 119.291 96.9366 119.29C96.5796 119.327 96.6428 119.691 96.5348 119.848C95.5017 121.345 92.4641 122.611 90.949 123.614C90.6176 123.826 89.7157 124.723 89.377 124.717C89.2881 124.715 89.1468 124.565 89.0834 124.603C88.8224 124.898 88.565 125.197 88.3177 125.496C88.1984 125.66 88.0949 125.835 88.0039 126.02C87.3589 126.428 87.0315 127.27 86.8036 128.169C86.7251 128.485 86.7161 128.723 86.7366 128.899C86.7594 129.123 86.8669 129.398 87.0828 129.756C88.0878 131.45 89.5762 132.875 91.2023 133.836C91.77 134.164 92.5786 134.413 93.4151 134.585C94.0368 134.717 94.877 134.656 95.5162 134.79C95.783 134.846 95.8858 135.182 96.2556 134.946C96.2572 135.035 96.2588 135.124 96.2605 135.213C96.5807 135.113 96.7856 134.913 97.1382 134.889C97.437 134.872 98.2274 134.83 98.4951 134.845C98.6334 134.854 98.5925 135.023 98.7216 135.014C98.9442 134.997 99.396 134.731 99.6969 134.701C99.9708 134.675 100.455 134.811 100.664 134.756C101.415 134.561 102.185 134.147 102.989 134.06C103.212 134.036 103.54 134.184 103.607 134.163C103.738 134.121 103.732 133.907 103.814 133.86C104.234 133.625 104.993 133.681 105.432 133.559C105.512 133.537 105.592 133.514 105.671 133.491C106.952 133.118 108.172 132.436 109.271 131.722C110.022 131.256 111.092 130.263 111.744 129.751C111.887 129.643 112.026 129.831 112.126 129.717C112.236 129.59 112.174 129.422 112.214 129.354C112.5 128.891 113.012 127.861 113.328 127.546C113.391 127.489 113.58 127.509 113.598 127.466C113.607 127.447 113.52 127.342 113.531 127.281C113.532 127.28 113.532 127.278 113.532 127.277C113.59 126.803 113.663 126.508 113.538 125.903C113.418 125.381 113.062 124.79 112.609 124.224L112.76 124.401C112.063 123.751 111.325 123.128 110.662 122.482C110.397 122.224 110.423 121.787 110.38 121.757C110.285 121.689 110.078 121.828 109.859 121.729C109.136 121.399 108.449 120.568 107.769 120.224C107.434 120.054 106.841 120.003 106.501 119.842C106.279 119.738 105.901 119.38 105.668 119.267L105.658 119.26C105.606 119.234 105.563 119.223 105.529 119.228C105.419 119.247 105.238 119.434 105.148 119.41ZM115.562 122.938C115.184 123.106 115.812 123.477 115.876 123.156C115.89 123.08 115.661 122.892 115.562 122.938ZM96.3042 137.437C96.3069 137.555 96.3097 137.673 96.3126 137.791C96.3895 137.743 96.4661 137.695 96.5426 137.647C96.5008 137.576 96.4594 137.504 96.4184 137.433C96.3803 137.434 96.3422 137.435 96.3042 137.437Z" fill="#361700"/>
<path d="M117.204 83.5141C117.184 83.6848 116.971 83.8736 116.911 84.0648C116.664 84.8646 116.492 85.1396 116.287 85.8645C116.17 86.286 116.055 87.038 115.944 87.8041L115.948 87.7652C115.797 88.9926 115.578 90.3325 114.922 90.3034C114.922 90.3034 114.922 90.3034 114.922 90.3034C114.911 90.303 114.9 90.3022 114.89 90.3011C114.686 90.2802 114.475 89.9662 114.245 89.9115C114.016 89.8566 112.521 89.831 112.456 89.3897C112.399 88.961 112.586 88.1325 112.734 87.5237L112.736 87.4992C112.813 87.2002 112.88 86.9569 112.889 86.8408C112.907 86.6005 112.813 86.2868 112.838 85.9753C112.924 84.9728 113.133 84.4913 112.989 83.5296C113.266 83.2275 113.547 82.9347 113.831 82.6499C113.869 82.1815 114.323 81.5945 114.396 81.3297C114.456 81.1112 114.353 80.9351 114.423 80.7086C114.457 80.598 114.528 80.4794 114.612 80.3371L114.684 80.1778C114.821 80.0172 114.99 79.8145 115.11 79.5736C115.464 78.8716 115.189 78.552 115.389 78.1135C115.594 77.6651 116.179 77.1262 116.398 76.5207C116.403 76.4309 116.408 76.3408 116.414 76.2504C116.299 76.2441 116.185 76.238 116.07 76.232C116.202 75.9391 116.451 75.9324 116.613 75.6917C116.806 75.4057 116.742 75.1529 116.873 74.9601C116.982 74.8012 117.255 74.6771 117.388 74.4686C117.583 74.164 117.354 74.1013 117.431 73.9178C117.458 73.8428 118.208 72.6053 118.261 72.5408C118.63 72.0404 118.908 72.1857 119.234 71.8166C120.14 70.7925 120.882 69.5679 121.723 68.5762C122.097 68.1338 122.545 67.7238 123.008 67.3677C122.878 68.5513 124.751 67.6791 123.381 67.2564C123.977 66.9607 124.113 66.4133 124.637 66.0715C124.976 65.8538 125.299 65.8212 125.762 65.4879C126.572 64.8967 127.338 63.9022 128.017 64.5373C128.111 64.4697 128.207 64.4076 128.303 64.3498C129.155 63.8315 129.997 63.6561 130.042 62.8673C130.295 62.6988 131.171 62.8184 131.494 62.7523C131.8 62.6714 134.09 62.013 134.462 61.914C134.832 61.7972 135.482 61.5989 135.775 61.4384C136.139 61.239 136.205 60.3783 137.167 61.0891C137.973 60.7967 138.281 60.7508 139.082 60.6897C139.228 60.6793 139.272 60.8128 139.354 60.7962C139.523 60.7619 139.794 60.6041 140.098 60.538C140.599 60.4298 140.933 60.6805 140.81 60.2453C141.134 60.1214 141.468 60.0025 141.802 59.8911C141.931 59.964 142.061 60.0379 142.189 60.1129C142.363 60.0022 142.537 59.8936 142.718 59.7868C142.546 60.4415 143.815 59.9977 143.382 59.6454C144.07 59.754 144.754 59.8963 145.424 60.081C145.273 60.7903 146.889 60.331 146.843 59.9352C146.922 59.9492 147.004 59.9644 147.084 59.9801C147.74 60.3062 148.428 60.3131 149.215 60.7617C149.985 61.2247 149.869 61.2789 149.947 61.6937C149.949 61.6945 149.951 61.6953 149.952 61.6961C150.12 61.7629 150.287 61.8297 150.455 61.8977C151.742 61.5416 150.821 62.8424 152.607 63.0728C152.762 63.8433 154.007 64.2924 154.815 64.7139C154.909 64.7614 154.98 64.6732 155.11 64.7325C155.432 64.8771 155.983 65.5566 156.206 65.2702C156.359 65.5518 156.506 65.8377 156.642 66.1221C156.865 66.2496 157.079 66.3749 157.299 66.512C157.381 66.4331 157.463 66.3542 157.546 66.2752C157.605 66.9029 158.219 67.3903 158.386 67.7517C158.42 67.8243 158.307 67.933 158.417 68.1429C158.547 68.3904 158.888 68.7682 159.034 69.0604C159.248 69.0611 159.464 69.0654 159.681 69.0731C160.091 69.5041 159.818 69.934 159.968 70.2362C160.002 70.2919 160.605 71.2255 160.638 71.2721C160.946 71.6611 161.236 71.3396 161.827 72.6422C161.932 72.8789 161.898 73.1142 161.996 73.3229C162.024 73.3825 162.069 73.458 162.126 73.5432C162.412 73.964 163.007 74.6334 163.255 74.6064C163.14 75.1954 163.795 76.331 163.844 76.7313C163.858 76.8514 163.66 76.9611 163.747 77.3097C163.818 77.5911 164.254 78.2249 164.348 78.5859C164.448 78.9675 164.311 79.1621 164.354 79.3321C164.394 79.4926 164.588 79.5915 164.655 79.8088C164.863 80.4903 164.792 81.1765 164.917 81.7231C165.096 82.5112 165.672 83.1418 165.964 83.8284C165.957 84.0088 165.879 84.1922 165.897 84.376C166.134 86.645 165.749 89.4502 164.509 91.5574C164.295 91.9392 163.862 92.4681 163.442 92.9292C162.843 93.5771 162.401 94.1872 163.145 94.2487C163.086 94.6345 161.274 96.3501 160.978 96.7227C160.689 97.091 160.608 97.4997 160.383 97.7949C159.709 98.6801 159.117 99.2225 158.393 100.384C158.204 100.687 158.137 101.117 158.004 101.277C157.842 101.471 157.505 101.549 157.288 101.791C156.771 102.373 155.887 103.527 155.362 104.069C155.267 104.167 155.095 104.081 154.923 104.189C154.25 104.612 153.692 105.25 154.23 105.541C153.317 106.041 152.916 106.908 152.276 107.576C150.946 109.009 148.129 111.257 146.634 112.385C145.703 113.094 145.864 113.386 144.055 113.85C143.64 113.944 143.223 114.001 142.702 114.056C142.138 114.114 141.571 114.046 141.055 113.991C140.598 113.921 140.165 113.947 139.784 114.284C138.709 114.18 137.783 114.32 136.928 113.779C136.821 113.896 136.711 114.013 136.599 114.128C136.45 114.122 136.3 114.115 136.149 114.104C136.112 113.984 136.076 113.864 136.041 113.744C135.064 113.633 133.561 113.713 132.55 113.162C132.513 113.143 132.477 113.124 132.442 113.103C131.226 112.438 128.362 110.343 127.429 109.433C126.924 108.96 126.746 109.134 126.741 108.491C126.598 108.427 126.455 108.362 126.312 108.297C126.168 108.326 126.024 108.356 125.879 108.385C125.179 107.847 124.478 107.048 123.842 106.503C122.678 105.52 120.778 104.156 119.861 102.869C119.627 102.546 119.474 102.035 119.218 101.746C119.06 101.568 118.895 101.486 118.728 101.416C118.513 101.329 118.28 101.244 118.028 100.948C117.259 100.045 116.23 98.0715 115.509 97.2361C115.295 96.9877 115.088 96.9582 114.934 96.793C114.286 96.0983 113.804 95.4873 113.061 94.9336C112.73 93.9597 113.143 93.7202 113.313 93.1822C113.444 92.7765 113.611 91.6988 113.761 91.3996C113.874 91.1939 114.274 91.2111 114.384 90.9685C115.371 91.7888 115.495 92.2957 115.847 93.2575C116.978 94.6145 118.09 95.9746 119.207 97.3216C119.205 97.5302 119.201 97.736 119.2 97.9446C119.2 97.9448 119.199 97.945 119.199 97.9452C119.507 98.5632 119.952 98.5638 120.242 98.7919C120.499 98.9939 120.763 99.2217 121.035 99.4702C123.59 101.855 127.718 105.984 130.516 107.936C131.163 108.424 133.471 109.66 133.848 110.107C133.943 110.227 133.875 110.425 134.004 110.509C134.018 110.515 134.032 110.522 134.047 110.528C135.05 110.961 136.264 110.976 137.547 110.866C138.611 111.001 139.761 110.957 140.943 110.907C142.36 110.845 143.801 110.082 145.129 109.2C151.104 104.923 155.578 98.3572 160.232 92.3592C160.507 91.9968 160.788 91.5979 161.078 91.1793C161.621 90.3936 161.988 89.4811 162.282 88.6965C162.453 88.2281 162.833 88.0693 162.684 87.3483C162.773 87.3522 162.862 87.3559 162.951 87.3594C162.916 86.7311 162.733 86.3346 162.698 85.6465C162.688 85.068 162.471 83.5064 162.377 82.9735C162.337 82.698 162.521 82.7646 162.463 82.508C162.365 82.0676 161.894 81.1961 161.701 80.6027C161.533 80.0638 161.384 79.0887 161.195 78.6838C160.639 77.4742 159.861 76.2523 159.205 74.9707C159.07 74.7059 158.946 74.4535 158.824 74.1887C158.63 73.7639 158.528 73.133 158.452 73.012C158.299 72.7664 158.075 72.7978 157.957 72.6493C157.362 71.8855 156.745 70.5163 156.17 69.7862C154.343 67.3439 151.758 65.6559 148.911 64.1625C148.845 64.1263 148.777 64.0893 148.707 64.0514C147.309 63.1855 144.393 62.9691 142.692 63.0104C142.313 63.0089 142.39 62.772 142.068 62.8058C141.712 62.8455 141.536 63.0267 141.374 63.062C140.232 63.2821 137.759 64.0373 136.651 64.2393C136.438 64.2732 136.237 64.1492 136.115 64.1892C136.053 64.2093 135.951 64.371 135.762 64.4472C134.098 65.1283 132.858 65.5501 131.235 66.2471C130.712 66.4745 130.186 66.7251 129.664 66.9947C127.191 68.2632 124.932 70.5071 122.948 72.6506C122.426 73.2122 121.82 73.404 121.753 73.4922C121.608 73.6847 121.699 73.9515 121.449 74.3704C120.618 75.7531 119.187 77.4059 118.48 78.7891C118.128 79.4685 117.859 80.523 117.555 81.2031C117.5 81.3253 117.418 81.4777 117.328 81.6399L117.46 81.3473C117.235 81.9681 116.923 82.791 116.966 83.0129C116.997 83.1868 117.225 83.3282 117.204 83.5141ZM126.376 65.3092C126.501 65.7132 127.362 64.7665 126.853 64.8237C126.735 64.8356 126.341 65.2023 126.376 65.3092ZM165.181 87.4215C165.299 87.4227 165.418 87.4236 165.536 87.4242C165.505 87.2531 165.47 87.0832 165.431 86.9156C165.355 87.0031 165.277 87.0899 165.198 87.1746C165.193 87.257 165.187 87.3392 165.181 87.4215Z" fill="#361700"/>
<defs>
<linearGradient id="paint0_linear_4055_423" x1="98" y1="28.0933" x2="98" y2="170.375" gradientUnits="userSpaceOnUse">
<stop stop-color="#D58937"/>
<stop offset="0.495192" stop-color="#9A4C0F"/>
<stop offset="1" stop-color="#5E2C06"/>
</linearGradient>
</defs>
</svg>
