<svg width="195" height="200" viewBox="0 0 195 200" fill="none" xmlns="http://www.w3.org/2000/svg">
<path d="M31.2645 172.337C22.0896 169.819 16.667 167.943 15.9146 167.721C14.4406 166.635 13.8076 165.891 13.403 165.529C12.9984 165.168 12.6749 164.764 13.5877 151.361C14.5006 137.957 16.5866 112.329 17.8302 98.3251C19.0738 84.3212 19.3766 81.9876 20.0355 79.7246C21.3408 75.242 21.6335 66.5669 23.9194 61.5088C25.9555 57.0035 28.9245 53.6105 32.9194 48.0088C37.2605 41.9218 41.4671 40.2883 45.6329 37.7484C49.1605 35.5977 55.4007 31.8096 58.9462 29.9124C63.1318 27.6727 67.2115 26.2225 73.7536 25.7209C79.7054 25.2645 83.6272 24.7946 88.4923 24.6822C92.2758 24.5949 99.424 23.2273 106.419 24.0088C113.415 24.7903 120.325 25.0578 126.919 27.5088C133.514 29.9599 138.768 35.9045 142.043 37.8144C146.251 40.2689 151.819 43.0959 155.869 48.3403C157.047 49.8659 159.567 51.5374 163.961 55.0276C170.085 59.8917 174.748 63.9652 176.201 66.4155C177.701 68.9456 179.409 70.4099 179.877 84.884C180.301 97.9826 180.926 122.942 181.226 136.274L181.259 137.723C181.529 149.73 181.565 151.339 181.287 153.109C180.685 156.942 180.218 161.177 177.573 163.606C176.621 164.48 174.734 165.207 171.478 167.17C166.63 170.093 162.677 172.596 157.512 173.793C147.25 176.17 140.432 176.986 139.239 176.519C138.076 176.064 136.659 175.644 130.124 175.429C124.396 175.242 114.057 175.008 108.596 174.837C103.134 174.665 102.567 174.56 96.2825 174.979C89.9976 175.397 78.348 176.311 72.2394 176.473C66.1308 176.634 65.5799 176.06 60.5141 175.485C55.4483 174.909 46.1462 174.394 41.2843 174.031C36.0006 173.636 34.3701 173.189 31.2645 172.337Z" fill="url(#paint0_linear_4055_328)" stroke="#361700" stroke-width="5" stroke-linecap="round"/>
<path d="M16.0044 148.617C16.0263 149.275 15.8525 150.214 15.8337 150.994C15.8133 151.821 15.7891 152.528 15.7628 153.138C15.6871 154.974 15.5984 156.214 15.5706 158.382C15.6146 160.49 15.428 166.127 16.7245 168.008L16.4515 167.714C16.6456 167.948 17.302 168.252 18.0259 168.521C19.8459 169.254 21.293 169.573 21.2454 169.977C21.2454 169.977 21.2454 169.977 21.2454 169.977C21.2439 169.988 21.2411 169.999 21.2372 170.01C21.1638 170.221 20.0607 170.292 19.8585 170.496C19.6505 170.691 19.5259 172.326 17.8133 171.98C17.5671 171.925 17.2912 171.848 17.01 171.762C16.3004 171.524 15.232 171.261 14.1636 170.309L13.9652 170.095C12.1819 167.475 12.6194 164.782 12.432 164.016C12.3471 163.165 12.1464 162.124 12.0843 161.042C11.9085 157.734 12.0249 155.948 11.734 153.077C11.7199 152.941 11.7049 152.801 11.6888 152.657C11.911 151.416 12.1305 150.195 12.3497 148.958C12.275 147.343 12.573 144.901 12.5707 143.918C12.5685 143.118 12.4134 142.636 12.4168 141.803C12.42 140.862 12.6136 139.417 12.6138 137.707C12.616 134.9 12.2055 134.396 12.1841 132.71C12.1623 130.963 12.4505 128.251 12.3633 126.019C12.3246 125.738 12.286 125.457 12.2477 125.176C12.1374 125.373 12.0272 125.571 11.9171 125.768C11.8994 124.643 12.1279 124.167 12.1637 123.134C12.2064 121.921 12.0246 121.291 12.0543 120.475C12.0791 119.802 12.2757 118.905 12.3006 118.032C12.3381 116.768 12.0921 117.032 12.0774 116.348C12.0642 116.082 12.189 111.03 12.2128 110.748C12.3344 108.58 12.6698 108.419 12.8226 106.691C12.9307 105.494 13.0299 104.259 13.1266 103.054C13.4149 99.4598 13.6308 95.9009 13.969 92.5922C14.1699 90.621 14.4661 88.5742 14.81 86.6254C15.1651 89.8187 16.8308 83.117 15.1648 85.467C15.6862 83.3234 15.6067 81.7203 16.0521 79.6733C16.3467 78.3404 16.6989 77.465 17.1104 75.5694C17.8256 72.2125 18.3952 68.4141 19.5839 67.7351C20.3468 64.8736 21.4676 62.4249 22.0025 60.6816C22.1918 60.0493 22.2908 59.4965 22.2544 59.0452C22.6284 58.0692 24.2683 55.8229 24.9361 54.8302C25.3536 53.8648 29.8057 48.0613 31.6331 46.5603C31.7967 46.4017 31.9267 46.2755 32.0152 46.1886C32.9926 45.2231 34.7266 43.5538 35.5224 42.7076C36.5187 41.6491 36.7 40.3134 39.3029 39.3232C41.5304 37.2748 42.3817 36.6043 44.6804 34.962C45.0993 34.667 45.2335 34.7497 45.4706 34.5711C45.9631 34.2004 46.7401 33.492 47.6362 32.8526C49.1125 31.8003 50.1633 31.5188 49.7382 31.2286C50.706 30.518 51.7051 29.8295 52.7312 29.1777C53.1485 29.0525 53.5651 28.934 53.9858 28.8201C54.5134 28.4385 55.0592 28.0634 55.6127 27.7027C55.1788 28.5952 59.2589 26.5006 57.7418 26.6906C59.6975 26.0743 61.7271 25.6252 63.7895 25.4477C64.1195 25.4207 64.4493 25.3929 64.7789 25.3646C64.5818 26.1851 69.7047 24.6872 69.1958 24.3374C69.4519 24.2964 69.7069 24.2553 69.9637 24.2139C72.2379 24.0495 74.2722 23.5327 77.0433 23.225C79.8145 22.9228 79.5734 23.0443 80.4623 23.2683C81.1085 23.1514 81.7555 23.0374 82.4024 22.9273C85.7102 21.5336 85.2738 23.1612 91.1304 22.0101C91.8488 22.2012 92.9406 22.2538 94.193 22.2768C96.2831 22.315 98.8243 22.1521 100.752 22.0571C101.11 22.0395 101.119 21.9206 101.595 21.89C102.759 21.8121 105.732 22.0342 105.641 21.6519C106.671 21.7915 107.697 21.9381 108.723 22.0948C109.575 22.0631 110.414 22.0373 111.269 22.0216C111.273 21.902 111.276 21.7823 111.279 21.6626C112.961 22.1685 115.651 22.2625 116.975 22.5523C117.232 22.6086 117.274 22.7758 118.083 22.9477C119.032 23.1457 120.827 23.4486 121.954 23.8485C122.093 23.8364 122.231 23.8253 122.369 23.8153C122.712 23.7861 123.068 23.7664 123.427 23.7519C125.432 24.3605 125.905 25.099 127.001 25.5965C127.205 25.666 130.811 27.2676 130.993 27.3654C132.58 28.0643 132.362 27.4156 136.745 29.8771C137.522 30.323 138.082 30.8019 138.778 31.2078C140.022 31.9108 143.847 33.8819 144.289 33.8271C145.565 35.0544 149.482 37.5256 150.521 38.4224C150.84 38.6918 150.773 38.9318 151.767 39.719C151.822 39.7631 151.885 39.8111 151.953 39.8623C152.872 40.5447 154.862 41.8435 155.794 42.6215C156.858 43.5052 157.113 43.9766 157.583 44.3798C158.025 44.7621 158.544 44.9846 159.15 45.5061C161.044 47.1382 162.515 48.8852 163.89 50.3007C165.877 52.3469 167.882 53.9701 169.519 55.7824C169.857 56.2816 170.124 56.8186 170.487 57.3339C171.173 58.3073 171.841 59.3221 172.483 60.3714C175.595 65.7849 179.919 71.3122 180.667 78.3513C180.687 78.6627 180.71 78.9917 180.735 79.3051C181.015 82.7385 181.482 91.5593 182.261 89.1015C182.623 90.298 183.075 99.2547 183.157 100.962C183.279 102.656 183.56 103.986 183.643 105.331C183.859 108.906 183.864 111.55 184.061 115.547C184.085 116.042 184.112 116.58 184.141 117.122C184.209 118.395 184.454 119.746 184.458 120.501C184.463 121.404 184.247 122.383 184.235 123.552C184.214 126.344 184.245 131.541 184.163 134.214C184.148 134.7 183.951 134.872 183.879 135.567C183.598 138.282 183.55 141.325 184.184 140.798C183.755 144.272 183.991 147.508 183.914 150.726C183.893 151.571 183.867 152.487 183.836 153.466C183.765 155.382 183.737 157.489 183.492 159.856C183.331 161.036 183.222 162.406 182.256 163.936C181.209 165.488 179.787 166.085 178.79 166.593C175.265 168.261 171.962 169.368 169.666 170.207C166.064 171.461 166.228 171.751 160.722 172.843C160.2 172.941 159.678 173.034 159.13 173.127C158.407 173.25 157.637 173.376 156.79 173.513C153.299 174.079 150.04 174.094 147.48 175.095C143.595 175.495 140.514 175.949 137.593 175.702C137.267 175.862 136.936 176.021 136.613 176.179C136.14 176.226 135.658 176.273 135.188 176.318C135.03 176.209 134.871 176.101 134.712 175.993C131.311 176.257 127.032 177.034 124.14 177.177C123.315 177.219 122.263 177.265 121.054 177.307C115.278 177.523 106.1 177.646 102.307 177.577C99.8776 177.539 99.7503 177.8 98.3516 177.287C97.8079 177.332 97.2672 177.377 96.724 177.421C96.3855 177.542 96.0464 177.664 95.7079 177.785C92.59 177.825 88.8913 177.655 85.9196 177.637C80.5113 177.621 72.3522 177.745 66.9165 177.191C65.9636 177.098 64.8519 176.896 63.8235 176.747C63.3673 176.681 62.9288 176.627 62.5258 176.598C60.6156 176.461 60.0964 176.825 57.6414 176.648C53.4377 176.346 45.5778 175.264 41.5928 174.972C40.3915 174.885 39.8422 174.989 39.0148 174.937C35.5871 174.723 32.7539 174.47 29.4474 174.416C25.9483 173.728 26.2947 173.259 25.2489 172.667C24.4247 172.218 22.0533 171.128 21.5756 170.795C21.407 170.678 21.6693 170.545 21.8379 170.42C22.0465 170.295 22.1763 170.165 22.0137 170.027C26.358 170.156 28.0517 170.557 31.472 171.206C37.7892 171.734 44.1786 172.242 50.4983 172.72C51.0572 172.904 51.6436 173.089 52.2027 173.273C52.2027 173.273 52.2027 173.273 52.2027 173.274C54.6249 173.622 55.6858 173.342 57.0068 173.36C59.0743 173.389 61.4323 173.474 64.0537 173.604C77.3125 174.306 96.6008 174.561 108.216 174.277C110.594 174.23 117.256 173.88 120.897 173.778C121.835 173.754 122.549 173.748 122.975 173.773C123.51 173.805 123.664 174.013 124.228 173.993C129.264 173.598 134.272 173.104 139.258 172.448C145.608 171.984 152.039 170.996 158.331 169.529C162.264 168.614 166.147 167.528 169.911 166.274C172.431 165.429 174.931 164.502 177.256 163.387C181.023 162.453 179.813 157.541 180.211 153.35C180.536 140.727 180.798 128.113 180.507 115.634C180.286 107.147 179.699 98.7204 178.746 90.3343C178.365 86.7884 177.694 82.6737 177.338 78.6049C177.201 76.8969 176.628 75.187 176 73.637C175.195 71.7269 175.078 70.7595 173.444 68.4221C173.51 68.3494 173.575 68.2765 173.64 68.2035C172.287 66.1099 171.252 64.8548 169.75 62.4602C169.694 62.3706 169.633 62.2741 169.569 62.1711C168.298 59.9893 164.822 55.5015 163.478 54.0711C162.775 53.2743 163.171 53.4467 162.488 52.7243C161.324 51.4766 158.515 49.1429 156.704 47.6318C155.086 46.2381 152.345 43.8556 150.988 42.8948C150.714 42.6985 150.438 42.503 150.159 42.3063C145.504 39.0296 140.224 35.9125 135.024 32.9735C133.502 32.1055 131.61 30.8856 131.108 30.6462C130.144 30.1819 129.76 30.242 129.103 29.9601C126.969 29.0508 124.073 27.6829 121.433 26.7631C120.021 26.2778 118.53 25.9704 117.291 25.7775C109.973 24.7266 101.998 24.832 94.1958 24.8215C90.0303 24.8389 85.8342 25.3326 81.7289 25.9083C77.0363 26.5571 70.3342 27.7989 64.2528 28.6459C61.1589 29.0748 58.3191 30.1873 56.1762 31.1609C54.8862 31.7623 55.1118 31.38 54.05 31.9548C52.8775 32.6066 52.3421 33.1331 51.8158 33.4745C48.0926 35.7281 40.7504 42.1007 37.6628 44.919C37.064 45.4422 36.5169 45.708 36.1747 46.04C36.0013 46.208 35.6987 46.68 35.1681 47.2209C34.683 47.7156 34.2126 48.1982 33.7542 48.6706C29.8907 52.6733 27.5558 56.2969 25.1822 61.6599C25.1268 61.7818 25.0715 61.9037 25.0163 62.0255C20.0097 73.2273 18.4047 87.8117 16.919 100.772C16.8098 101.768 16.6786 102.617 16.5465 103.373C16.2976 104.779 16.0657 105.714 16.0465 105.983C15.9858 106.869 16.1901 107.453 16.1335 109.261C15.9404 115.248 15.4048 123.328 15.4019 129.051C15.3965 131.879 15.6445 135.767 15.6741 138.552C15.6955 140.767 15.5066 146.027 15.6347 147.014C15.7116 147.623 15.9794 147.884 16.0044 148.617ZM17.7787 73.6034C18.0889 74.0949 18.7944 69.9134 18.1722 71.3861C18.0259 71.7185 17.689 73.4806 17.7787 73.6034ZM175.292 66.4132C175.38 66.3176 175.467 66.2218 175.554 66.1258C175.229 65.6768 174.899 65.2271 174.572 64.7863C174.668 65.0884 174.765 65.3931 174.859 65.696C175.002 65.9317 175.15 66.1763 175.292 66.4132Z" fill="#361700"/>
<path d="M164.445 64.2304C164.44 64.0946 164.631 63.9362 164.663 63.7813C164.793 63.1435 164.926 62.9226 165.011 62.3651C165.036 62.1887 165.044 61.938 165.036 61.6601L165.048 61.7979C164.972 60.8253 164.503 58.8841 165.391 58.6887C165.391 58.6887 165.392 58.6887 165.392 58.6886C165.402 58.6864 165.413 58.6844 165.425 58.6826C165.637 58.6506 165.922 58.8596 166.167 58.8431C166.413 58.8278 167.935 58.4573 168.1 58.7786C168.332 59.2333 168.242 60.6532 168.291 60.9606C168.319 61.0866 168.395 61.2246 168.462 61.3764L168.47 61.4635C168.507 61.5643 168.54 61.6727 168.553 61.7812C168.651 62.6863 168.509 63.1316 168.799 63.9678C168.556 64.2584 168.307 64.5313 168.052 64.7951C168.077 65.2047 167.689 65.7278 167.649 65.9596C167.618 66.1471 167.748 66.2994 167.707 66.4943C167.661 66.7197 167.407 67.0051 167.323 67.4047C167.185 68.0555 167.552 68.2865 167.487 68.6875C167.418 69.1037 167.006 69.6458 166.982 70.1891C167.005 70.2678 167.029 70.3427 167.052 70.4198C167.166 70.4084 167.28 70.397 167.394 70.3855C167.358 70.6489 167.116 70.6961 167.036 70.9208C166.939 71.1905 167.084 71.3937 167.02 71.5755C166.967 71.7269 166.744 71.8703 166.685 72.0677C166.599 72.3538 166.844 72.3685 166.832 72.5346C166.83 72.5514 166.812 72.6391 166.783 72.7631L166.561 73.213C166.404 73.5378 166.096 74.1419 166.069 74.1848C165.792 74.6199 165.498 74.4789 165.242 74.8041C164.533 75.7075 164.018 76.832 163.367 77.7436C163.079 78.1485 162.712 78.5268 162.331 78.8477C162.265 77.7276 160.637 78.4842 161.995 78.9405C161.478 79.2019 161.44 79.7188 161.009 80.0298C160.732 80.2264 160.438 80.2476 160.075 80.5553C159.434 81.1024 158.969 82.0636 158.24 81.4509C157.527 82.1516 156.64 82.298 156.75 83.1773C156.556 83.3529 155.753 83.2548 155.475 83.3299C155.217 83.4174 153.314 84.1231 153.009 84.2322C152.875 84.2873 152.695 84.362 152.514 84.4431C152.3 84.5398 152.053 84.6564 151.934 84.7467C151.639 84.9605 151.698 85.8421 150.785 85.1294C150.139 85.4492 149.899 85.5014 149.23 85.6065C149.11 85.625 149.055 85.4893 148.99 85.5107C148.858 85.5544 148.66 85.7335 148.416 85.8258C148.036 85.9711 147.707 85.7516 147.894 86.1851C147.643 86.3468 147.422 86.4975 147.174 86.6558C147.054 86.5975 146.929 86.5408 146.813 86.4811C146.705 86.6171 146.594 86.7535 146.48 86.8903C146.453 86.1902 145.57 86.8683 146.001 87.1479C145.459 87.1601 144.898 87.1739 144.351 87.1802C144.21 86.4189 143.207 87.4022 143.412 87.7807C143.353 87.7961 143.293 87.8115 143.233 87.827C142.667 87.7664 142.229 88.0554 141.573 88.0818C140.913 88.1084 140.949 88.0207 140.669 87.725C140.525 87.7823 140.388 87.8375 140.245 87.8938C139.7 89.031 139.444 87.3609 138.283 88.4047C137.725 87.9082 136.742 88.4654 136.094 88.7996C136.018 88.8387 136.042 88.955 135.941 89.0149C135.69 89.1616 134.992 89.1577 135.095 89.5273C134.839 89.4695 134.581 89.4116 134.321 89.3537C134.14 89.4637 133.969 89.5711 133.793 89.6794C133.819 89.7962 133.845 89.9131 133.87 90.0299C133.407 89.7111 132.819 89.9927 132.508 89.9565C132.445 89.9492 132.4 89.7901 132.207 89.7832C131.983 89.7743 131.589 89.9032 131.318 89.9044C131.252 90.1038 131.187 90.303 131.124 90.5018C130.687 90.6889 130.432 90.2468 130.153 90.2624C130.102 90.2662 129.218 90.4698 129.175 90.488C128.8 90.6411 128.983 91.0271 127.829 91.1486C127.625 91.1694 127.437 91.0589 127.253 91.0862C126.926 91.1349 126.005 91.624 125.981 91.9302C125.527 91.631 124.492 91.961 124.17 91.9045C124.071 91.8873 124.012 91.6564 123.716 91.6539C123.476 91.6516 122.899 91.938 122.604 91.9526C122.287 91.9682 122.143 91.7886 122 91.7968C121.865 91.8048 121.767 91.9833 121.585 92.0108C121.009 92.0946 120.473 91.9136 120.021 91.9763C119.366 92.0666 118.874 92.6203 118.359 92.9078C118.22 92.8964 118.073 92.8139 117.931 92.833C116.571 93.0132 115.076 93.1563 113.633 93.2637C113.221 93.2945 112.825 93.3212 112.429 93.3464C111.61 93.4013 109.512 92.988 110.174 94.0001C109.908 94.2231 107.794 94.0109 107.399 94.0396C107.004 94.0719 106.711 94.2941 106.399 94.3256C105.461 94.4188 104.791 94.336 103.654 94.5848C103.359 94.6494 103.055 94.8988 102.879 94.9067C102.665 94.916 102.423 94.7078 102.148 94.7083C101.489 94.7138 100.264 94.8343 99.6273 94.8072C99.511 94.8022 99.4662 94.6082 99.3005 94.5501C98.6528 94.324 97.9345 94.3414 98.0594 94.9642C97.2291 94.6085 96.4571 94.9126 95.6747 94.8959C94.0987 94.8826 91.2906 94.4354 89.7374 94.3022C89.6696 94.2982 89.6043 94.2955 89.5419 94.2943C88.6526 94.2767 88.628 94.5564 87.4275 94.0611C87.1595 93.9509 86.898 93.8232 86.577 93.6918C85.8354 93.3856 85.1924 92.7273 84.4801 93.2161C83.632 92.8785 82.9222 92.8513 82.3739 92.1986C82.2714 92.308 82.1691 92.4174 82.067 92.5268C81.9585 92.5082 81.8504 92.4897 81.7425 92.4712C81.7331 92.3453 81.7236 92.2194 81.7141 92.0935C80.9654 91.9097 79.8713 92.2012 79.2348 92.0716C78.1377 91.8474 75.3671 91.1108 74.3623 90.7536C73.8268 90.5628 73.7512 90.8136 73.5403 90.2289C73.4122 90.2425 73.2772 90.2548 73.1467 90.2681C73.0472 90.3686 72.9479 90.4691 72.8489 90.5697C72.1497 90.4426 71.3336 90.1053 70.6707 89.985C69.4434 89.7617 67.5462 89.7471 66.3507 89.3236C66.0634 89.219 65.7 88.9106 65.4032 88.8622C64.9755 88.7925 64.7801 89.1658 64.23 89.0802C63.2608 88.9275 61.5606 88.1788 60.6379 88.0754C60.3587 88.0431 60.2129 88.1721 60.0295 88.1608C59.2358 88.1119 58.5961 88.0087 57.8315 88.1441C57.0936 87.6661 57.2117 87.1849 57.0237 86.6612C56.8724 86.2635 56.3523 85.3454 56.237 85.017C56.1695 84.7823 56.4467 84.4919 56.355 84.2328C57.552 84.1003 57.8878 84.3938 58.6621 84.8515C60.1572 85.0358 61.6257 85.251 63.085 85.4734C63.1948 85.6327 63.3062 85.7925 63.4191 85.9526C63.4191 85.9529 63.419 85.9532 63.419 85.9535C63.953 86.2048 64.2446 85.8892 64.5699 85.861C67.5873 85.5677 73.1744 87.2166 76.3171 87.9187C77.0062 88.0697 79.2454 88.3159 79.6775 88.6333C79.7885 88.7155 79.7808 88.9335 79.9098 88.9686C81.0731 89.0683 82.2521 89.1736 83.4342 89.2819C85.6878 90.0723 88.1331 90.3115 90.4835 90.7445C90.5268 90.7524 90.5701 90.7603 90.6135 90.7681C96.7784 91.8338 103.223 91.0336 109.578 90.411C110.691 90.2962 112.06 90.0003 113.213 89.9074C113.338 89.8973 113.459 89.8896 113.578 89.8848C114.089 89.8634 114.344 90.1796 114.966 89.838C114.986 89.9295 115.005 90.0209 115.024 90.1124C115.584 89.925 115.932 89.6644 116.57 89.555C117.101 89.4651 118.552 89.2441 119.027 89.2089C119.281 89.1895 119.213 89.3756 119.447 89.34C119.85 89.2773 120.643 88.9136 121.202 88.8261C121.704 88.7482 122.553 88.8153 122.94 88.7226C124.292 88.3976 125.731 87.8491 127.199 87.6629C127.596 87.6138 128.167 87.7373 128.289 87.7081C128.532 87.6493 128.564 87.4201 128.723 87.3615C129.533 87.0643 130.885 87.0648 131.705 86.9078C134.374 86.4005 137.171 85.6769 139.795 85.0615C141.46 84.6776 144.182 83.8979 145.728 83.5988C146.055 83.5375 146.042 83.7924 146.318 83.7084C146.623 83.6148 146.728 83.412 146.866 83.355C147.823 82.9668 149.868 82.0975 150.773 81.8967C150.939 81.8639 151.136 81.9856 151.23 81.9448C151.261 81.9316 151.296 81.8577 151.349 81.7888C151.384 81.7491 151.426 81.71 151.479 81.6814C152.798 80.9621 153.794 80.537 155.056 79.8285C157.499 78.4689 159.699 76.1958 161.504 73.9221C161.905 73.43 162.463 73.2734 162.512 73.1962C162.62 73.0259 162.487 72.7797 162.662 72.406C162.851 72.0065 163.104 71.5879 163.384 71.1595L163.221 71.4905C163.59 70.4796 164.046 69.4408 164.233 68.5742C164.371 67.9466 164.318 67.0198 164.409 66.4131C164.49 65.9273 164.868 64.8565 164.765 64.6274C164.707 64.4867 164.452 64.3807 164.445 64.2304ZM159.549 80.7122C159.359 80.3154 158.767 81.2234 159.212 81.1751C159.314 81.1651 159.6 80.8163 159.549 80.7122ZM115.49 92.4011C115.515 92.5226 115.54 92.644 115.565 92.7655C115.686 92.6976 115.806 92.6296 115.926 92.5617C115.845 92.4975 115.764 92.4333 115.683 92.3691C115.619 92.3798 115.553 92.3906 115.49 92.4011Z" fill="#361700"/>
<path d="M141.887 42.0165C141.859 41.9504 142.023 41.8587 142.031 41.7794C142.067 41.4481 142.172 41.32 142.21 41.0079C142.293 40.5302 141.768 39.2759 142.818 38.9276C142.818 38.9275 142.818 38.9275 142.818 38.9275C142.829 38.9243 142.839 38.9211 142.85 38.9181C143.057 38.8592 143.32 38.9201 143.559 38.8727C143.797 38.8258 145.298 38.3663 145.445 38.5702C145.655 38.8695 145.422 39.7447 145.46 39.9093C145.491 40.0269 145.654 40.1532 145.698 40.3071C145.838 40.8035 145.751 41.0659 146.15 41.5225C145.95 41.7145 145.745 41.8971 145.537 42.07C145.618 42.2853 145.385 42.5853 145.344 42.737L145.335 42.8147C145.329 42.8299 145.326 42.844 145.325 42.8567C145.319 42.9715 145.465 43.067 145.45 43.1898C145.432 43.328 145.219 43.4979 145.182 43.7458C145.117 44.1516 145.49 44.3511 145.456 44.6184C145.418 44.8982 145.051 45.1974 145.043 45.5594C145.067 45.617 145.091 45.6752 145.114 45.7335C145.221 45.7517 145.329 45.7689 145.437 45.7854C145.405 45.9656 145.18 45.9368 145.106 46.0733C145.018 46.233 145.153 46.4098 145.094 46.5168C145.045 46.6043 144.838 46.6401 144.784 46.7537C144.704 46.918 144.927 47.0028 144.915 47.1101C144.911 47.1379 144.806 47.422 144.723 47.6303L144.598 47.811C144.542 47.9217 144.495 48.0115 144.487 48.023C144.317 48.2573 144.048 48.0791 143.883 48.2433C143.427 48.6989 143.205 49.3812 142.874 49.9118C142.728 50.148 142.52 50.3526 142.296 50.5207C141.976 49.6499 140.868 49.9036 142.052 50.5245C141.711 50.6214 141.811 51.0205 141.563 51.188C141.401 51.2964 141.183 51.2611 140.993 51.4515C140.66 51.7876 140.599 52.5228 139.889 51.9219C139.577 52.4114 138.996 52.449 139.338 53.2122C139.256 53.3416 138.661 53.1888 138.497 53.2276C138.339 53.2768 137.271 53.7588 137.105 53.845C136.94 53.9395 136.661 54.1011 136.562 54.2463C136.443 54.4236 136.755 55.2203 135.944 54.5562C135.638 54.8276 135.487 54.8808 135.106 54.9597C135.036 54.9744 134.96 54.8497 134.925 54.8686C134.854 54.9072 134.777 55.0711 134.657 55.1494C134.456 55.2798 134.191 55.0691 134.43 55.4745C134.323 55.6182 134.216 55.7605 134.109 55.9016C134.019 55.8453 133.929 55.7888 133.839 55.732C133.806 55.8582 133.772 55.9847 133.736 56.1113C133.529 55.4578 133.171 56.0724 133.51 56.3429C133.169 56.3483 132.829 56.3493 132.493 56.3444C132.219 55.6226 131.845 56.5301 132.062 56.8927C132.03 56.9059 131.997 56.9191 131.964 56.9323C131.598 56.8643 131.406 57.1254 131.006 57.137C130.603 57.1488 130.614 57.0626 130.38 56.7726C130.307 56.8227 130.234 56.8727 130.16 56.9228C130.07 57.9979 129.567 56.3887 129.087 57.3562C128.749 56.9787 128.406 57.1843 128.104 57.441C128.016 57.5177 127.933 57.5991 127.857 57.6701C127.819 57.7056 127.856 57.8185 127.809 57.8729C127.692 58.0051 127.273 57.9819 127.404 58.3419C127.239 58.2792 127.079 58.2147 126.915 58.1509C126.83 58.2515 126.748 58.3509 126.663 58.451C126.7 58.5649 126.737 58.6787 126.774 58.7925C126.437 58.472 126.151 58.7258 125.957 58.6837C125.918 58.675 125.862 58.5196 125.747 58.5082C125.613 58.4935 125.404 58.6086 125.248 58.6018C125.246 58.7935 125.244 58.9852 125.241 59.1769C125.014 59.3488 124.787 58.9128 124.626 58.9212C124.598 58.923 124.116 59.1003 124.093 59.1175C123.898 59.2584 124.074 59.6371 123.419 59.7309C123.302 59.7472 123.172 59.6358 123.069 59.6584C122.888 59.6987 122.431 60.1576 122.465 60.4568C122.149 60.1562 121.601 60.4581 121.401 60.3981C121.34 60.3795 121.269 60.1525 121.096 60.1445C120.957 60.1379 120.668 60.4069 120.495 60.4169C120.311 60.4267 120.201 60.2481 120.119 60.2535C120.042 60.2589 120.012 60.432 119.91 60.4556C119.591 60.5265 119.245 60.341 118.994 60.3936C118.632 60.4689 118.413 61.0058 118.15 61.2789C118.068 61.2649 117.971 61.1808 117.89 61.1967C117.331 61.3059 116.723 61.3937 116.114 61.4569C115.646 61.5052 115.178 61.5406 114.732 61.5636C114.256 61.5937 113.01 61.0975 113.453 62.1304C113.31 62.3435 112.052 62.0368 111.824 62.0431C111.593 62.0552 111.424 62.2614 111.242 62.276C110.69 62.3184 110.299 62.1973 109.63 62.3788C109.458 62.426 109.273 62.6569 109.169 62.6546C109.044 62.6512 108.909 62.4291 108.75 62.4137C108.368 62.3803 107.655 62.4323 107.292 62.3748C107.225 62.3641 107.212 62.1683 107.12 62.1025C106.766 61.8459 106.358 61.8372 106.386 62.4631C105.939 62.0775 105.481 62.3612 105.043 62.3377C104.995 62.3351 104.945 62.3317 104.893 62.3276C103.984 62.257 102.508 61.9844 101.752 62.1521C101.242 62.2631 101.232 62.5431 100.537 62.2244C100.385 62.154 100.233 62.0646 100.046 61.9796C99.6135 61.7804 99.2545 61.2204 98.8384 61.7978C98.3541 61.5795 97.939 61.6452 97.6296 61.0725C97.57 61.1937 97.5104 61.3148 97.4509 61.436C97.3886 61.4316 97.3267 61.4272 97.265 61.4228C97.2607 61.2998 97.2564 61.1768 97.2522 61.0539C96.813 60.9671 96.1897 61.3916 95.8148 61.3387C95.1853 61.2534 93.5833 60.8306 93.0092 60.5691C92.7049 60.4321 92.6411 60.685 92.5503 60.1274C92.4732 60.1522 92.3934 60.1765 92.3158 60.201C92.2513 60.3088 92.1867 60.4166 92.1222 60.5243C91.7067 60.457 91.2496 60.1864 90.8534 60.1058C90.2144 59.9742 89.2418 60.0178 88.4187 59.613C88.3309 59.5662 88.2503 59.515 88.1786 59.4584C88.0329 59.3438 87.9177 59.0388 87.7532 58.9769C87.5187 58.8887 87.3129 59.2387 87.0123 59.1283C86.4954 58.9378 85.7102 58.127 85.2116 57.9682C85.0648 57.9213 84.9413 58.0329 84.8369 58.0087C84.3933 57.9069 84.0566 57.7607 83.5728 57.8175C83.2872 57.2916 83.5062 56.8449 83.5557 56.3264C83.5726 55.9286 83.6757 55.0225 83.5967 54.648C83.5728 54.626 83.5343 54.5989 83.4617 54.5722C83.3928 54.5445 83.2795 54.5286 83.2968 54.5136C83.3112 54.4971 83.4263 54.4864 83.4924 54.4832C83.5632 54.4794 83.6074 54.4754 83.6402 54.4679C83.7606 54.4374 83.7592 54.3681 83.815 54.3155C83.8892 54.1981 83.9662 54.0789 83.9779 53.9466C84.6297 53.9783 84.7287 54.2623 85.0225 54.7647C85.7994 55.0564 86.5741 55.3475 87.3497 55.6381C87.3682 55.7956 87.3892 55.954 87.4065 56.1109C87.4063 56.1112 87.4062 56.1115 87.4061 56.1118C87.6443 56.379 87.901 56.0936 88.0898 56.0802C88.5739 56.0468 89.1264 56.1468 89.7102 56.3261C90.9132 56.6448 93.0054 57.3157 94.2617 57.5724C94.6352 57.6493 95.9069 57.6349 96.1362 57.8923C96.1967 57.9599 96.1878 58.1759 96.2599 58.1948C96.9236 58.1524 97.5874 58.1058 98.2538 58.0566C99.5502 58.549 100.97 58.4287 102.326 58.522C103.306 58.5893 104.284 58.6513 105.261 58.7139C107.874 58.8861 110.378 58.8135 112.908 58.5368C113.577 58.4679 114.399 58.1818 115.072 58.172C115.256 58.1692 115.392 58.3042 115.555 58.3104C115.64 58.3141 115.733 58.2808 115.842 58.1692C115.863 58.2601 115.883 58.351 115.904 58.442C116.198 58.2731 116.358 58.0263 116.704 57.9347C116.996 57.859 117.774 57.6779 118.043 57.6527C118.183 57.6396 118.171 57.8209 118.297 57.7913C118.514 57.7392 118.921 57.3971 119.219 57.3247C119.488 57.26 119.992 57.3413 120.193 57.2601C120.917 56.9702 121.649 56.4664 122.461 56.3206C122.685 56.2811 123.029 56.4175 123.096 56.3917C123.226 56.3405 123.205 56.1183 123.286 56.0652C123.701 55.7968 124.482 55.8348 124.93 55.7067C125.702 55.487 126.484 55.2158 127.255 54.9381C127.945 54.6897 128.604 54.4404 129.267 54.2052C130.152 53.8976 131.546 53.2555 132.381 53.0241C132.563 52.975 132.625 53.2122 132.764 53.1434C132.916 53.0673 132.926 52.8799 132.992 52.8314C133.447 52.5031 134.417 51.769 134.933 51.6351C135.034 51.6099 135.195 51.7309 135.245 51.6985C135.27 51.6825 135.258 51.538 135.328 51.4769C135.954 50.9316 136.476 50.6493 137.132 50.1844C138.395 49.2917 139.458 47.8599 140.597 46.6553C140.847 46.3939 141.295 46.4266 141.324 46.3837C141.389 46.2896 141.237 46.0778 141.329 45.8585C141.386 45.7254 141.46 45.5944 141.546 45.4648L141.457 45.5925C141.771 45.0031 142.26 44.4472 142.353 43.9468C142.416 43.6407 142.233 43.1761 142.227 42.899C142.226 42.7648 142.306 42.5353 142.338 42.3334L142.319 42.4923C142.33 42.3545 142.323 42.2396 142.269 42.1955C142.188 42.1282 141.918 42.0891 141.887 42.0165ZM140.641 51.4975C140.387 51.1444 140.205 51.8021 140.523 51.8256C140.595 51.8303 140.709 51.5889 140.641 51.4975ZM116.42 60.716C116.448 60.8367 116.475 60.9574 116.503 61.078C116.565 61.0141 116.627 60.95 116.689 60.8857C116.635 60.8204 116.581 60.7549 116.527 60.6894C116.491 60.6983 116.456 60.7072 116.42 60.716Z" fill="#361700"/>
<path d="M175.591 97.2018C175.596 97.1411 175.773 97.1674 175.814 97.1195C175.932 96.9828 176.032 96.9283 176.14 96.8509L176.088 96.9487C176.137 96.91 176.186 96.8682 176.234 96.8124C176.449 96.6347 176.613 95.3234 177.698 95.617C177.698 95.617 177.698 95.617 177.698 95.617C177.709 95.6201 177.719 95.6233 177.73 95.6268C177.935 95.6918 178.127 95.8695 178.355 95.955C178.583 96.0402 180.091 96.4668 180.126 96.6593C180.169 96.9323 179.592 97.4192 179.554 97.5647C179.532 97.6636 179.62 97.8334 179.592 97.9704C179.537 98.2343 179.439 98.4014 179.409 98.5989L179.374 98.6649C179.348 98.7945 179.348 98.9468 179.398 99.162C179.141 99.1898 178.887 99.2077 178.635 99.2157C178.606 99.4306 178.217 99.5088 178.163 99.6053C178.116 99.6886 178.214 99.8266 178.158 99.9104C178.099 100.002 177.86 100.025 177.757 100.192C177.586 100.464 177.868 100.779 177.781 100.961C177.691 101.15 177.312 101.229 177.251 101.512C177.264 101.566 177.275 101.622 177.287 101.677C177.379 101.732 177.472 101.786 177.564 101.84C177.511 101.969 177.319 101.86 177.234 101.944C177.136 102.04 177.235 102.231 177.168 102.298C177.114 102.353 176.928 102.311 176.865 102.389C176.774 102.501 176.965 102.643 176.942 102.729C176.933 102.763 176.619 103.257 176.599 103.278C176.431 103.455 176.193 103.236 176.036 103.348C175.6 103.66 175.382 104.217 175.088 104.617C174.957 104.796 174.773 104.936 174.581 105.039C174.281 104.2 173.299 104.216 174.366 104.995C174.081 105.018 174.16 105.341 173.994 105.473L173.878 105.568C173.867 105.576 173.855 105.583 173.841 105.588C173.703 105.645 173.516 105.562 173.355 105.69C173.073 105.917 173.061 106.564 172.423 105.894C172.182 106.28 171.684 106.239 172.05 106.979C171.993 107.084 171.475 106.869 171.337 106.891C171.207 106.912 170.358 107.276 170.234 107.354C170.11 107.431 169.895 107.575 169.839 107.706C169.767 107.87 170.184 108.609 169.374 107.985C169.162 108.242 169.054 108.287 168.746 108.373C168.69 108.388 168.598 108.275 168.573 108.293C168.52 108.332 168.495 108.485 168.409 108.565C168.268 108.696 167.998 108.512 168.294 108.878C168.24 109.016 168.183 109.155 168.128 109.293C168.039 109.246 167.95 109.2 167.86 109.153C167.864 109.272 167.868 109.392 167.872 109.511C167.535 108.916 167.389 109.52 167.743 109.744C167.461 109.776 167.181 109.806 166.901 109.836C166.474 109.191 166.413 110.08 166.698 110.392C166.675 110.408 166.652 110.424 166.629 110.44C166.311 110.416 166.223 110.686 165.9 110.748C165.578 110.809 165.555 110.733 165.275 110.497C165.229 110.554 165.184 110.611 165.138 110.669C165.403 111.676 164.478 110.265 164.395 111.238C163.877 110.854 163.657 111.4 163.489 111.742C163.469 111.782 163.537 111.88 163.515 111.939C163.461 112.084 163.114 112.138 163.339 112.448C163.184 112.42 163.029 112.392 162.875 112.363C162.84 112.471 162.804 112.58 162.769 112.688C162.837 112.787 162.904 112.885 162.972 112.984C162.591 112.75 162.439 113.041 162.268 113.039C162.234 113.038 162.137 112.904 162.04 112.915C161.924 112.928 161.791 113.076 161.662 113.1C161.723 113.278 161.785 113.457 161.846 113.636C161.72 113.838 161.386 113.48 161.259 113.518C161.236 113.526 160.904 113.784 160.888 113.806C160.775 113.976 161.044 114.293 160.538 114.511C160.448 114.55 160.305 114.471 160.229 114.513C160.097 114.584 159.867 115.107 159.992 115.38C159.639 115.16 159.283 115.554 159.099 115.537C159.043 115.532 158.913 115.333 158.768 115.36C158.651 115.382 158.5 115.69 158.359 115.735C158.21 115.781 158.065 115.633 158 115.654C157.939 115.673 157.965 115.844 157.888 115.886C157.646 116.015 157.305 115.906 157.113 116.003C156.838 116.142 156.811 116.693 156.66 117.005C156.586 117.007 156.481 116.944 156.418 116.974C156.106 117.12 155.76 117.262 155.408 117.384C154.915 117.553 154.396 117.712 153.899 117.844C153.515 117.952 152.37 117.678 152.981 118.605C152.911 118.837 151.79 118.747 151.603 118.789C151.412 118.838 151.316 119.065 151.166 119.109C150.714 119.238 150.365 119.18 149.844 119.461C149.711 119.533 149.599 119.789 149.511 119.803C149.407 119.819 149.257 119.621 149.12 119.63C148.799 119.656 148.219 119.816 147.908 119.815C147.852 119.815 147.809 119.624 147.723 119.573C147.387 119.375 147.056 119.429 147.178 120.042C146.748 119.731 146.417 120.082 146.051 120.127C145.548 120.189 144.781 120.174 144.127 120.22C143.787 120.245 143.482 120.294 143.264 120.39C142.867 120.564 142.878 120.843 142.288 120.615C142.156 120.564 142.021 120.495 141.861 120.435C141.485 120.293 141.133 119.785 140.861 120.412C140.448 120.259 140.114 120.381 139.798 119.856C139.765 119.984 139.732 120.112 139.699 120.24C139.648 120.244 139.599 120.248 139.548 120.253C139.529 120.131 139.511 120.01 139.492 119.889C139.122 119.864 138.68 120.372 138.367 120.375C137.855 120.379 136.519 120.21 136.025 120.055C135.764 119.972 135.758 120.233 135.599 119.7C135.54 119.739 135.482 119.777 135.424 119.815C135.39 119.933 135.355 120.051 135.321 120.169C134.993 120.179 134.584 120.004 134.275 120.011C133.692 120.025 132.829 120.361 132.245 120.159C132.095 120.107 131.919 119.868 131.771 119.873C131.559 119.88 131.521 120.282 131.256 120.293C130.806 120.312 129.948 119.858 129.522 119.899C129.389 119.911 129.333 120.061 129.247 120.078C128.874 120.151 128.576 120.143 128.223 120.377C127.838 119.997 127.872 119.501 127.741 119.002C127.656 118.625 127.363 117.752 127.328 117.421C127.304 117.189 127.39 116.889 127.354 116.634C127.805 116.425 127.995 116.648 128.368 117.003C129.049 116.981 129.738 116.958 130.413 116.934C130.475 117.073 130.538 117.212 130.603 117.351C130.603 117.351 130.603 117.351 130.603 117.352C130.875 117.509 130.97 117.148 131.113 117.064C132.458 116.263 135.117 116.831 136.609 116.891C136.931 116.904 137.974 116.696 138.193 116.918C138.251 116.976 138.271 117.191 138.332 117.2C138.874 117.061 139.414 116.922 139.948 116.783C141.068 117.095 142.213 116.794 143.334 116.717C143.569 116.701 143.807 116.684 144.046 116.668C146.762 116.474 149.289 116.025 151.682 115.211C152.192 115.044 152.773 114.639 153.32 114.522C153.548 114.473 153.772 114.754 153.953 114.397C153.993 114.481 154.032 114.566 154.072 114.65C154.113 114.607 154.15 114.562 154.183 114.516C154.294 114.347 154.378 114.159 154.565 114.053C154.774 113.939 155.325 113.649 155.532 113.578C155.64 113.541 155.684 113.715 155.774 113.666C155.929 113.581 156.148 113.188 156.363 113.066C156.556 112.958 156.989 112.939 157.12 112.828C157.609 112.422 158.034 111.811 158.641 111.52C158.812 111.438 159.13 111.502 159.177 111.464C159.266 111.391 159.176 111.188 159.225 111.123C159.471 110.794 160.12 110.678 160.446 110.471C161.498 109.806 162.535 108.967 163.575 108.274C164.234 107.837 165.276 107.034 165.963 106.733C166.112 106.669 166.22 106.887 166.327 106.809C166.446 106.721 166.414 106.543 166.462 106.492C166.789 106.137 167.538 105.377 167.995 105.242C168.083 105.216 168.245 105.33 168.286 105.299C168.307 105.283 168.277 105.145 168.335 105.085C168.84 104.562 169.306 104.305 169.896 103.915C170.467 103.536 171.029 103.06 171.604 102.581L171.517 102.652C172.04 102.149 172.555 101.649 173.103 101.225C173.339 101.043 173.749 101.166 173.776 101.136C173.84 101.065 173.71 100.842 173.8 100.669C174.108 100.09 174.879 99.6866 175.17 99.1747C175.316 98.922 175.321 98.4293 175.429 98.1835C175.52 97.9875 175.903 97.6837 175.835 97.5333C175.796 97.4415 175.585 97.27 175.591 97.2018ZM173.055 105.656C172.828 105.285 172.688 105.842 172.963 105.926C173.025 105.945 173.115 105.752 173.055 105.656ZM155.056 116.763C155.108 116.876 155.16 116.988 155.213 117.1C155.226 117.073 155.239 117.046 155.252 117.019C155.274 116.975 155.297 116.93 155.319 116.886C155.257 116.832 155.196 116.777 155.136 116.722C155.133 116.724 155.13 116.725 155.127 116.727C155.103 116.739 155.079 116.751 155.056 116.763Z" fill="#361700"/>
<defs>
<linearGradient id="paint0_linear_4055_328" x1="97.2396" y1="23.7686" x2="97.2396" y2="176.645" gradientUnits="userSpaceOnUse">
<stop stop-color="#D58937"/>
<stop offset="0.495192" stop-color="#9A4C0F"/>
<stop offset="1" stop-color="#5E2C06"/>
</linearGradient>
</defs>
</svg>
