<svg width="195" height="200" viewBox="0 0 195 200" fill="none" xmlns="http://www.w3.org/2000/svg">
<path d="M71.3172 20.7462C74.7246 19.2226 77.3306 18.9226 79.2783 18.8972C83.4144 17.4474 88.5995 16.3523 90.4998 15.7674C93.0213 15.1711 100.062 13.9282 110.056 16.9358C114.074 18.0399 116.074 18.3355 120.256 20.4475C124.438 22.5594 130.871 26.0624 135.587 30.2099C144.215 37.7964 147.997 41.9779 148.437 42.8417C148.964 43.8777 149.641 45.1404 151.683 47.3403C155.659 51.6244 158.076 55.3855 159.72 59.7861C163.15 68.9684 165.374 75.693 166.231 78.7357C167.749 84.1219 168.45 91.1453 169.457 98.4036C169.966 102.078 170.838 105.693 171.284 108.849C171.731 112.005 171.751 114.623 171.515 119.084C171.279 123.544 170.801 129.662 170.474 132.963C170.147 136.264 169.977 136.734 167.868 140.252C165.76 143.77 161.748 150.093 159.783 153.583C157.567 157.518 155.249 163.275 151 167.559C147.035 171.556 141.387 173.983 136.854 178.086C132.322 182.19 130.668 182.886 126.591 183.887C116.271 186.421 109.485 184.667 108.5 183.887C107.179 182.842 102.441 184.893 95.9998 183.887C90.2656 182.992 86.26 184.177 78.9265 181.829C75.153 180.621 68.4429 181.36 63.4998 178.767C54.3637 173.973 50.835 173.532 49.4998 172.767C48.4179 172.147 39.312 163.437 36.4998 160.267C31.6688 154.821 31.4889 147.16 30.4998 145.267C29.7855 143.899 30.6063 143.241 27.3622 133.953C26.1734 130.549 26.0435 129.587 26.0644 126.504C26.0854 123.421 26.2522 118.369 27.1845 111.094C28.1168 103.819 29.7648 94.6007 30.6233 89.3248C31.4817 84.0489 31.5488 82.7547 32.1277 79.9208C32.7067 77.0869 33.7655 72.8419 35.0903 68.6053C36.4151 64.3687 37.9591 60.265 40.4721 55.1656C42.985 50.0662 46.4241 44.1828 48.1367 40.9631C50.0689 37.3306 50.2772 36.1521 53.8218 33.3544C56.9791 30.8625 62.8996 26.5218 66.2656 24.1077C69.6315 21.6936 70.3902 21.1607 71.3172 20.7462Z" fill="url(#paint0_linear_4055_380)" stroke="#361700" stroke-width="5" stroke-linecap="round"/>
<path d="M88.8165 183.035C105.901 183.674 116.104 183.916 116.697 183.808C143.038 179.034 152.856 166.527 156.514 161.071C160.924 154.495 164.993 149.034 167.745 143.108C171.072 135.943 172.467 125.692 169.384 101.739C168.226 92.7439 165.332 84.2315 162.741 75.1722C161.136 69.5617 158.071 59.8988 151.317 49.7436C146.61 42.6663 138.099 30.7309 121.718 22.3707C112.674 17.755 104.778 13.4886 90.0899 16.0064C74.0063 18.7634 60.1284 24.0459 51.3979 35.4748C35.2191 56.6542 36.58 63.6226 31.0324 77.9659C27.8799 86.1165 23.6267 93.7885 25.4302 120.588C26.3193 133.8 26.929 141.64 28.5851 145.535C33.0985 156.152 37.3833 164.699 42.7507 168.4C47.7695 171.862 65.0483 182.144 88.8165 183.035Z" fill="url(#paint1_linear_4055_380)"/>
<path d="M141.211 178.086C140.685 178.412 139.817 178.691 139.164 179.012C136.393 180.347 135.279 180.694 132.688 181.643C128.885 183.278 117.123 186.171 116.9 184.924C116.9 184.924 116.9 184.924 116.9 184.924C116.898 184.913 116.897 184.902 116.897 184.891C116.903 184.673 117.867 184.254 117.965 183.987C118.064 183.719 117.663 182.208 119.011 181.84C120.99 181.347 125.796 180.483 126.842 180.104C127.531 179.879 128.388 179.452 129.256 179.124C132.098 178.034 133.636 177.509 135.939 176.004C137.019 175.717 138.085 175.402 139.143 175.057C140.367 174.293 142.346 173.392 143.068 172.888C143.652 172.487 143.919 172.109 144.511 171.679C145.194 171.181 146.313 170.572 147.47 169.572C149.335 167.93 149.347 167.29 150.349 166.216C151.376 165.105 153.123 163.454 154.147 161.788C154.259 161.556 154.356 161.343 154.462 161.112C154.271 161.202 154.093 161.27 153.905 161.351C154.296 160.748 154.635 160.451 154.981 160.043C155.103 159.897 155.228 159.736 155.359 159.543C155.981 158.63 156.13 158.049 156.548 157.437C156.891 156.936 157.491 156.348 157.925 155.695C158.559 154.742 158.222 154.817 158.533 154.284C158.667 154.071 161.063 150.26 161.18 150.047C162.204 148.431 162.562 148.461 163.368 147.173C164.344 145.594 165.206 143.936 165.923 142.262C166.808 140.199 167.372 138.062 167.766 136.006C168.087 134.35 168.36 132.621 168.579 130.917C169.135 133.715 170.328 127.752 168.846 129.898C169.176 127.998 168.874 126.618 168.953 124.792C168.999 123.624 169.177 122.779 169.127 121.089C169.039 118.053 168.285 114.809 169.131 113.847C168.691 110.312 168.672 107.186 167.718 105.99C167.581 105.172 167.729 103.127 167.7 101.956C167.698 101.838 167.694 101.731 167.687 101.635C167.716 100.67 166.488 93.3267 166.131 92.14C165.853 90.9483 165.311 88.8678 164.963 87.8895C164.528 86.6575 163.474 86.0213 163.765 83.5144C162.925 80.9411 162.671 80.0074 162.071 77.5495C161.962 77.1036 162.088 77.0137 162.014 76.7567C161.922 76.4414 161.756 76.0064 161.578 75.5049C161.459 75.1732 161.332 74.8076 161.214 74.4267C160.743 72.9059 160.753 71.9469 160.361 72.2573C159.969 71.28 159.563 70.3094 159.143 69.351C159.109 68.9801 159.068 68.5968 159.029 68.2247C158.742 67.7281 158.454 67.2404 158.162 66.7584C159.046 67.1211 157.2 63.6078 157.32 64.9453C156.683 63.0275 155.974 61.1204 155.198 59.2455C156.04 59.1374 153.206 55.2458 153.017 55.8254C152.904 55.6243 152.79 55.4206 152.676 55.2207C151.967 53.6309 151.042 52.3028 149.994 50.6236C149.822 50.3485 149.633 50.0414 149.455 49.7414C148.168 47.5995 148.354 47.7632 148.21 46.9376C147.852 46.4691 147.489 46.0019 147.13 45.5485C144.5 43.7022 146.225 43.0179 142.208 39.526C141.559 37.846 138.423 35.0716 136.23 33.4156C135.978 33.2215 135.896 33.307 135.551 33.0558C134.725 32.4347 132.75 30.6548 132.585 31.0234C131.936 30.3746 131.275 29.7388 130.595 29.1108C129.952 28.7327 129.293 28.3582 128.639 28.0008C128.575 28.1021 128.511 28.2034 128.448 28.3047C127.441 27.122 125.337 26.0083 124.379 25.3531C124.187 25.2205 124.225 25.0489 123.62 24.6582C123.056 24.2933 122.062 23.7813 121.224 23.3387C121 23.22 120.79 23.1054 120.604 22.9987C120.169 22.9813 119.73 22.9624 119.296 22.9465C117.629 22.2107 117.279 21.5006 116.338 21.004C116.173 20.8961 113.003 19.5004 112.821 19.4635C111.373 19.0055 111.666 19.382 107.563 18.0851C106.83 17.873 106.257 17.5929 105.578 17.4468C104.38 17.1303 100.669 17.0689 100.377 17.3944C98.926 16.8864 94.9407 17.2014 93.7618 17.2643C93.4078 17.2709 93.2889 17.0366 92.1967 17.1311C91.7775 17.169 91.095 17.2989 90.3398 17.4641C89.4531 17.6571 88.5116 17.8785 87.897 17.9789C86.6912 18.1756 86.2242 18.0714 85.6841 18.1696C85.1721 18.2642 84.7443 18.5211 84.0547 18.6762C81.9108 19.1563 79.9208 19.4138 78.2514 19.9007C75.8357 20.605 73.8996 21.7867 72.0577 22.7497C71.5686 22.9118 71.0638 23.0094 70.5664 23.2216C64.4128 25.783 58.0333 29.9332 53.7337 34.9933C53.4048 35.3722 52.9974 35.8356 52.5588 36.3615C50.2107 39.143 46.9854 43.2632 48.7351 42.3362C48.2149 43.2943 43.544 49.7618 42.8948 51.1063C42.1516 52.431 41.7887 53.5572 41.2693 54.6229C39.7396 57.8157 38.6658 60.0682 37.4781 64.2602C37.174 65.3462 37.0395 66.575 36.8415 67.2187C36.6016 67.9959 36.1381 68.7703 35.8155 69.7849C35.108 72.0665 33.8012 76.2723 32.8243 78.659C32.7694 78.7968 32.7163 78.9282 32.6653 79.0529C32.4943 79.4683 32.2558 79.5415 31.9633 80.1101C30.8083 82.3098 29.8945 84.8395 30.6488 84.6051C29.2638 87.3715 28.8373 90.171 28.3296 92.9422C27.0824 98.7705 26.7761 109.888 27.3413 115.202C27.5721 117.674 27.7935 118.245 27.9241 120.42C27.9723 121.188 28.0082 122.132 28.035 123.429C28.0578 124.535 28.0626 125.639 28.097 126.982C28.176 130.116 27.9012 133.045 28.7706 135.332C28.9838 138.773 29.4755 141.428 29.6576 143.828C29.8635 144.057 30.0725 144.271 30.283 144.463C30.3241 144.567 30.3654 144.666 30.4069 144.761C30.5259 145.035 30.6448 145.308 30.7634 145.58C30.7038 145.749 30.6448 145.92 30.586 146.091C31.7607 148.921 33.8161 152.228 34.9685 154.492C36.4457 157.476 40.0518 164.326 43.7878 166.897C44.8332 167.659 45.8214 168.315 46.5228 168.78C48.339 169.964 48.5495 169.763 49.3899 170.838C49.8171 171.027 50.285 171.234 50.7183 171.417C51.0374 171.451 51.3611 171.486 51.6892 171.521C54.137 172.764 57.0756 174.268 59.5396 175.221C64.0072 177.021 71.0343 178.722 75.7328 179.777C76.9134 180.059 78.3671 180.547 79.5393 180.714C81.256 180.95 81.7253 180.613 83.8878 180.822C85.2401 180.948 86.9926 181.138 88.8821 181.282C92.3058 181.542 96.0412 181.857 98.3784 181.913C99.4448 181.938 99.9613 181.806 100.707 181.815C103.826 181.848 106.381 181.939 109.382 181.787C112.579 182.253 112.286 182.737 113.274 183.258C114.045 183.649 116.225 184.572 116.779 184.846C116.929 184.885 116.922 184.949 116.809 185.029C116.685 185.107 116.628 185.176 116.52 185.248C116.374 185.389 116.194 185.53 116.399 185.654C112.398 185.857 110.85 185.552 107.718 185.115C101.939 184.967 96.1557 184.782 90.379 184.583C89.8637 184.425 89.3452 184.265 88.8183 184.106C88.8183 184.106 88.8184 184.105 88.8184 184.105C88.8044 184.104 88.7905 184.102 88.7766 184.101C86.5646 183.857 85.5994 184.131 84.3946 184.113C73.1992 184.381 52.5735 177.485 41.9282 169.593C41.3067 169.156 40.7462 168.695 40.233 168.229C37.7438 166.431 32.8378 158.691 32.2982 156.867C32.1262 156.405 32.2546 156.183 32.0304 155.717C30.3302 152.552 28.7971 149.323 27.308 146.078C26.827 145.013 26.5068 143.948 26.2347 142.893C24.9939 135.445 24.6749 128.07 24.0266 120.683C23.8502 118.437 23.7124 116.272 23.6247 114.047C23.0195 101.73 24.2337 88.5618 29.4823 77.3664C33.6403 65.2808 37.1487 51.5112 45.3219 40.8818C46.7163 38.8691 48.3184 36.6093 49.9806 34.3921C51.7272 32.0531 53.7488 29.9369 55.6846 28.3191C57.2995 26.9945 58.1691 26.7217 60.2574 24.9714C60.3331 25.0327 60.4087 25.0941 60.4842 25.1557C62.3855 23.7619 63.5872 22.8072 65.9398 21.5847C67.8958 20.4975 73.3603 18.3227 75.2476 17.8121C76.2149 17.5204 75.9092 17.7995 76.809 17.5219C78.3442 17.0377 81.6072 15.9212 83.7797 15.4525C85.4486 15.0746 88.1289 14.702 89.822 14.4432C90.1276 14.3953 90.3993 14.3519 90.6279 14.3115C96.1214 13.3101 102.562 12.9414 108.496 14.6678C110.137 15.1183 112.091 16.0658 112.576 16.2508C113.531 16.6041 113.893 16.5204 114.537 16.7601C116.908 17.6398 119.972 19.3179 122.558 20.7248C123.579 21.2764 124.517 21.8098 125.325 22.269C134.939 27.6391 143.747 35.7361 150.022 44.6653C150.881 45.8642 151.841 47.262 152.822 48.7426C156.547 54.2318 160.047 61.641 161.622 66.3773C162.064 67.674 161.713 67.4142 162.094 68.4929C162.513 69.6953 162.876 70.2934 163.073 70.8599C163.425 71.8751 163.867 73.2211 164.323 74.7198C165.593 78.8796 167.289 84.2522 167.92 87.0369C168.086 87.7536 168.044 88.3177 168.158 88.7424C168.216 88.9573 168.47 89.4108 168.658 90.0865C169.812 94.2532 170.521 97.7278 170.988 101.533C171.185 103.169 171.37 104.818 171.558 106.635C172.508 117.97 174.622 131.913 169.198 143.783C169.187 143.805 169.176 143.827 169.166 143.849C167.981 146.306 166.707 147.698 166.529 148.028C166.122 148.744 166.073 149.332 165.242 150.782C163.228 154.287 160.261 158.298 157.804 161.936C156.851 163.349 155.864 164.664 154.941 165.82C153.306 167.913 150.878 170.715 148.858 172.409C147.288 173.839 143.085 176.451 142.326 177.002C141.888 177.355 141.797 177.721 141.211 178.086ZM169.272 119.263C169.729 119.592 169.169 115.891 169.013 117.296C168.982 117.623 169.157 119.166 169.272 119.263ZM62.3109 26.7408C62.4069 26.8259 62.5027 26.9112 62.5982 26.9967C62.9752 26.6908 63.3558 26.3917 63.7442 26.0965C63.4726 26.1739 63.2014 26.2539 62.9308 26.3363C62.7234 26.4693 62.5167 26.6042 62.3109 26.7408Z" fill="#361700"/>
<path d="M150.223 58.4573C150.396 58.5143 150.558 58.7822 150.742 58.8882C151.535 59.3441 151.78 59.5976 152.48 60.0275C152.891 60.279 153.757 60.7118 154.396 61.053L154.101 60.9511C154.828 61.169 156.588 61.6153 156.362 62.2839C156.362 62.2839 156.362 62.284 156.362 62.284C156.36 62.2948 156.357 62.3056 156.354 62.3164C156.29 62.5209 155.916 62.6825 155.827 62.9139C155.735 63.1446 155.478 64.6863 155.073 64.7098C154.697 64.7156 153.987 64.527 153.238 64.2336L153.049 64.1682C152.703 63.9491 152.472 63.7755 152.353 63.7258C152.131 63.6313 151.805 63.6284 151.525 63.5159C150.617 63.1493 150.219 62.8254 149.263 62.7651C149.05 62.4243 148.835 62.0817 148.62 61.7387C148.172 61.6101 147.695 61.0541 147.441 60.9358C147.238 60.8421 147.044 60.9216 146.832 60.8172C146.596 60.7024 146.319 60.3576 145.882 60.1532C145.167 59.8179 144.843 60.1209 144.404 59.945C143.945 59.7601 143.384 59.1963 142.764 59.0272C142.673 59.0303 142.582 59.0333 142.49 59.0361C142.49 59.1551 142.489 59.2741 142.489 59.393C142.186 59.2835 142.173 59.0321 141.919 58.889C141.621 58.7205 141.374 58.8169 141.171 58.7048C141.006 58.6131 140.863 58.3487 140.643 58.2393C140.325 58.0804 140.281 58.3244 140.092 58.2706C140.072 58.2647 139.966 58.2206 139.818 58.1575L139.791 58.1418C139.387 57.9618 138.683 57.6413 138.631 57.6131C138.107 57.3249 138.216 57.016 137.815 56.7558C136.699 56.0319 135.379 55.5851 134.266 55.0787C133.765 54.8502 133.278 54.5601 132.827 54.2554C133.977 53.9431 132.617 52.4711 132.622 53.9434C132.179 53.494 131.637 53.5991 131.165 53.2838C130.858 53.0791 130.714 52.8017 130.25 52.5705C129.413 52.1524 128.323 52.2047 128.463 51.2627C127.452 50.9767 126.688 50.3867 126.329 51.1545C126.282 51.1622 126.221 51.1037 126.257 51.0292C126.275 50.9904 126.328 50.9496 126.444 50.8794C126.566 50.807 126.798 50.6832 127.011 50.4302C126.905 50.4454 126.794 50.4852 126.729 50.5257C126.501 50.6314 124.839 52.1931 124.596 52.489C124.349 52.7671 123.926 53.2684 123.782 53.5639C123.605 53.9283 124.093 54.6666 122.884 54.6215C122.443 55.326 122.247 55.5401 121.692 56.0919C121.593 56.1903 121.466 56.1162 121.418 56.1817C121.315 56.3195 121.235 56.61 121.067 56.8619C120.793 57.2732 120.379 57.3217 120.791 57.5527C120.664 57.8626 120.538 58.1731 120.414 58.4826C120.275 58.5217 120.135 58.5619 119.994 58.6031C119.973 58.8041 119.953 59.0027 119.935 59.2003C119.497 58.64 119.119 59.8767 119.667 59.7743C119.192 60.2077 118.713 60.6538 118.243 61.0906C118.014 60.8919 117.833 61.0148 117.72 61.2514C117.545 61.6195 117.546 62.2477 117.801 62.3284C117.76 62.3879 117.719 62.4473 117.678 62.5066C117.15 62.9209 116.967 63.4934 116.419 64.0642C115.878 64.6259 115.852 64.5315 115.426 64.5297C115.342 64.6932 115.258 64.8559 115.175 65.0179C115.455 66.3582 114.143 65.2838 113.864 67.0663C113.062 67.1717 112.626 68.4253 112.31 69.2485C112.274 69.3435 112.374 69.4081 112.331 69.5404C112.223 69.8673 111.647 70.4705 111.98 70.6603C111.728 70.8441 111.483 71.0163 111.23 71.2005C111.159 71.4378 111.088 71.6724 111.02 71.9042C111.121 71.9687 111.221 72.0333 111.322 72.0978C110.718 72.2767 110.441 72.984 110.157 73.2358C110.101 73.2859 109.957 73.2047 109.791 73.3739C109.597 73.5697 109.366 74.0057 109.145 74.2437C109.228 74.4485 109.314 74.6478 109.395 74.8555C109.154 75.3908 108.644 75.2813 108.422 75.5384C108.389 75.5787 107.781 76.5118 107.751 76.5682C107.531 77.0076 107.97 77.1403 106.999 78.2589C106.826 78.4526 106.574 78.5373 106.41 78.7208C106.257 78.8906 106.048 79.2578 105.767 79.6788C105.625 79.8899 105.476 80.1026 105.296 80.3097C105.148 80.5003 104.909 80.7014 104.882 80.7913C104.605 80.8189 104.169 81.0054 103.322 80.8162C102.862 80.6505 102.176 80.3213 101.794 80.0319C101.389 79.7417 101.121 79.4943 101.013 79.3402C100.934 79.2232 101.068 79.0286 100.826 78.7225C100.629 78.4765 99.9576 78.0423 99.7319 77.7406C99.4912 77.421 99.5506 77.1844 99.4443 77.0417C99.345 76.9079 99.1221 76.8969 98.9773 76.7267C98.5242 76.1892 98.3184 75.5355 97.9742 75.1101C97.9475 75.0771 97.9198 75.0449 97.8911 75.0135C97.3934 74.4699 96.6362 74.2356 96.0849 73.8758C96.0069 73.7309 95.9813 73.5369 95.8752 73.4048C94.5449 71.7421 93.1146 69.8188 91.8669 68.0851C91.2867 67.2821 90.2709 64.9486 89.8293 66.1333C89.4664 65.9808 88.264 63.7415 87.9779 63.361C87.691 62.9819 87.306 62.8019 87.0743 62.5076C86.4312 61.6894 86.0614 61.0169 85.253 60.142C85.1808 60.0633 85.1056 59.9831 85.0272 59.9013C84.774 59.6387 84.356 59.4583 84.2312 59.2829C84.0799 59.0694 84.0975 58.7151 83.9144 58.4347C83.4754 57.7695 82.58 56.6028 82.1895 55.9704C82.1179 55.8539 82.2508 55.7033 82.1913 55.5108C81.9571 54.7533 81.455 54.0894 81.0366 54.5744C80.7729 53.6035 79.999 53.1183 79.482 52.591C79.2294 52.332 78.9252 52.0435 78.6808 51.8794C78.4158 51.7036 78.3748 51.7359 78.4143 51.7288C77.1555 51.913 75.9403 52.2761 75.2171 52.6638C74.3583 53.1332 74.4956 53.3681 73.0653 53.6971C72.7477 53.7732 72.4193 53.8373 72.0277 53.9427C71.1091 54.19 70.0879 54.1044 69.6883 54.9824C68.6449 55.3012 67.9141 55.7786 66.9548 55.6437C66.9233 55.7995 66.8911 55.9557 66.8581 56.1121C66.7358 56.1731 66.62 56.231 66.4991 56.2911C66.4097 56.1988 66.3202 56.1064 66.2307 56.0141C65.3908 56.3731 64.5308 57.2616 63.8004 57.629C63.7652 57.6469 63.7301 57.6635 63.6953 57.6788C62.4635 58.2199 59.1994 59.4565 57.9623 59.8218C57.3049 60.0165 57.3747 60.2702 56.8037 59.9368C56.6798 60.032 56.5554 60.1274 56.4306 60.2229C56.3899 60.3688 56.3505 60.5141 56.3105 60.6597C55.5126 61.0153 54.4904 61.2637 53.7282 61.5974C52.3401 62.2065 50.3719 63.4056 48.8828 63.8036C48.5076 63.9042 47.9724 63.867 47.6294 64.0132C47.1252 64.2276 47.1567 64.6492 46.519 64.92C45.8176 65.2171 44.6387 65.4946 43.6111 65.7548C43.0247 65.904 42.4957 66.0499 42.1174 66.2078C41.8045 66.338 41.7202 66.5294 41.5025 66.6287C40.6213 67.0343 39.8635 67.3036 39.0539 67.8379C37.9692 67.8143 37.8832 67.3137 37.4296 66.9385C37.1246 66.6527 35.9932 66.0528 36.1777 65.6707C36.2571 65.6091 36.2519 65.5469 36.1704 65.4856C36.1098 65.4248 36.0719 65.364 36.054 65.2981C36.0183 65.1667 36.0005 65.0287 35.9688 64.9046C36.6803 64.4947 37.3926 64.4675 38.3735 64.4993C39.7469 63.9879 41.1324 63.4468 42.5097 62.9026C42.7745 62.7978 43.054 62.6857 43.3234 62.5764C43.5267 62.6461 43.7256 62.7172 43.9267 62.7871C43.9268 62.7874 43.9269 62.7877 43.927 62.788C44.621 62.6833 44.7526 62.2403 45.0609 62.026C48.0159 59.9817 54.6237 57.7614 58.2236 56.2597C58.9957 55.9389 61.4162 54.6581 62.0379 54.6302C62.1994 54.6231 62.3247 54.8031 62.4711 54.7484C62.4847 54.7408 62.4982 54.7332 62.5117 54.7257C63.7367 54.0436 64.9368 53.3459 66.145 52.6315C68.915 51.7032 71.4953 50.0364 74.4749 49.0475C75.5799 48.6831 76.723 48.396 77.8774 48.2011C79.9865 47.9305 81.2283 49.2329 82.0727 50.0451C82.9409 50.9449 83.618 51.8581 84.2806 52.7566C85.59 54.5559 86.7952 56.3167 88.0892 57.9824C89.569 59.8938 91.0591 61.797 92.5405 63.704C93.4651 64.8949 94.7803 66.292 95.6215 67.5103C95.973 68.0189 95.8631 68.4351 96.5712 68.9053C96.5039 68.9703 96.4366 69.0353 96.3693 69.1003C96.8999 69.581 97.3466 69.7976 97.8616 70.4005C98.2926 70.9066 99.4181 72.2691 99.7624 72.7441C99.9392 72.9881 99.7371 73.0162 99.916 73.2327C99.9341 73.2545 99.954 73.2771 99.9754 73.3005C100.321 73.6792 101.096 74.2765 101.496 74.7387C101.884 75.1936 102.394 76.0607 102.716 76.3434C103.287 76.8739 103.987 77.2807 104.1 77.1577C103.639 77.0607 103.403 77.1701 103.314 77.1924C103.225 77.2233 103.221 77.2244 103.234 77.204C103.267 77.162 103.368 77.0578 103.478 76.9309C103.698 76.6803 103.948 76.3752 104.219 76.0641C104.522 75.7169 105.06 75.3616 105.146 75.2316C105.312 74.9799 105.177 74.79 105.272 74.608C105.739 73.7038 106.843 72.525 107.412 71.6813C109.256 68.947 111.093 65.9211 112.962 63.1848C113.619 62.222 114.5 60.8961 115.373 59.6521C116.076 58.6492 116.777 57.7018 117.337 57.0378C117.612 56.7113 117.743 56.9426 117.946 56.6582C118.174 56.3392 118.167 56.0714 118.261 55.9185C118.923 54.8325 120.48 52.4882 121.369 51.6535C121.539 51.4924 121.79 51.4798 121.874 51.375C121.919 51.3194 121.92 51.1142 122.046 50.9394C122.914 49.7551 123.623 48.9251 124.693 47.9323C125.601 47.2117 126.153 47.3953 126.531 47.3904C126.915 47.4286 127.206 47.5042 127.492 47.5861C131.327 48.955 134.783 50.8681 138.048 52.7978C138.741 53.2221 139.044 53.8227 139.146 53.8764C139.371 53.9956 139.629 53.8542 140.105 54.0543C140.604 54.264 141.131 54.5457 141.668 54.8558L141.648 54.8443C142.797 55.486 143.979 56.2421 144.978 56.6866C145.703 57.0097 146.81 57.2448 147.529 57.5496C148.104 57.7942 149.337 58.5892 149.648 58.5945C149.833 58.5964 150.031 58.3948 150.223 58.4573ZM129.849 52.1347C130.137 51.7912 128.961 51.6194 129.242 52.0143C129.309 52.1042 129.77 52.2205 129.849 52.1347ZM94.6777 70.7149C94.5879 70.8007 94.4982 70.8865 94.4085 70.9723C94.5447 71.0596 94.6824 71.1486 94.8182 71.2352C94.8222 71.1216 94.826 71.0077 94.8296 70.8935C94.7789 70.8339 94.7275 70.7734 94.6777 70.7149Z" fill="#361700"/>
<path d="M161.428 100.173C161.625 100.303 161.747 100.621 161.952 100.806C162.777 101.555 163.018 101.902 163.754 102.588C164.348 103.141 165.67 104.152 166.679 105.044L166.541 104.952C166.791 105.171 167.292 105.496 167.57 105.789C167.86 106.085 167.988 106.362 167.872 106.589C167.872 106.589 167.872 106.589 167.872 106.589C167.867 106.599 167.861 106.609 167.855 106.618C167.741 106.8 167.287 106.833 167.128 107.025C166.967 107.217 166.311 108.638 165.793 108.484C165.541 108.401 165.188 108.225 164.739 107.906L164.638 107.838C164.015 107.287 163.358 106.559 163.129 106.395C162.896 106.228 162.514 106.108 162.216 105.902C161.226 105.21 160.817 104.733 159.738 104.332C159.543 103.901 159.344 103.463 159.152 103.03C158.663 102.736 158.205 101.981 157.933 101.763C157.716 101.589 157.491 101.607 157.265 101.417C157.011 101.207 156.751 100.744 156.296 100.373C155.534 99.7494 155.139 99.9589 154.663 99.6011C154.182 99.2421 153.637 98.4363 152.969 98.0239C152.867 97.9933 152.765 97.9624 152.662 97.931C152.642 98.0549 152.622 98.1787 152.602 98.3024C152.286 98.0778 152.302 97.8005 152.043 97.5565C151.742 97.2726 151.446 97.2747 151.236 97.079C151.06 96.9141 150.953 96.5917 150.724 96.3923C150.393 96.1025 150.302 96.3396 150.097 96.2081C150.024 96.1647 148.659 95.0607 148.592 94.9987C148.319 94.7468 148.223 94.5481 148.144 94.3595L148.321 94.5099C148.226 94.333 148.142 94.1589 147.916 93.9674C146.651 92.8983 145.181 92.0869 143.935 91.3168C143.379 90.9722 142.837 90.5747 142.333 90.1859C143.639 90.0499 142.085 88.2849 142.105 89.8298C141.605 89.2974 141.001 89.3459 140.472 88.9991C140.128 88.7776 139.953 88.4865 139.435 88.2746C138.448 87.873 137.671 88.3057 137.501 87.406C137.243 87.4598 137.054 87.5063 136.904 87.5692C136.988 87.5155 136.736 87.7039 136.601 87.9519C136.458 88.1983 136.402 88.4695 136.496 88.7832C136.309 89.0542 135.354 89.3919 135.042 89.6434C134.748 89.8765 132.681 91.8786 132.358 92.2242C132.028 92.5773 131.471 93.1841 131.267 93.5205C131 93.953 131.405 94.7639 130.068 94.7846C129.45 95.5958 129.183 95.8525 128.449 96.5011C128.312 96.6224 128.197 96.5322 128.129 96.6075C127.993 96.7593 127.839 97.0933 127.593 97.3868C127.197 97.8606 126.742 97.9063 127.135 98.1717C126.924 98.5248 126.701 98.8904 126.497 99.2336C126.336 99.2772 126.174 99.3218 126.011 99.3672C125.939 99.5946 125.863 99.8265 125.789 100.056C125.455 99.4125 124.743 100.8 125.361 100.697C124.717 101.2 124.11 101.662 123.464 102.166C122.954 101.579 122.253 103.369 122.659 103.547C122.598 103.614 122.536 103.681 122.473 103.749C122.416 103.786 122.361 103.826 122.308 103.866C121.72 104.311 121.345 104.91 120.637 105.469C119.864 106.076 119.872 105.955 119.411 105.918C119.268 106.094 119.12 106.272 118.975 106.447C118.812 107.983 117.786 106.64 116.833 108.585C115.941 108.591 114.993 109.914 114.351 110.769C114.276 110.868 114.356 110.957 114.262 111.095C114.031 111.431 113.192 112.018 113.482 112.271C113.345 112.339 113.209 112.405 113.072 112.473C112.877 112.571 112.683 112.668 112.491 112.764C112.332 113.014 112.17 113.267 112.013 113.516C112.097 113.601 112.181 113.686 112.265 113.771C111.561 113.884 111.012 114.631 110.62 114.874C110.543 114.921 110.413 114.817 110.18 114.979C109.909 115.166 109.505 115.622 109.185 115.857C109.202 116.094 109.22 116.33 109.235 116.568C108.799 117.121 108.286 116.942 107.961 117.197C107.905 117.244 106.94 118.191 106.888 118.25C106.493 118.715 106.929 118.907 105.51 120.011C105.254 120.205 104.955 120.265 104.719 120.441C104.515 120.591 104.198 120.924 103.768 121.297C103.547 121.48 103.301 121.688 102.885 121.87C102.517 122.065 101.606 122.143 101.008 121.818C100.973 121.825 100.944 121.836 100.923 121.852C100.594 121.232 99.0877 120.387 98.7711 119.988C98.6719 119.87 98.7874 119.662 98.4664 119.341C98.2039 119.082 97.3628 118.621 97.0415 118.289C96.6968 117.936 96.7081 117.673 96.5581 117.516C96.4192 117.37 96.1674 117.356 95.9677 117.166C95.338 116.563 94.9641 115.828 94.4917 115.345C93.8047 114.641 92.8628 114.347 92.1454 113.895C92.0232 113.72 91.9686 113.513 91.8213 113.353C91.4048 112.903 90.9914 112.444 90.5636 111.959C89.1766 110.387 87.7428 108.702 86.4479 107.154C85.6685 106.223 84.1229 103.541 83.861 104.864C83.4374 104.678 81.7048 102.1 81.3201 101.66C80.9347 101.22 80.4811 101.004 80.1724 100.664C79.2412 99.636 78.6939 98.8141 77.4461 97.6658C77.122 97.3679 76.6419 97.1731 76.4714 96.9769C76.2652 96.739 76.2142 96.347 75.954 96.0319C75.3405 95.292 74.0995 93.995 73.5201 93.2746C73.4147 93.1429 73.5257 92.9739 73.4096 92.7486C72.9722 91.8875 72.2636 91.1008 71.9165 91.6506C71.8823 91.5755 71.8466 91.503 71.8095 91.4331C71.2595 90.4141 70.3703 89.7985 69.6827 88.9895C69.1248 88.3325 68.4384 87.4622 67.7275 86.5271C67.3748 86.0644 67.0155 85.5824 66.6773 85.1462C66.5113 84.9326 66.3437 84.7241 66.2265 84.5985C66.1706 84.5375 66.1251 84.5004 66.1501 84.5259C66.1698 84.5449 66.3124 84.6677 66.5798 84.743C66.7081 84.7779 66.5835 84.7658 66.4155 84.835C66.2454 84.8975 66.0365 85.0038 65.8594 85.1201C65.0553 85.6779 65.1893 85.8968 63.7753 86.5883C63.7286 86.6126 63.6805 86.6374 63.6308 86.6628C63.2621 86.8514 62.8931 87.0208 62.4531 87.258C61.4278 87.8099 60.2544 88.0573 59.9148 89.1025C58.7741 89.7784 58.0132 90.5229 56.9138 90.713C56.9022 90.8844 56.8893 91.057 56.875 91.2308C56.7478 91.3354 56.628 91.4341 56.5005 91.539C56.385 91.4754 56.2692 91.4121 56.1532 91.3489C55.2134 92.0512 54.375 93.3581 53.5972 93.9747C52.7764 94.6253 51.099 95.8675 49.6302 96.9202C48.8 97.5129 48.0424 98.0656 47.5666 98.389C46.8799 98.8572 47.0167 99.0846 46.3079 98.9878C46.1906 99.138 46.0758 99.2863 45.9592 99.4365C45.9476 99.6015 45.9371 99.7658 45.9263 99.9303C45.1253 100.632 44.054 101.332 43.2901 102.009C41.8996 103.241 40.0105 105.344 38.4328 106.411C38.0392 106.677 37.4288 106.877 37.0748 107.177C36.7707 107.434 36.6882 107.683 36.5387 107.957C36.4331 108.149 36.2949 108.352 36.0307 108.573C34.9016 109.516 32.496 110.873 31.4371 111.769C31.1252 112.033 31.0675 112.271 30.8553 112.461C29.9666 113.261 29.1938 113.86 28.4288 114.751C27.2164 115.209 26.9945 114.749 26.3899 114.581C25.9644 114.439 24.5703 114.36 24.5587 113.97C24.5877 113.922 24.6451 113.87 24.6289 113.843C24.6155 113.815 24.54 113.809 24.4852 113.8C24.3649 113.787 24.3469 113.725 24.3099 113.667C24.2472 113.546 24.2035 113.408 24.1019 113.322C24.9917 112.431 25.6876 112.155 26.8197 111.728C28.5277 110.365 30.2199 108.981 31.9135 107.584C32.1614 107.562 32.3962 107.551 32.6412 107.532C32.6414 107.532 32.6416 107.532 32.6418 107.532C33.3969 107.124 33.4454 106.62 33.745 106.269C33.9742 106.003 34.2093 105.742 34.4853 105.458C37.6256 102.21 43.5854 97.408 47.1396 94.645C47.2473 94.5606 47.3846 94.448 47.5411 94.3182C48.5817 93.4549 50.5686 91.7138 51.1716 91.4854C51.3529 91.4162 51.5271 91.5526 51.6836 91.4397C52.9702 90.2486 54.256 89.0616 55.5529 87.8783C57.6144 86.5529 59.5676 84.9416 61.6273 83.4497C62.625 82.7364 63.6363 82.0273 64.9753 81.5286C65.6351 81.3094 66.4114 81.0554 67.4902 81.3042C68.1405 81.4864 68.4521 81.8154 68.6688 82.0151C68.8871 82.2311 69.0377 82.4118 69.1826 82.5852C69.4662 82.9289 69.7151 83.2514 69.9637 83.5679C70.459 84.2013 70.9529 84.824 71.4538 85.4365C72.4604 86.6688 73.4916 87.8673 74.5514 89.0608C78.4786 93.4689 82.4655 97.8347 86.3703 102.222C87.609 103.612 89.304 105.247 90.4529 106.669C90.9308 107.26 90.8885 107.728 91.7494 108.291C91.6875 108.362 91.6257 108.432 91.5639 108.503C92.0981 108.955 92.5602 109.231 93.0618 109.68C93.1836 109.79 93.3075 109.909 93.4348 110.041C93.9951 110.632 95.4785 112.187 95.952 112.717C96.1962 112.993 95.9794 113.02 96.2201 113.264C96.6373 113.686 97.7009 114.401 98.2857 114.946C98.8113 115.446 99.5939 116.406 100.035 116.727C100.955 117.413 101.938 117.967 103.021 118.529C102.727 118.345 102.44 118.299 102.267 118.292C102.102 118.286 102.004 118.306 101.958 118.313C101.853 118.335 101.871 118.33 101.897 118.309C101.96 118.267 102.105 118.168 102.25 118.06C102.549 117.838 102.887 117.566 103.235 117.296C103.686 116.948 104.408 116.601 104.543 116.47C104.806 116.214 104.736 115.98 104.9 115.79C105.724 114.839 107.336 113.654 108.243 112.794C109.126 111.957 110.01 111.1 110.908 110.227C113.061 108.139 115.23 106.15 117.208 104.171C117.933 103.452 118.828 102.514 119.732 101.528C121.088 100.05 122.505 98.5217 123.514 97.5482C123.887 97.1872 123.974 97.4502 124.258 97.134C124.565 96.7928 124.63 96.4779 124.768 96.3047C125.731 95.0985 127.872 92.4592 128.96 91.4834C129.162 91.3049 129.441 91.2741 129.552 91.1482C129.608 91.0849 129.64 90.8565 129.799 90.6577C131.271 88.8361 132.386 87.6386 134.057 85.9158C134.445 85.5695 134.73 85.1023 135.748 84.6471C138.843 83.6821 141.044 85.1204 143.023 86.1163C144.997 87.232 146.761 88.5342 148.369 89.8294C149.153 90.4642 149.468 91.1791 149.579 91.2596C149.807 91.426 150.083 91.3767 150.527 91.6086L150.651 91.7141C150.693 91.7429 150.737 91.7747 150.783 91.8099C152.43 93.0925 154.281 95.1816 155.823 96.415C156.585 97.0265 157.783 97.6788 158.541 98.2582C159.151 98.7284 160.415 99.9994 160.764 100.115C160.976 100.186 161.218 100.037 161.428 100.173ZM138.962 87.8743C139.086 87.6876 138.833 87.5808 138.6 87.5866C138.372 87.593 138.181 87.7066 138.349 87.8628C138.418 87.9275 138.894 87.9659 138.962 87.8743ZM90.0054 110.252C89.9227 110.345 89.84 110.438 89.7573 110.531C89.919 110.632 90.089 110.743 90.2537 110.847C90.2372 110.718 90.2201 110.589 90.2022 110.459C90.1346 110.388 90.0715 110.322 90.0054 110.252Z" fill="#361700"/>
<path d="M157.324 140.734C157.466 140.882 157.499 141.209 157.63 141.41C158.172 142.246 158.287 142.611 158.742 143.383C158.822 143.518 158.922 143.675 159.042 143.859L158.997 143.795C159.392 144.377 159.943 144.967 160.615 145.951C161.527 147.388 161.396 148.383 160.932 148.535C160.932 148.535 160.932 148.535 160.932 148.535C160.921 148.539 160.91 148.542 160.899 148.545C160.692 148.602 160.358 148.356 160.111 148.392C159.868 148.437 158.402 148.971 158.182 148.671C158.061 148.501 158.005 148.32 157.863 148.046C157.609 147.578 157.177 146.867 157.03 146.697C156.854 146.504 156.538 146.338 156.311 146.082C156.259 146.022 156.209 145.964 156.16 145.906L156.13 145.864C155.579 145.159 155.334 144.69 154.553 144.199C154.508 143.779 154.466 143.365 154.419 142.947C154.065 142.612 153.859 141.871 153.673 141.648C153.524 141.467 153.31 141.452 153.157 141.263C152.984 141.053 152.862 140.61 152.529 140.247C151.978 139.652 151.568 139.836 151.22 139.544C150.86 139.244 150.488 138.585 149.956 138.396C149.875 138.395 149.794 138.396 149.715 138.4C149.696 138.512 149.675 138.624 149.652 138.736C149.538 138.686 149.488 138.607 149.442 138.524C149.303 138.382 149.166 138.214 149.022 138.1C148.654 137.804 148.379 137.824 148.181 137.646C148.009 137.49 147.92 137.185 147.711 137.001C147.424 136.747 147.318 136.971 147.136 136.857C147.063 136.813 145.891 135.856 145.83 135.801C145.37 135.37 145.551 135.098 145.205 134.731C144.246 133.718 143.019 132.976 142.002 132.313C141.545 132.015 141.112 131.677 140.707 131.351C141.871 131.125 140.63 129.563 140.539 131.035C140.144 130.574 139.627 130.688 139.215 130.436C138.947 130.277 138.806 130.024 138.415 129.918C138.062 129.826 137.73 129.922 137.527 129.945C137.319 129.967 137.195 129.897 136.979 129.481C136.784 129.6 136.612 129.69 136.447 129.817C135.973 130.18 135.608 130.549 135.755 131.124C135.573 131.344 134.679 131.493 134.377 131.676C134.105 131.846 132.048 133.37 131.707 133.62C131.379 133.879 130.801 134.331 130.565 134.606C130.277 134.944 130.532 135.815 129.309 135.502C128.619 136.113 128.336 136.28 127.573 136.675C127.436 136.745 127.338 136.635 127.264 136.685C127.11 136.792 126.916 137.056 126.646 137.253C126.209 137.573 125.778 137.485 126.087 137.845C125.836 138.104 125.567 138.372 125.314 138.626C125.159 138.617 125.004 138.608 124.849 138.599C124.826 138.637 124.803 138.675 124.781 138.713C124.699 138.857 124.614 139.003 124.528 139.151C124.352 138.459 123.444 139.502 124.016 139.603C123.366 139.845 122.706 140.092 122.057 140.332C121.727 139.628 120.738 141.05 121.075 141.334C121.009 141.375 120.942 141.416 120.876 141.457C120.187 141.644 119.743 142.118 118.963 142.441C118.181 142.764 118.209 142.658 117.807 142.489C117.652 142.609 117.493 142.732 117.339 142.851C116.978 144.22 116.245 142.692 115.141 144.252C114.341 144.027 113.33 145.028 112.643 145.667C112.564 145.742 112.624 145.844 112.522 145.95C112.271 146.207 111.434 146.541 111.66 146.852C111.338 146.92 111.02 146.984 110.699 147.051C110.52 147.242 110.342 147.432 110.164 147.623C110.228 147.724 110.291 147.826 110.355 147.927C109.708 147.844 109.11 148.393 108.725 148.512C108.647 148.536 108.547 148.405 108.315 148.492C108.047 148.593 107.616 148.912 107.303 149.041C107.286 149.265 107.265 149.491 107.247 149.715C106.785 150.111 106.345 149.812 106.026 149.96C105.966 149.99 104.981 150.621 104.933 150.661C104.533 150.995 104.871 151.275 103.536 151.962C103.452 152.004 103.367 152.03 103.283 152.049C103.122 152.09 102.965 152.112 102.83 152.186C102.457 152.394 101.505 153.315 101.56 153.624C100.923 153.561 99.7748 154.369 99.3379 154.47C99.2087 154.5 99.075 154.304 98.7011 154.435C98.3958 154.543 97.7315 155.079 97.198 155.216C96.6471 155.361 96.227 155.199 95.8958 155.159C95.814 155.15 95.7424 155.15 95.6879 155.157C95.5314 155.178 95.3609 155.24 95.1657 155.204C94.6242 155.099 94.2228 154.882 93.8564 154.733C93.6608 154.654 93.4568 154.585 93.2599 154.545C92.4139 154.379 91.5066 154.649 90.6789 154.598C90.5053 154.508 90.3521 154.346 90.1646 154.276C87.7867 153.388 85.5323 151.816 83.7248 150.326C82.8531 149.636 81.2325 147.413 81.0799 148.697C80.6524 148.601 78.9024 146.451 78.5437 146.088C78.4937 146.04 78.4425 145.995 78.3906 145.953C78.066 145.695 77.7061 145.555 77.453 145.318C76.5668 144.486 76.0523 143.798 74.8783 142.898C74.5725 142.664 74.124 142.549 73.9629 142.389C73.7696 142.197 73.7184 141.837 73.4749 141.581C72.8986 140.977 71.7326 139.942 71.1876 139.355C71.088 139.248 71.1878 139.073 71.0809 138.883C70.665 138.144 69.9991 137.521 69.6791 138.078C69.1806 137.096 68.2668 136.652 67.5623 135.99C66.0774 134.592 63.5144 131.885 62.0623 130.853C61.3552 130.349 61.0907 130.364 60.5474 129.811C60.3767 129.638 60.1919 129.424 59.9534 129.123C59.7269 128.837 59.5126 128.538 59.2373 128.197C58.5979 127.401 58.223 126.373 57.2805 126.408C57.0779 126.182 56.8744 125.999 56.7547 125.896C56.7044 125.847 56.654 125.821 56.7887 125.858C56.8584 125.873 56.9948 125.918 57.2718 125.912C57.5469 125.915 57.9404 125.766 58.0543 125.675C58.2153 125.532 58.0438 125.592 57.925 125.629C57.7898 125.673 57.6234 125.729 57.433 125.775C57.467 125.926 57.493 126.087 57.5271 126.24C57.4385 126.343 57.3528 126.443 57.2628 126.55C57.144 126.501 57.0245 126.453 56.9043 126.405C56.2215 127.133 55.7377 128.452 55.1585 129.097C54.1925 130.194 51.5005 132.825 50.4244 133.703C50.2693 133.831 50.1668 133.941 50.0866 134.032C49.8807 134.265 49.8238 134.369 49.3358 134.314C49.2496 134.457 49.1586 134.604 49.0731 134.745C49.0859 134.9 49.0981 135.056 49.1097 135.211C48.4537 135.89 47.5433 136.549 46.914 137.182C45.7688 138.335 44.2686 140.275 42.9706 141.268C42.6443 141.518 42.1137 141.706 41.835 141.988C41.4276 142.401 41.6128 142.783 41.1013 143.308C40.2197 144.21 38.2469 145.564 37.4872 146.452C37.3526 146.608 37.297 146.751 37.2483 146.876C37.2095 146.967 37.1723 147.051 37.1111 147.129C36.4788 147.936 35.9125 148.556 35.4567 149.44C34.4963 149.974 34.1759 149.593 33.5834 149.525C33.3585 149.502 32.9606 149.496 32.5687 149.505C32.1684 149.536 31.8272 149.449 31.5313 149.696C31.4953 149.752 31.4752 149.749 31.4304 149.877C31.3917 149.981 31.3777 150.116 31.3624 150.095C31.3456 150.079 31.3357 149.935 31.3449 149.834C31.3566 149.719 31.3484 149.704 31.3534 149.643C31.3528 149.472 31.3243 149.397 31.297 149.306C31.2349 149.145 31.1621 149.005 30.9982 149.024C31.8182 147.527 32.2639 147.448 33.2439 146.843C33.8235 146.166 34.401 145.508 34.9915 144.843C35.6961 144.05 36.4193 143.283 37.1371 142.532C37.3599 142.503 37.5826 142.475 37.8039 142.449C37.8041 142.449 37.8043 142.449 37.8045 142.449C38.4361 142.034 38.3977 141.563 38.6216 141.22C40.3945 138.487 44.7491 134.706 47.7663 131.811C48.356 131.244 48.8974 130.712 49.3643 130.234C49.9952 129.597 51.8037 127.332 52.3739 127.023C52.5227 126.945 52.7158 127.052 52.8335 126.933C53.7676 125.706 54.5251 124.542 55.6612 123.197C55.8361 123.062 55.9908 122.919 56.3591 122.715C56.5514 122.601 56.9456 122.474 57.2532 122.487C57.5642 122.492 57.7681 122.56 57.9247 122.618C58.2354 122.741 58.4012 122.857 58.5625 122.963C58.8692 123.175 59.11 123.377 59.3434 123.572C59.809 123.965 60.2383 124.348 60.6681 124.725C61.5301 125.486 62.3815 126.227 63.2342 126.982C63.8054 127.488 64.3675 127.993 64.9168 128.506C70.2763 133.52 75.5144 138.558 80.7198 143.481C81.556 144.268 82.3974 145.034 83.2517 145.775C84.4281 146.802 86.0941 147.905 87.2732 148.812C87.7591 149.186 87.8077 149.633 88.6376 149.823C88.5981 149.908 88.5588 149.993 88.5195 150.078C89.1958 150.336 89.6887 150.36 90.3937 150.659C90.9873 150.938 92.5614 151.443 93.1235 151.575C93.4135 151.656 93.2633 151.802 93.5486 151.859C93.7448 151.897 94.0402 151.911 94.3976 151.931C94.9586 151.969 95.5268 152.018 95.861 152.072C95.9316 152.083 96.0054 152.098 96.0795 152.114C96.1942 152.133 95.9979 152.146 96.0493 152.166C96.0771 152.181 96.1957 152.169 96.3202 152.142C96.5774 152.087 96.8644 151.987 97.037 151.89C98.4388 151.098 99.9096 149.919 101.51 149.033C101.586 148.991 101.663 148.949 101.742 148.908C102.213 148.656 102.91 148.504 103.049 148.413C103.325 148.234 103.291 147.998 103.464 147.862C104.343 147.171 105.954 146.502 106.89 145.944C109.938 144.131 113.087 142.079 116.111 140.251C118.024 139.095 121.144 137.105 122.98 136.145C123.036 136.115 123.085 136.096 123.128 136.083C123.385 136.008 123.446 136.177 123.71 136.009C124.049 135.793 124.151 135.532 124.299 135.42C125.362 134.635 127.601 132.838 128.651 132.197C128.857 132.074 129.102 132.119 129.213 132.028C129.27 131.983 129.312 131.784 129.476 131.632C130.931 130.294 131.982 129.371 133.596 128.046C133.906 127.796 134.232 127.54 134.579 127.287C136.777 125.613 139.694 126.414 141.444 127.345C143.326 128.315 144.872 129.572 146.23 130.844C146.885 131.463 147.071 132.154 147.164 132.234C147.365 132.413 147.669 132.354 148.109 132.69C149.173 133.481 150.501 135.025 151.256 135.566C151.756 135.877 152.189 136.206 152.573 136.498C153.358 137.088 154.447 137.837 155.062 138.491C155.567 139.011 156.436 140.398 156.722 140.562C156.897 140.661 157.168 140.574 157.324 140.734ZM138.051 129.625C138.128 129.419 137.925 129.366 137.767 129.423C137.602 129.478 137.505 129.631 137.633 129.747C137.685 129.795 138.003 129.728 138.051 129.625ZM87.5421 152.203C87.4912 152.317 87.4404 152.43 87.3898 152.544C87.5636 152.583 87.7465 152.625 87.9195 152.66C87.8705 152.549 87.8216 152.437 87.7726 152.325C87.6945 152.284 87.6162 152.243 87.5421 152.203Z" fill="#361700"/>
<defs>
<linearGradient id="paint0_linear_4055_380" x1="98.8633" y1="15" x2="98.8633" y2="185.207" gradientUnits="userSpaceOnUse">
<stop stop-color="#D58937"/>
<stop offset="0.495192" stop-color="#9A4C0F"/>
<stop offset="1" stop-color="#5E2C06"/>
</linearGradient>
<linearGradient id="paint1_linear_4055_380" x1="98.0493" y1="15.2578" x2="98.0493" y2="183.833" gradientUnits="userSpaceOnUse">
<stop stop-color="#D58937"/>
<stop offset="0.495192" stop-color="#9A4C0F"/>
<stop offset="1" stop-color="#5E2C06"/>
</linearGradient>
</defs>
</svg>
