<svg width="195" height="200" viewBox="0 0 195 200" fill="none" xmlns="http://www.w3.org/2000/svg">
<path d="M59.1725 53.1746C62.6157 55.39 66.2641 55.804 67.5903 55.771C67.9989 51.1529 69.9139 44.3631 70.0947 42.1711C70.4249 39.3753 71.1445 37.3519 74.9993 30.7231L75.0391 30.6645C76.0596 29.1652 76.6826 28.2498 79.0487 25.5163C80.9883 23.2755 84.2804 19.3955 86.3273 17.4036C88.846 14.9526 90.187 14.3025 93.6834 14.1596C96.4002 14.0486 100.923 13.9833 104.796 14.514C108.669 15.0447 111.834 16.0405 113.954 17.0158C117.257 18.5357 120.915 20.3058 123.43 24.5842C124.889 27.0673 124.968 28.943 126.177 31.1702C127.94 34.4193 130.681 38.9865 132.267 44.2497C133.659 48.8647 134.195 52.8625 134.893 52.3771C136.457 51.2896 140.827 47.7705 145.028 46.0706C145.936 45.7034 148.783 44.1975 154.81 43.4741C162.312 42.5737 166.995 42.2578 168.279 42.736C170.051 43.3963 173.546 44.6258 177.474 48.0801C181.704 51.799 185.369 55.5868 186.913 59.0771C187.869 61.2383 188.028 62.3693 187.996 65.8371C187.967 68.978 187.997 74.7594 187.917 77.8069C187.829 81.1629 187.871 83.4729 187.237 88.7913C186.26 96.9805 185.507 102.499 184.891 103.543C184.07 104.934 173.631 110.52 176.006 113.761C176.411 114.313 179.85 118.025 180.395 121.389C180.618 122.766 181.897 125.855 182.377 129.705C182.812 133.192 182.393 136.16 180.13 142.789C179.092 145.829 177.553 150.224 176.982 153.111C176.178 157.171 176.059 159.032 175.594 160.582C174.913 162.854 174.283 165.134 171.68 168.164C169.62 170.561 166.098 174.591 163.304 177.009C158.943 180.783 156.465 182.591 153.782 183.535C149.28 185.119 144.552 186.569 141.051 186.736C138.581 186.853 134.792 185.868 130.19 184.425C128.34 183.845 127.408 183.594 122.506 181.531C117.603 179.468 108.991 175.707 104.333 173.758C99.675 171.809 98.9941 171.631 98.5033 171.631C97.7272 171.63 96.3522 171.969 94.2806 173.221C91.816 174.711 87.6147 177.007 83.1483 178.908C81.2933 179.697 77.3719 181.899 70.5722 184.634C67.502 185.868 65.0807 186.658 63.2909 186.879C60.4392 187.233 58.4378 187.196 55.0307 186.205C52.4737 185.462 48.3579 184.161 45.2236 182.547C42.0892 180.933 39.9995 179.063 37.4894 176.61C34.9793 174.156 32.1348 171.209 29.7629 168.541C27.3911 165.873 25.5476 163.556 24.3943 160.913C23.2411 158.271 22.7917 155.39 22.5281 151.689C22.2645 147.988 22.0985 143.596 22.239 140.507C22.4588 135.672 22.6881 131.457 26.03 126.84C29.1599 122.515 31.5265 119.363 31.033 118.801C29.7938 117.389 26.9125 116.324 22.6795 109.732C18.7621 103.632 16.5392 99.7591 16.2692 99.0049C15.9392 98.0831 13.8623 94.4578 11.1657 88.7329C9.98676 86.23 9.2834 84.4227 8.71535 82.3763C7.54863 78.1732 6.79365 75.3646 7.05005 73.8197C7.42813 71.5415 8.18198 68.0909 10.2252 63.5901C11.411 60.9782 13.0873 57.848 13.9774 56.0708C15.3815 53.2672 16.0018 52.0619 18.6799 50.2215C23.6392 46.8135 27.4498 44.4397 28.578 43.9717C29.5493 43.5686 30.2885 43.2661 33.3575 43.4758C36.1434 43.6663 41.2735 44.0806 44.0736 44.298C46.8737 44.5155 47.3364 44.5021 47.6938 44.6015C48.3212 44.7759 52.3369 48.7764 59.1725 53.1746Z" fill="url(#paint0_linear_4055_161)" stroke="#C9A16C" stroke-width="5" stroke-linecap="round"/>
<path d="M67.938 38.8315C67.0548 42.562 69.786 62.2939 67.0918 58.6935C64.4447 55.1563 55.3687 46.281 50.385 44.609C48.1396 43.8557 43.1745 43.6244 36.3786 44.3582C33.3417 44.6861 30.8134 45.2024 27.2214 47.607C22.9022 50.4982 19.8118 52.7756 18.5794 54.6993C17.0693 57.0568 14.606 60.1733 14.326 65.5398C13.9198 73.3271 13.7452 80.2132 14.7017 83.8568C15.8388 88.188 17.197 92.1148 22.0596 96.6136C27.2868 101.45 31.1751 104.942 33.3211 105.976C36.4442 107.482 41.1483 107.95 40.323 108.922C39.9276 109.388 37.8657 110.336 35.4328 113.454C32.9989 116.573 28.6334 122.708 25.0456 129.954C23.3355 133.408 22.4412 135.231 22.4254 137.266C22.3673 144.746 22.761 155.8 24.5911 159.052C27.6913 164.56 29.6669 168.889 40.0285 172.497C47.0149 174.93 53.3066 176.504 58.4435 175.983C63.6208 175.459 67.8759 174.767 71.2299 173.204C75.1788 171.365 79.4112 169.204 82.6032 166.467C84.8891 164.507 86.6967 162.738 89.7539 158.022C95.9897 148.404 99.9909 140.856 100.595 141.212C100.933 141.412 101.36 142.482 102.941 145.236C107.051 152.398 111.307 159.326 114.639 162.739C116.671 164.821 118.764 166.742 121.857 168.257C125.034 169.813 128.471 171.283 134.24 171.494C138.221 171.64 144.249 171.791 148.621 171.122C155.716 170.036 159.321 169.114 161.584 167.667C165.232 165.335 169.654 162.386 172.662 158.098C177.494 151.21 181.242 144.131 181.16 138.125C181.039 129.151 180.641 124.849 179.392 122.187C177.579 118.32 165.328 108.889 168.601 104.929C169.551 103.78 173.691 101.601 177.431 97.5632C181.059 93.647 184.174 90.2527 185.738 87.195C188.009 82.7566 189.892 79.271 189.961 76.106C190.082 70.4894 189.971 65.2704 188.934 61.9269C187.836 58.3832 186.637 54.8347 184.884 52.4967C182.531 49.3595 178.87 45.254 173.972 43.4077C169.818 41.8416 163.605 40.4565 157.568 41.0809C153.842 41.4663 151.717 41.8176 148.18 44.2708C140.361 49.6938 134.691 54.4032 134.713 53.8805C134.765 52.6238 135.225 49.5686 134.703 45.9034C133.917 40.373 133.105 35.7218 128.383 29.709C122.594 22.3368 118.396 17.1223 116.934 16.0845C115.417 15.0077 113.916 13.886 112.327 13.4549C109.155 12.5941 101.042 11.0763 94.4123 13.0525C92.4147 13.648 89.5594 14.3589 85.3718 17.896C78.7085 23.5243 73.1426 28.7516 70.9618 32.3824C69.4921 34.8292 68.4291 36.7574 67.938 38.8315Z" fill="url(#paint1_linear_4055_161)"/>
<path d="M39.2642 41.5922C40.0916 41.5021 41.2698 41.5994 42.2548 41.5808C46.0578 41.5928 47.5348 41.5611 51.072 42.5612C51.4099 42.6811 51.7599 42.8267 52.0995 42.9849C57.9291 45.4228 69.0171 56.9621 67.9997 58.0141C67.9997 58.0141 67.9997 58.0141 67.9996 58.0141C67.9908 58.0207 67.9809 58.0262 67.97 58.0305C67.7717 58.105 66.7136 57.1684 66.3962 57.1841C66.0784 57.1959 65.0026 58.3057 63.6881 57.0047C61.818 55.0586 57.2387 50.3699 56.0494 49.5401C55.267 48.9343 54.2216 48.3187 53.178 47.6564C51.9256 46.8639 50.8429 46.2808 49.9235 45.9843C48.3845 45.5398 46.6125 45.4748 44.3878 45.6797C42.9445 45.4616 41.4701 45.3099 39.9839 45.2018C38.9704 45.3168 37.6725 45.3763 36.4961 45.4463C35.46 45.5034 34.5535 45.5905 34.0354 45.7047C33.1323 45.9058 32.6618 46.2 31.7829 46.5251C30.8424 46.876 29.3662 47.3967 27.7968 48.4666C27.725 48.5151 27.6533 48.5641 27.5817 48.6135C24.807 50.5406 24.5641 51.2389 23.0336 52.4757C22.0721 53.279 20.6175 54.3493 19.8298 55.5003C19.2051 56.4392 18.6152 57.2996 18.1815 58.1449C18.0591 58.4419 17.9434 58.7401 17.838 59.0353C18.0353 58.8884 18.2347 58.7457 18.4371 58.6045C17.8707 59.7065 17.456 60.0795 17.0495 61.123C16.5994 62.3591 16.6667 63.0584 16.516 63.9144C16.4362 64.3959 16.2879 64.9948 16.2099 65.6381C16.172 65.9676 16.141 66.2984 16.1277 66.6299C16.0671 68.1528 16.3193 67.8311 16.3264 68.6499C16.308 68.9834 16.2624 74.9876 16.2977 75.3095C16.3184 77.8465 16.0027 78.0798 16.1048 80.0637C16.1794 81.2173 16.32 82.3778 16.586 83.3622C17.6582 87.7297 19.6609 91.2103 22.4921 93.9115C22.8494 94.2645 23.2118 94.6075 23.5936 94.9555C24.9729 96.2133 26.3529 97.5117 27.677 98.7546C24.3623 96.8911 30.063 102.838 28.6234 99.8333C30.4454 101.664 32.1351 102.698 33.8722 103.843C34.0076 103.928 34.1369 104.005 34.2421 104.066C35.2023 104.585 36.1321 105.035 38.0543 105.572C38.6159 105.731 39.1919 105.876 39.8417 106.078C40.1721 106.186 40.5031 106.285 40.9699 106.523C41.2176 106.674 41.5023 106.758 41.9849 107.369C42.2069 107.652 42.5011 108.315 42.408 108.975C42.3699 109.291 42.2763 109.547 42.1655 109.763C42.0704 109.948 41.9634 110.098 41.8578 110.225C41.6082 110.513 41.4884 110.594 41.3764 110.691C41.2668 110.781 41.1799 110.848 41.098 110.911C40.937 111.034 40.8004 111.136 40.6684 111.236C40.4067 111.435 40.1718 111.619 39.9447 111.805C39.4935 112.172 39.0892 112.53 38.72 112.852C37.9799 113.498 37.3821 113.994 36.876 114.094C36.7987 114.196 36.7239 114.297 36.6472 114.402C33.9605 118.069 31.5899 121.254 31.3841 123.072C30.7723 124.123 28.7755 126.567 28.0728 127.749C27.8579 128.103 27.2098 129.219 26.4556 130.653C25.2999 132.864 23.7638 135.672 23.8306 137.277C23.8079 138.138 23.7984 138.806 23.7967 139.133C23.7833 140.776 23.8286 143.652 23.9581 145.029C24.1215 146.765 24.9919 147.907 24.2839 151.034C24.7493 154.426 24.8074 155.98 25.7334 158.409C25.7615 158.463 25.7897 158.517 25.8182 158.572C26.0995 159.116 26.0061 159.25 26.179 159.559C26.5386 160.199 27.2291 161.231 27.9117 162.287C29.0294 164.016 29.5895 165.038 29.7943 164.573C30.6997 165.524 31.7066 166.35 32.7994 167.058C33.1128 167.403 33.4408 167.737 33.7913 168.067C34.4437 168.364 35.1118 168.629 35.7974 168.872C34.6842 169.142 39.5601 170.89 38.1799 169.853C38.967 170.231 39.7536 170.578 40.5795 170.914C42.2731 171.604 43.9758 172.26 45.6938 172.854C45.108 173.558 51.433 174.394 50.9771 173.797C51.2746 173.853 51.5731 173.907 51.8693 173.956C53.9677 174.46 55.9872 174.574 58.2826 174.396C58.8447 174.348 59.4269 174.301 60.0358 174.256C63.3371 173.991 63.0254 174.065 64.0766 174.259C64.8386 174.106 65.5926 173.936 66.3363 173.741C68.5167 172.605 69.223 172.716 70.7975 172.276C71.8941 171.93 73.3969 171.362 75.7424 169.755C77.2725 169.396 79.9668 167.849 82.092 165.871C83.1119 164.934 84.0286 163.975 84.7524 163.094C85.0163 162.772 84.9344 162.688 85.267 162.246C86.1057 161.198 88.2334 158.392 87.8372 158.268C88.1018 157.942 88.3584 157.621 88.6198 157.287C89.1275 156.639 89.6273 155.995 90.128 155.344C90.6102 154.455 91.093 153.556 91.5682 152.661C91.4639 152.602 91.3596 152.543 91.2554 152.484C92.679 150.975 94.2153 148.146 95.1191 146.841C95.3005 146.58 95.4766 146.607 96.0238 145.793C96.6724 144.833 97.7244 142.991 98.5746 141.834C98.6535 141.557 98.7464 141.265 98.8553 140.973C98.9204 140.814 98.9783 140.668 99.0757 140.491C99.1137 140.414 99.1883 140.302 99.2651 140.2C99.2989 140.154 99.3624 140.082 99.4369 140.012C99.5226 139.936 99.5646 139.882 99.778 139.763C99.9122 139.7 100.063 139.637 100.307 139.6C100.609 139.551 101.059 139.6 101.418 139.818C101.781 140.041 101.898 140.206 102.007 140.326C102.108 140.448 102.174 140.544 102.231 140.628C102.342 140.796 102.416 140.927 102.486 141.053C102.621 141.301 102.721 141.513 102.811 141.714C102.989 142.114 103.115 142.459 103.229 142.783C103.452 143.425 103.616 143.977 103.944 144.587C103.95 144.598 103.96 144.616 103.975 144.642C104.274 145.183 106.464 148.868 106.603 149.065C107.75 150.784 107.733 150.131 110.883 155.155C111.453 156.041 111.817 156.823 112.363 157.598C112.991 158.501 114.65 160.481 115.915 161.493C116.608 162.071 117.152 162.449 117.317 162.466C118.164 163.724 120.685 165.735 122.648 166.641C123.343 166.989 123.913 167.266 124.262 167.451C124.679 167.667 124.675 167.954 126.002 168.512C127.074 169.002 130.009 169.55 131.476 169.719C133.014 169.939 133.582 170.143 134.288 170.193C134.293 170.193 134.299 170.193 134.304 170.194C134.999 170.232 135.649 170.094 136.594 170.12C139.546 170.204 142.214 170.455 144.524 170.335C145.909 170.263 147.215 170.065 148.414 169.771C150.181 169.343 151.831 168.852 153.399 168.417C154.081 168.314 154.763 168.276 155.46 168.113C157.32 167.673 159.222 167.135 160.665 166.229C164.716 163.69 168.711 160.88 171.351 157.178C172.882 155.038 174.308 152.882 175.545 150.734C176.596 148.944 178.356 145.761 179.109 143.17C179.896 140.574 179.782 138.79 179.147 140.008C179.14 139.717 179.211 139.034 179.208 138.151C179.226 134.493 179.167 127.644 178.821 126.21C178.603 124.848 178.21 123.78 177.758 122.953C177.632 122.736 177.411 122.421 177.18 122.105C174.428 118.535 171.667 116.327 167.884 111.208C166.938 109.851 165.816 108.031 165.898 106.353C165.913 105.473 166.305 104.383 167.024 103.626C167.87 102.778 168.415 102.556 169.059 102.074C171.067 100.681 174.01 98.4835 176.018 96.254C176.9 95.2993 177.703 94.4308 178.331 93.7543C178.727 93.3269 179.011 93.3053 179.608 92.7235C181.99 90.477 183.927 87.5584 183.041 87.7324C183.411 87.2667 183.739 86.7898 184.013 86.3121C185.709 83.2708 187.143 80.24 187.733 77.5277C187.832 77.0474 187.9 76.5532 187.909 76.0617C187.945 72.1046 188.172 66.7606 186.984 62.5314C185.916 59.0735 184.735 55.7169 183.2 53.7598C182.309 52.6103 181.449 51.6358 180.677 50.8627C177.693 48.1782 177.609 47.9824 173.114 45.684C172.905 45.5965 172.682 45.5056 172.449 45.4134C171.161 44.9071 169.84 44.4426 168.193 44.0102C164.404 43.0118 160.681 42.3235 157.789 43.2191C157.749 43.2308 157.709 43.2426 157.67 43.2546C153.837 43.4224 151.691 44.3433 149.221 45.7728C148.646 46.0992 148.077 46.4049 147.502 46.6916C147.242 47.0312 146.985 47.3699 146.729 47.7101C146.268 48.043 145.806 48.3792 145.347 48.7159C145.134 48.7201 144.915 48.7284 144.7 48.7347C143.282 49.7481 141.769 50.9736 140.28 52.2129C139.538 52.83 138.794 53.456 138.07 54.0506C137.7 54.3528 137.338 54.6462 136.96 54.9359C136.776 55.0773 136.574 55.228 136.361 55.3744C136.241 55.456 136.129 55.5313 135.965 55.6256C135.883 55.6714 135.777 55.7322 135.595 55.8068C135.458 55.8558 135.378 55.9045 135.017 55.9585C134.773 55.9802 134.369 56.0312 133.774 55.7357C133.469 55.5935 133.033 55.1857 132.862 54.7906C132.671 54.3894 132.649 54.0388 132.657 53.7953C132.676 53.0864 132.721 52.5883 132.757 52.0861C132.874 50.5812 132.984 48.4961 132.68 46.191C132.227 40.4343 129.873 34.2802 126.982 30.8095C126.427 30.0702 125.942 29.42 125.54 28.8788C123.794 26.5254 123.486 26.5603 122.861 24.9201C122.419 24.428 121.984 23.947 121.542 23.4595C121.192 23.2144 120.844 22.9725 120.495 22.7303C119.068 21.0159 117.303 18.6908 115.948 17.4744C114.699 16.5428 113.565 15.6965 112.554 15.2749C112.334 15.182 112.114 15.1042 111.896 15.0466C107.075 13.7926 99.9967 13.2915 94.9348 14.8054C93.5727 15.1877 92.4979 15.5209 91.4831 15.9554C90.1115 16.5181 88.3584 17.3732 87.1544 18.3369C86.8362 18.5883 86.5761 18.8205 86.3432 19.046C85.2623 20.0933 84.8112 20.8241 82.9988 22.4226C80.0884 25.037 74.7905 29.3092 72.25 33.1562C71.4869 34.3644 70.8419 35.458 70.4075 36.3686C69.8333 37.5887 69.7837 38.203 69.5757 39.0337C69.5618 39.0926 69.5485 39.1513 69.5358 39.2098C69.2397 42.48 69.6619 46.2717 70.0513 50.1086C69.8829 54.4572 69.338 54.1212 68.8588 55.4692C68.6687 55.9758 68.361 57.0333 67.9367 57.9201C67.8328 58.1185 67.7147 58.3412 67.5907 58.489C67.5293 58.5623 67.4685 58.6095 67.4207 58.6197C67.377 58.6316 67.3587 58.5397 67.5162 58.4463C67.6702 58.356 67.8528 58.3962 67.8717 58.3766C67.9178 58.3674 67.9236 58.3386 67.9288 58.3037C67.9415 58.2384 67.9388 58.1575 67.9482 58.102C67.9648 57.9329 68.2019 58.0228 68.2975 57.9195C68.4407 57.835 68.0601 57.4448 68.4873 57.5561C68.3895 57.4958 68.2753 57.3636 67.7907 57.2998C67.332 57.2388 66.7887 57.4879 66.5818 57.703C66.224 58.0755 66.3027 58.1019 66.2836 58.0863C66.2938 58.0312 66.3305 57.7985 66.3468 57.587C66.3843 57.1433 66.3967 56.6481 66.4046 56.188C66.4185 55.2587 66.4169 54.3807 66.4281 53.5512C66.4472 51.8726 66.505 50.2856 66.5702 48.1873C66.4546 45.0293 66.0157 42.1892 66.5136 38.4943C67.1461 35.8517 68.482 33.6837 69.6956 31.6219C70.9932 29.5069 72.549 27.8147 74.1321 26.1488C74.7335 25.7269 75.3333 25.3229 75.9396 24.924C75.9398 24.9242 75.94 24.9244 75.9402 24.9247C78.2013 22.9511 78.9096 21.8543 80.054 20.7151C81.3223 19.4635 82.7703 18.1147 84.3603 16.6985C86.7507 14.5148 90.209 12.3335 93.9198 11.4005C99.9665 9.64416 106.544 10.2195 112.77 11.822C114.988 12.4804 116.467 13.7432 117.887 14.7419C123.032 19.772 126.146 24.5824 129.537 28.8032C130.623 30.2093 131.567 31.625 132.345 33.0183C133.759 35.1062 135.761 41.2203 136.175 45.6942C136.521 48.1682 136.401 50.2312 136.285 51.1094C136.191 51.7768 135.962 51.9464 135.899 52.6401C135.873 53.0853 135.838 53.5446 135.83 53.9268C135.847 53.7475 135.771 53.315 135.434 53.0478C135.123 52.8092 134.924 52.8129 134.779 52.801C134.479 52.8109 134.525 52.8329 134.466 52.8427C134.396 52.8661 134.417 52.8603 134.425 52.8541C134.45 52.8398 134.516 52.7997 134.566 52.7663C134.688 52.6867 134.821 52.5936 134.947 52.5026C135.21 52.3131 135.49 52.1029 135.754 51.9014C136.3 51.4857 136.842 51.0625 137.387 50.6374C138.478 49.7857 139.568 48.9321 140.667 48.0822C142.864 46.3826 145.085 44.7047 147.345 43.0671C147.478 42.9704 147.607 42.8786 147.741 42.7849C150.489 40.863 154.267 39.9517 157.431 39.7633C163.231 39.2367 169.016 40.1732 174.459 42.1178C178.598 43.6517 181.898 46.5792 184.564 49.7275C185.085 50.3443 185.585 50.9743 186.066 51.6103C188.346 54.7689 189.312 58.192 190.386 61.4768C191.791 66.5439 191.557 71.347 191.539 76.1401C191.251 80.9327 188.878 84.3625 187.186 87.9353C184.85 92.2637 181.626 95.3903 178.657 98.6989C176.05 101.653 172.107 104.194 169.914 106.014C169.821 106.134 169.788 106.209 169.764 106.368C169.742 106.519 169.759 106.767 169.83 107.045C169.973 107.619 170.317 108.312 170.73 108.979C171.567 110.325 172.673 111.653 173.815 112.949C176.105 115.669 178.689 117.649 180.962 121.45C183.228 127.374 182.656 132.673 182.888 138.101C182.893 138.521 182.881 138.94 182.855 139.357C182.345 146.565 177.843 153.904 174.117 159.119C174.047 159.217 173.976 159.313 173.904 159.409C172.117 161.681 171.071 162.316 168.435 164.86C168.347 164.812 168.258 164.763 168.17 164.715C166.125 166.466 164.657 167.625 162.492 169.088C162.046 169.387 161.554 169.662 161.029 169.909C158.365 171.287 152.047 172.366 148.88 172.817C148.456 172.879 148.081 172.923 147.782 172.955C146.401 173.087 146.9 172.863 145.628 172.963C143.457 173.15 138.865 173.414 135.921 173.308C135.397 173.292 134.804 173.265 134.177 173.23C131.489 173.124 128.146 172.381 126.491 171.859C124.65 171.333 122.835 170.576 121.114 169.773C118.171 168.442 115.504 166.283 113.299 164.047C111.146 161.861 109.491 159.491 107.92 157.095C106.72 155.255 105.45 152.751 105.093 152.172C104.392 151.042 104.004 150.815 103.524 150.061C102.815 148.946 102.035 147.623 101.239 146.213C100.858 145.54 100.478 144.838 100.109 144.134C99.9265 143.785 99.7424 143.427 99.57 143.097C99.485 142.935 99.3981 142.773 99.3313 142.656C99.2993 142.6 99.2688 142.552 99.2698 142.551C99.2881 142.552 99.2536 142.6 99.6297 142.846C99.9728 143.054 100.401 143.12 100.695 143.09C100.988 143.06 101.085 143.013 101.211 142.966C101.448 142.86 101.479 142.818 101.532 142.782C101.62 142.711 101.6 142.718 101.589 142.73C101.559 142.757 101.485 142.84 101.409 142.934C101.265 143.113 101.09 143.353 100.935 143.572C100.61 144.034 100.291 144.516 99.9828 144.99C99.3637 145.945 98.7976 146.852 98.2986 147.669C96.0309 151.395 93.7065 155.216 91.2589 158.998C89.2557 162.137 86.7745 165.405 83.7839 167.844C80.1307 170.945 76.0014 172.981 72.0014 174.861C69.9011 175.834 67.7417 176.4 65.6361 176.814C63.5426 177.223 61.1532 177.528 58.6258 177.781C51.9418 178.382 45.0194 176.085 39.4529 174.15C37.0622 173.299 34.9039 172.317 33.1607 171.273C31.5333 170.257 32.0922 170.326 30.7854 169.384C29.3626 168.295 28.5733 167.684 27.9833 167.069C26.391 165.453 24.6833 162.65 23.1269 159.876C20.6894 154.007 21.0653 148.45 20.8845 145.187C20.8789 144.2 21.0482 143.483 21.0334 142.894C21.0264 142.598 20.8822 141.924 20.8572 140.991C20.8224 139.694 20.8067 138.452 20.8063 137.253C20.9392 133.715 22.5402 131.532 23.5801 129.229C25.1267 126.138 26.8508 123.153 28.9841 119.866C30.5851 117.408 32.3093 114.937 34.2049 112.496C34.9305 111.564 35.7341 110.672 36.6309 109.851C37.0789 109.441 37.549 109.05 38.0347 108.684C38.277 108.5 38.521 108.325 38.7532 108.16C38.8667 108.079 38.9797 107.999 39.0694 107.932C39.1485 107.879 39.257 107.766 39.1247 107.904C39.0505 107.998 38.8511 108.236 38.8458 108.712C38.8469 108.939 38.9095 109.142 38.982 109.285C39.0468 109.415 39.1197 109.503 39.1618 109.549C39.3409 109.723 39.2838 109.646 39.218 109.624C39.0615 109.548 38.7844 109.449 38.503 109.36C37.9289 109.179 37.2908 109.008 36.6442 108.825C35.3475 108.457 34.001 108.069 32.6254 107.419C27.8068 104.572 24.6345 101.094 20.9455 97.8177C18.0495 95.1866 15.6 91.7935 14.335 88.1293C13.7857 86.6024 13.5105 85.2631 13.3196 84.2197C13.0551 82.7187 13.112 81.7949 13.0668 81.501C12.9419 80.3786 12.6192 79.6824 12.4962 77.4302C12.3158 73.7952 12.5026 69.6014 12.7419 65.4572C12.8647 60.8674 15.3781 56.5886 17.2499 53.8476C17.3426 53.6988 17.4393 53.5554 17.537 53.4184C19.8594 50.385 23.3939 47.9223 26.0985 45.9296C26.3116 45.7787 26.5189 45.6367 26.7256 45.5004C28.5625 44.011 33.8332 42.3845 36.1581 42.316C36.6881 42.2482 37.0914 42.1923 37.3139 42.1452C38.0496 41.9919 38.3688 41.6916 39.2642 41.5922ZM40.6046 106.634C40.4626 106.656 40.5467 106.739 40.8188 106.926C40.963 107.037 41.1504 107.119 41.4992 107.516C41.6716 107.726 41.9368 108.12 41.9369 108.708C41.9268 109.3 41.6667 109.678 41.4798 109.904C41.1509 110.266 41.0227 110.327 40.8689 110.457C40.7241 110.571 40.5996 110.669 40.4833 110.766C40.2518 110.957 40.0625 111.134 39.9322 111.277C39.6766 111.562 39.654 111.688 40.1364 111.415C40.2302 111.363 40.4107 111.233 40.6448 111.06C40.7616 110.973 40.8894 110.878 41.0429 110.758C41.2104 110.616 41.3331 110.569 41.7334 110.119C41.9068 109.904 42.1093 109.612 42.211 109.131C42.3204 108.637 42.1952 108.075 42.0076 107.743C41.6341 107.109 41.3643 107.012 41.1812 106.878C40.8206 106.666 40.6617 106.638 40.6046 106.634ZM166.046 163.421C165.935 163.351 165.824 163.281 165.713 163.21C165.234 163.641 164.742 164.064 164.24 164.48C164.582 164.33 164.922 164.178 165.26 164.022C165.525 163.824 165.787 163.624 166.046 163.421Z" fill="#C9A16C"/>
<path d="M124.641 76.22C124.427 76.1488 124.217 75.8665 123.985 75.7461C123.013 75.2431 122.691 74.9719 121.819 74.5228C121.432 74.3257 120.797 74.0565 120.124 73.7893C119.789 73.6564 119.443 73.5236 119.133 73.4097C118.84 73.2949 118.487 73.2014 118.532 73.1643L118.486 73.1626C117.427 72.9771 116.758 72.6589 116.794 72.2122C116.794 72.2122 116.794 72.2121 116.794 72.2121C116.795 72.2011 116.796 72.19 116.798 72.1789C116.834 71.9666 117.237 71.7687 117.316 71.5319C117.392 71.2945 117.499 69.7328 118.023 69.6869C118.195 69.6739 118.416 69.6902 118.654 69.7179L118.619 69.7166C120.092 69.8986 120.958 70.6053 121.332 70.6996C121.617 70.7921 122.011 70.7926 122.373 70.9127C123.537 71.3043 124.064 71.6597 125.216 71.769C125.526 72.1394 125.827 72.5102 126.126 72.8828C126.415 72.9687 126.727 73.1794 127.006 73.3837L127.153 73.472C127.373 73.6928 127.56 73.897 127.696 73.9858C127.926 74.136 128.156 74.1024 128.396 74.2665C128.664 74.4494 128.971 74.8861 129.466 75.2234C130.277 75.7816 130.676 75.5654 131.186 75.9123C131.715 76.2741 132.32 77.1113 133.007 77.6529C133.114 77.7015 133.223 77.7541 133.33 77.8073C133.357 77.6789 133.383 77.5494 133.406 77.419C133.746 77.7279 133.707 78.0196 133.957 78.3549C134.248 78.754 134.557 78.86 134.737 79.1538C134.883 79.3961 134.925 79.8045 135.089 80.1188C135.324 80.5806 135.488 80.3839 135.641 80.6262C135.661 80.6589 135.779 80.8913 135.913 81.1955C136.147 81.7087 136.465 82.4596 136.488 82.5244C136.741 83.2478 136.454 83.4121 136.611 84.0022C137.044 85.6337 137.749 87.2424 138.192 88.7668C138.39 89.4461 138.52 90.1764 138.595 90.8824C137.589 89.9477 137.38 92.4485 138.496 91.3361C138.446 92.1404 138.871 92.6411 138.904 93.4002C138.922 93.8891 138.782 94.2424 138.841 94.9381C138.953 96.1591 139.452 97.5717 138.516 97.909C138.639 99.3927 138.094 100.622 138.765 101.34C138.736 101.759 137.985 102.659 137.756 103.054C137.682 103.191 137.47 103.65 137.146 104.186C136.629 105.019 135.931 106.183 135.773 106.457C135.54 106.877 135.118 107.616 134.969 108.01C134.786 108.494 135.303 109.283 133.955 109.528C133.401 110.473 133.132 110.778 132.385 111.485C132.248 111.612 132.124 111.531 132.052 111.612C131.908 111.775 131.729 112.131 131.462 112.422C131.015 112.906 130.529 112.924 130.902 113.221C130.64 113.572 130.361 113.919 130.073 114.257C129.894 114.287 129.722 114.309 129.547 114.331C129.428 114.55 129.299 114.772 129.174 114.988C128.992 114.288 127.914 115.538 128.56 115.561C127.783 115.924 127.001 116.239 126.217 116.517C125.945 115.799 124.596 117.277 124.916 117.575C124.832 117.616 124.747 117.657 124.661 117.698C123.831 117.871 123.218 118.33 122.244 118.579C121.869 118.673 121.643 118.713 121.487 118.715C121.25 118.715 121.176 118.623 120.932 118.485C120.73 118.584 120.526 118.685 120.323 118.785C119.565 120.119 119.164 118.472 117.528 119.886C116.706 119.541 115.32 120.393 114.372 120.916C114.261 120.977 114.298 121.09 114.153 121.179C113.798 121.396 112.77 121.573 112.918 121.927C112.54 121.932 112.162 121.935 111.784 121.934C111.523 122.086 111.256 122.237 110.992 122.385C111.026 122.499 111.06 122.614 111.094 122.729C110.405 122.503 109.526 122.889 109.04 122.895C108.943 122.896 108.889 122.741 108.595 122.757C108.253 122.775 107.634 122.94 107.22 122.947C107.089 123.151 106.954 123.354 106.811 123.556C106.062 123.743 105.751 123.272 105.311 123.251C105.289 123.25 105.173 123.255 105.013 123.26C104.595 123.271 103.851 123.298 103.798 123.305C103.206 123.39 103.376 123.803 101.659 123.719C101.352 123.704 101.104 123.561 100.828 123.555C100.34 123.545 98.8596 123.854 98.7362 124.149C98.145 123.77 96.5402 123.882 96.068 123.753C95.9271 123.714 95.9036 123.476 95.4674 123.405C95.1137 123.349 94.1882 123.487 93.7314 123.42C93.2494 123.349 93.0978 123.135 92.8805 123.101C92.6778 123.069 92.4742 123.212 92.1936 123.181C91.3206 123.082 90.5598 122.709 89.8706 122.574C88.9036 122.384 87.9172 122.6 86.9575 122.473C86.9356 122.471 86.9137 122.468 86.8918 122.466C86.7143 122.365 86.5661 122.199 86.3683 122.123C83.93 121.174 81.1529 120.01 78.774 118.612C77.622 118.027 75.4004 115.557 75.4353 116.921C75.2271 116.859 74.6499 116.364 74.0841 115.691C73.4616 114.929 72.7447 114.014 72.507 113.766C72.0956 113.341 71.6216 113.131 71.2869 112.774C70.2921 111.68 69.631 110.775 68.6007 109.026C68.3407 108.574 67.932 108.115 67.8405 107.815C67.7286 107.451 67.8368 107.008 67.7529 106.551C67.672 106.119 67.5719 105.546 67.5028 104.955C67.4023 104.12 67.3102 103.224 67.2923 102.652C67.2873 102.481 67.4772 102.404 67.5216 102.157C67.6938 101.19 67.6294 100.127 67.0157 100.342C67.3155 99.0998 66.97 97.9771 66.9543 96.8275C66.9457 94.4261 67.1286 90.3291 68.0808 87.5491C68.0987 87.4942 68.1158 87.4405 68.1321 87.3883C68.5485 86.1019 68.2547 85.9979 69.4331 84.3062C69.7007 83.9327 69.9906 83.5731 70.3403 83.1309C71.1706 82.0803 72.2927 81.4525 72.5163 80.2759C73.6427 79.2631 74.5426 78.3773 75.7566 78.1846C75.786 78.0318 75.8182 77.8785 75.8533 77.7247C75.857 77.7005 75.8607 77.6763 75.8644 77.652C75.9973 77.5609 76.132 77.4685 76.268 77.3753C76.377 77.4492 76.4861 77.5229 76.5953 77.5966C77.5911 76.979 78.5868 75.7399 79.4645 75.2104C80.8924 74.2808 84.9764 72.3741 86.6088 71.9906C87.4596 71.7572 87.4236 71.5002 88.0707 71.8417C88.2427 71.7437 88.418 71.6465 88.5928 71.5514C88.6734 71.4025 88.7558 71.2538 88.84 71.1053C89.9277 70.7622 91.2846 70.6196 92.3465 70.429C93.4116 70.2313 94.7769 69.9584 96.1409 69.846C97.1935 69.7548 98.2133 69.6983 99.0635 69.7588C99.5334 69.793 100.128 70.0112 100.59 69.9907C101.257 69.9614 101.411 69.5541 102.253 69.5163C103.723 69.4499 106.459 69.8316 107.838 69.7627C108.257 69.7418 108.432 69.5884 108.723 69.5656C109.913 69.4694 110.892 69.4622 112.03 69.2143C113.26 69.5812 113.169 70.08 113.547 70.5764C113.843 70.9508 114.716 71.8211 114.847 72.1527C114.931 72.385 114.614 72.6846 114.732 72.9402C113.287 73.151 112.679 72.9365 111.483 72.5953C109.298 72.6465 107.112 72.7165 104.923 72.7992C104.723 72.6657 104.521 72.5324 104.315 72.3993C104.315 72.399 104.315 72.3987 104.315 72.3984C103.471 72.2646 103.123 72.6368 102.675 72.7342C101.016 73.0921 98.7561 73.2751 96.3017 73.3852C92.6069 73.4988 88.5319 74.526 85.9345 75.7017C85.0078 76.0666 82.2559 77.7977 81.5558 77.9868C81.3731 78.0284 81.2165 77.8716 81.048 77.9638C79.915 78.7805 78.8073 79.6362 77.6787 80.503C77.4443 80.6858 77.2186 80.8753 76.9998 81.0725C74.2759 82.7059 72.7249 85.9184 71.4076 89.0412C71.3786 89.1106 71.3489 89.1873 71.3192 89.2698C70.1091 93.7734 70.5714 99.4909 71.0779 104.573C71.2957 108.105 73.8273 110.259 76.6751 113.16C76.927 113.42 77.2005 113.671 77.491 113.912C78.7325 114.966 80.7706 115.878 82.3171 116.691C82.9629 117.032 83.1093 117.475 84.1089 117.613C84.0827 117.703 84.0565 117.793 84.0303 117.883C84.8643 118.106 85.4497 118.11 86.3572 118.44C86.7579 118.585 87.5053 118.863 88.2257 119.136C88.7608 119.34 89.3452 119.494 89.6426 119.581C89.9737 119.674 89.8069 119.816 90.1272 119.882C90.6726 119.996 91.904 119.935 92.6928 120.01C93.4062 120.087 94.6159 120.371 95.1839 120.37C97.2214 120.373 99.4591 120.1 101.661 120.177C102.269 120.199 103.054 120.421 103.244 120.413C103.619 120.398 103.727 120.178 103.978 120.148C104.281 120.112 104.62 120.098 104.985 120.098C105.958 120.106 107.23 120.062 108.107 119.878C111.855 119.08 115.855 117.386 119.645 115.984C119.859 115.904 120.087 115.818 120.328 115.726C122.68 114.871 125.783 113.217 127.417 112.094C127.815 111.832 127.858 112.103 128.173 111.847C128.514 111.564 128.586 111.28 128.727 111.135C129.775 110.158 131.515 107.619 132.304 106.472C132.463 106.261 132.721 106.186 132.798 106.047C132.837 105.976 132.813 105.755 132.922 105.525C133.401 104.515 133.83 103.621 134.298 102.729C134.672 102.016 134.968 101.202 135.174 100.206C135.954 96.3245 134.862 91.3764 133.811 87.0794C133.58 86.137 133.735 85.3875 133.691 85.2563C133.595 84.9711 133.299 84.8583 133.051 84.2998C132.808 83.7501 132.575 83.1304 132.343 82.4922C131.879 81.1415 131.071 79.9071 130.075 79.1111C129.397 78.5493 128.202 78.0207 127.411 77.5242C126.9 77.2005 125.878 76.3741 125.32 76.0343L125.594 76.1999C125.462 76.1456 125.359 76.1126 125.294 76.1085C125.076 76.0946 124.87 76.295 124.641 76.22ZM138.681 95.6936C138.248 95.5694 138.655 97.0726 138.871 96.4978C138.922 96.3648 138.796 95.7239 138.681 95.6936ZM83.368 120.13C83.3333 120.25 83.2986 120.369 83.2641 120.489C83.4609 120.514 83.6575 120.538 83.8536 120.562C83.7818 120.452 83.7108 120.344 83.6394 120.234C83.5487 120.2 83.4583 120.165 83.368 120.13Z" fill="#C9A16C"/>
<path d="M175.306 149.179C175.335 148.944 175.575 148.656 175.651 148.385C175.968 147.253 176.177 146.855 176.476 145.828C176.615 145.348 176.789 144.561 176.989 143.703C177.422 141.813 178.16 139.549 178.906 139.783C178.906 139.783 178.906 139.783 178.906 139.783C178.917 139.786 178.928 139.79 178.938 139.794C179.141 139.866 179.259 140.323 179.478 140.444C179.698 140.564 181.219 140.931 181.168 141.487C181.09 142.199 180.432 143.747 180.239 144.391C180.216 144.467 180.199 144.533 180.191 144.582C180.139 144.888 180.2 145.281 180.14 145.675C179.947 146.928 179.695 147.556 179.803 148.759C179.496 149.159 179.188 149.553 178.877 149.946C178.823 150.547 178.33 151.354 178.249 151.707C178.183 151.994 178.291 152.208 178.215 152.509C178.13 152.845 177.816 153.314 177.662 153.926C177.406 154.93 177.75 155.232 177.612 155.847C177.469 156.48 176.933 157.372 176.799 158.201C176.808 158.315 176.817 158.428 176.826 158.542C176.95 158.507 177.073 158.471 177.197 158.435C177.103 158.847 176.84 158.945 176.705 159.306C176.546 159.728 176.653 160.02 176.545 160.305C176.455 160.538 176.18 160.799 176.072 161.103C175.911 161.55 176.168 161.54 176.114 161.794C176.098 161.897 175.492 163.689 175.445 163.788C175.13 164.535 174.806 164.468 174.514 165.043C173.706 166.635 173.12 168.388 172.43 169.891C172.368 170.026 172.303 170.16 172.236 170.293L172 170.646C171.64 171.114 171.236 171.573 170.825 171.997C170.934 170.587 168.802 172.115 170.402 172.224C169.73 172.728 169.61 173.394 169.041 173.935C168.671 174.286 168.306 174.42 167.813 174.947C166.944 175.88 166.274 177.231 165.372 176.815C164.389 177.968 163.176 178.548 163.266 179.522C162.992 179.814 161.898 180.059 161.508 180.265C161.286 180.387 160.207 181.062 159.261 181.583C158.685 181.899 158.173 182.198 158.008 182.301C157.589 182.566 156.857 183.043 156.544 183.338C156.153 183.705 156.304 184.619 154.962 184.317C154.07 184.987 153.713 185.179 152.755 185.615C152.581 185.694 152.489 185.578 152.393 185.633C152.196 185.747 151.913 186.034 151.559 186.242C150.977 186.584 150.49 186.482 150.772 186.866C150.408 187.14 150.036 187.409 149.654 187.67C149.471 187.654 149.289 187.636 149.107 187.616C148.925 187.804 148.739 187.989 148.548 188.173C148.562 187.445 147.114 188.422 147.765 188.594C146.873 188.769 145.971 188.896 145.07 188.962C145.022 188.203 143.153 189.245 143.358 189.618C143.255 189.632 143.152 189.645 143.048 189.657C142.122 189.563 141.294 189.786 140.187 189.623C139.091 189.445 139.198 189.355 138.907 188.977C138.656 188.973 138.397 188.963 138.147 188.95C137.217 189.442 137.067 188.942 136.505 188.594C136.273 188.411 135.838 188.294 135.078 188.519C134.452 187.861 132.743 188.135 131.588 188.244C131.455 188.257 131.445 188.376 131.265 188.4C130.823 188.462 129.73 188.205 129.724 188.587C129.355 188.437 128.975 188.281 128.61 188.121C128.281 188.147 127.967 188.172 127.636 188.19C127.619 188.308 127.602 188.427 127.585 188.545C127.017 188.046 125.99 188.006 125.531 187.802C125.438 187.761 125.454 187.597 125.162 187.483C124.833 187.353 124.169 187.237 123.775 187.073C123.567 187.205 123.352 187.335 123.144 187.464C122.374 187.342 122.263 186.795 121.85 186.619C121.769 186.593 120.376 186.128 120.304 186.104C119.671 185.938 119.677 186.417 117.979 185.568C117.676 185.413 117.491 185.169 117.223 185.034C116.739 184.799 115.161 184.335 114.91 184.529C114.647 184.108 113.886 183.655 113.277 183.266C112.963 183.067 112.694 182.892 112.565 182.767C112.453 182.657 112.55 182.438 112.183 182.142C111.885 181.903 110.965 181.521 110.587 181.223C110.186 180.906 110.152 180.638 109.974 180.496C109.806 180.363 109.551 180.381 109.313 180.211C108.571 179.677 108.06 178.982 107.488 178.555C106.66 177.935 105.645 177.77 104.829 177.426C104.676 177.273 104.573 177.068 104.393 176.933C102.216 175.322 99.6885 173.232 97.6496 172.464C97.3851 172.368 97.0299 172.245 96.8394 172.227C96.5035 172.182 95.8934 172.528 95.6838 172.853C95.5393 173.073 95.5852 173.256 95.9507 173.357C95.8233 173.666 93.1067 175.613 92.5941 176.018C92.1063 176.43 91.8286 176.91 91.4336 177.229C90.2253 178.191 89.2662 178.721 87.7556 179.857C87.3596 180.152 87.0262 180.61 86.7696 180.752C86.4659 180.919 86.0257 180.908 85.6242 181.103C84.6648 181.584 82.8822 182.478 81.9133 182.813C81.738 182.875 81.6058 182.718 81.3346 182.758C80.2905 182.91 79.2099 183.289 79.5985 183.815C79.1798 183.843 78.7995 183.918 78.4202 184.025C77.5967 184.254 76.8556 184.651 76.067 184.904C73.6824 185.687 69.175 186.779 66.9663 187.419C65.5774 187.828 65.6557 188.133 63.461 188.123C62.974 188.113 62.4857 188.076 61.8886 188.034C60.4771 187.935 59.2629 187.35 58.1022 187.812C57.1819 187.586 56.3608 187.398 55.6427 187.084C55.2026 186.883 54.8067 186.647 54.4574 186.31C54.3022 186.396 54.1423 186.479 53.9853 186.564C53.8161 186.514 53.6524 186.466 53.4814 186.416C53.4655 186.283 53.4498 186.151 53.4343 186.018C52.2518 185.612 50.5777 185.583 49.5583 185.217C47.8569 184.657 43.5341 182.66 42.0894 181.49C41.3182 180.913 41.1251 181.082 40.9811 180.328C40.7864 180.234 40.5878 180.132 40.394 180.028C40.2132 180.035 40.0321 180.04 39.8495 180.042C39.7439 179.956 39.6393 179.865 39.536 179.771C38.7672 179.065 37.9657 178.187 37.227 177.555C35.7249 176.275 33.2419 174.552 31.9062 173.003C31.571 172.618 31.2777 172.004 30.9204 171.658C30.4004 171.152 29.9902 171.313 29.3352 170.648C28.1903 169.511 26.5869 166.898 25.7233 165.606C25.4574 165.225 25.2184 165.123 25.0335 164.851C24.5351 164.115 24.155 163.416 23.7619 162.688C23.5644 162.326 23.3533 161.961 23.1114 161.579C22.9616 160.157 23.4894 160.093 23.8249 159.539C24.072 159.129 24.6705 157.915 25.0374 157.96C25.067 157.957 25.0994 158.023 25.1298 158.025C25.1611 158.009 25.1905 157.954 25.2221 157.948C25.2847 157.92 25.3515 157.917 25.42 157.915C25.5572 157.915 25.6983 157.916 25.82 157.869C26.2543 158.849 26.3528 159.649 26.4712 160.877C26.5448 161.048 26.6206 161.22 26.699 161.395C27.4913 163.158 28.6745 164.813 30.004 166.368C30.029 166.614 30.0555 166.858 30.087 167.106C30.0867 167.107 30.0865 167.107 30.0863 167.107C30.5421 167.869 31.0657 167.896 31.4457 168.18C34.0516 170.17 38.1901 173.901 41.77 177.205C42.95 178.315 44.3458 179.164 45.5367 179.779C46.4456 180.292 49.7414 181.394 50.3747 181.836C50.5351 181.956 50.5119 182.177 50.7027 182.254C52.4729 182.741 54.2592 183.175 56.0571 183.592C56.2467 183.669 56.439 183.745 56.634 183.819C59.6994 185.021 63.3844 184.446 66.7879 183.715C70.3386 182.95 73.8503 181.802 77.3832 180.667C83.5574 178.739 88.6001 175.402 93.3904 170.762C93.5028 170.667 93.6338 170.558 93.758 170.457C94.309 170.022 95.0716 169.385 96.2659 169.135C98.7918 168.838 100.063 169.86 101.203 170.492C101.938 170.973 102.049 171.453 103.102 171.851C103.059 171.935 103.016 172.018 102.973 172.101C103.821 172.546 104.434 172.725 105.295 173.329C106.026 173.839 107.882 175.214 108.476 175.698C108.783 175.949 108.561 176.001 108.86 176.221C109.371 176.597 110.603 177.199 111.31 177.697C111.949 178.152 112.924 179.059 113.442 179.361C113.974 179.674 114.531 179.974 115.099 180.263C116.516 180.983 118.018 181.634 119.45 182.346C119.996 182.621 120.654 183.138 120.834 183.201C121.197 183.332 121.38 183.167 121.625 183.23C122.866 183.559 124.707 184.389 125.943 184.669C129.44 185.577 132.691 185.312 137.119 185.854C137.715 185.988 138.3 186.09 138.888 186.163C141.335 186.595 145.378 185.792 147.588 184.924C148.07 184.757 148.042 185.031 148.437 184.852C148.874 184.65 149.035 184.387 149.23 184.275C150.592 183.534 153.454 181.525 154.822 180.787C155.084 180.65 155.364 180.689 155.51 180.59C155.585 180.54 155.681 180.321 155.906 180.154C156.487 179.724 157.036 179.337 157.578 178.979C158.81 178.159 159.922 177.396 161.215 176.361C163.943 174.18 166.555 171.19 168.976 168.186L168.805 168.443C169.324 167.482 169.828 166.528 170.318 165.594C170.801 164.673 171.436 164.18 171.495 164.044C171.623 163.749 171.482 163.457 171.689 162.838C172.385 160.786 173.675 158.168 174.205 156.167C174.472 155.182 174.585 153.756 174.797 152.777C174.973 151.998 175.589 150.208 175.539 149.831C175.512 149.602 175.276 149.433 175.306 149.179ZM167.129 175.356C166.927 174.949 166.076 176.311 166.656 176.06C166.787 176.005 167.184 175.462 167.129 175.356ZM101.87 174.17C101.811 174.28 101.752 174.39 101.693 174.499C101.885 174.569 102.074 174.639 102.264 174.709C102.216 174.585 102.17 174.461 102.122 174.337C102.038 174.281 101.954 174.225 101.87 174.17Z" fill="#C9A16C"/>
<path d="M187.415 78.1223C187.387 78.0688 187.553 78.0022 187.564 77.9412C187.612 77.6858 187.728 77.5943 187.802 77.3645C187.911 77.0226 187.742 75.9883 188.867 76.0353C188.867 76.0353 188.867 76.0353 188.867 76.0353C188.878 76.0357 188.889 76.0363 188.901 76.037C189.115 76.0496 189.345 76.1468 189.587 76.17C189.829 76.1932 191.395 76.2495 191.478 76.3772C191.587 76.5617 191.167 76.9763 191.181 77.0727C191.19 77.1387 191.329 77.2255 191.351 77.3105C191.421 77.5844 191.311 77.7212 191.687 77.9814C191.479 78.0703 191.271 78.1586 191.063 78.2476C191.152 78.379 190.875 78.5601 190.887 78.6378C190.896 78.7014 191.056 78.7458 191.061 78.8122C191.067 78.8868 190.888 78.9931 190.908 79.1288C190.941 79.3513 191.359 79.4094 191.407 79.5442C191.456 79.6837 191.218 79.8882 191.359 80.07C191.404 80.094 191.449 80.118 191.494 80.1421C191.6 80.1309 191.705 80.1198 191.81 80.1087C191.855 80.1992 191.639 80.2273 191.632 80.3088C191.623 80.4044 191.824 80.4622 191.82 80.5266C191.816 80.5792 191.65 80.6433 191.658 80.7119C191.667 80.8121 191.903 80.8011 191.945 80.8568C191.961 80.8794 192.073 81.2803 192.074 81.3031C192.075 81.4739 191.753 81.4738 191.718 81.6078C191.624 81.9798 191.866 82.3786 191.948 82.7302C191.984 82.8884 191.958 83.0497 191.899 83.2014C191.087 82.9176 190.419 83.4256 191.718 83.2872C191.526 83.4513 191.868 83.5893 191.801 83.7506C191.757 83.8548 191.575 83.9191 191.572 84.0697C191.567 84.3389 192.06 84.6573 191.138 84.6869C191.283 85.0099 190.935 85.2646 191.739 85.4224C191.784 85.5052 191.29 85.6885 191.219 85.7751C191.152 85.8562 190.896 86.5055 190.877 86.6129C190.858 86.7196 190.833 86.9085 190.899 87.0041C190.98 87.1239 191.815 87.2565 190.819 87.3988C190.883 87.6399 190.85 87.7242 190.721 87.9362C190.697 87.9745 190.551 87.9691 190.55 87.9922C190.546 88.0392 190.648 88.1301 190.656 88.2166C190.667 88.3593 190.355 88.4167 190.824 88.4345C190.896 88.5336 190.968 88.6334 191.04 88.732C190.947 88.758 190.854 88.7839 190.762 88.8096C190.856 88.8658 190.951 88.9245 191.046 88.9818C190.373 88.8728 190.746 89.2526 191.143 89.169C190.989 89.339 190.835 89.5096 190.68 89.6794C189.912 89.5924 190.558 90.0671 190.979 90.0697C190.977 90.0906 190.975 90.1115 190.972 90.1324C190.752 90.2957 190.904 90.4807 190.746 90.6878C190.746 90.6886 190.745 90.6894 190.745 90.6902C190.588 90.8994 190.514 90.8702 190.155 90.9029C190.17 90.956 190.186 91.0103 190.201 91.0649C191.142 91.4371 189.47 91.2156 190.162 91.7615C189.538 91.8413 189.815 92.245 189.968 92.5115C189.986 92.543 190.104 92.5585 190.135 92.6016C190.211 92.7069 190.028 92.9233 190.408 92.9673C190.287 93.036 190.166 93.1011 190.044 93.1696C190.104 93.2472 190.163 93.3239 190.222 93.4015C190.341 93.4186 190.459 93.4356 190.577 93.4527C190.154 93.5322 190.276 93.769 190.162 93.8599C190.139 93.8779 189.976 93.8551 189.921 93.9141C189.855 93.9827 189.88 94.1306 189.813 94.214C189.987 94.2806 190.161 94.3477 190.335 94.4153C190.402 94.5999 189.917 94.5688 189.862 94.6581C189.853 94.6744 189.825 94.996 189.831 95.0149C189.882 95.17 190.296 95.2141 190.118 95.6058C190.086 95.676 189.934 95.7027 189.913 95.7661C189.877 95.8794 190.103 96.3043 190.383 96.4098C189.986 96.4591 190.03 96.8757 189.893 96.9573C189.851 96.9816 189.621 96.9224 189.543 97.0091C189.479 97.0789 189.597 97.3448 189.533 97.4389C189.465 97.5382 189.263 97.5153 189.234 97.5592C189.206 97.6008 189.346 97.6932 189.324 97.7554C189.256 97.9429 188.967 98.032 188.897 98.1719L188.857 98.2687C188.855 98.2728 188.853 98.2769 188.851 98.2811C188.752 98.4784 189.103 98.8565 189.217 99.1165C189.169 99.1464 189.057 99.1442 189.036 99.1878C188.77 99.7279 188.402 100.307 188.048 100.81C187.885 101.044 186.997 101.39 188.051 101.695C188.179 101.865 187.472 102.316 187.405 102.433C187.339 102.552 187.464 102.735 187.418 102.832C187.28 103.125 187.054 103.264 187.023 103.692C187.015 103.802 187.168 104.005 187.138 104.058C187.101 104.121 186.868 104.088 186.812 104.165C186.679 104.349 186.546 104.754 186.409 104.926C186.384 104.957 186.206 104.877 186.125 104.897C185.811 104.977 185.711 105.2 186.277 105.463C185.832 105.539 185.984 105.925 185.871 106.164C185.631 106.671 184.985 107.47 184.941 108.026C184.915 108.375 185.151 108.526 184.697 108.781C184.596 108.837 184.478 108.885 184.356 108.953C184.067 109.114 183.495 109.035 183.873 109.577C183.554 109.748 183.487 110.033 182.918 109.906C183.003 110.005 183.087 110.104 183.172 110.204C183.15 110.238 183.129 110.271 183.106 110.306C183.002 110.242 182.898 110.178 182.794 110.114C182.593 110.323 182.757 110.918 182.589 111.113C182.324 111.436 181.431 112.122 181.01 112.283C180.793 112.369 180.961 112.567 180.507 112.257C180.496 112.317 180.484 112.377 180.472 112.437C180.527 112.545 180.581 112.654 180.634 112.763C180.422 112.954 180.032 113.034 179.811 113.197C179.416 113.5 178.857 114.213 178.215 114.238C178.056 114.246 177.81 114.079 177.676 114.125C177.482 114.189 177.544 114.591 177.264 114.664C177.119 114.701 176.924 114.697 176.716 114.666C176.367 114.578 175.959 114.399 175.731 114.445C175.633 114.465 175.602 114.617 175.534 114.639C175.252 114.732 175.017 114.737 174.745 114.983C174.419 114.616 174.426 114.117 174.317 113.621C174.234 113.246 174.012 112.375 174.002 112.043C173.989 111.811 174.036 111.512 174.015 111.256C174.269 111.047 174.417 111.264 174.687 111.609C175.155 111.566 175.629 111.507 176.103 111.437C176.163 111.571 176.223 111.704 176.284 111.838C176.284 111.838 176.284 111.838 176.284 111.839C176.317 111.861 176.346 111.87 176.372 111.869C176.47 111.867 176.475 111.598 176.515 111.521C176.744 111.077 177.111 110.888 177.633 110.618C178.144 110.357 178.756 110.031 179.13 109.708C179.295 109.572 179.619 108.924 179.884 108.956C179.954 108.964 180.127 109.094 180.161 109.067C180.304 108.694 180.434 108.319 180.553 107.944C181.285 107.519 181.516 106.678 181.891 105.98C182.914 104.076 183.761 102.083 184.755 100.163C184.948 99.791 185.032 99.2421 185.301 98.9166C185.413 98.7808 185.757 98.8615 185.619 98.5481C185.705 98.5855 185.79 98.6229 185.875 98.6603C185.857 98.4345 185.718 98.231 185.792 98.0209C185.854 97.8453 186.048 97.3913 186.148 97.2568C186.2 97.1869 186.345 97.2882 186.377 97.2158C186.386 97.1964 186.39 97.1711 186.393 97.1417L186.342 97.2672C186.338 97.1122 186.247 96.8495 186.294 96.709C186.344 96.5585 186.616 96.3635 186.623 96.2372C186.653 95.7835 186.485 95.2575 186.663 94.8254C186.713 94.7069 186.969 94.5907 186.971 94.5491C186.974 94.4674 186.764 94.4013 186.747 94.3438C186.661 94.0542 186.992 93.6842 187.045 93.4174C187.22 92.5539 187.237 91.5955 187.366 90.6984C187.379 90.6031 187.392 90.4954 187.405 90.3783C187.467 89.8216 187.523 89.0864 187.692 88.6545C187.736 88.5416 187.973 88.5909 187.98 88.4941C187.988 88.3869 187.83 88.3166 187.821 88.2651C187.754 87.9123 187.641 87.1334 187.827 86.8152C187.863 86.7545 188.054 86.7204 188.055 86.6825C188.056 86.6635 187.931 86.612 187.921 86.5522C187.837 86.0169 187.934 85.639 188.007 85.1232C188.145 84.1349 187.964 82.9736 188.142 81.9345C188.18 81.7088 188.56 81.5684 188.557 81.5369C188.553 81.4664 188.305 81.41 188.25 81.2648C188.068 80.7826 188.364 80.1559 188.258 79.7004C188.206 79.475 187.902 79.1551 187.841 78.9333C187.792 78.7561 187.935 78.348 187.799 78.2646C187.716 78.2137 187.447 78.1803 187.415 78.1223ZM191.355 84.2199C190.924 84.1664 191.266 84.5144 191.505 84.403C191.558 84.378 191.467 84.2339 191.355 84.2199ZM188.009 99.5975C188.123 99.6472 188.236 99.6969 188.349 99.7465C188.321 99.6854 188.293 99.6244 188.264 99.5634C188.187 99.554 188.109 99.5445 188.031 99.5351C188.024 99.5559 188.017 99.5767 188.009 99.5975Z" fill="#C9A16C"/>
<path d="M14.7028 56.2323C14.7367 56.1448 14.9428 56.1511 15.0166 56.0763C15.3289 55.7624 15.52 55.7107 15.8255 55.449C16.2779 55.0596 17.2526 53.6029 18.1044 54.341C18.1045 54.3411 18.1045 54.3411 18.1045 54.3411C18.1129 54.3483 18.1212 54.3558 18.1295 54.3634C18.2877 54.5085 18.3684 54.7734 18.5378 54.9485C18.7072 55.1238 19.9038 56.1361 19.8347 56.3509C19.726 56.6541 18.9504 56.9403 18.8602 57.0735C18.7977 57.1655 18.8192 57.3596 18.7472 57.4832C18.5166 57.8796 18.2845 57.9925 18.3198 58.5516C18.059 58.5448 17.799 58.5375 17.5383 58.5316C17.4752 58.7546 17.0633 58.83 16.993 58.9386C16.9349 59.0282 17.0205 59.178 16.9567 59.2676C16.8856 59.3689 16.631 59.4051 16.5105 59.5953C16.3122 59.9073 16.6003 60.2212 16.5056 60.4254C16.4079 60.6364 16.0102 60.7711 15.9508 61.0894C15.9652 61.1464 15.9797 61.2033 15.9943 61.26C16.0929 61.3036 16.1914 61.3474 16.2899 61.3912C16.2404 61.5347 16.0332 61.4522 15.9495 61.555C15.8518 61.675 15.9653 61.862 15.9025 61.9435C15.8501 62.0114 15.6512 62.0047 15.5929 62.1C15.5082 62.2375 15.7188 62.349 15.703 62.4445C15.6948 62.4824 15.4315 63.0675 15.4141 63.0974C15.3885 63.1361 15.3593 63.163 15.3276 63.182L15.3942 63.082C15.2418 63.1897 15.0258 63.1117 14.9087 63.255C14.5123 63.7438 14.4001 64.4225 14.1893 64.9612C14.0939 65.2039 13.9437 65.4179 13.7686 65.6118C13.2651 64.8441 12.2578 65.2841 13.5392 65.6535C13.2367 65.8043 13.4377 66.1507 13.2534 66.3516C13.1344 66.4809 12.9194 66.4955 12.8036 66.7093C12.5948 67.0962 12.825 67.739 11.956 67.4151C11.8635 67.93 11.3764 68.1698 12.0501 68.6495C12.0497 68.7515 11.629 68.8098 11.4825 68.8218L11.5101 68.7336C11.4851 68.7491 11.4653 68.7644 11.4526 68.779C11.3504 68.8816 10.91 69.8085 10.8737 69.9805C10.8299 70.1431 10.7668 70.4336 10.8157 70.5847C10.8748 70.7793 11.6904 71.0108 10.6733 71.1984C10.7055 71.5802 10.6633 71.709 10.5148 72.0488C10.488 72.1111 10.342 72.1035 10.3384 72.1409C10.3312 72.218 10.427 72.3586 10.4289 72.4973C10.4321 72.7239 10.1165 72.834 10.5867 72.8418C10.6546 72.9941 10.7233 73.1498 10.7931 73.3023C10.6995 73.3494 10.606 73.3971 10.5126 73.4437C10.6068 73.5284 10.7012 73.6148 10.7959 73.6993C10.1212 73.5705 10.4963 74.1566 10.894 73.9893C10.7413 74.2705 10.5913 74.5582 10.4438 74.8473C10.2861 74.8352 10.1886 74.855 10.1368 74.8944C9.93523 75.048 10.4258 75.4957 10.7609 75.4554C10.7595 75.4896 10.7581 75.524 10.7567 75.5586C10.5448 75.8542 10.7067 76.1323 10.5625 76.4932C10.4185 76.8539 10.3442 76.8195 9.98734 76.9246C10.0065 77.0104 10.0257 77.0972 10.0451 77.1824C11.0149 77.6386 9.32724 77.5497 10.0745 78.3191C9.46248 78.5658 9.78937 79.1734 9.98471 79.5667C10.0073 79.6126 10.1261 79.6106 10.1642 79.6712C10.2556 79.8194 10.1154 80.2079 10.4982 80.1811C10.3919 80.3166 10.2863 80.4532 10.1813 80.5904C10.2556 80.6957 10.3303 80.8002 10.4054 80.9042C10.5248 80.8976 10.6443 80.8909 10.7637 80.8843C10.3671 81.1205 10.5443 81.4518 10.4589 81.6245C10.4415 81.659 10.2773 81.6777 10.2399 81.7847C10.1954 81.9101 10.2619 82.1318 10.2233 82.2803C10.4103 82.3205 10.5974 82.3596 10.7845 82.3977C10.9068 82.6404 10.4365 82.7777 10.4154 82.9323C10.4109 82.9604 10.5036 83.4466 10.5183 83.4709C10.5316 83.4959 10.5493 83.5161 10.5701 83.5334C10.7205 83.6662 11.0269 83.6455 11.027 84.2231C11.0269 84.3405 10.8986 84.4522 10.9071 84.5556C10.9223 84.744 11.319 85.248 11.6206 85.2495C11.2821 85.5205 11.5204 86.0918 11.4406 86.2815C11.4158 86.3388 11.1825 86.3858 11.1573 86.5543C11.137 86.6944 11.3772 86.9966 11.373 87.1686C11.3672 87.3491 11.1803 87.4418 11.1797 87.5243C11.1792 87.6012 11.3496 87.643 11.3657 87.7431C11.4135 88.0578 11.2089 88.3872 11.25 88.6354C11.3094 88.9965 11.8394 89.218 12.1072 89.4649C12.092 89.5437 12.0067 89.6357 12.0219 89.7109C12.2065 90.65 12.3856 91.6983 12.5938 92.5971C12.6755 93.0116 12.5096 94.2443 13.3834 93.5435C13.5711 93.5865 13.6339 94.3548 13.7327 94.7039C13.7543 94.7785 13.7746 94.8373 13.7921 94.869C13.8986 95.062 14.1545 95.1132 14.2463 95.2612C14.5216 95.7046 14.5943 96.0945 15.0721 96.5495C15.1961 96.6666 15.4847 96.6967 15.5331 96.7798C15.5914 96.8806 15.4704 97.1065 15.5387 97.2423C15.7036 97.567 16.1275 98.0999 16.2831 98.4127C16.3113 98.4707 16.1591 98.5944 16.157 98.7038C16.1489 99.1316 16.3838 99.4538 16.8667 99.0548C16.8182 99.6276 17.3191 99.8013 17.568 100.138C18.0904 100.854 18.8898 102.263 19.5522 102.731C19.7144 102.846 19.8468 102.89 19.961 102.942C20.1428 103.029 20.2803 103.14 20.4227 103.586C20.4747 103.749 20.5108 103.921 20.5745 104.117C20.723 104.577 20.5536 105.221 21.2613 105.136C21.4308 105.641 21.761 105.897 21.5575 106.514C21.6862 106.474 21.8149 106.433 21.9434 106.392C21.9829 106.44 22.0217 106.487 22.0615 106.535C21.9757 106.623 21.8898 106.711 21.804 106.8C22.0435 107.175 22.7793 107.318 23.0013 107.611C23.372 108.111 24.2077 109.449 24.4636 109.962C24.5987 110.241 24.7961 110.069 24.5244 110.561C24.5972 110.584 24.6681 110.604 24.7411 110.625C24.8536 110.573 24.965 110.519 25.0754 110.463C25.2628 110.647 25.4059 110.915 25.5599 111.109C25.6332 111.194 25.7077 111.272 25.7851 111.334C26.3172 111.766 27.3222 112.123 27.7579 112.686C27.8646 112.827 27.9073 113.15 28.047 113.242C28.2551 113.379 28.5256 113.078 28.7871 113.24C29.2317 113.521 29.8393 114.437 30.3008 114.652C30.4374 114.717 30.5685 114.619 30.6673 114.655C31.0745 114.8 31.3852 114.974 31.8372 114.935C32.051 115.461 31.8162 115.895 31.7442 116.41C31.6998 116.799 31.6179 117.725 31.7853 118.1C31.827 118.227 31.7082 118.341 31.6053 118.453C31.499 118.565 31.4297 118.688 31.4449 118.826C30.8708 118.748 30.7624 118.671 30.5736 118.509C30.4088 118.352 30.3027 118.14 30.1605 117.869C29.3413 117.48 28.5716 117.061 27.8098 116.611C27.815 116.45 27.8182 116.288 27.8259 116.128C27.826 116.128 27.8262 116.128 27.8263 116.128C27.6296 115.815 27.3192 116.042 27.1199 116.01C25.9657 115.836 24.5792 114.801 23.4295 113.677C22.5753 112.85 22.0376 112.035 21.5712 111.441C21.312 111.116 20.3333 110.192 20.3461 109.832C20.3488 109.739 20.5069 109.591 20.4676 109.525C19.9505 109.064 19.4401 108.597 18.9349 108.129C18.4583 107.004 17.6198 106.115 16.8508 105.201C16.7167 105.041 16.5854 104.88 16.459 104.716C14.3953 102.036 12.4718 99.3052 10.7828 96.4386C10.5348 96.0162 10.3138 95.5816 10.119 95.1419C9.79004 94.4096 9.2989 93.5142 9.18436 92.7569C9.13609 92.4416 9.43373 92.2263 9.08017 91.8993C9.16921 91.8715 9.25826 91.8437 9.34732 91.816C9.14977 91.5041 8.88954 91.3341 8.77992 90.9551C8.68564 90.6357 8.49511 89.7841 8.47796 89.4946C8.4673 89.344 8.64881 89.3665 8.622 89.2289C8.57554 88.9989 8.24851 88.5382 8.19462 88.2167C8.1443 87.9217 8.26357 87.4005 8.20052 87.1831C7.97273 86.3932 7.55372 85.5625 7.51674 84.6973C7.50647 84.4544 7.69072 84.1278 7.67445 84.0528C7.66166 83.9961 7.6188 83.9594 7.5692 83.9299C7.49352 83.8829 7.40237 83.8529 7.37764 83.793C7.16782 83.286 7.35026 82.4506 7.32638 81.9492C7.24149 80.3079 7.12884 78.5947 7.19002 77.0034C7.21207 76.4092 7.2231 75.5804 7.2663 74.8298C7.29597 74.2915 7.35014 73.7814 7.43768 73.3994C7.48428 73.1966 7.72104 73.2667 7.7312 73.0944C7.74253 72.9068 7.58787 72.7911 7.58091 72.702C7.52481 72.0849 7.50822 70.6832 7.77481 70.1119C7.82411 70.0034 8.02335 69.9526 8.03399 69.8853C8.03961 69.8521 7.92611 69.7526 7.93238 69.643C7.97222 68.9579 8.11411 68.4033 8.30804 67.8279L8.33404 67.7446C8.46544 67.4086 8.58902 67.1833 8.72563 66.9231C9.59811 65.3235 10.4023 63.5427 11.45 62.0809C11.6777 61.7655 12.1351 61.7364 12.1607 61.6882C12.2187 61.5812 12.0452 61.386 12.1224 61.1466C12.1333 61.1133 12.1452 61.0799 12.1581 61.0464L12.2034 60.9785C12.546 60.2145 13.3728 59.5213 13.7377 58.8645C13.9258 58.5244 14.0078 57.9137 14.1917 57.5763C14.3381 57.3059 14.886 56.8379 14.8638 56.6471C14.8505 56.5311 14.6667 56.3286 14.7028 56.2323ZM12.4939 66.8334C12.1392 66.5792 12.1956 67.2205 12.4961 67.1574C12.5645 67.1415 12.5842 66.9019 12.4939 66.8334ZM11.5781 91.1367C11.6967 91.101 11.8152 91.0654 11.9338 91.0298C11.8668 90.9763 11.7994 90.9197 11.7329 90.8662C11.6701 90.9215 11.6077 90.9781 11.5454 91.0348C11.5563 91.0689 11.5672 91.1029 11.5781 91.1367Z" fill="#C9A16C"/>
<defs>
<linearGradient id="paint0_linear_4055_161" x1="97.5" y1="14.083" x2="97.5" y2="187.083" gradientUnits="userSpaceOnUse">
<stop stop-color="#FFE8C9"/>
<stop offset="0.495192" stop-color="#FFEDAE"/>
<stop offset="1" stop-color="#FBC579"/>
</linearGradient>
<linearGradient id="paint1_linear_4055_161" x1="102" y1="12.083" x2="102" y2="176.083" gradientUnits="userSpaceOnUse">
<stop stop-color="#FFE8C9"/>
<stop offset="0.495192" stop-color="#FFEDAE"/>
<stop offset="1" stop-color="#FBC579"/>
</linearGradient>
</defs>
</svg>
