<svg width="195" height="200" viewBox="0 0 195 200" fill="none" xmlns="http://www.w3.org/2000/svg">
<path d="M21.7207 65.5516C18.269 71.712 14.019 79.2165 14 79.2622C14.0061 95.9745 17.4854 107.528 18.0253 117.092C18.5653 126.656 19.4464 129.954 19.8978 131.927C20.3704 134.53 20.3376 136.709 21.5114 141.128C23.5059 148.637 24.8516 153.5 25.4942 154.448C26.5864 156.059 28.6699 158.694 31.6259 160.99C33.8303 162.702 36.8777 166.679 41.234 172.171C43.2303 174.688 44.9284 176.611 46.0213 177.617C47.4093 178.894 51.4308 180.732 57.8433 181.536C61.973 182.053 67.194 182.823 73.9577 183.31C79.5993 183.717 83.0339 183.697 84.63 184.24C86.2864 184.803 89.2557 186.194 93.4547 186.555C97.1835 186.876 100.977 186.18 104.284 186.369C107.198 186.534 109.472 187.604 115.949 187.158C124.413 186.574 130.246 186.325 131.44 185.658C133.175 184.689 136.392 181.908 141.251 178.503C143.651 176.821 146.107 175.486 148.566 173.731C153.604 170.137 156.755 168.02 158.892 166.865C163.018 164.634 167.821 161.417 171.275 158.635C173.681 156.697 176.818 154.343 179.961 147.646C181.123 145.171 182.347 143.33 182.213 137.644C182.118 133.565 181.794 126.145 181.698 121.958C181.581 116.849 181.708 115.586 181.668 110.902C181.632 106.548 181.51 98.4143 181.103 92.5209C180.695 86.6275 180.024 83.0815 179.628 80.6323C179.233 78.183 179.117 76.8702 177.911 74.0427C176.705 71.2153 174.475 67.0009 171.869 62.8841C169.263 58.7673 166.368 54.8665 164.196 51.3197C162.025 47.773 160.619 44.6743 157.661 39.3586C154.703 34.043 150.325 26.7321 147.799 22.6047L147.656 22.3708C145.251 18.4401 144.67 17.4913 144.037 16.8589C142.16 14.9828 140.881 13.8003 138.615 13.8253C133.732 13.8792 131.629 12.9962 126.38 12.0873C123.962 11.6685 120.274 11.1255 112.139 11.0196C104.003 10.9136 91.7899 11.267 85.2273 11.3873C77.7822 11.5238 76.5346 11.0409 74.7878 11.1004C68.0048 11.3311 65.4037 11.6995 63.1576 12.5285C59.0253 14.0536 57.5068 17.3542 52.7935 21.2083C50.9685 22.7007 48.4948 23.7372 41.8821 33.2459C39.3166 36.935 36.2952 41.6844 34.7625 44.3026C33.0139 47.2898 31.47 48.2132 26.5385 56.5943C24.9076 59.3661 23.4467 62.471 21.7207 65.5516Z" fill="url(#paint0_linear_4055_173)" stroke="#C9A16C" stroke-width="5" stroke-linecap="round"/>
<path d="M70.836 97.2266C70.5561 97.8301 69.9807 98.585 69.611 99.2765C68.0629 102.167 67.3997 103.195 65.9658 105.794C65.7954 106.103 65.5866 106.488 65.3718 106.887C64.0041 109.461 61.6555 113.82 59.962 116.749C58.8045 119.031 57.8442 121.038 57.4179 120.841C57.4178 120.841 57.4178 120.841 57.4178 120.841C57.4075 120.837 57.3976 120.832 57.388 120.825C57.2065 120.703 57.3954 119.581 57.2289 119.34C57.0648 119.097 55.5505 118.65 56.0602 117.131C56.2312 116.639 56.4883 116 56.8427 115.28C58.1291 112.843 59.991 109.975 60.4208 109.104C60.7989 108.365 61.1504 107.394 61.6235 106.441C61.8378 106.01 62.032 105.624 62.2285 105.237C63.4104 102.905 64.223 101.417 65.1619 98.8962C65.9164 97.89 66.6661 96.8918 67.4188 95.8862C68.0801 94.4099 69.4469 92.3595 69.8846 91.4821C70.2443 90.7614 70.3178 90.2688 70.6968 89.52C71.1209 88.68 71.9391 87.4765 72.7001 85.9437C73.9495 83.4276 73.8021 82.7927 74.5233 81.2707C75.2704 79.6936 76.7105 77.3806 77.5816 75.3317C77.6647 75.0701 77.7449 74.8139 77.822 74.5634C77.8263 74.5499 77.8306 74.5364 77.8349 74.5229C77.8222 74.5321 77.8095 74.5414 77.7969 74.5507C77.6281 74.6686 77.4578 74.7892 77.2862 74.9125C77.3714 74.7241 77.4532 74.5622 77.5328 74.4174C77.902 73.7432 78.2364 73.3995 78.6147 72.6459C79.151 71.5749 79.2327 70.937 79.566 70.2233C79.8384 69.638 80.3415 68.9148 80.6109 68.1687C80.9809 67.0964 80.6615 67.2619 80.7688 66.7128C80.7915 66.5883 81.0055 65.6183 80.8884 64.6194C80.7927 63.6086 80.444 62.3843 80.417 62.2542C80.3817 62.107 80.3486 61.9652 80.3179 61.8282C79.9436 60.1924 80.1322 59.8444 79.7387 58.3375C78.532 53.7949 76.7444 49.2736 75.1297 45.241C74.5538 43.8027 73.9759 42.3091 73.4101 40.8497C73.2622 40.4687 73.1185 40.093 72.9794 39.7237C74.9106 42.2797 72.9265 35.6938 72.6925 38.5493C72.0416 36.4509 71.1431 35.1395 70.4363 33.1849C69.9844 31.93 69.8072 30.9872 69.1143 29.2033C67.8817 26.0364 66.1075 22.7168 66.6355 21.4879C65.1046 17.8175 64.2434 14.3498 63.0019 13.505C62.9831 13.4676 62.9661 13.432 62.9527 13.4025C62.9202 13.3217 62.8606 13.1952 62.8996 13.178C62.9235 13.1677 62.9875 13.2022 63.1702 13.2327C63.3461 13.2681 63.6574 13.2269 63.8041 13.1278C63.0349 13.2961 62.3216 13.517 61.896 13.7272C60.8865 13.7286 55.161 19.3896 54.4298 20.5901C53.5828 21.6373 52.1754 23.5276 51.5753 24.5022C51.5211 24.5891 51.471 24.677 51.4238 24.7658C50.8066 25.9262 50.7239 27.1799 48.5569 28.5672C46.8265 31.0247 46.153 31.8535 44.3912 34.0059C44.0726 34.3952 43.9219 34.3528 43.7452 34.5881C43.3829 35.0714 42.8518 35.9615 42.2234 36.8355C41.1888 38.2744 40.3542 38.9151 40.8494 39.0297C40.2316 40.0209 39.6235 41.0159 39.0269 42.0162C38.7211 42.2988 38.4142 42.5855 38.1106 42.8705C37.8407 43.4424 37.5769 44.0119 37.3173 44.5823C37.145 43.5923 35.0986 47.4845 36.1994 46.5011C35.4705 47.4958 34.7541 48.501 34.0499 49.518C33.4586 50.3745 32.8799 51.2108 32.292 52.0638C31.7976 51.3845 29.6403 56.3032 30.2384 56.1255C30.1027 56.351 29.9678 56.5753 29.8337 56.7984C28.4903 58.6468 27.5648 60.5288 26.0438 62.8485C24.5259 65.1698 24.5944 64.9119 23.866 65.4597C23.5608 66.0287 23.2479 66.6142 22.9458 67.1844C22.1195 70.6477 20.8774 69.2697 18.8346 74.7907C18.2666 75.3563 17.6265 76.4176 17.0678 77.6632C16.7844 78.299 16.5267 78.9676 16.3343 79.644C16.2362 79.9911 16.1617 80.3194 16.1256 80.6313C16.0771 80.9082 16.155 81.2729 16.1415 81.1321C16.4404 81.5823 16.8061 81.9857 17.1671 82.3525C17.4067 82.5929 17.495 82.515 17.8324 82.8227C18.6398 83.5713 20.6852 85.7182 20.8747 85.3709C21.5402 86.158 22.2096 86.9447 22.8766 87.7318C23.535 88.2616 24.1912 88.7907 24.8448 89.3196C24.9244 89.2302 25.004 89.1408 25.0836 89.0514C25.74 90.0724 26.9275 91.2293 27.8773 92.1697C28.2823 92.5706 28.6565 92.9434 28.9193 93.2408C29.097 93.4417 29.014 93.5908 29.5684 94.1952C30.2069 94.8934 31.5052 96.0978 32.2725 96.9251C32.7164 97.1052 33.1524 97.2779 33.5971 97.4595C35.1034 98.8047 35.2708 99.6495 36.0862 100.509C36.2347 100.664 39.0237 103.381 39.1794 103.523C40.4543 104.677 40.4033 104.04 43.8558 107.614C44.4715 108.253 44.877 108.86 45.4358 109.429C46.4302 110.438 49.6555 113.234 50.1025 113.265C50.4185 113.762 50.9951 114.441 51.6565 115.168C52.9843 116.64 54.6198 118.215 55.1978 118.789C55.4626 119.054 55.3608 119.322 56.2421 120.032C56.9428 120.659 59.0874 121.453 60.2533 121.735C61.4575 122.08 61.9091 122.342 62.4777 122.457C63.0294 122.561 63.5529 122.476 64.3254 122.574C66.5503 122.85 68.6066 123.224 70.4552 123.383C70.5785 123.394 70.7016 123.403 70.8247 123.412C73.6279 123.601 76.1174 123.25 78.4749 123.15C79.066 123.209 79.6165 123.337 80.2339 123.365C87.7839 123.717 96.3156 124.074 103.904 124.379C107.426 124.525 116.178 125.369 113.862 124.235C114.616 124.136 118.296 124.336 121.39 124.503C123.325 124.61 125.019 124.693 125.646 124.694C127.331 124.701 128.606 124.476 129.844 124.36C133.544 124.027 135.483 123.033 138.763 119.498C139.598 118.596 140.34 117.469 140.859 116.92C141.086 116.68 141.348 116.447 141.637 116.197C142.083 115.816 142.598 115.391 143.089 114.871C144.997 112.856 148.432 108.974 150.248 107.02C150.579 106.665 150.841 106.665 151.352 106.19C153.346 104.337 155.363 102.056 154.539 102.042C157.126 99.6871 159.025 97.0731 161.151 94.6485C164.133 91.2487 168.827 86.0193 172.649 81.5207C174.578 79.253 176.28 77.162 177.144 75.6404C177.952 74.2073 178.01 73.5701 178.065 72.9009C178.059 72.2251 178.178 71.5663 177.189 69.312C176.746 68.3285 176.206 67.2979 175.472 66.0492C175.129 65.4651 174.791 64.8766 174.446 64.2819C173.126 61.9946 171.894 59.8559 170.266 58.423C168.162 55.1936 166.26 52.7795 164.998 50.1536C164.694 49.9554 164.392 49.7588 164.09 49.5624C163.808 49.1833 163.524 48.8013 163.242 48.4232C163.253 48.2323 163.263 48.0414 163.273 47.8503C161.289 45.0965 158.325 41.9387 156.611 39.6291C154.829 37.2236 151.334 32.4186 148.339 28.2228C146.51 25.6603 144.876 23.3248 143.903 21.9002C142.539 19.9055 142.251 19.9527 141.853 18.5397C141.5 18.138 141.144 17.7377 140.791 17.364C140.497 17.1891 140.205 17.0264 139.923 16.8926C139.65 16.5954 139.398 16.3491 139.117 16.132C137.978 15.1229 134.411 14.9475 132.06 14.7977C129.912 14.6973 127.315 14.6802 124.611 14.6732C120.626 14.6641 116.415 14.6742 113.181 14.5099C111.819 14.4407 110.126 14.181 108.793 14.1706C106.852 14.1554 106.38 14.5519 103.919 14.5381C99.6814 14.5128 91.781 13.9943 87.7788 14.0081C86.5812 14.0116 86.0281 14.1578 85.2079 14.1692C82.9784 14.2016 80.9735 14.2019 78.973 14.2569C77.8761 14.2864 76.7789 14.3319 75.6214 14.4068C72.0754 14.0046 72.395 13.5102 71.2894 13.0041C70.4591 12.6223 67.9077 11.7338 67.5445 11.4022C67.2886 11.1688 68.2448 10.8734 67.8904 10.6161C72.1364 10.432 73.9263 10.6665 77.3742 11.0437C77.919 11.0452 78.435 11.0466 78.9892 11.0482C84.8182 11.0643 90.6744 11.0828 96.5124 11.1104C97.0915 11.2541 97.6691 11.3979 98.2507 11.5418C98.2507 11.5421 98.2507 11.5424 98.2507 11.5427C100.699 11.7218 101.739 11.3707 103.061 11.2999C108.578 11.0079 116.431 10.9934 124.683 11.1869C130.086 11.6444 135.057 10.4263 141.155 13.4068C145.452 17.7283 147.486 21.6503 149.995 24.8491C150.259 25.2094 150.601 25.6686 151.023 26.2309C153.415 29.4132 157.901 35.2401 158.794 36.7686C159.066 37.233 158.979 37.477 159.311 37.9391C162.439 41.9305 165.556 45.9259 168.65 49.9509C171.447 54.0643 174.399 58.1791 177.276 62.3692C178.826 64.7074 180.528 66.945 181.56 69.9499C182.802 73.1462 181.02 76.7512 179.367 78.8766C178.071 80.646 176.71 82.2253 175.343 83.8381C165.165 95.7076 154.882 107.358 144.405 118.772C141.522 121.71 138.918 125.321 134.249 127.089C129.621 128.552 125.472 128.003 121.326 128.028C119.097 127.987 116.843 127.938 114.599 127.886C109.208 127.759 102.338 127.745 97.0575 127.479C94.8513 127.369 93.9435 126.995 91.0358 127.155C91.0086 127.061 90.9814 126.967 90.9542 126.872C88.4214 126.898 86.7939 127.051 83.9577 126.96C81.565 126.888 75.239 126.609 73.1267 126.441C72.0284 126.359 72.4432 126.21 71.428 126.148C71.0973 126.128 70.7028 126.111 70.2738 126.096C68.3168 126.028 65.4547 125.966 63.4327 125.691C61.2282 125.464 57.3148 124.318 55.6808 123.254C53.0208 121.761 51.0761 119.63 49.0564 117.717C46.4919 115.233 43.861 112.694 41.3386 110.107C40.0993 108.834 38.638 107.06 38.2388 106.671C37.4587 105.913 37.0743 105.841 36.5362 105.346C33.8052 102.831 29.872 98.5811 27.2772 96.036C26.7467 95.5151 26.1944 94.975 25.6599 94.4546C21.8282 90.5056 17.7536 87.6474 13.8222 82.4614C13.2219 81.1684 13.5191 80.6663 13.551 80.1607C13.6416 79.656 13.7597 79.2524 13.8933 78.8352C14.1539 78.0371 14.4478 77.3219 14.761 76.602C15.3788 75.1932 16.0566 73.8383 16.7438 72.5139C18.1197 69.8728 19.5663 67.3114 21.0066 64.8218C23.6944 60.1706 27.7363 53.3975 31.185 47.7881C32.5655 45.5397 33.9075 43.5256 35.0501 41.9104C35.9203 40.6865 35.8943 41.1531 36.608 40.1189C37.4035 38.9739 37.7116 38.266 38.0796 37.7289C40.5602 34.0556 46.3058 26.4082 48.8808 22.9645C48.938 22.8892 48.9936 22.8165 49.0478 22.7462C49.5443 22.1033 50.048 21.7309 50.3324 21.342C50.4826 21.1376 50.7045 20.6177 51.1653 19.9871C54.4625 15.6564 57.3179 11.8306 62.5331 9.82569C63.4669 9.42238 64.6642 9.81049 65.1964 10.2879C65.7834 10.7654 66.1121 11.2875 66.3689 11.8414C66.5822 12.3249 66.7354 12.7466 66.8997 13.1861C69.8568 21.518 73.3273 30.5246 76.9961 39.3811C78.6364 43.3641 80.0795 47.3829 81.3208 51.3263C82.2003 54.1242 82.3962 56.1599 82.5156 56.5536C82.7717 57.4197 83.1787 57.904 83.7088 59.6689C83.8268 60.0651 83.947 60.489 84.06 60.9072C84.7299 63.0424 85.0947 66.4587 83.9611 69.0497C82.987 71.6346 81.7534 73.8611 80.6881 76.0104C80.0917 77.1924 79.5252 78.3266 79.0167 79.3799C77.7848 81.9326 76.283 85.549 75.0654 88.0611C74.094 90.0688 71.56 94.6877 71.2283 95.6276C71.0257 96.2006 71.1383 96.5715 70.836 97.2266ZM68.5798 27.2233C69.1223 27.4394 67.3086 23.6534 67.6463 25.2077C67.7202 25.555 68.4362 27.1638 68.5798 27.2233ZM90.321 124.519C90.2871 124.394 90.2532 124.269 90.2193 124.144C89.6686 124.177 89.1265 124.209 88.5735 124.241C88.8797 124.326 89.1836 124.411 89.4876 124.496C89.7649 124.504 90.0427 124.512 90.321 124.519Z" fill="#C9A16C"/>
<path d="M136.479 118.819C136.557 118.939 136.477 119.183 136.529 119.341C136.744 120.004 136.734 120.287 136.904 120.902C137.159 121.81 138.364 124.367 137.306 124.765C137.306 124.765 137.306 124.765 137.306 124.765C137.296 124.769 137.285 124.772 137.275 124.776C137.07 124.842 136.767 124.701 136.528 124.754C136.288 124.807 134.831 125.384 134.63 125.103C134.35 124.69 134.306 123.455 134.195 123.218C134.12 123.057 133.907 122.903 133.802 122.701C133.46 122.045 133.418 121.65 132.817 121.169C132.911 120.847 133.005 120.525 133.1 120.203C132.887 119.913 132.951 119.323 132.863 119.13C132.79 118.972 132.604 118.933 132.533 118.765C132.512 118.716 132.501 118.655 132.492 118.586C132.468 118.392 132.47 118.135 132.359 117.886C132.114 117.333 131.683 117.376 131.51 117.056C131.332 116.724 131.35 116.104 131.048 115.708C130.983 115.666 130.92 115.629 130.856 115.589C130.772 115.665 130.688 115.739 130.605 115.815C130.478 115.612 130.643 115.439 130.571 115.232C130.487 114.99 130.248 114.931 130.19 114.773C130.142 114.64 130.227 114.403 130.153 114.233C130.045 113.982 129.846 114.125 129.754 114.003C129.717 113.952 129.22 113 129.197 112.946C129.024 112.516 129.315 112.374 129.208 112.014C128.922 111.045 128.302 110.156 127.871 109.314C127.682 108.947 127.54 108.527 127.436 108.117C128.445 108.437 128.515 106.84 127.508 107.815C127.511 107.549 127.382 107.371 127.246 107.192C127.131 107.047 127.01 106.902 126.961 106.7C126.89 106.412 126.99 106.174 126.835 105.791C126.563 105.12 125.8 104.566 126.58 104.036C126.119 103.303 126.16 102.495 125.292 102.504C125.164 102.312 125.412 101.621 125.381 101.364C125.354 101.124 124.904 99.3816 124.807 99.1034C124.712 98.8291 124.536 98.3438 124.38 98.1423C124.185 97.888 123.322 97.9931 124.036 97.1205C123.728 96.5546 123.67 96.3302 123.558 95.7347C123.538 95.6267 123.669 95.5617 123.646 95.503C123.598 95.3818 123.417 95.2158 123.32 95.0054C123.16 94.6589 123.366 94.3433 122.945 94.5551C122.779 94.3496 122.614 94.1455 122.449 93.9404C122.501 93.8252 122.553 93.7099 122.605 93.5946C122.464 93.5058 122.322 93.4169 122.181 93.3282C122.871 93.2258 122.152 92.4931 121.901 92.9218C121.854 92.4174 121.805 91.9116 121.758 91.4077C122.501 91.1873 121.448 90.3794 121.093 90.6229C121.073 90.571 121.053 90.5189 121.033 90.4666C121.045 89.9357 120.725 89.5828 120.635 88.9772C120.545 88.3744 120.635 88.3983 120.899 88.0993C120.829 87.9761 120.759 87.8532 120.689 87.7307C119.514 87.4068 121.13 86.907 119.974 86.0101C120.396 85.4128 119.736 84.6125 119.321 84.0642C119.273 84.0011 119.162 84.0433 119.09 83.9624C118.919 83.7682 118.826 83.1132 118.478 83.2759C118.501 83.0321 118.524 82.7875 118.546 82.5403C118.416 82.3977 118.285 82.2565 118.156 82.1167C118.045 82.1613 117.933 82.2058 117.822 82.2504C118.068 81.7589 117.718 81.2979 117.704 80.9935C117.702 80.9341 117.851 80.8621 117.829 80.6843C117.806 80.4782 117.622 80.1422 117.582 79.8977C117.377 79.8769 117.173 79.8567 116.969 79.8371C116.719 79.4693 117.112 79.1489 117.056 78.9036C117.049 78.8702 116.821 78.3483 116.728 78.1462C116.705 78.0962 116.689 78.0629 116.684 78.0556C116.472 77.7383 116.13 77.9899 115.826 76.9721C115.77 76.7861 115.846 76.5916 115.79 76.4331C115.689 76.1476 115.054 75.4164 114.753 75.4644C114.964 74.9823 114.462 74.1249 114.458 73.8189C114.456 73.7239 114.669 73.6153 114.62 73.3504C114.577 73.1278 114.197 72.6765 114.126 72.4C114.054 72.116 114.2 71.9357 114.168 71.8108C114.136 71.6879 113.943 71.6323 113.885 71.4703C113.701 70.9508 113.784 70.3978 113.661 69.9439C113.575 69.6145 113.378 69.3207 113.195 68.909C113.009 68.5165 112.881 67.8434 113.058 67.2373C113.059 67.2342 113.061 67.2312 113.063 67.2281C113.143 67.1333 113.285 67.068 113.34 66.9522C114.028 65.5147 114.849 63.8816 115.602 62.4405C115.952 61.7699 117.307 60.3188 116.116 60.3368C116.053 60.0118 117.228 58.4494 117.381 58.1243C117.534 57.797 117.48 57.4459 117.591 57.1914C117.94 56.3931 118.316 55.8978 118.59 54.8797C118.665 54.6082 118.573 54.2537 118.641 54.1104C118.723 53.9376 119.011 53.8395 119.129 53.6129C119.402 53.0883 119.799 52.039 120.069 51.5379C120.12 51.4451 120.313 51.4923 120.431 51.3791C120.889 50.9479 121.139 50.3519 120.526 50.1961C121.165 49.648 121.149 48.9091 121.425 48.2615C122 46.9099 123.243 44.5655 123.542 43.2985C123.727 42.5076 123.477 42.3816 124.185 41.4313C124.343 41.2167 124.519 41.009 124.714 40.7423C125.166 40.1259 125.915 39.7396 125.598 38.9486C126.095 38.2649 126.265 37.6326 127.013 37.2879C126.929 37.167 126.844 37.046 126.76 36.9249C126.8 36.8323 126.839 36.7417 126.879 36.6497C127.002 36.6731 127.125 36.6964 127.249 36.7197C127.506 36.2304 127.53 35.4913 127.655 34.9129C127.691 34.7429 127.735 34.5889 127.796 34.4614C128.24 33.5263 129.551 31.2069 130.121 30.391C130.424 29.9548 130.201 29.8195 130.811 29.7827C130.827 29.6621 130.844 29.5389 130.861 29.4177C130.786 29.3014 130.712 29.1852 130.637 29.0691C130.918 28.4685 131.426 27.8264 131.697 27.2563C132.192 26.2131 132.657 24.4982 133.35 23.5471C133.526 23.3055 133.9 23.0849 134.022 22.8254C134.2 22.4465 133.88 22.1865 134.103 21.706C134.485 20.8846 135.638 19.5633 135.975 18.7754C136.078 18.5378 135.99 18.3745 136.053 18.2052C136.308 17.5121 136.578 16.9722 136.666 16.2398C137.332 15.7223 137.753 15.9888 138.306 15.9854C138.722 15.9857 139.749 15.8396 140.081 15.9051C140.316 15.9497 140.506 16.2578 140.771 16.2921C140.571 17.2351 140.204 17.4851 139.561 18.0075C138.989 19.2576 138.41 20.4949 137.83 21.7356C137.65 21.7873 137.471 21.836 137.291 21.8879C137.291 21.8878 137.291 21.8876 137.291 21.8875C136.915 22.2959 137.147 22.6444 137.096 22.9385C136.626 25.7129 133.771 30.2452 132.42 32.9C132.126 33.4753 131.409 35.4381 131.017 35.7399C130.915 35.8176 130.707 35.7547 130.646 35.8606C130.603 35.9915 130.559 36.1229 130.515 36.2548C130.201 37.1884 129.921 38.0481 129.61 38.9793C128.367 40.8471 127.643 43.0556 126.745 45.1165C124.316 50.6929 121.979 56.2232 119.507 61.6534C119.026 62.7071 118.583 64.1026 118.023 65.102C117.793 65.5115 117.397 65.5505 117.374 66.2285C117.287 66.1962 117.199 66.1639 117.112 66.1315C116.99 66.6747 117.041 67.0774 116.804 67.6452C116.704 67.8834 116.506 68.3317 116.306 68.7576C116.34 68.6969 116.349 68.579 116.342 68.614C116.338 68.6372 116.344 68.7303 116.348 68.7942C116.36 68.9419 116.178 68.9265 116.218 69.0865C116.289 69.3691 116.755 69.9959 116.93 70.4617C117.083 70.88 117.176 71.6802 117.333 72.0007C117.896 73.1609 118.691 74.3586 119.124 75.6821C119.239 76.0365 119.212 76.5869 119.259 76.6909C119.35 76.8901 119.559 76.8911 119.654 77.0056C119.66 77.0127 119.666 77.0203 119.671 77.0284C120.091 77.7148 120.299 78.9616 120.573 79.6893C121.468 82.0654 122.543 84.5332 123.432 86.9002C123.995 88.3973 125.004 90.8515 125.391 92.2848C125.475 92.5939 125.22 92.6031 125.318 92.8516C125.427 93.1271 125.637 93.2165 125.7 93.3405C126.137 94.1986 127.064 96.1045 127.241 97.0087C127.274 97.1795 127.145 97.366 127.184 97.462C127.203 97.5107 127.366 97.5739 127.438 97.7215C128.076 99.0262 128.392 100.036 128.869 101.373C129.379 102.802 130.036 104.332 130.668 105.862C131.172 107.083 131.655 108.293 132.056 109.498C132.252 110.089 132.056 110.622 132.091 110.702C132.164 110.874 132.446 110.91 132.639 111.245C133.291 112.388 133.649 114.114 134.19 115.236C134.457 115.788 135.038 116.468 135.305 116.997C135.366 117.117 135.43 117.29 135.497 117.478C135.664 117.954 135.848 118.539 135.995 118.643C136.119 118.732 136.393 118.689 136.479 118.819ZM126.871 105.309C127.307 105.233 126.645 104.527 126.551 104.926C126.53 105.017 126.759 105.33 126.871 105.309ZM114.925 65.3115C114.809 65.2682 114.693 65.2249 114.577 65.1816C114.575 65.311 114.574 65.4389 114.573 65.5654C114.667 65.5369 114.762 65.5079 114.857 65.4783C114.88 65.4231 114.902 65.3675 114.925 65.3115Z" fill="#C9A16C"/>
<path d="M75.7388 60.7931C75.8116 60.7502 75.9446 60.8921 76.0369 60.8854C76.419 60.8601 76.577 60.9489 76.9229 60.9593C77.4381 60.973 78.8704 60.5494 79.0325 61.6645C79.0325 61.6645 79.0325 61.6645 79.0325 61.6646C79.0341 61.6755 79.0356 61.6866 79.0369 61.6978C79.0622 61.911 78.9705 62.1609 78.9871 62.4037C79.0039 62.6466 79.2409 64.1959 79.0811 64.3082C78.8428 64.4599 78.1783 64.1518 78.0479 64.1898C77.956 64.216 77.8665 64.3736 77.7525 64.4167C77.389 64.5549 77.1729 64.4835 76.8999 64.9201C76.734 64.7406 76.5643 64.5621 76.3969 64.3837C76.2362 64.5069 75.9257 64.2887 75.8213 64.3229C75.7357 64.3508 75.7148 64.5186 75.6256 64.5429C75.5259 64.5711 75.3375 64.4295 75.1588 64.4918C74.8649 64.5936 74.8982 65.0171 74.7323 65.107C74.5608 65.2001 74.2247 65.0408 74.0245 65.2405C74.0059 65.2925 73.9874 65.3445 73.9689 65.3965C74.0143 65.4933 74.0594 65.5901 74.1042 65.6871C73.9993 65.7621 73.8997 65.5656 73.7913 65.5882C73.6636 65.6148 73.65 65.8281 73.5649 65.8487C73.4959 65.8653 73.3618 65.7315 73.2735 65.7652C73.1466 65.8131 73.2354 66.0333 73.1765 66.0946C73.1522 66.1179 72.6707 66.3851 72.6412 66.3963C72.4226 66.4679 72.3134 66.1641 72.1264 66.1891C71.8136 66.232 71.5296 66.3977 71.2578 66.5753C71.0825 66.6908 70.9102 66.8119 70.7375 66.9072C70.5452 67.0139 70.3233 67.0649 70.0993 67.0827C70.1764 66.1917 69.2536 65.8138 69.9199 66.9553C69.6321 66.8551 69.5773 67.2391 69.3374 67.2551C69.1863 67.2639 69.0285 67.1271 68.8289 67.1973C68.4684 67.3251 68.2353 67.9374 67.844 67.0982C67.4694 67.3922 66.9987 67.1964 67.0981 68.0183C67.0024 68.1021 66.5735 67.7346 66.4269 67.7138C66.2959 67.6919 65.3267 67.7816 65.1809 67.8167C65.0291 67.8538 64.771 67.9247 64.6694 68.033C64.5402 68.1681 64.6965 69.0028 64.1135 68.1581C63.8145 68.3398 63.6963 68.3488 63.3595 68.3385C63.2997 68.3362 63.2483 68.1993 63.2169 68.2094C63.1525 68.2304 63.0756 68.369 62.9625 68.4197C62.7752 68.5033 62.5758 68.2448 62.7411 68.6849C62.6403 68.8004 62.5381 68.9164 62.4345 69.0327C62.3623 68.9608 62.2912 68.8886 62.2193 68.8166C62.183 68.9322 62.1462 69.0479 62.1091 69.1637C61.9801 68.4913 61.6252 69.0274 61.9002 69.3483C61.6169 69.2921 61.3235 69.2389 61.0389 69.1827C60.8382 68.436 60.4742 69.2703 60.6497 69.6549C60.6219 69.6632 60.5941 69.6715 60.5662 69.6797C60.2626 69.5613 60.0802 69.7959 59.7449 69.758C59.4048 69.7217 59.4089 69.6414 59.2099 69.3319C59.1438 69.3742 59.0826 69.415 59.0186 69.4566C58.9464 70.5011 58.4968 68.875 58.0944 69.7852C57.7044 69.2663 57.3107 69.727 57.0319 70.0086C57.0004 70.0411 57.0352 70.1547 56.9954 70.2055C56.8982 70.3282 56.532 70.2824 56.6566 70.6449C56.5112 70.5741 56.369 70.5023 56.2264 70.4305C56.1574 70.5249 56.0878 70.6195 56.0178 70.7142C56.0537 70.8283 56.0896 70.9424 56.1255 71.0565C55.8206 70.7242 55.5823 70.962 55.413 70.9123C55.3791 70.9021 55.3244 70.7463 55.2238 70.7303C55.1312 70.715 55.0021 70.7768 54.8835 70.7988C54.8519 70.8045 54.8211 70.8073 54.792 70.8046C54.7992 70.9937 54.8062 71.1828 54.8132 71.372C54.6265 71.5333 54.4075 71.0959 54.2682 71.0996C54.2414 71.1011 53.8364 71.2624 53.8165 71.2793C53.6569 71.414 53.8277 71.7915 53.2693 71.8718C53.1701 71.8858 53.0514 71.7736 52.9637 71.7947C52.8083 71.8319 52.4455 72.2817 52.4984 72.5773C52.2055 72.2773 51.754 72.5764 51.5793 72.5176C51.5258 72.4994 51.446 72.2754 51.2964 72.2686C51.1758 72.2627 50.9473 72.5324 50.8013 72.5442C50.6448 72.5562 50.5334 72.3817 50.4634 72.3885C50.3974 72.3951 50.3875 72.5668 50.3023 72.5922C50.0341 72.669 49.7199 72.4944 49.5091 72.5544C49.2038 72.6407 49.0765 73.1791 48.886 73.4593C48.814 73.4491 48.7221 73.3702 48.6558 73.3896C47.8357 73.6261 46.8885 73.8245 46.0398 73.9765C45.6452 74.048 44.5117 73.7153 45.078 74.6727C45.0004 74.8942 43.9119 74.7685 43.7269 74.8172C43.5419 74.8662 43.4526 75.0955 43.3095 75.1415C42.8781 75.28 42.5307 75.2385 42.0504 75.5579C41.926 75.6411 41.8448 75.9048 41.763 75.9264C41.6642 75.9518 41.4959 75.7703 41.3657 75.7942C41.0554 75.8532 40.5136 76.0895 40.2134 76.1377C40.1582 76.1461 40.0846 75.9646 39.9917 75.9284C39.6296 75.7867 39.307 75.9024 39.5398 76.4828C39.0616 76.2544 38.8036 76.6651 38.4578 76.7856C37.7284 77.0393 36.3332 77.2851 35.7539 77.7173C35.3876 77.9905 35.4757 78.2562 34.8038 78.1911C34.6549 78.1765 34.5054 78.1427 34.3241 78.1259C33.8974 78.0866 33.4222 77.6802 33.2855 78.3596C32.8208 78.3164 32.5051 78.5171 32.0583 78.0837C32.0532 78.2167 32.0482 78.3497 32.0431 78.4826C31.9928 78.4988 31.9397 78.5157 31.8876 78.5323C31.8408 78.4188 31.7941 78.3053 31.7475 78.1918C31.364 78.2563 31.0073 78.8608 30.6877 78.9354C30.2296 79.0442 29.1315 79.1605 28.4698 79.1567C28.3492 79.1565 28.2446 79.1527 28.1614 79.145C27.8743 79.1179 27.9168 79.375 27.6532 78.8843C27.5995 78.9339 27.5462 78.9834 27.4932 79.0328C27.4797 79.1556 27.4664 79.2783 27.4532 79.4009C27.1152 79.478 26.6594 79.3884 26.3372 79.4578C25.7401 79.587 24.9013 80.0881 24.2534 80.0003C24.0938 79.9774 23.8495 79.7792 23.7069 79.8098C23.4914 79.8555 23.5107 80.2604 23.2405 80.3196C22.7672 80.4232 21.7901 80.128 21.3453 80.2384C21.2069 80.2723 21.1733 80.4292 21.0815 80.4605C20.697 80.5928 20.367 80.6319 20.006 80.9135C19.5186 80.5895 19.5066 80.0883 19.3194 79.6056C19.179 79.2424 18.8113 78.3894 18.8412 78.0539C18.8399 77.8215 18.8435 77.5223 18.8313 77.2667C18.9031 77.1622 19.0939 77.1481 19.23 77.208C19.3768 77.2668 19.5292 77.3944 19.7396 77.5463C20.4099 77.4361 21.1045 77.3012 21.7975 77.1603C21.8899 77.2854 21.9729 77.4121 22.062 77.5377C22.062 77.538 22.0621 77.5383 22.0621 77.5386C22.3629 77.6469 22.4057 77.2726 22.5365 77.1647C23.6758 76.2176 26.1772 76.1746 27.778 75.973C27.9051 75.9577 28.0281 75.9407 28.1452 75.9215C28.4774 75.8686 29.4746 75.4393 29.7573 75.6021C29.8279 75.6457 29.895 75.851 29.9579 75.8452C30.4745 75.5864 30.9954 75.3218 31.5039 75.0571C32.7129 75.0884 33.8061 74.5042 34.9224 74.1384C37.9436 73.1475 40.9181 72.0837 43.9343 71.223C44.5175 71.0569 45.2061 70.6783 45.8046 70.6041C46.0543 70.5728 46.2543 70.8733 46.4896 70.5316C46.5201 70.6197 46.5507 70.7078 46.5813 70.7959C46.8208 70.6048 46.9324 70.3488 47.2299 70.2348C47.4818 70.1389 48.1549 69.9173 48.3931 69.8812C48.5163 69.8619 48.5236 70.0418 48.6332 70.0072C48.8205 69.9465 49.1485 69.5935 49.4091 69.513C49.6443 69.4405 50.0966 69.5107 50.2702 69.4267C50.8875 69.1282 51.509 68.6249 52.2256 68.4869C52.4207 68.4502 52.7378 68.5886 52.7952 68.5642C52.9087 68.5155 52.8787 68.2952 52.9488 68.244C53.2032 68.0573 53.6527 68.0327 54.0195 67.9945C54.1614 67.979 54.2927 67.9611 54.4005 67.9307C55.6793 67.5712 57.0004 67.0574 58.2702 66.6966C59.0733 66.4688 60.3908 66.0057 61.175 65.9248C61.344 65.9076 61.3747 66.1502 61.508 66.107C61.6575 66.0584 61.6872 65.8781 61.752 65.8433C62.2012 65.6011 63.2037 65.1008 63.7057 65.1104C63.8018 65.1123 63.9225 65.2708 63.9732 65.2534C63.9995 65.2448 64.0155 65.1043 64.0951 65.0643C64.7807 64.7165 65.3296 64.614 66.0519 64.4221C67.3497 64.0773 68.7572 63.3915 70.1698 63.0424C70.2604 63.0199 70.3497 62.9993 70.4378 62.9805C70.7671 62.9098 71.0927 63.2024 71.1355 63.1859C71.232 63.1498 71.2256 62.8905 71.4102 62.7731C72.027 62.3829 73.0183 62.4007 73.6463 62.132C73.9566 61.9977 74.3416 61.5918 74.6527 61.4596C74.9016 61.3522 75.5308 61.3649 75.6206 61.2084C75.6748 61.1133 75.6607 60.8408 75.7388 60.7931ZM68.5468 67.0697C68.4523 66.6449 68.1235 67.1316 68.3619 67.298C68.4162 67.3352 68.5694 67.1806 68.5468 67.0697ZM47.3411 73C47.3815 73.117 47.4218 73.234 47.4622 73.351C47.5063 73.2837 47.5503 73.2163 47.5942 73.149C47.5392 73.0881 47.4842 73.0272 47.4292 72.9663C47.3998 72.9775 47.3705 72.9887 47.3411 73Z" fill="#C9A16C"/>
<path d="M112.112 60.4861C112.154 60.4561 112.213 60.6183 112.262 60.6268C112.469 60.6643 112.546 60.7767 112.733 60.8404C113.011 60.9351 113.835 60.722 113.835 61.8484C113.835 61.8484 113.835 61.8484 113.835 61.8485C113.835 61.8595 113.835 61.8707 113.835 61.882C113.832 62.0966 113.762 62.3308 113.751 62.5735C113.741 62.8163 113.749 64.3836 113.649 64.4717C113.505 64.5878 113.158 64.186 113.081 64.2038C113.029 64.2161 112.964 64.3585 112.897 64.3838C112.68 64.4654 112.566 64.3612 112.371 64.7482C112.292 64.5443 112.214 64.3403 112.136 64.1363C112.034 64.2309 111.879 63.9619 111.817 63.9767C111.766 63.9889 111.737 64.1502 111.684 64.1577C111.624 64.167 111.533 63.9929 111.425 64.0191C111.248 64.0613 111.216 64.4821 111.11 64.5355C110.999 64.5908 110.828 64.3621 110.687 64.5102C110.669 64.5565 110.652 64.6027 110.634 64.649C110.647 64.7537 110.659 64.8584 110.672 64.9631C110.601 65.0118 110.571 64.7973 110.506 64.7934C110.429 64.7887 110.39 64.9921 110.338 64.9911C110.296 64.9902 110.239 64.8271 110.184 64.8373C110.104 64.8514 110.122 65.0868 110.079 65.1309C110.061 65.148 109.744 65.278 109.726 65.2798C109.59 65.2891 109.579 64.9668 109.47 64.9386C109.169 64.8618 108.86 65.1222 108.582 65.2206C108.458 65.2647 108.328 65.2459 108.204 65.1944C108.4 64.3695 107.968 63.7276 108.129 65.0183C107.991 64.8347 107.894 65.1831 107.763 65.1242C107.678 65.0858 107.62 64.9068 107.499 64.9115C107.285 64.9209 107.051 65.4296 106.989 64.5102C106.738 64.6723 106.52 64.3387 106.43 65.1504C106.365 65.2 106.199 64.7165 106.126 64.6509C106.057 64.589 105.53 64.3707 105.443 64.3585C105.357 64.3463 105.206 64.3331 105.133 64.4043C105.042 64.4924 104.978 65.3342 104.815 64.35C104.626 64.4296 104.559 64.4014 104.383 64.2871C104.351 64.2664 104.348 64.1203 104.329 64.1202C104.291 64.1202 104.226 64.2281 104.157 64.2413C104.045 64.2629 103.981 63.9554 103.993 64.425C103.919 64.5038 103.845 64.5825 103.771 64.6612C103.745 64.5706 103.719 64.48 103.693 64.3893C103.653 64.4881 103.613 64.5869 103.574 64.6857C103.62 64.0061 103.341 64.4071 103.432 64.797C103.288 64.6565 103.145 64.5159 103.001 64.3753C103.021 63.6029 102.685 64.2862 102.713 64.7061C102.697 64.7055 102.681 64.7049 102.664 64.7043C102.52 64.499 102.388 64.6669 102.212 64.5291C102.037 64.3913 102.053 64.3161 102 63.9609C101.959 63.9812 101.918 64.0015 101.876 64.0219C101.66 64.9958 101.698 63.3096 101.327 64.0567C101.208 63.4446 100.916 63.7661 100.722 63.9517C100.7 63.9733 100.699 64.0921 100.669 64.1287C100.596 64.2168 100.409 64.0641 100.415 64.4473C100.35 64.3364 100.285 64.2255 100.221 64.1147C100.168 64.1843 100.115 64.254 100.062 64.3237C100.062 64.4433 100.062 64.563 100.062 64.6826C99.9556 64.2749 99.7879 64.4316 99.7052 64.3341C99.6887 64.3143 99.6852 64.1493 99.634 64.1043C99.5742 64.0509 99.4628 64.0997 99.3915 64.0481C99.3638 64.2309 99.3361 64.4137 99.3084 64.5965C99.1809 64.6957 99.1361 64.2132 99.0613 64.1757C99.0478 64.1692 98.802 64.2038 98.7887 64.2142C98.6803 64.2958 98.711 64.7069 98.3974 64.6188C98.3415 64.6029 98.2964 64.4607 98.2459 64.4549C98.1567 64.4446 97.888 64.7672 97.8669 65.0653C97.7587 64.6922 97.4693 64.8447 97.3841 64.7369C97.3584 64.7038 97.3526 64.4661 97.2735 64.4156C97.2094 64.3743 97.0443 64.5646 96.963 64.5328C96.8767 64.4981 96.8459 64.2985 96.8072 64.2843C96.7707 64.2712 96.737 64.4324 96.6872 64.4314C96.5318 64.4258 96.3911 64.1664 96.2683 64.1617C96.0906 64.1542 95.9337 64.6313 95.7851 64.8431C95.7482 64.8122 95.712 64.7098 95.6733 64.7088C95.1949 64.6938 94.6551 64.6059 94.1753 64.5038C93.9525 64.4568 93.3985 63.8092 93.5463 64.8898C93.4689 65.0791 92.906 64.6434 92.7989 64.6368C92.6919 64.6303 92.607 64.8241 92.5229 64.8269C92.269 64.8354 92.0902 64.6958 91.7811 64.8645C91.7013 64.9086 91.6158 65.1381 91.5685 65.1355C91.5115 65.1317 91.4503 64.9097 91.3765 64.8956C91.2007 64.8637 90.873 64.9368 90.7043 64.8984C90.6735 64.8909 90.6627 64.6959 90.6186 64.635C90.4471 64.3969 90.2548 64.4176 90.2888 65.04C90.0689 64.6866 89.8656 65.0089 89.6618 65.0287C89.231 65.069 88.4462 64.9237 88.0708 65.1852C87.8342 65.3502 87.8402 65.6293 87.4918 65.3885C87.4145 65.3351 87.3375 65.263 87.2437 65.1993C87.0238 65.0493 86.822 64.5336 86.6544 65.155C86.4102 64.9938 86.2157 65.1081 86.0345 64.5767C86.0132 64.7042 85.9918 64.8316 85.9704 64.9591C85.9405 64.9622 85.9105 64.9654 85.8806 64.9685C85.8713 64.847 85.8619 64.7254 85.8526 64.6039C85.6381 64.5711 85.366 65.0708 85.1844 65.0671C84.88 65.0615 84.0959 64.8674 83.8073 64.7034C83.654 64.6162 83.6458 64.8766 83.5581 64.3414C83.5238 64.3786 83.4895 64.4159 83.4552 64.4531C83.4338 64.5703 83.4123 64.6875 83.3909 64.8047C83.1943 64.8094 82.9611 64.6273 82.7738 64.6292C82.4325 64.6329 81.92 64.9555 81.5772 64.7436C81.4913 64.6902 81.3839 64.4485 81.2997 64.4513C81.1772 64.455 81.1475 64.8561 80.992 64.8636C80.7241 64.8758 80.2253 64.4099 79.9721 64.4455C79.8969 64.4558 79.8618 64.605 79.8098 64.621C79.5921 64.6894 79.4133 64.6772 79.2045 64.9078C78.9803 64.5235 78.9997 64.0274 78.9302 63.5269C78.8776 63.1491 78.7161 62.2736 78.6932 61.9427C78.6771 61.7103 78.7372 61.4112 78.7147 61.1554C78.9833 60.951 79.0961 61.176 79.3142 61.5359C79.717 61.5216 80.1198 61.5072 80.5225 61.4929C80.5592 61.6326 80.5958 61.7722 80.6325 61.9119C80.6325 61.9122 80.6325 61.9125 80.6325 61.9128C80.7871 62.074 80.8527 61.7143 80.9361 61.6327C81.7348 60.8509 83.3067 61.4628 84.1859 61.5509C84.3753 61.5696 84.9917 61.3814 85.1217 61.6083C85.1553 61.6673 85.1647 61.8827 85.2005 61.8921C85.5204 61.764 85.8403 61.6359 86.1603 61.5078C86.8182 61.8425 87.4983 61.5661 88.1612 61.5146C89.9547 61.3749 91.7303 61.2051 93.4945 61.2567C93.8354 61.267 94.2681 61.1056 94.6019 61.2097C94.7412 61.2528 94.7992 61.5987 94.9822 61.3409C94.9841 61.4341 94.986 61.5273 94.988 61.6205C95.1477 61.508 95.2497 61.2959 95.4288 61.2744C95.5795 61.2566 95.9785 61.2427 96.1117 61.2784C96.1808 61.2962 96.1551 61.4703 96.2195 61.4694C96.3298 61.4666 96.5655 61.2259 96.7177 61.2259C96.8556 61.2259 97.088 61.4264 97.194 61.3974C97.5758 61.2943 97.9916 60.997 98.3985 61.0766C98.5108 61.0992 98.6554 61.3249 98.6906 61.3186C98.7593 61.3055 98.7798 61.0862 98.826 61.058C99.0606 60.9155 99.4262 61.1762 99.6561 61.1865C100.405 61.2202 101.199 61.1245 101.945 61.1648C102.416 61.1901 103.2 61.1515 103.635 61.3165C103.728 61.3521 103.703 61.5924 103.782 61.5924C103.87 61.5923 103.917 61.43 103.958 61.4169C104.24 61.325 104.864 61.161 105.131 61.3269C105.182 61.3587 105.219 61.547 105.249 61.5463C105.264 61.5463 105.299 61.4178 105.348 61.4047C105.775 61.2885 106.086 61.3634 106.504 61.4074C107.305 61.4909 108.233 61.2519 109.075 61.3812C109.258 61.4093 109.384 61.7817 109.41 61.7779C109.467 61.7704 109.503 61.52 109.617 61.4581C109.998 61.2548 110.512 61.522 110.874 61.3965C111.053 61.3346 111.299 61.0167 111.475 60.9463C111.616 60.8901 111.948 61.0148 112.011 60.8752C112.049 60.7909 112.066 60.52 112.112 60.4861ZM107.371 64.7024C107.396 64.2694 107.132 64.6293 107.231 64.8617C107.253 64.9141 107.364 64.8148 107.371 64.7024ZM95.033 63.9505C95.0354 64.0742 95.0378 64.1979 95.0402 64.3216C95.0748 64.2701 95.1094 64.2186 95.144 64.1672C95.1246 64.0928 95.1051 64.0184 95.0857 63.9441C95.0681 63.9462 95.0506 63.9483 95.033 63.9505Z" fill="#C9A16C"/>
<path d="M174.6 64.7376C174.678 64.7111 174.779 64.8781 174.87 64.8909C175.248 64.9465 175.385 65.0662 175.725 65.1487C176.231 65.2683 177.759 65.161 177.674 66.2859C177.674 66.2859 177.674 66.2859 177.674 66.286C177.673 66.297 177.672 66.3081 177.671 66.3194C177.649 66.5329 177.504 66.7572 177.468 66.9979C177.431 67.2386 177.334 68.8029 177.149 68.878C176.884 68.975 176.297 68.5336 176.158 68.5433C176.063 68.5497 175.94 68.6849 175.819 68.7032C175.429 68.7622 175.235 68.6477 174.867 69.017C174.739 68.8065 174.609 68.5962 174.479 68.3861C174.292 68.4722 174.026 68.1914 173.913 68.2012C173.82 68.2092 173.759 68.368 173.662 68.371C173.553 68.3752 173.394 68.1936 173.191 68.2083C172.986 68.2225 172.871 68.3848 172.763 68.5162C172.695 68.5976 172.631 68.667 172.55 68.6805C172.327 68.7172 172.019 68.4546 171.735 68.5675C171.696 68.6092 171.656 68.6508 171.617 68.6923C171.627 68.7993 171.638 68.9062 171.649 69.0131C171.506 69.044 171.477 68.8235 171.355 68.8029C171.212 68.7785 171.111 68.9695 171.016 68.9548C170.939 68.9427 170.857 68.766 170.757 68.7615C170.611 68.7542 170.608 68.9918 170.525 69.0239C170.489 69.0359 169.912 69.082 169.882 69.0799C169.707 69.0614 169.675 68.8834 169.596 68.7682L169.638 68.7736C169.606 68.7322 169.568 68.6992 169.515 68.6851C168.968 68.5409 168.359 68.7186 167.834 68.7387C167.599 68.7478 167.365 68.6925 167.147 68.6058C167.629 67.8472 166.951 67.0891 167.038 68.4101C166.819 68.189 166.585 68.5037 166.361 68.4072C166.216 68.3444 166.138 68.1501 165.924 68.1192C165.539 68.0649 165.044 68.4982 165.083 67.5727C164.615 67.6596 164.283 67.2682 163.995 68.0441C163.869 68.0741 163.661 67.5518 163.54 67.4666C163.426 67.3852 162.537 67.0308 162.384 66.9977C162.228 66.9628 161.973 66.9136 161.833 66.9662C161.658 67.0311 161.434 67.8501 161.281 66.837C160.935 66.8719 160.822 66.8293 160.527 66.6774C160.473 66.6499 160.485 66.5041 160.451 66.4999C160.384 66.4916 160.248 66.5839 160.131 66.5832C159.934 66.5814 159.854 66.2628 159.823 66.7319C159.683 66.7949 159.54 66.8578 159.4 66.9213C159.365 66.8262 159.33 66.7311 159.295 66.636C159.215 66.7266 159.135 66.8171 159.054 66.9078C159.211 66.241 158.669 66.5864 158.79 66.9915C158.544 66.824 158.319 66.6596 158.073 66.494C158.181 65.7283 157.521 66.351 157.533 66.7743C157.504 66.7709 157.475 66.7676 157.446 66.7643C157.213 66.5363 156.952 66.6813 156.662 66.5178C156.364 66.3539 156.398 66.2815 156.331 65.9195C156.255 65.9335 156.178 65.9476 156.101 65.9617C155.643 66.9019 155.851 65.226 155.118 65.9199C154.959 65.2941 154.412 65.5772 154.047 65.739C154.006 65.7579 153.997 65.8764 153.942 65.9094C153.809 65.9888 153.485 65.815 153.472 66.1982C153.363 66.0802 153.253 65.9622 153.141 65.8443C153.04 65.9079 152.941 65.9717 152.845 66.0358C152.838 66.1552 152.831 66.2746 152.825 66.3941C152.663 65.9759 152.355 66.1152 152.211 66.0095C152.182 65.9881 152.185 65.823 152.095 65.7729C151.989 65.7135 151.783 65.7513 151.663 65.6934C151.604 65.8733 151.546 66.0533 151.488 66.2333C151.257 66.3207 151.201 65.8348 151.068 65.7906C151.046 65.7829 150.591 65.7955 150.573 65.8051C150.378 65.8778 150.417 66.2906 149.86 66.1777C149.761 66.1574 149.685 66.0117 149.594 66.0021C149.425 65.9844 148.945 66.2878 148.894 66.5842C148.718 66.2037 148.19 66.3364 148.036 66.2232C147.989 66.1883 147.99 65.9506 147.853 65.8951C147.742 65.8499 147.443 66.03 147.298 65.9934C147.144 65.9537 147.094 65.7524 147.025 65.7361C146.959 65.7208 146.893 65.88 146.802 65.8762C146.512 65.8616 146.285 65.5954 146.063 65.5844C145.746 65.5679 145.448 66.0373 145.171 66.2421C145.102 66.2095 145.044 66.1056 144.976 66.1029C144.533 66.0841 144.051 66.045 143.558 65.9953C143.119 65.9507 142.685 65.8969 142.28 65.8406C141.891 65.786 140.888 65.1189 141.138 66.2045C140.994 66.3909 139.995 65.9362 139.797 65.9259C139.603 65.9158 139.447 66.1067 139.296 66.1067C138.843 66.1067 138.519 65.9611 137.958 66.1197C137.813 66.1612 137.656 66.388 137.571 66.3838C137.47 66.3782 137.364 66.1543 137.234 66.1378C136.914 66.1002 136.319 66.1628 136.019 66.1192C135.964 66.1108 135.948 65.9155 135.871 65.8533C135.57 65.6099 135.215 65.6245 135.267 66.2479C134.873 65.8878 134.51 66.2041 134.14 66.2177C133.356 66.2448 131.951 66.0771 131.27 66.3283C130.838 66.4866 130.844 66.7658 130.227 66.5157C130.086 66.4601 129.947 66.386 129.778 66.3198C129.38 66.1639 129.039 65.6432 128.719 66.2601C128.274 66.0925 127.938 66.2022 127.611 65.6661C127.57 65.7931 127.529 65.92 127.489 66.0469C127.434 66.0493 127.38 66.0517 127.326 66.0541C127.311 65.9323 127.295 65.8106 127.28 65.6888C126.896 65.6508 126.399 66.1438 126.07 66.1359C125.538 66.1232 124.104 65.9112 123.597 65.7413C123.327 65.651 123.301 65.9111 123.15 65.3741C123.087 65.4106 123.024 65.4471 122.962 65.4836C122.922 65.6003 122.883 65.7171 122.843 65.8338C122.501 65.8346 122.063 65.6477 121.736 65.646C121.112 65.643 120.199 65.9563 119.576 65.7386C119.419 65.6837 119.243 65.4404 119.082 65.4417C118.857 65.4434 118.798 65.8439 118.526 65.849C118.034 65.8569 117.142 65.3839 116.694 65.4164C116.551 65.4257 116.487 65.5745 116.395 65.5898C116.007 65.6556 115.677 65.6414 115.304 65.87C114.917 65.4837 114.934 64.9878 114.822 64.4867C114.716 64.1084 114.441 63.232 114.397 62.9012C114.37 62.6687 114.472 62.3698 114.433 62.1139C114.928 61.9109 115.124 62.1372 115.521 62.4992C116.245 62.489 116.98 62.4799 117.704 62.4714C117.769 62.6116 117.842 62.7518 117.903 62.892C117.903 62.8923 117.903 62.8926 117.903 62.8929C118.172 63.0563 118.297 62.6977 118.452 62.6174C119.896 61.8474 122.728 62.4892 124.316 62.5972C124.658 62.62 125.779 62.446 126.002 62.6758C126.062 62.7357 126.076 62.9513 126.141 62.9615C126.731 62.8411 127.291 62.7206 127.883 62.6008C129.058 62.9518 130.292 62.6935 131.492 62.6606C134.72 62.5709 137.946 62.4577 141.115 62.5702C141.734 62.5925 142.511 62.4463 143.114 62.5624C143.314 62.6007 143.418 62.8281 143.622 62.7942C143.676 62.7855 143.736 62.7592 143.807 62.7077C143.808 62.8009 143.81 62.8941 143.812 62.9874C144.108 62.881 144.299 62.6731 144.623 62.659C144.89 62.6472 145.618 62.6518 145.861 62.6943C145.986 62.7156 145.935 62.8883 146.051 62.8907C146.254 62.8935 146.667 62.6648 146.958 62.6739C147.213 62.6818 147.627 62.8963 147.817 62.8738C148.514 62.7947 149.265 62.5262 150.018 62.639C150.223 62.6705 150.472 62.908 150.535 62.9046C150.658 62.8972 150.705 62.6799 150.788 62.6556C151.24 62.5343 151.866 62.8274 152.296 62.8618C153.653 62.9706 155.104 62.9716 156.462 63.1246C157.315 63.2186 158.752 63.3171 159.528 63.5704C159.693 63.6244 159.622 63.8582 159.762 63.8739C159.924 63.892 160.029 63.7408 160.105 63.7364C160.62 63.7015 161.79 63.6845 162.25 63.9172C162.338 63.9615 162.378 64.1573 162.433 64.1642C162.461 64.1681 162.541 64.0496 162.629 64.0488C163.422 64.0446 163.976 64.2057 164.721 64.3697C166.15 64.6828 167.826 64.7404 169.262 65.0654C169.577 65.1366 169.747 65.5327 169.794 65.5348C169.867 65.5383 169.937 65.4101 170.051 65.3264L170.08 65.3303C170.125 65.3009 170.174 65.2776 170.232 65.2692C170.958 65.1662 171.829 65.5767 172.435 65.515C172.603 65.499 172.809 65.4049 173.006 65.3132C173.162 65.24 173.318 65.1693 173.452 65.1452C173.687 65.1023 174.278 65.2523 174.399 65.1181C174.472 65.0369 174.516 64.7677 174.6 64.7376ZM165.729 67.875C165.844 67.4551 165.318 67.7324 165.455 67.9908C165.484 68.0487 165.699 67.984 165.729 67.875ZM143.846 65.3186C143.848 65.4424 143.849 65.5661 143.851 65.6899C143.915 65.6398 143.979 65.5896 144.043 65.5395C144.01 65.4644 143.976 65.3893 143.942 65.3142C143.91 65.3157 143.878 65.3171 143.846 65.3186Z" fill="#C9A16C"/>
<path d="M77.6057 55.6765C77.6608 55.6682 77.66 55.8452 77.708 55.8758C77.9126 56.0073 77.9497 56.1463 78.1238 56.2919C78.3823 56.5093 79.3512 56.692 78.9142 57.7294C78.9142 57.7295 78.9142 57.7295 78.9141 57.7295C78.9098 57.7397 78.9054 57.7499 78.9008 57.7602C78.8136 57.9563 78.6446 58.1391 78.5383 58.3576C78.432 58.5762 77.8261 60.0217 77.6831 60.0565C77.4764 60.0948 77.2529 59.5612 77.1622 59.5412C77.0976 59.5267 76.9733 59.6281 76.8866 59.618C76.6144 59.5885 76.5326 59.4389 76.1601 59.6977C76.1547 59.4724 76.152 59.2481 76.149 59.0236C75.9974 59.0597 75.9401 58.7395 75.8647 58.7219C75.8052 58.7086 75.705 58.8404 75.6448 58.8215C75.5757 58.8007 75.5479 58.5972 75.4196 58.5681C75.2104 58.52 75.0033 58.8881 74.8683 58.886C74.7283 58.8837 74.6408 58.5941 74.4395 58.6685C74.4032 58.7032 74.3671 58.7381 74.3314 58.7732C74.3027 58.8748 74.2739 58.9763 74.245 59.0778C74.1563 59.0927 74.2108 58.8828 74.1487 58.8526C74.0844 58.8212 73.9877 58.9529 73.9331 58.9699L74.0139 59.0005C74.0024 59.0015 73.9915 59.0004 73.9814 58.9966C73.9108 58.9702 73.8695 58.7791 73.7884 58.7566C73.6803 58.727 73.6107 58.9528 73.5349 58.9685C73.4888 58.969 73.0525 58.9147 73.03 58.9052C72.8722 58.842 72.9947 58.5433 72.8765 58.4558C72.5823 58.2303 72.1109 58.2873 71.7729 58.2277C71.6195 58.2 71.4766 58.1068 71.3735 57.9966C71.9531 57.3659 71.7865 56.5611 71.3729 57.7987C71.3093 57.5603 71.0348 57.8113 70.929 57.6907C70.8574 57.6108 70.8773 57.4198 70.7436 57.3561C70.504 57.2431 70.0307 57.5703 70.385 56.7182C70.0347 56.7186 69.9719 56.3091 69.4939 56.9751C69.4 56.9818 69.4472 56.4605 69.4038 56.3635C69.3645 56.2731 68.8982 55.7802 68.8196 55.7246C68.7354 55.6662 68.5815 55.5696 68.4699 55.591C68.3299 55.6164 67.8676 56.3241 68.1614 55.3656C67.9267 55.3309 67.8684 55.2679 67.7338 55.0665C67.7094 55.03 67.7743 54.899 67.7543 54.8882C67.7139 54.8666 67.5968 54.9265 67.5195 54.9001C67.3926 54.8568 67.47 54.5495 67.2617 54.9706C67.1468 54.9985 67.0313 55.026 66.9152 55.0531C66.9303 54.9584 66.9453 54.8636 66.9603 54.7688C66.8716 54.8333 66.7809 54.8968 66.6937 54.9621C67.0631 54.3891 66.5853 54.5879 66.4946 54.9817C66.4119 54.7778 66.3275 54.5729 66.2413 54.3669C66.6275 53.6977 65.9504 54.1092 65.7823 54.4956C65.7656 54.4859 65.7488 54.4762 65.7321 54.4665C65.6801 54.2053 65.4621 54.2785 65.3413 54.0568C65.2203 53.8349 65.2722 53.7775 65.3866 53.4355C65.3344 53.4304 65.2822 53.4253 65.2298 53.4201C64.5413 54.1551 65.3852 52.6945 64.6371 53.1391C64.7984 52.5304 64.3505 52.6534 64.0567 52.7051C64.0228 52.7112 63.9657 52.8154 63.9167 52.8305C63.7977 52.8662 63.672 52.6241 63.4957 52.9645C63.4784 52.8289 63.4665 52.6963 63.4521 52.5622C63.3641 52.5937 63.2759 52.625 63.1875 52.6563C63.1306 52.7616 63.0738 52.8668 63.0169 52.9721C63.1008 52.5536 62.8502 52.5956 62.8095 52.4625C62.8016 52.4357 62.8767 52.2887 62.8442 52.2197C62.8071 52.1387 62.6633 52.116 62.6162 52.0316C62.5002 52.1766 62.3842 52.3216 62.2681 52.4665C62.0888 52.4817 62.2729 52.0325 62.2129 51.9571C62.2023 51.9439 61.9281 51.8338 61.9089 51.8351C61.7569 51.8451 61.5865 52.2205 61.305 51.9664C61.255 51.9209 61.2763 51.7706 61.2267 51.7369C61.1394 51.6775 60.7034 51.8068 60.5379 52.056C60.6027 51.6662 60.2255 51.6336 60.1905 51.4916C60.1798 51.4479 60.288 51.2362 60.2302 51.1469C60.1836 51.0744 59.92 51.147 59.85 51.0723C59.7762 50.9923 59.8397 50.7995 59.8058 50.7648C59.7736 50.7322 59.6607 50.854 59.6085 50.8244C59.4464 50.7291 59.4294 50.4239 59.3033 50.3493C59.1225 50.2415 58.7287 50.5696 58.4703 50.6694C58.4464 50.6209 58.4575 50.5102 58.4171 50.487C57.9317 50.2032 57.3981 49.8093 56.9561 49.4492C56.7486 49.2813 56.4782 48.3927 56.112 49.4248C55.9383 49.5452 55.5681 48.8433 55.4578 48.775C55.3491 48.7075 55.1665 48.828 55.0767 48.7817C54.8046 48.641 54.6924 48.4196 54.2878 48.3887C54.1832 48.3813 53.9827 48.5328 53.9345 48.503C53.8767 48.4668 53.9199 48.237 53.8492 48.1818C53.6787 48.051 53.3082 47.9295 53.1501 47.7981C53.1217 47.7737 53.2048 47.597 53.1885 47.5182C53.1251 47.211 52.9133 47.1174 52.6474 47.6816C52.5855 47.2433 52.2238 47.4114 52.0017 47.3108C51.5324 47.0969 50.7888 46.5181 50.2698 46.529C49.9429 46.5362 49.8103 46.7818 49.5684 46.3718C49.5143 46.2807 49.4696 46.1734 49.4031 46.0635C49.2477 45.8055 49.2877 45.2378 48.8101 45.6832C48.7782 45.6322 48.7435 45.5899 48.7085 45.5515L48.7518 45.5749C48.5868 45.4031 48.4232 45.3153 48.4726 44.8493C48.3913 44.9506 48.3107 45.0522 48.229 45.1533C48.1954 45.1393 48.1619 45.1253 48.1286 45.1114C48.1751 44.9985 48.2215 44.8856 48.268 44.7727C48.0554 44.6244 47.5433 44.9206 47.3521 44.8169C47.0386 44.6468 46.3058 44.0486 46.075 43.746C45.9538 43.5858 45.8315 43.8157 45.9802 43.2905C45.9264 43.3048 45.8729 43.3192 45.8196 43.3338C45.7435 43.4265 45.6676 43.5192 45.5917 43.6121C45.3886 43.5135 45.2195 43.2231 45.025 43.1266C44.6657 42.9486 43.9823 42.9666 43.7173 42.5999C43.6558 42.5099 43.6415 42.2336 43.5551 42.1943C43.4291 42.1369 43.2138 42.478 43.0536 42.4087C42.7702 42.2844 42.4461 41.6155 42.1703 41.5303C42.0918 41.506 41.989 41.6234 41.9316 41.6153C41.683 41.5795 41.5069 41.4904 41.2316 41.6295C41.1769 41.1962 41.3677 40.7401 41.4583 40.2415C41.5406 39.8689 41.5885 38.9699 41.5613 38.6295C41.5646 38.3927 41.7765 38.1316 41.7742 37.8695C42.4626 37.835 42.448 38.1037 42.6046 38.5472C43.107 38.7382 43.5498 38.9283 44.007 39.1281C43.9864 39.2729 43.9662 39.4179 43.9464 39.5631C43.9463 39.5634 43.9461 39.5637 43.946 39.5639C44.0516 39.7928 44.2688 39.4983 44.3996 39.4708C45.6152 39.1863 47.0298 40.5897 47.9188 41.1497C48.1113 41.2699 48.8581 41.4454 48.8843 41.715C48.8924 41.7858 48.8027 41.982 48.8362 42.01C49.24 42.076 49.6336 42.1374 50.0288 42.2002C50.1275 42.3218 50.2386 42.4264 50.3595 42.5187L50.3872 42.5337C50.9034 42.9489 51.5564 43.0929 52.1461 43.3723C54.0777 44.2851 56.005 45.1581 57.8116 46.2131C58.1664 46.4205 58.6918 46.5258 58.9867 46.8068C59.1124 46.9253 59.0067 47.2619 59.322 47.1411C59.2791 47.2239 59.2362 47.3066 59.1933 47.3893C59.414 47.3823 59.622 47.2548 59.8171 47.3374C59.9771 47.405 60.4082 47.6261 60.5278 47.7323C60.5911 47.7874 60.4806 47.9253 60.5479 47.9613C60.665 48.0223 61.019 47.9419 61.1817 48.0312C61.3271 48.1109 61.4736 48.4198 61.5974 48.4545C62.0377 48.5781 62.6247 48.5604 63.0041 48.8583C63.1077 48.9406 63.1525 49.2223 63.1926 49.237C63.2713 49.265 63.3978 49.0842 63.4598 49.0859C63.7767 49.0965 64.0197 49.5258 64.2626 49.6698C65.0253 50.1234 65.9022 50.4903 66.6588 50.9448C67.1421 51.2348 67.98 51.642 68.3498 52.0271C68.4329 52.1121 68.2928 52.3096 68.3763 52.3543C68.4686 52.4037 68.5947 52.2871 68.6436 52.2984C68.9765 52.3725 69.7105 52.5778 69.9104 52.8715C69.9495 52.9284 69.9002 53.1153 69.9326 53.1317C69.9488 53.1403 70.0456 53.0463 70.1023 53.0614C70.5935 53.19 70.8896 53.4309 71.3106 53.7013C72.1113 54.2145 73.1916 54.5055 74.0048 55.0495C74.1826 55.1681 74.153 55.5668 74.1786 55.5749C74.2343 55.5933 74.389 55.3899 74.5312 55.3884C74.7892 55.3802 75.0804 55.5555 75.2073 55.6323L75.2708 55.6563C75.4905 55.7687 75.6957 55.8765 75.8905 55.9047C76.1197 55.9384 76.5191 55.7703 76.7384 55.792C76.9125 55.809 77.216 56.0819 77.3397 55.984C77.414 55.9248 77.543 55.6857 77.6057 55.6765ZM70.6991 57.0978C70.9248 56.727 70.4844 56.9042 70.4807 57.1641C70.4802 57.2228 70.641 57.1943 70.6991 57.0978ZM58.1173 49.4568C58.0602 49.5665 58.0031 49.6763 57.946 49.7861C58.0069 49.7608 58.0678 49.7355 58.1286 49.7102C58.1442 49.6339 58.1598 49.5577 58.1753 49.4814C58.156 49.4732 58.1367 49.465 58.1173 49.4568Z" fill="#C9A16C"/>
<path d="M162.547 89.0192C162.613 89.0293 162.588 89.2099 162.639 89.2568C162.854 89.4536 162.875 89.6047 163.049 89.7993C163.304 90.0956 164.353 90.4787 163.802 91.4552C163.802 91.4552 163.802 91.4552 163.802 91.4552C163.796 91.4648 163.791 91.4744 163.785 91.4841C163.674 91.6678 163.469 91.8197 163.333 92.0216C163.198 92.2235 162.417 93.5831 162.238 93.5798C161.982 93.565 161.733 92.9374 161.625 92.8875C161.549 92.8536 161.387 92.9185 161.285 92.8815C160.956 92.762 160.871 92.5766 160.402 92.7215C160.419 92.485 160.44 92.25 160.462 92.0157C160.282 92.004 160.252 91.6518 160.17 91.6108C160.101 91.5771 159.972 91.6832 159.904 91.6439C159.829 91.6013 159.821 91.3818 159.677 91.3125C159.489 91.2208 159.273 91.4086 159.114 91.4635C159.075 91.4774 159.04 91.4831 159.009 91.4745C158.848 91.4297 158.772 91.1002 158.519 91.1062C158.471 91.1297 158.424 91.1536 158.377 91.1773C158.333 91.2741 158.289 91.3709 158.245 91.4676C158.133 91.4499 158.216 91.2474 158.14 91.1905C158.05 91.1233 157.887 91.259 157.826 91.2157C157.775 91.1801 157.797 90.9977 157.724 90.9607C157.618 90.9057 157.508 91.1152 157.43 91.1158C157.4 91.1158 156.938 90.9582 156.914 90.9444C156.742 90.8377 156.909 90.5616 156.791 90.4467C156.464 90.1294 155.935 90.0795 155.533 89.9171C155.354 89.8449 155.204 89.7159 155.08 89.5644C155.799 89.064 155.644 88.1639 155.09 89.3548C155.027 89.0839 154.703 89.2797 154.576 89.1145C154.495 89.0075 154.529 88.8107 154.378 88.7054C154.338 88.6773 154.29 88.6579 154.239 88.6423L154.199 88.6115C153.933 88.5292 153.557 88.5482 153.987 87.8935C153.586 87.7832 153.554 87.3324 152.937 87.8794C152.829 87.8571 152.946 87.3329 152.9 87.2125C152.851 87.0949 152.381 86.4461 152.292 86.3613C152.202 86.2752 152.035 86.127 151.904 86.1153C151.74 86.0983 151.157 86.7113 151.573 85.7878C151.304 85.6789 151.241 85.5941 151.111 85.3489C151.087 85.3042 151.172 85.1854 151.151 85.1687C151.106 85.1343 150.964 85.1611 150.876 85.1092C150.728 85.0228 150.844 84.7236 150.571 85.1067C150.439 85.1043 150.306 85.1014 150.172 85.0979C150.197 85.0028 150.222 84.9077 150.247 84.8124C150.14 84.8553 150.034 84.8981 149.927 84.9407C150.394 84.442 149.824 84.5119 149.693 84.9024C149.615 84.6659 149.533 84.4272 149.448 84.1862C149.936 83.5866 149.133 83.8362 148.914 84.1972C148.895 84.1824 148.876 84.1676 148.858 84.1527C148.815 83.8634 148.555 83.8785 148.432 83.6143C148.312 83.3528 148.375 83.3062 148.525 82.9749C148.464 82.9552 148.403 82.9354 148.343 82.9155C147.507 83.5084 148.55 82.1823 147.674 82.4645C147.899 81.87 147.352 81.868 147.019 81.8559C146.98 81.854 146.91 81.9498 146.853 81.9537C146.715 81.9623 146.581 81.6768 146.364 81.9928C146.351 81.8469 146.338 81.7007 146.324 81.5542C146.222 81.5661 146.119 81.5779 146.016 81.5897C145.946 81.6871 145.877 81.7845 145.807 81.8819C145.92 81.4607 145.629 81.4451 145.586 81.2949C145.578 81.2647 145.669 81.1274 145.634 81.0467C145.593 80.9518 145.429 80.8954 145.376 80.7945C145.237 80.9204 145.099 81.0463 144.961 81.1723C144.752 81.1465 144.977 80.7146 144.909 80.6206C144.897 80.604 144.58 80.4237 144.558 80.4206C144.378 80.3947 144.184 80.7597 143.859 80.4263C143.801 80.3668 143.828 80.2122 143.771 80.1653C143.669 80.0823 143.158 80.1214 142.967 80.3515C143.05 79.956 142.616 79.8433 142.573 79.6837C142.56 79.635 142.687 79.4339 142.619 79.3264C142.563 79.2381 142.258 79.2612 142.178 79.1689C142.094 79.07 142.169 78.8794 142.13 78.8361C142.093 78.7954 141.962 78.9015 141.902 78.8601C141.717 78.7288 141.685 78.3958 141.54 78.2931C141.33 78.1439 140.875 78.4147 140.577 78.4717C140.549 78.4161 140.561 78.3014 140.514 78.2693C139.94 77.8731 139.322 77.3673 138.791 76.907C138.542 76.6914 138.202 75.7109 137.808 76.7406C137.615 76.8416 137.148 76.0358 137.017 75.9473C136.889 75.8602 136.682 75.9603 136.576 75.8986C136.259 75.7129 136.104 75.4544 135.633 75.3661C135.512 75.3439 135.287 75.4762 135.229 75.4385C135.161 75.3927 135.199 75.1565 135.114 75.089C134.911 74.9294 134.46 74.746 134.271 74.5896C134.236 74.5604 134.322 74.3846 134.298 74.2995C134.204 73.9675 133.949 73.8425 133.678 74.4048C133.578 73.9368 133.161 74.0669 132.895 73.9365C132.332 73.6563 131.413 72.9696 130.804 72.9317C130.424 72.9097 130.299 73.159 129.972 72.7049C129.899 72.6041 129.835 72.4872 129.745 72.3658C129.534 72.0802 129.523 71.4883 129.014 71.9206C128.778 71.6111 128.474 71.5794 128.487 70.9854C128.4 71.0835 128.313 71.182 128.226 71.2804C128.187 71.263 128.147 71.2456 128.107 71.2283C128.152 71.1144 128.196 71.0004 128.241 70.8865C127.98 70.7125 127.398 70.9731 127.164 70.8488C126.824 70.667 126.09 70.1301 125.694 69.7711C125.631 69.7145 125.577 69.6627 125.536 69.6175C125.373 69.4393 125.248 69.6682 125.372 69.1326C125.313 69.1449 125.248 69.1544 125.187 69.1655C125.106 69.2565 125.026 69.3477 124.946 69.4389C124.689 69.3177 124.457 69.0018 124.217 68.8879C123.763 68.6716 122.956 68.6449 122.596 68.2448C122.51 68.146 122.464 67.8588 122.354 67.8112C122.196 67.7434 121.983 68.0866 121.781 68.0038C121.428 67.8569 120.958 67.1444 120.614 67.0426C120.517 67.014 120.408 67.1305 120.338 67.1194C120.033 67.0707 119.807 66.9708 119.483 67.1018C119.354 66.6518 119.523 66.188 119.579 65.6818C119.607 65.3008 119.684 64.3935 119.428 64.0438C119.298 63.9253 119.509 63.7952 119.567 63.6686C119.633 63.5393 119.712 63.411 119.662 63.2748C119.99 63.2737 120.062 63.2793 120.185 63.3083C120.289 63.3352 120.372 63.3817 120.435 63.4416C120.569 63.5636 120.655 63.7478 120.759 63.9769C121.382 64.1885 121.943 64.4095 122.515 64.6423C122.509 64.792 122.503 64.942 122.498 65.0924C122.498 65.0927 122.498 65.0929 122.498 65.0932C122.65 65.3363 122.878 65.0443 123.032 65.0238C124.332 64.8181 126.011 66.1257 127.144 66.8599C127.25 66.9283 127.351 66.9916 127.448 67.0483C127.694 67.1919 128.595 67.4389 128.665 67.7313C128.683 67.8069 128.597 68.0048 128.64 68.0376C129.124 68.1432 129.602 68.2482 130.085 68.359C130.797 69.1141 131.817 69.3536 132.705 69.7888C135.112 70.9693 137.478 72.1789 139.68 73.6259C140.099 73.9016 140.742 74.1198 141.098 74.473C141.25 74.6227 141.136 74.9607 141.506 74.8933C141.457 74.973 141.409 75.0527 141.361 75.1324C141.621 75.1678 141.864 75.0732 142.098 75.2002C142.295 75.3083 142.804 75.6276 142.947 75.766C143.023 75.8376 142.895 75.9614 142.974 76.0134C143.108 76.0992 143.541 76.0994 143.729 76.2257C143.9 76.3412 144.071 76.6987 144.218 76.7639C144.754 77.0029 145.425 77.1038 145.884 77.5197C146.008 77.634 146.054 77.9412 146.1 77.9657C146.189 78.0122 146.343 77.8521 146.416 77.8687C146.791 77.9578 147.074 78.4775 147.354 78.6898C148.237 79.3605 149.261 79.9876 150.128 80.6829C150.672 81.1177 151.635 81.7968 152.046 82.3201C152.137 82.4341 151.961 82.602 152.054 82.6733C152.156 82.7521 152.31 82.6655 152.365 82.6915C152.757 82.8766 153.594 83.3186 153.798 83.6899C153.84 83.7628 153.767 83.9452 153.804 83.9728C153.822 83.9871 153.942 83.9181 154.007 83.952C154.573 84.2488 154.896 84.5996 155.35 85.0153C155.656 85.2959 156.024 85.5731 156.379 85.8247L156.347 85.8C157.011 86.2455 157.729 86.6701 158.329 87.1861C158.532 87.3609 158.473 87.7718 158.506 87.7902C158.578 87.8306 158.764 87.6543 158.937 87.6979C159.511 87.8445 159.988 88.4893 160.507 88.6943C160.632 88.7437 160.81 88.7572 160.991 88.7703C161.185 88.7847 161.38 88.7975 161.514 88.8476C161.722 88.9258 162.05 89.3142 162.203 89.2518C162.297 89.2152 162.474 89.0091 162.547 89.0192ZM154.313 88.3949C154.611 88.0786 154.08 88.1193 154.053 88.3933C154.048 88.4559 154.237 88.4782 154.313 88.3949ZM140.147 77.1223C140.082 77.2279 140.018 77.3336 139.953 77.4392C140.024 77.4236 140.094 77.4081 140.165 77.3926C140.181 77.3148 140.198 77.2369 140.215 77.1591C140.192 77.1468 140.169 77.1346 140.147 77.1223Z" fill="#C9A16C"/>
<path d="M179.986 87.5827C179.966 87.1842 180.143 86.6252 180.164 86.1564C180.253 84.2035 180.385 83.4568 180.5 81.6803C180.555 80.8657 180.582 79.627 180.675 78.1482L180.672 78.2011C180.86 75.2052 180.475 71.547 181.257 71.4343C181.257 71.4343 181.257 71.4343 181.257 71.4342C181.268 71.4329 181.279 71.4322 181.291 71.4323C181.508 71.434 181.82 72.0546 182.072 72.128C182.323 72.1991 183.877 71.9385 184.063 72.9012C184.333 74.2036 184.087 77.3284 183.988 78.3107L183.986 78.3415C183.981 78.3943 183.978 78.4462 183.977 78.4913C183.964 78.9796 184.085 79.6002 184.09 80.2321C184.106 82.2994 183.975 83.3712 184.311 85.2336C184.088 85.973 183.864 86.7188 183.641 87.4459C183.71 88.4307 183.403 89.8698 183.402 90.4783C183.402 90.9524 183.556 91.2394 183.55 91.7534C183.545 92.3055 183.348 93.179 183.347 94.2065C183.345 95.8889 183.757 96.2006 183.783 97.2176C183.811 98.2623 183.538 99.8924 183.65 101.233C183.691 101.401 183.733 101.57 183.775 101.74C183.883 101.622 183.99 101.505 184.098 101.388C184.129 102.061 183.906 102.357 183.885 102.967C183.861 103.691 184.053 104.084 184.039 104.564C184.027 104.962 183.848 105.509 183.844 106.031C183.837 106.783 184.077 106.626 184.109 107.036C184.122 107.208 184.165 110.225 184.162 110.389C184.134 111.687 183.808 111.786 183.75 112.817C183.658 114.446 183.674 116.084 183.708 117.707L183.702 117.811C183.667 119.018 183.66 120.198 183.638 121.328C183.615 122.493 183.539 123.71 183.441 124.875C182.689 123 181.892 127.056 183.239 125.576C183.009 126.871 183.331 127.799 183.241 129.038C183.183 129.831 182.991 130.385 182.972 131.532C182.941 133.562 183.407 135.813 182.474 136.373C182.584 138.786 182.168 140.853 182.93 141.775C182.951 142.394 182.361 144.002 182.226 144.693C182.182 145.35 181.16 150.543 180.463 151.451C180.187 152.022 179.654 152.94 178.839 153.573C178.65 153.726 178.469 153.921 178.345 154.081C177.873 154.685 178.163 155.719 176.298 156.274C175.673 156.982 175.167 157.44 174.643 157.83C174.173 158.177 173.712 158.499 173.039 158.995C172.801 159.171 172.682 159.082 172.55 159.196C172.28 159.43 171.894 159.915 171.423 160.357C170.648 161.084 169.985 161.27 170.389 161.537C169.917 162.069 169.439 162.603 168.956 163.135C168.713 163.229 168.461 163.329 168.214 163.424C167.995 163.747 167.771 164.072 167.544 164.397C167.438 163.598 165.662 165.628 166.576 165.366C165.419 166.155 164.267 166.913 163.1 167.661C162.77 166.945 160.674 169.451 161.13 169.622C161.008 169.716 160.884 169.81 160.759 169.906C159.54 170.581 158.624 171.481 157.192 172.368C157.184 172.373 157.176 172.378 157.168 172.383C155.77 173.246 155.843 173.098 155.231 173.111C154.923 173.364 154.626 173.61 154.32 173.862C153.246 175.872 152.534 174.301 150.15 177.006C148.877 177.19 146.84 179.106 145.457 180.344C145.298 180.487 145.36 180.588 145.151 180.785C144.639 181.27 143.085 182.189 143.356 182.465C142.78 182.734 142.201 183 141.615 183.258C141.224 183.602 140.826 183.943 140.4 184.279C140.463 184.38 140.527 184.482 140.591 184.583C140.346 184.626 140.07 184.715 139.79 184.813C138.953 185.078 138.005 185.734 137.412 185.968C137.264 186.026 137.15 185.903 136.689 186.097C136.148 186.327 135.174 186.855 134.499 187.078C134.311 187.356 134.131 187.625 133.928 187.899C132.744 188.45 132.161 188.107 131.438 188.275C131.306 188.333 128.934 188.895 128.804 188.902C127.764 189.135 128.103 189.596 124.992 189.741C124.433 189.757 123.987 189.632 123.488 189.637C122.606 189.668 119.966 189.906 119.741 190.178C118.688 189.765 115.863 189.633 115.058 189.403C114.937 189.371 114.869 189.296 114.742 189.21C114.614 189.121 114.423 189.019 114.042 188.94C113.441 188.816 111.853 188.779 111.092 188.634C110.283 188.48 110.022 188.239 109.661 188.171C109.32 188.108 108.978 188.22 108.512 188.15C107.051 187.928 105.768 187.48 104.616 187.314C102.952 187.073 101.415 187.353 99.9993 187.394C99.6599 187.322 99.3321 187.18 98.9688 187.137C94.4951 186.593 89.4357 186.113 84.9205 185.879C84.6414 185.864 84.3054 185.837 83.9334 185.805C81.5489 185.596 77.7675 185.229 78.9781 186.169C78.2475 186.346 72.9124 185.929 71.8927 185.937C70.8761 185.939 70.0726 186.141 69.2735 186.153C66.8572 186.186 65.1639 186.072 62.2069 186.257C61.6788 186.291 61.106 186.413 60.6672 186.481C60.4656 186.511 60.2872 186.529 60.1443 186.526C59.567 186.513 58.9567 186.271 58.2069 186.199C56.4236 186.097 53.0141 185.399 51.4266 184.625C51.1325 184.494 51.106 184.272 50.7203 184.03C49.2189 183.094 47.6106 182.068 47.5654 182.779C45.8676 181.298 44.0948 180.314 42.5529 179.028C41.5346 178.176 40.3105 177.057 39.0502 175.829C36.2964 173.168 33.3353 169.952 31.577 168.158C29.9667 166.505 29.7613 166.742 27.8699 163.893C27.4547 163.256 27.0656 162.609 26.5848 161.823C25.455 159.977 24.8329 158.053 23.4601 156.959C22.4723 155.008 21.5744 153.451 21.22 151.797C21.185 151.632 21.1556 151.466 21.1323 151.299C20.9293 151.162 20.727 151.024 20.5249 150.884C20.402 150.615 20.2813 150.346 20.1627 150.077C20.2384 149.944 20.3144 149.812 20.391 149.681C19.5994 147.745 18.2476 145.392 17.7424 143.677C16.7781 140.828 15.4831 133.281 15.3579 130.497C15.2525 129.02 14.9897 128.97 15.4241 128.069C15.35 127.745 15.2775 127.423 15.2059 127.099C15.0676 126.905 14.93 126.713 14.7927 126.519C14.5963 124.633 14.6018 122.386 14.4849 120.594C14.4565 120.164 14.4223 119.709 14.3846 119.229C14.1369 116.093 13.6855 112.052 13.7106 109.219C13.7192 108.421 13.9014 107.352 13.8554 106.573C13.7858 105.389 13.3713 105.158 13.2817 103.666C13.13 101.137 13.3401 96.3506 13.18 93.9576C13.1323 93.2423 12.9656 92.9112 12.9246 92.4285C12.748 90.3454 12.6751 88.6765 12.3431 86.685C12.6199 84.5554 13.1231 84.686 13.5898 84.0137C13.9384 83.4732 14.7471 81.9937 15.0343 81.5922C15.0349 81.5341 15.071 81.5005 14.9771 81.245C14.9293 81.1243 14.7763 80.8623 14.466 80.7114C14.158 80.5656 13.9404 80.6012 14.0122 80.5855C14.0579 80.5724 14.4258 80.5922 14.6856 80.7879C14.9452 80.976 15.0325 81.1622 15.0855 81.2599C15.1804 81.4608 15.1882 81.5014 15.2155 81.5514C15.2989 81.6939 15.3615 81.6751 15.4369 81.761C15.5789 81.8405 15.7243 81.9419 15.8439 81.8116C16.198 84.4164 16.016 85.4748 15.7636 87.5561C15.972 91.3763 16.186 95.2108 16.4054 99.0261C16.2851 99.3899 16.1639 99.7376 16.0431 100.091C16.0428 100.091 16.0425 100.091 16.0422 100.091C15.9617 101.587 16.3534 102.163 16.479 102.964C17.1095 106.941 17.4735 112.986 17.7465 119.032C17.9756 124.408 18.3871 129.75 19.0128 133.589C19.2359 135.361 20.7071 140.912 20.8874 142.117C20.9187 142.434 20.7373 142.58 20.8256 142.903C21.7402 145.504 22.8228 148.031 24.0884 150.451C24.1968 150.659 24.3067 150.865 24.4182 151.071C26.7884 156.706 30.8027 161.779 34.9165 166.407C37.0252 168.781 39.2524 171.058 41.5508 173.244C47.069 178.537 53.2359 183.11 60.6751 182.669C66.5843 182.635 72.5506 182.492 78.4995 182.534C80.1846 182.545 82.1042 182.522 84.0144 182.544C85.803 182.563 87.5761 182.627 89.1209 182.765C90.453 182.887 90.9891 183.265 92.7588 183.143C92.7698 183.238 92.7808 183.332 92.7918 183.426C94.3266 183.437 95.3226 183.314 97.0347 183.468C98.4749 183.59 102.276 184.041 103.533 184.255C104.187 184.361 103.916 184.5 104.529 184.584C105.573 184.724 107.834 184.808 109.266 185.021C110.564 185.214 112.716 185.735 113.714 185.846C114.197 185.9 114.687 185.951 115.179 185.999C118.321 186.299 121.618 186.322 124.795 186.204C125.802 186.175 127.125 186.242 127.436 186.187C128.048 186.085 128.192 185.835 128.587 185.734C130.612 185.263 133.686 184.447 135.503 183.423C136.381 182.963 137.24 182.439 138.254 181.898C143.117 178.934 148.265 174.684 153.143 171.178C153.764 170.723 154.442 170.225 155.177 169.685C158.723 167.099 163.145 163.601 165.78 161.469C166.471 160.915 166.453 161.25 167.008 160.761C167.622 160.217 167.851 159.792 168.125 159.528C169.164 158.542 170.843 156.842 172.746 155.349C174.059 154.329 175.109 152.873 176.135 151.94C176.462 151.642 176.827 151.479 177.121 151.319C177.156 151.31 177.187 151.295 177.212 151.273C177.273 151.219 177.311 151.015 177.47 150.76C178.84 148.042 178.941 144.69 179.226 140.881C179.604 133.713 179.292 125.275 180.037 117.514L180.032 117.596C180.048 117.215 180.065 116.838 180.082 116.466C180.163 114.732 180.57 113.544 180.574 113.3C180.582 112.756 180.342 112.405 180.312 111.319C180.215 107.68 180.618 102.832 180.585 99.3728C180.57 97.6665 180.314 95.3216 180.288 93.6442C180.267 92.3027 180.474 89.1561 180.35 88.5522C180.275 88.1896 180.008 88.0252 179.986 87.5827ZM182.739 132.748C182.311 132.502 182.622 135.015 182.873 134.078C182.929 133.861 182.85 132.815 182.739 132.748ZM93.0303 185.783C93.0432 185.908 93.0559 186.034 93.0686 186.159C93.4001 186.134 93.7295 186.111 94.057 186.088C93.882 185.998 93.7061 185.908 93.5292 185.818C93.3635 185.806 93.1972 185.795 93.0303 185.783Z" fill="#C9A16C"/>
<path d="M57.982 177.448C58.0132 177.516 57.8527 177.613 57.8455 177.689C57.814 178.023 57.7039 178.146 57.646 178.444C57.5588 178.892 57.8059 180.188 56.6807 180.223C56.6806 180.223 56.6806 180.223 56.6806 180.223C56.6695 180.224 56.6584 180.224 56.6471 180.224C56.4324 180.225 56.1952 180.119 55.9521 180.109C55.709 180.099 54.1426 180.155 54.0502 179.997C53.9275 179.767 54.3156 179.198 54.2952 179.074C54.2811 178.991 54.1363 178.888 54.1088 178.78C54.0199 178.43 54.1207 178.248 53.7279 177.939C53.9295 177.809 54.1313 177.681 54.333 177.551C54.2356 177.388 54.5004 177.131 54.484 177.036C54.4705 176.955 54.3085 176.909 54.2996 176.821C54.2888 176.731 54.4605 176.578 54.4316 176.405C54.3851 176.125 53.9636 176.074 53.9077 175.908C53.8497 175.727 54.0744 175.458 53.9231 175.225C53.8764 175.198 53.8297 175.171 53.783 175.144C53.6787 175.165 53.5743 175.187 53.4699 175.208C53.4196 175.098 53.6334 175.046 53.6358 174.941C53.6388 174.817 53.4345 174.752 53.4343 174.673C53.4343 174.607 53.5961 174.514 53.5847 174.425C53.5689 174.295 53.3338 174.326 53.2888 174.256C53.2713 174.233 53.1345 173.724 53.1323 173.693C53.1202 173.48 53.4422 173.456 53.468 173.279C53.5385 172.795 53.2719 172.31 53.1677 171.853C53.1212 171.66 53.1374 171.453 53.1864 171.249C54.0151 171.555 54.6484 170.85 53.361 171.124C53.5419 170.906 53.1916 170.754 53.2479 170.539C53.2846 170.397 53.4625 170.309 53.4554 170.116C53.4418 169.771 52.9286 169.4 53.8468 169.292C53.6799 168.888 54.0093 168.537 53.196 168.402C53.149 168.307 53.5553 168.064 53.6681 167.932C53.6775 167.922 53.6848 167.912 53.6897 167.903C53.7504 167.802 53.9586 166.935 53.9693 166.807C53.9799 166.67 53.9904 166.427 53.9178 166.31C53.828 166.163 52.9851 166.067 53.9663 165.799C53.8832 165.499 53.9101 165.389 54.0212 165.102C54.0413 165.049 54.1873 165.042 54.1871 165.013C54.1864 164.952 54.0773 164.85 54.0629 164.741C54.0393 164.562 54.3456 164.455 53.8762 164.481C53.7961 164.362 53.716 164.243 53.6359 164.124C53.7261 164.081 53.8162 164.036 53.9064 163.994C53.8069 163.933 53.7074 163.871 53.608 163.809C54.2883 163.876 53.8823 163.435 53.494 163.584C53.632 163.353 53.77 163.116 53.9079 162.884C54.6806 162.908 53.9914 162.38 53.572 162.429C53.5723 162.403 53.5727 162.376 53.573 162.35C53.7757 162.117 53.6053 161.9 53.74 161.622C53.8747 161.34 53.9502 161.365 54.3045 161.276C54.2834 161.209 54.2623 161.143 54.2412 161.077C53.2635 160.738 54.9502 160.781 54.1967 160.196C54.8066 160 54.4799 159.529 54.2909 159.223C54.269 159.188 54.1501 159.188 54.113 159.141C54.0236 159.024 54.173 158.721 53.7899 158.736C53.8996 158.63 54.0094 158.524 54.1191 158.418C54.0485 158.334 53.9779 158.25 53.9073 158.166C53.7876 158.168 53.668 158.17 53.5484 158.171C53.9542 157.997 53.7946 157.729 53.8906 157.595C53.9101 157.568 54.075 157.561 54.1192 157.478C54.1715 157.381 54.1207 157.201 54.171 157.087C53.9878 157.045 53.8045 157.003 53.6212 156.96C53.5199 156.757 54.0015 156.68 54.0377 156.56C54.044 156.538 54.005 156.143 53.9945 156.121C53.9109 155.947 53.5005 156.002 53.583 155.498C53.598 155.409 53.7394 155.335 53.7443 155.253C53.753 155.11 53.4257 154.681 53.1273 154.651C53.4985 154.474 53.341 154.011 53.4473 153.873C53.48 153.831 53.7175 153.819 53.7667 153.691C53.8068 153.587 53.6137 153.325 53.6441 153.195C53.6773 153.056 53.8764 153.004 53.8898 152.942C53.9023 152.883 53.7406 152.831 53.7407 152.751C53.7436 152.501 54.0005 152.272 54.0032 152.075C54.0076 151.79 53.5278 151.543 53.3134 151.307C53.3437 151.247 53.4455 151.188 53.4458 151.126C53.4525 150.358 53.5311 149.49 53.6251 148.719C53.6681 148.36 54.3063 147.465 53.2282 147.713C53.0377 147.593 53.4637 146.681 53.4684 146.511C53.4731 146.339 53.2779 146.206 53.2736 146.07C53.2608 145.661 53.3974 145.374 53.2234 144.88C53.1779 144.752 52.9469 144.616 52.9488 144.54C52.9516 144.449 53.1725 144.348 53.1854 144.23C53.2143 143.95 53.1356 143.421 53.1712 143.15C53.1782 143.101 53.3729 143.082 53.4331 143.01C53.6683 142.734 53.6443 142.425 53.0226 142.486C53.3721 142.127 53.0464 141.805 53.0232 141.481C52.9755 140.783 53.1076 139.529 52.8397 138.926C52.6707 138.545 52.3917 138.564 52.6267 138C52.6788 137.874 52.7495 137.749 52.8117 137.598C52.958 137.246 53.4702 136.915 52.846 136.651C53.003 136.26 52.8855 135.948 53.4138 135.65C53.286 135.617 53.1582 135.584 53.0303 135.551C53.0267 135.503 53.023 135.455 53.0194 135.408C53.1408 135.392 53.2622 135.376 53.3836 135.36C53.4128 135.022 52.9084 134.576 52.9091 134.294C52.9094 133.915 53.0149 133.088 53.1357 132.524C53.1731 132.34 53.212 132.185 53.2496 132.075C53.3342 131.829 53.0738 131.826 53.6074 131.676C53.5696 131.62 53.5318 131.564 53.494 131.509C53.3764 131.475 53.2589 131.441 53.1413 131.408C53.1334 131.098 53.3114 130.712 53.3064 130.419C53.2969 129.865 52.9658 129.05 53.1719 128.502C53.2238 128.358 53.4637 128.183 53.4596 128.053C53.4538 127.856 53.0522 127.805 53.0421 127.564C53.0254 127.129 53.483 126.33 53.4431 125.92C53.4314 125.796 53.2817 125.749 53.2649 125.663C53.1928 125.316 53.202 125.028 52.9679 124.693C53.3485 124.333 53.8448 124.356 54.3442 124.24C54.7211 124.152 55.5938 123.882 55.9245 123.848C56.1567 123.825 56.4565 123.907 56.7121 123.872C56.9207 124.294 56.6978 124.485 56.3414 124.834C56.3625 125.478 56.3837 126.134 56.4047 126.772C56.2656 126.831 56.1266 126.892 55.9876 126.953C55.9873 126.953 55.987 126.953 55.9867 126.953C55.8281 127.209 56.1888 127.3 56.2719 127.439C57.0368 128.669 56.5241 131.039 56.4189 132.49C56.4147 132.545 56.4111 132.599 56.4083 132.652C56.3927 132.953 56.5913 133.938 56.3667 134.157C56.3083 134.214 56.093 134.229 56.0843 134.286C56.2176 134.79 56.3512 135.309 56.4846 135.82C56.161 136.876 56.449 137.974 56.5117 139.033C56.6817 141.91 56.8816 144.758 56.8603 147.592C56.8558 148.138 57.0246 148.832 56.9263 149.368C56.8855 149.592 56.5407 149.69 56.8016 149.981C56.7084 149.985 56.6153 149.989 56.5222 149.993C56.6374 150.248 56.8512 150.409 56.8758 150.696C56.8962 150.938 56.9169 151.579 56.8836 151.793C56.867 151.904 56.6925 151.865 56.6944 151.968C56.6992 152.145 56.9439 152.521 56.9466 152.765C56.949 152.987 56.7524 153.362 56.7833 153.531C56.8931 154.145 57.1976 154.806 57.125 155.462C57.1044 155.642 56.8812 155.876 56.8881 155.932C56.9024 156.042 57.1221 156.073 57.1511 156.147C57.2977 156.525 57.0434 157.108 57.0372 157.481C57.0165 158.68 57.1263 159.959 57.0993 161.156C57.0823 161.904 57.1351 163.174 56.978 163.867C56.944 164.016 56.7034 163.98 56.7048 164.108C56.7065 164.25 56.8696 164.324 56.8835 164.39C56.9804 164.84 57.1559 165.838 56.995 166.271C56.9641 166.354 56.7765 166.415 56.7778 166.464C56.7781 166.489 56.9072 166.543 56.9212 166.62C57.0072 167.082 57.0005 167.491 56.976 167.893C56.9653 168.082 56.9512 168.273 56.9401 168.477C56.8718 169.757 57.1289 171.252 57.0169 172.599C56.9927 172.899 56.6228 173.092 56.6272 173.139C56.6359 173.232 56.8871 173.289 56.9514 173.47C57.1628 174.079 56.9068 174.905 57.0408 175.483C57.1068 175.766 57.4306 176.163 57.5053 176.437C57.565 176.667 57.4489 177.193 57.5902 177.295C57.6756 177.354 57.9468 177.373 57.982 177.448ZM53.662 169.907C54.0955 169.943 53.7304 169.516 53.4999 169.681C53.448 169.718 53.5494 169.898 53.662 169.907ZM54.193 150.09C54.0694 150.095 53.9457 150.1 53.8221 150.106C53.8742 150.161 53.9262 150.216 53.9783 150.27C54.0523 150.238 54.1263 150.206 54.2004 150.174C54.1979 150.146 54.1955 150.118 54.193 150.09Z" fill="#C9A16C"/>
<path d="M133.396 182.089C133.41 182.17 133.23 182.243 133.203 182.329C133.088 182.693 132.947 182.809 132.803 183.142C132.647 183.588 132.174 185.473 131.128 184.941C131.128 184.941 131.128 184.941 131.128 184.941C131.118 184.936 131.108 184.931 131.098 184.926C130.909 184.825 130.757 184.6 130.544 184.482C130.33 184.364 128.907 183.712 128.876 183.562C128.844 183.359 129.378 183.019 129.394 182.888C129.404 182.806 129.293 182.672 129.295 182.564C129.3 182.216 129.442 182.054 129.132 181.66C129.358 181.578 129.585 181.49 129.811 181.403C129.753 181.215 130.067 181.01 130.073 180.902C130.077 180.834 129.986 180.77 129.952 180.7L129.949 180.713C129.94 180.694 129.934 180.675 129.936 180.655C129.946 180.552 130.145 180.429 130.152 180.24C130.165 179.932 129.761 179.804 129.741 179.614C129.72 179.418 129.997 179.167 129.893 178.903C129.853 178.865 129.813 178.827 129.773 178.79C129.666 178.793 129.559 178.796 129.452 178.799C129.425 178.671 129.646 178.656 129.669 178.547C129.696 178.418 129.508 178.317 129.524 178.23C129.537 178.159 129.715 178.09 129.721 177.996C129.73 177.859 129.493 177.848 129.462 177.768C129.451 177.735 129.415 177.179 129.418 177.148C129.448 176.918 129.769 176.951 129.828 176.773C129.989 176.276 129.818 175.713 129.797 175.228C129.787 175.01 129.84 174.796 129.925 174.593C130.687 175.054 131.437 174.421 130.119 174.493C130.336 174.292 130.019 174.066 130.111 173.858C130.171 173.722 130.364 173.645 130.39 173.443C130.437 173.077 129.993 172.608 130.918 172.637C130.821 172.189 131.206 171.865 130.425 171.593C130.393 171.474 130.912 171.265 130.995 171.149C131.074 171.038 131.418 170.172 131.45 170.028C131.483 169.882 131.533 169.624 131.479 169.493C131.413 169.326 130.596 169.096 131.609 168.957C131.574 168.628 131.619 168.506 131.772 168.228C131.8 168.177 131.946 168.191 131.95 168.159C131.959 168.094 131.867 167.968 131.871 167.848C131.876 167.649 132.195 167.586 131.726 167.543C131.665 167.407 131.605 167.27 131.544 167.132C131.64 167.099 131.736 167.066 131.831 167.033C131.743 166.951 131.654 166.873 131.565 166.792C132.228 166.962 131.894 166.433 131.487 166.536C131.659 166.307 131.831 166.082 132.003 165.855C132.764 165.992 132.163 165.322 131.74 165.319C131.744 165.291 131.749 165.263 131.753 165.236C131.988 165.021 131.853 164.762 132.028 164.486C132.203 164.206 132.275 164.242 132.639 164.197C132.628 164.123 132.617 164.049 132.606 163.975C131.688 163.478 133.351 163.768 132.693 163.029C132.707 163.026 132.72 163.023 132.732 163.02L132.731 163.03C133.312 162.895 133.062 162.356 132.919 162.017C132.902 161.976 132.785 161.961 132.754 161.905C132.682 161.769 132.872 161.461 132.49 161.429C132.614 161.332 132.737 161.235 132.86 161.136C132.802 161.036 132.744 160.936 132.686 160.836C132.567 160.822 132.448 160.808 132.329 160.794C132.756 160.659 132.634 160.357 132.748 160.224C132.771 160.198 132.936 160.212 132.991 160.128C133.057 160.029 133.031 159.836 133.097 159.72C132.921 159.651 132.745 159.582 132.569 159.512C132.497 159.282 132.986 159.259 133.038 159.135C133.047 159.114 133.063 158.69 133.056 158.665C132.997 158.471 132.584 158.467 132.735 157.945C132.762 157.852 132.913 157.791 132.929 157.705C132.958 157.55 132.692 157.053 132.401 156.982C132.793 156.841 132.702 156.323 132.826 156.192C132.864 156.152 133.101 156.17 133.168 156.041C133.222 155.936 133.067 155.626 133.115 155.492C133.167 155.349 133.372 155.32 133.394 155.256C133.414 155.195 133.261 155.118 133.272 155.032C133.31 154.765 133.596 154.555 133.626 154.345C133.67 154.042 133.228 153.713 133.048 153.435C133.086 153.376 133.195 153.326 133.204 153.26C133.317 152.438 133.514 151.526 133.712 150.713C133.804 150.337 134.559 149.461 133.456 149.589C133.284 149.434 133.829 148.519 133.857 148.336C133.885 148.153 133.709 147.986 133.723 147.841C133.766 147.404 133.94 147.115 133.833 146.564C133.805 146.422 133.594 146.249 133.606 146.169C133.621 146.072 133.853 145.992 133.882 145.867C133.948 145.568 133.94 145.001 134.011 144.714C134.024 144.662 134.22 144.665 134.289 144.596C134.559 144.329 134.576 143.998 133.951 143.986C134.345 143.647 134.063 143.264 134.083 142.913C134.125 142.17 134.418 140.837 134.226 140.17C134.106 139.743 133.827 139.729 134.13 139.156C134.197 139.029 134.283 138.904 134.363 138.751C134.551 138.397 135.1 138.093 134.511 137.749C134.715 137.343 134.634 137.007 135.194 136.745C135.071 136.696 134.947 136.646 134.824 136.597C134.826 136.545 134.828 136.494 134.83 136.442C134.953 136.438 135.075 136.434 135.198 136.43C135.266 136.075 134.814 135.551 134.846 135.246C134.862 135.092 134.901 134.871 134.951 134.63C135.076 134.014 135.276 133.258 135.423 132.916C135.534 132.657 135.275 132.621 135.822 132.52C135.79 132.458 135.758 132.398 135.726 132.336C135.613 132.288 135.499 132.24 135.386 132.192C135.411 131.85 135.628 131.468 135.654 131.146C135.701 130.557 135.455 129.652 135.714 129.082C135.78 128.935 136.035 128.784 136.045 128.631C136.059 128.415 135.662 128.346 135.677 128.069C135.702 127.609 136.233 126.792 136.229 126.358C136.229 126.224 136.084 126.155 136.074 126.069C136.033 125.693 136.066 125.386 135.858 125.021C136.264 124.676 136.757 124.726 137.263 124.641C137.645 124.569 138.532 124.345 138.863 124.267C139.096 124.223 139.392 124.394 139.649 124.342C139.833 124.897 139.594 125.061 139.211 125.422C139.179 126.129 139.141 126.829 139.101 127.527C138.957 127.58 138.813 127.638 138.669 127.686C138.668 127.686 138.668 127.686 138.668 127.686C138.486 127.935 138.835 128.086 138.905 128.232C139.575 129.685 138.729 132.345 138.505 133.848C138.474 134.061 138.5 134.541 138.461 134.949C138.438 135.181 138.393 135.382 138.3 135.46C138.236 135.513 138.02 135.509 138.005 135.571C138.081 136.132 138.154 136.697 138.226 137.268C137.779 138.37 137.931 139.57 137.859 140.719C137.664 143.821 137.481 146.897 137.075 149.923C136.996 150.508 137.069 151.27 136.897 151.832C136.826 152.066 136.471 152.124 136.69 152.47C136.597 152.462 136.504 152.455 136.411 152.447C136.49 152.735 136.68 152.934 136.665 153.244C136.651 153.508 136.584 154.19 136.521 154.418C136.489 154.535 136.322 154.47 136.309 154.58C136.29 154.77 136.48 155.202 136.449 155.465C136.421 155.702 136.174 156.075 136.181 156.262C136.205 156.929 136.415 157.675 136.252 158.369C136.206 158.558 135.952 158.778 135.951 158.841C135.95 158.961 136.163 159.023 136.182 159.105C136.276 159.521 135.941 160.121 135.884 160.514C135.748 161.44 135.675 162.416 135.573 163.367L135.571 163.386C135.527 163.758 135.482 164.104 135.424 164.463C135.294 165.265 135.155 166.617 134.89 167.344C134.833 167.498 134.601 167.426 134.582 167.562C134.562 167.713 134.712 167.816 134.716 167.887C134.741 168.387 134.757 169.473 134.527 169.915C134.484 169.998 134.289 170.034 134.282 170.085C134.279 170.111 134.397 170.19 134.398 170.276C134.41 171.022 134.259 171.552 134.11 172.264C133.826 173.629 133.817 175.258 133.449 176.686C133.369 176.995 132.965 177.151 132.962 177.195C132.953 177.293 133.189 177.397 133.217 177.604C133.307 178.292 132.89 179.126 132.902 179.767C132.909 180.084 133.146 180.56 133.16 180.874C133.165 180.977 133.13 181.131 133.094 181.286L133.09 181.307C133.037 181.529 132.983 181.755 133.05 181.834C133.12 181.918 133.379 182.001 133.396 182.089ZM130.63 173.257C131.052 173.364 130.764 172.863 130.509 172.996C130.451 173.024 130.521 173.229 130.63 173.257ZM134.088 152.25C133.965 152.24 133.841 152.229 133.718 152.219C133.762 152.284 133.806 152.35 133.85 152.415C133.928 152.391 134.006 152.366 134.084 152.341C134.085 152.311 134.086 152.281 134.088 152.25Z" fill="#C9A16C"/>
<defs>
<linearGradient id="paint0_linear_4055_173" x1="98.1117" y1="11" x2="98.1117" y2="187.266" gradientUnits="userSpaceOnUse">
<stop stop-color="#FFE8C9"/>
<stop offset="0.495192" stop-color="#FFEDAE"/>
<stop offset="1" stop-color="#FBC579"/>
</linearGradient>
</defs>
</svg>
