<svg width="195" height="200" viewBox="0 0 195 200" fill="none" xmlns="http://www.w3.org/2000/svg">
<path d="M131.706 47.8618C129.047 39.9953 128.797 35.0091 128.771 32.9236C128.283 31.4006 128.105 29.8186 127.847 29.3857C127.589 28.9528 127.303 28.5854 126.952 28.1812C125.343 26.5222 122.885 25.7434 120.017 24.147C118.053 23.0533 112.669 17.9788 105.628 18.0089C98.6193 18.0389 93.7241 18.5027 91.8918 18.8771C88.7853 19.5119 84.2593 20.304 78.0858 24.1497C73.9959 26.6975 68.2013 30.6614 64.5901 33.7729C59.1108 38.494 55.0462 41.1648 52.2576 44.0286C47.9647 48.4373 45.2996 53.1567 40.8421 57.572C37.1527 61.2264 32.1769 66.684 27.4866 74.0647C25.1397 77.7576 23.1007 81.5066 21.4262 85.4495C19.7518 89.3923 18.3813 93.3817 17.8085 95.7979C17.0656 98.932 16.162 101.985 15.0251 107.113L14.9825 107.305C13.6687 113.23 12.8384 116.974 13.0265 120.882C13.4861 130.427 14.5474 138.078 15.1447 141.614C15.8603 145.85 16.6371 151.149 18.5792 155.474C20.2131 159.112 20.1457 161.792 21.0265 164.495C22.2486 168.245 24.57 173.156 27.5231 175.665C28.7059 176.67 31.1479 177.714 35.1474 178.066C39.857 178.479 44.1061 179.203 53.617 179.317C61.4354 179.41 74.9765 179.317 82.0984 179.212C89.2202 179.106 89.9016 178.958 92.9313 178.912C101.178 178.789 106.798 178.277 109.894 177.907C117.224 177.032 122.927 176.642 125.138 176.316C127.931 175.904 133.546 173.728 140.25 172.326C143.474 171.652 144.951 171.717 148.266 170.665C155.643 168.324 160.856 166.91 163.285 166.217C168.558 164.711 172.742 163.7 173.596 162.775C174.308 162.004 175.732 155.592 178.52 143.651C179.961 137.483 181.558 131.137 182.392 122.358C183.226 113.579 183.295 102.697 183.3 94.1347C183.306 85.5724 183.464 79.5027 183.196 76.2574C182.801 71.4717 181.837 66.5362 178.8 64.8956C175.512 63.1195 166.409 60.3988 158.359 59.916C156.38 59.7974 153.454 60.14 148.914 59.4201C140.962 58.1594 137.067 58.9065 136.043 56.9712C134.952 54.9097 133.471 53.087 131.706 47.8618Z" fill="url(#paint0_linear_4055_149)" stroke="#C9A16C" stroke-width="5" stroke-linecap="round"/>
<path d="M181.806 89.6122C181.782 89.2519 181.953 88.7584 181.969 88.3353C182.038 86.5752 182.162 85.9281 182.255 84.3366C182.391 81.977 182.304 74.9685 183.43 74.9885C183.43 74.9885 183.43 74.9885 183.43 74.9885C183.441 74.9887 183.452 74.9896 183.463 74.9911C183.678 75.0196 183.901 75.6199 184.142 75.7126C184.383 75.8054 185.952 75.7663 186.025 76.6149C186.119 77.8444 185.664 80.7791 185.67 81.435C185.675 81.8805 185.807 82.4371 185.822 83.008C185.871 84.8549 185.749 85.8169 186.107 87.4863C185.891 88.1477 185.675 88.8099 185.459 89.4691C185.538 90.3392 185.246 91.648 185.251 92.1757C185.256 92.6043 185.413 92.8672 185.412 93.3144C185.412 93.821 185.225 94.595 185.235 95.5124C185.25 97.0183 185.666 97.2996 185.703 98.1997C185.742 99.1392 185.488 100.591 185.615 101.793C185.658 101.944 185.702 102.095 185.745 102.245C185.852 102.14 185.959 102.035 186.065 101.929C186.103 102.528 185.884 102.789 185.871 103.34C185.854 103.991 186.052 104.33 186.043 104.765C186.036 105.118 185.873 105.59 185.867 106.039C185.867 106.05 185.867 106.061 185.867 106.073C185.869 106.759 186.107 106.605 186.145 106.976C186.16 107.121 186.241 109.821 186.239 109.976C186.224 111.139 185.899 111.232 185.846 112.162C185.708 114.734 185.794 117.467 185.639 119.863C185.638 119.888 185.636 119.914 185.634 119.94C185.57 120.965 185.444 122.04 185.282 123.068C184.641 121.321 183.604 124.921 185.037 123.691C184.724 124.846 184.97 125.723 184.764 126.838C184.63 127.557 184.385 128.032 184.235 129.065C183.974 130.895 184.098 132.995 183.091 133.342C182.834 135.512 182.064 137.261 182.656 138.225C182.648 138.27 182.636 138.319 182.62 138.373C182.438 138.978 181.732 140.071 181.534 140.608C181.329 141.161 180.019 145.453 179.826 146.161C179.631 146.876 179.302 148.11 179.215 148.733C179.106 149.506 179.787 150.243 178.479 151.341C178.141 152.92 177.962 153.474 177.442 154.894C177.347 155.15 177.199 155.136 177.155 155.289C177.061 155.613 177.01 156.174 176.85 156.744C176.587 157.682 176.118 158.114 176.599 158.157C176.475 158.789 176.335 159.439 176.178 160.083C176.01 160.275 175.847 160.444 175.672 160.637C175.633 161.001 175.58 161.378 175.518 161.751C175.297 161.414 175.023 161.865 174.842 162.344C174.667 162.816 174.569 163.33 174.977 163.038C174.531 163.616 174.085 164.273 173.051 164.833C172.385 165.131 171.733 165.35 171.09 165.538C170.966 164.789 168.45 166.42 168.802 166.724C168.664 166.769 168.529 166.812 168.389 166.856C167.129 167.041 166.078 167.52 164.584 167.783C163.095 168.04 163.208 167.927 162.68 167.698C162.343 167.806 162.01 167.912 161.668 168.019C161.121 168.512 160.753 168.615 160.375 168.61C159.696 168.596 158.999 168.22 157.123 169.16C156.001 168.797 153.647 169.671 152.083 170.214C151.9 170.278 151.924 170.394 151.681 170.487C151.094 170.71 149.5 170.91 149.639 171.271C149.075 171.284 148.514 171.295 147.95 171.306C147.526 171.471 147.099 171.637 146.674 171.802C146.702 171.918 146.73 172.035 146.758 172.151C145.784 171.948 144.421 172.407 143.714 172.461C143.574 172.472 143.507 172.317 143.074 172.366C142.565 172.422 141.649 172.671 141.046 172.748C140.854 172.977 140.662 173.206 140.47 173.434C139.432 173.76 138.957 173.368 138.327 173.466C138.214 173.484 136.177 173.957 136.069 173.99C135.184 174.263 135.526 174.611 132.899 175.082C132.431 175.165 132.025 175.106 131.605 175.19C131.603 175.19 131.602 175.19 131.601 175.191C130.853 175.341 128.692 176.129 128.578 176.457C127.602 176.284 125.223 176.942 124.491 176.985C124.269 176.998 124.175 176.775 123.504 176.864C122.964 176.935 121.624 177.409 120.941 177.517C120.214 177.632 119.917 177.49 119.592 177.542C119.286 177.592 119.036 177.808 118.621 177.892C117.323 178.152 116.097 178.135 115.07 178.335C113.587 178.624 112.365 179.349 111.159 179.796C110.844 179.825 110.52 179.782 110.196 179.843C108.195 180.214 106.058 180.577 103.909 180.896C101.738 181.22 99.5457 181.494 97.4647 181.663C95.5331 181.862 90.7352 181.43 92.0542 182.448C91.3868 182.692 86.5309 182.331 85.6143 182.302C84.7067 182.292 83.9635 182.477 83.2534 182.471C81.9107 182.457 80.8162 182.383 79.5477 182.353C78.7775 182.334 77.9259 182.331 76.9181 182.366C76.2372 182.39 75.5016 182.597 75.0974 182.581C74.6042 182.562 74.1029 182.323 73.4669 182.287C71.9699 182.205 69.1811 182.173 67.7455 182.075C67.484 182.057 67.4 181.859 67.0268 181.782C65.5782 181.484 63.9413 181.432 64.2032 182.067C62.348 181.632 60.6035 181.873 58.8685 181.808C55.2038 181.674 48.5294 181.159 45.3236 181.209C43.295 181.242 43.3345 181.53 40.3697 181.071C39.948 181.004 39.4916 180.926 39.0334 180.845C38.7847 180.803 38.5305 180.76 38.267 180.717C36.3866 180.411 34.7383 179.737 33.2075 180.18C31.0971 179.714 29.3904 179.772 27.547 178.256C27.2448 178.228 26.915 178.15 26.6077 178.049C26.4508 177.914 26.3179 177.783 26.2104 177.674C26.1058 177.568 26.0007 177.458 25.9008 177.349C25.9292 177.199 25.9594 177.05 25.9931 176.904C24.6716 175.348 23.0419 173.489 22.2863 172.078C21.6422 170.887 20.6276 168.734 19.6989 166.595C18.788 164.514 17.9003 162.405 17.4754 161.245C17.0188 160.004 16.7539 160.037 16.9486 159.131C16.7996 158.874 16.65 158.613 16.5031 158.355C16.3243 158.229 16.1454 158.101 15.9666 157.972C15.3179 156.391 14.7888 154.418 14.2939 152.859C13.3528 150.043 12.0479 145.666 11.996 142.605C11.9714 141.841 12.1441 140.88 12.1099 140.142C12.1056 140.053 12.0991 139.969 12.0908 139.89C11.9991 139.035 11.6492 138.741 11.5979 137.528C11.5001 135.242 11.8303 130.989 11.7389 128.832C11.7112 128.188 11.5547 127.906 11.5274 127.454C11.4126 125.607 11.3913 124.078 11.1292 122.303C11.4813 120.387 11.9822 120.547 12.4744 119.944C12.8457 119.498 13.7083 118.105 14.0397 117.918C14.2715 117.779 14.5731 118.295 14.8279 118.094C15.0499 120.353 14.844 121.319 14.5176 123.173C14.5977 126.589 14.7044 130.004 14.8291 133.421C14.6998 133.744 14.5701 134.049 14.441 134.367C14.4407 134.367 14.4403 134.367 14.44 134.367C14.323 135.687 14.7025 136.229 14.8094 136.935C14.9384 137.785 15.0498 138.73 15.1483 139.772C15.5318 146.716 18.8353 156.977 21.6864 162.859C21.9074 163.346 22.323 164.185 22.7904 165.134C23.7134 167.025 24.8783 169.276 25.087 169.979C25.1654 170.253 25.0129 170.425 25.1457 170.691C26.1902 172.408 27.3087 174.1 28.6298 175.34C28.8403 175.534 28.9322 175.585 29.1032 175.665C29.27 175.74 29.5046 175.815 29.7674 175.879C32.5093 176.798 36.0492 176.993 39.3214 177.226C41.6504 177.371 44.0088 177.47 46.3204 177.595C57.4928 178.177 68.6133 178.577 79.6329 178.831C83.6101 178.911 87.5646 178.968 91.4679 178.835C94.3214 178.752 97.8669 178.255 100.643 177.937C101.681 177.823 102.217 178.022 103.38 177.704C103.517 177.667 103.663 177.621 103.82 177.567C103.852 177.656 103.883 177.746 103.915 177.835C105.23 177.498 106.036 177.141 107.524 176.847C108.774 176.604 112.088 175.953 113.204 175.766C113.782 175.67 113.6 175.884 114.138 175.776C115.055 175.591 116.965 174.96 118.231 174.7C119.376 174.465 121.351 174.26 122.225 174.048C124.983 173.379 127.924 172.511 130.894 171.874C131.318 171.782 131.744 171.696 132.169 171.615C133.108 171.438 134.356 171.402 134.647 171.333C135.215 171.198 135.339 170.947 135.717 170.838C137.636 170.281 140.727 169.881 142.636 169.475C148.217 168.287 154.074 166.92 159.628 165.574C160.271 165.418 160.903 165.263 161.53 165.107C164.296 164.391 168.674 163.323 171.371 161.913C171.364 161.96 171.741 161.569 171.969 161.176C172.219 160.773 172.448 160.323 172.646 159.915C172.961 159.25 173.11 159.519 173.338 158.916C173.583 158.251 173.552 157.826 173.648 157.498C174.32 155.268 175.511 150.135 176.231 147.983C176.371 147.567 176.628 147.319 176.692 147.067C176.724 146.943 176.676 146.614 176.762 146.221C177.487 142.94 178.15 140.523 178.982 137.444C179.047 137.2 179.112 136.955 179.177 136.703C180.548 131.491 181.206 125.443 181.773 119.545C181.921 118.125 182.052 116.736 182.155 115.37C182.27 113.848 182.667 112.8 182.672 112.581C182.679 112.102 182.438 111.792 182.398 110.822C182.339 109.37 182.371 107.675 182.422 105.979C182.482 103.92 182.568 101.836 182.529 100.149C182.494 98.6242 182.214 96.5258 182.17 95.0301C182.135 93.8341 182.31 91.0086 182.18 90.4766C182.101 90.1514 181.833 90.0003 181.806 89.6122ZM183.857 130.131C183.469 129.85 183.443 132.149 183.816 131.348C183.901 131.168 183.96 130.205 183.857 130.131ZM104.681 180.068C104.722 180.187 104.763 180.305 104.804 180.424C105.087 180.323 105.37 180.222 105.651 180.121C105.474 180.076 105.301 180.031 105.124 179.986C104.975 180.014 104.828 180.041 104.681 180.068Z" fill="#C9A16C"/>
<path d="M18.6767 102.745C18.5056 103.286 18.0758 103.974 17.8349 104.601C16.833 107.213 16.3778 108.146 15.4803 110.514C15.3162 110.948 15.1125 111.515 14.8948 112.137C14.5324 113.177 14.1173 114.4 13.7195 115.668C13.5247 116.292 13.3309 116.938 13.1869 117.517C13.1156 117.802 13.0583 118.082 13.0364 118.245C13.0239 118.323 13.0275 118.369 13.0131 118.296C13.0132 118.24 12.8882 117.955 12.8754 117.968C12.8736 117.983 12.825 117.974 12.8926 118.034C12.9555 118.09 13.1181 118.168 13.3175 118.23C14.6554 118.58 16.2198 118.711 16.1704 119.12C16.1704 119.12 16.1704 119.12 16.1704 119.12C16.1704 119.131 16.1693 119.142 16.1671 119.154C16.1257 119.369 15.1829 119.601 15.04 119.84C14.8817 120.069 15.0305 121.686 13.5033 121.664C13.2653 121.653 12.9863 121.627 12.6569 121.564C11.9481 121.432 10.6798 121.032 9.96431 119.839C9.85119 119.662 9.69502 119.331 9.63766 119.048C9.5748 118.763 9.56918 118.529 9.57465 118.326C9.5897 117.928 9.65088 117.622 9.71293 117.335C9.8414 116.765 9.99773 116.276 10.1418 115.834C10.4348 114.949 10.6921 114.267 10.7892 113.934C10.9939 113.24 11.1382 112.341 11.4074 111.464C11.4551 111.309 11.5034 111.154 11.5521 111C12.3557 108.468 12.939 107.056 13.4579 104.563C14.0159 103.63 14.5774 102.701 15.1427 101.773C15.5407 100.437 16.5465 98.5612 16.8382 97.7703C17.0768 97.1207 17.0746 96.6824 17.3316 96.0071C17.6193 95.2492 18.2388 94.1553 18.7675 92.7788C19.6382 90.5235 19.4193 89.9657 19.9334 88.6035C20.4202 87.3185 21.4101 85.4891 22.0859 83.8058C22.1529 83.6387 22.2165 83.4737 22.2759 83.3113C22.3338 83.0725 22.3919 82.8341 22.4519 82.5932C22.2841 82.7074 22.1157 82.8236 21.9491 82.9365C22.311 82.0285 22.6821 81.74 23.0671 80.9325C23.5204 79.9859 23.5748 79.4086 23.8853 78.7752C24.1437 78.2491 24.6369 77.6211 24.9692 76.9418C25.4542 75.9555 25.1344 76.0674 25.3683 75.5168C25.4479 75.2925 27.4015 71.3806 27.5349 71.1701C28.4474 69.527 28.8112 69.5482 29.5913 68.2733C30.4155 66.9339 31.2327 65.5638 32.0364 64.2163C33.3314 62.0232 34.7468 59.7193 36.3393 57.8237C37.4579 56.4681 38.6988 55.2072 39.916 54.0347C39.9306 54.0207 39.9452 54.0067 39.9598 53.9926C39.9499 54.012 39.9403 54.031 39.9312 54.0496C39.4403 55.0367 39.9295 54.9723 40.4979 54.6049C41.2895 54.0962 42.2448 52.9982 40.8099 53.3806C42.2719 52.1668 42.9789 50.9804 44.3102 49.7747C45.1722 48.9974 45.8758 48.5704 47.0805 47.4366C49.2152 45.4214 51.2957 42.909 52.5402 43.0496C55.0344 40.6597 57.5728 39.0475 58.0503 37.6385C58.1828 37.5214 58.3711 37.387 58.5949 37.243C59.5028 36.6566 60.994 35.9254 61.6669 35.4893C62.4409 34.9417 68.4563 30.9302 69.4585 30.3087C70.4405 29.6562 72.1748 28.5266 72.9704 27.9294C73.9718 27.1786 74.2607 25.9879 76.674 25.6502C78.0671 24.731 78.9046 24.2235 79.8886 23.6812C80.4297 23.3839 81.0086 23.074 81.7627 22.6712C82.143 22.4683 82.263 22.5668 82.4799 22.4378C82.9281 22.1711 83.6375 21.6222 84.4486 21.1406C85.7828 20.3481 86.7285 20.2109 86.3523 19.8761C87.2327 19.3215 88.1419 18.7881 89.0917 18.2976C89.4716 18.2342 89.8515 18.1782 90.2323 18.13C90.7281 17.8354 91.2381 17.5544 91.7635 17.2906C91.3012 18.0806 95.1034 16.7435 93.7544 16.6624C95.8641 16.3605 97.9974 16.3808 100.051 16.6642C99.7929 17.2233 102.613 17.2254 103.743 17.138C104.054 17.0986 104.231 17.0269 104.165 16.9186C104.386 16.9644 104.607 17.0105 104.827 17.0569C106.722 17.6636 108.533 17.8928 110.844 18.6251C113.152 19.3716 112.906 19.402 113.517 19.9422C114.067 20.0803 114.618 20.2247 115.168 20.3756C118.329 20.4453 117.291 21.5886 122.293 23.2077C122.973 24.0594 124.718 24.8547 125.888 26.825C126.51 28.0027 126.993 29.2419 127.323 30.3064C127.417 30.6166 127.534 30.5919 127.657 31.0097C128 32.0248 128.042 34.7158 128.394 34.6147C128.315 35.5594 128.179 36.4909 127.989 37.4036C127.994 38.1606 127.961 38.9288 127.893 39.689C128.011 39.7067 128.129 39.7244 128.248 39.742C127.595 41.199 127.034 43.5287 126.48 44.5924C126.371 44.8076 126.209 44.787 125.875 45.4375C125.74 45.6964 125.582 46.0277 125.397 46.3988C125.053 47.095 124.64 47.8899 124.295 48.4414C124.267 48.8675 124.236 49.2918 124.201 49.7167C123.39 51.2998 122.644 51.5646 122.066 52.4143C121.969 52.5746 120.152 55.4115 120.054 55.562C119.291 56.8345 119.876 56.7323 117.369 60.1984C116.922 60.8142 116.454 61.2371 116.057 61.797C115.91 62.0047 115.713 62.3094 115.495 62.6641C115.296 62.991 115.08 63.361 114.93 63.6875C114.857 63.8468 114.801 64.0042 114.802 64.0668C114.802 64.0949 114.821 64.0997 114.848 64.0138C114.871 63.9343 114.911 63.7158 114.804 63.4099C114.699 63.1023 114.459 62.8665 114.339 62.7801C114.211 62.6845 114.158 62.6604 114.141 62.6395C114.11 62.6035 114.189 62.5918 114.259 62.5674C114.411 62.5224 114.567 62.4614 114.605 62.4027C114.734 62.4446 114.892 62.4759 115.092 62.4951C116.651 62.6556 119.84 62.0429 120.848 61.9794C121.197 61.9574 121.311 62.181 122.376 62.0583C123.24 61.9599 125.421 61.401 126.529 61.2579C126.626 61.2454 126.716 61.2351 126.801 61.2266C127.783 61.1288 128.214 61.2444 128.694 61.1931C129.198 61.1404 129.637 60.923 130.322 60.8467C132.459 60.6131 134.409 60.7282 136.092 60.6386C138.524 60.5113 140.67 59.9873 142.72 59.7721C143.229 59.8025 143.731 59.9071 144.26 59.9136C147.297 59.952 150.513 60.1167 153.73 60.4036C157.457 60.7411 161.26 61.1089 164.83 61.9586C166.393 62.3104 169.083 63.3002 170.981 64.2956C172.733 65.1807 173.978 65.7045 173.324 64.7712C174.383 64.9814 181.093 69.3422 182.104 70.9101C183.222 72.118 184.263 73.3469 184.481 75.0886C184.531 75.5307 184.526 75.9734 184.468 76.4012C184 79.5519 183.343 81.9136 182.111 85.7286C181.756 86.8028 181.483 88.0141 181.196 88.6284C180.851 89.3697 180.268 90.0598 179.754 90.9783C178.595 93.2036 175.861 97.1012 173.997 98.7505C173.669 99.0584 173.421 99.0289 172.906 99.4101C172.741 99.5315 172.574 99.6537 172.406 99.7754C170.635 101.056 168.959 102.476 169.651 102.653C167.059 104.281 164.962 106.211 162.551 107.761C159.977 109.434 156.107 111.494 152.163 113.029C148.448 114.494 144.83 115.881 142.506 116.875C139.524 118.138 139.713 118.39 135.109 119.732C134.374 119.943 133.635 120.141 132.811 120.358C132.489 120.442 132.146 120.531 131.789 120.624C128.827 121.386 126.03 121.597 123.954 122.77C120.669 123.439 118.101 124.147 115.568 124.169C115.313 124.356 115.053 124.544 114.794 124.732C114.401 124.822 113.994 124.914 113.599 125.003C113.449 124.911 113.299 124.819 113.148 124.727C110.468 125.276 107.204 126.382 104.794 126.906C104.621 126.944 104.458 126.978 104.297 127.008C99.9419 128.304 88.9802 127.317 85.1545 126.946C84.2023 126.85 83.6966 126.85 83.2603 126.821C82.7602 126.788 82.4274 126.714 81.7847 126.378C81.3265 126.387 80.8495 126.394 80.3809 126.402C80.0868 126.501 79.7894 126.599 79.4887 126.697C76.8056 126.531 73.6701 126.141 71.1206 125.972C66.4883 125.666 59.5156 125.509 54.8815 124.975C53.7188 124.84 52.2767 124.498 51.1387 124.421C49.4734 124.309 49.044 124.681 46.9352 124.541C43.3036 124.3 36.5676 123.363 33.1378 123.163C32.1023 123.103 31.6276 123.22 30.9209 123.188C30.7996 123.182 30.6803 123.177 30.5627 123.172C27.7497 123.041 25.4305 122.883 22.6973 122.925C19.6986 122.346 19.9782 121.869 19.0706 121.311C18.3394 120.895 16.4055 119.87 15.7688 119.582C15.6836 119.586 15.6504 119.543 15.356 119.663C15.2795 119.704 15.2675 119.692 15.1076 119.827C14.9798 119.94 14.8714 120.106 14.8181 120.248C14.7138 120.541 14.7436 120.663 14.7284 120.619C14.7249 120.586 14.6968 120.333 14.8785 120.018C14.9595 119.871 15.1172 119.722 15.193 119.668C15.252 119.622 15.3128 119.584 15.3689 119.553C15.6294 119.429 15.6397 119.436 15.7268 119.401C15.9274 119.314 15.9889 119.255 16.0828 119.186C16.2548 119.052 16.3944 118.919 16.227 118.786C20.0078 118.76 21.4566 119.111 24.4074 119.659C26.5369 119.794 28.6356 119.93 30.7732 120.069C34.1175 120.287 37.4518 120.51 40.8051 120.735C41.2918 120.909 41.7733 121.082 42.2654 121.257C42.2654 121.257 42.2654 121.257 42.2653 121.258C44.3482 121.564 45.2663 121.268 46.4025 121.265C55.3791 121.242 71.4432 122.685 83.4572 123.601C86.0262 123.796 88.3813 123.963 90.4602 124.078C93.0806 124.312 101.153 124.132 102.825 123.763C103.273 123.743 103.438 123.93 103.912 123.849C104.002 123.829 104.093 123.808 104.185 123.787C108.333 122.849 112.459 121.863 116.561 120.799C121.631 119.834 126.756 118.555 131.699 116.915C135.279 115.705 138.856 114.334 142.385 113.005C145.223 111.932 148.055 110.837 150.857 109.714C158.079 106.881 164.417 102.426 170.299 97.2987C176.327 92.0298 179.747 83.8816 180.922 75.9359C181.174 73.3168 176.096 70.2983 172.294 68.3261C171.466 67.8952 170.576 67.458 169.651 67.0151C166.332 65.3897 162.081 64.7625 158.579 64.2979C156.736 64.0557 155.988 63.6435 153.497 63.7019C153.49 63.6686 153.484 63.6353 153.477 63.6021C153.465 63.5404 153.453 63.4787 153.441 63.4171C151.283 63.3651 149.91 63.493 147.504 63.4238C145.479 63.3396 140.133 63.3582 138.349 63.42C137.421 63.439 137.759 63.2502 136.897 63.2921C135.414 63.3597 132.286 63.8315 130.277 64.0784C129.449 64.1749 128.359 64.275 127.3 64.3993C126.001 64.5527 124.708 64.7173 123.932 64.861C121.201 65.3512 118.444 65.9848 115.295 66.2929C114.851 66.324 114.42 66.3551 113.828 66.3068C113.524 66.2704 113.204 66.2569 112.642 66.0057C112.375 65.8789 111.985 65.6403 111.678 65.1931C111.365 64.7471 111.262 64.1893 111.274 63.827C111.308 63.0864 111.486 62.789 111.607 62.4923C111.738 62.2104 111.862 61.9939 111.984 61.7894C112.228 61.3839 112.457 61.0465 112.687 60.7094C113.274 59.8528 113.868 59.0037 114.468 58.1661C115.357 56.928 116.647 55.4445 116.908 55.0471C117.418 54.2719 117.39 53.9192 117.711 53.3878C119.127 51.0465 121.461 47.7319 122.786 45.1219C122.99 44.7243 123.164 44.3564 123.32 43.9974C125.546 39.0148 125.845 32.826 123.581 27.9458C122.133 25.6879 117.201 24.0043 113.441 22.8345C110.655 21.9819 106.906 21.0692 103.106 20.296C98.9418 19.3734 94.8068 19.8107 92.0182 20.7502C90.8884 21.1195 91.0978 20.7867 90.1582 21.1795C89.1196 21.6332 88.6388 22.0669 88.1706 22.3201C86.5646 23.1808 84.0631 24.7739 81.4589 26.3527C78.8357 27.9318 76.2456 29.574 74.6675 30.4966C74.0771 30.841 73.5577 30.9565 73.2132 31.184C73.0415 31.2971 72.7177 31.6641 72.1837 32.0362C67.9403 35.007 64.7313 37.2503 60.8939 40.182C60.4659 40.5107 60.0307 40.8491 59.5865 41.1995C53.9583 45.6389 48.1433 51.1017 42.6638 56.7271C39.8533 59.5723 37.4473 62.3374 35.4376 65.5543C35.308 65.7523 35.1832 65.9383 35.0557 66.1244C33.8713 67.8502 32.8854 68.9135 32.7275 69.1827C32.3445 69.8409 32.3053 70.3904 31.5944 71.754C29.5215 75.7045 26.7412 80.7975 24.867 85.0619C24.5868 85.6944 24.323 86.3123 24.0822 86.9019C23.165 89.1375 22.1814 92.3277 21.3612 94.5631C20.6968 96.3437 18.9577 100.492 18.7948 101.331C18.6914 101.841 18.8614 102.157 18.6767 102.745ZM48.5156 46.3921C48.5515 46.9386 50.9855 44.2494 49.8242 44.9859C49.561 45.1505 48.5044 46.2479 48.5156 46.3921ZM153.007 61.0471C152.983 60.9213 152.959 60.7955 152.935 60.6697C152.464 60.6866 151.978 60.7048 151.507 60.7265C151.766 60.8175 152.026 60.9093 152.288 61.0019C152.531 61.0166 152.767 61.0314 153.007 61.0471Z" fill="#C9A16C"/>
<path d="M135.774 58.4981C135.804 58.5386 135.641 58.5937 135.631 58.6406C135.591 58.8375 135.477 58.9085 135.409 59.0841C135.31 59.3458 135.504 60.1157 134.377 60.0917C134.377 60.0917 134.377 60.0917 134.377 60.0917C134.366 60.0914 134.355 60.0911 134.344 60.0907C134.129 60.0837 133.896 60.0141 133.654 59.9995C133.411 59.985 131.844 59.9602 131.758 59.8666C131.645 59.731 132.055 59.4208 132.039 59.3499C132.028 59.3013 131.886 59.2396 131.863 59.1775C131.785 58.978 131.892 58.8757 131.507 58.6938C131.713 58.6256 131.918 58.5571 132.123 58.4878C132.029 58.3945 132.3 58.2561 132.286 58.1996C132.274 58.1534 132.113 58.1257 132.106 58.0779C132.097 58.0244 132.271 57.9419 132.245 57.8441C132.203 57.684 131.782 57.6589 131.728 57.5651C131.673 57.4681 131.9 57.3126 131.75 57.1912C131.703 57.1767 131.657 57.1623 131.61 57.1478C131.506 57.1613 131.401 57.1745 131.297 57.1877C131.247 57.1275 131.461 57.096 131.464 57.0393C131.467 56.9723 131.263 56.9449 131.262 56.9006C131.262 56.8644 131.424 56.8099 131.412 56.763C131.396 56.6949 131.161 56.7193 131.116 56.6847C131.098 56.67 130.957 56.4112 130.954 56.3974C130.939 56.2858 131.26 56.2568 131.283 56.1643C131.295 56.1146 131.294 56.065 131.284 56.0169C131.241 55.8164 131.04 55.6374 130.942 55.4719C130.888 55.3797 130.894 55.2777 130.932 55.1744C131.772 55.2219 132.36 54.7753 131.099 55.091C131.266 54.9553 130.909 54.9302 130.951 54.8198C130.978 54.7473 131.147 54.6702 131.125 54.5746C131.085 54.4021 130.549 54.3219 131.439 54.081C131.238 53.9086 131.521 53.6483 130.713 53.7611C130.652 53.72 131.09 53.4689 131.139 53.3916C131.186 53.3199 131.283 52.8161 131.274 52.7373C131.266 52.66 131.244 52.5269 131.158 52.4826C131.051 52.4275 130.225 52.6017 131.134 52.1943C131.011 52.052 131.022 51.9859 131.088 51.8025C131.1 51.7691 131.24 51.7247 131.235 51.7084C131.231 51.6955 131.211 51.6835 131.186 51.6704L131.183 51.6584C131.143 51.6366 131.09 51.612 131.072 51.5764C131.023 51.4815 131.303 51.3405 130.854 51.4794C130.759 51.4345 130.665 51.3896 130.571 51.3447C130.652 51.2969 130.733 51.249 130.813 51.2012C130.708 51.1926 130.603 51.1841 130.498 51.1755C131.165 51.0326 130.709 50.893 130.356 51.0793C130.456 50.9132 130.556 50.7476 130.657 50.5821C131.406 50.3912 130.664 50.275 130.266 50.4136C130.263 50.3987 130.259 50.3838 130.256 50.3689C130.418 50.1846 130.224 50.1117 130.314 49.9182C130.404 49.7249 130.48 49.7195 130.81 49.5766C130.78 49.5454 130.751 49.5142 130.721 49.4831C129.729 49.553 131.364 49.1323 130.553 49.001C131.115 48.7311 130.733 48.5568 130.507 48.4344C130.481 48.4202 130.366 48.4515 130.324 48.4346C130.221 48.3935 130.323 48.185 129.954 48.2926C130.046 48.2047 130.137 48.117 130.228 48.0294C130.148 48.0004 130.068 47.9714 129.988 47.9425C129.872 47.9746 129.757 48.0066 129.641 48.0386C130.009 47.8347 129.817 47.7267 129.891 47.6272C129.907 47.6073 130.065 47.5603 130.096 47.5029C130.133 47.4356 130.059 47.3495 130.092 47.2728C129.909 47.2965 129.726 47.3206 129.543 47.3441C129.416 47.2554 129.871 47.0876 129.889 47.0105C129.892 46.9966 129.799 46.7854 129.786 46.7764C129.681 46.7011 129.291 46.8364 129.302 46.534C129.304 46.4801 129.43 46.4025 129.424 46.3563C129.413 46.276 129.036 46.1171 128.743 46.1767C129.077 45.9813 128.861 45.7622 128.945 45.6581C128.971 45.6265 129.199 45.5591 129.229 45.4754C129.254 45.4076 129.031 45.3107 129.042 45.2304C129.055 45.1434 129.241 45.0635 129.245 45.025C129.249 44.9887 129.085 45.0004 129.074 44.9553C129.043 44.8141 129.26 44.6206 129.236 44.5098C129.201 44.3492 128.703 44.335 128.463 44.2568C128.484 44.2154 128.574 44.1561 128.566 44.121C128.466 43.6843 128.426 43.1857 128.412 42.7254C128.405 42.5136 128.903 41.8552 127.891 42.2636C127.69 42.241 127.98 41.6237 127.962 41.5278C127.943 41.4307 127.736 41.4063 127.714 41.3309C127.646 41.1027 127.74 40.906 127.505 40.6736C127.444 40.6138 127.202 40.5963 127.194 40.5538C127.185 40.5034 127.385 40.3896 127.382 40.3196C127.371 40.1519 127.225 39.8765 127.224 39.7174C127.224 39.6882 127.41 39.6293 127.459 39.5749C127.651 39.3637 127.586 39.1914 126.991 39.3801C127.282 39.0921 126.923 38.9916 126.858 38.8161C126.719 38.4358 126.682 37.7003 126.343 37.4259C126.129 37.2542 125.861 37.3375 126.014 36.9578C126.048 36.8743 126.101 36.7869 126.141 36.687C126.237 36.452 126.693 36.1493 126.051 36.1484C126.151 35.8867 125.997 35.7422 126.473 35.4512C126.344 35.4643 126.216 35.4763 126.087 35.4883C126.077 35.4617 126.067 35.4351 126.057 35.4086C126.173 35.3699 126.289 35.3313 126.405 35.2927C126.387 35.0887 125.842 34.972 125.805 34.8102C125.741 34.529 125.753 33.7787 125.849 33.4847C125.9 33.3291 125.644 33.3809 126.144 33.1701C126.1 33.1481 126.056 33.1263 126.012 33.1046C125.894 33.1142 125.775 33.1239 125.657 33.1336C125.608 32.9602 125.733 32.7077 125.689 32.5375C125.61 32.2373 125.183 31.8626 125.31 31.4956C125.342 31.4054 125.553 31.2515 125.532 31.1803C125.5 31.0685 125.104 31.1396 125.062 31.0039C124.992 30.7785 125.327 30.2026 125.238 29.9984C125.211 29.9377 125.057 29.9384 125.03 29.8973C124.915 29.7287 124.885 29.5658 124.615 29.4545C124.936 29.1719 125.417 29.0482 125.881 28.8478C126.235 28.7076 127.023 28.2878 127.324 28.1476C127.537 28.0507 127.846 28.0281 128.079 27.9178C128.387 28.2099 128.183 28.3398 127.897 28.6555C128.012 29.0278 128.117 29.3811 128.224 29.7418C128.097 29.8095 127.97 29.8775 127.843 29.9459C127.843 29.946 127.842 29.9461 127.842 29.9462C127.722 30.1304 128.086 30.0972 128.183 30.15C129.123 30.6744 128.881 32.2341 128.993 33.0433C129.019 33.2257 129.336 33.718 129.147 33.8973C129.098 33.9426 128.891 34.0044 128.89 34.0396C129.084 34.286 129.283 34.5503 129.478 34.8007C129.3 35.4692 129.724 36.0177 129.923 36.5894C130.467 38.1654 131.035 39.6941 131.396 41.2854C131.466 41.5929 131.721 41.9318 131.7 42.26C131.691 42.3976 131.369 42.5357 131.662 42.6315C131.572 42.6573 131.482 42.6831 131.392 42.7089C131.538 42.8213 131.767 42.8572 131.83 43.0115C131.883 43.1419 131.991 43.4952 131.987 43.6211C131.986 43.6869 131.812 43.7093 131.828 43.7663C131.856 43.8633 132.145 44.0106 132.181 44.1469C132.214 44.2709 132.075 44.53 132.128 44.6157C132.317 44.9248 132.706 45.2247 132.724 45.6026C132.729 45.7079 132.546 45.8957 132.56 45.9253C132.589 45.983 132.806 45.9434 132.844 45.977C133.038 46.1483 132.875 46.5442 132.919 46.7491C133.067 47.4244 133.351 48.1019 133.494 48.7765C133.584 49.1988 133.814 49.8871 133.761 50.3154C133.75 50.4083 133.512 50.4514 133.532 50.5214C133.553 50.599 133.722 50.597 133.744 50.6297C133.79 50.6957 133.85 50.7859 133.908 50.8877L133.903 50.8707C134.051 51.1225 134.193 51.4498 134.127 51.6559C134.109 51.7121 133.936 51.7962 133.945 51.8239C133.949 51.8382 134.081 51.8352 134.106 51.8776C134.324 52.2442 134.327 52.5575 134.377 52.97C134.473 53.749 134.872 54.6689 134.807 55.5351C134.801 55.6242 134.715 55.7054 134.627 55.7683C134.531 55.8373 134.432 55.8844 134.435 55.8975C134.446 55.9521 134.699 55.9713 134.767 56.0811C134.991 56.4491 134.738 56.9613 134.867 57.307C134.93 57.4785 135.249 57.7137 135.319 57.884C135.375 58.0202 135.247 58.3382 135.386 58.3983C135.47 58.4352 135.741 58.4543 135.774 58.4981ZM131.312 54.4326C131.742 54.3722 131.347 54.223 131.134 54.3498C131.086 54.3777 131.201 54.4482 131.312 54.4326ZM129.149 43.3508C129.029 43.3849 128.91 43.419 128.791 43.4531C128.849 43.4706 128.907 43.4882 128.965 43.5057C129.032 43.4692 129.1 43.4326 129.167 43.3961C129.161 43.381 129.155 43.3659 129.149 43.3508Z" fill="#C9A16C"/>
<path d="M102.118 116.333C102.221 116.373 102.243 116.594 102.34 116.68C102.725 117.022 102.823 117.234 103.123 117.555C103.135 117.568 103.146 117.58 103.158 117.592C103.632 118.054 105.494 119.407 104.685 120.217C104.685 120.217 104.685 120.217 104.685 120.217C104.677 120.225 104.669 120.233 104.661 120.241C104.509 120.393 104.22 120.444 104.037 120.605C103.853 120.766 102.803 121.929 102.569 121.834C102.24 121.686 101.895 120.864 101.731 120.758C101.626 120.688 101.414 120.7 101.27 120.618C101.12 120.532 101.002 120.447 100.889 120.371C100.654 120.212 100.449 120.096 100.035 120.108C100.011 119.831 99.9849 119.553 99.9555 119.274C99.7002 119.199 99.5595 118.756 99.4261 118.675C99.3211 118.612 99.1616 118.694 99.0549 118.624C98.9286 118.542 98.8552 118.271 98.6225 118.133C98.2457 117.909 97.931 118.2 97.6906 118.091C97.4362 117.974 97.2289 117.542 96.8596 117.458C96.7973 117.471 96.7346 117.482 96.6717 117.494C96.6363 117.598 96.6007 117.701 96.5649 117.804C96.3924 117.74 96.4585 117.523 96.3298 117.426C96.1755 117.31 95.9822 117.421 95.8784 117.346C95.793 117.284 95.7725 117.068 95.6574 116.999C95.4881 116.895 95.3851 117.111 95.2727 117.085C95.2315 117.076 94.5166 116.727 94.4771 116.702C94.1989 116.516 94.3602 116.235 94.1563 116.056C93.8977 115.829 93.5937 115.659 93.2738 115.506C92.9112 115.335 92.5314 115.19 92.1939 115.018C91.9213 114.88 91.6611 114.675 91.444 114.46C92.3127 114.061 91.8015 112.92 91.3917 114.209C91.2128 113.86 90.8211 114.011 90.5851 113.775C90.4373 113.625 90.4214 113.396 90.1695 113.227C89.7322 112.935 88.9632 113.022 89.3599 112.178C88.7555 111.957 88.4975 111.375 87.8542 111.918C87.6929 111.868 87.6268 111.236 87.5158 111.081C87.4084 110.932 86.4498 110.014 86.2812 109.885C86.1101 109.754 85.8068 109.532 85.6186 109.491C85.3828 109.437 84.7747 110.042 84.9956 109.004C84.5628 108.808 84.4377 108.69 84.1411 108.352C84.087 108.291 84.161 108.165 84.1226 108.139C84.0441 108.086 83.8457 108.083 83.6999 108.001C83.4578 107.865 83.4954 107.52 83.2603 107.928C83.0641 107.891 82.8632 107.852 82.6694 107.817C82.6664 107.706 82.6633 107.595 82.66 107.484C82.5236 107.512 82.387 107.539 82.2501 107.567C82.7234 107.066 81.9226 107.014 81.8941 107.464C81.6787 107.152 81.4555 106.835 81.2368 106.522C81.7056 105.905 80.633 106.016 80.4597 106.404C80.4257 106.381 80.3917 106.358 80.3577 106.335C80.1755 105.969 79.8075 105.928 79.5187 105.573C79.2323 105.221 79.3066 105.179 79.3905 104.81C79.2934 104.77 79.196 104.731 79.0984 104.691C78.1168 105.214 79.1179 103.853 77.9373 103.976C78.0256 103.303 77.2387 103.176 76.7349 103.072C76.676 103.059 76.6108 103.158 76.528 103.149C76.325 103.122 76.0195 102.744 75.8251 103.075C75.7501 102.894 75.6746 102.714 75.5985 102.533C75.4497 102.521 75.3 102.507 75.153 102.496C75.0889 102.597 75.0249 102.698 74.9609 102.799C74.9597 102.314 74.524 102.221 74.4021 102.027C74.3783 101.989 74.4588 101.844 74.3769 101.739C74.2814 101.614 74.0224 101.507 73.9004 101.368C73.7441 101.485 73.5878 101.603 73.4314 101.72C73.1089 101.632 73.277 101.167 73.1399 101.036C73.1158 101.013 72.5806 100.715 72.5466 100.706C72.2744 100.63 72.1228 101.02 71.5102 100.53C71.4013 100.443 71.3803 100.261 71.2787 100.191C71.0986 100.065 70.3615 99.9836 70.1583 100.208C70.1284 99.7491 69.4416 99.4999 69.3171 99.2955C69.2921 99.2535 69.3361 99.1438 69.3232 99.0315C69.3173 98.9784 69.2987 98.9247 69.2537 98.8775C69.1409 98.7587 68.6924 98.7037 68.537 98.5697C68.3727 98.4268 68.412 98.2162 68.3385 98.1539C68.2686 98.0951 68.1127 98.188 68.0082 98.122C67.684 97.9142 67.5204 97.5076 67.2648 97.3437C66.8946 97.1055 66.3097 97.3048 65.885 97.2913C65.8234 97.2169 65.8008 97.0825 65.7196 97.0313C64.7148 96.393 63.6201 95.6162 62.6561 94.9057C62.2088 94.5763 61.3712 93.3057 61.1216 94.4196C60.8591 94.4807 59.8918 93.381 59.6677 93.2374C59.4437 93.0935 59.1628 93.1497 58.9828 93.0437C58.4402 92.7243 58.1311 92.3737 57.3877 92.1217C57.1949 92.0567 56.8944 92.1434 56.7953 92.0806C56.6763 92.0044 56.6607 91.7357 56.5114 91.6293C56.1529 91.376 55.4202 91.0208 55.0792 90.7717C55.0174 90.7259 55.0945 90.5448 55.0319 90.4363C54.7888 90.013 54.3694 89.7864 54.1221 90.3638C53.8325 89.779 53.238 89.7999 52.7907 89.5569C51.852 89.0447 50.2521 87.9319 49.3136 87.6865C48.7286 87.5355 48.5925 87.7788 47.9739 87.1401C47.8343 86.9971 47.7042 86.8383 47.5354 86.6668C47.1442 86.2666 46.961 85.5657 46.2955 85.8999C45.8481 85.4569 45.3822 85.3223 45.2494 84.6353C45.1401 84.7197 45.031 84.8043 44.922 84.889C44.856 84.8551 44.7902 84.8213 44.7245 84.7876C44.7645 84.6706 44.8045 84.5535 44.8445 84.4364C44.3983 84.1456 43.5727 84.254 43.177 84.0285C42.5289 83.6569 40.9231 82.5516 40.3792 82.0761C40.0825 81.8178 39.944 82.0394 40.0062 81.466C39.9143 81.4593 39.8262 81.4547 39.7323 81.447C39.6298 81.5253 39.5276 81.6039 39.4258 81.6826C39.0408 81.4839 38.6536 81.1164 38.2924 80.8999C38.2493 80.8743 38.2066 80.8506 38.1643 80.8291C37.415 80.4494 36.1324 80.1603 35.471 79.5926C35.2979 79.4461 35.1785 79.1164 34.9868 79.0241C34.7061 78.8888 34.4791 79.2237 34.1211 79.0554C33.5242 78.7735 32.6234 77.8189 32.0458 77.5879C31.8828 77.5226 31.7295 77.6157 31.613 77.579C31.1086 77.4202 30.707 77.2243 30.1734 77.2459C29.845 76.6892 30.0742 76.2515 30.1048 75.7251C30.0863 75.3242 30.2008 74.3824 29.8012 74.0007C29.5854 73.8779 29.9419 73.7538 30.0275 73.6414C30.1438 73.5251 30.2308 73.4045 30.1805 73.2616C30.6155 73.3159 30.7097 73.343 30.8771 73.3988C31.0242 73.4518 31.1366 73.5185 31.2341 73.599C31.4316 73.7612 31.5744 73.9809 31.7628 74.2599C32.7168 74.664 33.6384 75.0876 34.5539 75.5147C34.5752 75.6802 34.5977 75.8465 34.6217 76.0135C34.6215 76.0138 34.6214 76.0141 34.6213 76.0143C34.8896 76.3244 35.21 76.0813 35.425 76.096C36.6846 76.2071 38.2893 77.0337 39.8093 77.9385C40.8978 78.5859 41.9143 79.2778 42.7077 79.7518C43.1072 79.9889 44.5651 80.5805 44.7288 80.9334C44.7735 81.026 44.6889 81.2254 44.7627 81.2775C45.5251 81.5575 46.2784 81.8365 47.0428 82.125C48.3025 83.2287 49.9082 83.8401 51.3623 84.6325C55.2954 86.7764 59.1766 88.9157 62.9047 91.2515C63.6249 91.7032 64.6285 92.1286 65.2839 92.6533C65.5574 92.872 65.4983 93.2416 66.0228 93.2617C65.978 93.3435 65.9333 93.4254 65.8885 93.5073C66.2869 93.6204 66.6135 93.5726 67.0052 93.7888C67.3355 93.9715 68.1874 94.4817 68.4517 94.6873C68.5888 94.7931 68.4426 94.9074 68.5794 94.991C68.8128 95.1322 69.4419 95.239 69.763 95.4384C70.0526 95.6181 70.4428 96.0968 70.681 96.2108C70.7823 96.2595 70.8859 96.3066 70.9912 96.3525C71.788 96.7022 72.6791 96.9968 73.4004 97.5343C73.627 97.7037 73.8107 98.0867 73.8878 98.128C74.0388 98.2079 74.2 98.0504 74.313 98.0885C74.8857 98.2821 75.5181 98.993 75.9932 99.3089C77.5549 100.346 79.2677 101.339 80.8068 102.395C81.7777 103.06 83.4327 104.107 84.2445 104.847C84.4195 105.007 84.2343 105.172 84.3968 105.281C84.5761 105.4 84.7678 105.333 84.8595 105.379C85.494 105.692 86.8805 106.427 87.3399 106.94C87.4269 107.037 87.3969 107.244 87.4595 107.286C87.4906 107.307 87.6351 107.249 87.7432 107.307C88.6883 107.808 89.2905 108.311 90.1261 108.938C91.7113 110.127 93.7314 111.249 95.3603 112.547C95.3757 112.559 95.391 112.571 95.4062 112.583C95.7668 112.872 95.8064 113.356 95.8613 113.39C95.9793 113.465 96.1984 113.313 96.4684 113.429C97.36 113.811 98.2496 114.775 99.0585 115.206C99.4575 115.418 100.145 115.525 100.546 115.733C100.864 115.897 101.465 116.5 101.676 116.487C101.806 116.479 102.002 116.287 102.118 116.333ZM90.0289 112.875C90.3282 112.555 89.5808 112.475 89.6522 112.808C89.6687 112.883 89.9519 112.958 90.0289 112.875ZM64.7627 95.5504C64.703 95.6588 64.6432 95.7673 64.5835 95.8758C64.6837 95.8771 64.784 95.8783 64.8841 95.8796C64.882 95.7909 64.8799 95.7023 64.8777 95.6136C64.8394 95.5925 64.801 95.5714 64.7627 95.5504Z" fill="#C9A16C"/>
<path d="M138.663 104.475C138.787 104.55 138.81 104.795 138.922 104.914C139.383 105.408 139.488 105.667 139.884 106.168C139.999 106.315 140.18 106.519 140.351 106.716L140.391 106.76C141.249 107.802 142.104 109.13 141.392 109.67C141.392 109.67 141.392 109.67 141.392 109.67C141.383 109.677 141.374 109.683 141.365 109.689C141.185 109.807 140.867 109.768 140.652 109.885C140.437 110.002 139.183 110.943 138.932 110.748C138.574 110.452 138.27 109.376 138.119 109.23C138.044 109.153 137.906 109.109 137.78 109.043L137.805 109.071C137.752 109.043 137.701 109.011 137.657 108.974C137.161 108.557 137.003 108.254 136.31 108.12C136.287 107.814 136.25 107.497 136.219 107.187C135.929 107.044 135.757 106.517 135.609 106.402C135.481 106.3 135.311 106.363 135.183 106.256C135.038 106.136 134.944 105.815 134.683 105.615C134.247 105.277 133.886 105.52 133.612 105.346C133.314 105.154 133.074 104.633 132.65 104.456C132.578 104.453 132.505 104.451 132.432 104.448C132.393 104.554 132.354 104.659 132.314 104.763C132.11 104.648 132.192 104.434 132.041 104.295C131.863 104.132 131.637 104.204 131.52 104.1C131.424 104.014 131.397 103.773 131.259 103.665C131.068 103.516 130.952 103.728 130.823 103.673C130.77 103.649 129.948 103.103 129.9 103.064C129.575 102.793 129.765 102.531 129.524 102.284C129.064 101.812 128.487 101.462 127.922 101.113L127.994 101.173C127.763 101.046 127.519 100.909 127.307 100.779C126.976 100.575 126.674 100.314 126.401 100.035C127.385 99.7574 126.726 98.4281 126.327 99.7538C126.098 99.3421 125.651 99.4356 125.364 99.1389C125.184 98.9507 125.143 98.6922 124.848 98.4705C124.313 98.0688 123.429 98.0324 123.837 97.1875C123.116 96.8397 122.781 96.1667 122.067 96.6441C121.875 96.5606 121.759 95.8664 121.616 95.677C121.481 95.4967 120.305 94.3415 120.093 94.17C119.889 94.0023 119.514 93.7069 119.293 93.6319C119.014 93.5352 118.351 94.0911 118.531 93.0011C118.012 92.7171 117.859 92.5697 117.486 92.1548C117.418 92.0794 117.495 91.9548 117.448 91.9203C117.351 91.8488 117.125 91.8177 116.946 91.7033C116.651 91.5151 116.669 91.1476 116.424 91.5505C116.19 91.4777 115.961 91.4083 115.728 91.3363C115.715 91.2154 115.703 91.0944 115.69 90.9733C115.531 90.9803 115.374 90.9883 115.217 90.9968C115.733 90.5309 114.795 90.3486 114.795 90.8297C114.511 90.4517 114.237 90.0818 113.952 89.7047C114.451 89.1117 113.207 89.063 113.034 89.4555C112.993 89.4252 112.951 89.3949 112.91 89.3646C112.666 88.939 112.232 88.8366 111.867 88.4102C111.502 87.9839 111.586 87.9513 111.655 87.565C111.537 87.5071 111.42 87.4497 111.304 87.3931C110.196 87.8049 111.257 86.4885 109.884 86.4419C109.929 85.7267 108.998 85.4722 108.398 85.284C108.328 85.262 108.26 85.3592 108.162 85.3364C107.924 85.2794 107.528 84.8222 107.329 85.1503C107.226 84.9453 107.123 84.74 107.019 84.5343C106.843 84.4988 106.665 84.4616 106.492 84.4274C106.425 84.5267 106.358 84.626 106.291 84.7253C106.249 84.2028 105.728 84.0381 105.569 83.8126C105.538 83.7677 105.622 83.625 105.516 83.4988C105.392 83.3506 105.078 83.1969 104.922 83.0295C104.793 83.106 104.664 83.1825 104.535 83.259C104.49 83.2858 104.445 83.3126 104.4 83.3394C104.018 83.2013 104.171 82.7231 103.998 82.562C103.967 82.5327 103.312 82.1361 103.272 82.1221C102.947 82.0031 102.797 82.396 102.035 81.7836C101.899 81.6743 101.861 81.4781 101.733 81.3864C101.506 81.2232 100.633 81.0328 100.413 81.2451C100.337 80.7475 99.5032 80.3814 99.3397 80.1454C99.2909 80.0737 99.4061 79.865 99.2282 79.688C99.0842 79.5442 98.55 79.422 98.3554 79.2569C98.1494 79.0809 98.1783 78.8615 98.0852 78.7839C97.9971 78.7108 97.8212 78.7885 97.6919 78.7031C97.2895 78.4344 97.0634 77.9782 96.745 77.766C96.285 77.4587 95.6149 77.5935 95.1118 77.5209C95.0323 77.4327 94.993 77.2855 94.8922 77.2193C93.6491 76.3995 92.2818 75.419 91.0757 74.5293C90.515 74.1158 89.4051 72.6443 89.215 73.8036C88.9105 73.8341 87.6654 72.5301 87.3831 72.3445C87.1037 72.1603 86.7803 72.1854 86.5552 72.0468C85.8802 71.6312 85.4824 71.2158 84.5793 70.8477C84.3438 70.7518 83.9961 70.8047 83.8733 70.7245C83.7257 70.6274 83.6836 70.3389 83.4943 70.2035C83.0465 69.8851 82.1416 69.4048 81.7178 69.0946C81.6397 69.037 81.7142 68.8536 81.6297 68.729C81.3041 68.2447 80.7826 67.9435 80.5432 68.5278C80.1516 67.8667 79.4413 67.8037 78.8909 67.4839C77.729 66.8071 75.7253 65.3894 74.5954 64.9933C74.1678 64.8435 73.9423 64.8681 73.6712 64.7509C73.4782 64.6651 73.2716 64.5206 72.9502 64.2057C72.7679 64.0285 72.6143 63.8471 72.3909 63.6313C71.8902 63.1393 71.6296 62.3643 70.8521 62.6064C70.292 62.0594 69.7154 61.8256 69.5254 61.0708C69.4 61.1416 69.2763 61.2135 69.1517 61.2848C69.0683 61.2347 68.9869 61.1859 68.9076 61.1382C68.9494 61.0205 68.9914 60.9029 69.0337 60.7855C68.4816 60.3893 67.4978 60.3422 67.0288 60.0312C66.6185 59.7637 65.9558 59.2487 65.372 58.8721C64.6801 58.4383 64.0085 58.0037 63.6524 57.7372C63.2676 57.4486 63.1305 57.6717 63.1226 57.0712C63.0108 57.0577 62.8993 57.0445 62.788 57.0314C62.6771 57.1076 62.5663 57.1839 62.4558 57.2604C61.9062 56.9972 61.3387 56.5224 60.8133 56.2756C59.8564 55.8245 58.291 55.4576 57.4085 54.8309C57.186 54.6726 56.9856 54.3187 56.7432 54.2144C56.3977 54.0658 56.1472 54.3936 55.7084 54.2102C54.9509 53.8913 53.7113 52.8592 52.974 52.597C52.7509 52.5166 52.6026 52.6174 52.4453 52.5707C51.8 52.383 51.2913 52.1681 50.6189 52.1589C50.1247 51.562 50.3537 51.1212 50.3181 50.5763C50.2871 50.1667 50.1642 49.1865 49.9674 48.8175C49.8752 48.5601 50.4049 48.3697 50.3036 48.0843C51.4815 48.2235 51.5911 48.5434 52.1434 49.132C53.3438 49.5811 54.5225 50.0522 55.6973 50.5355C55.7528 50.7109 55.7985 50.8822 55.8498 51.0561C55.8497 51.0564 55.8496 51.0567 55.8495 51.057C56.2373 51.3983 56.5604 51.1466 56.8383 51.1783C59.4651 51.4513 63.7067 54.1076 66.123 55.4505C66.2911 55.5425 66.5921 55.6783 66.9338 55.836C67.7529 56.2135 68.6087 56.7535 68.7554 57.0277C68.8091 57.1332 68.7194 57.3319 68.8069 57.4002C69.7153 57.842 70.6104 58.2731 71.5162 58.7026C72.7666 59.8274 74.2598 60.6169 75.7385 61.4376C76.078 61.6252 76.4386 61.8285 76.7741 62.0259C81.5992 64.8645 86.3996 67.6533 91.0247 70.6491C91.921 71.2298 93.1454 71.818 93.9699 72.4688C94.3128 72.7393 94.2801 73.1289 94.9005 73.2204C94.8553 73.3021 94.81 73.3838 94.7648 73.4655C95.2447 73.6396 95.6294 73.6347 96.111 73.919C96.517 74.1588 97.5726 74.8238 97.903 75.0806C98.0748 75.2131 97.9125 75.3154 98.082 75.4242C98.3728 75.6093 99.1221 75.8089 99.5211 76.069C99.8825 76.3043 100.382 76.8702 100.675 77.0275C101.731 77.5956 102.98 78.0629 103.999 78.8355C104.278 79.0485 104.531 79.4881 104.626 79.5441C104.812 79.6527 104.987 79.506 105.123 79.5628C105.533 79.7343 105.992 80.1128 106.412 80.4728C106.7 80.7182 106.972 80.9563 107.209 81.1218C109.134 82.4666 111.237 83.8026 113.123 85.1791C114.318 86.0492 116.339 87.4443 117.344 88.3771C117.563 88.5795 117.358 88.7279 117.558 88.873C117.78 89.0335 117.994 88.9886 118.104 89.0525C118.877 89.4997 120.546 90.5219 121.121 91.156C121.228 91.2753 121.21 91.4961 121.287 91.5527C121.326 91.5816 121.49 91.5439 121.62 91.6237C122.761 92.3291 123.497 92.9756 124.514 93.8019C126.277 95.2342 128.452 96.6766 130.321 98.2315L130.376 98.2772C130.567 98.4509 130.751 98.6219 130.927 98.7905C131.342 99.1873 131.396 99.7276 131.455 99.7744C131.594 99.8849 131.849 99.7753 132.157 99.9615C133.185 100.587 134.221 101.852 135.153 102.514C135.609 102.836 136.401 103.119 136.861 103.441C137.229 103.697 137.922 104.504 138.16 104.537C138.31 104.561 138.535 104.402 138.663 104.475ZM124.659 98.0607C124.983 97.763 124.119 97.5531 124.22 97.9235C124.243 98.0073 124.573 98.136 124.659 98.0607ZM93.625 75.5025C93.5646 75.6107 93.5041 75.7189 93.4436 75.8271C93.562 75.8419 93.6805 75.8567 93.799 75.8716C93.7882 75.7763 93.7774 75.681 93.7666 75.5858C93.7194 75.558 93.6722 75.5303 93.625 75.5025Z" fill="#C9A16C"/>
<path d="M101.377 180.368C101.379 180.455 101.188 180.512 101.147 180.6C100.973 180.971 100.813 181.075 100.606 181.406C100.448 181.651 100.248 182.195 99.8077 182.689C99.4279 183.173 98.4308 183.651 98.1506 183.118C98.1506 183.118 98.1506 183.118 98.1506 183.118C98.1451 183.108 98.1398 183.098 98.1348 183.088C98.0513 182.893 98.1091 182.57 97.9623 182.371C97.8281 182.168 96.8464 180.945 96.7665 180.898C96.6757 180.853 97.2582 180.684 97.2927 180.56C97.3155 180.489 97.2284 180.342 97.2458 180.243C97.3018 179.922 97.4649 179.791 97.2079 179.373C97.4409 179.331 97.6747 179.282 97.9092 179.228C97.8737 179.041 98.2076 178.883 98.2249 178.779C98.2386 178.695 98.0996 178.599 98.118 178.513C98.1379 178.416 98.3487 178.32 98.3744 178.138C98.4168 177.839 98.0257 177.673 98.0243 177.482C98.0255 177.401 98.0633 177.335 98.1272 177.209L98.1211 177.229C98.1995 177.106 98.2968 176.96 98.2456 176.798C98.2091 176.755 98.1715 176.718 98.1345 176.677C98.028 176.67 97.9217 176.662 97.8154 176.654C97.7982 176.532 98.0188 176.537 98.0505 176.433C98.0875 176.312 97.9082 176.193 97.9301 176.113C97.9489 176.044 98.1306 175.993 98.1437 175.9C98.1638 175.764 97.9276 175.738 97.9029 175.656C97.8944 175.621 97.8969 175.074 97.9023 175.042C97.9481 174.817 98.2657 174.875 98.337 174.7C98.5324 174.219 98.3999 173.646 98.4118 173.159C98.4171 172.941 98.4859 172.726 98.5827 172.534C99.3119 173.045 100.104 172.462 98.7833 172.447C99.0147 172.259 98.7133 172.012 98.8192 171.811C98.8884 171.679 99.0861 171.616 99.1262 171.416C99.1984 171.051 98.7888 170.548 99.709 170.646C99.6451 170.184 100.051 169.889 99.291 169.566C99.2661 169.449 99.8005 169.267 99.8906 169.162C99.9764 169.06 100.383 168.212 100.425 168.073C100.469 167.929 100.537 167.676 100.493 167.54C100.454 167.415 100.023 167.231 100.179 167.111L100.173 167.14C100.231 167.096 100.373 167.059 100.653 167.035C100.637 166.698 100.687 166.592 100.856 166.317C100.886 166.268 101.031 166.289 101.037 166.257C101.05 166.193 100.965 166.06 100.974 165.944C100.988 165.751 101.311 165.698 100.845 165.632C100.792 165.492 100.737 165.355 100.683 165.214C100.78 165.187 100.878 165.158 100.975 165.132C100.89 165.048 100.805 164.963 100.72 164.879C101.374 165.08 101.066 164.535 100.655 164.619C100.837 164.404 101.019 164.184 101.2 163.967C101.955 164.135 101.382 163.449 100.959 163.425C100.965 163.397 100.97 163.369 100.976 163.342C101.22 163.135 101.093 162.88 101.278 162.609C101.464 162.336 101.533 162.374 101.899 162.343C101.89 162.27 101.881 162.197 101.873 162.123C100.972 161.597 102.626 161.934 101.988 161.186C102.624 161.079 102.383 160.531 102.249 160.175C102.233 160.133 102.116 160.115 102.087 160.059C102.018 159.922 102.216 159.624 101.835 159.581C101.961 159.487 102.086 159.393 102.212 159.298C102.156 159.197 102.1 159.098 102.043 158.999C101.925 158.982 101.806 158.966 101.688 158.95C102.117 158.827 102.002 158.517 102.117 158.392C102.14 158.367 102.305 158.383 102.361 158.302C102.428 158.208 102.405 158.009 102.472 157.897C102.297 157.826 102.122 157.755 101.947 157.684C101.877 157.456 102.365 157.439 102.419 157.318C102.428 157.296 102.447 156.873 102.439 156.849C102.381 156.653 101.967 156.659 102.119 156.134C102.146 156.041 102.296 155.982 102.312 155.897C102.341 155.746 102.073 155.252 101.78 155.183C102.172 155.041 102.075 154.533 102.197 154.4C102.235 154.359 102.472 154.375 102.537 154.244C102.589 154.14 102.429 153.84 102.475 153.704C102.525 153.559 102.729 153.528 102.749 153.463C102.769 153.403 102.614 153.329 102.623 153.245C102.655 152.979 102.936 152.765 102.961 152.555C102.997 152.25 102.546 151.942 102.357 151.669C102.393 151.609 102.501 151.555 102.507 151.489C102.579 150.814 102.701 150.069 102.831 149.367C102.857 149.226 102.884 149.086 102.911 148.949C102.985 148.571 103.691 147.661 102.597 147.847C102.417 147.705 102.909 146.767 102.925 146.583C102.942 146.399 102.757 146.243 102.762 146.099C102.776 145.664 102.932 145.364 102.789 144.825C102.752 144.686 102.529 144.529 102.536 144.448C102.544 144.351 102.771 144.256 102.791 144.13C102.836 143.829 102.788 143.263 102.838 142.975C102.848 142.923 103.043 142.912 103.107 142.839C103.357 142.553 103.349 142.221 102.725 142.256C103.093 141.891 102.784 141.529 102.776 141.179C102.763 140.437 102.949 139.09 102.705 138.438C102.551 138.024 102.272 138.031 102.528 137.436C102.585 137.304 102.66 137.174 102.728 137.014C102.887 136.637 103.41 136.304 102.795 135.999C102.965 135.585 102.858 135.243 103.395 134.944C103.268 134.905 103.141 134.865 103.015 134.826C103.012 134.774 103.01 134.722 103.008 134.67C103.13 134.656 103.252 134.642 103.374 134.628C103.413 134.26 102.922 133.779 102.931 133.469C102.945 132.942 103.158 131.596 103.328 131.097C103.418 130.836 103.158 130.817 103.695 130.671C103.659 130.611 103.622 130.551 103.585 130.492C103.469 130.454 103.352 130.415 103.235 130.378C103.234 130.036 103.42 129.638 103.422 129.313C103.424 128.722 103.109 127.834 103.326 127.243C103.342 127.199 103.375 127.153 103.413 127.106C103.504 126.988 103.623 126.866 103.622 126.765C103.62 126.558 103.219 126.494 103.214 126.231C103.206 125.764 103.679 124.912 103.647 124.467C103.637 124.338 103.489 124.276 103.474 124.185C103.408 123.809 103.423 123.497 103.195 123.138C103.583 122.75 104.079 122.789 104.58 122.674C104.959 122.583 105.836 122.317 106.167 122.273C106.4 122.242 106.698 122.358 106.954 122.319C107.155 122.789 106.929 122.977 106.566 123.354C106.574 124.054 106.583 124.75 106.591 125.445C106.451 125.509 106.311 125.571 106.171 125.631C106.17 125.631 106.17 125.631 106.17 125.631C106.006 125.899 106.365 126.013 106.446 126.159C106.6 126.439 106.698 126.762 106.755 127.133C106.984 128.581 106.559 130.575 106.472 131.792C106.449 132.125 106.621 133.191 106.391 133.416C106.331 133.474 106.115 133.487 106.105 133.549C106.224 134.102 106.342 134.664 106.459 135.22C106.102 136.355 106.351 137.542 106.37 138.696C106.422 141.814 106.471 144.911 106.228 147.985C106.189 148.478 106.258 149.089 106.199 149.609C106.187 149.718 106.169 149.823 106.144 149.922C106.082 150.163 105.73 150.234 105.962 150.576C105.869 150.572 105.776 150.568 105.683 150.564C105.773 150.852 105.97 151.044 105.965 151.36C105.961 151.624 105.914 152.323 105.857 152.55C105.828 152.67 105.659 152.609 105.649 152.721C105.634 152.914 105.835 153.346 105.808 153.613C105.785 153.851 105.543 154.239 105.553 154.425C105.586 155.101 105.8 155.858 105.636 156.557C105.59 156.752 105.335 156.976 105.334 157.037C105.332 157.157 105.545 157.22 105.563 157.305C105.653 157.733 105.312 158.331 105.247 158.732C105.038 160.028 104.925 161.419 104.673 162.703C104.516 163.512 104.316 164.874 104.015 165.591C103.95 165.745 103.722 165.658 103.697 165.794C103.669 165.945 103.813 166.055 103.813 166.127C103.813 166.528 103.785 167.307 103.644 167.821L103.639 167.849C103.6 167.982 103.556 168.095 103.503 168.18C103.453 168.259 103.256 168.282 103.246 168.333C103.24 168.358 103.353 168.445 103.348 168.531C103.306 169.279 103.119 169.791 102.92 170.492C102.541 171.833 102.42 173.464 101.956 174.864C101.854 175.171 101.44 175.298 101.434 175.341C101.419 175.436 101.646 175.562 101.659 175.769C101.697 176.47 101.22 177.271 101.157 177.949C101.152 178 101.151 178.064 101.155 178.123L101.149 178.144C101.199 178.363 101.317 178.816 101.299 179.085C101.283 179.347 100.977 179.904 101.07 180.06C101.127 180.155 101.373 180.274 101.377 180.368ZM99.3789 171.244C99.7926 171.379 99.5391 170.862 99.2754 170.976C99.2158 171.003 99.2721 171.207 99.3789 171.244ZM103.354 150.459C103.23 150.453 103.106 150.448 102.983 150.442C103.029 150.505 103.076 150.568 103.123 150.632C103.199 150.604 103.276 150.577 103.353 150.55C103.353 150.519 103.353 150.489 103.354 150.459Z" fill="#C9A16C"/>
<path d="M137.084 171.586C137.086 171.665 136.898 171.703 136.861 171.778C136.703 172.089 136.556 172.163 136.407 172.407C136.388 172.438 136.369 172.476 136.351 172.518L136.34 172.553C136.233 172.811 136.093 173.197 135.892 173.52C135.592 174.002 135.21 174.288 134.656 174.03C134.656 174.03 134.656 174.03 134.656 174.03C134.646 174.025 134.636 174.02 134.626 174.015C134.434 173.919 134.275 173.706 134.063 173.586C133.851 173.466 132.428 172.811 132.42 172.62C132.419 172.477 132.582 172.316 132.737 172.179C132.878 172.054 133.015 171.94 133.028 171.883C133.046 171.8 132.948 171.655 132.959 171.547C132.963 171.502 132.969 171.461 132.976 171.422L132.969 171.446C133.035 171.11 133.139 170.928 132.934 170.51C133.177 170.443 133.418 170.382 133.659 170.323C133.636 170.118 133.985 169.959 134.01 169.852C134.031 169.763 133.898 169.658 133.924 169.569C133.951 169.469 134.17 169.38 134.21 169.195C134.275 168.891 133.895 168.702 133.904 168.514C133.913 168.319 134.222 168.116 134.154 167.843C134.119 167.801 134.084 167.758 134.048 167.716C133.942 167.705 133.836 167.693 133.73 167.681C133.719 167.555 133.939 167.57 133.975 167.467C134.018 167.344 133.841 167.224 133.867 167.141C133.887 167.076 134.072 167.027 134.087 166.937C134.11 166.805 133.876 166.767 133.853 166.687C133.847 166.666 133.852 166.424 133.857 166.25C133.861 166.155 133.865 166.08 133.867 166.07C133.922 165.83 134.238 165.894 134.317 165.713C134.532 165.212 134.427 164.611 134.464 164.107C134.48 163.882 134.559 163.664 134.667 163.466C135.371 164.019 136.193 163.448 134.873 163.383C135.114 163.197 134.824 162.936 134.942 162.729C135.019 162.594 135.218 162.543 135.27 162.335C135.36 161.966 134.976 161.436 135.893 161.569C135.851 161.099 136.272 160.81 135.527 160.451C135.508 160.329 136.05 160.167 136.145 160.06C136.236 159.957 136.677 159.112 136.725 158.966C136.774 158.822 136.851 158.566 136.813 158.425C136.765 158.247 135.974 157.94 136.998 157.894C136.998 157.551 137.053 157.444 137.235 157.168C137.268 157.119 137.412 157.146 137.419 157.114C137.435 157.048 137.356 156.911 137.37 156.791C137.393 156.594 137.718 156.552 137.256 156.469C137.208 156.323 137.16 156.18 137.111 156.036C137.21 156.011 137.308 155.986 137.407 155.961C137.326 155.871 137.244 155.782 137.163 155.693C137.809 155.92 137.523 155.354 137.108 155.427C137.299 155.21 137.489 154.994 137.679 154.776C138.428 154.971 137.881 154.249 137.459 154.215C137.465 154.187 137.472 154.159 137.478 154.131C137.73 153.924 137.612 153.665 137.807 153.389C138.002 153.114 138.07 153.156 138.436 153.132C138.431 153.068 138.426 153.003 138.421 152.938C138.42 152.927 138.419 152.916 138.418 152.906C137.533 152.348 139.178 152.729 138.564 151.946C139.204 151.852 138.981 151.282 138.857 150.915C138.843 150.872 138.726 150.85 138.699 150.792C138.635 150.648 138.841 150.35 138.462 150.296C138.59 150.202 138.718 150.109 138.847 150.014C138.794 149.909 138.74 149.807 138.687 149.704C138.569 149.685 138.451 149.665 138.332 149.646C138.766 149.527 138.658 149.212 138.778 149.082C138.802 149.057 138.966 149.076 139.024 148.995C139.093 148.9 139.076 148.697 139.146 148.581C138.973 148.505 138.8 148.429 138.627 148.353C138.563 148.117 139.051 148.111 139.108 147.987C139.118 147.965 139.148 147.53 139.141 147.506C139.087 147.305 138.673 147.3 138.838 146.767C138.867 146.67 139.019 146.614 139.037 146.526C139.069 146.371 138.812 145.862 138.521 145.786C138.916 145.646 138.829 145.122 138.954 144.989C138.993 144.948 139.23 144.968 139.297 144.835C139.352 144.726 139.198 144.418 139.247 144.279C139.299 144.13 139.504 144.102 139.526 144.036C139.546 143.973 139.393 143.896 139.404 143.809C139.441 143.535 139.726 143.322 139.754 143.104C139.795 142.796 139.35 142.467 139.166 142.188C139.203 142.127 139.311 142.074 139.319 142.006C139.419 141.17 139.592 140.235 139.762 139.401C139.841 139.015 140.559 138.086 139.462 138.267C139.285 138.122 139.78 137.177 139.804 136.977C139.804 136.976 139.804 136.975 139.804 136.973C139.823 136.787 139.638 136.626 139.645 136.477C139.663 136.031 139.821 135.723 139.681 135.171C139.645 135.027 139.423 134.864 139.43 134.782C139.439 134.682 139.666 134.586 139.687 134.456C139.734 134.147 139.688 133.566 139.74 133.271C139.749 133.217 139.945 133.207 140.009 133.131C140.26 132.838 140.254 132.497 139.629 132.532C139.998 132.158 139.69 131.786 139.684 131.425C139.672 130.664 139.861 129.28 139.617 128.609C139.464 128.184 139.185 128.19 139.441 127.579C139.498 127.443 139.573 127.309 139.641 127.145C139.8 126.758 140.323 126.413 139.708 126.102C139.879 125.675 139.771 125.326 140.308 125.015C140.182 124.975 140.055 124.934 139.928 124.894C139.926 124.841 139.924 124.788 139.922 124.734C140.044 124.72 140.165 124.706 140.287 124.691C140.327 124.312 139.835 123.823 139.844 123.498C139.858 122.96 140.07 121.57 140.24 121.06C140.33 120.788 140.069 120.773 140.606 120.622C140.57 120.56 140.533 120.498 140.496 120.437C140.38 120.398 140.263 120.358 140.146 120.319C140.145 119.973 140.331 119.56 140.331 119.225C140.333 118.618 140.017 117.705 140.232 117.098C140.287 116.947 140.53 116.751 140.528 116.607C140.528 116.606 140.528 116.605 140.528 116.605C140.522 116.381 140.125 116.336 140.119 116.054C140.11 115.577 140.581 114.69 140.548 114.243C140.539 114.104 140.39 114.049 140.375 113.952C140.309 113.563 140.323 113.246 140.094 112.874C140.481 112.478 140.977 112.515 141.478 112.394C141.856 112.304 142.734 112.023 143.064 111.976C143.297 111.945 143.596 112.061 143.852 112.019C144.054 112.507 143.827 112.701 143.465 113.089C143.475 113.807 143.485 114.521 143.495 115.24C143.355 115.303 143.215 115.368 143.075 115.434C143.074 115.434 143.074 115.434 143.074 115.434C142.911 115.703 143.27 115.831 143.35 115.975C143.455 116.17 143.534 116.381 143.592 116.624C143.964 118.132 143.478 120.416 143.384 121.771C143.362 122.107 143.535 123.214 143.304 123.44C143.244 123.499 143.028 123.512 143.018 123.576C143.137 124.15 143.255 124.721 143.373 125.297C143.016 126.464 143.264 127.686 143.282 128.871C143.324 131.661 143.36 134.433 143.187 137.193C143.16 137.612 143.129 138.026 143.092 138.44C143.038 139.053 143.137 139.843 142.981 140.433C142.916 140.681 142.563 140.754 142.79 141.104C142.696 141.099 142.603 141.094 142.51 141.089C142.596 141.388 142.79 141.586 142.78 141.913C142.772 142.184 142.712 142.9 142.651 143.138C142.62 143.259 142.452 143.195 142.44 143.31C142.421 143.508 142.614 143.954 142.582 144.23C142.554 144.476 142.305 144.872 142.31 145.062C142.329 145.757 142.527 146.542 142.345 147.261C142.294 147.461 142.034 147.684 142.031 147.749C142.026 147.875 142.238 147.943 142.254 148.029C142.333 148.471 141.975 149.085 141.899 149.493C141.659 150.795 141.503 152.191 141.22 153.478C141.213 153.508 141.207 153.538 141.2 153.568C141.015 154.402 140.762 155.799 140.429 156.529C140.357 156.687 140.132 156.591 140.101 156.729C140.067 156.883 140.206 157.001 140.202 157.076C140.18 157.593 140.079 158.729 139.802 159.156C139.749 159.238 139.55 159.256 139.538 159.31C139.531 159.337 139.641 159.429 139.632 159.517C139.559 160.291 139.347 160.815 139.113 161.53C138.667 162.901 138.453 164.564 137.934 165.969C137.821 166.274 137.403 166.393 137.395 166.437C137.376 166.536 137.601 166.664 137.608 166.875C137.612 166.997 137.6 167.121 137.578 167.246C137.466 167.885 137.09 168.56 137.012 169.123C136.966 169.458 137.113 170.001 137.064 170.336C137.027 170.605 136.693 171.13 136.784 171.28C136.839 171.373 137.081 171.499 137.084 171.586ZM135.531 162.17C135.938 162.327 135.712 161.781 135.442 161.89C135.381 161.915 135.426 162.13 135.531 162.17ZM140.183 140.956C140.059 140.949 139.935 140.942 139.812 140.935C139.857 141 139.903 141.066 139.949 141.132C140.026 141.104 140.103 141.077 140.18 141.05C140.181 141.019 140.182 140.987 140.183 140.956Z" fill="#C9A16C"/>
<defs>
<linearGradient id="paint0_linear_4055_149" x1="98.1758" y1="18.0088" x2="98.1758" y2="179.355" gradientUnits="userSpaceOnUse">
<stop stop-color="#FFE8C9"/>
<stop offset="0.495192" stop-color="#FFEDAE"/>
<stop offset="1" stop-color="#FBC579"/>
</linearGradient>
</defs>
</svg>
