<svg width="195" height="200" viewBox="0 0 195 200" fill="none" xmlns="http://www.w3.org/2000/svg">
<path d="M12.5488 110.939C13.301 111.784 24.1865 119.935 29.497 123.796C27.4501 124.214 22.0388 127.521 21.1668 127.876C19.6613 128.587 17.5637 130.232 15.2253 132.432C12.9665 135.982 10.654 140.068 11.4318 144.794C12.051 148.557 11.9488 154.33 13.8696 157.089C17.5566 162.386 23.6156 171.087 25.6111 173.442C26.8291 174.88 32.7722 179.733 41.1646 185.071C44.4517 187.161 46.633 188.725 52.9351 189.048C64.2119 189.626 71.684 190.134 73.198 190.593L73.2028 190.594C75.1211 191.176 77.6128 191.931 85.2606 192.162C91.509 192.351 102.283 192.478 112.353 191.642C122.423 190.805 131.501 188.983 136.358 188.173C141.781 187.269 146.668 185.747 153.878 180.938C160.997 176.191 166.577 172.817 170.547 168.048C171.755 166.596 174.152 161.988 176.704 155.183C178.159 151.304 179.215 147.705 178.403 144.003C177.355 139.233 175.895 133.427 173.845 131.543C173.168 130.92 168.929 128.975 161.42 127.361C154.628 125.901 150.333 125.75 149.472 125.076C149.239 124.894 149.58 124.491 150.15 124.396C151.418 124.184 155.304 124.384 161.724 120.047C168.068 115.76 172.817 112.406 174.433 111.001C175.5 110.072 176.858 108.879 178.789 105.811C181.962 100.772 185.548 95.4132 185.923 90.0654C186.34 84.1392 186.201 79.7142 184.664 76.2674C182.094 70.5044 180.576 66.2984 178.927 62.2069C175.098 52.7048 172.576 46.065 172.294 44.8396C171.971 43.435 171.699 41.9331 169.839 38.9232C162.955 27.783 162.222 25.4909 159.296 24.4436C154.158 22.6044 145.862 23.6572 142.059 19.7332C135.918 13.3961 131.353 8.18368 126.392 7.74117C122.391 7.38416 119.16 6.83404 110.134 7.17929C102.009 7.49014 87.1099 8.23789 79.3376 8.74576C70.9249 9.29548 69.4766 9.49503 65.7498 11.1783C57.5064 14.9016 51.6669 17.3653 50.5793 17.7659L50.546 17.7781C49.5951 18.1282 47.6471 18.8452 44.8002 21.3613C40.6798 25.0029 36.1835 30.3124 30.2534 37.0794C26.775 41.0487 22.246 45.9044 19.1631 49.6454C16.0802 53.3865 14.333 55.8577 13.5196 57.7137C11.4354 62.4696 9.77309 66.1069 10.1811 76.3231C10.4707 83.5731 11.1019 96.612 11.5398 103.35C11.9776 110.088 12.1883 110.534 12.5488 110.939Z" fill="url(#paint0_linear_4055_479)" stroke="#361700" stroke-width="5" stroke-linecap="round"/>
<path d="M160.961 123.595C160.51 123.784 159.804 123.855 159.252 124.03C156.942 124.752 156.052 124.913 153.892 125.437C153.01 125.634 151.764 125.997 150.032 126.198L150.141 126.184C146.422 126.865 141.271 127.758 141.108 126.898C141.108 126.898 141.108 126.898 141.108 126.898C141.106 126.887 141.106 126.876 141.106 126.864C141.117 126.649 141.889 126.287 141.964 126.025C142.039 125.765 141.686 124.241 142.775 123.95C144.366 123.541 148.324 123.155 149.214 122.975C149.343 122.948 149.46 122.919 149.616 122.882L149.68 122.874C150.119 122.783 150.654 122.588 151.219 122.445C153.522 121.832 154.8 121.535 156.782 120.503C157.688 120.426 158.587 120.339 159.496 120.24C160.56 119.774 162.303 119.422 162.959 119.156C163.496 118.94 163.755 118.668 164.313 118.443C164.939 118.189 165.969 117.969 167.094 117.471C168.938 116.65 169.086 116.115 170.158 115.571C170.975 115.152 172.19 114.702 173.289 114.134L173.181 114.196C173.567 113.953 173.936 113.704 174.267 113.447C174.413 113.299 174.558 113.152 174.699 113.006C174.523 112.994 174.346 112.983 174.168 112.973C174.816 112.501 175.226 112.492 175.837 112.094C176.557 111.623 176.797 111.21 177.261 110.885C177.639 110.619 178.238 110.384 178.695 110.011C179.355 109.468 179.056 109.401 179.367 109.079C179.576 108.978 181.597 106.611 181.592 106.436C182.274 105.364 182.59 105.403 183.031 104.429C183.201 104.025 183.343 103.602 183.462 103.163C184.168 100.495 184.422 97.5432 184.641 94.9315C184.755 93.5525 184.898 92.1161 185.029 90.7427C185.727 92.9807 186.63 88.1603 185.248 89.9158C185.5 88.3859 185.168 87.2901 185.207 85.8468C185.227 84.9123 185.39 84.2573 185.295 82.9273C185.136 80.5464 184.186 78.1714 184.929 77.3304C184.731 76.6278 184.547 75.9505 184.357 75.3345C183.817 73.5984 183.279 72.1528 182.461 71.6702C182.16 71.0091 181.915 69.0894 181.657 68.2996C181.44 67.5506 179.241 61.951 178.829 61.0512C178.435 60.1472 177.728 58.5755 177.312 57.851C176.792 56.9424 175.725 56.6429 175.818 54.5431C175.407 53.7541 175.112 53.1715 174.853 52.6267C174.484 51.854 174.193 51.1656 173.725 50.0899C173.58 49.7583 173.693 49.6582 173.596 49.4695C173.398 49.0849 172.96 48.4785 172.58 47.8102C171.954 46.708 171.851 45.9354 171.516 46.2915C171.031 45.611 170.534 44.9413 170.025 44.2826C169.949 43.9915 169.864 43.6922 169.783 43.4016C169.458 43.0826 169.131 42.7707 168.799 42.4585C169.666 42.5009 167.528 40.1714 167.8 41.2285C166.981 39.8504 166.101 38.4972 165.167 37.1746C165.921 36.8334 162.88 34.4469 162.783 34.9917C162.658 34.8574 162.533 34.7229 162.406 34.5882C161.999 34.0336 161.551 33.547 161.064 33.0577C160.397 32.3881 159.68 31.7129 158.911 30.8609C157.57 29.3835 157.75 29.4624 157.552 28.788C157.194 28.4824 156.836 28.1803 156.475 27.8796C153.996 26.9877 155.468 25.9292 151.704 23.9137C151.027 22.5991 148.1 20.9619 146.103 20.1016C145.871 19.9981 145.81 20.0996 145.498 19.9728C145.144 19.8279 144.572 19.5176 144.04 19.273C143.402 18.9784 142.849 18.7635 142.791 18.9642C142.169 18.5349 141.551 18.1071 140.937 17.6817C140.356 17.4734 139.786 17.271 139.207 17.0642C139.157 17.1729 139.107 17.2816 139.057 17.3904C138.139 16.4846 136.346 15.7795 135.537 15.2755C135.375 15.174 135.419 15.0119 134.906 14.7111C134.32 14.3654 133.142 13.8457 132.434 13.4453C132.066 13.4703 131.708 13.5001 131.339 13.5247C129.982 12.9805 129.734 12.3278 128.977 11.9263C128.837 11.8484 126.286 10.695 126.144 10.6478C125.031 10.2646 125.017 10.5668 122.119 9.43509C122.113 9.43295 122.106 9.43064 122.098 9.42819C121.681 9.30976 121.157 9.0964 120.619 9.02541C119.654 8.88034 116.609 9.00303 116.356 9.29653C115.159 8.84732 111.867 8.89888 110.903 8.78272C110.612 8.74508 110.561 8.50504 109.65 8.44425C108.93 8.39339 107.044 8.57856 106.117 8.5545C105.144 8.52621 104.772 8.33215 104.341 8.32353C103.93 8.31602 103.537 8.48321 102.975 8.49289C101.199 8.52111 99.5962 8.3104 98.1923 8.35717C96.1667 8.42435 94.3875 8.98782 92.7185 9.29224C92.291 9.28494 91.8796 9.20597 91.4395 9.23119C90.5374 9.28239 89.6397 9.33511 88.7017 9.39279C84.0053 9.68174 78.9936 10.114 74.5517 10.858C73.6366 11.0109 72.2114 11.1997 70.8979 11.4762C68.6613 11.947 66.6816 12.6459 67.8863 12.9561C67.1171 13.3394 61.0562 15.1886 59.9469 15.718C58.8368 16.1904 58.0424 16.7621 57.1794 17.1644C54.5909 18.3819 52.7008 19.1596 49.7023 20.9609C48.9291 21.4281 48.1915 22.0999 47.7271 22.3578C47.1582 22.6728 46.4544 22.8171 45.7197 23.2265C44.451 23.9318 42.4454 25.1709 40.8268 26.1951C40.2227 26.576 39.6755 26.9263 39.2418 27.1988C38.9468 27.3842 38.7423 27.2851 38.2965 27.5121C36.562 28.3818 34.8823 29.719 35.5651 29.9788C33.4334 31.1819 32.01 32.9363 30.5585 34.5884C30.0142 35.2059 29.4073 35.9291 28.7757 36.74C25.6852 40.6718 21.6878 46.0145 19.975 49.0498C18.6666 51.3733 18.8999 51.4401 16.7569 54.6668C16.2892 55.3896 15.8188 56.1035 15.2927 56.997C14.2492 58.7668 13.1248 60.3825 12.821 62.016C12.77 62.2979 12.7412 62.5931 12.7471 62.878C11.7846 65.3385 11.4714 67.4772 10.6049 69.3738C10.6905 69.6324 10.7783 69.8859 10.8673 70.14C10.8183 70.4719 10.7729 70.7977 10.729 71.1301C10.594 71.2166 10.4591 71.3044 10.3247 71.3901C9.95646 73.7684 10.2218 76.8557 10.149 78.8782C10.0537 80.9268 9.96652 84.9328 10.1273 88.5142C10.2232 90.9233 10.3178 93.1046 10.3865 94.3889C10.4814 96.1056 10.7606 96.1453 10.3739 97.1861C10.469 97.5525 10.5703 97.9199 10.6775 98.2789C10.837 98.4871 10.998 98.6877 11.1621 98.8876C11.4924 100.394 11.9326 102.033 12.6636 103.356C12.9526 103.882 13.2492 104.387 13.5435 104.845C15.5256 108.091 19.5247 112.028 22.4572 114.331C23.1754 114.931 24.024 115.79 24.8183 116.27C25.9801 116.961 26.4563 116.779 27.973 117.537C29.3152 118.2 31.2522 119.163 33.2626 119.953C35.0951 120.683 37.0966 121.17 38.4576 121.382C39.2888 121.509 39.6994 121.416 40.2771 121.48C42.7003 121.737 44.7148 121.922 47.076 121.836C49.5824 122.359 49.3503 122.827 50.1223 123.36C50.7085 123.761 52.543 124.675 52.8064 125.006C52.9896 125.241 52.2906 125.531 52.5496 125.79C49.4156 125.938 48.1096 125.646 45.605 125.119C41.1631 124.789 36.7097 124.352 32.2593 122.932C32.0389 122.859 31.8204 122.784 31.6037 122.709C31.246 122.435 30.8831 122.153 30.5338 121.87C30.5339 121.87 30.534 121.869 30.5341 121.869C28.906 121.066 28.0659 121.067 27.1381 120.723C21.6621 118.878 13.8672 112.766 9.78973 105.05C6.89984 99.6161 7.26927 94.2222 6.89398 90.3367C6.86984 89.9387 6.82945 89.391 6.77953 88.7365C6.51501 85.7541 6.41537 80.7107 6.66755 79.4755C6.73872 79.0889 6.95783 78.9833 6.98361 78.5696C7.0086 74.8535 7.25574 71.127 7.84234 67.4095C8.363 65.2419 8.94783 63.0642 9.7329 60.9085C11.6932 55.6177 14.4806 50.719 17.4958 46.1527C20.164 42.1395 23.0227 38.2971 25.9177 34.518C29.405 29.8339 34.1328 26.1457 38.9152 23.1477C47.5029 17.7263 56.5179 12.9658 66.1812 9.69318C67.3965 9.29019 68.7264 8.8616 70.1207 8.48094C73.0943 7.67371 76.2385 7.12195 78.8686 6.84478C80.4858 6.68004 81.1891 6.94261 83.2727 6.47413C83.3037 6.56471 83.3347 6.6553 83.3657 6.7459C85.1937 6.45734 86.3521 6.14831 88.4175 5.98279C88.4345 5.98146 88.4517 5.98011 88.4693 5.97874C90.2365 5.83201 94.7629 5.56895 96.2826 5.54776C97.079 5.53198 96.7798 5.71852 97.5307 5.68796C98.7912 5.63361 101.507 5.30919 103.263 5.28149C104.851 5.24972 107.547 5.43681 108.766 5.41875C113.241 5.39859 117.763 5.01532 123.005 6.00414C123.02 6.00842 123.036 6.0128 123.051 6.01729C124.595 6.50559 125.898 7.38632 126.301 7.54425C127.04 7.858 127.345 7.75776 127.847 7.95617C130.383 8.96069 134.046 11.0314 136.417 12.2018C139.343 13.6468 142.344 15.1191 145.359 16.5899C150.501 19.0567 155.073 22.6399 158.988 26.3064C160.299 27.5254 161.857 29.0289 163.468 30.634C166.89 33.9928 170.189 38.2054 171.983 41.1542C172.561 42.0963 172.199 41.9812 172.692 42.758C173.234 43.6223 173.656 44.0205 173.91 44.4244C174.898 45.983 176.418 48.6902 177.673 51.2706C178.677 53.3087 179.589 55.2708 180.093 56.5332C180.312 57.0802 180.317 57.5405 180.465 57.8605C180.539 58.0217 180.822 58.331 181.066 58.833C183.199 63.2671 184.584 66.5746 186.264 71.1493C186.643 72.2032 187.023 73.2925 187.364 74.4286C189.76 82.9763 189.251 92.5589 187.578 101.08C187.307 102.368 186.914 103.369 186.619 104.03C186.423 104.474 186.268 104.754 186.23 104.874C186.002 105.535 186.115 106.066 185.479 107.401C183.397 111.777 178.118 114.535 174.807 116.769L174.692 116.835C174.443 116.969 174.196 117.103 173.952 117.234C172.106 118.238 169.609 119.69 167.734 120.532C166.242 121.224 162.583 122.47 161.941 122.835C161.552 123.064 161.454 123.386 160.961 123.595ZM185.382 81.4961C185.86 81.721 185.129 78.8808 185.042 79.9928C185.029 80.2381 185.267 81.4337 185.382 81.4961ZM84.1027 9.0159C84.1419 9.13645 84.1811 9.25701 84.2202 9.37759C84.6031 9.29 84.9941 9.20315 85.3803 9.11815C85.1521 9.06321 84.9297 9.00821 84.6993 8.95438C84.4986 8.97467 84.3034 8.99484 84.1027 9.0159Z" fill="#361700"/>
<path d="M46.3026 126.365C46.787 125.999 47.59 125.675 48.191 125.319C50.6944 123.847 51.7874 123.47 53.8578 122.33C54.0186 122.239 54.1861 122.139 54.3261 122.046L54.8948 121.769C56.9629 121.14 60.4036 120.142 63.1615 119.237L63.2161 119.217C66.3089 118.323 68.7318 118.01 68.8811 118.501C68.8811 118.501 68.8811 118.501 68.8811 118.501C68.8839 118.512 68.8858 118.523 68.8865 118.534C68.902 118.752 68.0433 119.224 67.9697 119.495C67.8997 119.766 68.3993 121.251 67.1344 121.689C66.4493 121.924 65.3933 122.185 64.3277 122.493L64.3671 122.479C62.4477 123.098 60.3939 123.559 59.7698 123.768C59.0884 123.993 58.288 124.387 57.4253 124.679C56.8949 124.859 56.413 125.018 55.9636 125.166L56.3462 124.98C54.4617 126.222 53.2443 126.761 51.5715 128.104C50.5737 128.446 49.5857 128.809 48.6158 129.208C47.5406 130.015 45.7941 131.045 45.2232 131.614C44.749 132.069 44.5918 132.452 44.1543 132.949C43.6746 133.506 42.7978 134.297 42.2931 135.501C42.2131 135.693 42.1517 135.873 42.1047 136.041C41.8094 137.212 42.1532 137.611 42.3752 138.155C42.4606 138.366 42.5429 138.599 42.6215 138.87C43.0203 140.27 43.4258 142.513 44.2495 144.142C44.377 144.335 44.5066 144.526 44.638 144.714C44.6705 144.525 44.7047 144.336 44.7411 144.149C45.1289 144.953 45.0936 145.389 45.4603 146.114C45.9008 146.959 46.3294 147.251 46.6706 147.753C46.9507 148.162 47.2332 148.795 47.675 149.238C48.3237 149.867 48.3468 149.541 48.7235 149.8C48.7519 149.819 48.8707 149.905 49.0484 150.019C49.5706 150.395 52.3497 151.439 52.4941 151.487C54.1691 152.138 54.2113 152.49 55.5696 153.026C59.3423 154.497 63.394 155.641 66.9848 156.837C67.0429 156.856 67.1011 156.876 67.1595 156.895C68.7453 157.429 70.3073 158.059 71.7955 158.663C69.0432 158.523 74.2773 161.135 72.6779 159.175C74.3535 159.977 75.6887 160.064 77.3188 160.629C78.3759 160.99 79.0663 161.383 80.6124 161.778C83.359 162.486 86.4696 162.49 87.1376 163.512C90.4485 163.853 93.3303 164.339 94.5574 163.577C94.8659 163.571 95.3415 163.641 95.8837 163.73C96.8576 163.888 97.9947 164.123 98.6171 164.176C99.5523 164.272 106.667 164.546 107.831 164.515C108.992 164.514 111.027 164.474 111.994 164.359C113.22 164.215 114.007 163.347 116.24 164.152C118.736 163.841 119.625 163.765 121.918 163.462C122.325 163.403 122.409 163.533 122.647 163.483C123.135 163.379 123.947 163.082 124.787 162.818C126.16 162.386 127.02 162.322 126.695 161.955C126.932 161.833 127.178 161.699 127.405 161.566C128.032 161.207 128.632 160.859 129.256 160.499C129.614 160.427 129.959 160.362 130.323 160.288C130.769 159.963 131.194 159.647 131.64 159.32C131.377 160.208 134.574 158.187 133.307 158.377C135.102 157.644 136.893 156.892 138.662 156.106C138.79 156.935 142.421 154.132 141.852 153.951C142.044 153.84 142.232 153.729 142.417 153.62C144.155 152.811 145.559 151.746 147.359 150.452C149.106 149.112 148.912 149.269 149.626 149.004C149.923 148.599 150.169 148.183 150.333 147.769C150.343 147.347 150.312 147.07 150.301 146.858C150.223 145.262 151.659 144.843 150.58 141.013C150.639 140.745 150.649 140.413 150.599 140.047C150.33 138.273 148.715 135.549 147.621 133.706C147.465 133.445 147.356 133.492 147.141 133.149C146.617 132.303 145.578 129.997 145.276 130.251C145.022 129.574 144.748 128.865 144.491 128.2L145.534 128.819C145.505 128.816 145.482 128.814 145.461 128.811C145.438 128.81 145.485 128.81 145.392 128.806C145.382 128.806 145.37 128.805 145.345 128.803C145.298 128.792 145.344 128.827 145.047 128.739C144.958 128.682 144.801 128.734 144.444 128.256C144.267 128.021 144.196 127.468 144.367 127.147C144.518 126.83 144.693 126.718 144.791 126.648C145.175 126.432 145.171 126.497 145.237 126.471C145.325 126.456 145.336 126.458 145.356 126.456C145.403 126.453 145.386 126.455 145.398 126.455C145.41 126.455 145.418 126.455 145.426 126.455C145.504 126.458 145.51 126.463 145.56 126.468C145.645 126.476 145.712 126.486 145.793 126.495C146.525 126.427 147.262 126.373 147.988 126.325C147.988 126.205 147.988 126.086 147.988 125.966C149.445 126.412 151.759 126.392 152.888 126.591C153.113 126.631 153.148 126.797 153.846 126.908C154.66 127.037 156.194 127.167 157.164 127.37C157.57 127.247 157.982 127.129 158.398 127.016C160.12 127.233 160.666 127.832 161.601 128.165C161.64 128.179 161.678 128.192 161.718 128.205C161.919 128.224 165.18 129.362 165.34 129.464C166.751 130.047 166.616 129.263 170.456 131.7C171.129 132.166 171.579 132.674 172.153 133.161C172.474 133.436 173.022 133.875 173.595 134.443C174.497 135.285 176.036 136.244 176.301 136.216C177.166 137.393 180.371 140.062 181.039 141.309C181.241 141.657 181.141 141.833 181.712 142.946C182.155 143.688 183.045 146.02 182.629 147.604C182.602 147.747 182.574 147.882 182.545 148.003C182.258 149.183 181.951 149.555 181.807 150.069C181.667 150.56 181.702 151.053 181.509 151.719C180.9 153.801 180.001 155.552 179.371 157.127C178.456 159.405 177.951 161.576 177.123 163.522C176.844 163.964 176.501 164.357 176.221 164.825C174.141 168.274 171.366 171.857 167.552 174.311C165.209 175.805 162.881 177.268 160.636 178.63C158.065 180.26 151.142 183.445 153.427 183.383C152.636 184.146 145.379 187.206 143.857 187.546C142.42 188.034 141.294 188.54 140.092 188.797C139.28 188.968 138.507 189.085 137.751 189.16C135.337 189.397 133.139 189.578 129.892 190.005C128.814 190.147 127.665 190.474 127.023 190.523C126.248 190.582 125.398 190.426 124.391 190.485C121.992 190.635 117.534 190.964 115.228 191.015C114.805 191.026 114.656 190.837 114.05 190.799C111.7 190.654 109.084 190.731 109.561 191.343C107.084 191.109 104.765 191.301 102.464 191.377C101.976 191.394 101.487 191.405 100.995 191.405C95.1095 191.442 84.4356 190.902 79.3233 190.885C76.0962 190.881 76.1625 191.17 71.4432 190.647C70.4015 190.53 69.3506 190.392 68.0887 190.247C65.1114 189.904 62.4118 189.198 60.0998 189.654C59.3863 189.568 58.7049 189.496 58.066 189.431C55.6015 189.181 53.4785 188.86 51.5956 188.053C51.2738 188.118 50.9533 188.18 50.6284 188.237C50.2102 188.146 49.7928 188.049 49.3826 187.946C49.2814 187.794 49.1833 187.643 49.0882 187.491C46.8951 186.909 43.9011 186.024 42.009 185.146C41.3992 184.916 40.7624 184.659 40.2204 184.393C36.0299 182.662 27.7162 175.562 25.022 172.671C23.7154 171.342 23.3739 171.275 22.9567 170.418C22.9042 170.309 22.8511 170.187 22.7956 170.048C22.4334 169.748 22.0778 169.453 21.7149 169.15C21.423 169.028 21.1388 168.913 20.8434 168.787C18.9298 166.913 16.81 164.514 15.0607 162.616C12.8494 159.855 8.77862 157.127 7.94758 151.265C7.94906 149.874 7.96291 148.539 8.03123 147.342C8.09737 146.157 8.38169 144.669 8.48005 143.48C8.67181 141.737 8.19275 141.283 8.95653 138.863C9.11711 138.425 9.33035 137.941 9.64391 137.433C11.6109 134.249 14.9918 129.349 17.5067 127.081C18.3121 126.319 18.6473 125.877 19.2991 125.406C20.0593 124.868 20.8614 124.429 21.6988 124.101C23.5713 123.363 25.3175 122.715 27.2605 121.927C30.3351 121.383 30.2248 121.968 31.2711 122.196C32.0425 122.364 34.4947 122.715 34.583 123.103C34.5945 123.22 34.6031 123.349 34.5218 123.493C34.4516 123.637 34.3686 123.79 34.4977 123.901C31.387 124.713 29.7245 125.066 26.8755 125.594C25.5088 126.05 24.1502 126.533 22.8015 127.042C19.6413 128.262 17.2646 131.562 15.1768 134.817C14.7968 135.152 14.4184 135.494 14.0413 135.84C14.041 135.84 14.0407 135.84 14.0405 135.839C12.9909 137.287 12.7386 138.2 12.3612 139.066C12.3188 139.177 12.2756 139.293 12.23 139.412C11.2601 141.989 11.4982 146.471 11.5135 151.273C12.7853 156.646 20.3287 163.225 25.0768 168.233C27.1813 170.337 29.1661 172.198 30.9548 173.748C32.807 175.519 39.5355 180.131 41.0059 180.917C41.3709 181.172 41.3805 181.417 41.8024 181.631C42.293 181.849 42.7931 182.053 43.3117 182.268C46.7212 183.975 50.1649 184.851 53.8276 185.343C55.3028 185.643 56.7921 185.853 58.3191 185.991C65.7248 186.661 73.3224 186.96 80.7306 187.28C88.0011 187.592 95.2567 187.798 102.468 187.769C114.178 187.722 125.809 186.937 137.362 185.618C142.059 185.075 146.655 182.913 151.057 180.541C155.058 178.377 159.89 175.11 163.733 172.735C164.529 172.243 165.131 171.964 165.784 171.608C166.383 171.285 167.024 170.861 167.81 169.997C167.89 170.051 167.97 170.104 168.05 170.158C169.479 168.702 170.187 167.581 171.535 165.714C172.734 164.184 175.217 159.587 175.895 157.963C176.273 157.139 176.301 157.516 176.627 156.731C177.196 155.385 178.018 152.371 178.539 150.444C178.808 149.495 179.203 148.183 179.49 146.982C179.677 146.286 179.57 145.59 179.391 145.132C178.197 142.146 174.399 140.134 171.002 136.735C170.328 135.995 169.437 135.293 168.493 134.649C167.357 133.856 165.789 132.827 165.371 132.646C164.561 132.285 164.229 132.387 163.672 132.189C162.805 131.885 161.791 131.523 160.725 131.201C158.339 130.481 155.373 129.986 153.273 129.785C151.98 129.661 150.661 129.571 149.34 129.509C148.676 129.478 148.01 129.455 147.348 129.439C147.005 129.431 146.688 129.425 146.347 129.421C146.186 129.42 146.027 129.418 145.852 129.418C145.781 129.418 145.679 129.418 145.615 129.418C145.567 129.419 145.535 129.419 145.505 129.419C145.499 129.419 145.494 129.42 145.522 129.419C145.526 129.419 145.53 129.418 145.537 129.418C145.554 129.414 145.498 129.431 145.754 129.393C145.798 129.385 145.852 129.376 145.97 129.341C146.031 129.321 146.109 129.297 146.237 129.234C146.368 129.16 146.556 129.09 146.852 128.733C147.157 128.435 147.388 127.441 147.067 126.881C146.782 126.314 146.492 126.184 146.34 126.081C146.019 125.907 145.932 125.912 145.847 125.885C145.582 125.832 145.603 125.849 145.559 125.843C145.505 125.839 145.5 125.84 145.491 125.84C145.479 125.839 145.486 125.839 145.485 125.839C145.489 125.839 145.508 125.84 145.534 125.839L146.578 125.829L147.106 126.772C149.249 130.827 151.447 134.592 153.148 139.295C153.944 142.136 153.717 144.767 153.431 147.243C153.292 148.339 152.843 149.257 152.35 150.006C147.586 156.155 137.711 160.082 132.37 162.711C131.203 163.236 131.405 162.871 130.44 163.334C129.609 163.732 129.128 164.066 128.71 164.32C128.577 164.4 128.449 164.471 128.322 164.531C124.519 166.56 115.801 167.514 112.151 167.433C111.456 167.43 110.935 167.258 110.525 167.271C110.316 167.277 109.836 167.419 109.179 167.446C104.181 167.638 100.362 167.522 95.7995 167.382C95.0072 167.357 94.2041 167.319 93.3688 167.266C84.4609 166.87 74.509 164.041 65.8395 160.547C63.6603 159.757 61.503 158.975 59.3907 158.192C57.0561 157.328 55.5774 156.393 55.2425 156.273C54.5159 156.014 53.9645 156.083 52.4772 155.583C50.7604 154.961 49.0089 154.445 46.8731 153.099C43.0733 150.3 41.5955 145.923 40.4676 142.805C40.0657 141.646 39.5996 140.28 39.1812 138.909C38.7914 137.667 38.8761 136.138 39.2356 135.041C39.4042 134.481 39.6169 133.967 39.8457 133.512C40.7867 131.231 44.6722 128.089 45.3321 127.526C45.7249 127.134 45.7769 126.764 46.3026 126.365ZM82.2127 162.381C81.7911 162.746 85.2883 163.104 84.0481 162.612C83.7704 162.508 82.3244 162.295 82.2127 162.381ZM170.069 171.469C170.178 171.536 170.288 171.602 170.399 171.668C170.723 171.29 171.036 170.902 171.333 170.51C171.091 170.659 170.845 170.806 170.598 170.947C170.425 171.124 170.249 171.296 170.069 171.469Z" fill="#361700"/>
<path d="M94.5793 134.16C94.3248 134.162 94.0016 133.96 93.7087 133.912C92.4997 133.708 92.0727 133.52 90.9971 133.245C90.3683 133.081 89.2337 132.848 88.0984 132.465L88.0037 132.434C87.3849 132.194 86.748 131.883 86.2736 131.58C85.3782 131.038 84.7854 130.347 85.0443 129.999C85.0443 129.999 85.0444 129.999 85.0444 129.999C85.0504 129.99 85.0569 129.981 85.064 129.972C85.1971 129.805 85.6801 129.831 85.8545 129.65C86.0285 129.468 86.7938 128.112 87.2408 128.247C87.3706 128.288 87.5281 128.361 87.717 128.458C88.1657 128.694 88.6731 129.006 89.1252 129.241L89.0652 129.222C89.4014 129.378 89.6887 129.498 89.8261 129.528C90.103 129.587 90.4745 129.532 90.8327 129.587C91.9867 129.76 92.5845 129.971 93.6747 129.746C94.0622 130.009 94.4496 130.266 94.8501 130.517C95.4083 130.488 96.2215 130.828 96.5622 130.834C96.8397 130.84 97.01 130.689 97.2978 130.696C97.6174 130.702 98.1087 130.895 98.6963 130.873C99.6606 130.833 99.8177 130.401 100.381 130.325C100.961 130.245 101.892 130.403 102.614 130.16C102.701 130.102 102.787 130.044 102.872 129.985C102.792 129.891 102.713 129.796 102.634 129.7C102.991 129.604 103.179 129.792 103.515 129.741C103.909 129.68 104.07 129.441 104.328 129.389C104.541 129.347 104.863 129.443 105.136 129.366C105.531 129.253 105.384 129.046 105.583 128.947C105.596 128.941 105.646 128.921 105.722 128.892C106.169 128.727 107.327 128.307 107.401 128.282C108.103 128.067 108.253 128.357 108.819 128.208C110.381 127.794 111.814 126.955 113.074 126.242C113.639 125.924 114.244 125.633 114.833 125.362C114.326 126.592 116.658 126.009 115.261 125.321C115.979 125.117 116.235 124.546 116.83 124.221C117.22 124.006 117.576 123.98 118.084 123.602C118.997 122.924 119.589 121.747 120.442 122.218C121.338 121.22 122.397 120.608 122.138 119.703C122.183 119.64 122.264 119.577 122.367 119.512C122.744 119.27 123.389 119.024 123.634 118.831C123.951 118.603 125.986 116.576 126.267 116.2C126.568 115.842 127.068 115.198 127.237 114.837C127.453 114.38 126.945 113.649 128.235 113.461C128.702 112.565 128.901 112.276 129.428 111.507C129.522 111.367 129.661 111.415 129.705 111.327C129.794 111.145 129.844 110.788 129.971 110.457C130.18 109.913 130.575 109.704 130.113 109.604C130.169 109.222 130.208 108.845 130.227 108.475C130.348 108.376 130.468 108.273 130.585 108.169C130.534 107.955 130.477 107.745 130.413 107.542C131.058 107.886 130.839 106.466 130.395 106.869C130.483 106.596 130.557 106.32 130.616 106.041C130.695 105.575 130.774 105.115 130.851 104.655C131.626 104.759 130.92 102.898 130.501 103.065C130.5 102.973 130.499 102.881 130.498 102.791C130.688 101.99 130.504 101.266 130.601 100.299C130.696 99.3307 130.772 99.4222 131.11 99.105C131.076 98.8787 131.042 98.6555 131.005 98.4296C129.935 97.3385 131.668 97.371 130.647 95.4669C131.163 94.7388 130.528 93.2094 130.007 92.3347C129.948 92.2309 129.836 92.2707 129.748 92.138C129.547 91.8142 129.279 90.8984 128.948 91.1093C128.902 90.78 128.839 90.451 128.755 90.1222C128.705 90.0779 128.655 90.0345 128.605 89.9919C128.438 89.8434 128.265 89.687 128.096 89.5382C127.999 89.608 127.902 89.6779 127.805 89.7477C127.803 89.0316 127.138 88.3821 126.945 87.9645C126.906 87.8803 127.026 87.7647 126.893 87.5158C126.737 87.2215 126.323 86.7706 126.119 86.4364C125.881 86.4328 125.643 86.4303 125.408 86.4319C124.893 85.9643 125.103 85.4715 124.861 85.1355C124.823 85.0744 123.899 84.1023 123.839 84.0606C123.372 83.6913 123.206 84.0774 122.067 82.8356C121.862 82.6153 121.784 82.346 121.587 82.1559C121.245 81.8133 119.941 81.1136 119.663 81.2782C119.465 80.617 118.146 79.7973 117.837 79.4548C117.744 79.3487 117.859 79.1365 117.537 78.8528C117.408 78.739 117.14 78.6005 116.854 78.4595C116.56 78.3134 116.247 78.161 116.067 78.0279C115.686 77.7455 115.651 77.4898 115.476 77.3658C115.314 77.251 115.072 77.2921 114.841 77.1527C114.12 76.7153 113.579 76.1157 112.991 75.799C112.138 75.3392 111.165 75.4029 110.365 75.2848C110.2 75.1789 110.064 75.0097 109.875 74.9306C107.551 73.9406 104.834 73.1529 102.371 73.0094C101.25 72.855 98.2908 72.6844 99.2408 73.6319C99.1088 73.7293 98.6161 73.7994 98.0266 73.9031C96.9736 74.0957 95.6481 74.2863 95.2954 74.3809C94.7197 74.5343 94.3209 74.8486 93.8741 74.9797C92.5273 75.3772 91.5366 75.5227 89.9689 76.2007C89.5651 76.3766 89.193 76.7416 88.9476 76.8213C88.6544 76.9158 88.2657 76.8137 87.8799 76.9341C86.9636 77.2154 85.334 77.9169 84.5073 78.2454C84.3553 78.3038 84.2255 78.1477 83.9856 78.1893C83.0547 78.3428 82.1794 78.8495 82.6391 79.3084C82.2307 79.3869 81.883 79.5485 81.5897 79.7474C80.9811 80.1593 80.4893 80.6648 79.9533 81.0805C78.4441 82.183 76.2291 84.2652 75.2115 86.1089C74.9732 86.5106 74.7756 86.8698 74.6195 87.1894C74.0502 88.3719 74.293 88.488 73.1018 89.9675C72.8399 90.2969 72.5663 90.6152 72.2603 91.0197C71.5485 91.9555 70.5852 92.694 70.78 93.7513C70.0982 94.8399 69.8695 95.7889 69.0958 96.5232C69.1867 96.6649 69.2794 96.8042 69.3738 96.9411C69.3366 97.0872 69.3016 97.233 69.2687 97.3786C69.1395 97.3945 69.0103 97.4115 68.8809 97.4296C68.5811 98.5 68.9223 99.9139 68.912 100.794C68.8921 101.467 68.8922 102.623 69.0328 103.854C69.2135 105.482 69.4285 107.153 69.5245 108.014C69.6163 108.846 69.8826 108.826 69.4724 109.414C69.5525 109.586 69.6337 109.757 69.7157 109.928C69.858 110.011 70.0005 110.093 70.1433 110.174C70.4145 111.19 70.6104 112.43 70.9616 113.358C71.5777 115.076 73.0693 117.265 73.9856 118.69C74.2078 119.057 74.3836 119.623 74.6847 119.924C75.0718 120.308 75.4165 120.202 75.8852 120.496C75.9568 120.542 76.0314 120.595 76.1094 120.659C77.2415 121.591 79.1168 123.636 80.2765 124.401C80.6129 124.627 80.8597 124.617 81.1001 124.763C82.1085 125.37 82.9213 125.907 83.9807 126.242C84.8056 127.135 84.5018 127.511 84.6257 128.126C84.7067 128.589 85.2258 129.73 85.517 130.08C85.6504 130.338 85.0049 130.529 85.1703 130.819C82.9694 130.381 82.7567 129.801 81.7679 128.858C79.7398 127.665 77.8634 126.321 76.0448 124.928C75.9616 124.687 75.8906 124.454 75.8121 124.214C75.8123 124.213 75.8125 124.213 75.8127 124.213C75.2274 123.544 74.7155 123.589 74.2958 123.351C74.1274 123.255 73.953 123.151 73.7729 123.038C68.8817 120.275 66.5776 111.148 66.0247 106.55C65.9531 106.114 65.7806 105.276 65.6224 104.394C65.3706 103.057 65.3087 101.566 65.45 101.104C65.5096 100.901 65.7255 100.847 65.7397 100.635C65.6544 98.7317 65.8907 96.786 66.3809 94.9308C67.9574 91.3181 69.8234 87.9218 71.8284 84.7523C71.9604 84.5456 72.0942 84.3374 72.2296 84.1274C74.099 81.1504 76.8543 78.6799 79.6399 76.8299C85.3633 73.3477 91.2435 72.0242 97.0923 70.3857C97.4901 70.2815 97.8829 70.1923 98.2856 70.1149C100.338 69.6901 103.048 69.5136 105.044 69.9415C105.877 70.1166 106.146 70.5132 107.268 70.5202C107.256 70.6134 107.245 70.7066 107.233 70.7997C108.175 70.9261 108.822 70.8993 109.834 71.2344C110.695 71.499 112.857 72.4345 113.527 72.832C113.879 73.0295 113.667 73.1171 114 73.288C114.571 73.577 115.882 74.032 116.636 74.4913C117.198 74.8278 117.99 75.4878 118.536 75.8846C118.659 75.9725 118.769 76.0481 118.863 76.105C120.773 77.2546 122.872 78.573 124.532 80.2921C124.993 80.7655 125.417 81.5252 125.563 81.6698C125.848 81.9492 126.089 81.8865 126.293 82.0654C127.339 82.9708 128.505 84.7801 129.291 85.8482C129.89 86.6496 130.483 87.4845 131.048 88.2971C133.297 91.5907 133.663 95.3619 133.882 98.623C134.001 100.658 134.061 103.635 134.008 106.028C133.992 106.988 133.839 107.839 133.656 108.515C133.493 109.09 133.294 108.878 133.17 109.349C133.024 109.867 133.082 110.19 133.011 110.434C132.591 112.152 130.828 115.485 129.744 116.622C129.544 116.845 129.264 116.907 129.16 117.048C129.107 117.12 129.087 117.361 128.928 117.59C127.654 119.409 126.483 120.628 125.082 122.059C124.907 122.238 124.728 122.418 124.545 122.599C121.273 125.908 116.764 129.257 112.07 130.842C111.059 131.195 110.244 131.063 110.109 131.113C109.8 131.221 109.679 131.525 109.065 131.775C108.361 132.061 107.544 132.302 106.737 132.52C105.072 132.977 103.291 133.164 101.91 133.367C100.868 133.529 99.422 133.894 98.3755 133.943C97.5358 134 95.5911 133.742 95.2143 133.835C94.9828 133.897 94.8497 134.155 94.5793 134.16ZM118.752 123.361C118.915 123.789 119.79 122.629 119.233 122.778C119.111 122.812 118.712 123.252 118.752 123.361ZM106.897 73.1194C106.878 73.2423 106.859 73.3652 106.84 73.488C107.029 73.485 107.22 73.4848 107.411 73.4868C107.333 73.3865 107.253 73.2865 107.172 73.187C107.081 73.1638 106.989 73.1413 106.897 73.1194Z" fill="#361700"/>
<path d="M144.799 125.785C144.837 125.769 144.805 125.932 144.832 125.954C144.94 126.044 144.938 126.167 145.022 126.275C145.146 126.436 145.715 126.471 145.226 127.486C145.225 127.486 145.225 127.486 145.225 127.486C145.221 127.496 145.216 127.506 145.211 127.516C145.116 127.708 144.975 127.901 144.864 128.117C144.754 128.333 144.08 129.748 143.989 129.802C143.862 129.87 143.849 129.42 143.8 129.416C143.766 129.414 143.672 129.527 143.625 129.533C143.475 129.554 143.457 129.431 143.194 129.736C143.237 129.532 143.279 129.327 143.321 129.122C143.227 129.184 143.254 128.901 143.213 128.9C143.181 128.899 143.1 129.039 143.068 129.034C143.033 129.028 143.053 128.847 142.983 128.846C142.869 128.842 142.686 129.222 142.607 129.246C142.525 129.271 142.519 129.02 142.38 129.122C142.352 129.16 142.324 129.198 142.296 129.236C142.262 129.336 142.228 129.435 142.194 129.534C142.134 129.562 142.201 129.357 142.165 129.337C142.122 129.314 142.018 129.491 141.988 129.477C141.963 129.465 141.994 129.301 141.957 129.296C141.904 129.288 141.82 129.508 141.776 129.537C141.77 129.541 141.737 129.547 141.695 129.554L141.656 129.536C141.578 129.547 141.467 129.557 141.46 129.555C141.374 129.525 141.504 129.23 141.453 129.174C141.309 129.019 141.014 129.164 140.807 129.169C140.716 129.173 140.648 129.117 140.601 129.035C141.088 128.358 141.137 127.661 140.638 128.856C140.643 128.652 140.427 128.933 140.38 128.842C140.35 128.783 140.4 128.607 140.329 128.575C140.205 128.52 139.834 128.899 140.233 128.069C140.017 128.138 140.055 127.779 139.618 128.466C139.558 128.489 139.698 128.015 139.689 127.936C139.679 127.86 139.497 127.511 139.457 127.474C139.415 127.437 139.34 127.38 139.266 127.421C139.174 127.47 138.727 128.185 139.12 127.277C138.978 127.289 138.956 127.244 138.917 127.091C138.91 127.063 138.98 126.935 138.97 126.929C138.949 126.918 138.86 126.991 138.818 126.982C138.747 126.967 138.864 126.68 138.639 127.093C138.56 127.138 138.48 127.184 138.402 127.23C138.433 127.143 138.464 127.056 138.495 126.97C138.425 127.043 138.355 127.117 138.284 127.191C138.646 126.615 138.296 126.877 138.152 127.244C138.145 127.078 138.137 126.912 138.13 126.745C138.525 126.081 138.006 126.572 137.811 126.944C137.803 126.938 137.794 126.933 137.786 126.927C137.81 126.704 137.657 126.81 137.631 126.636C137.606 126.462 137.653 126.403 137.803 126.079C137.771 126.084 137.738 126.088 137.706 126.093C137.1 126.868 137.97 125.423 137.396 125.953C137.641 125.388 137.325 125.576 137.128 125.676C137.105 125.687 137.045 125.79 137.011 125.812C136.928 125.866 136.905 125.675 136.715 126.008C136.736 125.892 136.758 125.776 136.78 125.661C136.717 125.704 136.653 125.748 136.59 125.792C136.53 125.895 136.469 125.998 136.409 126.101C136.559 125.717 136.389 125.799 136.396 125.689C136.397 125.667 136.479 125.524 136.475 125.469C136.47 125.405 136.386 125.412 136.375 125.345C136.267 125.494 136.159 125.642 136.052 125.791C135.934 125.837 136.156 125.408 136.136 125.352C136.132 125.343 135.994 125.298 135.973 125.299L136.079 125.355C136.078 125.355 136.077 125.355 136.077 125.355C135.983 125.402 135.825 125.782 135.692 125.623C135.669 125.595 135.704 125.454 135.679 125.436C135.634 125.405 135.356 125.632 135.221 125.898C135.32 125.533 135.098 125.6 135.096 125.481C135.096 125.444 135.19 125.226 135.168 125.161C135.149 125.107 134.982 125.241 134.951 125.193C134.919 125.14 134.983 124.95 134.968 124.928C134.953 124.907 134.87 125.047 134.844 125.034C134.762 124.992 134.787 124.72 134.721 124.686C134.626 124.637 134.351 125.038 134.188 125.198C134.181 125.161 134.202 125.059 134.181 125.049C133.923 124.922 133.67 124.721 133.44 124.518C133.337 124.425 133.271 123.702 132.953 124.738C132.84 124.897 132.692 124.371 132.636 124.342C132.581 124.314 132.463 124.476 132.416 124.461C132.272 124.416 132.225 124.248 131.997 124.344C131.937 124.369 131.81 124.567 131.785 124.555C131.756 124.54 131.798 124.319 131.762 124.291C131.677 124.226 131.474 124.231 131.393 124.161C131.378 124.148 131.437 123.962 131.433 123.896C131.416 123.638 131.303 123.621 131.119 124.215C131.116 123.841 130.894 124.105 130.777 124.087C130.532 124.047 130.14 123.769 129.857 123.956C129.681 124.075 129.604 124.343 129.482 124.056C129.455 123.992 129.434 123.911 129.401 123.835C129.325 123.657 129.347 123.127 129.089 123.7C129.001 123.509 128.861 123.589 128.897 123.049C128.853 123.169 128.808 123.289 128.764 123.409C128.747 123.408 128.73 123.407 128.713 123.406C128.739 123.287 128.764 123.168 128.79 123.049C128.677 122.985 128.401 123.431 128.306 123.404C128.137 123.355 127.754 123.069 127.625 122.874C127.557 122.771 127.5 123.025 127.56 122.491C127.533 122.524 127.507 122.556 127.48 122.589C127.445 122.701 127.409 122.814 127.374 122.926C127.261 122.908 127.174 122.706 127.064 122.688C126.874 122.656 126.538 122.927 126.385 122.691C126.348 122.631 126.319 122.383 126.272 122.379C126.204 122.374 126.137 122.769 126.05 122.766C125.909 122.76 125.682 122.266 125.541 122.291C125.498 122.297 125.467 122.444 125.438 122.458C125.318 122.517 125.221 122.499 125.103 122.724C125.006 122.334 125.033 121.839 125.013 121.338C124.998 120.959 124.919 120.081 124.911 119.75C124.905 119.517 124.952 119.219 124.943 118.963C125.142 118.764 125.221 118.993 125.347 119.36C125.623 119.361 125.894 119.37 126.164 119.385C126.173 119.527 126.181 119.668 126.19 119.81C126.19 119.81 126.19 119.81 126.19 119.811C126.275 119.983 126.354 119.63 126.42 119.556C127.053 118.841 128.002 119.632 128.518 119.843C128.634 119.887 129.062 119.794 129.093 120.036C129.1 120.098 129.055 120.309 129.074 120.323C129.298 120.246 129.532 120.174 129.761 120.103C130.08 120.535 130.568 120.388 130.987 120.463C132.12 120.667 133.241 120.889 134.264 121.35C134.463 121.439 134.772 121.391 134.932 121.569C134.997 121.643 134.897 121.975 135.102 121.782C135.067 121.868 135.032 121.955 134.997 122.041C135.133 121.976 135.274 121.805 135.388 121.83C135.486 121.852 135.717 121.936 135.781 122.003C135.814 122.037 135.73 122.19 135.767 122.205C135.832 122.23 136.067 122.07 136.154 122.109C136.232 122.143 136.284 122.385 136.356 122.386C136.619 122.391 136.979 122.228 137.179 122.408C137.235 122.459 137.223 122.702 137.246 122.706C137.278 122.71 137.341 122.613 137.388 122.552L137.548 122.637C137.569 122.614 137.587 122.598 137.598 122.595C137.794 122.545 137.851 122.882 137.967 122.962C138.341 123.221 138.804 123.381 139.174 123.642C139.408 123.807 139.837 124.008 139.983 124.281C140.014 124.34 139.882 124.541 139.923 124.564C139.968 124.59 140.075 124.464 140.102 124.464C140.294 124.468 140.702 124.509 140.761 124.731C140.772 124.774 140.7 124.949 140.716 124.957C140.724 124.962 140.804 124.859 140.836 124.862C141.116 124.884 141.243 125.039 141.441 125.196C141.822 125.497 142.417 125.54 142.793 125.87C142.876 125.942 142.778 126.308 142.794 126.311C142.827 126.319 142.954 126.102 143.041 126.075C143.124 126.049 143.195 126.062 143.26 126.091L143.231 126.078C143.39 126.147 143.528 126.322 143.708 126.303C143.833 126.289 144.101 126.058 144.233 126.038C144.339 126.023 144.486 126.224 144.58 126.113C144.637 126.046 144.757 125.803 144.799 125.785ZM140.355 128.352C140.571 127.977 140.256 128.217 140.202 128.451C140.19 128.504 140.299 128.45 140.355 128.352ZM134.124 124.201C134.077 124.316 134.031 124.431 133.984 124.545C134.023 124.506 134.062 124.466 134.101 124.427C134.119 124.354 134.137 124.281 134.155 124.208C134.145 124.206 134.134 124.203 134.124 124.201Z" fill="#361700"/>
<path d="M101.04 67.1134C101.071 67.1493 100.911 67.208 100.904 67.2514C100.874 67.436 100.764 67.5078 100.707 67.6747C100.622 67.9243 100.869 68.6359 99.744 68.6927C99.744 68.6927 99.7439 68.6927 99.7439 68.6927C99.7329 68.6933 99.7217 68.6937 99.7104 68.6942C99.496 68.7019 99.2589 68.6504 99.0161 68.6527C98.7732 68.6551 97.2079 68.7368 97.1157 68.6513C96.9935 68.5263 97.3809 68.195 97.3602 68.1278C97.3459 68.0804 97.201 68.0279 97.1732 67.9689C97.0834 67.776 97.1834 67.6699 96.7898 67.5093C96.9907 67.4297 97.1919 67.3537 97.393 67.2743C97.295 67.1862 97.5586 67.037 97.5417 66.9824C97.5279 66.9381 97.3657 66.9163 97.3565 66.8691C97.3452 66.8163 97.5162 66.7279 97.4866 66.6323C97.4387 66.4749 97.0173 66.463 96.9605 66.3689C96.9017 66.2727 97.1248 66.1119 96.9723 65.9917C96.9255 65.9777 96.8787 65.9638 96.8318 65.95C96.7276 65.9649 96.6234 65.9798 96.5192 65.9948C96.4683 65.9345 96.6816 65.8986 96.6834 65.8411C96.6856 65.7738 96.481 65.746 96.4802 65.7008C96.4798 65.6638 96.6408 65.6071 96.6287 65.5592C96.6119 65.4896 96.3773 65.5147 96.3317 65.4786C96.3141 65.4635 96.1729 65.1939 96.1702 65.1789C96.1558 65.0619 96.4772 65.0372 96.501 64.9423C96.5655 64.679 96.2909 64.43 96.1774 64.2052C96.1266 64.1045 96.1377 63.9961 96.1812 63.8898C97.0163 63.9922 97.628 63.5754 96.3519 63.8138C96.4967 63.7063 96.2758 63.6517 96.2258 63.5722C96.2158 63.5561 96.2126 63.5389 96.2208 63.5199C96.2528 63.4463 96.4265 63.3811 96.4119 63.2788C96.3849 63.0974 95.8578 62.9476 96.7667 62.7978C96.5825 62.5941 96.8936 62.3648 96.0778 62.3682C96.0224 62.3152 96.4878 62.116 96.5463 62.0429C96.6012 61.9756 96.7708 61.4755 96.7759 61.3958C96.7806 61.3168 96.781 61.178 96.7042 61.1185C96.6088 61.0419 95.7652 61.06 96.7326 60.8236C96.6387 60.6608 96.6615 60.5948 96.7626 60.4261C96.7809 60.3952 96.9263 60.3803 96.9251 60.3631C96.9223 60.3283 96.8101 60.2791 96.7922 60.2175C96.7627 60.1152 97.0652 60.0358 96.5977 60.0818C96.5142 60.021 96.4307 59.9584 96.3472 59.8953C96.436 59.8656 96.5247 59.8358 96.6135 59.8059C96.5124 59.7771 96.4114 59.7478 96.3103 59.7181C96.9911 59.7134 96.5739 59.4877 96.1904 59.5957C96.3219 59.4563 96.4536 59.3145 96.586 59.1762C97.3578 59.1461 96.6577 58.8854 96.24 58.9347C96.2398 58.9196 96.2395 58.9046 96.2392 58.8894C96.4364 58.7426 96.2624 58.6386 96.3913 58.4673C96.5206 58.3033 96.5965 58.3134 96.9489 58.2472C96.9266 58.2108 96.9044 58.1742 96.8822 58.1372C95.9001 57.9912 97.5855 57.9414 96.8242 57.6443C97.4309 57.509 97.0987 57.2646 96.9063 57.0935C96.8839 57.0736 96.7652 57.0781 96.7276 57.0529C96.637 56.9916 96.7833 56.8167 96.4005 56.8363C96.5092 56.7734 96.6178 56.7085 96.7266 56.648C96.6553 56.6033 96.584 56.5583 96.5127 56.5128C96.3932 56.5171 96.2736 56.5214 96.1541 56.5258C96.5582 56.415 96.3966 56.2674 96.4918 56.1912C96.511 56.1758 96.6759 56.1675 96.7194 56.1201C96.7696 56.0664 96.7223 55.971 96.7646 55.9041L96.7642 55.8846C96.7656 55.8826 96.767 55.8805 96.7686 55.8785C96.5855 55.8556 96.4024 55.8326 96.2194 55.8096C96.1189 55.6957 96.6009 55.6499 96.6376 55.5822C96.644 55.5699 96.6069 55.3499 96.5964 55.3384C96.5137 55.2426 96.103 55.2739 96.1879 54.9945C96.2033 54.9448 96.3451 54.9032 96.3503 54.8586C96.3597 54.7788 96.0345 54.5392 95.7363 54.5238C96.1082 54.4223 95.953 54.1654 96.06 54.0886C96.0929 54.0654 96.3304 54.0577 96.3802 53.987C96.4209 53.9295 96.2291 53.7865 96.2601 53.7114C96.294 53.6331 96.4933 53.6032 96.5071 53.5683C96.5198 53.5352 96.3584 53.5066 96.3589 53.4619C96.363 53.3222 96.6211 53.194 96.6247 53.0847C96.6306 52.9264 96.1521 52.7943 95.9389 52.6606C95.9695 52.627 96.0716 52.5933 96.0722 52.5584C96.0829 52.1284 96.1661 51.6474 96.2642 51.2161C96.3093 51.0195 96.9523 50.515 95.8729 50.6579C95.683 50.5887 96.1141 50.0824 96.1199 49.9892C96.1255 49.8939 95.9311 49.8174 95.9276 49.7418C95.9171 49.5132 96.0553 49.3521 95.8843 49.0811C95.8396 49.0098 95.6094 48.9336 95.6117 48.891C95.615 48.8396 95.8366 48.7825 95.8501 48.7162C95.8806 48.5567 95.8053 48.271 95.8425 48.1171C95.8497 48.0891 96.0446 48.0777 96.1052 48.0374C96.342 47.8802 96.32 47.709 95.6979 47.7442C96.0497 47.5444 95.726 47.3712 95.7048 47.1843C95.6616 46.7985 95.8017 46.092 95.538 45.7642C95.3715 45.5504 95.0924 45.5565 95.3312 45.245C95.3841 45.1758 95.4558 45.1089 95.5189 45.0243C95.6676 44.8224 96.1821 44.6387 95.5598 44.4945C95.7196 44.2826 95.6042 44.0978 96.1347 43.9353C96.0071 43.917 95.8795 43.8987 95.752 43.8805C95.7487 43.854 95.7454 43.8275 95.742 43.8011C95.8636 43.7921 95.9851 43.7831 96.1066 43.7742C96.1382 43.5881 95.6371 43.3365 95.6399 43.1783C95.644 42.909 95.8344 42.2013 95.9973 41.9444C96.0837 41.8094 95.8233 41.804 96.3581 41.7207C96.3208 41.6895 96.2834 41.6585 96.246 41.6277C96.1287 41.6088 96.0115 41.59 95.8942 41.5713C95.8887 41.3951 96.0698 41.1895 96.0672 41.0182C96.0622 40.72 95.7379 40.2582 95.9486 39.9485C96.0018 39.8733 96.2431 39.7779 96.2402 39.6994C96.236 39.5884 95.8349 39.5625 95.827 39.428C95.814 39.1777 96.2788 38.7467 96.2427 38.5104C96.2322 38.443 96.0829 38.4185 96.0669 38.3684C95.998 38.1668 96.0099 38.014 95.7791 37.8235C96.1632 37.6332 96.6592 37.6329 97.1597 37.5798C97.5375 37.5242 98.4129 37.3877 98.7438 37.367C98.9763 37.3528 99.2753 37.4072 99.5312 37.384C99.7356 37.6237 99.5108 37.718 99.1511 37.92C99.166 38.2745 99.1811 38.6387 99.1965 38.9983C99.0569 39.0348 98.9173 39.063 98.7777 39.096C98.7774 39.096 98.7771 39.096 98.7768 39.096C98.616 39.2311 98.9759 39.291 99.0577 39.3679C99.8415 40.0718 99.2354 41.4801 99.1514 42.2679C99.1335 42.4371 99.3246 42.9901 99.0984 43.1038C99.0395 43.1337 98.8242 43.1432 98.815 43.1749C98.9446 43.4584 99.0744 43.7463 99.2042 44.0293C98.8731 44.6226 99.1534 45.2205 99.2091 45.819C99.3599 47.4143 99.5426 49.0017 99.5055 50.5778C99.498 50.8897 99.6629 51.263 99.5618 51.5666C99.5198 51.6916 99.1745 51.751 99.4339 51.9086C99.3407 51.9112 99.2475 51.9138 99.1544 51.9164C99.2682 52.0565 99.4811 52.145 99.5043 52.3048C99.5234 52.438 99.5409 52.8014 99.5065 52.9164C99.4893 52.9777 99.315 52.9567 99.3164 53.0138C99.3202 53.1115 99.5631 53.319 99.5645 53.4558C99.5658 53.579 99.3675 53.7931 99.3975 53.8845C99.5042 54.2196 99.8056 54.5945 99.7299 54.9563C99.7085 55.056 99.4841 55.1871 99.4908 55.2184C99.5046 55.2795 99.7241 55.2954 99.7527 55.3363C99.8505 55.4766 99.7652 55.6733 99.697 55.8511L99.6963 55.8173C99.6651 55.903 99.6377 55.9828 99.6364 56.0486C99.6232 56.7075 99.7463 57.4038 99.7388 58.0568C99.7337 58.4718 99.8126 59.1489 99.6752 59.5396C99.6453 59.6234 99.4041 59.6185 99.409 59.6864C99.4146 59.7642 99.5795 59.7933 99.5952 59.8277C99.7045 60.0676 99.9124 60.592 99.7688 60.8383C99.7411 60.8855 99.5565 60.9344 99.5596 60.9605C99.5608 60.9734 99.6916 60.9923 99.7086 61.0334C99.8592 61.3928 99.8125 61.6707 99.8073 62.0441C99.8027 62.4165 99.8904 62.818 99.962 63.2427C100.028 63.6354 100.078 64.0328 100.036 64.41C100.017 64.5814 99.6506 64.7146 99.6555 64.738C99.6655 64.7892 99.9173 64.8103 99.9839 64.9125C100.203 65.2531 99.953 65.7268 100.09 66.0463C100.158 66.2049 100.483 66.413 100.559 66.5668C100.62 66.6906 100.506 66.9888 100.648 67.0392C100.733 67.0693 101.004 67.0745 101.04 67.1134ZM96.6092 63.1487C97.0424 63.1274 96.6612 62.9353 96.4386 63.0445C96.3886 63.0693 96.4968 63.1539 96.6092 63.1487ZM96.8249 51.979C96.7012 51.9824 96.5775 51.9857 96.4538 51.9891C96.5056 52.0192 96.5574 52.0494 96.6092 52.0796C96.6833 52.0616 96.7575 52.0436 96.8317 52.0257C96.8294 52.0101 96.8271 51.9946 96.8249 51.979Z" fill="#361700"/>
<path d="M81.0673 71.8826C81.1286 71.8934 81.0855 72.0675 81.1283 72.114C81.3068 72.3112 81.3047 72.4588 81.4289 72.6525C81.6206 72.9468 82.4068 73.3732 81.6557 74.2112C81.6557 74.2112 81.6557 74.2112 81.6557 74.2112C81.6483 74.2194 81.6407 74.2277 81.6331 74.236C81.4872 74.3934 81.2746 74.5173 81.1043 74.6905C80.9336 74.8635 79.8912 76.034 79.7517 76.0269C79.5567 76.0075 79.5488 75.4586 79.4771 75.4184C79.4271 75.3899 79.2815 75.4506 79.2125 75.423C78.9914 75.3354 78.9719 75.1798 78.5796 75.355C78.6545 75.1515 78.727 74.9467 78.7957 74.74C78.6599 74.7514 78.7065 74.4466 78.6472 74.4201C78.6373 74.4158 78.6243 74.417 78.6094 74.4214L78.5646 74.3853C78.5046 74.3976 78.4151 74.4562 78.3763 74.4307C78.3208 74.3954 78.3584 74.198 78.2498 74.1385C78.0761 74.0434 77.7738 74.3377 77.6492 74.2996C77.5179 74.2579 77.5323 73.9654 77.3167 73.9718C77.2713 73.9933 77.2258 74.0148 77.1803 74.0363C77.1212 74.1238 77.0622 74.2114 77.0031 74.299C76.9116 74.2827 77.0281 74.0991 76.9784 74.0495C76.9193 73.9904 76.7515 74.1131 76.7098 74.0744C76.6757 74.0425 76.7375 73.8788 76.6853 73.8456C76.6095 73.7962 76.4668 73.9845 76.4024 73.9858C76.3777 73.9867 76.0318 73.8485 76.0151 73.8358C75.8972 73.741 76.1066 73.4958 76.0377 73.3948C75.8443 73.114 75.4214 73.0788 75.1316 72.9449C75.0027 72.8858 74.9106 72.7749 74.8462 72.6449C75.5623 72.1841 75.6568 71.396 74.9065 72.4606C74.9223 72.2246 74.607 72.4073 74.5422 72.2664C74.5003 72.1748 74.5774 72.0021 74.4783 71.916C74.3015 71.7641 73.7682 71.9618 74.3481 71.2451C74.038 71.177 74.0943 70.7726 73.4678 71.2979C73.3828 71.2861 73.5819 70.8099 73.5691 70.7078C73.5589 70.6135 73.2897 70.0612 73.232 69.9901C73.1727 69.9177 73.0627 69.7962 72.9565 69.7941C72.8237 69.7902 72.1975 70.357 72.7439 69.5198C72.5411 69.4385 72.5061 69.367 72.4467 69.1544C72.4359 69.1159 72.5331 69.0067 72.5187 68.9929C72.4886 68.9647 72.3636 68.9954 72.3008 68.9545C72.1976 68.8872 72.3573 68.6154 72.0458 68.9672C71.9333 68.9695 71.8212 68.9724 71.7093 68.9754C71.751 68.8902 71.7926 68.8049 71.8342 68.7197C71.7355 68.7626 71.6368 68.8054 71.5381 68.8483C72.0396 68.3869 71.5455 68.4735 71.3503 68.8249C71.3326 68.6156 71.317 68.4084 71.2998 68.1998C71.8435 67.6507 71.1118 67.902 70.8475 68.2298C70.8351 68.2173 70.8226 68.2048 70.8101 68.1923C70.8374 67.9369 70.6189 67.9626 70.5745 67.7328C70.53 67.503 70.5947 67.4605 70.7947 67.1614C70.7484 67.146 70.702 67.1306 70.6556 67.1153C69.8219 67.6699 70.999 66.4617 70.1986 66.7382C70.5215 66.2028 70.0711 66.2239 69.7925 66.2194C69.7601 66.2188 69.6792 66.3058 69.6306 66.3108C69.5129 66.3221 69.4682 66.0731 69.2136 66.3597C69.2374 66.2308 69.2614 66.1022 69.2851 65.9734C69.1961 65.9862 69.107 65.999 69.018 66.0118C68.9373 66.1002 68.8566 66.1885 68.7759 66.2768C68.9674 65.899 68.7285 65.8926 68.7289 65.7608C68.7292 65.7344 68.8378 65.61 68.8276 65.5397C68.8163 65.457 68.695 65.4123 68.6732 65.3226C68.528 65.4375 68.3828 65.5526 68.2377 65.6676C68.07 65.6489 68.3593 65.2598 68.3251 65.178C68.3188 65.1634 68.1002 65.0117 68.0827 65.0099C67.9416 64.9922 67.6902 65.3188 67.5003 65.0285C67.4666 64.9767 67.5259 64.8387 67.4896 64.7982C67.4255 64.7265 66.9961 64.7744 66.7803 64.9813C66.9435 64.6264 66.6113 64.534 66.6152 64.3932C66.6167 64.3502 66.7703 64.1687 66.7406 64.0746C66.7167 63.9981 66.4583 64.023 66.4145 63.9417C66.3685 63.8547 66.4761 63.6833 66.4545 63.6454C66.4339 63.6097 66.3004 63.7068 66.261 63.6707C66.14 63.5565 66.1982 63.2624 66.1026 63.1722C65.9649 63.0416 65.5239 63.29 65.266 63.3464C65.2567 63.2973 65.2947 63.1947 65.2643 63.1671C64.9329 62.8619 64.598 62.482 64.3017 62.1181L64.2411 62.064C64.2032 62.0129 64.1662 61.9621 64.13 61.9119C63.9834 61.7098 63.9953 60.8321 63.3705 61.7278C63.1846 61.8129 63.0312 61.0704 62.9542 60.9889C62.8749 60.9053 62.6761 60.9842 62.609 60.9249C62.4022 60.7417 62.3544 60.5049 61.9981 60.4009C61.9055 60.3741 61.683 60.4799 61.6466 60.4419C61.6036 60.3962 61.7071 60.1886 61.6583 60.1232C61.5398 59.9676 61.2354 59.7807 61.1297 59.6281C61.1103 59.5994 61.2355 59.4495 61.2422 59.3721C61.269 59.0699 61.1044 58.9428 60.7036 59.4203C60.7742 59.0009 60.3956 59.0866 60.2191 58.9469C59.8533 58.6564 59.3418 57.9722 58.8624 57.8783C58.5619 57.8208 58.3805 58.0334 58.2693 57.5962C58.2447 57.4992 58.2335 57.3893 58.204 57.2735C58.1367 57.0031 58.3328 56.4783 57.7726 56.8034C57.6919 56.5047 57.4641 56.4462 57.685 55.9232C57.5804 55.9997 57.4759 56.0762 57.3714 56.1528C57.3458 56.1328 57.3202 56.1128 57.2947 56.093C57.3711 55.9979 57.4475 55.9028 57.5239 55.8077C57.3835 55.6294 56.8187 55.7822 56.6821 55.6476C56.4487 55.4183 55.9654 54.6922 55.8553 54.3619C55.7934 54.1832 55.6085 54.3666 55.9081 53.9133C55.8559 53.9151 55.8038 53.917 55.7518 53.9191C55.6548 53.9886 55.5578 54.0581 55.4608 54.1277C55.2995 53.9814 55.248 53.682 55.0974 53.5422C54.8288 53.2934 54.2037 53.1472 54.0848 52.7453C54.0537 52.6428 54.1322 52.3853 54.0659 52.3269C53.9703 52.2427 53.6707 52.5116 53.544 52.4038C53.328 52.2188 53.2592 51.5211 53.035 51.3665C52.9738 51.325 52.8406 51.4059 52.7911 51.3828C52.5833 51.2881 52.4463 51.1508 52.1542 51.206C52.2519 50.7869 52.5807 50.417 52.8335 49.9789C53.0326 49.656 53.4118 48.8398 53.4082 48.47C53.4477 48.2286 53.8071 48.079 53.8483 47.8112C54.0031 47.868 54.0663 47.8913 54.1312 47.9198C54.1974 47.9503 54.2388 47.9728 54.2742 47.9981C54.3482 48.0511 54.3883 48.1089 54.412 48.1766C54.4685 48.3195 54.4457 48.4916 54.428 48.7134C54.7948 49.0106 55.1319 49.3008 55.4668 49.5898C55.4006 49.7188 55.3346 49.848 55.2689 49.9775C55.2687 49.9777 55.2685 49.978 55.2683 49.9782C55.2828 50.2113 55.5819 49.9983 55.7019 49.9984C56.8749 50.0209 57.6962 51.6413 58.3196 52.3542C58.4595 52.5126 59.0687 52.8312 59.0145 53.0926C58.9998 53.16 58.8588 53.3231 58.8801 53.3563C59.2192 53.5015 59.5555 53.6441 59.8968 53.7914C60.177 54.5185 60.9099 54.8326 61.4582 55.2811C62.9582 56.5097 64.4654 57.6995 65.819 59.0432C66.0137 59.237 66.3202 59.4006 66.5441 59.6119L66.4736 59.5492C66.5486 59.6129 66.6149 59.6817 66.6663 59.7585C66.7549 59.8905 66.5789 60.1949 66.8987 60.1294C66.8397 60.2015 66.7807 60.2736 66.7216 60.3458C66.927 60.3736 67.15 60.2857 67.3128 60.3979C67.4499 60.4925 67.7878 60.7679 67.8745 60.8913C67.9196 60.9544 67.7837 61.0669 67.8372 61.1125C67.9294 61.1895 68.2817 61.1786 68.4068 61.2891C68.5197 61.3887 68.5765 61.707 68.6822 61.7622C69.0618 61.9616 69.5986 62.0434 69.8748 62.4001C69.9507 62.499 69.916 62.7721 69.9486 62.7932C70.0129 62.8337 70.1767 62.6862 70.233 62.6991C70.5182 62.7654 70.6375 63.2267 70.8147 63.403C71.3934 63.9781 72.0915 64.4934 72.6565 65.0745C73.0141 65.4416 73.659 65.9921 73.8905 66.4354C73.9401 66.5307 73.756 66.6875 73.818 66.7456C73.8865 66.8099 74.035 66.7266 74.0763 66.7474C74.3629 66.8903 74.966 67.2318 75.0621 67.5499C75.0805 67.6108 74.9806 67.7753 75.0051 67.7973C75.0172 67.8087 75.1326 67.7409 75.1796 67.767C75.5941 67.997 75.7875 68.2815 76.0866 68.6224C76.6581 69.2725 77.5518 69.7803 78.1253 70.4827C78.2477 70.6333 78.0994 71.0022 78.1216 71.0174C78.1714 71.0527 78.369 70.8941 78.5001 70.9298C78.9397 71.0556 79.1602 71.6138 79.534 71.7765C79.7148 71.854 80.1205 71.7868 80.3043 71.8529C80.3825 71.8815 80.4686 71.9826 80.551 72.0606L80.4614 71.9883C80.5594 72.0695 80.6528 72.1347 80.7235 72.106C80.8133 72.0696 80.9998 71.8718 81.0673 71.8826ZM74.5188 71.6679C74.8345 71.3702 74.3785 71.4367 74.2987 71.6803C74.2808 71.7352 74.437 71.7453 74.5188 71.6679ZM65.2422 62.1465C65.1636 62.2421 65.0851 62.3377 65.0065 62.4332C65.068 62.4181 65.1295 62.4031 65.191 62.3881C65.2237 62.3182 65.2564 62.2482 65.2891 62.1783C65.2735 62.1677 65.2578 62.1571 65.2422 62.1465Z" fill="#361700"/>
<path d="M64.746 90.9329C64.7838 90.9005 64.8462 91.059 64.8932 91.0645C65.0864 91.0892 65.1669 91.1961 65.3463 91.2466C65.6154 91.3227 66.3719 91.0422 66.4792 92.1627C66.4792 92.1628 66.4792 92.1628 66.4792 92.1628C66.4802 92.1738 66.4812 92.1849 66.482 92.1962C66.4988 92.4102 66.4517 92.6497 66.4635 92.8923C66.4754 93.135 66.6244 94.6953 66.5341 94.7918C66.3991 94.9207 66.0223 94.5494 65.9463 94.5732C65.896 94.5896 65.8414 94.7369 65.7763 94.7674C65.5648 94.8656 65.4456 94.7699 65.2733 95.1696C65.182 94.9714 65.0868 94.7733 64.9969 94.5745C64.8988 94.6755 64.7283 94.4159 64.6669 94.434C64.6158 94.4489 64.5953 94.6115 64.5416 94.6218C64.481 94.6341 64.3802 94.4647 64.2728 94.4955C64.0947 94.5449 64.0775 94.9662 63.9669 95.0231C63.8528 95.0819 63.6691 94.8574 63.5224 95.0068C63.5042 95.0532 63.4861 95.0997 63.4678 95.1461C63.482 95.2507 63.4961 95.3552 63.5107 95.4598C63.4346 95.5092 63.4004 95.2948 63.3298 95.2909C63.2479 95.2862 63.2033 95.4893 63.1468 95.4878C63.1 95.4865 63.0392 95.3226 62.9802 95.3317C62.8919 95.344 62.9071 95.5797 62.8575 95.6226C62.8385 95.64 62.4834 95.7574 62.4654 95.7578C62.4642 95.7578 62.463 95.7578 62.4619 95.7578L62.3281 95.7479C62.1997 95.7386 62.2202 95.4217 62.1192 95.3833C61.8366 95.2772 61.5113 95.5064 61.2307 95.5773C61.1057 95.609 60.9812 95.5778 60.8651 95.5144C61.1378 94.7127 60.7803 94.0318 60.8092 95.3318C60.6933 95.1357 60.5626 95.4727 60.4405 95.4012C60.3604 95.3545 60.323 95.1708 60.2033 95.1634C59.9931 95.1516 59.7105 95.6338 59.7441 94.7128C59.4814 94.8486 59.303 94.4942 59.127 95.2918C59.0595 95.3345 58.9451 94.8359 58.8821 94.763C58.8222 94.6945 58.326 94.4204 58.2446 94.3988C58.1601 94.3771 58.0152 94.3474 57.9355 94.41C57.8352 94.4873 57.6773 95.3165 57.6303 94.3204C57.4326 94.3777 57.3755 94.3427 57.2133 94.2085C57.1844 94.1843 57.1985 94.0388 57.1804 94.0365C57.1435 94.0322 57.0676 94.1319 56.9988 94.137C56.8848 94.1452 56.8593 93.8325 56.8157 94.3002C56.7348 94.3698 56.6529 94.4393 56.5701 94.5086C56.5553 94.4155 56.5404 94.3224 56.5254 94.2293C56.4751 94.3227 56.4251 94.4162 56.3745 94.5095C56.5024 93.8405 56.1805 94.2052 56.222 94.6031C56.0944 94.4459 55.9773 94.2898 55.8511 94.1325C55.9637 93.3682 55.5562 94.0059 55.53 94.4258C55.5139 94.4231 55.4978 94.4205 55.4817 94.4178C55.3626 94.196 55.219 94.3471 55.0616 94.1881C54.907 94.0295 54.9343 93.9571 54.9274 93.5981C54.8847 93.6131 54.8418 93.6281 54.7987 93.6431C54.458 94.581 54.72 92.9148 54.2575 93.6079C54.2246 92.9863 53.8934 93.267 53.6839 93.4264C53.6593 93.4449 53.6433 93.5626 53.6093 93.5951C53.5268 93.673 53.3625 93.497 53.3178 93.8776C53.2688 93.7592 53.2224 93.6411 53.1741 93.5228C53.1135 93.5849 53.0525 93.647 52.9913 93.7091C52.9756 93.8277 52.9598 93.9463 52.9441 94.0649C52.9231 93.8903 52.8784 93.8118 52.8281 93.7716L52.7458 93.758C52.6821 93.6986 52.6039 93.7135 52.5692 93.649C52.5574 93.6266 52.5853 93.4639 52.5453 93.4104C52.4987 93.347 52.3839 93.3748 52.3257 93.3114C52.2655 93.4861 52.2054 93.6608 52.1455 93.8355C52.007 93.9104 52.0525 93.4281 51.9885 93.3782C51.9769 93.3693 51.7376 93.3607 51.7231 93.3687C51.6055 93.4304 51.562 93.8399 51.2806 93.7004C51.2304 93.6754 51.2123 93.5278 51.1655 93.5138C51.0826 93.4887 50.773 93.7626 50.703 94.0531C50.6639 93.6678 50.3637 93.772 50.3009 93.6524C50.282 93.6157 50.3153 93.3803 50.2483 93.318C50.1939 93.2672 50.0062 93.4294 49.934 93.3855C49.8575 93.338 49.8597 93.1362 49.825 93.1164C49.7922 93.0978 49.7346 93.2518 49.6874 93.2434C49.5404 93.2144 49.446 92.9371 49.3292 92.9142C49.1602 92.8805 48.9384 93.3295 48.7658 93.5178C48.7352 93.4819 48.7158 93.3755 48.6791 93.3691C48.2257 93.2864 47.7229 93.1262 47.277 92.9629C47.0703 92.8872 46.6226 92.1757 46.625 93.2658C46.5266 93.4435 46.0434 92.9429 45.9416 92.924C45.8396 92.9048 45.7343 93.0871 45.6534 93.0802C45.4085 93.0589 45.2559 92.9001 44.9383 93.033C44.8565 93.0679 44.7484 93.2866 44.7035 93.2787C44.6495 93.2688 44.616 93.0415 44.547 93.0196C44.3838 92.969 44.0584 93.0065 43.9017 92.9511C43.873 92.9404 43.8835 92.7455 43.8478 92.6804C43.7095 92.4261 43.5199 92.427 43.4883 93.0495C43.3131 92.6758 43.0852 92.9765 42.8884 92.9766C42.469 92.9745 41.7295 92.7588 41.3455 92.9876C41.1027 93.1317 41.0841 93.4101 40.7731 93.1416C40.7028 93.082 40.6343 93.0039 40.5492 92.9328C40.3492 92.7656 40.2011 92.2362 39.987 92.8425C39.7627 92.663 39.5701 92.7628 39.435 92.2196C39.4046 92.3451 39.3742 92.4707 39.344 92.5962C39.3147 92.5972 39.2854 92.5982 39.2562 92.5992C39.2562 92.4773 39.2561 92.3554 39.2561 92.2335C39.0499 92.1853 38.7558 92.6651 38.5786 92.6492C38.286 92.6226 37.549 92.3802 37.2745 92.2C37.1319 92.1042 37.1092 92.3637 37.0566 91.8245C37.0216 91.8598 36.9873 91.8951 36.951 91.9303C36.9232 92.0461 36.8955 92.1618 36.8679 92.2776C36.6742 92.2713 36.4674 92.0777 36.2819 92.0698C35.9498 92.056 35.4453 92.3547 35.1218 92.129C35.0408 92.0721 34.9479 91.8264 34.8681 91.8259C34.7523 91.825 34.7028 92.2244 34.5538 92.2263C34.3035 92.2288 33.8331 91.7474 33.5876 91.7769C33.5156 91.7853 33.4812 91.9337 33.43 91.9484C33.2124 92.0116 33.0514 91.9962 32.8445 92.2235C32.6433 91.8362 32.6627 91.3406 32.6005 90.8393C32.5524 90.4609 32.4034 89.5842 32.3833 89.2533C32.369 89.0208 32.4289 88.7221 32.4086 88.4661C32.6776 88.2636 32.7956 88.4903 33.0076 88.8538C33.4079 88.8464 33.8183 88.843 34.2134 88.8416C34.2453 88.9824 34.2774 89.1232 34.3095 89.264C34.3095 89.2643 34.3095 89.2646 34.3094 89.2649C34.4627 89.4314 34.5327 89.0741 34.6194 88.9956C35.4452 88.2414 36.98 88.9319 37.8389 89.0762C38.0211 89.1061 38.6459 88.9589 38.757 89.1943C38.7862 89.2556 38.7805 89.4711 38.8153 89.4829C39.1433 89.3774 39.4617 89.2723 39.7899 89.1689C40.4119 89.5519 41.1018 89.3319 41.7616 89.3395C43.5387 89.3592 45.3105 89.3801 47.0423 89.6564C47.3759 89.7099 47.8251 89.6074 48.139 89.7562C48.2704 89.8181 48.2789 90.1685 48.4951 89.9389C48.4839 90.0314 48.4726 90.1239 48.4614 90.2164C48.6342 90.1275 48.7647 89.9321 48.944 89.9365C49.0949 89.9404 49.4899 89.9856 49.6154 90.0411C49.6807 90.0691 49.629 90.2373 49.6924 90.2461C49.801 90.26 50.0698 90.0583 50.2197 90.0822C50.3556 90.1037 50.5521 90.3387 50.6607 90.3271C51.0515 90.2866 51.5121 90.0632 51.899 90.2127C52.0061 90.2545 52.1084 90.5022 52.144 90.5023C52.2138 90.5015 52.2731 90.2894 52.3236 90.27C52.5798 90.1716 52.8937 90.4954 53.1169 90.549C53.198 90.5684 53.2798 90.5865 53.3621 90.6035L53.2587 90.5864C53.9084 90.6817 54.5955 90.7003 55.2302 90.818C55.6818 90.9018 56.44 90.9577 56.8395 91.1721C56.9238 91.2182 56.8728 91.454 56.9491 91.4632C57.0341 91.4734 57.0987 91.3177 57.1393 91.3094C57.4238 91.2512 58.0427 91.1582 58.2809 91.352C58.3265 91.3893 58.3406 91.5803 58.3698 91.5829C58.3848 91.5846 58.4312 91.4606 58.4803 91.4529C58.9051 91.3836 59.196 91.4907 59.5958 91.5775C60.3611 91.743 61.2826 91.5936 62.0935 91.805C62.2702 91.8511 62.3557 92.2341 62.3813 92.2329C62.4375 92.2311 62.4983 91.9855 62.6171 91.9355C62.6526 91.9208 62.6888 91.91 62.7256 91.9024L62.6343 91.8957C62.9675 91.7973 63.3594 92.0115 63.6597 91.8907C63.8208 91.826 64.0338 91.5008 64.1899 91.4234C64.3145 91.3621 64.6263 91.4701 64.677 91.3269C64.7066 91.2406 64.7062 90.9693 64.746 90.9329ZM60.0987 94.9426C60.1678 94.5144 59.8714 94.8458 59.9452 95.087C59.962 95.1414 60.0811 95.0538 60.0987 94.9426ZM48.176 92.5293C48.1608 92.6521 48.1456 92.7749 48.1304 92.8977C48.1709 92.8515 48.2113 92.8053 48.2519 92.7591C48.2438 92.6828 48.2357 92.6065 48.2276 92.5302C48.2104 92.5299 48.1932 92.5296 48.176 92.5293Z" fill="#361700"/>
<path d="M138.23 54.2312C138.246 54.1794 138.396 54.2669 138.443 54.2408C138.64 54.1344 138.774 54.1744 138.969 54.1117C139.264 54.0077 139.805 53.4082 140.399 54.3671C140.399 54.3671 140.399 54.3671 140.399 54.3671C140.405 54.3765 140.411 54.3859 140.417 54.3956C140.529 54.5784 140.603 54.8094 140.725 55.0189C140.848 55.2285 141.693 56.5483 141.674 56.6651C141.638 56.8251 141.194 56.6367 141.155 56.686C141.128 56.719 141.169 56.8641 141.143 56.9134C141.06 57.0713 140.929 57.0389 141.056 57.4293C140.889 57.3007 140.717 57.1766 140.544 57.0544C140.544 57.1755 140.282 57.0441 140.255 57.0873C140.233 57.1221 140.32 57.2594 140.294 57.2921C140.267 57.3281 140.097 57.2457 140.052 57.3217C139.974 57.4483 140.243 57.7733 140.218 57.8693C140.194 57.967 139.938 57.8949 139.96 58.0798C139.982 58.123 140.004 58.1662 140.025 58.2095C140.106 58.2775 140.186 58.3456 140.266 58.4139C140.258 58.4889 140.094 58.3496 140.054 58.3834C140.007 58.4224 140.125 58.5916 140.097 58.6182C140.073 58.6406 139.926 58.5569 139.901 58.5958C139.865 58.6521 140.041 58.8088 140.048 58.8637C140.052 58.8838 139.962 59.1591 139.955 59.1696C139.885 59.2539 139.644 59.0389 139.564 59.0807C139.334 59.2069 139.347 59.5686 139.256 59.8063C139.217 59.9117 139.131 59.9748 139.02 60.0169C138.536 59.3287 137.819 59.1518 138.849 59.9414C138.638 59.8972 138.833 60.1974 138.714 60.2382C138.638 60.2623 138.475 60.1747 138.408 60.2527C138.287 60.3949 138.529 60.8811 137.82 60.2932C137.793 60.559 137.423 60.4661 137.962 61.078C137.962 61.1506 137.514 60.9228 137.423 60.9239C137.335 60.9276 136.875 61.1016 136.812 61.1513C136.806 61.1556 136.8 61.1603 136.794 61.1653C136.737 61.2116 136.658 61.2889 136.667 61.3742C136.679 61.4909 137.257 62.1053 136.442 61.537C136.392 61.7075 136.333 61.7304 136.146 61.7638C136.112 61.7699 136.003 61.6729 135.992 61.6847C135.968 61.7097 136.011 61.8224 135.982 61.8738C135.933 61.958 135.67 61.7894 136.022 62.1006C136.037 62.2004 136.051 62.3006 136.066 62.401C135.984 62.3559 135.902 62.3109 135.82 62.2659C135.87 62.3578 135.92 62.449 135.97 62.5407C135.498 62.0501 135.632 62.496 135.97 62.7044C135.784 62.6981 135.596 62.695 135.41 62.6889C134.855 62.1519 135.163 62.8247 135.488 63.0922C135.478 63.1021 135.468 63.112 135.458 63.1219C135.223 63.0731 135.269 63.2711 135.068 63.2862C134.865 63.3022 134.819 63.2411 134.527 63.0336C134.518 63.0734 134.509 63.1132 134.5 63.1531C135.088 63.9516 133.874 62.7809 134.208 63.5208C133.689 63.1808 133.757 63.5818 133.781 63.8288C133.784 63.8575 133.871 63.9383 133.881 63.9819C133.903 64.0877 133.682 64.1025 133.968 64.3582C133.848 64.3243 133.73 64.2889 133.611 64.2544C133.632 64.3347 133.652 64.415 133.673 64.4955C133.761 64.5764 133.849 64.6572 133.937 64.7381C133.576 64.5287 133.594 64.7405 133.474 64.7268C133.45 64.7238 133.326 64.6146 133.264 64.6159C133.19 64.617 133.162 64.7197 133.083 64.7294C133.202 64.8706 133.32 65.0118 133.439 65.1529C133.438 65.3001 133.057 65.0016 132.986 65.0234C132.973 65.0278 132.857 65.2053 132.857 65.2205C132.854 65.3437 133.175 65.6024 132.929 65.7401C132.885 65.7645 132.754 65.6967 132.72 65.7247C132.661 65.7736 132.744 66.1602 132.951 66.3753C132.614 66.1904 132.558 66.4765 132.43 66.4565C132.391 66.4502 132.213 66.293 132.13 66.3084C132.063 66.3207 132.108 66.5531 132.037 66.5827C131.962 66.6135 131.797 66.4979 131.764 66.5127C131.733 66.5269 131.833 66.6571 131.803 66.6876C131.71 66.7813 131.437 66.6943 131.363 66.7683C131.255 66.8749 131.516 67.2963 131.586 67.5329C131.542 67.5351 131.446 67.4886 131.423 67.5123C131.136 67.803 130.76 68.0825 130.407 68.3155C130.245 68.4237 129.448 68.3348 130.329 68.9719C130.424 69.1488 129.779 69.2076 129.712 69.2711C129.645 69.3342 129.739 69.5184 129.693 69.5732C129.554 69.7378 129.347 69.7573 129.293 70.0652C129.28 70.1452 129.4 70.3538 129.371 70.3815C129.336 70.4148 129.136 70.3038 129.083 70.3408C128.958 70.4308 128.825 70.6841 128.698 70.7656C128.675 70.78 128.525 70.6552 128.454 70.6419C128.18 70.5895 128.085 70.7239 128.563 71.1227C128.178 71.0207 128.296 71.3693 128.194 71.51C127.977 71.8071 127.415 72.2065 127.395 72.6161C127.379 72.8779 127.588 73.0632 127.211 73.1183C127.128 73.1297 127.029 73.1313 126.928 73.1476C126.689 73.1869 126.197 72.9607 126.557 73.4888C126.295 73.5365 126.273 73.7297 125.773 73.4896C125.855 73.5891 125.936 73.6886 126.018 73.788C126.003 73.8091 125.988 73.8302 125.974 73.8512C125.878 73.7751 125.783 73.6991 125.688 73.623C125.543 73.7336 125.752 74.2456 125.647 74.3559C125.5 74.51 125.059 74.7936 124.756 74.9184C124.693 74.9461 124.635 74.967 124.587 74.9792C124.434 75.0175 124.623 75.1973 124.177 74.8913C124.186 74.937 124.193 74.9843 124.201 75.0316C124.275 75.1243 124.349 75.2169 124.423 75.3095C124.313 75.4372 124.045 75.4613 123.94 75.5804C123.746 75.7992 123.694 76.3364 123.342 76.41C123.252 76.4292 123.01 76.3364 122.966 76.3895C122.901 76.4674 123.177 76.7597 123.097 76.8595C122.953 77.0377 122.326 77.0375 122.209 77.222C122.173 77.2775 122.268 77.3951 122.249 77.4401C122.18 77.6208 122.07 77.7266 122.135 78.0022C121.733 77.879 121.366 77.5458 120.949 77.2638C120.79 77.1598 120.526 76.9869 120.253 76.8358C120.115 76.7637 119.981 76.6865 119.836 76.6613C119.764 76.6497 119.688 76.6478 119.6 76.7085C119.509 76.7589 119.413 76.9655 119.376 77.0396C119.316 77.1059 119.254 77.1004 119.19 77.041C119.159 76.9937 119.131 76.9051 119.122 76.7889C119.11 76.6892 119.105 76.5988 119.1 76.5228C119.062 76.2709 118.983 76.1525 118.806 76.2028C118.912 75.9878 118.92 75.9756 118.945 75.9218C118.964 75.8798 118.977 75.8496 118.987 75.8276C119.009 75.7794 119.024 75.7499 119.044 75.7244C119.082 75.6759 119.129 75.6518 119.185 75.6447C119.3 75.6266 119.459 75.6668 119.659 75.7121C119.883 75.4357 120.106 75.165 120.325 74.9009C120.449 74.9713 120.574 75.0413 120.699 75.1109C120.7 75.1111 120.7 75.1113 120.7 75.1115C120.91 75.1194 120.677 74.8402 120.667 74.7298C120.555 73.7685 121.716 73.2009 122.344 72.7221C122.39 72.6874 122.433 72.6527 122.473 72.6181C122.597 72.5096 122.812 71.994 123.055 72.0647C123.118 72.0835 123.282 72.2228 123.309 72.2067C123.4 71.9175 123.486 71.6325 123.579 71.3406C124.204 71.1528 124.391 70.5378 124.736 70.0837C125.667 68.8585 126.565 67.6254 127.621 66.5496C127.826 66.3412 127.956 65.9606 128.226 65.8205C128.338 65.762 128.627 65.9593 128.542 65.6699C128.612 65.7317 128.682 65.7935 128.752 65.8552C128.761 65.6787 128.664 65.4711 128.751 65.3438C128.825 65.2367 129.045 64.9767 129.149 64.9167C129.202 64.8853 129.315 65.0192 129.352 64.9781C129.413 64.9067 129.372 64.5956 129.46 64.5001C129.54 64.4133 129.822 64.4024 129.862 64.3162C130.006 64.0072 130.028 63.5436 130.322 63.3416C130.404 63.286 130.654 63.348 130.669 63.3217C130.699 63.2696 130.55 63.1083 130.555 63.0603C130.586 62.817 130.991 62.7618 131.13 62.6258C131.589 62.1769 131.979 61.6128 132.441 61.1719C132.73 60.8953 133.16 60.3731 133.532 60.2148C133.611 60.1811 133.774 60.3588 133.82 60.309C133.872 60.2535 133.78 60.1135 133.794 60.0789C133.89 59.8406 134.13 59.3399 134.411 59.2815C134.464 59.2713 134.623 59.3764 134.64 59.3571C134.649 59.3475 134.575 59.2385 134.593 59.1997C134.602 59.1807 134.611 59.1624 134.62 59.1447C134.786 58.8332 135.01 58.6941 135.27 58.4764C135.803 58.0288 136.173 57.2851 136.777 56.8446C136.906 56.7515 137.253 56.9286 137.265 56.9109C137.295 56.8698 137.134 56.676 137.163 56.5579C137.253 56.175 137.766 56.041 137.92 55.7222C137.996 55.5637 137.95 55.1729 138.033 55.0049C138.098 54.8692 138.433 54.7472 138.395 54.5996C138.37 54.5103 138.214 54.2882 138.23 54.2312ZM138.18 60.1901C137.878 59.879 137.991 60.2847 138.216 60.3838C138.268 60.4058 138.257 60.2719 138.18 60.1901ZM130.495 67.4021C130.587 67.4842 130.68 67.5663 130.772 67.6484C130.754 67.5919 130.736 67.5354 130.718 67.4788C130.652 67.4408 130.586 67.4027 130.52 67.3647C130.512 67.3771 130.503 67.3896 130.495 67.4021Z" fill="#361700"/>
<path d="M160.19 84.7829C160.213 84.7438 160.315 84.881 160.357 84.8759C160.536 84.8555 160.632 84.9419 160.803 84.9508C161.05 84.9677 161.656 84.5251 162.04 85.5851C162.04 85.5851 162.04 85.5851 162.04 85.5852C162.043 85.5956 162.047 85.6061 162.051 85.6169C162.119 85.8203 162.137 86.0623 162.209 86.2942C162.281 86.5262 162.809 88.0021 162.757 88.1137C162.679 88.2645 162.25 87.9905 162.19 88.03C162.149 88.0571 162.14 88.2111 162.09 88.2551C161.929 88.3972 161.8 88.3308 161.754 88.7542C161.621 88.584 161.491 88.4122 161.359 88.241C161.303 88.3594 161.088 88.147 161.038 88.1789C160.998 88.2048 161.025 88.3657 160.982 88.3877C160.932 88.4138 160.804 88.2724 160.718 88.3277C160.582 88.4161 160.682 88.8259 160.609 88.9056C160.534 88.988 160.318 88.817 160.242 88.9965C160.241 89.0454 160.24 89.0945 160.238 89.1435C160.281 89.2397 160.324 89.3359 160.367 89.4321C160.319 89.4984 160.232 89.3012 160.175 89.3152C160.109 89.3314 160.135 89.5364 160.091 89.5494C160.056 89.5596 159.958 89.4193 159.915 89.4438C159.851 89.4789 159.936 89.6987 159.912 89.7525C159.902 89.7738 159.675 89.9817 159.657 89.9892C159.547 90.0336 159.44 89.7293 159.339 89.7316C159.06 89.7384 158.879 90.068 158.668 90.2367C158.578 90.3107 158.462 90.3271 158.339 90.3115C158.261 89.472 157.706 88.9722 158.224 90.1627C158.055 90.023 158.075 90.3816 157.944 90.3606C157.862 90.3455 157.761 90.1895 157.66 90.2257C157.476 90.2924 157.435 90.8376 157.109 89.9757C157.067 90.0313 157.017 90.0565 156.969 90.0759C156.831 90.1313 156.703 90.1353 156.823 90.7338C156.781 90.7985 156.499 90.3795 156.419 90.3353C156.344 90.2937 155.831 90.2227 155.755 90.2331C155.679 90.2436 155.544 90.2713 155.505 90.3577C155.454 90.4653 155.647 91.2866 155.221 90.3876C155.083 90.5132 155.018 90.5037 154.837 90.4394C154.804 90.4278 154.758 90.289 154.742 90.2937C154.71 90.3035 154.686 90.4237 154.632 90.4541C154.542 90.5039 154.397 90.2267 154.545 90.6726C154.506 90.7669 154.467 90.8611 154.427 90.9555C154.379 90.8755 154.33 90.7955 154.282 90.7155C154.277 90.8202 154.272 90.9249 154.267 91.0297C154.109 90.3675 153.988 90.8237 154.179 91.1731C154.015 91.0761 153.855 90.9778 153.692 90.8805C153.484 90.1363 153.397 90.8771 153.543 91.2714C153.529 91.275 153.515 91.2786 153.501 91.2823C153.321 91.1226 153.258 91.3172 153.068 91.2307C152.878 91.1444 152.871 91.0679 152.723 90.7416C152.694 90.7716 152.665 90.8017 152.636 90.8317C152.736 91.8192 152.278 90.1959 152.181 91.0062C151.904 90.4505 151.749 90.8331 151.638 91.0607C151.625 91.0871 151.659 91.2009 151.644 91.2436C151.608 91.3466 151.406 91.2483 151.522 91.6135C151.435 91.524 151.348 91.4345 151.261 91.3449C151.236 91.4253 151.211 91.5056 151.186 91.5859C151.22 91.7004 151.255 91.8148 151.29 91.9293C151.082 91.5662 150.986 91.7589 150.887 91.6868C150.868 91.672 150.817 91.515 150.761 91.4849C150.695 91.4491 150.614 91.5244 150.538 91.4933C150.568 91.6754 150.597 91.8575 150.626 92.0396C150.547 92.167 150.37 91.7164 150.296 91.6996C150.283 91.6968 150.084 91.7927 150.076 91.806C150.007 91.9119 150.151 92.2978 149.861 92.2933C149.809 92.2922 149.73 92.1675 149.685 92.1749C149.607 92.1877 149.471 92.5653 149.539 92.8561C149.34 92.5262 149.139 92.7459 149.035 92.6644C149.004 92.6392 148.931 92.413 148.849 92.3847C148.783 92.3615 148.698 92.5856 148.619 92.5758C148.536 92.5645 148.453 92.3811 148.416 92.3774C148.381 92.3741 148.399 92.537 148.356 92.5487C148.223 92.5828 148.029 92.37 147.924 92.3965C147.771 92.4344 147.774 92.9313 147.709 93.1719C147.669 93.1516 147.609 93.0627 147.576 93.0716C147.165 93.1784 146.682 93.2304 146.245 93.2535C146.042 93.2647 145.389 92.783 145.821 93.7819C145.808 93.9832 145.208 93.7062 145.114 93.7272C145.021 93.7479 145.004 93.955 144.933 93.9788C144.721 94.05 144.527 93.9618 144.313 94.2005C144.258 94.2628 144.251 94.5041 144.209 94.5136C144.159 94.5243 144.044 94.3267 143.977 94.3316C143.818 94.3451 143.562 94.4963 143.406 94.5019C143.377 94.5024 143.313 94.3179 143.259 94.2704C143.046 94.0846 142.891 94.1515 143.093 94.7408C142.805 94.4568 142.722 94.8166 142.556 94.8855C142.195 95.0325 141.493 95.084 141.239 95.4288C141.085 95.6447 141.164 95.9125 140.799 95.7661C140.718 95.7336 140.635 95.6823 140.536 95.6443C140.302 95.555 139.996 95.1057 140.018 95.7452C139.848 95.6824 139.733 95.7292 139.589 95.6323L139.534 95.6469C139.459 95.5958 139.378 95.5067 139.282 95.3454C139.294 95.4737 139.306 95.602 139.318 95.7303C139.293 95.7398 139.268 95.7493 139.243 95.7587C139.206 95.6427 139.168 95.5267 139.131 95.4107C138.945 95.4232 138.819 95.9688 138.666 96.0026C138.396 96.0633 137.681 96.0372 137.385 95.939C137.233 95.886 137.29 96.1399 137.087 95.6382C137.065 95.6817 137.043 95.7251 137.022 95.7684C137.03 95.8869 137.039 96.0054 137.047 96.1238C136.882 96.1678 136.629 96.0405 136.473 96.0788C136.173 96.1529 135.798 96.5699 135.45 96.4306C135.36 96.3959 135.22 96.1794 135.143 96.1994C135.033 96.2275 135.101 96.6231 134.959 96.6617C134.724 96.7254 134.182 96.3633 133.962 96.4425C133.898 96.4656 133.89 96.6191 133.847 96.6436C133.659 96.7495 133.494 96.7677 133.322 97.0299C133.028 96.6876 132.977 96.1919 132.842 95.7054C132.74 95.3397 132.482 94.481 132.557 94.1454C132.58 93.9123 132.489 93.6156 132.506 93.3591C132.419 93.2629 132.539 93.2569 132.594 93.3241C132.662 93.3906 132.747 93.525 132.863 93.6879C133.18 93.6188 133.512 93.5373 133.849 93.4521C133.91 93.582 133.968 93.7124 134.028 93.8426C134.028 93.8429 134.028 93.8432 134.028 93.8435C134.192 93.9735 134.175 93.6092 134.226 93.5146C134.736 92.6065 136.198 92.8936 136.975 92.7954C137.14 92.775 137.62 92.4643 137.789 92.6564C137.831 92.7069 137.89 92.9141 137.922 92.9158C138.164 92.7246 138.405 92.5332 138.651 92.3399C138.672 92.3459 138.693 92.3511 138.714 92.3558L138.673 92.3666C139.289 92.4911 139.774 92.0824 140.303 91.8786C141.783 91.3078 143.238 90.7038 144.745 90.3114C145.037 90.2357 145.357 89.9724 145.669 89.9883C145.799 89.9947 145.947 90.3116 146.028 90.0184C146.056 90.1072 146.085 90.196 146.113 90.2848C146.216 90.1366 146.241 89.9079 146.387 89.8421C146.509 89.787 146.843 89.673 146.966 89.6735C147.029 89.6731 147.057 89.8464 147.112 89.8293C147.204 89.7987 147.335 89.5085 147.463 89.47C147.58 89.4351 147.834 89.5684 147.915 89.5137C148.209 89.318 148.475 88.9279 148.842 88.9007C148.943 88.8938 149.13 89.0734 149.158 89.0583C149.213 89.0282 149.167 88.813 149.198 88.7742C149.356 88.578 149.739 88.7347 149.937 88.6858C150.581 88.527 151.222 88.2331 151.865 88.08C152.272 87.983 152.92 87.7459 153.337 87.7911C153.427 87.801 153.476 88.0372 153.542 88.017C153.615 87.9946 153.608 87.8273 153.638 87.8044C153.852 87.643 154.331 87.3251 154.602 87.4156C154.653 87.4333 154.741 87.6034 154.766 87.5948C154.78 87.5908 154.772 87.4588 154.809 87.4337C155.135 87.2124 155.418 87.2038 155.786 87.1367C155.873 87.1207 155.959 87.0998 156.044 87.0754C156.663 86.8979 157.29 86.5265 157.941 86.4414C158.107 86.419 158.317 86.7434 158.341 86.7321C158.387 86.7097 158.343 86.4609 158.42 86.372C158.679 86.0775 159.188 86.1966 159.451 85.9804C159.585 85.8728 159.688 85.5055 159.813 85.3909C159.909 85.3009 160.225 85.3283 160.23 85.1797C160.235 85.0891 160.165 84.8272 160.19 84.7829ZM157.488 90.0601C157.38 89.6402 157.265 90.0522 157.417 90.2488C157.45 90.2934 157.515 90.1693 157.488 90.0601ZM146.816 92.5066C146.853 92.6246 146.89 92.7425 146.928 92.8605C146.943 92.8024 146.957 92.7443 146.972 92.6863C146.934 92.6199 146.896 92.5535 146.859 92.4872C146.844 92.4937 146.83 92.5002 146.816 92.5066Z" fill="#361700"/>
<defs>
<linearGradient id="paint0_linear_4055_479" x1="98.1223" y1="7.06982" x2="98.1223" y2="192.302" gradientUnits="userSpaceOnUse">
<stop stop-color="#E58237"/>
<stop offset="0.495192" stop-color="#B7550A"/>
<stop offset="1" stop-color="#914207"/>
</linearGradient>
</defs>
</svg>
