<svg width="195" height="200" viewBox="0 0 195 200" fill="none" xmlns="http://www.w3.org/2000/svg">
<path d="M87.6787 23.6247C91.6425 21.7911 92.9172 21.4947 93.6453 21.4947C95.427 21.4947 97.2206 21.0204 99.8095 21.3719C105.746 22.4057 110.974 23.1512 114.048 23.3466C115.949 23.6813 119.905 26.2863 128.106 30.1023C132.762 32.2693 138.528 34.5381 141.631 35.931C144.735 37.3238 145.162 37.8255 148.415 40.4018C151.668 42.978 157.597 47.4542 162.997 51.757C173.239 59.9197 178.209 64.2853 179.665 66.0216C182.82 69.7821 186.119 73.0734 186.995 75.2925C187.57 76.7512 187.903 80.1925 187.07 90.1697C186.466 97.4124 185.293 108.802 183.499 118.82C181.705 128.838 179.361 137.231 178.051 142.3C176.74 147.369 176.418 149.054 176.228 150.409C175.322 156.881 176.236 166.139 172.707 169.358C171.453 170.502 169.059 170.856 162.016 171.471C159.214 171.716 153.034 171.316 143.086 173.125C132.3 175.086 126.165 176.235 121.461 176.756C117.33 177.214 109.88 178.165 105.793 178.546C101.028 178.99 97.3508 178.345 89.6596 177.982C84.9054 177.757 78.5106 177.743 75.0028 177.629C70.8878 177.496 66.2229 175.853 56.9483 175.211C45.6103 174.427 38.8641 173.839 37.3542 173.475C35.3464 172.991 33.142 172.655 30.8311 171.464C27.4696 169.73 23.2118 164.63 20.6602 152.701C19.0219 145.042 17.4033 134.154 16.4957 128.328C15.588 122.502 15.3627 121.764 15.2003 120.349C14.8069 116.921 13.4849 110.537 12.4393 101.267C11.8807 96.3145 11.2325 90.8261 11.6483 87.6288C12.1917 83.4503 12.6578 80.7195 14.267 78.8101C17.1393 75.402 21.6497 70.459 30.2288 63.4922C33.3468 60.9601 37.3821 58.0773 41.356 54.9363C45.3299 51.7953 49.0837 48.4458 51.6748 46.2506C58.1796 40.7398 65.6586 37.9895 69.1661 34.9995C72.1932 32.4189 79.2198 27.5374 87.6787 23.6247Z" fill="url(#paint0_linear_4055_374)" stroke="#361700" stroke-width="5" stroke-linecap="round"/>
<path d="M105.701 24.0221C105.287 23.9117 104.746 23.572 104.259 23.4283C102.199 22.8455 101.44 22.6118 99.4971 22.3469C98.4588 22.2008 96.8404 22.2066 94.6717 22.0799L95.2691 22.0355C93.5653 22.3815 91.8301 22.8582 90.4913 23.2038L90.6751 23.1246C90.4491 23.141 89.9891 23.4432 89.6467 23.6192C89.2978 23.8004 89.034 23.8694 88.9037 23.745C88.9037 23.745 88.9036 23.745 88.9036 23.745C88.8956 23.7373 88.8882 23.729 88.8812 23.7199C88.7472 23.5462 89.1117 22.8399 89.0289 22.5897C88.9993 22.3257 87.6039 21.2985 88.8766 20.2973C88.97 20.2352 89.0742 20.1733 89.1811 20.1166L89.3298 20.0525C90.6031 19.5056 93.089 18.981 94.5442 18.769L94.9055 18.7422C95.2906 18.7955 95.6243 18.8199 95.8091 18.8215C96.3879 18.8254 97.1279 18.6922 97.9066 18.6977C100.436 18.7332 101.76 19.0086 104.11 19.1366C104.976 19.5484 105.805 19.9961 106.608 20.4763C107.777 20.7508 109.341 21.6896 109.99 21.9807C110.132 22.0422 110.264 22.0887 110.392 22.1286C110.737 22.2343 111.039 22.2782 111.439 22.4598C112.046 22.7338 112.902 23.3248 114.013 23.8083C115.839 24.6022 116.338 24.3656 117.446 24.8139C118.597 25.2789 120.258 26.2873 121.762 26.8229C121.963 26.8654 122.163 26.9072 122.363 26.9499C122.278 26.7943 122.193 26.6394 122.107 26.484C122.855 26.7787 123.076 27.1195 123.742 27.4393C124.525 27.8164 125.014 27.8271 125.542 28.0851C125.974 28.2968 126.487 28.7317 127.05 29.0035C127.391 29.1687 127.577 29.2145 127.712 29.224C127.897 29.2353 127.986 29.1784 128.252 29.2859C128.435 29.3516 131.685 30.9154 131.863 31.0178C133.226 31.7444 133.19 32.0941 134.251 32.7147C137.197 34.4404 140.345 35.9924 143.086 37.5688C144.313 38.2734 145.546 39.0721 146.702 39.8771C145.505 39.6189 145.945 40.3499 146.529 40.827C147.061 41.2636 147.722 41.4852 147.322 40.4869C148.529 41.4871 149.643 41.7995 150.844 42.6632C151.619 43.2218 152.072 43.7366 153.207 44.493C155.22 45.8321 157.693 46.9268 157.736 48.0809C160.162 49.5754 161.955 51.2983 163.264 51.2572C163.888 51.654 165.108 53.175 165.72 53.7321C166.174 54.1315 169.012 56.5341 170.568 57.9789C171.032 58.403 171.38 58.7205 171.544 58.8659C172.28 59.5147 173.555 60.6383 174.216 61.1218C175.056 61.7393 176.147 61.5726 176.873 63.5346C178.521 64.8997 179.064 65.4272 180.449 66.872C180.693 67.1284 180.632 67.2717 180.783 67.4145C181.093 67.7066 181.713 68.1471 182.278 68.6852C183.207 69.5695 183.496 70.3417 183.736 69.9093C184.392 70.515 185.021 71.01 185.721 72.0212C185.783 72.2072 185.843 72.3968 185.896 72.6805C185.925 72.8433 185.952 73.0046 185.941 73.2885C185.933 73.4348 185.912 73.5874 185.855 73.7698C185.794 73.9673 185.688 74.1759 185.542 74.3514C185.371 74.5358 185.233 74.6231 185.111 74.6956C184.553 75.2496 184.157 75.5048 183.72 75.8109C183.972 75.0183 180.994 76.5111 182.126 76.5245C180.456 76.9259 178.821 77.1907 177.184 77.4198C177.244 76.6318 173.647 78.0755 174.044 78.4129C173.861 78.4475 173.667 78.4839 173.489 78.5168C172.304 78.5893 171.222 78.8245 169.968 79.016C169.491 79.0885 168.975 79.1585 168.415 79.2109C166.449 79.3928 166.62 79.2871 165.963 79.0332C165.518 79.1251 165.042 79.2211 164.598 79.3114C162.329 80.647 162.5 78.9276 158.472 80.2596C157.059 79.8434 153.863 80.598 151.709 81.0504C151.454 81.1037 151.466 81.222 151.139 81.2993C150.33 81.4893 148.219 81.5861 148.326 81.9586C147.605 81.9315 146.84 81.9081 146.116 81.8783C145.542 82.0133 144.926 82.152 144.358 82.2843C144.374 82.4029 144.39 82.5215 144.406 82.6401C143.169 82.3665 141.293 82.7221 140.368 82.7185C140.182 82.7177 140.128 82.5576 139.546 82.5715C138.854 82.5882 137.636 82.7584 136.818 82.786C136.529 82.9976 136.239 83.2093 135.945 83.4211C134.505 83.6582 133.987 83.2211 133.132 83.2623C132.964 83.2724 130.228 83.5527 130.076 83.5751C128.881 83.7602 129.243 84.1468 125.717 84.3513C125.088 84.3871 124.581 84.2855 124.01 84.3256C123.238 84.3802 121.394 84.7058 120.391 84.9991C120.074 85.095 119.851 85.1875 119.798 85.2657C118.559 84.9865 115.313 85.3754 114.35 85.3343C114.06 85.3215 113.98 85.0891 113.087 85.1008C112.353 85.1109 110.531 85.4265 109.605 85.4565C108.627 85.4874 108.279 85.3102 107.842 85.325C107.432 85.339 107.063 85.5247 106.501 85.5605C104.763 85.6682 103.153 85.5105 101.782 85.5915C99.7787 85.7092 98.0537 86.2921 96.3948 86.6036C95.9796 86.5975 95.5666 86.5195 95.1316 86.5443C89.7516 86.8486 83.6871 87.0974 78.2905 87.279C75.7834 87.366 69.5278 87.0333 71.243 88.0285C70.3844 88.2629 64.0284 88.1388 62.8347 88.1875C61.6252 88.2386 60.681 88.4771 59.7423 88.5239C56.8752 88.666 54.8794 88.6178 51.4046 88.9405C50.513 89.024 49.5485 89.2958 49.0233 89.3159C48.3934 89.3394 47.6816 89.1479 46.8526 89.1691C44.8832 89.2217 41.1965 89.4469 39.2941 89.4835C38.9471 89.4898 38.8174 89.2998 38.3252 89.2582C36.3755 89.097 34.2246 89.1982 34.6265 89.806C32.722 89.602 30.8539 89.8047 29.1012 89.9471C28.5789 89.9883 28.071 90.0245 27.5747 90.0453C22.6835 90.2176 14.0326 90.4685 9.39545 90.3227C8.76526 90.272 8.26828 90.2851 7.4039 89.9677C7.16652 89.8673 6.89162 89.7436 6.53869 89.4362C6.18513 89.1415 5.77274 88.5198 5.67479 87.9065C5.52404 86.6572 5.85273 86.331 5.892 86.0956C6.37762 84.8112 6.94681 83.9136 8.59196 82.0779C9.20162 81.4069 9.82404 80.7759 10.5694 80.0036C10.9436 79.6163 11.3251 79.2507 11.703 78.8952C13.0824 77.5998 14.3919 76.4581 15.0268 75.0254C16.9964 73.0852 18.4032 71.3921 20.1875 70.2581C20.2585 69.9952 20.3307 69.7313 20.4024 69.4683C20.6317 69.2189 20.8604 68.9707 21.0907 68.7216C21.2515 68.728 21.4123 68.7347 21.5729 68.7416C22.6016 67.6799 23.6606 66.3122 24.6688 65.0766C25.3145 64.285 25.9409 63.5469 26.5238 62.9768C28.945 60.3767 36.1985 54.995 38.9569 53.2897C40.4159 52.3487 40.3367 52.0891 41.4615 51.9478C41.7528 51.6962 42.0439 51.4455 42.346 51.1878C42.3504 51.1799 42.3549 51.172 42.3594 51.1641C42.4819 50.9395 42.6068 50.7135 42.7339 50.486C44.5547 49.2034 46.8067 47.8625 48.546 46.6609C51.7026 44.4766 56.292 40.9574 59.6101 38.9758C60.441 38.4794 61.5797 38.0042 62.3653 37.4734C63.5075 36.7023 63.5645 36.1809 65.014 35.2039C67.5128 33.5174 72.4642 30.8077 74.8453 29.2353C75.5588 28.7629 75.8104 28.4246 76.2934 28.0971C76.6248 27.872 76.9685 27.6427 77.2792 27.4362C78.9121 26.3535 80.3478 25.4217 81.9173 24.219C84.2768 23.2086 84.3503 23.7531 85.2772 23.774C85.9513 23.7999 88.1094 23.5526 88.2387 23.8839C88.2255 23.9043 88.197 23.9313 88.1335 23.9616C88.0672 23.9981 87.8674 24.0208 87.8998 24.0338C87.9126 24.0543 88.1307 24.0474 88.1681 24.0487C88.2359 24.0482 88.271 24.0519 88.2975 24.0596C88.3904 24.0924 88.3748 24.1702 88.3773 24.246C88.368 24.403 88.3561 24.5674 88.5031 24.634C86.1638 26.2025 84.9102 26.7601 82.6531 27.7336C81.4266 28.5057 80.1867 29.2924 78.9516 30.0793C76.3893 31.7138 73.8279 33.3993 71.276 35.0933C70.8595 35.2007 70.4392 35.311 70.0155 35.4239C70.0153 35.4236 70.0152 35.4234 70.015 35.4231C68.4815 36.245 68.0603 36.9582 67.3312 37.542C61.9878 41.8138 52.0718 48.2708 44.1079 53.6526C41.5951 55.3504 39.2831 56.9538 37.3941 58.3507C35.6389 59.5623 30.5689 64.0597 29.4444 64.9604C29.1363 65.1764 28.9114 65.0949 28.6213 65.3672C28.0397 65.9837 27.4647 66.6101 26.8901 67.243C25.0598 69.2607 23.2558 71.3159 21.4716 73.3836C18.9859 75.835 16.5811 78.4508 14.2691 81.1354C12.4862 83.2573 10.4121 85.5811 9.42367 87.6216C9.37821 87.7028 9.42425 87.7487 9.43799 87.4163C9.44087 87.2511 9.36309 86.9866 9.24989 86.8313C9.13622 86.6684 9.04445 86.6084 8.99582 86.5741C8.83675 86.4899 9.06993 86.5909 9.2632 86.6136C9.67922 86.6835 10.2088 86.7221 10.7291 86.7489C16.6924 86.9213 22.8668 86.5752 28.978 86.3528C42.8624 85.7741 56.7202 85.0797 70.4772 84.4293C74.3051 84.2481 79.1525 83.8336 82.9036 83.7332C84.4682 83.6911 85.1408 84.0008 87.1781 83.6288C87.2048 83.7206 87.2316 83.8125 87.2583 83.9043C89.047 83.6912 90.1736 83.4149 92.1854 83.2767C93.8684 83.1625 98.3558 82.8802 99.8422 82.823C100.62 82.7928 100.342 82.9845 101.066 82.9386C102.301 82.8593 104.93 82.4514 106.635 82.3393C108.181 82.2387 110.806 82.2629 111.981 82.1521C114.596 81.9084 117.344 81.5753 120.109 81.2868C121.899 81.1007 123.678 80.9338 125.439 80.8201C126.715 80.7381 128.328 80.827 128.732 80.7856C129.501 80.7059 129.699 80.4683 130.215 80.3945C132.816 80.0244 136.937 79.8966 139.499 79.6433C147.854 78.8295 156.671 77.6487 164.915 76.3689C166.234 76.1664 167.775 75.9156 169.416 75.6489C174.183 74.8744 180.064 73.7154 182.895 72.4785C183.221 72.3339 183.276 72.2946 183.16 72.532C182.807 73.0982 182.979 73.4504 183.01 73.5241C183.061 73.6177 183.076 73.5678 183.003 73.4506C182.613 72.8571 182.086 72.5462 181.802 72.2471C179.717 70.067 174.355 65.5423 172.21 63.4556C171.812 63.0651 171.608 62.6391 171.358 62.4225C171.23 62.3115 170.849 62.1506 170.429 61.8053C169.792 61.2811 169.187 60.779 168.592 60.2817C165.831 57.9884 163.456 56.0892 160.37 53.7752C155.703 50.2906 150.312 46.7477 144.928 43.3065C142.054 41.4688 139.163 39.6974 136.353 38.0067C134.601 36.9522 133.558 35.9445 133.302 35.8049C132.748 35.5036 132.272 35.5226 131.121 34.9633C129.578 34.2131 127.853 33.3027 126.096 32.3908C123.501 31.0415 120.788 29.715 118.549 28.77C116.699 27.9893 114.047 27.133 112.211 26.3604C111.458 26.0443 110.215 25.4459 109.083 24.9047C108.074 24.4199 107.148 24.0639 106.822 24.0132C106.422 23.9521 106.155 24.1425 105.701 24.0221ZM154.294 45.4792C153.818 45.6765 156.477 47.0583 155.687 46.2362C155.509 46.0501 154.418 45.4268 154.294 45.4792ZM87.8945 86.2023C87.9286 86.3242 87.9627 86.4462 87.9968 86.5682C88.383 86.4949 88.7689 86.4216 89.1545 86.3482C88.932 86.2863 88.7093 86.2244 88.4866 86.1625C88.2893 86.1758 88.0919 86.189 87.8945 86.2023Z" fill="#361700"/>
<path d="M183.125 89.8463C183.118 89.4588 183.312 88.9094 183.344 88.4544C183.482 86.5246 183.622 85.8146 183.745 84.0667C183.954 81.4835 183.767 73.7375 184.889 73.7309C184.889 73.7309 184.889 73.7309 184.889 73.7309C184.9 73.731 184.911 73.7317 184.923 73.7333C185.137 73.7613 185.37 74.4236 185.612 74.5224C185.855 74.6213 187.422 74.5516 187.507 75.4935C187.622 76.8589 187.188 80.1382 187.188 80.8685C187.192 81.3692 187.322 81.987 187.331 82.6257C187.358 84.691 187.213 85.7606 187.512 87.6411C187.273 88.3703 187.029 89.1055 186.782 89.8339C186.82 90.8145 186.454 92.2474 186.425 92.842C186.403 93.317 186.542 93.6207 186.511 94.1184C186.477 94.679 186.234 95.5297 186.171 96.5529C186.065 98.2331 186.453 98.5699 186.409 99.5769C186.363 100.623 185.968 102.225 185.968 103.561C185.996 103.733 186.023 103.906 186.051 104.08C186.168 103.971 186.286 103.862 186.403 103.753C186.376 104.44 186.132 104.684 186.057 105.305C185.968 106.033 186.128 106.413 186.068 106.906C186.059 106.98 186.044 107.058 186.025 107.14C185.943 107.493 185.784 107.915 185.74 108.34C185.661 109.099 185.915 108.956 185.909 109.367C185.907 109.532 185.654 112.534 185.633 112.697C185.473 113.986 185.14 114.041 184.975 115.062C184.519 117.874 184.369 120.803 184.09 123.425C183.965 124.596 183.769 125.807 183.546 126.959C183 125.013 181.767 128.959 183.268 127.637C182.895 128.9 183.102 129.867 182.859 131.08C182.701 131.866 182.441 132.383 182.273 133.514C181.976 135.518 182.137 137.783 181.138 138.218C180.93 140.593 180.276 142.568 180.941 143.546C180.894 144.158 180.166 145.635 179.991 146.3C179.829 146.929 178.803 151.823 178.655 152.624C178.511 153.415 178.26 154.831 178.214 155.523C178.161 156.35 178.838 157.085 177.771 158.338C177.735 158.383 177.696 158.427 177.655 158.473C177.428 160.254 177.294 160.861 176.89 162.491C176.816 162.787 176.667 162.793 176.636 162.963C176.572 163.321 176.569 163.953 176.467 164.584C176.297 165.635 175.878 166.184 176.362 166.154C176.308 166.859 176.25 167.57 176.18 168.29C176.041 168.511 175.899 168.742 175.754 168.973C175.765 169.373 175.772 169.775 175.751 170.216C175.571 169.989 175.416 170.178 175.279 170.525C175.209 170.696 175.147 170.915 175.019 171.209C174.95 171.362 174.859 171.546 174.68 171.756C174.506 171.969 174.212 172.161 174.064 172.242C173.82 172.434 173.761 172.586 174.156 172.569C172.509 173.005 171.24 173.099 169.819 173.255C169.861 172.474 166.832 173.714 167.156 174.073C166.997 174.099 166.848 174.123 166.69 174.147C165.29 174.161 164.059 174.506 162.385 174.575C160.707 174.64 160.854 174.541 160.311 174.245C159.912 174.31 159.543 174.37 159.145 174.432C158.17 175.024 157.73 174.881 157.093 174.732C156.474 174.582 155.663 174.427 153.955 174.934C152.787 174.414 150.059 174.933 148.245 175.245C148.035 175.281 148.04 175.4 147.758 175.457C147.074 175.593 145.3 175.564 145.386 175.943C144.768 175.875 144.152 175.808 143.532 175.742C143.04 175.847 142.544 175.953 142.053 176.06C142.064 176.179 142.076 176.298 142.087 176.417C141.054 176.084 139.49 176.362 138.706 176.327C138.55 176.32 138.504 176.158 138.018 176.152C137.455 176.144 136.409 176.28 135.738 176.286C135.494 176.49 135.247 176.695 135.005 176.9C133.818 177.104 133.356 176.663 132.652 176.691C132.539 176.695 130.799 176.887 130.255 176.957C130.172 176.967 130.118 176.975 130.102 176.978C129.095 177.163 129.424 177.536 126.481 177.766C125.956 177.807 125.519 177.713 125.045 177.76C124.209 177.842 121.728 178.452 121.566 178.772C120.511 178.518 117.816 178.99 117.004 178.978C116.759 178.974 116.677 178.744 115.929 178.782C115.323 178.812 113.797 179.185 113.03 179.243C112.216 179.304 111.903 179.139 111.539 179.168C111.195 179.195 110.896 179.392 110.429 179.445C108.968 179.609 107.616 179.501 106.461 179.624C104.79 179.801 103.363 180.432 101.981 180.784C101.629 180.788 101.276 180.721 100.912 180.755C99.571 180.882 98.1773 181 96.7599 181.102C93.3952 181.347 89.8982 181.499 86.6743 181.513C84.5415 181.557 79.2696 180.831 80.6602 181.929C79.9087 182.134 74.5369 181.455 73.5218 181.34C72.5038 181.256 71.6749 181.378 70.8751 181.305C68.8564 181.117 67.3619 180.849 65.2115 180.629C64.7836 180.585 64.3214 180.541 63.8307 180.5C63.0705 180.437 62.231 180.543 61.7835 180.472C61.249 180.387 60.7037 180.077 60.0137 179.952C58.364 179.659 55.2829 179.195 53.7142 178.862C53.4277 178.801 53.3621 178.59 52.9628 178.454C51.4071 177.921 49.6146 177.586 49.8108 178.259C47.8344 177.51 45.8753 177.435 43.9833 177.053C40.9576 176.444 36.1163 175.28 32.4102 174.451C31.1843 174.178 30.1069 173.95 29.2215 173.788C28.1077 173.585 27.5299 173.541 26.8386 173.407C26.4869 173.336 26.1077 173.245 25.5933 173.072C25.3308 172.984 25.0391 172.878 24.6717 172.718C24.2909 172.529 23.8802 172.431 23.0442 171.72C22.8817 171.572 22.7204 171.392 22.6128 171.251C22.5092 171.119 22.3446 170.881 22.2419 170.678C22.136 170.474 22.0669 170.293 22.0196 170.152C21.9226 169.86 21.8779 169.649 21.8334 169.438C21.7514 169.03 21.6937 168.649 21.6308 168.244C21.3155 166.122 21.4608 164.178 20.5343 162.743C20.2362 160.45 19.7615 158.665 19.9461 156.89C19.7818 156.72 19.6169 156.546 19.4513 156.37C19.4363 156.299 19.4212 156.228 19.406 156.157C19.3631 155.956 19.3195 155.751 19.2753 155.545C19.377 155.434 19.4786 155.323 19.5801 155.212C19.209 153.211 18.2067 150.809 17.8644 149.124C17.2905 146.3 15.9871 139.022 15.5993 136.311C15.3944 134.878 15.1227 134.849 15.4814 133.932C15.38 133.623 15.2787 133.313 15.1773 133.002C15.0218 132.827 14.8664 132.652 14.7111 132.477C14.3348 130.658 14.0744 128.462 13.7223 126.726C13.0804 123.571 11.8153 118.868 11.4113 115.652C11.3074 114.834 11.355 113.799 11.2033 113.014C10.984 111.877 10.5391 111.685 10.2605 110.225C10.034 109.033 9.83009 107.342 9.64068 105.625C9.43479 103.755 9.23504 101.872 9.01009 100.643C8.87891 99.9226 8.68252 99.6511 8.58336 99.1506C8.18169 97.1417 7.92031 95.4545 7.39303 93.5302C7.45546 91.3631 7.98064 91.4762 8.38463 90.7541C8.68722 90.2152 9.36918 88.5343 9.71849 88.4424C9.83484 88.4213 9.96633 88.434 10.1061 88.5006C10.2456 88.5611 10.3903 88.6285 10.5114 88.5317C10.9518 90.8105 10.9385 91.9885 10.884 94.0445C11.4723 97.7131 12.1124 101.403 12.7617 105.086C12.7724 105.146 12.783 105.206 12.7938 105.267C12.7139 105.624 12.636 105.989 12.5599 106.36C12.5596 106.36 12.5593 106.361 12.559 106.361C12.6529 107.813 13.1192 108.357 13.3429 109.125C15.4529 116.368 17.8155 131.03 19.407 139.179C19.7494 140.937 21.1089 146.601 21.1337 147.85C21.1399 148.174 20.9466 148.303 21.0047 148.633C21.575 150.914 22.1489 153.22 22.7083 155.492C22.872 156.161 23.0284 156.794 23.1888 157.448C23.7563 161.245 24.6851 166.24 25.4999 168.85C25.4457 168.838 25.874 169.064 26.3399 169.211C26.8066 169.368 27.3154 169.513 27.8313 169.653C28.86 169.931 29.91 170.187 30.9591 170.443C31.7193 170.629 32.4827 170.81 33.2507 170.99C44.0419 173.478 54.8847 175.67 65.6818 177.119C70.5385 177.755 75.3876 178.165 80.244 178.286C83.4192 178.377 87.4439 178.129 90.5623 178.057C91.8633 178.028 92.429 178.341 94.1214 177.962C94.1462 178.053 94.171 178.145 94.1958 178.237C95.0611 178.107 95.7375 177.954 96.4857 177.816C97.0194 177.717 97.5911 177.625 98.2904 177.553C99.6982 177.413 103.427 177.021 104.679 176.918C105.326 176.866 105.104 177.065 105.708 176.998C106.741 176.883 108.92 176.394 110.345 176.228C111.636 176.078 113.838 176.02 114.828 175.873C118.395 175.347 122.265 174.584 126.106 174.244C127.166 174.15 128.556 174.231 128.885 174.191C129.428 174.124 129.636 173.947 129.943 173.849C130.003 173.83 130.067 173.814 130.138 173.802C132.338 173.436 135.821 173.388 137.992 173.227C144.168 172.747 150.672 172.323 156.819 171.78C157.727 171.697 158.601 171.613 159.491 171.522C163.2 171.145 169.374 170.328 172.861 169.276C172.751 169.309 172.465 169.517 172.398 169.62C172.312 169.729 172.307 169.759 172.309 169.758C172.318 169.752 172.364 169.65 172.403 169.542C172.484 169.324 172.565 169.053 172.639 168.801C172.863 168.004 173.048 168.262 173.199 167.554C173.364 166.752 173.284 166.303 173.345 165.917C173.637 164.056 174.152 160.545 174.632 157.797C174.821 156.717 175.012 155.719 175.177 155.029C175.287 154.567 175.534 154.238 175.579 153.965C175.603 153.824 175.53 153.483 175.593 153.024C176.144 149.03 176.689 146.154 177.357 142.257C178.632 134.812 179.721 126.112 180.943 118.277C181.21 116.566 181.738 115.442 181.766 115.202C181.83 114.678 181.629 114.295 181.709 113.223C181.857 111.264 182.182 108.957 182.48 106.715C182.728 104.846 182.957 103.019 183.062 101.474C183.178 99.7913 183.081 97.4728 183.15 95.8171C183.213 94.497 183.562 91.4061 183.455 90.8119C183.393 90.4552 183.133 90.2726 183.125 89.8463ZM181.882 134.684C181.49 134.385 181.465 136.898 181.837 136.011C181.921 135.813 181.983 134.762 181.882 134.684ZM94.7928 180.529C94.8249 180.65 94.8569 180.772 94.889 180.894C95.2113 180.818 95.5371 180.741 95.8594 180.663C95.6712 180.604 95.4791 180.544 95.2898 180.484C95.1238 180.499 94.9582 180.514 94.7928 180.529Z" fill="#361700"/>
<path d="M174.045 105.326C174.256 105.326 174.528 105.529 174.777 105.575C175.828 105.775 176.214 105.943 177.237 106.245C177.641 106.371 178.271 106.528 179.044 106.88L179.168 106.94C179.642 107.203 180.228 107.515 180.811 107.944C182.286 109.047 182.591 110.183 182.179 110.491C182.179 110.491 182.179 110.491 182.179 110.491C182.17 110.498 182.161 110.504 182.152 110.51C181.972 110.627 181.561 110.484 181.339 110.598C181.12 110.716 179.918 111.71 179.591 111.475C179.377 111.317 179.235 111.108 178.95 110.852C178.541 110.485 178.001 110.07 177.803 109.975C177.745 109.948 177.68 109.926 177.609 109.906L177.683 109.942C177.51 109.916 177.295 109.926 177.088 109.879C176.193 109.689 175.664 109.501 174.687 109.731C174.349 109.471 173.998 109.213 173.643 108.956C173.129 108.978 172.397 108.599 172.084 108.563C171.827 108.535 171.651 108.669 171.381 108.63C171.077 108.586 170.647 108.332 170.091 108.234C169.18 108.065 168.899 108.413 168.315 108.283C168.261 108.27 168.205 108.254 168.148 108.235C167.64 108.067 166.992 107.662 166.363 107.612C166.268 107.631 166.172 107.651 166.08 107.672C166.108 107.789 166.134 107.906 166.162 108.024C165.83 107.975 165.747 107.727 165.455 107.641C165.102 107.537 164.876 107.689 164.641 107.628C164.452 107.578 164.226 107.355 163.974 107.307C163.6 107.236 163.635 107.486 163.429 107.486C163.344 107.476 161.875 107.334 161.796 107.332C161.172 107.245 161.161 106.92 160.663 106.83C159.269 106.585 157.808 106.782 156.523 106.905C155.946 106.959 155.351 106.968 154.766 106.96C155.636 106.068 153.527 105.588 154.405 106.812C153.739 106.685 153.321 107.084 152.713 107.107C152.311 107.125 152.02 106.986 151.455 107.089C150.45 107.271 149.509 108.015 149.002 107.195C148.639 107.337 148.288 107.43 147.959 107.525C147.331 107.706 146.861 107.926 146.858 108.53C146.651 108.668 145.82 108.556 145.5 108.677C145.216 108.728 143.039 110.015 142.696 110.284C142.347 110.533 141.757 110.973 141.512 111.254C141.211 111.6 141.474 112.462 140.235 112.181C139.544 112.821 139.253 113.012 138.494 113.455C138.355 113.537 138.251 113.433 138.176 113.491C138.025 113.607 137.839 113.887 137.569 114.111C137.146 114.463 136.693 114.421 137.03 114.755C136.787 115.04 136.537 115.329 136.288 115.617C136.132 115.622 135.974 115.627 135.816 115.634C135.719 115.831 135.61 116.037 135.516 116.231C135.297 115.546 134.418 116.707 135.016 116.746C134.625 116.936 134.25 117.113 133.852 117.306C133.569 117.443 133.283 117.577 132.993 117.708C132.644 117.021 131.597 118.538 131.931 118.814C131.859 118.859 131.786 118.904 131.713 118.949C130.968 119.172 130.461 119.667 129.589 119.982C128.719 120.289 128.758 120.175 128.354 119.982C128.172 120.096 127.994 120.206 127.81 120.316C127.195 121.669 126.711 120.073 125.222 121.453C124.44 121.099 123.15 121.868 122.214 122.286C122.107 122.336 122.133 122.452 121.99 122.524C121.64 122.705 120.65 122.748 120.752 123.116C120.395 123.07 120.04 123.016 119.689 122.955C119.423 123.063 119.156 123.167 118.884 123.266C118.898 123.385 118.912 123.504 118.927 123.622C118.317 123.282 117.444 123.488 116.998 123.395C116.909 123.377 116.888 123.213 116.618 123.169C116.511 123.151 116.371 123.144 116.219 123.138C115.941 123.128 115.622 123.131 115.387 123.092C115.245 123.271 115.102 123.451 114.959 123.63C114.318 123.714 114.105 123.225 113.732 123.177C113.664 123.17 112.429 123.161 112.361 123.167C111.811 123.223 111.95 123.652 110.361 123.468C110.079 123.434 109.859 123.276 109.603 123.251C109.153 123.212 107.753 123.401 107.608 123.681C107.093 123.255 105.59 123.202 105.168 123.016C105.042 122.961 105.051 122.723 104.658 122.602C104.341 122.505 103.464 122.524 103.058 122.398C102.626 122.264 102.519 122.031 102.328 121.97C102.148 121.911 101.94 122.024 101.689 121.956C100.908 121.74 100.287 121.274 99.6894 121.065C98.8267 120.762 97.8969 120.908 97.0883 120.789C96.9447 120.698 96.8256 120.557 96.6761 120.466C96.654 120.452 96.631 120.439 96.607 120.428C94.3995 119.408 92.0273 118.13 89.9285 116.978C88.9545 116.442 86.773 114.644 86.9545 115.938C86.5267 115.935 84.2161 114.326 83.7401 114.099C83.2702 113.869 82.8048 113.866 82.4344 113.699C81.8303 113.427 81.3382 113.166 80.7968 112.925C80.3106 112.71 79.784 112.502 79.1135 112.318C78.7353 112.215 78.2776 112.286 78.0689 112.205C77.8202 112.108 77.6256 111.801 77.3067 111.678C76.5366 111.367 75.1529 111.091 74.4697 111.004C74.3431 110.984 74.3168 110.785 74.1315 110.71C73.4111 110.415 72.4925 110.481 72.6774 111.095C72.4535 111.025 72.2325 110.991 72.007 110.981C71.1741 110.949 70.3998 111.193 69.6185 111.257C67.4928 111.412 63.6779 111.606 61.9998 112.202C60.9415 112.57 61.0253 112.813 59.441 112.975C59.0905 113.016 58.7389 113.044 58.3198 113.115C57.3533 113.275 56.2867 113.176 55.9236 114.067C55.8265 114.1 55.733 114.135 55.6427 114.172C54.6519 114.597 53.9273 115.048 52.9695 115.023C52.9368 115.186 52.9047 115.348 52.8731 115.511C52.7465 115.583 52.6142 115.659 52.4823 115.734C52.3828 115.649 52.2835 115.565 52.1843 115.481C51.2294 115.962 50.2624 117.047 49.454 117.467C48.1049 118.186 44.4471 119.801 42.9563 120.191C42.1809 120.408 42.2199 120.666 41.6009 120.32C41.4475 120.414 41.2795 120.51 41.1198 120.601C41.0504 120.747 40.97 120.895 40.8926 121.042C39.8652 121.369 38.5141 121.461 37.4443 121.514C37.1325 121.533 36.7942 121.549 36.4412 121.555C34.8093 121.591 32.7768 121.737 31.3392 121.513C30.9106 121.446 30.3819 121.188 29.9637 121.176C29.3501 121.159 29.1964 121.555 28.4126 121.534C27.0799 121.499 24.6045 120.929 23.3408 120.904C22.9713 120.897 22.7803 121.038 22.5249 121.042C21.4365 121.058 20.5506 121.001 19.4946 121.178C18.4035 120.738 18.5232 120.248 18.2027 119.731C17.9598 119.34 17.2044 118.431 17.0546 118.104C16.958 117.87 17.3219 117.576 17.1934 117.318C18.6418 117.162 19.138 117.426 20.2109 117.838C22.2116 117.926 24.2098 118.007 26.2077 118.075C26.3818 118.222 26.5666 118.369 26.7375 118.515C26.7375 118.516 26.7375 118.516 26.7375 118.516C27.4997 118.708 27.8352 118.361 28.2562 118.295C30.3268 117.967 33.4049 118.035 36.5124 118.177C38.9157 118.341 41.554 117.35 43.4368 116.544C44.2811 116.193 46.8926 114.657 47.5654 114.552C47.74 114.527 47.8867 114.693 48.0448 114.621C49.3775 113.774 50.7244 112.899 52.0524 112.027C52.6946 111.758 53.3293 111.459 53.9708 111.134C56.4957 109.848 59.1778 108.987 61.8249 108.508C65.1964 107.91 68.5344 107.695 71.8007 107.453C75.4147 106.973 79.2023 108.422 82.173 109.678C84.3046 110.577 86.3208 111.568 88.3265 112.564C89.8516 113.325 91.8514 114.141 93.2901 114.965C93.8914 115.308 93.998 115.747 94.9254 115.91C94.8933 115.998 94.8613 116.086 94.8292 116.174C95.59 116.418 96.1348 116.445 96.9405 116.8C97.203 116.915 97.6408 117.112 98.1006 117.317C98.795 117.628 99.5786 117.939 99.9288 118.09C100.228 118.218 100.053 118.341 100.342 118.442C100.836 118.617 101.968 118.72 102.66 118.897C103.284 119.067 104.317 119.499 104.821 119.562C106.631 119.806 108.635 119.73 110.594 119.934C111.135 119.992 111.827 120.252 112 120.253C112.337 120.255 112.446 120.04 112.673 120.021C113.67 119.938 115.152 120.154 116.277 120.232C116.433 120.244 116.58 120.25 116.718 120.251C120.114 120.275 123.714 119.105 126.873 117.596C128.293 116.933 130.296 115.747 131.865 114.629C132.566 114.135 133.2 113.698 133.731 113.357C134.127 113.103 134.173 113.37 134.479 113.138C134.828 112.873 134.916 112.602 135.065 112.471C136.13 111.548 138.457 109.524 139.615 108.831C139.832 108.703 140.1 108.733 140.216 108.642C140.273 108.598 140.34 108.384 140.523 108.227C142.167 106.85 143.491 105.833 145.74 104.941C146.191 104.769 146.656 104.621 147.124 104.494C150.794 103.486 155.089 102.755 159.027 103.116C159.986 103.2 160.595 103.646 160.726 103.656C161.021 103.681 161.231 103.451 161.835 103.473C163.843 103.533 166.397 104.448 168.193 104.927C168.495 105.004 168.863 105.073 169.224 105.133C169.81 105.214 170.468 105.222 170.988 105.285C171.608 105.371 173.162 105.735 173.495 105.639C173.692 105.583 173.816 105.327 174.045 105.326ZM150.819 106.993C150.85 106.542 149.694 107.15 150.203 107.281C150.318 107.309 150.807 107.109 150.819 106.993ZM94.0152 118.369C93.9721 118.486 93.9291 118.602 93.8861 118.719C94.0624 118.747 94.2445 118.778 94.4215 118.806C94.3664 118.697 94.3109 118.587 94.2551 118.478C94.1741 118.441 94.0947 118.405 94.0152 118.369Z" fill="#361700"/>
<path d="M85.108 45.9925C92.5011 42.1461 98.0496 39.8746 98.7556 39.7852C99.0848 39.3053 100.572 39.3642 100.89 39.1806C101.553 38.8991 102.426 38.8076 103.686 39.0123C106.831 40.2554 108.835 40.807 110.712 42.131C114.009 44.4552 119.674 50.1075 119.891 54.5267C119.978 56.2987 119.958 59.6605 117.931 60.6577C117.284 60.9762 116.308 61.2614 110.594 61.3478C104.88 61.4342 94.6868 61.9196 89.2682 61.1647C80.9114 60.0006 77.1177 58.4049 75.6921 56.9068C75.1201 56.3058 74.6787 55.4702 74.6151 54.4458C74.5856 53.9694 74.5758 53.5139 75.1773 52.917C76.7189 51.3871 79.684 48.8144 85.108 45.9925Z" fill="url(#paint1_linear_4055_374)"/>
<path d="M103.062 41.4491C102.972 41.4354 102.89 41.3351 102.802 41.2484L103.301 41.3857C103.261 41.3538 103.222 41.3267 103.182 41.3179C102.708 41.2166 102.548 41.0978 102.208 41.0513C102.051 41.0316 101.844 41.0678 101.707 41.107L101.937 40.9927C101.449 41.2485 101.318 41.2336 101.16 41.276C101.016 41.3043 100.915 41.3161 100.822 41.3258C100.639 41.3438 100.501 41.3478 100.376 41.3483C100.129 41.3477 99.9452 41.3313 99.8409 41.2864C99.7335 41.2402 99.7343 41.163 99.7921 40.9798C99.853 40.7988 99.8622 40.5223 99.6909 40.4266C99.6908 40.4266 99.6908 40.4266 99.6908 40.4266C99.6817 40.4203 99.6722 40.4144 99.6624 40.4086C99.5691 40.3579 99.4261 40.3542 99.3379 40.274C99.2458 40.1991 99.2069 40.0794 99.1551 39.9701C99.0474 39.7635 98.2711 38.3478 98.8145 38.0685C99.1274 37.917 99.5595 37.901 99.9028 37.9294C100.076 37.9429 100.233 37.9644 100.337 37.9829C100.427 38.0143 100.538 37.9735 100.275 38.1166L100.41 38.0495C100.467 38.032 100.514 38.0165 100.547 38.002C100.755 37.9081 100.988 37.6891 101.27 37.6079C102.179 37.3686 102.599 37.5082 103.373 37.1884C103.561 37.35 103.736 37.5163 103.902 37.6855L104.18 37.7622C104.228 37.8491 104.274 37.9357 104.321 38.0221C104.648 38.0492 105 38.4719 105.184 38.5261C105.338 38.5714 105.48 38.4525 105.638 38.5042C105.813 38.5604 106.02 38.8239 106.347 38.9184C106.883 39.0745 107.127 38.7172 107.465 38.7893C107.815 38.8647 108.248 39.2803 108.736 39.3288C108.809 39.3095 108.882 39.2904 108.954 39.2717C108.957 39.1588 108.96 39.0457 108.961 38.9325C109.203 38.9836 109.212 39.2226 109.414 39.3193C109.651 39.4344 109.863 39.3117 110.027 39.3945C110.162 39.4628 110.268 39.701 110.444 39.7857C110.702 39.9112 110.763 39.6768 110.922 39.7171C110.977 39.7249 111.779 40.1056 112.032 40.2596C112.07 40.2808 112.095 40.2954 112.102 40.3002C112.498 40.5726 112.332 40.8538 112.61 41.1007C113.368 41.781 114.309 42.2509 115.061 42.8156C115.394 43.0649 115.695 43.3814 115.951 43.7095C114.918 43.8432 115.459 45.2941 116.003 44.0115C116.193 44.4653 116.669 44.4589 116.924 44.8218C117.087 45.056 117.086 45.3204 117.354 45.6194C117.829 46.1445 118.726 46.4559 118.126 47.1846C118.772 47.7506 118.904 48.5391 119.754 48.3553C119.922 48.5167 119.818 49.2638 119.885 49.5134C119.974 49.7358 120.599 51.4779 120.667 51.7871C120.768 52.0766 120.922 52.5997 121.055 52.8419C121.218 53.1282 122.121 53.2624 121.223 54.0292C121.258 54.1906 121.281 54.3306 121.295 54.4577C121.337 54.8287 121.31 55.0744 121.222 55.5328C121.201 55.6399 121.054 55.6527 121.054 55.7139C121.052 55.8412 121.156 56.0652 121.158 56.299C121.161 56.687 120.831 56.8812 121.303 56.8792C121.359 57.1456 121.406 57.4197 121.442 57.7027C121.338 57.7839 121.232 57.863 121.126 57.9401C121.197 58.1004 121.264 58.2657 121.326 58.4369C120.715 58.1116 120.824 59.2204 121.289 59.0071C120.986 59.523 120.619 60.0356 120.148 60.4835C119.847 60.2377 119.664 60.4842 119.531 60.8164C119.406 61.1488 119.276 61.5964 119.459 61.7194C119.392 61.7721 119.322 61.8235 119.251 61.8722C119.038 61.9486 118.844 62.0301 118.647 62.1121C118.227 62.2893 117.73 62.4972 117.252 62.4881C116.584 62.4687 116.65 62.3693 116.421 62.044C116.286 62.0816 116.153 62.1171 116.019 62.1513C115.389 63.1876 115.385 61.5025 114.251 62.3144C113.842 61.7237 112.938 62.0806 112.33 62.2815C112.259 62.305 112.261 62.4238 112.165 62.4629C111.938 62.5572 111.341 62.417 111.369 62.7995C111.157 62.6928 110.958 62.5854 110.748 62.4778C110.703 62.4972 110.658 62.5166 110.612 62.536C110.495 62.5888 110.376 62.6417 110.256 62.6948C110.258 62.8144 110.261 62.934 110.264 63.0536C109.923 62.6516 109.404 62.819 109.145 62.7273C109.093 62.7087 109.079 62.5439 108.915 62.5026C108.732 62.4532 108.379 62.5104 108.157 62.4642C108.075 62.649 107.993 62.8339 107.911 63.0188C107.509 63.1279 107.365 62.6489 107.126 62.6174C107.081 62.612 106.315 62.666 106.272 62.6774C105.938 62.7674 106.04 63.1764 105.055 63.1124C104.878 63.1008 104.735 62.9619 104.576 62.96C104.294 62.9565 103.457 63.2978 103.397 63.5971C103.05 63.2317 102.14 63.4018 101.87 63.2984C101.788 63.2666 101.766 63.0294 101.516 62.9829C101.313 62.9451 100.796 63.1429 100.539 63.1142C100.266 63.0829 100.167 62.8843 100.045 62.8715C99.9295 62.8596 99.825 63.0218 99.6677 63.0222C99.1772 63.0209 98.7307 62.7638 98.3443 62.7598C97.7831 62.7535 97.286 63.2291 96.8128 63.4373C96.6953 63.4055 96.5808 63.3021 96.4581 63.2999C94.9393 63.2697 93.219 63.1365 91.68 62.9301C90.9615 62.8473 89.2452 62.0048 89.5974 63.1298C89.5143 63.1778 89.2795 63.15 89.001 63.0828C88.372 62.9312 87.4813 62.5793 87.2398 62.5353C86.9032 62.4751 86.6047 62.6221 86.3364 62.5794C85.5295 62.4491 84.9972 62.2118 83.9823 62.1766C83.7149 62.1665 83.4045 62.3346 83.2491 62.2978C83.0643 62.2534 82.9257 61.995 82.6906 61.926C82.1429 61.7695 81.0781 61.572 80.5515 61.3763C80.4545 61.3404 80.4741 61.1431 80.3537 61.0438C79.8772 60.6554 79.2783 60.4722 79.1804 61.0961C78.5879 60.5215 77.8357 60.5776 77.1552 60.287C76.39 59.9442 75.2776 59.3936 74.2125 58.3149C73.3155 57.3987 72.7994 56.2284 72.5273 55.4252C72.4008 55.0648 72.3126 54.8187 72.2414 54.593C72.176 54.424 72.1006 54.1966 72.1291 53.7297C72.1492 53.2817 72.381 52.4621 72.9391 51.844C73.143 51.6119 73.3489 51.4377 73.5569 51.2842C73.659 51.2223 73.7703 51.153 73.8851 51.0796C74.5308 50.664 75.3647 50.6137 75.3878 49.7783C76.1131 49.3739 76.5547 48.8832 77.3502 48.9474C77.3298 48.803 77.3092 48.659 77.2887 48.5152C77.3653 48.454 77.4437 48.3919 77.5219 48.3305C77.6184 48.4104 77.7148 48.4905 77.8111 48.5706C78.3915 48.1841 78.842 47.2684 79.3446 46.9438C80.1769 46.3826 82.4747 45.249 83.3768 44.9635C83.8513 44.8061 83.7559 44.5632 84.2536 44.9057C84.3155 44.8407 84.3779 44.7756 84.4409 44.7103C84.459 44.6914 84.4771 44.6724 84.4952 44.6535C84.5017 44.518 84.5082 44.3826 84.5147 44.2473C85.0614 43.9584 85.8066 43.7815 86.3314 43.5143C87.2924 43.0228 88.6031 42.017 89.6787 41.7379C89.9477 41.6682 90.3583 41.7403 90.5977 41.6242C90.9429 41.4571 90.8617 41.0519 91.3051 40.837C92.0731 40.464 93.704 40.2384 94.4303 39.8866C94.6466 39.7814 94.6869 39.6017 94.8358 39.5205C95.4508 39.1833 95.9737 38.9782 96.531 38.5106C97.3541 38.603 97.4779 39.0922 97.856 39.4868C98.1336 39.7817 98.9682 40.45 98.8933 40.8157C98.8968 41.0509 99.0404 41.3294 99.0727 41.5833C99.0876 41.6303 98.8886 41.7168 98.7786 41.7583C98.6466 41.8062 98.5142 41.8332 98.3829 41.8418C98.1139 41.8617 97.8272 41.8164 97.4545 41.772C96.3158 42.2462 95.1835 42.7578 94.0495 43.2861C93.8899 43.205 93.7288 43.1248 93.5661 43.0454C93.566 43.0451 93.5658 43.0448 93.5657 43.0446C93.0626 43.0969 93.0228 43.5119 92.8258 43.6931C91.3485 45.0338 88.2838 46.283 85.8251 47.371C85.0929 47.692 84.4213 48.0052 83.8696 48.2963C83.3474 48.561 81.8541 49.6957 81.4049 49.7293C81.2863 49.736 81.1442 49.5716 81.048 49.6238C80.3011 50.2694 79.5828 50.9356 78.9002 51.6252C77.8435 52.1892 76.9315 52.9965 76.1288 53.8759C76.0166 54.0034 75.9839 54.1001 76.0025 54.1011C76.0218 54.1012 76.019 54.0857 76.0498 54.3568C76.0737 54.5351 76.1134 54.7046 76.166 54.8671C76.2871 55.2422 76.5038 55.584 76.7905 55.8616C79.6917 58.0989 85.0318 58.7252 89.5068 59.4522C89.6246 59.4696 89.7455 59.4866 89.8694 59.5032C90.8638 59.639 92.1853 59.5672 93.1976 59.7156C93.6252 59.7775 93.787 60.1303 94.3591 59.8903C94.3622 59.9836 94.3653 60.077 94.3684 60.1703C94.8665 60.0723 95.1846 59.8677 95.7374 59.8556C96.2054 59.8471 97.4373 59.8422 97.8518 59.8768C98.066 59.8947 97.9862 60.0689 98.1866 60.0678C98.5297 60.0649 99.2607 59.8206 99.734 59.8159C100.162 59.8122 100.889 60.0033 101.219 59.969C102.408 59.8478 103.699 59.5225 104.972 59.5712C105.326 59.5852 105.782 59.7996 105.893 59.7905C106.109 59.772 106.165 59.5512 106.31 59.5193C107.039 59.3584 108.196 59.5896 108.92 59.5839C109.461 59.5795 110.016 59.5691 110.567 59.5581C112.39 59.517 114.29 59.432 115.919 59.2883C116.388 59.245 116.935 59.1536 117.135 59.0402C117.421 58.9786 117.853 58.2149 118.076 57.5285C118.156 57.306 118.381 57.4087 118.414 57.2016C118.449 56.969 118.3 56.8221 118.298 56.7117C118.292 56.2395 118.231 55.3939 118.17 54.6112C118.142 54.2505 118.082 53.8888 118.079 53.6251C118.078 53.4974 118.232 53.3528 118.207 53.2754C118.195 53.2357 118.046 53.1904 117.993 53.0756C117.505 52.0646 117.138 51.2634 116.507 50.233C115.274 48.2515 113.168 46.3578 111.348 44.6532C110.951 44.2815 110.889 43.7623 110.824 43.7152C110.686 43.6181 110.446 43.747 110.144 43.6007C110.03 43.5447 109.914 43.4819 109.804 43.4191C108.973 42.9351 107.95 42.2364 107.001 41.9798C106.482 41.8362 105.663 41.8683 105.12 41.74C104.691 41.6401 103.742 41.1476 103.505 41.2041C103.363 41.2392 103.212 41.4713 103.062 41.4491ZM117.475 46.0801C117.093 46.2951 117.925 46.7343 117.896 46.3348C117.889 46.2433 117.575 46.0229 117.475 46.0801ZM94.441 62.5034C94.4451 62.6273 94.4493 62.7512 94.4535 62.875C94.5648 62.8267 94.678 62.7782 94.7882 62.7294C94.7295 62.6536 94.6682 62.5776 94.6086 62.5016C94.5526 62.5023 94.4967 62.5029 94.441 62.5034Z" fill="#361700"/>
<defs>
<linearGradient id="paint0_linear_4055_374" x1="99.5437" y1="21.2422" x2="99.5437" y2="178.696" gradientUnits="userSpaceOnUse">
<stop stop-color="#D58937"/>
<stop offset="0.495192" stop-color="#9A4C0F"/>
<stop offset="1" stop-color="#5E2C06"/>
</linearGradient>
<linearGradient id="paint1_linear_4055_374" x1="97.2608" y1="38.9014" x2="97.2608" y2="61.581" gradientUnits="userSpaceOnUse">
<stop stop-color="#D58937"/>
<stop offset="0.495192" stop-color="#9A4C0F"/>
<stop offset="1" stop-color="#5E2C06"/>
</linearGradient>
</defs>
</svg>
