<svg width="195" height="200" viewBox="0 0 195 200" fill="none" xmlns="http://www.w3.org/2000/svg">
<g clip-path="url(#clip0_4055_417)">
<path d="M39.0202 73.5756C34.7443 84.8367 34.1861 89.4686 34.2098 90.6254C33.627 91.6731 31.8257 91.2807 31.4371 91.9084C31.0486 92.5361 28.724 93.1365 28.1526 93.9135C25.4931 96.6675 22.4569 102.042 19.3306 104.876C18.6377 105.505 14.0621 111.095 8.03777 119.598C5.30452 123.456 1.7434 129.841 3.12114 134.529C3.53343 135.932 4.53428 138.104 6.38237 139.943L6.40141 139.962C8.3047 141.856 10.933 144.471 14.8765 144.59C22.1168 144.81 25.7804 144.105 28.7062 147.112C34.1496 152.705 37.7803 157.161 38.5638 158.513C39.3951 159.947 40.6236 161.86 42.8891 163.573C47.9986 167.437 56.7439 173.392 56.7439 173.392C56.7439 173.392 70.8437 175.94 75.0743 177.01C81.3118 178.589 85.3222 175.987 89.5743 177.01C92.1427 177.629 95.4356 178.724 101.256 179.138C107.076 179.551 115.179 179.291 120.076 179.03C124.973 178.77 126.615 178.517 130.953 177.414C135.291 176.311 142.117 174.415 146.038 173.392C149.958 172.37 151.011 172.4 151.786 171.998C155.318 170.166 161.863 164.953 164.692 161.544C169.976 155.179 173.963 148.107 174.905 145.944C175.333 144.963 177.233 141.008 177.927 131.11C178.374 124.736 178.325 115.713 178.51 111.179C178.694 106.645 179.113 106.639 179.695 106.386L179.786 106.347C181.128 105.763 182.703 105.078 183.715 104.033C185.375 102.318 190.675 97.2588 190.304 90.9976C189.857 83.4431 188.003 76.496 186.812 73.9839C185.096 70.3628 182.79 66.9873 180.123 66.009C178.415 65.3824 174.927 63.9495 171.542 65.6011C168.72 66.9785 165.381 71.1636 161.547 70.571C160.176 70.359 157.997 65.7104 152.332 62.273C149.606 60.619 146.851 59.1205 142.912 58.9544C136.595 58.688 132.151 58.791 130.391 58.3454C125.486 57.1034 119.885 54.7359 120.588 52.1763C121.325 49.4972 123.747 49.5337 124.907 41.443C125.908 34.4585 126.652 23.9384 124.441 22.7244C122.518 21.668 118.519 20.8268 116.285 21.3867C113.795 22.0108 110.024 22.1238 105.826 26.2443C103.015 29.0034 99.8852 34.3083 95.8997 40.0247C93.166 43.9454 91.0047 45.8284 91.1187 45.3129C92.0561 41.0753 95.1247 30.1491 92.4288 26.8737C91.7766 26.0813 89.8084 23.5402 87.0737 23.2501L87.073 23.25C85.9557 23.1315 84.3743 22.9637 82.8425 23.517C80.7503 24.2727 77.1675 25.3427 70.5011 31.2898C66.8302 34.5647 60.7964 40.1558 56.7439 44.3789C52.6913 48.6019 50.6809 51.3728 47.8003 56.4501L47.7314 56.5716C44.8564 61.6389 40.9145 68.5866 39.0202 73.5756Z" fill="url(#paint0_linear_4055_417)" stroke="#361700" stroke-width="5" stroke-linecap="round"/>
<path d="M137.538 58.2109C137.538 58.2109 120.464 55.0364 118.579 55.6979C123.321 45.0699 123.227 46.6036 124.406 43.3723C126.641 37.2462 128.678 31.5951 127.106 27.3733C126.443 25.593 125.795 23.6991 124.513 23.2424C120.968 21.9801 116.069 21.3852 113.99 22.3766C112.799 22.9446 109.067 25.1565 101.74 34.2784C96.6087 40.6663 89.1867 50.852 83.179 60.3102C77.1712 69.7684 72.7129 78.2424 70.2533 82.7276C67.7938 87.2128 67.3466 87.6948 66.8075 87.9485C66.2683 88.2022 65.6557 88.227 65.0943 88.135C64.5328 88.0431 63.8652 87.8019 64.1191 86.9963C64.8398 84.7097 67.382 78.8217 74.2191 67.3883C78.6969 59.9 85.3517 49.3752 88.8362 43.7692L89.0434 43.4359C92.3367 38.1375 92.725 37.5128 92.8663 36.819C93.6096 33.1698 94.3789 28.2221 92.8286 25.8408C92.4333 25.2336 91.9553 24.5814 90.7612 24.3866L90.6948 24.3757C85.4491 23.5196 82.6727 23.0665 77.5776 25.8944C73.1062 28.3762 65.1085 33.4127 57.3458 41.667C51.7359 47.6322 48.7658 51.3167 45.7572 57.7616C43.3239 62.9742 39.0778 71.8737 36.9607 77.6295C34.0493 85.5448 33.7701 89.5347 32.4347 91.1385C31.5502 92.2006 27.5665 94.4194 22.1906 99.4341C17.5991 103.717 13.2905 108.13 10.3134 113.488C7.64073 118.298 6.10232 121.24 5.68007 124.669C4.07558 137.699 7.44347 138.565 9.84118 141.443C12.5197 144.658 18.1107 146.039 21.9492 146.438C30.5807 147.337 30.2362 149.072 32.4937 151.217C32.8509 151.556 32.9131 152.297 33.2084 152.887C34.3944 155.256 41.1928 162.58 46.5909 166.781C70.2533 185.196 125.545 178.018 132.504 176.765C141.78 175.095 150.313 173.475 156.484 168.191C165.289 160.654 170.967 155.405 172.256 153.283C173.937 150.516 176.729 146.039 178.037 138.996C179.58 130.69 180.723 123.169 179.972 116.976C179.105 109.835 178.549 105.225 179.637 104.411C181.216 103.229 184.646 102.84 186.703 100.357C189.335 97.1804 193.028 93.3048 192.063 87.7941C190.697 79.9982 189.129 72.3252 183.802 68.2076C179.318 64.7421 175.063 62.7339 171.197 63.9853C166.83 65.3991 162.309 70.3064 159.966 69.9887C159.551 69.9326 159.169 69.1286 157.892 67.7543C151.196 60.5518 137.538 58.2109 137.538 58.2109Z" fill="url(#paint1_linear_4055_417)"/>
<path d="M126.269 21.3466C127.914 22.4426 128.312 24.0518 128.74 25.0457C128.969 25.6243 129.141 26.1202 129.296 26.5578C130.447 30.3871 129.893 32.3119 129.139 35.7139C128.647 37.7233 127.575 40.8949 126.366 44.0873C123.28 50.4494 120.304 56.3156 119.615 56.16C119.615 56.1599 119.615 56.1599 119.615 56.1599C119.605 56.1554 119.595 56.1494 119.586 56.1417C119.419 55.988 119.778 54.6144 119.646 54.3204C119.509 54.0363 118.016 53.5196 118.774 51.6596C119.549 49.5032 122.39 45.1189 123.227 42.9421C123.486 42.3007 123.684 41.7962 123.788 41.4968C124.135 40.4998 124.436 39.2315 124.818 37.9609C125.963 33.9316 126.696 31.5193 125.609 28.471C125.589 28.2996 125.563 28.129 125.53 27.9602C125.221 26.6293 124.948 25.2992 124.475 24.5685C124.341 24.4539 124.221 24.3837 124.119 24.3484C122.377 23.7123 120.078 23.0911 119.056 23.0015C118.079 22.9078 117.495 23.0289 116.525 23.0633C115.935 23.0934 115.095 23.1095 114.457 23.357C113.832 23.6188 113.099 24.0701 112.379 24.6349C109.726 26.8263 109.629 27.6719 108.204 29.1886C106.81 30.7147 104.537 33.0168 102.918 35.2245C102.846 35.3213 102.775 35.4187 102.705 35.5163C102.519 35.8237 102.339 36.1243 102.154 36.4327C102.395 36.2964 102.631 36.1684 102.871 36.0345C102.027 37.1741 101.486 37.5197 100.684 38.5498C99.7419 39.7645 99.4338 40.51 98.8114 41.3343C98.3016 42.0099 97.4829 42.8345 96.8405 43.7237C95.9031 45.0222 96.3017 44.8793 95.8292 45.602C95.6278 45.8832 92.0517 51.1323 91.8605 51.4358C90.3153 53.6801 89.9182 53.6954 88.6777 55.4813C87.3504 57.4012 86.0726 59.3866 84.8585 61.377C82.9342 64.5311 81.1602 67.7125 79.4999 70.6939C78.2892 72.867 76.9955 75.1238 75.751 77.2724C76.923 73.4419 72.1738 80.7347 74.8687 78.5113C73.6639 80.4014 73.0291 82.0002 72.127 83.7551C71.9067 84.1825 71.6735 84.6134 71.4102 85.0611C71.002 85.7536 70.6156 86.3369 70.1726 86.9862C69.9483 87.3132 69.7147 87.6534 69.4167 88.0583C69.0894 88.4303 68.8459 89.0639 67.6295 89.6953C67.3686 89.8168 67.0922 89.9128 66.81 89.9813C66.0883 90.1553 65.4059 90.1462 64.78 90.0537C64.3357 89.9626 63.7709 89.9405 62.953 89.2658C62.5531 88.9285 62.1843 88.2853 62.113 87.717C62.0298 87.1454 62.1243 86.7226 62.2184 86.3972C63.2863 82.9377 64.5898 80.2562 65.6364 79.683C67.7988 75.0093 70.3128 71.3756 70.5361 69.3644C70.8892 68.6991 71.7562 67.5172 72.5858 66.4116C73.1878 65.6093 73.7676 64.8468 74.1148 64.3271C74.8739 63.1583 80.6648 54.2111 81.6046 52.7461C82.5373 51.2739 84.1654 48.697 84.8821 47.4174C85.6632 46.0243 85.7492 44.6802 87.417 42.8871C87.6802 42.601 87.9762 42.3126 88.3175 42.0131C89.7899 39.4725 90.9611 37.8169 91.5315 36.5471C91.6577 36.0056 91.7927 35.4163 91.9324 34.7468C92.0587 34.1338 92.2119 34.0875 92.2675 33.726C92.3786 32.9833 92.444 31.7021 92.4638 30.414C92.5085 28.2914 92.3905 27.2274 92.0147 27.5528C91.8897 27.1982 91.73 26.8891 91.5557 26.6695C91.0651 26.031 91.0245 26.1061 90.4943 26.0218C90.3541 26.0063 90.2159 25.9912 90.0797 25.9764C89.5771 25.8027 89.0801 25.6306 88.586 25.4646C87.7963 25.4457 87.0211 25.4422 86.2794 25.4816C86.7465 25.1847 85.644 24.9928 84.6869 25.085C83.7239 25.1718 82.9582 25.5165 83.7563 25.6031C81.9532 25.6838 80.1265 26.3162 78.308 27.2103C77.6319 27.5428 76.9568 27.888 76.2866 28.243C76.2027 27.3249 70.938 31.5365 71.6841 31.5979C71.4181 31.7816 71.1501 31.9691 70.8856 32.1564C68.4495 33.6455 66.4769 35.3841 63.7848 37.5737C61.1106 39.7972 61.3288 39.5559 60.312 40.0351C59.7405 40.6247 59.1756 41.2253 58.6216 41.8328C58.4797 42.0689 58.3444 42.2849 58.2142 42.4836C56.3156 45.5058 55.188 44.2423 51.4801 50.1184C49.9491 51.3068 47.8353 54.8316 46.5262 58.1206C46.1789 58.9587 45.8465 59.7686 45.5448 60.5011C45.3704 60.9241 45.4768 60.977 45.2516 61.5445C44.7018 62.9196 42.98 66.2779 43.3847 66.3215C42.7399 67.4601 42.1 68.601 41.468 69.7456C41.0978 70.7466 40.7339 71.7477 40.3788 72.7506C40.4908 72.7929 40.6029 72.8351 40.7149 72.8774C39.7706 74.2691 38.8746 76.4916 38.2635 78.1087C38.0808 78.5897 37.9206 79.011 37.7774 79.3524C37.6524 79.6516 37.4688 79.6643 37.1007 80.6176C36.666 81.73 36.0619 83.8676 35.6336 85.2254C35.659 85.8109 35.6887 86.3939 35.7171 86.9817C35.0902 89.4688 34.5638 90.2991 33.3528 91.903C33.3346 91.9239 33.3163 91.9445 33.2978 91.9649C32.8916 92.5627 28.9825 95.2775 28.7865 95.4997C27.1737 96.8886 27.7573 96.7194 23.3091 100.633C23.2493 100.687 23.1886 100.743 23.1271 100.799C22.3011 101.55 21.5506 102.068 20.8272 102.765C19.5003 103.969 16.1698 108.098 16.1955 108.626C15.0038 109.61 13.0051 112.316 11.8876 114.363C11.4252 115.181 11.0412 115.859 10.791 116.257C10.5211 116.691 10.2436 116.68 9.48267 118.043C8.83677 119.151 7.7226 122.118 7.44618 123.544C7.31369 124.083 7.21771 124.501 7.13601 124.849C6.97924 125.559 6.85166 125.943 6.79195 126.451C6.71034 127.161 6.81307 127.827 6.7603 128.809C6.60184 131.811 6.52012 134.583 7.4125 136.555C8.09989 138.172 9.50994 139.031 10.9859 140.489C11.8178 141.278 12.8573 141.831 13.9217 142.295C14.4818 142.629 15.0447 142.993 15.7138 143.25C17.6769 143.997 19.8873 144.494 22.1257 144.743C24.1509 144.977 26.2037 145.231 28.3712 145.954C29.4408 146.319 30.627 146.901 31.5635 147.79C32.5022 148.687 33.0081 149.476 33.6137 150.038C34.2955 150.76 34.3148 151.225 34.4406 151.543C34.5361 151.863 34.6043 152.077 34.6487 152.166C35.9392 154.366 38.2638 156.846 40.2414 158.948C41.9172 160.724 45.0305 163.965 47.3809 165.766C49.2493 167.204 50.5859 167.814 49.7734 166.724C50.8904 167.674 60.7162 172.585 62.8691 172.967C64.8772 173.59 66.5631 173.825 68.1741 174.202C73.0673 175.307 76.5659 176.034 82.7036 176.508C84.291 176.624 86.0037 176.529 86.944 176.598C88.0748 176.682 89.2754 176.979 90.7495 177.064C94.2522 177.292 100.803 177.281 104.178 177.226C104.796 177.22 104.996 177.411 105.894 177.447C109.316 177.596 113.201 177.342 112.477 176.76C116.902 176.86 120.903 176.198 124.975 175.724C127.055 175.478 129.573 175.183 132.14 174.746C140.539 173.43 150.486 170.832 154.289 167.14C154.563 166.91 154.804 166.693 155.024 166.485C157.72 163.943 157.933 163.523 162.843 159.431C164.029 158.432 165.207 157.454 166.59 156.218C168.117 154.841 169.804 153.401 170.621 152.29C171.768 150.576 172.662 148.97 173.078 147.338C174.697 144.209 175.479 141.324 176.188 138.653C176.423 137.752 176.674 136.882 176.955 136.034C176.904 135.591 176.852 135.147 176.798 134.705C176.896 134.115 176.991 133.527 177.083 132.936C177.232 132.772 177.381 132.608 177.531 132.442C178.252 128.215 178.292 122.804 178.082 119.381C178.052 118.756 178.002 118.026 177.91 117.227C177.717 115.539 177.479 113.515 177.276 111.295C177.177 110.179 177.084 109.026 177.056 107.792C177.044 107.174 177.045 106.537 177.114 105.827C177.151 105.465 177.201 105.089 177.328 104.63C177.48 104.188 177.595 103.559 178.469 102.851C182.02 100.877 184.128 100.691 185.302 99.1954C186.499 97.8194 187.464 96.7225 188.111 95.8643C189.788 93.5417 189.478 93.3235 190.5 92.0401C190.634 91.4494 190.709 90.8568 190.72 90.2675C190.634 89.8916 190.522 89.5278 190.388 89.1804C190.371 88.8282 190.333 88.475 190.272 88.1077C189.677 84.5128 189.052 80.5242 187.982 77.4986C187.038 74.7688 185.401 71.5776 182.722 69.6046C179.092 66.8081 174.806 64.7513 171.966 65.5925C171.891 65.6104 171.814 65.6296 171.736 65.6503C170.407 65.9926 168.644 66.8049 167.357 67.6777C165.264 69.0219 165.415 69.8163 161.979 71.5099C161.444 71.7035 160.778 71.9704 159.714 71.8473C158.938 71.72 158.607 71.3769 158.404 71.2095C158.201 71.0217 158.087 70.8841 157.983 70.7608C157.782 70.5167 157.636 70.3213 157.484 70.125C157.185 69.7382 156.888 69.3702 156.556 68.9958C153.378 65.2743 147.162 62.3644 143.55 61.2687C142.141 60.8291 141.436 60.7919 140.448 60.5463C139.331 60.2745 138.223 60.0327 137.254 59.8694L137.231 59.8653C134.328 59.369 131.609 58.9375 128.567 58.6242C124.193 57.559 124.64 57.1549 123.321 56.4748C122.277 55.975 119.376 54.7046 118.341 54.6832C117.97 54.6821 118.445 54.3725 118.72 54.2204C119.01 54.052 119.247 53.9097 118.933 53.7971C125.024 53.8065 126.901 54.642 131.289 55.6497C133.466 56.0073 135.633 56.3816 137.805 56.7774L137.785 56.7738C143.803 57.974 149.617 59.8833 154.871 63.2973C155.441 63.8462 155.989 64.4184 156.503 65.0122C156.503 65.0125 156.502 65.0127 156.502 65.013C157.397 65.8113 158.086 66.4647 158.67 67.0306C159.135 67.4815 159.534 67.8789 159.893 68.2438C160.07 68.4229 160.242 68.6004 160.383 68.73C160.451 68.793 160.517 68.8456 160.533 68.8456C160.547 68.8577 160.503 68.7376 160.145 68.6645C160.156 68.6608 160.172 68.6577 160.195 68.6537C162.311 68.1792 165.671 64.2486 170.678 62.3829C176.07 60.6681 181.045 63.9269 184.865 66.8316C191.494 72.2323 192.377 80.7938 193.624 87.5207C194.716 93.7051 190.369 98.2748 187.821 101.283C186.958 102.315 185.899 103.034 184.902 103.554C183.875 104.161 181.689 104.789 180.507 105.574C180.749 105.362 180.65 105.382 180.627 105.525C180.589 105.664 180.555 105.882 180.536 106.119C180.496 106.592 180.499 107.149 180.521 107.709C180.566 108.84 180.679 110.019 180.794 111.146C181.03 113.405 181.278 115.47 181.391 116.804C181.431 117.256 181.447 117.628 181.448 117.9C181.447 118.61 181.244 118.819 181.267 119.561C181.609 126.209 180.545 132.689 179.522 139.076C179.509 139.139 179.496 139.202 179.482 139.265C178.434 144.463 176.2 149.537 173.377 153.965C168.428 160.141 162.857 164.424 157.43 169.295C156.649 169.972 155.826 170.595 154.974 171.165C148.139 175.656 140.207 176.874 132.78 178.299C104.657 181.81 74.6877 184.426 48.6697 170.338C47.6494 169.694 46.5619 168.948 45.5264 168.149C40.5329 164.172 35.5536 159.438 32.0684 154.447C31.9196 154.21 31.7702 153.952 31.6388 153.673C31.3935 153.143 31.3211 152.762 31.255 152.511C31.2128 152.262 31.0999 152.157 31.3538 152.417C30.1431 151.183 29.7662 149.934 28.0042 149.36C28.0135 149.262 28.0211 149.164 28.0271 149.065C25.9489 148.346 24.1136 148.3 21.7761 148.101C21.0897 148.048 20.3545 147.962 19.5583 147.826C17.154 147.435 11.3669 146.06 8.51885 142.545C7.97573 141.892 7.32478 141.282 6.88239 140.791C5.86126 139.609 6.33806 139.959 5.49846 138.692C3.85629 136.4 3.31413 131.132 3.59602 128.005C3.66024 126.998 3.80179 125.748 3.99234 124.462C4.34138 121.884 5.47665 119.452 6.06438 118.158C6.91586 116.284 7.87459 114.485 8.83355 112.666C11.7548 107.123 16.1928 102.343 20.7237 98.1964C20.7793 98.1454 20.8357 98.0941 20.8926 98.0426C22.5858 96.4923 24.8943 94.8674 25.4423 94.4321C26.539 93.5453 26.7533 93.1138 27.4921 92.5244C28.0574 92.0761 28.6796 91.6088 29.3214 91.1349C29.6429 90.897 29.9667 90.6594 30.2757 90.4233C30.4266 90.3078 30.5772 90.1897 30.7004 90.0866C30.8222 89.9869 30.9378 89.8723 30.9272 89.8832C31.4933 89.2304 32.14 86.6352 32.7182 84.7462C33.3121 82.7399 33.9418 80.8246 34.4788 79.261C34.7348 78.5123 35.0012 77.7634 35.2791 77.011C37.8693 70.1952 41.0531 63.6084 44.1161 56.9956C46.897 50.6395 51.5097 45.1119 56.0182 40.4185C56.5244 39.8822 57.0342 39.3568 57.5478 38.8414C62.107 34.1809 69.4905 28.2476 76.7176 24.3449C80.2669 22.163 84.9447 21.6594 87.8441 22.2589C89.7812 22.559 89.2246 22.7335 90.8021 22.9848C90.8638 22.9949 90.9248 23.0046 90.9852 23.0141C92.6271 23.1963 93.7562 24.4871 94.1078 25.008C94.3288 25.311 94.4904 25.6027 94.6117 25.879C95.9033 29.0145 95.2835 33.1349 94.5279 37.1575C94.2199 38.4217 93.7902 38.8982 93.4448 39.5525C93.0842 40.1685 92.7263 40.7564 92.3677 41.3433C91.6573 42.504 90.9608 43.6247 90.3007 44.6795C89.2297 46.3892 88.2612 47.896 87.5137 49.0133C86.9417 49.8674 86.391 50.3926 86.0642 50.9163C85.9002 51.1785 85.6374 51.8409 85.1311 52.6758C81.6079 58.4923 78.7564 63.0156 75.5963 68.2119C74.761 69.5897 73.906 71.0218 73.0224 72.5434C70.3617 77.2006 67.4563 82.2935 65.6203 87.4695C65.6198 87.4648 65.6546 87.3936 65.6296 87.2C65.6117 87.008 65.4557 86.7395 65.3372 86.6451C65.0927 86.458 65.1848 86.5652 65.3497 86.5759C65.6978 86.633 65.9879 86.588 66.1321 86.5133C66.161 86.497 66.103 86.5312 66.1116 86.5264C66.1145 86.5239 66.1529 86.4868 66.2005 86.4294C66.2979 86.3135 66.4274 86.1321 66.5537 85.9409C66.8094 85.5535 67.0692 85.117 67.3244 84.6775C67.8377 83.7905 68.3384 82.8784 68.8417 81.9535C72.7996 74.5563 76.9463 67.0528 81.3475 60.2103C81.5126 59.9525 81.6767 59.702 81.8388 59.459C83.636 56.7697 85.1158 55.1311 85.3768 54.73C86.0076 53.7734 86.205 53.0225 87.4666 51.0712C91.0477 45.5385 96.1998 38.7338 100.529 33.3056C101.281 32.362 102.01 31.4649 102.702 30.6238C105.036 27.7938 108.195 23.8467 111.423 21.534C111.851 21.2332 112.375 20.8806 113.107 20.5252C117.694 18.861 122.328 20.6237 123.556 20.7336C124.232 20.8516 124.658 20.7799 125.337 20.9269C125.643 21.0157 125.963 21.1545 126.269 21.3466ZM62.3749 87.7159C62.5763 88.1532 62.3657 87.2171 62.6569 86.5354C63.1037 85.3262 63.9985 82.6959 63.2167 84.0625C63.0444 84.3657 62.5669 85.6643 62.4008 86.4547C62.2447 86.9685 62.3157 87.609 62.3749 87.7159ZM28.0114 146.575C28.0012 146.441 27.9892 146.308 27.9752 146.174C27.2267 145.993 26.4923 145.876 25.7689 145.787C26.1565 145.938 26.5362 146.097 26.9253 146.271C27.2786 146.357 27.6521 146.46 28.0114 146.575ZM100.04 95.5829C100.036 95.6423 99.8605 95.6117 99.8193 95.6575C99.6435 95.8508 99.4956 95.8703 99.3101 96.0343C99.0346 96.2771 98.6226 97.2942 97.68 96.6775C97.68 96.6775 97.68 96.6775 97.68 96.6775C97.6707 96.6714 97.6614 96.6652 97.6521 96.6588C97.4749 96.5377 97.3299 96.3317 97.1343 96.1874C96.9389 96.0426 95.622 95.1928 95.6205 95.0344C95.6272 94.8125 96.2127 94.6532 96.254 94.5584C96.281 94.4951 96.2101 94.3438 96.2379 94.2559C96.3289 93.9705 96.4972 93.9054 96.3235 93.4699C96.551 93.4971 96.7801 93.5225 97.0074 93.5512C97.0067 93.3841 97.3477 93.3641 97.3835 93.2875C97.4133 93.2237 97.3047 93.0979 97.3407 93.0342C97.3805 92.9622 97.5945 92.9622 97.6605 92.8277C97.7696 92.6079 97.4597 92.321 97.5062 92.1707C97.539 92.0658 97.698 92.0096 97.7977 91.9112C97.8455 91.8643 97.88 91.8067 97.8801 91.7285C97.8586 91.681 97.8366 91.634 97.8149 91.5868C97.7221 91.5354 97.6295 91.4838 97.5365 91.4328C97.5572 91.3276 97.751 91.4283 97.8078 91.3626C97.8743 91.286 97.7469 91.1193 97.7896 91.0669C97.825 91.0236 97.9992 91.0663 98.0351 91.0044C98.0884 90.9143 97.8897 90.7859 97.8893 90.7154C97.8909 90.686 98.0385 90.288 98.0506 90.2691C98.1495 90.1275 98.4127 90.3139 98.5201 90.2214C98.8155 89.9656 98.8438 89.4974 98.9748 89.1566C99.0323 89.0055 99.1454 88.8839 99.279 88.7888C99.7975 89.4769 100.642 89.4099 99.4777 88.8154C99.7286 88.783 99.5197 88.4774 99.6643 88.3774C99.7576 88.3133 99.9469 88.3565 100.032 88.2286C100.183 88.0006 99.9377 87.464 100.736 87.9267C100.758 87.7802 100.84 87.6903 100.893 87.5921L100.875 87.6185C100.94 87.4881 100.942 87.3422 100.572 87.0253C100.571 86.9353 101.098 87.0076 101.197 86.973C101.29 86.9444 101.836 86.4731 101.897 86.3922C101.964 86.3057 102.075 86.1446 102.063 86.0257C102.05 85.8733 101.361 85.3861 102.314 85.7046C102.367 85.4563 102.437 85.3924 102.65 85.2498C102.688 85.2255 102.817 85.2942 102.829 85.274C102.853 85.232 102.8 85.1068 102.832 85.0242C102.885 84.8885 103.194 84.9668 102.777 84.7495C102.756 84.627 102.735 84.5038 102.715 84.3799C102.81 84.3947 102.907 84.4078 103.001 84.4245C102.94 84.3326 102.878 84.2406 102.816 84.1485C103.38 84.5326 103.205 84.0247 102.807 83.9363C103.02 83.844 103.234 83.7481 103.449 83.6488C104.114 84.0433 103.721 83.3384 103.336 83.1681C103.346 83.1499 103.357 83.1316 103.368 83.1133C103.637 83.049 103.572 82.8164 103.804 82.6787C104.031 82.5479 104.088 82.6015 104.433 82.7098C104.44 82.6533 104.448 82.5966 104.455 82.5398C103.73 81.8319 105.195 82.6688 104.763 81.8902C105.375 82.0441 105.269 81.5572 105.225 81.2442C105.219 81.2078 105.115 81.1519 105.101 81.0998C105.069 80.9702 105.315 80.8315 104.972 80.6597C105.109 80.6373 105.246 80.6145 105.384 80.5912C105.354 80.4979 105.324 80.4044 105.294 80.3107C105.188 80.2556 105.082 80.2005 104.976 80.1455C105.401 80.2112 105.365 79.9415 105.501 79.8911C105.529 79.8815 105.677 79.9536 105.748 79.9158C105.83 79.8721 105.853 79.7216 105.942 79.663C105.796 79.547 105.65 79.431 105.504 79.315C105.493 79.1222 105.948 79.2914 106.027 79.2213C106.04 79.2092 106.159 78.9035 106.156 78.8858C106.147 78.7238 105.763 78.5726 106.027 78.2501C106.075 78.1926 106.228 78.2049 106.263 78.1487C106.325 78.0502 106.199 77.5868 105.945 77.4297C106.34 77.475 106.374 77.0709 106.521 77.0201C106.566 77.0051 106.781 77.1058 106.873 77.0362C106.947 76.9803 106.876 76.6998 106.952 76.62C107.033 76.5361 107.229 76.5901 107.264 76.5517C107.297 76.5153 107.173 76.4038 107.203 76.3464C107.299 76.1685 107.613 76.1204 107.69 75.9785C107.801 75.7727 107.465 75.3771 107.362 75.1101C107.411 75.081 107.524 75.0846 107.547 75.0399C107.84 74.4869 108.229 73.8983 108.599 73.3788C108.77 73.1389 109.669 72.776 108.614 72.4731C108.489 72.2994 109.203 71.8299 109.27 71.708C109.337 71.5854 109.211 71.401 109.257 71.301C109.394 70.9994 109.622 70.8494 109.646 70.4138C109.652 70.3009 109.494 70.1005 109.523 70.0461C109.559 69.9809 109.793 70.0056 109.848 69.925C109.977 69.7319 110.097 69.3153 110.227 69.1337C110.251 69.1007 110.433 69.1725 110.512 69.1471C110.824 69.0485 110.914 68.8129 110.334 68.5837C110.777 68.4778 110.601 68.0989 110.698 67.8506C110.904 67.3268 111.476 66.4628 111.448 65.9095C111.432 65.5592 111.176 65.4469 111.588 65.139C111.679 65.0706 111.787 65.0106 111.897 64.9274C112.154 64.7335 112.734 64.7122 112.265 64.2501C112.546 64.0299 112.55 63.7528 113.132 63.7643C113.028 63.6849 112.925 63.6054 112.821 63.526C112.835 63.4891 112.849 63.4522 112.862 63.4154C112.978 63.4558 113.093 63.4963 113.208 63.5367C113.357 63.2958 113.054 62.7628 113.157 62.5509C113.332 62.1906 113.935 61.3511 114.245 61.0724C114.408 60.9268 114.176 60.808 114.71 60.9284C114.695 60.8722 114.68 60.816 114.665 60.7599C114.57 60.6854 114.475 60.611 114.38 60.5366C114.482 60.3043 114.777 60.1008 114.877 59.8774C115.059 59.4719 115.045 58.7276 115.423 58.4096C115.518 58.3302 115.796 58.3038 115.838 58.2039C115.902 58.0555 115.553 57.8532 115.63 57.6646C115.764 57.3402 116.456 56.9429 116.56 56.6236C116.591 56.5299 116.474 56.427 116.487 56.359C116.54 56.0753 116.647 55.8653 116.549 55.5208C117.02 55.4106 117.462 55.6369 117.956 55.7587C118.328 55.8504 119.213 56.0169 119.527 56.1248C119.748 56.2005 119.989 56.3932 120.235 56.4709C120.28 56.8719 120.013 56.916 119.567 57.032C119.361 57.5256 119.16 58.0075 118.953 58.4983C118.806 58.4842 118.66 58.47 118.513 58.4559C118.512 58.4557 118.512 58.4556 118.512 58.4555C118.282 58.5727 118.574 58.7998 118.603 58.9336C118.881 60.2132 117.463 61.8367 116.897 62.8478C116.777 63.0629 116.605 63.8785 116.327 63.9378C116.255 63.9527 116.054 63.8728 116.026 63.9112C115.966 64.3436 115.903 64.7805 115.841 65.2151C115.172 65.8532 115.042 66.7787 114.715 67.5882C113.832 69.7754 112.974 71.9502 111.906 74.0116C111.7 74.4093 111.593 74.9905 111.305 75.3388C111.185 75.4839 110.842 75.3987 110.966 75.7276C110.882 75.6884 110.797 75.6493 110.712 75.6102C110.721 75.8467 110.85 76.0639 110.764 76.2844C110.691 76.4711 110.471 76.9432 110.36 77.0849C110.303 77.1589 110.163 77.0504 110.125 77.127C110.063 77.2588 110.138 77.6444 110.049 77.8225C109.968 77.9837 109.651 78.1654 109.614 78.3047C109.478 78.8024 109.497 79.42 109.18 79.8651C109.092 79.9867 108.805 80.052 108.79 80.0957C108.76 80.1815 108.943 80.3055 108.941 80.3719C108.924 80.7157 108.471 81.0261 108.324 81.2863C107.833 82.1565 107.438 83.1127 106.928 83.9734C106.614 84.505 106.141 85.4471 105.718 85.8632C105.627 85.9523 105.434 85.8054 105.381 85.8988C105.323 86.0022 105.433 86.1373 105.417 86.1915C105.315 86.5611 105.036 87.3718 104.712 87.5915C104.649 87.6357 104.461 87.5827 104.441 87.6186C104.43 87.6365 104.516 87.7429 104.494 87.8056C104.305 88.3465 104.02 88.668 103.662 89.1394C103.607 89.2118 103.553 89.2848 103.501 89.358L103.484 89.384C102.888 90.1905 102.38 91.2249 101.656 91.9789C101.484 92.1585 101.086 92.0634 101.068 92.0933C101.028 92.1572 101.196 92.3494 101.151 92.5081C101.005 93.015 100.41 93.3756 100.207 93.7861C100.199 93.8029 100.192 93.8197 100.185 93.8365C100.096 94.0519 100.17 94.481 100.104 94.6916C100.051 94.8585 99.7181 95.1167 99.7893 95.2607C99.8321 95.3471 100.043 95.5178 100.04 95.5829ZM100.298 88.2159C100.633 88.4924 100.533 88.0086 100.27 87.9782C100.212 87.9704 100.21 88.1445 100.298 88.2159ZM108.599 74.6276C108.487 74.5755 108.375 74.5233 108.262 74.4712C108.289 74.534 108.314 74.5979 108.34 74.6615C108.418 74.6716 108.496 74.6818 108.574 74.6919C108.583 74.6702 108.591 74.6491 108.599 74.6276Z" fill="#361700"/>
<path d="M135.647 58.8073C135.647 58.8073 118.825 55.6723 116.967 56.3313C121.651 45.7703 121.557 47.2937 122.722 44.083C124.931 37.9962 126.944 32.3813 125.4 28.1897C124.748 26.4222 124.111 24.5418 122.848 24.0895C119.357 22.8395 114.529 22.2538 112.48 23.2407C111.306 23.8061 107.626 26.0069 100.396 35.0747C95.333 41.4247 88.0085 51.5492 82.0784 60.9496C76.1483 70.35 71.7461 78.7712 69.3177 83.2286C66.8893 87.686 66.4482 88.1652 65.9166 88.4178C65.385 88.6703 64.7814 88.6956 64.2282 88.6048C63.675 88.5141 63.0174 88.2753 63.2685 87.4748C63.9811 85.203 66.4924 79.3522 73.2417 67.9891C77.6622 60.5469 84.231 50.0865 87.6705 44.5148L87.8747 44.184C91.1259 38.9176 91.5092 38.2967 91.6492 37.6075C92.3855 33.9822 93.1487 29.0672 91.6236 26.7037C91.2347 26.101 90.7643 25.4538 89.5879 25.2615L89.5225 25.2508C84.3541 24.406 81.6188 23.9589 76.595 26.773C72.1862 29.2427 64.2999 34.2535 56.6417 42.46C51.1073 48.3907 48.1767 52.0533 45.2052 58.4577C42.8019 63.6375 38.6084 72.4812 36.5161 78.2002C33.6388 86.0648 33.3595 90.028 32.0418 91.6223C31.1692 92.6782 27.2413 94.8861 21.9385 99.8725C17.4094 104.131 13.1591 108.518 10.2197 113.844C7.58099 118.624 6.06192 121.548 5.64222 124.954C4.0474 137.898 7.36526 138.754 9.72495 141.61C12.361 144.8 17.869 146.165 21.6511 146.558C30.1558 147.442 29.8144 149.165 32.0367 151.293C32.3884 151.63 32.4488 152.366 32.7392 152.951C33.9054 155.303 40.597 162.57 45.9119 166.737C69.2098 185.002 123.702 177.815 130.561 176.563C139.704 174.894 148.114 173.276 154.201 168.022C162.884 160.526 168.486 155.307 169.758 153.199C171.417 150.449 174.174 145.999 175.47 139.002C176.999 130.751 178.133 123.279 177.399 117.13C176.553 110.038 176.01 105.459 177.083 104.65C178.64 103.474 182.02 103.084 184.051 100.616C186.647 97.458 190.29 93.6048 189.345 88.1325C188.008 80.3909 186.47 72.7715 181.225 68.6874C176.811 65.2501 172.619 63.26 168.809 64.5071C164.504 65.9159 160.044 70.7947 157.735 70.4816C157.327 70.4262 156.951 69.6282 155.693 68.2645C149.103 61.1179 135.647 58.8073 135.647 58.8073Z" fill="url(#paint2_linear_4055_417)"/>
<path d="M124.782 22.3182C126.31 23.4466 126.674 24.9952 127.086 25.9809C127.292 26.5123 127.45 26.9726 127.594 27.3811C128.738 31.2553 128.164 33.1488 127.409 36.546C126.92 38.5242 125.869 41.6468 124.684 44.7948C121.638 51.1107 118.695 56.9466 118.004 56.791C118.004 56.791 118.004 56.791 118.004 56.791C117.993 56.7865 117.984 56.7805 117.975 56.7729C117.807 56.6201 118.158 55.2591 118.024 54.9672C117.886 54.6851 116.392 54.171 117.137 52.3274C117.902 50.1804 120.723 45.8042 121.544 43.6554C121.792 43.0373 121.982 42.5516 122.082 42.2605C122.424 41.2725 122.718 40.0176 123.096 38.7583C124.228 34.7675 124.957 32.3876 123.916 29.3489C123.897 29.1532 123.87 28.9591 123.833 28.767C123.539 27.4769 123.284 26.1962 122.836 25.451C122.69 25.3152 122.558 25.2323 122.452 25.1949C120.749 24.5639 118.533 23.9617 117.539 23.8707C116.573 23.7752 115.997 23.8952 115.035 23.926C114.444 23.9541 113.59 23.9666 112.95 24.2174C112.345 24.473 111.634 24.914 110.939 25.4614C108.321 27.6348 108.233 28.4747 106.828 29.9804C105.442 31.5073 103.177 33.8125 101.579 36.0181C101.521 36.0982 101.463 36.1786 101.406 36.2593C101.224 36.5627 101.045 36.8636 100.865 37.1682C101.104 37.0333 101.335 36.9091 101.575 36.7738C100.744 37.9056 100.208 38.2468 99.4179 39.2691C98.4887 40.475 98.1885 41.2141 97.5748 42.0324C97.0717 42.7036 96.2641 43.5194 95.6307 44.4024C94.7072 45.6905 95.1027 45.5499 94.6382 46.2662C94.44 46.5453 90.9178 51.7524 90.7295 52.0532C89.207 54.2792 88.8114 54.2934 87.5886 56.0644C86.2575 58.0012 84.9778 60.0045 83.7631 62.0124C81.8906 65.1067 80.1661 68.2204 78.5466 71.1462C77.3549 73.2984 76.0792 75.5356 74.8519 77.6651C75.9956 73.8667 71.3048 81.0964 73.9805 78.8916C72.7541 80.8231 72.131 82.4474 71.1981 84.253C71.0048 84.626 70.8055 84.9933 70.5798 85.3805C70.1627 86.0948 69.7764 86.6795 69.327 87.3466C69.1018 87.6787 68.8634 88.0319 68.5625 88.4509C68.2248 88.8349 68.0292 89.4695 66.7446 90.1604C66.5909 90.233 66.4316 90.2969 66.2689 90.3513C65.4338 90.6277 64.6298 90.6323 63.9128 90.5275C63.4694 90.4367 62.8994 90.4153 62.0808 89.7292C61.6806 89.3859 61.3219 88.7405 61.2547 88.1797C61.1757 87.615 61.2685 87.1985 61.3611 86.8765C62.3871 83.5225 63.6311 80.9621 64.6551 80.3966C66.7737 75.7606 69.2556 72.1503 69.4561 70.1644C69.8274 69.458 70.7672 68.1828 71.6284 67.0309C72.1659 66.3121 72.675 65.6332 72.9853 65.1662C73.7337 64.0053 79.4383 55.1319 80.364 53.6794C81.2815 52.2212 82.8845 49.6665 83.5915 48.394C84.3884 46.9601 84.4406 45.5649 86.3049 43.6717C86.5114 43.458 86.7265 43.2587 86.9773 43.0344C88.4925 40.3979 89.6677 38.75 90.3236 37.3382C90.4287 36.8897 90.5395 36.4077 90.6543 35.8737C90.7834 35.2666 90.9371 35.2218 90.9949 34.8638C91.1109 34.1279 91.1858 32.8588 91.2291 31.5766C91.3106 29.4664 91.2635 28.3769 90.8684 28.6833C90.734 28.2175 90.5448 27.8072 90.3309 27.5378C89.8469 26.9065 89.8273 26.9985 89.3175 26.9157C89.3006 26.9138 89.2837 26.912 89.2669 26.9101C88.7697 26.7371 88.2736 26.5639 87.7834 26.396C87.0001 26.3745 86.2261 26.3641 85.4862 26.3929C85.9567 26.1024 84.8598 25.8969 83.9072 25.9668C82.9481 26.0316 82.1849 26.3542 82.9717 26.4621C81.0967 26.495 79.2127 27.1348 77.3231 28.0727C76.7442 28.3599 76.1684 28.6553 75.597 28.9576C75.5083 28.0426 70.3086 32.2147 71.0479 32.2801C70.7812 32.4645 70.5213 32.6464 70.2571 32.8337C67.8466 34.3062 65.8982 36.0278 63.2317 38.1969C60.5867 40.3961 60.7984 40.1599 59.7929 40.6287C59.2247 41.2155 58.6701 41.8059 58.1194 42.4101C57.9174 42.7483 57.7293 43.0444 57.5499 43.3075C55.7932 45.9899 54.6121 44.9708 51.052 50.6134C49.4764 51.8184 47.2934 55.4907 45.9889 58.8213C45.6942 59.5405 45.4117 60.2343 45.1537 60.866C44.984 61.2814 45.0862 61.3432 44.8683 61.8981C44.3273 63.2625 42.6268 66.5897 43.0312 66.633C42.3936 67.7607 41.7608 68.8901 41.1352 70.0232C40.7703 71.0146 40.4109 72.0072 40.0601 73.0004C40.1722 73.0427 40.2842 73.0851 40.3962 73.1274C39.3826 74.615 38.4335 77.056 37.8146 78.6752C37.6886 79.0024 37.5787 79.2816 37.473 79.5318C37.3465 79.8326 37.1642 79.8414 36.7975 80.781C36.3631 81.8824 35.7598 83.9902 35.3316 85.3365C35.3585 85.9125 35.3882 86.4927 35.4195 87.0719C34.8156 89.5562 34.2356 90.3264 33.2833 91.9375C33.2519 91.9831 33.1557 92.144 32.9613 92.3823C31.7393 93.6751 28.9947 95.4757 28.812 95.6932C27.1961 97.0864 27.7997 96.8971 23.207 100.926C23.1567 100.972 23.1066 101.017 23.0565 101.061C22.2986 101.735 21.6023 102.226 20.9303 102.875C19.6182 104.069 16.3088 108.149 16.3317 108.673C15.0592 109.703 12.8907 112.679 11.7929 114.712C11.44 115.337 11.1441 115.854 10.939 116.18C10.6703 116.61 10.3955 116.598 9.63366 117.949C8.99183 119.047 7.83909 121.988 7.51252 123.394C7.29401 124.182 7.15443 124.703 7.04162 125.127C6.93607 125.552 6.85135 125.868 6.80737 126.215C6.71806 126.938 6.81581 127.602 6.75282 128.558C6.55967 131.544 6.41127 134.286 7.17111 136.316C7.81713 138.169 9.29846 139.046 10.9142 140.627C11.6144 141.289 12.4669 141.788 13.3524 142.214C13.885 142.562 14.4217 142.939 15.0713 143.21C17.1112 144.054 19.4529 144.6 21.8269 144.866C23.829 145.097 25.856 145.348 27.9998 146.069C29.0569 146.431 30.2306 147.016 31.1501 147.899C32.0714 148.789 32.5658 149.566 33.1587 150.122C33.8359 150.845 33.8506 151.304 33.9748 151.62C34.0684 151.938 34.1354 152.15 34.1786 152.238C35.3664 154.299 37.5298 156.647 39.3718 158.64C41.0913 160.501 44.3789 163.964 46.7066 165.724C48.3551 166.98 49.4675 167.473 48.727 166.44C49.8124 167.402 59.4694 172.359 61.6024 172.744C63.5902 173.376 65.256 173.614 66.844 173.995C71.6774 175.11 75.1368 175.841 81.2086 176.32C82.7792 176.436 84.4731 176.343 85.4036 176.412C86.5235 176.496 87.7077 176.794 89.168 176.879C92.6324 177.108 99.1162 177.098 102.455 177.042C103.066 177.036 103.272 177.227 104.151 177.263C107.548 177.411 111.378 177.156 110.666 176.575C115.051 176.672 118.992 176.011 123.034 175.535C125.105 175.286 127.634 174.986 130.193 174.545C138.49 173.227 148.273 170.632 152.006 166.977C152.277 166.746 152.516 166.529 152.733 166.322C155.386 163.798 155.596 163.377 160.438 159.312C161.608 158.319 162.771 157.347 164.135 156.119C165.645 154.748 167.315 153.313 168.121 152.211C169.248 150.516 170.126 148.928 170.531 147.315C172.141 144.192 172.914 141.32 173.625 138.66C173.853 137.79 174.098 136.949 174.371 136.129C174.319 135.69 174.267 135.25 174.212 134.814C174.309 134.228 174.403 133.646 174.494 133.062C174.643 132.899 174.792 132.738 174.941 132.574C175.657 128.388 175.699 123.036 175.51 119.642C175.482 118.987 175.434 118.219 175.338 117.376C175.149 115.687 174.916 113.672 174.719 111.467C174.623 110.359 174.534 109.215 174.508 107.992C174.498 107.381 174.5 106.749 174.569 106.047C174.607 105.689 174.656 105.316 174.782 104.863C174.933 104.424 175.045 103.804 175.91 103.096C179.438 101.122 181.498 100.937 182.647 99.4614C183.779 98.1504 184.695 97.1046 185.321 96.2832C186.997 93.9864 186.696 93.7674 187.732 92.5093C187.875 91.925 187.959 91.3389 187.982 90.756C187.903 90.3794 187.799 90.0218 187.673 89.6725C187.662 89.2731 187.624 88.8628 187.555 88.4416C186.987 84.9334 186.392 81.0724 185.383 78.1214C184.456 75.3491 182.834 72.0829 180.138 70.0832C176.614 67.3515 172.48 65.3337 169.719 66.0754C169.598 66.1011 169.476 66.1295 169.351 66.1623C168.068 66.4885 166.405 67.2579 165.184 68.0864C163.13 69.4203 163.24 70.1942 159.949 71.9125C159.374 72.1362 158.693 72.4681 157.483 72.3385C156.699 72.2086 156.373 71.8618 156.171 71.6946C155.97 71.507 155.858 71.3696 155.756 71.2473C155.557 71.0045 155.415 70.8108 155.265 70.616C154.972 70.2326 154.68 69.8683 154.356 69.4981C151.246 65.8251 145.197 62.9661 141.665 61.8806C140.272 61.4405 139.571 61.4024 138.599 61.1582C137.466 60.8793 136.346 60.633 135.362 60.4667L135.339 60.4625C132.497 59.9759 129.829 59.5532 126.848 59.2469C122.52 58.1871 122.964 57.7826 121.659 57.104C120.626 56.6059 117.761 55.3374 116.726 55.3173C116.354 55.3175 116.829 55.0061 117.103 54.854C117.392 54.6853 117.625 54.5429 117.314 54.4305C123.353 54.4352 125.206 55.2674 129.548 56.2697C131.675 56.6199 133.791 56.9862 135.914 57.374L135.894 57.3703C141.882 58.5694 147.666 60.4809 152.871 63.9274C153.431 64.478 153.967 65.0508 154.47 65.6465C154.469 65.6468 154.469 65.647 154.469 65.6472C155.283 66.3901 155.924 67.0107 156.469 67.5496C156.929 68.0057 157.324 68.4067 157.677 68.7691C157.851 68.9475 158.019 69.1213 158.157 69.2467C158.224 69.3077 158.287 69.3569 158.301 69.3541C158.314 69.3632 158.265 69.2416 157.913 69.1691C157.929 69.1612 157.962 69.1548 158.013 69.1434C160.205 68.5301 163.382 64.7595 168.286 62.9085C173.617 61.1922 178.534 64.4358 182.294 67.3149C188.843 72.6997 189.685 81.1829 190.909 87.8624C191.978 93.9895 187.697 98.54 185.172 101.538C184.272 102.622 183.155 103.361 182.117 103.89C181.129 104.454 179.063 105.058 177.957 105.808C178.197 105.597 178.101 105.614 178.079 105.752C178.042 105.886 178.008 106.1 177.988 106.331C177.948 106.793 177.95 107.342 177.97 107.892C178.011 109.003 178.12 110.168 178.232 111.287C178.461 113.527 178.707 115.594 178.824 116.96C178.869 117.475 178.887 117.894 178.886 118.193C178.879 118.894 178.676 119.101 178.695 119.835C179.003 126.412 177.954 132.823 176.943 139.145C176.935 139.187 176.926 139.229 176.917 139.27C175.875 144.43 173.67 149.472 170.881 153.877C166.002 160.013 160.505 164.276 155.151 169.122C154.378 169.797 153.564 170.419 152.721 170.988C145.991 175.448 138.164 176.673 130.841 178.095C103.008 181.612 73.2265 184.319 47.567 170.034C46.6714 169.451 45.7431 168.799 44.8437 168.1C39.8299 164.038 34.7844 159.34 31.297 154.015C31.2459 153.921 31.1987 153.829 31.1549 153.737C30.9047 153.202 30.8315 152.822 30.7646 152.576C30.7214 152.333 30.6115 152.243 30.8711 152.511C29.5065 151.094 29.326 149.9 27.2483 149.315C27.2518 149.217 27.2515 149.117 27.2542 149.019C25.2826 148.422 23.5582 148.364 21.4801 148.205C20.6491 148.146 19.7551 148.039 18.7614 147.852C16.509 147.429 11.2086 146.147 8.39686 142.707C7.73892 141.915 6.88618 141.134 6.37671 140.509C5.39029 139.243 5.85821 139.621 5.11243 138.311C3.70332 135.949 3.29859 130.821 3.59713 127.731C3.6641 126.845 3.78127 125.845 3.9422 124.745C4.30172 122.026 5.58826 119.383 6.22221 118.024C7.01161 116.329 7.87644 114.69 8.74622 113.03C11.6551 107.471 16.0976 102.661 20.6315 98.4825C20.6891 98.4293 20.7466 98.3764 20.8039 98.3238C22.4898 96.7585 24.9265 95.0487 25.4848 94.6085C26.5738 93.7311 26.7825 93.3046 27.5127 92.7221C28.023 92.3172 28.5733 91.9011 29.1437 91.4735C29.4266 91.2608 29.7134 91.0459 29.9783 90.8383C30.2278 90.6475 30.5277 90.3794 30.5277 90.3709C31.0988 89.6946 31.751 87.0268 32.3515 85.071C32.9654 82.9997 33.6201 81.0311 34.1774 79.4232C34.3911 78.8046 34.6055 78.2032 34.8329 77.5844C37.3914 70.8176 40.5361 64.2707 43.5629 57.6958C46.3044 51.3905 50.8549 45.889 55.3089 41.2162C55.8797 40.6067 56.4531 40.0133 57.0367 39.4274C61.4906 34.8772 68.6562 29.0849 75.7282 25.2255C79.3393 22.959 84.1783 22.5504 87.0767 23.1872C88.907 23.4842 88.4657 23.6544 89.8123 23.8885C89.8902 23.9021 89.9703 23.9173 90.0579 23.9361C91.5591 24.2002 92.5387 25.402 92.8815 25.892C93.2266 26.3694 93.4306 26.7937 93.5722 27.1901C94.5791 30.1642 94.0431 34.0798 93.3081 37.9444C91.8951 41.5579 90.4481 43.1294 89.1385 45.421C88.0197 47.2222 86.9981 48.8245 86.228 49.9819C85.6649 50.8276 85.1172 51.3524 84.7969 51.8693C84.6354 52.1293 84.3772 52.7883 83.8801 53.6142C80.4588 59.3046 77.6824 63.7442 74.6227 68.8094C73.7598 70.2422 72.876 71.7332 71.9637 73.3178C69.3772 77.8838 66.5534 82.8811 64.7697 87.9457C64.7693 87.9412 64.8031 87.872 64.7795 87.6815C64.7629 87.4931 64.6107 87.2228 64.4896 87.1244C64.2393 86.9297 64.3232 87.0366 64.4839 87.0464C64.8222 87.1019 65.1003 87.0571 65.2362 86.9858C65.2633 86.9701 65.2037 87.0058 65.2117 87.0015C65.214 86.9995 65.2518 86.9626 65.2987 86.9055C65.3947 86.7904 65.5224 86.61 65.6471 86.42C65.8994 86.0349 66.1556 85.6015 66.4075 85.1646C66.9139 84.2836 67.4079 83.3775 67.9046 82.4587C71.8297 75.0732 75.9444 67.5789 80.3156 60.7451C80.4558 60.5251 80.5952 60.3103 80.7334 60.1011C82.5354 57.3755 84.0322 55.7146 84.2924 55.3123C84.9139 54.3637 85.1051 53.6184 86.3474 51.6832C89.8637 46.2119 94.9224 39.4856 99.1814 34.1065C99.9365 33.1529 100.668 32.2462 101.362 31.3965C103.663 28.5892 106.773 24.6664 109.971 22.3677C110.387 22.0744 110.889 21.7369 111.59 21.3928C116.154 19.718 120.785 21.4966 122.01 21.6124C122.644 21.7254 123.058 21.67 123.672 21.7895C124.037 21.8917 124.423 22.0674 124.782 22.3182ZM61.7359 88.8556C61.9214 89.0607 61.8463 88.9038 61.7376 88.4959C61.622 88.0798 61.6552 87.4534 61.8152 87.019C62.2541 85.7406 63.0086 83.455 62.2776 84.7454C62.1238 85.022 61.7154 86.1295 61.5327 86.9304C61.2653 87.6338 61.5956 88.7771 61.7359 88.8556ZM27.1456 146.533C27.1315 146.4 27.1158 146.267 27.0984 146.133C26.3611 145.981 25.6393 145.883 24.9245 145.808C25.3021 145.951 25.6825 146.101 26.0703 146.265C26.4205 146.341 26.786 146.431 27.1456 146.533ZM98.6932 95.9694C98.6892 96.0286 98.5143 95.998 98.4734 96.0435C98.2994 96.2357 98.1519 96.2551 97.9681 96.4181C97.6949 96.6595 97.2906 97.671 96.3461 97.0572C96.3461 97.0572 96.346 97.0572 96.346 97.0572C96.3368 97.0512 96.3274 97.045 96.3181 97.0386C96.1405 96.9181 95.9944 96.7132 95.7983 96.5696C95.6024 96.4255 94.2828 95.5798 94.2803 95.4223C94.2855 95.2015 94.8686 95.0434 94.9092 94.949C94.9356 94.8861 94.8639 94.7356 94.891 94.6482C94.9799 94.3643 95.1474 94.2997 94.9712 93.8664C95.1983 93.8935 95.427 93.9188 95.654 93.9474C95.6522 93.7812 95.9923 93.7613 96.0274 93.6852C96.0567 93.6218 95.9475 93.4966 95.983 93.4332C96.0222 93.3615 96.2356 93.3616 96.3005 93.2278C96.4078 93.0091 96.0967 92.7235 96.1421 92.5739C96.1738 92.4702 96.3302 92.4143 96.4291 92.3175C96.4773 92.2705 96.5122 92.2127 96.5118 92.1339C96.49 92.0866 96.4677 92.0399 96.4457 91.9929C96.3528 91.9417 96.2601 91.8904 96.1671 91.8395C96.1868 91.7349 96.3808 91.8351 96.437 91.7697C96.5027 91.6936 96.3744 91.5276 96.4166 91.4754C96.4515 91.4326 96.6257 91.4748 96.6609 91.4133C96.7135 91.3236 96.5143 91.196 96.5134 91.1257C96.5148 91.0966 96.659 90.7005 96.671 90.6816C96.7684 90.5408 97.0323 90.7263 97.1386 90.6343C97.4314 90.3796 97.456 89.9141 97.5843 89.5748C97.6405 89.4247 97.7525 89.3035 97.8849 89.209C98.4069 89.8938 99.2485 89.8274 98.0833 89.2355C98.3332 89.2035 98.1228 88.8992 98.2662 88.7999C98.3589 88.736 98.5478 88.7793 98.6322 88.6518C98.781 88.425 98.5323 87.8914 99.3319 88.3517C99.3526 88.209 99.4302 88.1206 99.4827 88.0251L99.4651 88.0514C99.5318 87.9201 99.5382 87.7752 99.1616 87.4553C99.1606 87.3654 99.6863 87.4384 99.7852 87.4037C99.8778 87.3749 100.419 86.9068 100.48 86.8261C100.546 86.7401 100.656 86.5798 100.643 86.4615C100.63 86.3096 99.9376 85.8259 100.892 86.1426C100.943 85.8958 101.012 85.8315 101.224 85.6906C101.262 85.6665 101.391 85.7349 101.403 85.7147C101.426 85.673 101.373 85.5484 101.404 85.4663C101.456 85.3313 101.765 85.4093 101.348 85.1931C101.326 85.0713 101.304 84.9487 101.283 84.8255C101.379 84.84 101.475 84.8539 101.569 84.8702C101.507 84.7788 101.445 84.6873 101.383 84.5957C101.948 84.9779 101.77 84.4727 101.373 84.3848C101.584 84.293 101.797 84.1977 102.012 84.099C102.677 84.4922 102.282 83.7907 101.895 83.6213C101.906 83.6032 101.917 83.585 101.927 83.5668C102.195 83.503 102.13 83.2713 102.36 83.1351C102.586 83.0052 102.643 83.0584 102.988 83.1663C102.995 83.1101 103.002 83.0538 103.009 82.9973C102.281 82.2933 103.749 83.1254 103.313 82.3517C103.925 82.505 103.816 82.0209 103.77 81.7097C103.764 81.6735 103.659 81.6179 103.645 81.566C103.613 81.4371 103.857 81.2998 103.514 81.1287C103.651 81.1065 103.788 81.0839 103.925 81.0609C103.895 80.968 103.864 80.8751 103.834 80.7819C103.728 80.7271 103.621 80.6723 103.515 80.6175C103.94 80.6832 103.903 80.4147 104.038 80.3651C104.065 80.3555 104.214 80.4273 104.284 80.3898C104.367 80.3463 104.389 80.1968 104.477 80.1386C104.331 80.0232 104.184 79.9078 104.038 79.7924C104.025 79.6008 104.481 79.7691 104.559 79.6995C104.572 79.6874 104.689 79.3839 104.686 79.3663C104.677 79.2052 104.292 79.0547 104.554 78.7343C104.601 78.6772 104.754 78.6894 104.789 78.6336C104.85 78.5356 104.722 78.0752 104.467 77.9189C104.862 77.9641 104.894 77.5625 105.04 77.5121C105.084 77.4972 105.3 77.5973 105.391 77.5283C105.465 77.4727 105.393 77.1937 105.468 77.1147C105.548 77.0313 105.745 77.0852 105.779 77.047C105.812 77.0108 105.688 76.8999 105.717 76.8429C105.812 76.6661 106.125 76.6185 106.201 76.4775C106.311 76.2729 105.974 75.8798 105.869 75.6143C105.918 75.5854 106.03 75.589 106.053 75.5447C106.342 74.9951 106.728 74.4105 107.094 73.8944C107.263 73.6562 108.16 73.2959 107.104 72.9944C106.978 72.8216 107.689 72.3555 107.755 72.2344C107.821 72.1126 107.695 71.9293 107.74 71.8299C107.875 71.5303 108.102 71.3814 108.124 70.9485C108.129 70.8363 107.97 70.637 107.999 70.583C108.034 70.5183 108.269 70.5429 108.323 70.4629C108.45 70.271 108.568 69.8571 108.696 69.6767C108.72 69.6439 108.902 69.7154 108.982 69.6902C109.293 69.5924 109.381 69.3584 108.801 69.1302C109.242 69.0252 109.065 68.6486 109.16 68.402C109.363 67.8815 109.929 67.0233 109.899 66.4735C109.881 66.1254 109.625 66.0136 110.034 65.7079C110.125 65.64 110.233 65.5805 110.342 65.4978C110.598 65.3053 111.177 65.2845 110.706 64.825C110.986 64.6064 110.988 64.3311 111.569 64.3428C111.465 64.2638 111.361 64.1848 111.257 64.1058C111.271 64.0692 111.284 64.0326 111.298 63.9959C111.413 64.0362 111.529 64.0765 111.644 64.1167C111.791 63.8775 111.486 63.3477 111.588 63.1371C111.76 62.7792 112.359 61.9454 112.666 61.6687C112.828 61.5241 112.596 61.4059 113.13 61.5259C113.114 61.47 113.099 61.4142 113.084 61.3584C112.989 61.2844 112.894 61.2104 112.799 61.1364C112.899 60.9057 113.192 60.7036 113.291 60.4817C113.471 60.0789 113.453 59.3393 113.829 59.0236C113.923 58.9448 114.2 58.9187 114.242 58.8195C114.305 58.672 113.956 58.4708 114.032 58.2835C114.164 57.9612 114.853 57.5669 114.956 57.2498C114.986 57.1566 114.868 57.0544 114.881 56.9868C114.932 56.705 115.039 56.4963 114.939 56.154C115.408 56.0448 115.851 56.2699 116.345 56.3912C116.717 56.4826 117.602 56.6486 117.916 56.756C118.137 56.8314 118.379 57.023 118.625 57.1004C118.671 57.4988 118.406 57.5425 117.96 57.6574C117.757 58.1478 117.559 58.6264 117.355 59.114C117.208 59.0998 117.061 59.0856 116.915 59.0715C116.914 59.0714 116.914 59.0713 116.914 59.0711C116.685 59.1875 116.977 59.4133 117.007 59.5462C117.292 60.8179 115.884 62.4301 115.324 63.4345C115.205 63.6482 115.038 64.4584 114.76 64.5172C114.688 64.532 114.488 64.4525 114.46 64.4906C114.402 64.9202 114.342 65.3543 114.282 65.7861C113.617 66.4198 113.492 67.3394 113.17 68.1436C112.3 70.3165 111.455 72.4772 110.4 74.5252C110.196 74.9203 110.093 75.4978 109.807 75.8438C109.688 75.9879 109.345 75.903 109.471 76.23C109.386 76.1911 109.302 76.1521 109.217 76.1132C109.227 76.348 109.357 76.5642 109.272 76.7832C109.201 76.9687 108.983 77.4379 108.873 77.5786C108.817 77.652 108.676 77.5442 108.639 77.6203C108.577 77.7512 108.655 78.1345 108.567 78.3115C108.487 78.4717 108.172 78.6519 108.135 78.7904C108.002 79.2852 108.025 79.8987 107.711 80.341C107.624 80.462 107.338 80.5267 107.322 80.5701C107.294 80.6554 107.477 80.7787 107.475 80.8447C107.461 81.1861 107.009 81.4948 106.864 81.7533C106.38 82.6177 105.99 83.5684 105.486 84.4235C105.176 84.9514 104.71 85.8878 104.29 86.3016C104.199 86.3904 104.006 86.2434 103.954 86.3366C103.897 86.4394 104.007 86.5738 103.992 86.6277C103.892 86.9953 103.619 87.8014 103.297 88.0192C103.234 88.0632 103.046 88.0105 103.026 88.0461C103.016 88.064 103.102 88.1699 103.08 88.2322C102.895 88.7708 102.613 89.089 102.259 89.5584C102.203 89.6324 102.149 89.7071 102.096 89.782L102.079 89.8078C101.492 90.6091 100.993 91.6351 100.278 92.3837C100.108 92.5624 99.7112 92.4675 99.693 92.4975C99.6537 92.5611 99.8226 92.7524 99.7788 92.9102C99.6364 93.4157 99.0438 93.7749 98.8462 94.1843C98.8384 94.2003 98.8313 94.2163 98.8248 94.2323C98.7375 94.4466 98.8149 94.8737 98.7509 95.083C98.699 95.249 98.3687 95.5057 98.4407 95.6489C98.4841 95.7349 98.6961 95.9048 98.6932 95.9694ZM98.8967 88.6393C99.2329 88.9144 99.1305 88.4332 98.868 88.4029C98.8095 88.3952 98.8094 88.5682 98.8967 88.6393ZM107.101 75.1355C106.989 75.0836 106.877 75.0317 106.764 74.9799C106.791 75.0423 106.817 75.1057 106.843 75.1689C106.921 75.1791 106.999 75.1892 107.077 75.1994C107.085 75.1779 107.093 75.1568 107.101 75.1355Z" fill="#361700"/>
<path d="M46.1337 126.364C42.8535 125.956 40.8099 125.681 40.8114 125.67C40.6981 124.181 40.3596 118.997 41.664 117.166C42.7171 115.687 43.7228 114.296 44.6467 113.587C45.4172 112.996 46.188 112.495 47.1748 112.162C48.3911 111.752 49.3371 111.466 50.8697 111.677C52.1435 111.852 54.3867 112.107 56.0021 112.626C58.6877 113.489 59.966 114.077 60.1144 114.471C60.2271 114.77 60.2747 115.553 59.8751 116.949C59.3481 118.79 58.7974 120.543 57.8886 121.629C56.9579 122.742 56.1996 123.573 55.424 124.011C54.3682 124.607 52.9876 125.357 51.2224 125.784C49.1918 126.276 47.7281 126.562 46.1337 126.364Z" fill="url(#paint3_linear_4055_417)"/>
<path d="M43.1846 122.905C43.2151 122.967 43.0541 123.054 43.0468 123.129C43.0148 123.437 42.9059 123.556 42.852 123.84C42.7669 124.264 43.0618 125.497 41.9421 125.584C41.9421 125.584 41.9421 125.584 41.942 125.584C41.931 125.585 41.9199 125.585 41.9086 125.586C41.6944 125.599 41.4527 125.509 41.2093 125.508C40.9658 125.507 39.4039 125.641 39.3042 125.48C39.1704 125.247 39.5389 124.661 39.5155 124.533C39.4991 124.451 39.3516 124.347 39.3217 124.239C39.2252 123.882 39.3237 123.697 38.9294 123.379C39.1305 123.245 39.3323 123.11 39.5349 122.98C39.4383 122.811 39.707 122.557 39.6929 122.455C39.6812 122.371 39.5203 122.321 39.5138 122.233C39.5057 122.133 39.682 121.986 39.6605 121.807C39.6266 121.513 39.209 121.443 39.1636 121.26C39.1169 121.069 39.3619 120.793 39.2333 120.541C39.1895 120.508 39.1458 120.474 39.1022 120.439C38.9961 120.453 38.89 120.466 38.7838 120.48C38.7452 120.352 38.9637 120.316 38.9781 120.203C38.9953 120.07 38.8005 119.979 38.8114 119.887C38.8207 119.812 38.9943 119.73 38.9966 119.63C39.001 119.486 38.7638 119.486 38.7307 119.402C38.7146 119.371 38.6815 118.758 38.6901 118.72C38.7309 118.458 39.0524 118.499 39.1261 118.301C39.3372 117.746 39.2642 117.058 39.5517 116.327C39.6116 116.174 39.7078 116.005 39.8221 115.854C39.8866 115.773 39.9613 115.698 40.0419 115.631C40.5308 116.365 41.4567 116.174 40.2559 115.634C40.535 115.56 40.345 115.227 40.5192 115.087C40.6325 114.997 40.8334 115.025 40.9487 114.86C41.1498 114.571 40.9932 113.939 41.7844 114.42C41.9195 113.982 42.4162 113.908 41.9079 113.254C41.9486 113.13 42.5155 113.219 42.6548 113.168C42.7697 113.117 43.5513 112.625 43.8063 112.492C43.8186 112.486 43.8287 112.48 43.8361 112.475C43.9601 112.395 44.1781 112.25 44.2421 112.117C44.3173 111.956 43.9515 111.182 44.7443 111.84C44.992 111.588 45.1206 111.544 45.4624 111.488C45.5246 111.478 45.5987 111.605 45.6289 111.589C45.6907 111.557 45.7493 111.406 45.8599 111.339C46.0429 111.228 46.2747 111.465 46.0674 111.043C46.1669 110.914 46.2716 110.787 46.3813 110.662C46.4612 110.729 46.5392 110.798 46.6164 110.866C46.6358 110.806 46.6561 110.746 46.6772 110.686C46.692 110.63 46.7067 110.574 46.7216 110.517C46.8634 111.186 47.1759 110.66 46.9116 110.337C47.1875 110.394 47.4732 110.452 47.7625 110.517C47.9293 111.268 48.3349 110.464 48.2111 110.065C48.243 110.059 48.2751 110.053 48.3073 110.047C48.6255 110.191 48.8632 109.982 49.2326 110.087C49.5939 110.197 49.5627 110.28 49.6753 110.63C49.7507 110.608 49.8274 110.586 49.9041 110.566C50.3438 109.603 50.1936 111.271 50.9083 110.598C50.9274 110.689 50.9544 110.761 50.9879 110.819C51.1595 111.161 51.5728 110.954 51.8571 110.831C51.8958 110.815 51.9121 110.697 51.9653 110.667C52.0934 110.595 52.3734 110.788 52.4159 110.407C52.5056 110.532 52.5941 110.656 52.6824 110.781C52.7778 110.725 52.8731 110.668 52.9696 110.612C52.9869 110.494 53.0042 110.375 53.0215 110.257C53.1345 110.686 53.4303 110.574 53.5503 110.693C53.5739 110.717 53.5529 110.88 53.6285 110.939C53.7166 111.007 53.9058 110.99 54.0127 111.062C54.09 110.89 54.1682 110.719 54.2472 110.547C54.4776 110.489 54.4609 110.978 54.5755 111.039C54.5961 111.049 55.0075 111.1 55.0324 111.096C55.2295 111.058 55.2688 110.639 55.7854 110.861C55.8783 110.901 55.9175 111.059 56.0029 111.089C56.0914 111.12 56.3242 111.071 56.5324 110.976C56.6611 110.907 56.7752 110.814 56.8256 110.703C56.8795 111.113 57.3772 111.117 57.4764 111.265C57.5048 111.31 57.4393 111.538 57.5454 111.628C57.6294 111.7 57.9524 111.612 58.0678 111.687C58.1928 111.769 58.171 111.973 58.2269 112.009C58.2803 112.042 58.3878 111.91 58.4657 111.94C58.7087 112.037 58.8356 112.365 59.0272 112.449C59.3037 112.571 59.7426 112.242 60.1063 112.184C60.1588 112.245 60.1787 112.37 60.2483 112.407C60.4114 112.497 60.5807 112.597 60.7917 112.752C60.8951 112.829 61.0132 112.922 61.1565 113.064C61.2957 113.216 61.4931 113.382 61.6893 113.877C61.9127 114.632 61.8264 114.92 61.8009 115.297C61.758 115.646 61.6852 115.951 61.6037 116.231C61.5141 116.563 60.9728 117.096 61.2292 117.337C61.3048 117.403 61.4465 117.45 61.684 117.467C61.6927 117.467 61.7016 117.467 61.7106 117.468C61.7126 117.47 61.7143 117.473 61.716 117.476C61.8415 117.66 61.1801 118.408 61.119 118.575C61.06 118.744 61.2011 118.939 61.1593 119.076C61.0307 119.493 60.8023 119.735 60.7558 120.313C60.7439 120.463 60.8945 120.697 60.8562 120.78C60.8102 120.877 60.5605 120.893 60.4892 121.014C60.3266 121.3 60.0843 121.911 59.8482 122.193C59.8062 122.243 59.6309 122.155 59.5292 122.196C59.2762 122.299 59.0919 122.459 59.1165 122.657C59.1433 122.755 59.2372 122.872 59.4234 123.001C58.9205 123.051 58.9462 123.518 58.7237 123.797C58.2959 124.333 57.3298 125.205 56.4802 125.881C56.4396 125.922 56.4012 125.965 56.3689 126.007C56.1037 126.343 56.2477 126.587 55.5909 126.661C55.4448 126.677 55.2893 126.675 55.1114 126.692C54.6882 126.735 54.1591 126.409 54.1257 127.098C53.6555 127.123 53.3543 127.357 52.8719 126.961C52.8769 127.094 52.8817 127.227 52.8849 127.36C52.8339 127.381 52.7823 127.401 52.7312 127.421C52.6775 127.31 52.6242 127.2 52.5713 127.089C52.2671 127.159 51.9868 127.576 51.7027 127.768C51.6467 127.81 51.5921 127.84 51.5386 127.853C51.0614 127.966 49.7179 128.064 49.178 127.975C48.8981 127.93 48.9152 128.19 48.6907 127.68C48.6355 127.725 48.5801 127.769 48.5238 127.814C48.4994 127.935 48.4741 128.055 48.4478 128.176C48.0869 128.222 47.6381 128.068 47.2867 128.073C46.9081 128.081 46.4006 128.174 45.9101 128.161C45.6283 128.16 45.3643 128.13 45.1505 128.016C45.0228 127.946 44.8802 127.684 44.7479 127.67C44.5524 127.65 44.4551 128.041 44.2088 128.018C43.7808 127.976 43.0516 127.413 42.6452 127.396C42.524 127.391 42.4499 127.531 42.3652 127.536C42.0098 127.559 41.7277 127.51 41.3653 127.694C41.0564 127.264 41.1547 126.777 41.1138 126.266C41.1098 125.886 40.8526 124.957 41.0698 124.663C41.1204 124.669 41.1717 124.63 41.4479 124.792C41.5806 124.871 41.8147 125.112 41.8872 125.41C41.9596 125.702 41.911 125.862 41.9326 125.808C41.9461 125.771 41.9877 125.481 41.862 125.194C41.7395 124.908 41.5482 124.754 41.4438 124.677C41.2255 124.53 41.1748 124.521 41.1297 124.487C41.0292 124.396 41.0805 124.341 41.0782 124.271C41.0994 124.137 41.13 124.001 41.1447 123.874C41.509 123.722 41.7014 123.973 41.9855 124.375C42.6188 124.445 43.257 124.513 43.8924 124.58C43.9316 124.725 43.9716 124.871 44.0124 125.017C44.0124 125.018 44.0124 125.018 44.0123 125.018C44.235 125.209 44.3844 124.866 44.5264 124.801C45.0274 124.575 45.6666 124.555 46.3487 124.635C47.2464 124.753 48.3857 124.876 49.2263 124.764C49.5048 124.734 50.384 124.341 50.6358 124.512C50.7007 124.557 50.7658 124.763 50.8222 124.759C50.8668 124.736 50.9118 124.712 50.9571 124.688C51.3357 124.478 51.6969 124.247 52.0426 124C53.0492 123.995 53.8322 123.288 54.6939 122.737C54.6966 122.736 54.6993 122.734 54.702 122.732C55.2644 122.353 55.9671 121.453 56.6343 120.58C57.2734 119.697 57.718 118.094 58.1951 116.547C58.2025 116.523 58.2096 116.499 58.2164 116.474C58.3406 116.033 58.3052 115.486 58.4173 115.192C58.4676 115.082 58.8092 114.966 58.546 114.941C58.6381 114.927 58.7301 114.912 58.822 114.896C58.7864 114.89 58.7381 114.903 58.7227 114.995C58.8032 115.319 58.8532 115.401 58.86 115.473C58.8691 115.537 58.8533 115.559 58.8252 115.549C58.7829 115.529 58.2985 115.304 58.1384 115.203C58.0556 115.148 58.1578 115.002 58.0721 114.967C57.9247 114.908 57.5133 115.005 57.3011 114.927C57.1093 114.855 56.8429 114.548 56.6795 114.522C56.2897 114.459 55.8499 114.475 55.4269 114.416C55.2473 114.397 55.0656 114.361 54.8891 114.288C54.7464 114.227 54.597 113.96 54.5451 113.954C54.4447 113.945 54.3684 114.152 54.2974 114.166C53.941 114.232 53.4587 113.878 53.1144 113.811C52.3317 113.656 51.4947 113.59 50.6208 113.484C50.334 113.45 50.0685 113.432 49.8192 113.424C49.3062 113.381 48.4438 113.654 47.7075 113.741C47.7065 113.741 47.7055 113.741 47.7046 113.741C47.5851 113.745 47.533 113.509 47.4383 113.544C47.3331 113.583 47.3394 113.757 47.2983 113.788C47.0035 113.998 46.4325 114.526 46.034 114.619C45.9585 114.634 45.8053 114.513 45.7703 114.539C45.7524 114.552 45.7888 114.685 45.7411 114.737C45.7021 114.78 45.6631 114.821 45.624 114.861C45.3799 115.146 45.0579 115.389 44.6794 115.773C44.0857 116.381 43.5797 117.281 42.9994 118.117C42.9388 118.206 42.8304 118.408 42.7206 118.637C42.6291 118.825 42.2293 118.9 42.2241 118.935C42.2132 119.013 42.4455 119.116 42.4751 119.277C42.5701 119.807 42.2249 120.509 42.3183 121.057C42.3628 121.326 42.6657 121.702 42.7304 121.962C42.7804 122.169 42.6534 122.665 42.7944 122.757C42.879 122.813 43.15 122.838 43.1846 122.905ZM41.244 114.813C41.5653 115.106 41.5417 114.539 41.257 114.531C41.1922 114.529 41.16 114.738 41.244 114.813ZM61.1011 114.411C61.2208 114.379 61.3402 114.346 61.4593 114.311C61.3987 114.231 61.3334 114.145 61.2506 114.043C61.2219 113.994 61.1917 113.951 61.1608 113.911C61.1604 113.966 61.1579 114.023 61.1524 114.08C61.1251 114.147 61.0926 114.206 61.0571 114.261C61.0747 114.314 61.0889 114.363 61.1011 114.411Z" fill="#361700"/>
</g>
<defs>
<linearGradient id="paint0_linear_4055_417" x1="96.5689" y1="21.208" x2="96.5689" y2="179.354" gradientUnits="userSpaceOnUse">
<stop stop-color="#D58937"/>
<stop offset="0.495192" stop-color="#9A4C0F"/>
<stop offset="1" stop-color="#5E2C06"/>
</linearGradient>
<linearGradient id="paint1_linear_4055_417" x1="110.428" y1="20.852" x2="89.4166" y2="179.368" gradientUnits="userSpaceOnUse">
<stop stop-color="#D58937"/>
<stop offset="0.495192" stop-color="#9A4C0F"/>
<stop offset="1" stop-color="#5E2C06"/>
</linearGradient>
<linearGradient id="paint2_linear_4055_417" x1="108.971" y1="21.7302" x2="88.0996" y2="179.194" gradientUnits="userSpaceOnUse">
<stop stop-color="#D58937"/>
<stop offset="0.495192" stop-color="#9A4C0F"/>
<stop offset="1" stop-color="#5E2C06"/>
</linearGradient>
<linearGradient id="paint3_linear_4055_417" x1="51.2936" y1="111.733" x2="49.2961" y2="126.803" gradientUnits="userSpaceOnUse">
<stop stop-color="#D58937"/>
<stop offset="0.495192" stop-color="#9A4C0F"/>
<stop offset="1" stop-color="#5E2C06"/>
</linearGradient>
<clipPath id="clip0_4055_417">
<rect width="195" height="200" fill="white"/>
</clipPath>
</defs>
</svg>
