<svg width="195" height="200" viewBox="0 0 195 200" fill="none" xmlns="http://www.w3.org/2000/svg">
<path d="M53.0579 111.009C52.5081 116.238 51.4564 118.664 51.4564 118.717C51.4564 119.229 50.8779 121.587 50.9635 122C51.2151 122.732 53.9579 121.976 55.3611 123.174C57.1408 124.461 58.9077 124.767 63.8246 126.674C64.8366 127.067 65.078 127.375 64.4604 128.417C63.8428 129.458 58.8124 133.499 56.3856 137.006C53.9588 140.513 54.2362 143.33 52.4369 146.193C50.6377 149.056 50.3361 149.618 50.099 150.425C49.5719 152.219 48.8593 157.687 49.3935 164.432C49.6295 167.412 50.147 169.45 52.6532 173.06C56.8154 179.054 59.5428 183.476 63.4108 185.919C66.7149 188.006 72.7309 191.528 76.3366 193.422C80.9438 195.843 83.7155 197.239 89.9719 196.966C97.4049 196.643 102.329 196.351 103.298 196.281C107.416 195.983 112.319 191.793 117.014 188.122C118.12 187.257 120.704 187.217 122.436 183.433C124.169 179.648 128.167 176.749 129.483 173.441C130.926 169.812 131.535 161.95 130.492 157.116C130.285 156.157 128.063 152.565 125.561 147.57C124.077 144.608 120.321 142.664 120.255 140C120.153 135.898 117.51 129.05 119.286 127.805C120.108 127.229 121.258 125.692 123.611 124.981C124.101 124.833 124.549 125.085 125.144 125.074C127.766 125.022 132.07 124.07 134.403 121.223C135.577 119.789 137.283 114.209 134.602 109.729C133.337 107.615 128.896 104.894 130.094 104.851C131.636 104.796 133.851 105.091 135.419 104.093C138.155 102.352 142.074 99.6553 141.978 97.3941C141.751 92.1029 139.965 88.3719 138.227 83.1943C137.907 82.2421 138.137 81.9359 138.876 81.6405C139.614 81.345 140.881 81.2072 141.892 80.7481C146.364 78.7177 150.925 76.2869 151.44 74.2415C152.064 71.7682 152.563 68.4227 150.655 65.8105C149.154 63.7547 145.868 62.3779 144.63 59.9449C144.407 59.5066 144.285 59.0736 144.536 58.7463C146.284 56.4668 150.546 53.464 150.523 50.8114C150.487 46.5837 150.125 44.0098 148.699 43.364C146.273 42.2654 134.552 43.1771 135.576 39.9288C135.987 38.6252 137.45 37.3442 138.219 34.3006C139.509 29.1959 139.946 22.4443 137.8 20.8256C135.748 19.2781 130.382 17.6826 127.665 18.435C125.585 19.0109 118.685 25.4152 118.665 22.6708C118.662 22.3646 119.2 21.3948 119.336 20.5884C119.892 17.2934 120.068 13.0857 118.469 11.7889C117.796 11.2436 115.682 10.167 112.643 9.37325C109.434 8.53525 105.159 7.51387 102.971 8.25726C101.249 8.84213 94.5836 15.829 92.3746 13.0703C91.2925 11.7189 90.4645 8.74656 88.7883 8.64374C82.9037 8.28277 72.4189 8.70475 71.4613 10.2873C69.896 12.874 68.6365 16.7006 67.082 16.8487C66.2856 16.9245 65.3377 16.8783 64.4069 16.3965C62.4125 15.3642 55.9263 13.659 51.6395 15.709C47.5256 17.6764 43.8474 19.4909 42.7216 22.6729C42.2848 23.9074 41.5387 25.7208 42.3881 27.4763C44.1105 31.036 47.2201 34.5131 47.4137 36.6013C47.4965 37.4936 46.5358 39.1645 45.5023 42.416C45.024 43.9208 44.1717 48.4007 45.9274 57.2216C46.9962 62.5915 48.8059 69.6542 50.2085 73.206C52.0083 77.7635 54.4516 80.4832 55.8999 88.6228C56.3915 91.3854 56.2208 95.109 55.0599 100.966C54.4149 104.219 53.3775 107.969 53.0579 111.009Z" fill="url(#paint0_linear_4055_490)" stroke="#361700" stroke-width="5" stroke-linecap="round"/>
<path d="M73.4947 88.3862C73.5177 88.1339 73.752 87.8231 73.8264 87.5357C74.141 86.34 74.3633 85.929 74.7026 84.8784C74.9822 83.986 75.5516 81.8983 75.9258 80.7624C75.9961 80.5151 76.0694 80.2837 76.1423 80.0922C76.1783 79.9992 76.2148 79.9113 76.2491 79.8489C76.2854 79.8021 76.3088 79.6986 76.3497 79.8832C76.3675 79.9428 76.3642 80.0248 76.4757 80.3007C76.5307 80.432 76.6553 80.653 76.8409 80.8268C77.0205 80.9938 77.1382 81.043 77.0661 80.9949C77.0024 80.9503 76.8236 80.8048 76.7178 80.6666C76.5984 80.5176 76.532 80.3843 76.4919 80.2894C76.4071 80.0823 76.3973 79.9733 76.388 79.8937C76.3678 79.5818 76.4235 79.523 76.4617 79.4289C76.5481 79.2739 76.6531 79.2263 76.7685 79.2243C76.7685 79.2243 76.7685 79.2243 76.7686 79.2243C76.7796 79.2245 76.7908 79.2254 76.802 79.2268C76.9099 79.2467 77.0147 79.3595 77.1435 79.5383C77.2233 79.6349 77.2326 79.7133 77.479 79.9866C77.5455 80.0511 77.6392 80.1009 77.6696 80.1018C77.7035 80.1054 77.6617 80.0641 77.6321 80.0109C77.5679 79.8948 77.5957 79.8366 77.618 79.8156C77.8286 79.6038 79.456 79.7965 79.4521 80.4689C79.4518 80.695 79.4065 80.981 79.3375 81.2898C79.0949 82.3735 78.5434 83.4504 78.4729 83.7913C78.4067 84.0869 78.4459 84.4881 78.3703 84.8674C78.1275 86.0901 77.8638 86.6874 77.983 87.8503C77.6828 88.2316 77.3866 88.6144 77.0936 89.0058C77.063 89.5876 76.6327 90.3931 76.5867 90.7407C76.5477 91.0268 76.6782 91.2185 76.637 91.5137C76.5922 91.8442 76.3404 92.3261 76.2877 92.9341C76.2445 93.4332 76.3294 93.7378 76.421 93.9919L76.4235 93.9656C76.519 94.2229 76.6197 94.4299 76.6213 94.7348C76.6248 95.3676 76.3183 96.3326 76.4028 97.155C76.441 97.2597 76.4793 97.3643 76.5176 97.4687C76.6276 97.4043 76.7376 97.3398 76.8476 97.2753C76.8646 97.6846 76.6374 97.8418 76.6046 98.2174C76.566 98.6584 76.7521 98.8933 76.7284 99.1912C76.7089 99.4353 76.5212 99.7528 76.5077 100.066C76.4871 100.524 76.7293 100.444 76.7545 100.695C76.7642 100.794 76.7551 102.629 76.7489 102.729C76.6972 103.521 76.3716 103.552 76.2937 104.183C76.0802 105.914 76.1909 107.714 76.1288 109.346C76.101 110.078 76.0032 110.826 75.867 111.55C75.1807 110.317 74.2469 112.751 75.64 111.968C75.3587 112.756 75.6282 113.372 75.4531 114.138C75.3379 114.633 75.1073 114.953 74.9801 115.669C74.767 116.934 74.8534 118.537 73.836 118.65C73.4914 120.185 72.5389 121.397 71.7827 122.578C71.7739 122.62 71.7656 122.664 71.7585 122.71C71.3757 122.992 70.2338 123.015 69.7996 123.132C69.3971 123.298 66.2986 124.192 65.7886 124.273C65.2774 124.408 64.3956 124.608 63.9704 124.767C63.4606 124.961 63.1863 125.878 62.0603 125.044C60.9308 125.269 60.5071 125.274 59.4343 125.204C59.2401 125.189 59.2161 125.043 59.104 125.045C58.8734 125.05 58.4768 125.161 58.0608 125.164C57.3712 125.167 57.0069 124.826 57.0494 125.301C56.5901 125.35 56.123 125.384 55.6592 125.404C55.5109 125.294 55.364 125.182 55.2184 125.069C54.9612 125.131 54.7069 125.189 54.4447 125.242C54.846 124.635 53.0987 124.681 53.5545 125.175C52.8289 124.891 52.1308 124.573 51.4462 124.219C51.2917 124.146 51.1571 124.073 51.0014 123.982C51.2221 123.647 50.6964 123.451 50.0996 123.068C49.481 122.703 48.9458 122.024 48.8058 122.242C48.7401 122.078 48.6875 121.911 48.6476 121.751C48.5467 120.316 48.6452 119.435 49.0279 118.374C49.4419 117.36 49.4962 117.497 49.9244 117.295C49.9758 117.056 50.0279 116.82 50.0795 116.587C49.6354 115.397 50.5366 115.625 50.8596 114.606C50.94 114.349 50.9842 114.014 50.961 113.562C51.7408 113.079 51.9029 111.372 52.0271 110.251C52.0416 110.121 51.9279 110.087 51.9395 109.911C51.9702 109.481 52.4048 108.487 52.0251 108.421C52.2305 108.093 52.4357 107.762 52.6394 107.433C52.651 107.123 52.6626 106.81 52.6725 106.5C52.5564 106.471 52.4404 106.442 52.3243 106.413C52.875 105.927 52.9619 104.958 53.1695 104.526C53.2113 104.44 53.3768 104.459 53.4906 104.185C53.6244 103.867 53.7264 103.235 53.8683 102.852C53.7262 102.657 53.5839 102.461 53.4407 102.268C53.5038 101.545 54.0289 101.395 54.1544 100.988C54.1801 100.913 54.4244 99.538 54.4251 99.4634C54.4562 98.8435 54.0379 98.9412 54.4088 97.2204C54.473 96.9148 54.6509 96.6849 54.6963 96.4049C54.784 95.9097 54.6292 94.3879 54.3364 94.2505C54.7728 93.6948 54.7038 92.1014 54.804 91.6502C54.8376 91.5126 55.0781 91.4778 55.1235 91.049C55.1635 90.6947 54.9312 89.8195 54.916 89.3907C54.9053 88.9373 55.0773 88.7448 55.0623 88.541C55.059 88.4995 55.0476 88.46 55.0314 88.4213C54.9725 88.2813 54.848 88.137 54.8114 87.9352C54.6641 87.1124 54.7279 86.2953 54.553 85.629C54.2983 84.6623 53.5793 83.9609 53.1198 83.2367C53.0854 83.0322 53.1165 82.8007 53.0491 82.5977C52.2043 80.0401 51.164 77.1265 50.2295 74.5479C49.7984 73.347 49.1699 70.1609 48.4996 71.3633C48.1552 71.0227 47.3013 67.8874 47.0606 67.3149C46.9286 66.9973 46.7522 66.7384 46.5879 66.4918C46.4576 66.2937 46.3372 66.106 46.2521 65.9063C45.6709 64.5286 45.4085 63.4949 44.651 61.8098C44.4607 61.3883 44.0778 60.9476 43.9985 60.6831C43.9038 60.3669 44.0031 59.9284 43.8975 59.5064C43.6269 58.4831 43.1033 56.5662 42.9793 55.5334C42.9552 55.3456 43.1372 55.254 43.156 54.9776C43.2266 53.9131 43.1188 52.7517 42.5149 53.0061C42.757 51.6171 42.433 50.3597 42.5213 49.0607C42.5601 46.2692 44.4441 41.644 45.101 39.6404C45.1039 39.6303 45.1068 39.6203 45.1097 39.6102C45.5158 38.2711 45.2253 38.1555 46.4017 36.3453C46.6671 35.9478 46.9585 35.5568 47.301 35.0871C48.1142 33.9705 49.2243 33.2457 49.3614 32.0392C50.416 30.9174 51.1956 29.9183 52.3934 29.5263C52.4046 29.342 52.4189 29.1565 52.4365 28.9701C52.5768 28.8406 52.7197 28.7124 52.8652 28.5857C52.9895 28.6398 53.113 28.6949 53.2355 28.7512C54.2102 27.9698 55.3246 26.728 56.3776 26.1522C56.4371 26.118 56.4943 26.0867 56.5497 26.0586C57.218 25.748 58.5848 24.8898 60.2232 24.2355C61.8107 23.5989 63.3666 23.2014 64.2009 23.021C65.0989 22.8318 65.0683 22.5731 65.7086 22.9411C65.8864 22.8501 66.0807 22.7552 66.259 22.6654C66.3446 22.5191 66.4325 22.3724 66.5227 22.2253C67.6329 21.9065 68.9941 21.7354 70.0472 21.4658C70.5347 21.3408 71.0356 21.1943 71.6119 21.0246C73.3479 20.508 75.3873 19.9628 76.9173 19.8747C77.4268 19.8441 78.0878 19.9863 78.5744 19.9133C79.2859 19.8079 79.4058 19.3857 80.3135 19.2638C81.8789 19.0467 84.8384 19.2489 86.3075 19.1334C86.7521 19.096 86.9396 18.9366 87.2482 18.9044C88.5173 18.771 89.5677 18.7474 90.7878 18.4958C92.1161 18.8619 91.9913 19.365 92.4002 19.8641C92.7023 20.2406 93.6262 21.1273 93.7378 21.4622C93.8209 21.6963 93.484 21.9889 93.6034 22.2471C92.0869 22.429 91.4661 22.2143 90.2125 21.8794C87.9295 21.9471 85.6381 22.0941 83.3681 22.3213C83.1496 22.2015 82.9255 22.083 82.7055 21.9648C82.7055 21.9645 82.7054 21.9642 82.7054 21.9639C81.8116 21.8929 81.4776 22.2951 81.0193 22.4317C78.8577 23.0751 75.6487 23.6045 72.4227 24.3406C68.9801 25.1233 65.4878 25.8826 63.1439 26.7064C62.0794 26.9804 59.3763 28.6938 58.4653 28.956C58.258 28.9996 58.1042 28.8374 57.9085 28.9267C57.8706 28.9491 57.8322 28.9717 57.7933 28.9943C56.3517 29.8535 55.0864 30.967 54.0009 32.2357C51.37 34.4176 49.7707 37.76 48.4648 41.0736C48.4032 41.2251 48.3415 41.3759 48.2797 41.5259C44.344 49.2093 46.4743 57.4875 49.803 65.105C50.4591 66.6262 51.1057 68.1518 51.7371 69.6809C52.4871 71.4954 53.5909 73.7624 54.2008 75.6042C54.4537 76.3683 54.2568 76.8141 54.8738 77.713C54.7907 77.7567 54.7075 77.8005 54.6243 77.8442C55.0565 78.6719 55.464 79.1601 55.8353 80.1397C56.1531 80.9571 56.9046 83.1925 57.0821 83.9681C57.1798 84.3692 56.9711 84.2732 57.0743 84.6374C57.2567 85.2666 57.8381 86.5894 57.9971 87.5303C58.0195 87.657 58.0385 87.7956 58.0539 87.9406C58.1547 88.8158 58.0898 89.9564 58.1293 90.5074C58.3137 92.8488 58.3632 95.3859 57.9071 97.7704C57.7815 98.4313 57.4079 99.2326 57.3759 99.4365C57.3146 99.8386 57.5067 99.9978 57.4823 100.271C57.36 101.663 56.6289 103.703 56.2928 105.003C55.4193 108.422 54.4531 111.966 53.4543 115.365C53.2056 116.212 52.9399 117.027 52.6903 117.807C52.4372 118.607 52.1208 119.621 52.0502 120.38C52.0112 120.76 52.0819 120.954 52.0751 120.93C52.0513 120.913 52.1397 121.036 52.4719 121.152C53.5385 121.529 54.5648 121.79 55.3719 121.982C55.8554 122.094 55.6939 122.313 56.1132 122.367C56.58 122.424 56.852 122.283 57.0674 122.287C58.5897 122.378 61.8993 121.951 63.3315 121.758C63.6089 121.732 63.8451 121.871 64.0044 121.832C64.0872 121.813 64.2447 121.643 64.492 121.565C66.5763 120.892 68.189 120.34 69.953 119.426C69.9633 119.423 69.9835 119.413 70.0113 119.392C71.8467 117.141 71.994 110.695 72.5629 106.171C72.6795 105.126 73.1073 104.432 73.1153 104.286C73.1334 103.964 72.9009 103.728 72.8898 103.073C72.8566 100.87 73.3416 97.9363 73.3831 95.8428C73.3954 95.2182 73.3271 94.4514 73.2759 93.7092L73.2795 93.6712C73.2575 93.1596 73.2508 92.6665 73.2808 92.2414C73.3289 91.3892 73.8076 89.4463 73.7525 89.0575C73.7148 88.8195 73.4712 88.6603 73.4947 88.3862ZM74.6233 116.396C74.24 116.159 74.2236 117.808 74.5892 117.272C74.6774 117.14 74.7263 116.462 74.6233 116.396ZM52.5361 78.9149C52.4252 78.9716 52.3142 79.0282 52.2032 79.0848C52.3211 79.2523 52.4362 79.4132 52.5546 79.5846C52.5855 79.4536 52.6159 79.322 52.6474 79.1938C52.6106 79.1014 52.5735 79.0084 52.5361 78.9149Z" fill="#361700"/>
<path d="M107.079 51.5922C107.042 51.5628 107.189 51.4766 107.187 51.4295C107.178 51.2339 107.264 51.1284 107.263 50.9171C107.276 50.6123 106.668 49.7356 107.686 49.2635C107.686 49.2635 107.686 49.2635 107.686 49.2635C107.697 49.259 107.707 49.2545 107.717 49.25C107.915 49.1656 108.168 49.1583 108.396 49.0729C108.624 48.9881 110.052 48.3381 110.194 48.4418C110.389 48.5936 110.217 49.2388 110.274 49.3427C110.314 49.4144 110.483 49.4593 110.543 49.5522C110.736 49.8565 110.69 50.0572 111.151 50.2846C110.989 50.47 110.821 50.6479 110.648 50.8168C110.777 50.966 110.553 51.2649 110.58 51.3588C110.603 51.4379 110.769 51.4653 110.787 51.5509C110.807 51.6469 110.648 51.8095 110.686 51.9746C110.746 52.2451 111.167 52.273 111.227 52.4367C111.237 52.4635 111.239 52.4931 111.237 52.5248L111.238 52.5918C111.22 52.7497 111.075 52.9533 111.194 53.1313C111.239 53.1587 111.285 53.1864 111.33 53.2138C111.436 53.1981 111.541 53.1821 111.646 53.1659C111.691 53.2738 111.475 53.3126 111.468 53.4098C111.459 53.5247 111.66 53.5904 111.655 53.6683C111.652 53.7319 111.485 53.8111 111.491 53.893C111.498 54.0131 111.735 53.9995 111.775 54.067C111.792 54.0937 111.89 54.5827 111.889 54.6103C111.882 54.8188 111.56 54.8106 111.518 54.9714C111.402 55.4158 111.61 55.9057 111.652 56.3396C111.671 56.5331 111.625 56.7274 111.546 56.905C110.774 56.4986 110.043 57.0354 111.355 56.9916C111.142 57.1697 111.463 57.3691 111.371 57.5552C111.312 57.674 111.12 57.7326 111.092 57.9097C111.044 58.2265 111.471 58.6758 110.552 58.5794C110.634 58.9798 110.238 59.2175 110.997 59.5316C111.023 59.6395 110.496 59.7684 110.406 59.8568C110.323 59.9437 109.917 60.639 109.87 60.7565C109.825 60.8739 109.752 61.0859 109.791 61.2058C109.84 61.3556 110.619 61.6887 109.608 61.6364C109.605 61.9246 109.549 62.0095 109.363 62.221C109.33 62.2594 109.189 62.2208 109.18 62.2464C109.164 62.2988 109.238 62.421 109.22 62.5198C109.19 62.683 108.869 62.6757 109.321 62.8042C109.362 62.9305 109.402 63.058 109.442 63.1865C109.344 63.194 109.246 63.202 109.148 63.2083C109.223 63.294 109.298 63.3802 109.373 63.4669C108.752 63.1833 108.999 63.6977 109.41 63.7001C109.243 63.8271 109.075 63.951 108.906 64.077L108.677 64.4906C108.636 64.5036 108.595 64.5166 108.554 64.5298C107.972 64.0241 108.19 64.84 108.541 65.0716C108.526 65.0898 108.51 65.1081 108.494 65.1265C108.2 65.1602 108.201 65.4208 107.929 65.5271C107.653 65.6366 107.613 65.5674 107.295 65.3925C107.272 65.4503 107.248 65.5085 107.223 65.567C107.739 66.4527 106.526 65.285 106.715 66.1859C106.152 65.8966 106.099 66.4261 106.044 66.7527C106.037 66.7911 106.123 66.8733 106.119 66.93C106.109 67.0682 105.809 67.16 106.092 67.4182C105.947 67.4084 105.802 67.3983 105.657 67.3881C105.653 67.4917 105.648 67.5958 105.643 67.7004C105.728 67.7841 105.813 67.8678 105.899 67.9515C105.5 67.7758 105.441 68.0564 105.285 68.0731C105.254 68.0761 105.134 67.9626 105.05 67.9831C104.949 68.0078 104.871 68.1522 104.761 68.1875C104.86 68.3463 104.958 68.5053 105.056 68.6647C104.99 68.8657 104.607 68.5656 104.504 68.6116C104.487 68.62 104.253 68.8895 104.245 68.9104C104.186 69.0776 104.498 69.3491 104.103 69.594C104.032 69.6375 103.888 69.5773 103.829 69.6229C103.725 69.705 103.653 70.2028 103.826 70.4471C103.458 70.276 103.242 70.6687 103.076 70.6692C103.026 70.6689 102.865 70.4951 102.744 70.5323C102.646 70.5626 102.587 70.8629 102.476 70.9151C102.358 70.9698 102.195 70.846 102.143 70.8714C102.094 70.8954 102.159 71.0505 102.103 71.0965C101.924 71.2377 101.603 71.1657 101.462 71.2745C101.256 71.4318 101.378 71.9445 101.336 72.2469C101.274 72.2563 101.169 72.2088 101.123 72.2431C100.563 72.6636 99.8719 73.0692 99.24 73.3906C98.9441 73.5454 97.9154 73.4611 98.6972 74.235C98.707 74.4592 97.7713 74.5538 97.6347 74.6302C97.4984 74.7093 97.495 74.94 97.3903 75.0086C97.0734 75.2152 96.7769 75.2325 96.4647 75.6103C96.3843 75.7083 96.3874 75.971 96.3242 76.004C96.2479 76.0433 96.0588 75.8955 95.956 75.9371C95.712 76.0383 95.3153 76.3363 95.0726 76.419C95.0281 76.4337 94.9239 76.2684 94.8378 76.2445C94.5024 76.1508 94.2586 76.295 94.5801 76.8296C94.1277 76.6608 93.994 77.0821 93.7206 77.2303C93.1447 77.5473 91.9906 77.8648 91.5331 78.3018C91.246 78.5792 91.3411 78.8442 90.7484 78.7854C90.6544 78.7756 90.5579 78.7562 90.4529 78.7392C90.4136 78.7317 90.3729 78.7247 90.3304 78.7189C89.9765 78.6715 89.5518 78.2607 89.4922 78.9258C89.1065 78.8716 88.8656 79.0593 88.4695 78.6192C88.4744 78.7502 88.4791 78.8812 88.4836 79.0123C88.4428 79.027 88.4019 79.0417 88.361 79.0564C88.3155 78.943 88.2701 78.8295 88.2247 78.7161C87.9185 78.7676 87.6705 79.3526 87.4154 79.4168C86.9885 79.5269 85.8456 79.6194 85.4041 79.5577C85.1701 79.5257 85.2188 79.7815 84.9713 79.2912C84.9324 79.339 84.8935 79.3867 84.8546 79.4344C84.8522 79.5555 84.8493 79.6766 84.8464 79.7978C84.572 79.8687 84.2036 79.7687 83.9435 79.8308C83.4675 79.9454 82.8163 80.4208 82.287 80.3163C82.1538 80.29 81.9518 80.0856 81.8356 80.1124C81.6634 80.1518 81.6987 80.5539 81.4819 80.6053C81.1007 80.6953 80.3021 80.3727 79.9426 80.4694C79.8331 80.4986 79.807 80.6542 79.7348 80.6823C79.4221 80.8029 79.161 80.8307 78.8595 81.101C78.4502 80.763 78.4275 80.263 78.2838 79.7741C78.1603 79.4069 77.8987 78.5414 77.9105 78.2082C77.904 77.9758 77.9334 77.6766 77.9197 77.4208C78.0745 77.212 78.2746 77.4155 78.5873 77.7373C79.1037 77.6528 79.6502 77.5417 80.1876 77.4254C80.2622 77.5534 80.3377 77.6811 80.414 77.8086C80.4141 77.8089 80.4141 77.8092 80.4142 77.8095C80.6601 77.9261 80.6745 77.5565 80.7742 77.4534C81.6999 76.4776 83.954 76.5896 85.1675 76.3695C85.4291 76.324 86.2119 75.9264 86.4441 76.0981C86.5045 76.1431 86.5723 76.3478 86.6231 76.3439C87.0214 76.1048 87.4182 75.8628 87.8099 75.6183C88.3717 75.6601 88.8876 75.4957 89.3834 75.2848C89.7282 75.1366 90.0631 74.9576 90.4021 74.8098C92.5942 73.8513 94.6021 72.552 96.6088 71.2656C96.9986 71.0164 97.3844 70.5485 97.8101 70.3661C97.9878 70.2896 98.2578 70.5201 98.3034 70.1647C98.3612 70.2377 98.419 70.3107 98.4769 70.3837C98.5847 70.1624 98.5684 69.909 98.7477 69.744C98.8983 69.6067 99.3188 69.2577 99.4803 69.1724C99.5652 69.1269 99.6469 69.2844 99.7152 69.2281C99.8324 69.13 99.9265 68.7419 100.086 68.6083C100.232 68.4874 100.601 68.4366 100.693 68.3193C101.025 67.8987 101.247 67.3049 101.71 66.9879C101.838 66.9009 102.133 66.9343 102.165 66.8952C102.226 66.8208 102.096 66.6419 102.123 66.5782C102.256 66.2582 102.795 66.0998 103.024 65.8869C103.777 65.1911 104.448 64.3451 105.14 63.6142C105.424 63.3148 105.791 62.8646 106.134 62.4864L105.856 62.9879C105.972 62.7217 106.09 62.4814 106.212 62.3022C106.287 62.1932 106.504 62.3022 106.538 62.199C106.577 62.0847 106.443 61.9728 106.448 61.9161C106.484 61.5196 106.575 60.668 106.832 60.3661C106.882 60.309 107.076 60.3127 107.087 60.2719C107.093 60.2516 106.982 60.1712 106.987 60.1046C107.029 59.5171 107.205 59.1312 107.375 58.5918C107.7 57.5545 107.679 56.2928 107.923 55.1959C107.976 54.9575 108.362 54.8216 108.361 54.7865C108.361 54.7091 108.116 54.6388 108.066 54.4822C107.905 53.961 108.204 53.2902 108.087 52.798C108.07 52.7241 108.029 52.6418 107.978 52.557L107.978 52.6299C107.854 52.4472 107.676 52.271 107.617 52.1408C107.551 51.9878 107.629 51.6424 107.478 51.609C107.389 51.588 107.12 51.624 107.079 51.5922ZM110.851 58.0611C110.433 57.9453 110.712 58.3943 110.968 58.2955C111.026 58.2726 110.96 58.0918 110.851 58.0611ZM99.9224 72.2091C99.9994 72.3059 100.076 72.4027 100.153 72.4994C100.163 72.4279 100.172 72.3564 100.181 72.285C100.114 72.2428 100.047 72.2005 99.9797 72.1581C99.9606 72.1751 99.9414 72.1922 99.9224 72.2091Z" fill="#361700"/>
<path d="M109.07 130.665C108.985 130.825 108.707 130.922 108.572 131.083C108.008 131.75 107.72 131.934 107.18 132.511C106.385 133.374 104.346 136.16 103.484 135.432C103.484 135.432 103.484 135.432 103.484 135.432C103.475 135.425 103.467 135.417 103.459 135.409C103.302 135.263 103.309 134.89 103.151 134.701C102.992 134.513 101.77 133.534 101.964 133.163C102.257 132.633 103.47 131.791 103.654 131.533C103.781 131.358 103.839 131.06 103.991 130.831C104.483 130.087 104.854 129.786 105.04 128.918C105.397 128.792 105.754 128.662 106.11 128.532C106.29 128.142 106.885 127.801 107.027 127.585C107.142 127.412 107.085 127.218 107.21 127.038C107.346 126.838 107.71 126.639 107.951 126.265C108.345 125.652 108.077 125.302 108.288 124.915C108.503 124.52 109.1 124.072 109.305 123.517C109.308 123.431 109.312 123.345 109.315 123.259C109.2 123.242 109.084 123.226 108.968 123.209C109.095 122.941 109.339 122.965 109.495 122.745C109.677 122.489 109.598 122.245 109.718 122.07C109.818 121.926 110.081 121.828 110.199 121.634C110.372 121.353 110.135 121.284 110.196 121.114C110.222 121.048 110.834 119.894 110.869 119.835C111.168 119.364 111.462 119.503 111.729 119.144C111.763 119.099 111.796 119.052 111.829 119.005C112.507 118.044 112.951 116.896 113.454 115.923C113.688 115.468 113.989 115.024 114.302 114.62C114.576 115.737 116.063 114.566 114.616 114.449C115.071 114.066 114.989 113.538 115.322 113.112C115.539 112.835 115.817 112.725 116.074 112.298C116.53 111.541 116.601 110.453 117.517 110.715C117.92 109.745 118.672 109.149 118.171 108.41C118.268 108.156 119.035 107.82 119.247 107.596C119.447 107.386 120.754 105.631 120.945 105.33C121.14 105.028 121.467 104.502 121.559 104.206C121.647 103.925 121.324 103.475 121.694 103.248C121.81 103.175 121.991 103.124 122.27 103.106C122.594 102.395 122.758 102.169 123.218 101.599C123.302 101.496 123.435 101.556 123.473 101.491C123.553 101.351 123.591 101.069 123.72 100.816C123.931 100.403 124.328 100.325 123.894 100.139C123.977 99.8339 124.056 99.5328 124.138 99.2266C124.269 99.1778 124.4 99.13 124.532 99.0796C124.525 98.8895 124.519 98.6987 124.511 98.5089C125.011 99.0077 125.22 97.807 124.697 97.9453C125.106 97.4975 125.515 97.0451 125.923 96.5925C126.56 97.0354 126.629 95.4901 126.206 95.3888C126.239 95.3302 126.274 95.2689 126.307 95.2092C126.673 94.8777 126.83 94.4573 127.118 94.0123C127.199 93.8873 127.288 93.7644 127.396 93.6384C127.882 93.0751 127.912 93.1742 128.331 93.1605C128.399 93.003 128.468 92.8445 128.536 92.6875C128.141 91.4291 129.535 92.4043 129.623 90.7197C130.393 90.5957 130.67 89.383 130.788 88.6184C130.803 88.5289 130.695 88.4812 130.705 88.3608C130.737 88.0693 131.118 87.4505 130.742 87.3539C130.809 87.2832 130.875 87.2113 130.94 87.1386C131.047 87.0269 131.154 86.9019 131.259 86.7681C131.239 86.5618 131.216 86.3466 131.188 86.1345C131.07 86.1118 130.953 86.0891 130.835 86.0664C131.318 85.7522 131.275 85.0559 131.421 84.7424C131.451 84.6797 131.616 84.693 131.692 84.4923C131.781 84.2611 131.799 83.7997 131.891 83.5181C131.726 83.3803 131.561 83.2399 131.395 83.1038C131.37 82.5688 131.874 82.4517 131.954 82.1492C131.968 82.0952 132.078 81.0777 132.076 81.0222C132.062 80.563 131.631 80.6303 131.921 79.3445C131.974 79.1121 132.144 78.9523 132.184 78.7418C132.253 78.3764 132.131 77.2071 131.856 77.0642C132.303 76.6807 132.388 75.4526 132.57 75.1203C132.625 75.0207 132.862 75.0455 132.981 74.7283C133.07 74.4943 133.046 73.8605 133.131 73.5044C133.137 73.4761 133.145 73.4497 133.153 73.4255C133.267 73.0832 133.49 73.0081 133.54 72.8531C133.587 72.7082 133.461 72.5368 133.509 72.3377C133.659 71.713 134.042 71.2036 134.159 70.713C134.329 70.0011 134.005 69.2665 133.928 68.6289C133.99 68.49 134.122 68.3643 134.155 68.2107C134.578 66.3068 135.089 64.178 135.332 62.3492C135.502 61.5019 135.956 59.4468 134.929 60.1174C134.906 60.0946 134.887 60.0547 134.872 60.003C134.767 59.5465 134.644 57.7183 134.524 57.3502C134.406 56.9404 134.12 56.6851 134.011 56.3662C133.682 55.4159 133.567 54.687 132.958 53.5921C132.8 53.309 132.458 53.0749 132.39 52.8999C132.307 52.6858 132.419 52.3753 132.317 52.0931C132.075 51.4261 131.476 50.2432 131.225 49.6075C131.18 49.4917 131.339 49.3707 131.32 49.1827C131.245 48.4502 130.885 47.752 130.384 48.1474C130.354 47.7013 130.193 47.3317 129.989 46.9907C129.767 46.62 129.495 46.3106 129.29 45.978C128.561 44.655 126.633 42.3412 125.345 41.5085C124.552 40.9853 124.387 41.2066 123.512 40.1005C123.316 39.8548 123.134 39.5986 122.886 39.2998C122.565 38.9093 122.332 38.4454 122.016 38.117C121.779 37.8708 121.493 37.7039 121.091 37.7208C120.427 36.9581 119.739 36.5433 119.498 35.6607C119.349 35.7044 119.201 35.748 119.052 35.7916C118.954 35.7161 118.857 35.641 118.76 35.5665C118.807 35.448 118.853 35.3294 118.9 35.2107C118.236 34.6298 117.049 34.319 116.468 33.8513C115.496 33.0645 113.082 30.9161 112.243 30.0581C111.798 29.6008 111.614 29.788 111.655 29.142C111.52 29.0845 111.389 29.0297 111.252 28.9713C111.11 29.0096 110.968 29.0482 110.827 29.0871C110.184 28.5958 109.537 27.8683 108.921 27.4013C108.511 27.0902 107.994 26.7534 107.46 26.4079C106.541 25.8134 105.561 25.1827 104.935 24.5727C104.688 24.3305 104.476 23.8875 104.208 23.7151C103.83 23.4749 103.476 23.7214 103.168 23.5871C103.101 23.5603 103.048 23.533 102.928 23.4838C102.017 23.1102 100.489 22.4967 99.613 22.4211C99.3149 22.3932 99.1582 22.5254 98.9516 22.5179C98.0845 22.4902 97.37 22.4194 96.5229 22.5975C95.6525 22.162 95.7484 21.675 95.4895 21.1619C95.2929 20.7745 94.6516 19.8795 94.5576 19.5477C94.4948 19.3138 94.7564 19.0206 94.6669 18.7626C95.8283 18.5894 96.3016 18.8422 97.2018 19.2626C98.9083 19.3704 100.617 19.5393 102.357 19.8852C102.487 20.0553 102.613 20.2261 102.737 20.3986C102.737 20.3989 102.737 20.3992 102.737 20.3995C103.204 20.6343 103.527 20.5441 103.829 20.4998C103.933 20.4876 104.042 20.4838 104.157 20.5034C106.231 21.0076 107.731 22.2726 109.552 23.6326C111.718 25.3211 113.869 27.258 115.42 28.5353C116.027 29.033 118.147 30.469 118.426 30.9839C118.498 31.117 118.394 31.3096 118.504 31.4096C119.62 32.1363 120.731 32.8664 121.843 33.6094C122.539 34.3364 123.3 35.0174 124.077 35.6722C125.432 36.8137 126.859 37.9004 128.165 39.1239C130.041 40.8689 131.951 42.9872 133.14 45.4227C135.37 49.8574 137.466 54.1738 138.495 59.3852C138.498 59.4048 138.501 59.4243 138.504 59.4439C138.757 61.1452 138.708 63.056 138.408 64.461C138.278 65.0536 137.899 65.2409 138.018 66.0519C137.924 66.0438 137.831 66.0356 137.738 66.0274C137.729 66.7121 137.854 67.1766 137.725 67.92C137.617 68.5478 137.273 70.1804 137.115 70.7127C137.034 70.9907 136.888 70.846 136.829 71.1078C136.731 71.5557 136.746 72.5622 136.603 73.1765C136.535 73.4697 136.389 73.8558 136.254 74.2217C136.135 74.5427 136.031 74.8394 136 75.0425C135.768 76.5772 135.755 78.2753 135.419 79.8961C135.325 80.3406 135.014 80.8945 135 81.0358C134.971 81.3164 135.176 81.4307 135.177 81.6204C135.18 82.5884 134.721 84.049 134.563 85.0152C134.403 85.9661 134.263 86.9364 133.938 88.0513C133.191 90.4977 131.951 92.5234 130.86 94.3695C130.622 94.7655 130.353 95.2202 130.07 95.7077C129.187 97.2405 128.119 99.2238 127.33 100.366C127.11 100.687 126.949 100.483 126.79 100.767C126.612 101.084 126.655 101.336 126.584 101.489C126.193 102.328 125.395 103.948 124.723 105.024C124.54 105.316 124.364 105.574 124.212 105.761C124.076 105.929 123.838 105.962 123.773 106.072C123.741 106.126 123.776 106.319 123.686 106.496C122.88 108.079 122.149 109.148 121.211 110.609C119.415 113.408 117.599 116.812 115.603 119.695C115.168 120.322 114.567 120.565 114.514 120.654C114.5 120.677 114.49 120.701 114.481 120.725C114.416 120.919 114.494 121.171 114.31 121.552C113.607 122.998 112.183 124.623 111.411 125.933C111.032 126.581 110.688 127.604 110.307 128.243C110.004 128.756 109.067 129.799 109.018 130.091C108.988 130.27 109.161 130.49 109.07 130.665ZM116.531 111.956C116.845 112.271 117.108 111.156 116.696 111.382C116.604 111.433 116.449 111.875 116.531 111.956ZM135.412 65.803C135.288 65.7906 135.165 65.7782 135.041 65.7657C135.067 65.9111 135.092 66.0583 135.116 66.2074C135.204 66.1427 135.292 66.0782 135.379 66.0138C135.39 65.9432 135.401 65.8729 135.412 65.803Z" fill="#361700"/>
<path d="M110.442 83.7253C110.448 83.6839 110.576 83.7911 110.609 83.7782C110.747 83.7245 110.856 83.7847 110.999 83.7601C111.21 83.7242 111.553 83.2171 112.207 84.1329C112.207 84.1329 112.207 84.1329 112.207 84.1329C112.213 84.1419 112.22 84.151 112.226 84.1603C112.349 84.336 112.445 84.5548 112.58 84.7563C112.715 84.9578 113.63 86.229 113.625 86.3402C113.613 86.4917 113.186 86.3037 113.154 86.349C113.132 86.3799 113.179 86.5215 113.156 86.569C113.083 86.7217 112.959 86.683 113.076 87.0752C112.913 86.9413 112.751 86.8069 112.588 86.6734C112.586 86.7911 112.343 86.6352 112.317 86.6723C112.296 86.7027 112.374 86.8453 112.349 86.8726C112.321 86.9042 112.168 86.8001 112.123 86.8647C112.049 86.9708 112.278 87.3236 112.25 87.4101C112.22 87.4993 111.991 87.3837 111.999 87.5602C112.016 87.6048 112.033 87.6495 112.051 87.6941C112.119 87.7737 112.187 87.8533 112.256 87.9329C112.244 88.0012 112.102 87.8398 112.063 87.863C112.018 87.89 112.115 88.0708 112.085 88.0909C112.061 88.1073 111.934 87.9982 111.909 88.0288C111.872 88.0726 112.02 88.2562 112.022 88.3093C112.022 88.33 111.92 88.5642 111.911 88.5728C111.839 88.6359 111.645 88.3793 111.567 88.4005C111.353 88.4604 111.33 88.7974 111.228 88.9909C111.183 89.0776 111.098 89.1153 110.997 89.1239C110.63 88.3732 110.013 88.0253 110.852 89.0111C110.667 88.9178 110.812 89.2415 110.702 89.2468C110.631 89.2498 110.494 89.1277 110.428 89.1805C110.31 89.2751 110.463 89.7878 109.903 89.0585C109.849 89.2933 109.533 89.1058 109.938 89.8115C109.932 89.8488 109.816 89.7637 109.7 89.6758C109.606 89.6053 109.513 89.533 109.477 89.5218C109.402 89.4985 108.966 89.5287 108.907 89.5524C108.848 89.5765 108.75 89.6252 108.744 89.7137C108.737 89.8231 109.149 90.5582 108.52 89.793C108.446 89.934 108.389 89.9368 108.22 89.9071C108.189 89.9016 108.111 89.7787 108.099 89.7856C108.076 89.8 108.091 89.9172 108.056 89.954C107.997 90.015 107.798 89.7758 108.048 90.1733C108.042 90.2685 108.035 90.3642 108.028 90.46C107.966 90.3917 107.903 90.3234 107.841 90.2549C107.866 90.3547 107.891 90.4546 107.915 90.5548C107.602 89.9516 107.629 90.3992 107.881 90.7036C107.717 90.636 107.557 90.5659 107.397 90.4944C107.032 89.8147 107.156 90.5273 107.375 90.8853C107.364 90.8906 107.354 90.8959 107.343 90.9012C107.152 90.7722 107.147 90.9663 106.971 90.9046C106.793 90.8436 106.769 90.7714 106.569 90.4757C106.553 90.5073 106.537 90.539 106.52 90.5708C106.835 91.5046 106.078 89.9996 106.191 90.7819C105.835 90.2772 105.802 90.6552 105.763 90.882C105.759 90.9084 105.812 91.0146 105.809 91.0569C105.8 91.1599 105.617 91.0809 105.79 91.4222C105.7 91.3433 105.608 91.2654 105.519 91.1856C105.517 91.2644 105.515 91.3433 105.512 91.4224C105.564 91.5296 105.617 91.6368 105.67 91.7441C105.421 91.4124 105.386 91.604 105.291 91.5422C105.271 91.5295 105.197 91.3823 105.145 91.3577C105.082 91.3287 105.036 91.4055 104.968 91.381C105.03 91.554 105.091 91.7271 105.153 91.9003C105.113 92.0295 104.878 91.6073 104.815 91.5961C104.804 91.594 104.661 91.7007 104.658 91.7133C104.625 91.8193 104.821 92.1813 104.583 92.1964C104.541 92.1985 104.452 92.0832 104.418 92.0931C104.357 92.1104 104.322 92.4824 104.435 92.7586C104.317 92.5992 104.228 92.5837 104.155 92.5955C104.089 92.6054 104.037 92.6385 103.99 92.6036C103.959 92.5811 103.856 92.3672 103.785 92.3446C103.726 92.3264 103.702 92.5467 103.637 92.5415C103.568 92.5351 103.465 92.3628 103.435 92.3612C103.406 92.3599 103.451 92.5166 103.42 92.5299C103.32 92.5694 103.123 92.3742 103.043 92.4056C102.929 92.4496 103.026 92.9288 103.018 93.1649C102.982 93.1474 102.917 93.0644 102.892 93.0746C102.582 93.1987 102.206 93.2713 101.86 93.3142C101.7 93.3344 101.087 92.8989 101.618 93.8443C101.645 94.0392 101.113 93.7994 101.042 93.8234C100.971 93.8476 100.996 94.0484 100.944 94.0746C100.786 94.1535 100.617 94.0757 100.489 94.3164C100.456 94.3791 100.494 94.613 100.463 94.6238C100.425 94.6362 100.297 94.4501 100.245 94.4578C100.121 94.4776 99.9419 94.6356 99.8197 94.6473C99.7971 94.649 99.7124 94.4735 99.6601 94.4299C99.4562 94.2595 99.3427 94.3316 99.6127 94.8923C99.3326 94.6295 99.3316 94.9813 99.2105 95.0557C98.9529 95.2121 98.3974 95.2953 98.2632 95.6382C98.1783 95.8547 98.2919 96.1095 97.9762 95.9839C97.9056 95.9563 97.828 95.9114 97.7433 95.8786C97.5454 95.801 97.2122 95.3836 97.3519 95.9996C97.1343 95.9181 97.0538 96.0772 96.7309 95.6381C96.7674 95.761 96.804 95.884 96.8405 96.0069C96.8226 96.0181 96.8047 96.0292 96.7869 96.0403C96.7331 95.9312 96.6792 95.8222 96.6254 95.7131C96.4773 95.7413 96.4996 96.2752 96.3841 96.3209C96.1877 96.3992 95.6131 96.4347 95.3673 96.3616C95.2343 96.3239 95.3315 96.5652 95.0662 96.0971C95.0592 96.1406 95.0523 96.184 95.0455 96.2274C95.0781 96.3408 95.1106 96.4542 95.1425 96.568C95.0172 96.6266 94.7995 96.5219 94.6811 96.5745C94.6028 96.6096 94.5159 96.6988 94.4361 96.7839C94.2962 96.926 94.1536 97.0662 93.9657 97.0041C93.89 96.9783 93.7291 96.7844 93.6752 96.8103C93.5991 96.8467 93.737 97.2236 93.6403 97.2728C93.4743 97.3567 92.9755 97.0625 92.8269 97.1638C92.7846 97.1928 92.8172 97.3408 92.7907 97.3693C92.6769 97.4913 92.5581 97.528 92.5057 97.7991C92.2068 97.5069 92.0337 97.0418 91.7999 96.5968C91.7129 96.4283 91.559 96.1526 91.4222 95.8758C91.3165 95.6027 91.0525 95.3107 91.4426 95.106C91.4864 95.0482 91.4849 94.986 91.4474 94.9209C91.3901 94.853 91.2153 94.8061 91.1598 94.7514C91.0271 94.6422 90.9577 94.5212 90.9884 94.379C90.8081 94.4057 90.8688 94.371 90.8535 94.3613C90.8544 94.3474 90.8638 94.3367 90.8743 94.3314C90.8976 94.32 90.9296 94.3289 90.97 94.3532C91.0496 94.4025 91.1537 94.5176 91.2899 94.6557C91.5354 94.538 91.7824 94.4179 92.0307 94.2972C92.1078 94.416 92.1854 94.5347 92.2635 94.6532C92.2636 94.6535 92.2637 94.6538 92.2638 94.654C92.4231 94.7614 92.3267 94.4119 92.3467 94.3147C92.4346 93.9011 92.7254 93.6983 93.0762 93.5857C93.5103 93.447 94.0426 93.4489 94.37 93.3619C94.4962 93.3282 94.8113 92.9883 94.9843 93.1606C95.0285 93.2058 95.1191 93.4012 95.1452 93.4001C95.2966 93.1958 95.4486 92.991 95.6001 92.7863C96.1475 92.9145 96.4679 92.4752 96.8653 92.2466C97.9411 91.6278 98.9891 90.9841 100.114 90.5401C100.331 90.4549 100.536 90.1868 100.787 90.1882C100.891 90.1887 101.069 90.4879 101.078 90.2013C101.117 90.2857 101.157 90.3701 101.196 90.4545C101.25 90.3069 101.225 90.0858 101.329 90.0153C101.416 89.9566 101.658 89.8316 101.755 89.8265C101.805 89.8233 101.861 89.9889 101.9 89.9701C101.968 89.9362 102.016 89.6501 102.108 89.6076C102.195 89.5679 102.421 89.6845 102.474 89.628C102.543 89.5568 102.602 89.4633 102.662 89.3705C102.778 89.1954 102.896 89.0215 103.078 88.993C103.156 88.9812 103.342 89.1429 103.36 89.1272C103.396 89.0956 103.314 88.8917 103.33 88.8532C103.413 88.656 103.744 88.7857 103.887 88.7275C104.352 88.5389 104.781 88.2169 105.227 88.0252C105.511 87.9045 105.931 87.6266 106.253 87.6276C106.322 87.6278 106.43 87.8428 106.474 87.817C106.523 87.7878 106.466 87.6329 106.482 87.6083C106.591 87.4367 106.839 87.0886 107.072 87.1335C107.117 87.1424 107.239 87.2871 107.256 87.2756C107.264 87.2701 107.213 87.1503 107.232 87.1221C107.366 86.9233 107.527 86.8497 107.717 86.7658C107.765 86.7446 107.815 86.7226 107.866 86.698C108.356 86.4631 108.73 85.9047 109.271 85.6743C109.389 85.6242 109.676 85.8757 109.688 85.8623C109.716 85.8335 109.59 85.6159 109.617 85.52C109.71 85.2024 110.152 85.2122 110.281 84.9639C110.345 84.8415 110.296 84.4846 110.354 84.3562C110.399 84.2538 110.659 84.2197 110.612 84.0815C110.584 83.9978 110.436 83.7712 110.442 83.7253ZM110.233 89.0618C110 88.6973 110.054 89.0984 110.244 89.2488C110.287 89.2826 110.294 89.1563 110.233 89.0618ZM102.177 92.5662C102.229 92.6783 102.281 92.7904 102.333 92.9024C102.334 92.8457 102.335 92.7889 102.335 92.7322C102.293 92.6699 102.25 92.6076 102.207 92.5454C102.197 92.5523 102.187 92.5592 102.177 92.5662Z" fill="#361700"/>
<path d="M106.917 99.8562C106.915 99.82 107.036 99.9313 107.062 99.9226C107.169 99.8876 107.271 99.9506 107.391 99.9366C107.567 99.9193 107.816 99.4408 108.53 100.31C108.53 100.31 108.53 100.311 108.53 100.311C108.537 100.319 108.544 100.328 108.551 100.337C108.685 100.504 108.8 100.712 108.948 100.904C109.097 101.096 110.09 102.306 110.098 102.414C110.102 102.56 109.678 102.387 109.651 102.432C109.632 102.462 109.689 102.599 109.671 102.646C109.61 102.799 109.489 102.762 109.619 103.15C109.452 103.021 109.286 102.892 109.122 102.761C109.123 102.82 109.059 102.81 108.993 102.79C108.93 102.771 108.867 102.742 108.855 102.76C108.835 102.789 108.914 102.931 108.89 102.958C108.864 102.988 108.714 102.881 108.675 102.942C108.609 103.04 108.838 103.394 108.816 103.474C108.794 103.558 108.579 103.431 108.597 103.6C108.616 103.644 108.635 103.688 108.653 103.731C108.721 103.811 108.788 103.892 108.855 103.972C108.85 104.036 108.71 103.873 108.677 103.892C108.638 103.915 108.739 104.092 108.714 104.11C108.694 104.123 108.57 104.012 108.551 104.039C108.521 104.078 108.669 104.261 108.675 104.312C108.677 104.331 108.606 104.546 108.598 104.554C108.54 104.609 108.342 104.355 108.273 104.371C108.271 104.372 108.268 104.372 108.266 104.373L108.28 104.362C108.107 104.41 108.12 104.724 108.054 104.899C108.022 104.98 107.95 105.013 107.859 105.02C107.441 104.3 106.835 103.962 107.714 104.911C107.534 104.819 107.704 105.128 107.604 105.133C107.538 105.136 107.4 105.017 107.344 105.068C107.245 105.159 107.446 105.647 106.846 104.951C106.823 105.175 106.508 104.999 106.963 105.672C106.961 105.737 106.581 105.421 106.504 105.398C106.432 105.376 106.033 105.408 105.983 105.431C105.932 105.454 105.846 105.503 105.853 105.587C105.861 105.691 106.332 106.389 105.658 105.665C105.609 105.801 105.559 105.804 105.4 105.779C105.371 105.775 105.283 105.659 105.273 105.666C105.253 105.68 105.284 105.791 105.257 105.828C105.212 105.887 104.998 105.663 105.28 106.038C105.288 106.13 105.294 106.222 105.302 106.313C105.235 106.25 105.169 106.186 105.103 106.122C105.14 106.217 105.176 106.312 105.213 106.407C104.843 105.838 104.929 106.268 105.202 106.552C105.044 106.492 104.889 106.43 104.732 106.368C104.301 105.728 104.515 106.41 104.767 106.746C104.758 106.751 104.749 106.757 104.74 106.762C104.548 106.646 104.569 106.834 104.399 106.783C104.228 106.732 104.195 106.664 103.969 106.388C103.959 106.419 103.948 106.451 103.937 106.483C104.357 107.371 103.454 105.95 103.663 106.704C103.267 106.232 103.289 106.6 103.281 106.824C103.281 106.85 103.344 106.95 103.347 106.992C103.354 107.091 103.171 107.025 103.376 107.348C103.282 107.276 103.188 107.204 103.095 107.132C103.102 107.209 103.11 107.286 103.117 107.363C103.179 107.465 103.241 107.567 103.303 107.669C103.033 107.357 103.021 107.547 102.925 107.491C102.905 107.48 102.819 107.339 102.767 107.318C102.708 107.291 102.671 107.37 102.606 107.348C102.683 107.515 102.76 107.681 102.837 107.848C102.814 107.976 102.547 107.574 102.486 107.566C102.476 107.564 102.357 107.673 102.354 107.686C102.334 107.791 102.553 108.14 102.331 108.163C102.291 108.167 102.197 108.057 102.166 108.068C102.111 108.087 102.11 108.454 102.239 108.723C102 108.429 101.905 108.653 101.804 108.584C101.774 108.563 101.66 108.354 101.59 108.334C101.535 108.316 101.528 108.534 101.466 108.53C101.4 108.526 101.291 108.357 101.263 108.356C101.236 108.355 101.289 108.508 101.26 108.522C101.167 108.563 100.97 108.372 100.898 108.403C100.792 108.447 100.91 108.92 100.913 109.153C100.878 109.136 100.813 109.054 100.789 109.064C100.498 109.187 100.142 109.253 99.8147 109.285C99.6607 109.302 99.0832 108.843 99.5883 109.802C99.5967 109.865 99.5487 109.881 99.4776 109.874C99.3354 109.856 99.0978 109.737 99.0551 109.75C98.9917 109.769 99.0175 109.968 98.9711 109.991C98.8281 110.059 98.6713 109.973 98.5604 110.201C98.5321 110.261 98.5705 110.493 98.5418 110.502C98.5074 110.512 98.3877 110.321 98.3399 110.326C98.2256 110.338 98.0706 110.481 97.9565 110.486C97.9358 110.487 97.8558 110.309 97.8074 110.263C97.6184 110.084 97.5171 110.147 97.7714 110.715C97.5143 110.439 97.5164 110.786 97.4072 110.852C97.1791 110.989 96.67 111.039 96.5521 111.369C96.4793 111.576 96.5855 111.834 96.2943 111.692C96.2299 111.66 96.159 111.611 96.082 111.573C95.9004 111.485 95.5901 111.054 95.7256 111.669C95.5287 111.574 95.4529 111.728 95.1544 111.275C95.1893 111.398 95.2242 111.522 95.2591 111.645C95.2432 111.655 95.2274 111.664 95.2116 111.674C95.1614 111.563 95.1115 111.452 95.0611 111.342C94.9223 111.362 94.9524 111.887 94.8456 111.926C94.664 111.992 94.1472 111.987 93.9155 111.902C93.7956 111.855 93.8863 112.099 93.6416 111.621C93.6349 111.663 93.6282 111.706 93.6216 111.748C93.6515 111.862 93.6814 111.976 93.7113 112.09C93.599 112.139 93.3985 112.022 93.2901 112.066C93.0952 112.146 92.9103 112.563 92.635 112.441C92.565 112.411 92.4184 112.208 92.3709 112.229C92.2988 112.261 92.4224 112.642 92.3357 112.683C92.1802 112.755 91.7245 112.429 91.5881 112.517C91.5451 112.543 91.5755 112.691 91.5504 112.717C91.4414 112.83 91.3324 112.856 91.2722 113.122C90.9976 112.811 90.8541 112.335 90.6493 111.876C90.5743 111.702 90.441 111.416 90.3271 111.13C90.2324 110.845 90.0489 110.552 90.3041 110.361C90.498 110.243 90.1808 110.11 90.1014 109.996C90.0025 109.876 89.9396 109.75 89.9654 109.613C89.7835 109.605 89.874 109.559 89.8711 109.556C89.8859 109.549 89.9167 109.56 89.9471 109.59C90.0147 109.646 90.1017 109.771 90.2238 109.918C90.4339 109.829 90.6612 109.729 90.8825 109.631C90.9521 109.754 91.0239 109.876 91.092 110C91.0921 110 91.0922 110 91.0923 110.001C91.2343 110.119 91.147 109.768 91.1671 109.673C91.3425 108.773 92.4503 108.999 92.986 108.882C93.0989 108.858 93.381 108.544 93.5392 108.726C93.5803 108.773 93.6648 108.971 93.689 108.971C93.8211 108.781 93.9612 108.587 94.0924 108.397C94.5913 108.558 94.8757 108.146 95.2321 107.946C96.1746 107.418 97.0871 106.865 98.0777 106.495C98.1039 106.485 98.13 106.476 98.1562 106.466C98.3427 106.399 98.5065 106.152 98.7228 106.169C98.8121 106.176 98.9876 106.476 98.977 106.197C99.0168 106.281 99.0566 106.365 99.0965 106.45C99.1348 106.308 99.0979 106.092 99.1823 106.028C99.2548 105.974 99.4535 105.863 99.5389 105.861C99.5827 105.859 99.6461 106.022 99.6794 106.004C99.7365 105.973 99.7495 105.697 99.8276 105.658C99.8987 105.621 100.11 105.738 100.15 105.684C100.3 105.489 100.368 105.115 100.608 105.072C100.674 105.061 100.859 105.216 100.873 105.2C100.902 105.169 100.803 104.973 100.812 104.935C100.856 104.746 101.169 104.865 101.288 104.806C101.676 104.614 102.011 104.288 102.391 104.083C102.631 103.954 102.982 103.663 103.285 103.648C103.35 103.645 103.478 103.849 103.515 103.822C103.557 103.792 103.485 103.644 103.497 103.619C103.578 103.447 103.773 103.098 103.998 103.135C104.041 103.142 104.172 103.279 104.186 103.268C104.194 103.262 104.133 103.147 104.148 103.119C104.277 102.874 104.471 102.819 104.695 102.699C105.128 102.466 105.418 101.926 105.926 101.693C106.037 101.643 106.329 101.888 106.34 101.875C106.347 101.867 106.34 101.842 106.327 101.808L106.336 101.801C106.308 101.722 106.247 101.599 106.262 101.533C106.334 101.225 106.76 101.244 106.874 101.008C106.931 100.891 106.875 100.542 106.918 100.424C106.948 100.346 107.102 100.33 107.118 100.254C107.121 100.238 107.119 100.22 107.109 100.197C107.075 100.118 106.919 99.8966 106.917 99.8562ZM107.152 104.954C106.895 104.606 106.99 104.989 107.182 105.133C107.225 105.165 107.218 105.045 107.152 104.954ZM100.093 108.554C100.146 108.665 100.199 108.777 100.252 108.889C100.251 108.833 100.25 108.777 100.248 108.721C100.206 108.658 100.163 108.596 100.121 108.534C100.112 108.541 100.102 108.547 100.093 108.554Z" fill="#361700"/>
<path d="M83.4773 51.3828C83.4422 51.3816 83.5709 51.2798 83.5675 51.2567C83.5582 51.1787 83.6112 51.1072 83.6395 51.0316L83.6613 51.0662C83.6657 51.0485 83.6694 51.0313 83.6715 51.0144C83.5706 50.7414 83.8288 51.3173 84.3782 50.2916C84.3782 50.2916 84.3782 50.2916 84.3782 50.2915C84.3846 50.2825 84.3911 50.2734 84.3977 50.2642C84.5219 50.0889 84.679 49.9131 84.8294 49.7223C84.9811 49.5328 85.9069 48.2638 86.0599 48.2726C86.1632 48.2803 86.2477 48.4507 86.2819 48.6141C86.3183 48.7785 86.3016 48.919 86.3302 48.942C86.3693 48.9738 86.5185 48.9377 86.5704 48.9689C86.6469 49.0145 86.6748 49.0611 86.723 49.0898L86.7376 49.1131C86.7948 49.1502 86.8806 49.1648 87.0993 49.1242C86.9512 49.275 86.8014 49.4241 86.6491 49.5695C86.7653 49.5822 86.5781 49.8006 86.6097 49.8278C86.6362 49.8512 86.7869 49.7907 86.8098 49.8176C86.8366 49.848 86.7093 49.9801 86.7644 50.0296C86.853 50.1096 87.2379 49.9381 87.3173 49.9773C87.3995 50.0181 87.2425 50.2184 87.4155 50.2377C87.4623 50.2282 87.5091 50.2188 87.5559 50.2095C87.6471 50.1572 87.7382 50.1048 87.8292 50.0522C87.8936 50.0745 87.7081 50.1845 87.7229 50.2256C87.7398 50.2733 87.9357 50.2121 87.9494 50.2445C87.9605 50.2712 87.8274 50.373 87.8516 50.4022C87.8862 50.4452 88.0968 50.339 88.1489 50.3476C88.1693 50.3505 88.3747 50.4981 88.3811 50.5095C88.4261 50.5923 88.1315 50.724 88.1331 50.8023C88.1384 51.018 88.4559 51.1177 88.6148 51.2678C88.6856 51.3341 88.6982 51.4266 88.6773 51.5256C87.8546 51.6696 87.3374 52.1456 88.5272 51.6319C88.383 51.7801 88.7352 51.7358 88.7069 51.8426C88.6881 51.9113 88.529 52.003 88.5575 52.0822C88.6084 52.2192 89.1447 52.2536 88.2662 52.5309C88.4677 52.6593 88.1759 52.88 88.9825 52.7665C88.9856 52.7684 88.9873 52.7708 88.9878 52.7736L89.0378 53.3154C89.0331 53.3597 88.5924 53.4389 88.5286 53.4781C88.4656 53.5193 88.2335 53.833 88.2179 53.8874C88.203 53.9401 88.1845 54.0337 88.2528 54.0837C88.3373 54.144 89.1746 54.2436 88.1853 54.2811C88.256 54.4076 88.2244 54.449 88.1004 54.5535C88.0779 54.5723 87.9322 54.5615 87.931 54.5733C87.9287 54.5973 88.0322 54.6497 88.0408 54.6958C88.0547 54.7716 87.7443 54.78 88.212 54.8228C88.2847 54.8814 88.357 54.9402 88.4287 55.0012C88.3365 55.0083 88.2443 55.015 88.1521 55.0211C88.2466 55.0606 88.3408 55.1009 88.4347 55.142C87.7665 55.0172 88.1356 55.2637 88.5303 55.2594C88.3757 55.342 88.2197 55.4224 88.062 55.4994C87.307 55.3417 87.9306 55.6994 88.3426 55.7768C88.3393 55.7891 88.3358 55.8016 88.3323 55.8142C88.1072 55.8779 88.2451 56.0192 88.0728 56.12C87.9006 56.2168 87.8315 56.1817 87.4813 56.1117C87.4912 56.1471 87.5008 56.1825 87.5097 56.2187C88.3636 56.7169 86.8083 56.0835 87.3819 56.6291C86.7887 56.4568 86.9896 56.7687 87.0565 57.0081C87.0649 57.035 87.1648 57.0991 87.1816 57.1406C87.221 57.2432 87.0031 57.2854 87.3133 57.5087C87.1882 57.4916 87.0648 57.4697 86.9437 57.443C86.9691 57.5221 86.9921 57.6028 87.0125 57.6849C87.1025 57.7636 87.1924 57.8423 87.2824 57.921C86.9093 57.7296 86.9219 57.9408 86.7976 57.9247C86.7731 57.9207 86.6568 57.8041 86.5949 57.8004C86.554 57.7977 86.525 57.827 86.4929 57.8534C86.4746 57.8681 86.4548 57.8811 86.4258 57.8763C86.5336 58.0247 86.6413 58.1731 86.7489 58.3215C86.7562 58.4467 86.4192 58.101 86.361 58.102C86.3506 58.1025 86.2619 58.2253 86.2626 58.2382C86.2667 58.3424 86.5494 58.6412 86.3475 58.6987C86.3114 58.7087 86.1983 58.6184 86.1714 58.6339C86.124 58.6609 86.2079 59.0125 86.3899 59.2484C86.099 59.0065 86.0607 59.2375 85.9516 59.1881C85.9183 59.1728 85.7637 58.9927 85.6942 58.9847C85.6378 58.978 85.681 59.1889 85.6223 59.196C85.5594 59.2028 85.4183 59.0606 85.3911 59.0646C85.3655 59.0685 85.4513 59.2064 85.4269 59.2249C85.3495 59.2807 85.1193 59.1334 85.0579 59.1764C84.9694 59.2376 85.1885 59.672 85.245 59.8965C85.2076 59.8865 85.1271 59.8195 85.1071 59.8339C84.8608 60.0068 84.5326 60.1432 84.2225 60.2379C84.0765 60.2854 83.4225 59.9467 84.1032 60.7894C84.1663 60.9763 83.6086 60.8202 83.5448 60.8505C83.4808 60.8827 83.5319 61.0783 83.4829 61.1112C83.3352 61.2094 83.1613 61.1497 83.0445 61.4045C83.015 61.4705 83.0651 61.7032 83.0311 61.7177C82.9904 61.7346 82.8488 61.5577 82.7938 61.5694C82.663 61.5998 82.4621 61.7727 82.3222 61.7884C82.2962 61.7911 82.2138 61.6144 82.1592 61.571C81.9482 61.4004 81.8192 61.468 82.0517 62.0454C81.7616 61.7744 81.6971 62.1321 81.5096 62.2007C81.2043 62.3162 80.6054 62.3292 80.0925 62.3858C80.0258 62.4058 79.9646 62.4373 79.9123 62.4855C79.7464 62.638 79.7248 62.9168 79.5212 62.6567C79.4764 62.599 79.4339 62.5226 79.3805 62.4534C79.2542 62.2903 79.1865 61.7645 79.0122 62.3704C78.8773 62.1933 78.741 62.292 78.6959 61.7508C78.6669 61.8757 78.6376 62.0005 78.6083 62.1253C78.5893 62.1261 78.5703 62.1269 78.5513 62.1277C78.5611 62.0064 78.5709 61.885 78.5809 61.7637C78.4547 61.7147 78.2196 62.1873 78.1075 62.1678C77.9193 62.1366 77.4687 61.8713 77.3213 61.68C77.2439 61.579 77.1941 61.8347 77.231 61.2981C77.2042 61.3313 77.1774 61.3646 77.1506 61.3978C77.1179 61.5111 77.0852 61.6245 77.0523 61.7378C76.9316 61.722 76.8236 61.5181 76.7101 61.4995C76.505 61.4666 76.1337 61.7245 75.9684 61.4752C75.9262 61.4123 75.9112 61.1626 75.8605 61.155C75.7853 61.1434 75.6863 61.5327 75.5906 61.5203C75.4246 61.4982 75.2244 60.977 75.0633 60.9758C75.0145 60.975 74.958 61.1151 74.9227 61.1231C74.7706 61.1573 74.6671 61.1194 74.4661 61.3053C74.4104 60.8926 74.5576 60.4174 74.6523 59.9238C74.7213 59.5508 74.8908 58.6852 75.0227 58.3798C75.1036 58.1617 75.1944 57.8765 75.2808 57.6354C75.3457 57.4417 75.3785 57.6854 75.3844 58.0584C75.5883 58.0958 75.8136 58.1331 76.0334 58.1666C76.0228 58.3073 76.0128 58.4482 76.0033 58.5891C76.0032 58.5894 76.0031 58.5897 76.0031 58.59C76.0569 58.7666 76.166 58.4219 76.2297 58.3519C76.8271 57.6811 77.5661 58.4401 78.048 58.603C78.1512 58.6388 78.5203 58.5034 78.56 58.7377C78.5704 58.7988 78.5452 59.0128 78.5641 59.0249C78.7614 58.9232 78.957 58.8196 79.1495 58.714C79.4739 59.0906 79.8849 58.8545 80.2464 58.8291C80.2785 58.8269 80.3105 58.8246 80.3424 58.8221C80.5866 58.7299 81.329 58.2372 82.0556 57.7924C82.2082 57.7028 82.2978 57.4425 82.5017 57.4218C82.586 57.4134 82.8183 57.6715 82.7433 57.406C82.7999 57.4799 82.8565 57.5538 82.9132 57.6277C82.9154 57.4854 82.8325 57.2826 82.8956 57.2069C82.9499 57.1432 83.1124 56.9984 83.1924 56.98C83.2331 56.9703 83.3303 57.1153 83.3576 57.0923C83.4038 57.052 83.3552 56.7824 83.42 56.7295C83.4792 56.6814 83.7065 56.7538 83.734 56.6933C83.8337 56.477 83.8196 56.1001 84.0452 56.0115C84.1078 55.9875 84.3174 56.1046 84.3284 56.0868C84.3494 56.0514 84.2149 55.878 84.2162 55.8396C84.2221 55.6846 84.4306 55.6915 84.5693 55.6598C84.5884 55.6661 84.6038 55.6689 84.6113 55.6648C84.7316 55.5928 84.707 55.4648 84.8169 55.2688C84.887 55.1507 84.9129 54.8406 85.1015 54.6562C85.1426 54.6174 85.3793 54.6593 85.3842 54.6204C85.3895 54.5776 85.2309 54.5358 85.2202 54.5144C85.1457 54.3667 85.0074 54.0392 85.1808 53.9051C85.2142 53.88 85.4033 53.8705 85.4036 53.8537C85.4041 53.8453 85.2769 53.8192 85.2652 53.7927C85.1687 53.5717 85.2325 53.4093 85.2837 53.1974L85.3202 53.5928C85.3206 53.5792 85.3208 53.5654 85.3207 53.5514C85.3171 53.1567 84.9491 52.7861 84.9151 52.3434C84.9077 52.2465 85.2282 52.0456 85.2194 52.0339C85.2011 52.0089 84.962 52.0863 84.8822 52.0556C84.6203 51.9549 84.7551 51.6035 84.5594 51.4886C84.4631 51.4315 84.1233 51.4638 84.0219 51.4217C83.9412 51.3875 83.9753 51.1884 83.8388 51.2313C83.7565 51.2569 83.5166 51.3834 83.4773 51.3828ZM88.3819 52.2269C87.9612 52.3308 88.3559 52.404 88.5617 52.2764C88.6079 52.247 88.4911 52.1995 88.3819 52.2269ZM84.3305 59.4743C84.4059 59.5722 84.4813 59.6701 84.5567 59.768C84.543 59.7139 84.5293 59.6599 84.5154 59.6059C84.461 59.554 84.4067 59.5019 84.3524 59.4497C84.3451 59.4579 84.3378 59.4661 84.3305 59.4743Z" fill="#361700"/>
<path d="M117.809 124.978C118.16 124.908 118.638 124.72 119.05 124.29C119.461 123.873 119.641 123.306 119.676 123.04C119.748 122.538 119.666 122.324 119.651 122.252C119.594 122.069 119.584 122.131 119.587 122.179C119.595 122.299 119.661 122.531 119.747 122.711C120.562 124.386 120.861 125.169 121.482 126.937C121.941 128.24 122.842 131.045 122.522 133.731C122.262 136.431 120.808 138.362 120.346 138.056C120.346 138.056 120.346 138.056 120.346 138.056C120.336 138.051 120.327 138.044 120.318 138.038C120.153 137.904 120.26 137.174 120.071 136.988C119.882 136.8 118.462 136.21 118.628 135.475C118.989 134.45 119.361 131.66 119.141 130.992C119.054 130.559 118.795 130.057 118.613 129.522C117.998 127.79 117.655 126.852 116.528 125.474C116.456 125.107 116.386 124.753 116.303 124.361C116.266 124.173 116.226 123.978 116.18 123.749C116.16 123.641 116.137 123.522 116.115 123.384C116.1 123.257 116.062 123.108 116.058 122.795C116.058 122.624 115.989 122.479 116.216 122.013C116.458 121.556 116.995 121.36 117.285 121.361L117.114 121.382C118.249 121.12 119.57 121.46 120.107 121.5C120.599 121.538 120.901 121.416 121.404 121.482C121.966 121.556 122.78 121.875 123.762 122.028C125.369 122.276 125.713 121.906 126.639 121.979C127.582 122.052 129.065 122.395 130.002 122.036C130.067 121.995 130.129 121.952 130.187 121.909C130.234 121.877 130.28 121.845 130.325 121.812C130.259 121.77 130.193 121.726 130.128 121.682C130.085 121.646 130.043 121.61 130.001 121.573C130.033 121.562 130.064 121.552 130.092 121.544C130.486 121.428 130.736 121.532 131.111 121.363C131.58 121.137 131.671 120.817 131.922 120.62C132.125 120.457 132.507 120.315 132.729 120.016C133.041 119.577 132.769 119.536 132.88 119.276C132.902 119.225 133.147 118.729 133.303 118.164C133.466 117.604 133.54 116.995 133.549 116.932C133.687 115.958 134 115.872 134.02 115.049C134.02 114.604 133.969 114.147 133.878 113.793C133.824 113.539 133.087 112.501 132.435 111.777C131.757 111 131.023 110.228 130.334 109.447C129.566 108.574 128.792 107.605 128.108 106.464C129.024 107.085 128.967 106.368 128.711 105.767C128.46 105.179 127.959 104.486 127.824 105.649C127.578 104.951 127.157 104.43 127.139 103.077C127.123 102.414 127.6 101.383 128.229 100.94C128.856 100.461 129.356 100.337 129.829 100.246C129.993 100.217 130.157 100.197 130.323 100.185C131.257 100.127 131.838 100.297 132.978 100.284C134.434 100.295 136.205 99.9246 136.239 100.1C136.536 100.07 136.78 100.118 136.985 100.274C138.79 99.3455 140.221 98.2973 140.027 97.2472C140.14 97.078 140.405 96.8603 140.694 96.6034C141.008 96.3843 141.333 96.0381 141.434 95.7844C141.544 95.5827 141.815 94.4322 141.565 93.0915C141.425 92.1914 140.894 91.0733 140.758 90.785C140.434 90.1092 139.771 88.9276 139.371 88.4007C138.87 87.7338 137.854 87.6891 137.905 85.897C137.104 84.7188 136.749 84.1301 136.255 83.1242C136.107 82.8138 135.933 82.4716 135.872 81.8509C135.854 81.1934 136.068 81.0669 136.261 80.6695C136.439 80.335 136.793 80.0063 137.138 79.8308C137.416 79.6652 137.748 79.4669 138.106 79.3016C139.069 78.857 139.742 78.9216 139.455 78.5302C140.07 78.193 140.687 77.8647 141.307 77.5427C141.566 77.5401 141.825 77.5386 142.084 77.5381C142.34 77.3547 142.597 77.1723 142.855 76.991C142.906 76.9536 142.957 76.916 143.008 76.8784C142.875 77.6741 144.981 76.3739 144.096 76.32C145.266 75.9637 146.393 75.5209 147.335 74.9166C147.514 75.2683 148.051 74.8666 148.317 74.3277C148.599 73.7838 148.516 73.2262 148.289 73.2269C148.297 73.2099 148.305 73.1929 148.312 73.1759C148.358 73.0682 148.407 72.9535 148.452 72.8467C149.14 71.7269 149.43 70.5944 149.892 69.2435C150.301 67.9002 150.281 68.0719 150.66 67.6622C150.636 67.3491 150.58 67.0568 150.488 66.8131C150.056 66.4927 149.942 66.4695 149.871 66.2911C149.585 65.8463 149.461 64.9309 147.213 64.3806C146.527 63.3322 143.949 62.6244 142.191 61.7883C141.989 61.6869 141.916 61.7852 141.631 61.6325C141.383 61.4822 141.03 61.2703 140.625 60.7266C140.437 60.4643 140.195 59.987 140.252 59.422C140.313 58.8547 140.58 58.509 140.763 58.2836C140.922 58.0636 140.995 57.8998 140.897 57.8275C141.434 57.4558 141.956 57.1343 142.47 56.8131C142.782 56.4331 143.09 56.0555 143.386 55.6787C143.302 55.5936 143.218 55.5085 143.134 55.4234C144.113 55.0689 145.019 53.8972 145.531 53.4137C145.635 53.3174 145.785 53.4009 146.091 53.0807C146.453 52.7076 146.941 51.8965 147.252 51.3965C147.231 51.2873 147.209 51.1795 147.184 51.0733C147.148 50.8876 147.109 50.7069 147.067 50.5282C147.404 49.5423 147.931 49.4028 148.046 48.912C148.051 48.8848 148.075 48.6847 148.047 48.4878C148.021 48.2886 147.943 48.0997 147.827 47.9388C147.632 47.6561 147.484 47.4423 147.459 47.4116C146.836 46.664 146.679 46.9668 145.144 44.8744C144.866 44.5248 144.724 44.1733 144.442 43.9146C144.197 43.6827 143.625 43.3482 143.11 43.2632C142.594 43.1652 142.149 43.2779 142.075 43.4183C141.996 43.3565 141.891 43.3053 141.761 43.2683C140.579 43.0284 138.531 43.1038 137.857 43.0061C137.62 42.9707 137.571 42.7329 136.841 42.6753C136.248 42.625 134.739 42.8157 133.841 42.6909C133.492 42.637 133.228 42.5819 132.804 42.3871C132.616 42.2747 132.27 42.1776 131.916 41.5743C131.75 41.2838 131.703 40.846 131.758 40.5939C131.813 40.3026 131.893 40.1712 131.973 40.0358C132.064 39.9238 132.151 39.8203 132.223 39.7172C132.466 39.3737 132.558 38.9965 132.878 38.617C133.874 37.4696 134.9 36.7588 135.522 35.9067C136.402 34.7365 136.465 33.4096 136.25 32.6259C136.243 32.5752 136.237 32.5248 136.23 32.4747C136.272 32.1594 136.379 31.85 136.378 31.5193C136.377 30.0473 136.219 28.3524 135.723 27.4126C134.919 25.8925 133.944 24.7083 132.642 23.8982C131.83 23.3919 130.95 22.9539 130.077 22.5935C128.383 21.6506 123.74 20.7408 124.966 21.9157C124.65 22.0086 123.298 21.9455 122.147 22.3185C121.426 22.5272 120.145 23.4918 119.846 23.7402C119.121 24.3503 118.682 25.0156 118.088 25.5448C117.792 25.8067 117.51 26.0538 117.162 26.3218C116.959 26.4647 116.876 26.5743 116.34 26.8343C116.246 26.8752 116.135 26.9187 115.983 26.9572C115.879 26.9804 115.521 27.0786 115.042 26.9645C114.825 26.9171 114.459 26.7628 114.195 26.5072C113.929 26.2679 113.75 25.9034 113.699 25.7335C113.583 25.3773 113.593 25.1263 113.605 24.9442C113.662 24.4526 113.738 24.3488 113.8 24.1709C114.576 22.4995 115.176 21.7417 115.304 20.1881C115.351 19.6099 115.115 18.9978 115.093 18.6614C115.071 18.2866 115.205 17.8458 115.136 17.3295C115.13 17.284 115.122 17.2381 115.113 17.1917C114.877 15.7574 113.758 13.2742 112.985 12.2871C112.852 12.0994 112.957 11.9129 112.785 11.6211C112.427 11.0079 111.881 10.5117 111.456 10.366C111.117 10.2521 110.792 10.2976 110.792 10.6079C109.378 9.62528 107.469 9.53327 105.826 9.37659C104.28 9.22419 102.012 9.20494 100.507 9.97166C98.413 10.9779 96.7482 13.4867 95.7514 15.0867C94.947 16.4162 94.8579 16.8613 94.0873 17.9377C93.95 18.1032 93.9047 18.2646 93.3283 18.7106C93.1718 18.8197 92.9465 18.9687 92.5698 19.091C92.1966 19.2189 91.5686 19.2783 91.0228 19.1039C89.8982 18.7004 89.7087 18.1698 89.5359 17.9575C89.2575 17.4866 89.2465 17.3535 89.1905 17.2141C89.1479 17.0878 89.1262 17.0145 89.1163 16.9743C89.0179 16.7113 88.9218 16.4279 88.8274 16.1256C88.6019 15.4063 88.4386 14.7276 88.1999 14.0374C87.8149 12.907 87.5308 12.1372 86.8426 11.8394C86.4093 11.641 85.9582 11.5174 85.4889 11.5062C83.6261 10.4825 81.9937 10.0399 80.6296 9.11715C80.4186 9.1924 80.2074 9.26972 80.0021 9.35074C79.7545 9.29334 79.5091 9.24081 79.2634 9.19315C79.2121 9.05836 79.1604 8.92395 79.1053 8.78939C77.807 8.48243 75.979 8.70254 75.4985 9.12146C75.0862 9.34876 74.7305 9.54779 74.4093 9.71185C73.5148 10.1626 72.1167 10.983 71.0469 12.2236C70.1361 13.3131 69.6442 17.1258 69.3121 18.5134C69.0425 19.7854 69.2177 20.0019 68.7473 20.5814C68.6998 20.6506 68.6459 20.7206 68.5821 20.8004C68.5482 21.0167 68.5624 21.1881 68.3632 21.643C68.3006 21.762 68.23 21.9228 67.9786 22.1561C67.7636 22.3964 67.07 22.6467 66.6328 22.5208C66.2031 22.4228 66.0414 22.2754 65.9136 22.1876C65.7926 22.0948 65.723 22.0274 65.6619 21.9687C65.3835 21.7976 65.2292 21.7321 65.0818 21.7012C65.0339 21.6794 64.9864 21.6573 64.9387 21.6347C63.8749 20.1768 62.7752 18.8442 61.4959 18.2886C60.8533 17.9965 60.0695 17.8175 59.2168 17.8298C56.5263 17.8399 53.5102 17.8967 51.5352 18.051C50.8829 18.0929 50.0515 18.0774 49.6673 18.2848C49.6331 18.3032 49.5994 18.3218 49.5662 18.3406C48.5761 18.906 48.5158 19.3543 47.532 20.0498C46.8355 20.5577 46.0479 21.2162 45.782 21.9829C45.2117 23.7383 44.9159 25.7398 44.9694 26.9853C44.9945 27.6245 45.1682 27.9063 45.2268 28.3269C45.4083 29.7198 45.8991 31.063 46.3875 31.2888C46.6641 31.4953 46.9459 31.7006 47.2374 31.9042C48.5117 33.5579 48.0377 33.7891 48.1992 34.5812C48.3559 35.172 48.7635 36.7724 49.6176 37.1695C49.8376 37.2917 49.4974 37.4289 49.2362 37.499C48.9812 37.5764 48.7502 37.6327 48.9418 37.8349C47.6797 37.3926 47.416 37.0501 46.9444 36.7198C46.5292 36.391 46.2079 36.0866 45.9129 35.7794C45.3271 35.167 44.8627 34.5459 44.2415 33.7575C44.2358 33.7524 44.23 33.7474 44.2243 33.7424C40.9295 29.4967 41.994 25.552 42.5654 21.6642C42.655 21.5292 42.7458 21.3957 42.8378 21.2647C42.9801 21.028 43.1376 20.8109 43.3075 20.6109C43.3077 20.611 43.308 20.6111 43.3083 20.6112C44.1914 19.0764 44.553 18.4628 45.1669 17.7983C46.0088 16.965 47.1235 16.2575 48.1549 15.6153C51.9598 13.785 55.5327 14.3796 59.317 14.3976C63.0781 14.4049 66.1972 17.3455 67.6741 19.621C67.7781 19.756 67.8647 19.876 67.8914 19.9108C67.8966 19.9239 67.9123 19.9212 67.7683 19.8112C67.6885 19.7602 67.5646 19.6525 67.2197 19.582C66.8763 19.4945 66.3159 19.6572 66.1081 19.8432C65.6874 20.2053 65.75 20.2906 65.7128 20.3324C65.6993 20.3704 65.7073 20.3576 65.7145 20.3347C65.7311 20.2848 65.7539 20.1891 65.7738 20.0871C66.1503 18.1196 66.4142 16.2397 66.7398 14.5654C66.973 13.7313 66.9454 12.0424 68.3608 10.025C69.7289 8.28649 71.6209 7.15499 72.2814 6.93223C72.606 6.81963 72.7893 6.9659 73.1055 6.81611C73.4845 6.60597 73.871 6.41085 74.2456 6.22907C77.4105 5.05788 80.0161 5.90806 82.5994 6.49297C84.5463 7.21998 86.4447 8.03432 88.3149 9.003C91.1861 10.5248 91.7386 13.5831 92.6488 15.4439C92.7561 15.6867 92.8627 15.9688 92.8472 15.9159C92.8248 15.8889 92.834 15.8252 92.5842 15.6022C92.4616 15.4972 92.1938 15.3431 91.8822 15.3214C91.5722 15.297 91.341 15.3855 91.2154 15.4477C90.9731 15.5784 90.9533 15.6339 90.923 15.6574C90.9008 15.6808 90.9045 15.677 90.9119 15.6647C91.691 14.5374 92.451 13.4018 93.2665 12.2657C94.6924 10.3047 96.3421 8.09526 98.8983 6.78567C103.906 4.69928 108.417 5.62836 113.035 7.59688C116.543 9.76348 117.858 13.2467 118.673 16.5596C119.571 19.5271 118.258 23.565 117.104 25.4667C117.095 25.4716 117.11 25.5215 117.149 25.2329C117.155 25.1503 117.172 24.9649 117.103 24.6967C117.103 24.5045 116.634 23.7155 116.085 23.5671C115.639 23.4021 115.31 23.4673 115.181 23.4912C115.059 23.5168 114.985 23.545 114.933 23.5659C114.773 23.6368 114.813 23.6282 114.83 23.6128C114.855 23.5958 114.9 23.5623 114.946 23.5265C115.141 23.3751 115.384 23.1638 115.622 22.9538C116.105 22.5272 116.602 22.0749 117.115 21.6257C118.194 20.7278 119.061 19.8102 120.838 18.9969C122.028 18.5278 123.265 18.3244 124.458 18.2892C127.797 18.183 131.592 19.2811 134.374 20.9891C134.644 21.1555 134.901 21.332 135.142 21.5157C136.34 22.4857 136.562 23.1484 137.873 24.5518C137.806 24.6205 137.74 24.6889 137.673 24.7569C137.983 25.1577 138.246 25.5193 138.486 25.8521C139.14 26.8481 139.464 27.7699 139.658 29.0356C139.784 29.8602 139.872 31.364 139.809 32.7592C139.745 34.3719 139.08 35.6362 138.746 36.2134C138.356 36.8541 138.35 36.5261 137.982 37.0855C137.375 38.0501 135.949 39.935 135.167 40.8735C134.988 41.0914 134.776 41.3521 134.666 41.5139C134.723 41.3988 134.805 41.2475 134.835 40.9241C134.871 40.6225 134.744 40.1603 134.562 39.9225C134.187 39.4459 134.012 39.473 133.956 39.4349C133.837 39.4028 133.932 39.4449 134.018 39.4628C134.207 39.5075 134.486 39.5445 134.747 39.572C135.281 39.6269 135.797 39.6543 136.152 39.649C137.962 39.617 139.896 39.5186 141.863 39.4914C144.303 39.3946 146.64 41.0068 147.848 42.5798C148.609 43.5018 149.181 44.784 149.371 45.0507C149.74 45.5803 150.025 45.6163 150.282 45.9521C150.34 46.0279 150.398 46.1059 150.457 46.1857C151.175 47.1066 151.376 48.7127 151.094 49.7704C150.845 50.8676 150.41 51.6995 150.011 52.4574C149.453 53.502 148.8 54.3583 148.265 55.033C146.625 57.1149 144.516 58.8156 142.947 60.3868C142.998 60.3332 143.108 60.2109 143.185 59.962C143.267 59.71 143.239 59.3931 143.178 59.2316C143.049 58.9132 143.035 58.9969 143.113 59.0495C143.272 59.1929 143.636 59.4267 144.004 59.6284C144.758 60.0431 145.637 60.4436 146.514 60.8478C148.295 61.7135 150.087 62.3193 152.04 64.004C152.931 64.8365 153.322 66.0067 153.414 66.9335C153.645 69.6482 152.55 72.1665 151.555 74.5411C149.586 78.4263 146.095 79.2957 144 80.1165C143.883 80.1547 143.768 80.1922 143.655 80.2289C142.844 80.4936 142.972 80.1891 142.303 80.445C141.562 80.7307 141.225 81.0416 140.889 81.1918C140.212 81.4954 139.3 81.9099 138.33 82.394C138.374 82.377 138.511 82.3114 138.648 82.1274C138.787 81.9456 138.84 81.6985 138.839 81.5918C138.829 81.3706 138.831 81.5021 138.917 81.623C140.043 83.5091 141.378 85.5506 142.005 86.8045C142.222 87.2306 142.235 87.6269 142.378 87.8753C142.45 88.0021 142.726 88.2229 142.96 88.6243C143.65 89.8389 144.268 90.9411 144.622 92.4373C145.031 94.289 145.067 96.5989 143.697 98.6079C143.32 99.1575 142.89 99.6965 142.391 100.218C141.084 101.608 139.305 102.707 137.547 103.382C134.377 104.164 132.415 103.592 130.422 103.953C130.314 103.967 130.293 104.015 130.445 103.914C130.61 103.828 130.794 103.421 130.773 103.33C130.752 103.149 130.839 103.558 131.03 103.866C131.408 104.543 131.986 105.301 132.569 106.037C133.749 107.529 135.038 108.967 136.193 110.683C136.668 111.414 137.024 112.162 137.143 113.017C137.203 113.739 137.121 114.167 137.14 114.313C137.189 114.893 137.484 115.253 137.46 116.454C137.593 119.602 134.837 124.287 130.977 124.968C130.097 125.195 129.295 125.246 128.587 125.269C126.714 125.33 124.343 125.182 122.751 124.969C121.448 124.753 118.675 124.288 118.331 124.531C118.089 124.627 118.001 124.899 117.81 124.978L117.446 125.022C117.549 125.018 117.67 125.006 117.809 124.978ZM134.158 100.49C133.97 100.941 136.196 100.497 135.354 100.301C135.187 100.264 134.222 100.379 134.158 100.49ZM135.943 26.3769C135.849 26.4599 135.755 26.5425 135.66 26.625C135.818 26.802 135.974 26.9876 136.132 27.1819C136.161 27.2131 136.19 27.2477 136.219 27.2824C136.222 27.2317 136.223 27.1798 136.224 27.1297C136.211 27.0075 136.198 26.8846 136.184 26.7639C136.105 26.6325 136.025 26.5036 135.943 26.3769Z" fill="#361700"/>
<path d="M83.1259 45.4343C83.1299 45.4013 83.197 45.5496 83.2108 45.5537C83.2655 45.5737 83.3189 45.6735 83.3991 45.7088C83.5095 45.7677 83.7675 45.4056 84.2726 46.4102C84.2727 46.4102 84.2727 46.4102 84.2727 46.4103C84.2776 46.4201 84.2825 46.4302 84.2875 46.4403C84.3814 46.633 84.4523 46.8592 84.5547 47.079C84.657 47.299 85.3544 48.7013 85.3399 48.8065C85.314 48.9489 84.9517 48.6766 84.9156 48.7122C84.8915 48.7367 84.9124 48.8836 84.8823 48.9246C84.7811 49.0581 84.6734 48.9906 84.6664 49.4066C84.5373 49.2372 84.4147 49.0643 84.3014 48.8875C84.2813 48.9547 84.2118 48.8978 84.1582 48.8465C84.1244 48.8128 84.0894 48.7839 84.0766 48.7943C84.0504 48.8157 84.0816 48.975 84.0515 48.9924C84.0177 49.0129 83.9119 48.8635 83.8552 48.9075C83.7618 48.9786 83.8538 49.3891 83.7996 49.4591C83.7426 49.5317 83.5798 49.3374 83.526 49.502C83.5254 49.5497 83.5247 49.5974 83.5238 49.6451C83.5554 49.7451 83.5872 49.8451 83.6194 49.9451C83.5833 50.0035 83.5156 49.7991 83.4728 49.8047C83.4223 49.8111 83.4394 50.0153 83.4049 50.0217C83.3766 50.0267 83.3065 49.8748 83.2731 49.8919C83.2241 49.9161 83.2805 50.1448 83.2602 50.1936C83.2526 50.2131 83.0633 50.3797 83.0512 50.3832C82.961 50.4079 82.9018 50.091 82.8273 50.0743C82.7951 50.0672 82.764 50.0681 82.7339 50.075L82.9844 50.021C82.8327 50.0785 82.7331 50.3102 82.619 50.4255C82.5589 50.4865 82.4815 50.4869 82.4009 50.4541C82.3062 49.6278 81.9175 49.0641 82.3171 50.2937C82.1979 50.1345 82.2295 50.4855 82.1466 50.4455C82.0927 50.4194 82.0193 50.2534 81.9578 50.2736C81.8489 50.3106 81.8574 50.833 81.6005 49.9502C81.5147 50.1394 81.3221 49.8456 81.487 50.6413C81.4694 50.6973 81.2649 50.2521 81.2123 50.1986C81.1631 50.1474 80.8522 50.0095 80.8077 50.0108C80.7634 50.0113 80.6881 50.0205 80.6756 50.099C80.6575 50.197 80.8875 51.0064 80.5119 50.0943C80.4495 50.1985 80.411 50.1818 80.2936 50.1015C80.2723 50.087 80.2227 49.9497 80.214 49.9526C80.196 49.9589 80.2021 50.0712 80.1754 50.0947C80.1318 50.1333 79.997 49.8557 80.1641 50.2942C80.1584 50.3801 80.1531 50.4662 80.1494 50.5517C80.1061 50.4713 80.0626 50.391 80.0187 50.3108C80.0366 50.4097 80.0549 50.5085 80.074 50.607C79.8475 49.9662 79.8707 50.3882 80.0552 50.7342C79.9432 50.6276 79.8287 50.5229 79.7122 50.4199C79.4185 49.7058 79.5373 50.3988 79.7233 50.7757C79.7163 50.7781 79.7093 50.7806 79.7024 50.7831C79.6908 50.77 79.6802 50.7592 79.6705 50.7503C79.549 50.6549 79.5414 50.8024 79.4114 50.7224C79.2693 50.6356 79.2458 50.5638 79.0735 50.2521C79.0615 50.2799 79.0497 50.3076 79.038 50.3352C79.3358 51.2689 78.6552 49.7273 78.7855 50.4888C78.4737 49.9589 78.4644 50.3171 78.4505 50.5285C78.4487 50.5531 78.4988 50.6607 78.5 50.7006C78.5021 50.7968 78.3491 50.7004 78.516 51.0451C78.4385 50.9592 78.3599 50.8739 78.2818 50.7885C78.2868 50.8633 78.2922 50.938 78.2981 51.0125C78.35 51.1201 78.402 51.2277 78.454 51.3354C78.2293 50.9914 78.2184 51.171 78.1386 51.1018C78.1225 51.0877 78.048 50.9406 78.0047 50.9118C77.9542 50.8773 77.9237 50.947 77.8682 50.9173C77.9376 51.0869 78.0073 51.2563 78.0775 51.4255C78.067 51.5419 77.828 51.1228 77.7768 51.107C77.7674 51.1044 77.6748 51.1919 77.6742 51.204C77.6645 51.3016 77.8695 51.657 77.6983 51.6502C77.6675 51.649 77.5799 51.5351 77.556 51.5418C77.5128 51.5539 77.5637 51.8962 77.707 52.1576C77.4783 51.8591 77.4444 52.0572 77.3575 51.9846C77.3305 51.9624 77.2038 51.7616 77.1461 51.7381C77.0987 51.7191 77.1385 51.9193 77.0919 51.9119C77.0411 51.9037 76.9193 51.7454 76.8967 51.7435C76.8755 51.7419 76.9529 51.8839 76.9343 51.8954C76.8754 51.9288 76.6745 51.7535 76.626 51.7829C76.5547 51.8255 76.7866 52.2481 76.8726 52.4496C76.8422 52.4342 76.7673 52.3631 76.7545 52.3721C76.5951 52.4801 76.3801 52.5564 76.1689 52.6285C76.076 52.6544 75.4261 52.4145 76.2842 53.0734C76.4093 53.2156 75.9343 53.1085 75.8987 53.1459C75.8656 53.1784 76 53.3218 75.982 53.351C75.9276 53.4394 75.7686 53.4226 75.8365 53.6248C75.8545 53.6775 76.0275 53.8322 76.0148 53.847C75.9991 53.8645 75.7984 53.7668 75.7694 53.7863C75.7016 53.8341 75.6915 53.9927 75.6205 54.0397C75.6074 54.0476 75.436 53.9549 75.3731 53.9422C75.1275 53.8926 75.0998 53.9862 75.6536 54.2696C75.6429 54.2672 75.6328 54.265 75.6232 54.2631C75.3051 54.2103 75.5267 54.4399 75.4998 54.5321C75.4375 54.7349 75.1382 55.0127 75.3011 55.2844C75.4032 55.4561 75.6587 55.5672 75.3735 55.6153C75.31 55.6269 75.2294 55.6311 75.1535 55.6462C74.976 55.6784 74.4607 55.5748 75.0054 55.8831C74.8129 55.9278 74.8857 56.0545 74.3591 55.9439C74.4743 55.9994 74.5895 56.0545 74.7049 56.1093C74.7028 56.1238 74.7007 56.1381 74.6986 56.1525C74.5834 56.1137 74.4681 56.0751 74.3528 56.0366C74.2851 56.1228 74.7102 56.4156 74.6802 56.4907C74.6269 56.6216 74.3325 56.9058 74.1385 56.9924C74.0346 57.0389 74.2848 57.111 73.7579 57.0088C73.7895 57.0344 73.821 57.06 73.8526 57.0859C73.9629 57.1265 74.0734 57.1667 74.1839 57.2066C74.165 57.2947 73.9616 57.3564 73.9433 57.4411C73.9084 57.601 74.1769 57.8909 73.942 58.004C73.8827 58.0322 73.6361 58.0409 73.6323 58.0808C73.6267 58.1381 74.0208 58.2128 74.018 58.2819C74.0125 58.3971 73.523 58.5665 73.5482 58.6895C73.5554 58.7253 73.7028 58.7522 73.7167 58.7774C73.777 58.8797 73.7597 58.9608 73.9857 59.0622C73.5972 59.1452 73.1021 59.1216 72.6005 59.1406C72.222 59.1527 71.3443 59.2234 71.0133 59.2295C70.7806 59.2341 70.4825 59.1928 70.2264 59.2004C70.0263 59.0296 70.2545 58.9564 70.6209 58.8405C70.6202 58.5865 70.6279 58.3369 70.6444 58.0843C70.7859 58.0779 70.9273 58.0725 71.0686 58.0687C71.0689 58.0688 71.0692 58.0688 71.0695 58.0688C71.241 57.9993 70.8905 57.9101 70.8169 57.8488C70.1073 57.233 70.9325 56.3628 71.1744 55.9062C71.2242 55.8029 71.1614 55.3918 71.4029 55.3907C71.4655 55.3905 71.6705 55.4563 71.6862 55.4399C71.6268 55.2222 71.5726 55.0001 71.5227 54.7761C71.9755 54.5359 71.8763 54.0693 71.9972 53.6908C72.1241 53.2916 72.2593 52.8961 72.4144 52.5111C72.6693 51.8884 73.0157 51.2587 73.52 50.7213C73.6778 50.5524 73.7704 50.2199 74.0122 50.1326C74.1136 50.0954 74.3748 50.3237 74.2937 50.0497C74.357 50.118 74.4202 50.1863 74.4834 50.2547C74.4865 50.101 74.4005 49.8949 74.4814 49.7991C74.5486 49.7182 74.7551 49.5386 74.8486 49.5146C74.8967 49.5011 74.9861 49.6513 75.0198 49.6254C75.0754 49.5808 75.0645 49.2937 75.149 49.2368C75.2256 49.1844 75.4615 49.2699 75.5027 49.2097C75.6521 48.9927 75.7357 48.5995 75.9986 48.5461C76.0711 48.5319 76.2556 48.6889 76.2714 48.6734C76.3021 48.6422 76.2113 48.4423 76.2229 48.4043C76.2845 48.2107 76.6004 48.3422 76.7253 48.2922C77.135 48.1272 77.503 47.8527 77.8949 47.719C77.9969 47.684 78.1158 47.6299 78.2452 47.5794C78.4638 47.4919 78.6997 47.4237 78.886 47.4567C78.9538 47.4686 79.0248 47.6985 79.0698 47.6814C79.1194 47.6625 79.0905 47.5003 79.1097 47.4792C79.2403 47.3314 79.5582 47.051 79.7624 47.1622C79.8013 47.1835 79.8778 47.3567 79.895 47.3507C79.9037 47.3481 79.8863 47.2191 79.9103 47.1981C80.1226 47.0126 80.323 47.0345 80.5677 47.0148C81.036 46.976 81.4779 46.6279 81.9007 46.6461C81.9544 46.6484 82.0307 46.7662 82.0872 46.8621L82.2603 46.8247C82.2907 46.8976 82.3133 46.9582 82.318 46.9559C82.3434 46.9444 82.3223 46.6944 82.3632 46.625C82.4967 46.3976 82.7694 46.614 82.8942 46.4529C82.9558 46.3739 82.9697 46.0406 83.0127 45.9542C83.0396 45.9018 83.1363 45.9359 83.1714 45.8932L83.1838 45.889C83.2033 45.8729 83.2121 45.8508 83.2086 45.8166C83.1995 45.7308 83.1218 45.4714 83.1259 45.4343ZM81.8412 50.0874C81.749 49.6643 81.7016 50.0472 81.8087 50.2598C81.8324 50.3078 81.8651 50.1973 81.8412 50.0874ZM76.0554 51.9714C76.1386 52.0629 76.2216 52.1544 76.3046 52.2459C76.2814 52.1977 76.2587 52.1492 76.2363 52.1004C76.1809 52.0502 76.1252 52.0002 76.0693 51.9505C76.0647 51.9575 76.0601 51.9644 76.0554 51.9714Z" fill="#361700"/>
<path d="M102.641 155.515C102.434 155.337 102.267 154.947 102.027 154.73C101.94 154.65 101.855 154.575 101.778 154.509C102.053 154.689 102.042 154.608 101.951 154.585C101.857 154.55 101.693 154.515 101.509 154.49C101.132 154.438 100.668 154.415 99.9694 154.421C99.783 154.423 99.5621 154.428 99.3083 154.434C99.1382 154.436 98.9433 154.434 98.157 155.171C98.1392 155.094 97.8092 155.731 97.6667 156.404L97.6898 156.138C97.6737 156.157 97.6626 156.11 97.6053 156.01C97.5512 155.912 97.434 155.782 97.3329 155.73C97.1471 155.631 97.1944 155.735 97.3167 155.821C97.4357 155.914 97.5844 156.015 97.7017 156.113C97.9403 156.31 98.0688 156.501 98.0159 156.672C98.0159 156.672 98.0159 156.672 98.0158 156.673C98.0126 156.683 98.0087 156.694 98.0041 156.704C97.9158 156.902 97.3028 156.961 97.1511 157.165C97.0735 157.268 96.9316 157.698 96.6963 158.077C96.4421 158.432 96.1901 158.861 95.445 158.488C95.345 158.43 95.2338 158.356 95.1226 158.263C94.5141 157.809 94.157 156.773 94.2321 156.08L94.2495 155.879C94.4478 154.892 94.9172 153.538 95.8469 152.756C96.0939 152.555 96.314 152.378 96.4356 152.27C96.8082 151.938 97.3084 151.372 98.1203 151.092C98.4795 150.969 98.8382 150.906 99.171 150.886C99.8257 150.841 100.396 150.801 101.013 150.754C101.654 150.732 102.229 150.56 103.469 150.799C103.72 150.947 103.991 151.138 104.243 151.399C104.596 151.878 104.889 152.361 105.153 152.854C105.881 153.442 106.502 154.745 106.781 155.232C107.022 155.628 107.295 155.803 107.5 156.269C107.724 156.796 107.859 157.69 107.91 158.765C107.913 158.821 107.915 158.876 107.917 158.929C107.973 160.271 108.372 160.556 108.383 161.466C108.382 162.437 108.046 164.056 107.382 165.505C107.326 165.699 107.257 165.894 107.176 166.088C107.346 166.029 107.516 165.961 107.685 165.884C107.262 166.642 106.83 166.793 106.267 167.284C106.184 167.353 106.105 167.419 106.031 167.482C105.649 167.818 105.482 168.136 105.143 168.373C104.825 168.595 104.293 168.751 103.851 169.019C103.198 169.403 103.448 169.527 103.09 169.756C103.009 169.931 99.9586 171.045 99.7353 170.966C98.338 171.15 98.1988 170.8 97.1392 170.722C96.5821 170.666 96.0318 170.583 95.4908 170.477C93.4119 170.087 91.1323 169.551 89.2317 168.528C88.1863 167.978 87.1873 167.221 86.3583 166.395C88.2154 166.971 85.8237 163.86 85.967 165.782C85.1972 164.756 84.3595 164.285 83.7041 163.27C83.4105 162.806 83.2606 162.402 83.0001 161.873C82.8991 161.663 82.7773 161.432 82.621 161.165C81.6675 159.599 80.3455 157.766 81.0457 156.911C80.0939 154.781 80.382 152.625 79.7605 151.561C79.788 151.098 80.1903 150.205 80.6629 149.539C80.8759 149.259 81.0751 148.998 81.187 148.811C81.443 148.261 83.7919 144.413 84.2513 143.832C84.6546 143.214 85.4013 142.159 85.7252 141.616C86.1239 140.948 85.8257 139.93 87.5322 139.516C88.6382 138.257 89.1017 137.828 90.6028 137.026C90.884 136.889 90.985 137.005 91.1482 136.923C91.384 136.807 91.7429 136.584 92.2088 136.42C92.3531 136.366 92.5143 136.311 92.671 136.267C93.5935 136.007 94.1902 136.196 93.9843 135.76C94.5813 135.544 95.185 135.339 95.7946 135.146C96.0314 135.194 96.263 135.245 96.4978 135.297C96.8127 135.143 97.1329 134.992 97.4547 134.845C97.1576 135.564 99.4586 134.863 98.649 134.573C99.8949 134.567 101.141 134.614 102.38 134.729C102.219 135.476 105.078 134.849 104.882 134.446C105.026 134.455 105.171 134.466 105.315 134.477C105.76 134.585 106.194 134.655 106.638 134.722C107.414 134.84 108.239 134.932 109.166 135.206C110.612 135.645 110.449 135.705 110.806 136.152C111.15 136.216 111.495 136.284 111.835 136.356C113.885 135.948 113.079 137.382 116.257 137.827C116.955 138.762 119.288 139.526 120.783 140.299C120.957 140.387 121.025 140.288 121.261 140.402C121.849 140.67 123.038 141.79 123.233 141.468C123.585 141.892 123.919 142.328 124.234 142.774C124.252 142.799 124.27 142.825 124.288 142.85C124.681 143.136 125.045 143.427 125.404 143.728C125.492 143.647 125.58 143.566 125.669 143.485C125.987 144.452 126.986 145.474 127.323 146.109C127.389 146.233 127.278 146.359 127.491 146.736C127.742 147.181 128.31 147.941 128.585 148.486C128.864 148.588 129.145 148.698 129.424 148.81C130.071 149.718 129.823 150.299 130.079 150.889C130.144 150.982 131.036 152.926 131.064 153.047C131.419 153.94 131.919 153.454 132.327 156.403C132.373 156.939 132.253 157.382 132.237 157.877C132.234 157.947 132.233 158.028 132.232 158.119C132.23 159.009 132.388 160.936 132.645 161.12C132.21 161.996 132.13 164.423 131.931 165.127C131.873 165.338 131.633 165.36 131.499 166.014C131.392 166.542 131.378 167.958 131.204 168.655C131.021 169.402 130.752 169.631 130.636 169.983C130.544 170.241 130.573 170.497 130.39 170.951C130.364 171.03 130.331 171.111 130.287 171.194C129.723 172.259 129.038 173.197 128.631 174.123C128.047 175.462 127.95 176.877 127.523 178.14C127.343 178.414 127.099 178.647 126.928 178.942C126.328 179.981 125.613 181.021 124.8 181.997C122.826 184.377 120.498 186.634 118.118 188.402C116.612 189.654 112.161 191.437 113.786 191.743C113.684 191.844 113.417 192.006 113.056 192.194C112.883 192.284 112.67 192.389 112.468 192.487C112.266 192.583 112.026 192.702 111.947 192.738C110.504 193.673 108.377 194.297 107.846 194.426C107.218 194.612 106.702 194.822 106.201 194.986C105.971 195.064 105.741 195.133 105.51 195.18C103.39 195.596 101.874 195.706 99.2634 196.119C98.5889 196.223 97.8712 196.5 97.4634 196.518C96.9751 196.541 96.4378 196.341 95.8077 196.341C94.3015 196.361 91.4821 196.328 90.0396 196.124C89.777 196.09 89.7034 195.887 89.3372 195.783C89.2221 195.75 89.1055 195.719 88.9886 195.688C87.6995 195.348 86.3735 195.229 86.5521 195.831C84.7848 195.232 83.0544 195.292 81.3549 195C78.7717 194.559 74.6454 193.585 71.4093 192.163C70.2381 191.658 69.1757 191.198 68.3388 190.857C66.4584 190.041 66.3272 190.423 63.8081 188.395C63.3684 188.017 62.9429 187.609 62.4782 187.112C62.3707 186.995 62.2541 186.868 62.1409 186.741C60.8311 185.261 60.1264 183.654 58.7305 182.96C57.5227 181.258 56.441 180.01 55.9782 178.459C55.7686 178.386 55.5625 178.317 55.3534 178.243C55.2027 178.036 55.0573 177.834 54.9095 177.627C54.9643 177.492 55.0189 177.357 55.0743 177.223C54.0747 175.727 52.4269 174.058 51.6506 172.727C51.5584 172.57 51.4567 172.394 51.3471 172.201C50.1432 170.081 47.4502 165.227 47.8437 161.934C47.8584 161.656 47.8729 161.401 47.8872 161.183C47.9708 159.916 47.7112 159.841 48.2503 159.111C48.215 158.827 48.1808 158.539 48.1479 158.251C48.0335 158.069 47.9196 157.889 47.8063 157.704C47.8332 156.046 48.1285 154.07 48.3097 152.482C48.5516 150.116 48.9981 146.713 49.9602 144.073C50.1741 143.469 50.4167 142.912 50.669 142.419C51.0127 141.744 51.6358 141.003 51.9627 140.367C52.4452 139.438 52.2149 139.019 52.8797 137.864C54.0168 135.858 56.7896 132.669 58.0382 130.968C58.4054 130.459 58.466 130.133 58.7155 129.78C59.7684 128.291 60.7087 127.131 61.6306 125.639C63.1185 124.432 63.3905 124.889 64.147 124.76C64.7163 124.666 66.234 124.213 66.6195 124.257C66.8865 124.296 66.7964 124.88 67.117 124.892C65.8205 126.777 65.0849 127.294 63.6734 128.465C61.6112 131.037 59.623 133.662 57.8098 136.375C57.5281 136.543 57.2471 136.713 56.9667 136.886C56.9664 136.886 56.9662 136.886 56.9659 136.885C56.1418 137.852 56.1688 138.5 55.8925 139.114C55.1431 140.806 54.0732 142.916 53.3238 145.209C51.5746 150.314 51.1005 156.834 51.083 161.92C51.0662 162.645 51.1428 163.308 51.2859 163.928C51.4101 165.21 53.8883 169.306 54.3483 170.455C54.3575 170.48 54.3657 170.503 54.3729 170.525C54.4596 170.791 54.3123 170.966 54.4518 171.22C55.8889 173.392 57.4291 175.484 59.0701 177.485C60.7164 180.014 62.7236 182.46 64.9143 184.458C66.5196 185.868 68.5819 186.911 70.6477 187.901C71.3822 188.251 72.1282 188.589 72.8815 188.921C77.9305 191.072 83.7198 191.762 89.3994 192.461C94.7467 193.088 100.192 192.653 105.485 191.534C107.16 191.182 108.566 190.662 109.937 189.719C110.687 189.253 111.129 189.064 111.663 188.768C114.05 187.527 116.659 185.377 118.612 183.619C119.427 182.89 120.011 182.799 120.798 181.549C120.877 181.6 120.957 181.651 121.036 181.702C121.524 181.05 121.834 180.511 122.226 179.909C122.441 179.571 122.671 179.218 122.953 178.804C123.647 177.899 125.034 175.167 125.475 174.159C125.716 173.654 125.791 173.915 126 173.43C126.353 172.605 126.92 170.666 127.575 169.472C127.579 169.464 127.584 169.455 127.589 169.447C127.631 169.41 127.906 168.624 128.064 167.998C128.236 167.345 128.376 166.682 128.42 166.265C128.69 163.66 128.709 160.769 128.841 157.957C128.857 157.594 128.844 157.211 128.809 156.819C128.755 156.077 128.681 155.002 128.589 154.753C128.419 154.272 128.156 154.205 128.007 153.897C127.277 152.332 126.069 149.75 125.006 148.282C124.16 147.087 123.175 145.85 122.2 144.902C119.086 141.942 114.773 140.092 110.554 138.973C109.33 138.648 107.799 138.323 106.191 138.11C103.18 137.695 99.7144 137.992 97.4624 138.251C96.7217 138.336 96.8772 138.067 96.2567 138.18C95.5703 138.31 95.2322 138.55 94.9185 138.632C94.3877 138.771 93.7025 138.96 92.9521 139.189C91.3743 139.647 89.1861 142.29 88.1989 143.442C87.9369 143.739 87.6147 143.867 87.4767 144.065C87.4062 144.165 87.3545 144.462 87.1527 144.787C85.7984 146.996 84.7931 148.825 83.833 150.91C83.6089 151.4 83.4624 151.946 83.4154 152.572C83.242 154.832 84.4835 157.53 86.0406 160.023C88.0135 163.29 91.0333 165.613 94.5355 166.599C95.1906 166.798 95.7531 167.021 96.1792 167.207C96.5797 167.39 96.8464 167.516 96.9436 167.527C97.3546 167.563 97.6415 167.355 98.424 167.263C100.188 167.077 102.157 166.231 103.982 164.802C104.608 164.344 104.912 163.732 105.046 162.964C105.234 161.969 104.976 160.319 104.874 158.919C104.86 158.807 104.842 158.699 104.822 158.594C104.828 157.937 103.822 155.982 103.377 155.764C103.148 155.619 102.868 155.709 102.641 155.515ZM82.2566 160.084C82.7277 160.087 81.3863 158.175 81.5566 159.056C81.5914 159.263 82.1285 160.092 82.2566 160.084ZM123.024 182.969C123.13 183.035 123.237 183.101 123.343 183.167C123.497 182.914 123.649 182.66 123.801 182.399C123.637 182.479 123.473 182.556 123.31 182.631C123.215 182.745 123.123 182.854 123.024 182.969Z" fill="#361700"/>
<defs>
<linearGradient id="paint0_linear_4055_490" x1="97" y1="8" x2="97" y2="197" gradientUnits="userSpaceOnUse">
<stop stop-color="#E58237"/>
<stop offset="0.495192" stop-color="#B7550A"/>
<stop offset="1" stop-color="#914207"/>
</linearGradient>
</defs>
</svg>
