<svg width="195" height="200" viewBox="0 0 195 200" fill="none" xmlns="http://www.w3.org/2000/svg">
<path d="M127.418 21.5371C124.151 20.2267 115.888 19.4219 113.102 19.4817C111.461 19.4817 110.687 18.9676 109.419 19.0469C107.234 19.2799 105.22 19.475 102.463 20.0295C98.2107 21.201 91.3223 17.9539 87 20.0295C82.6661 22.1106 78.5422 26.1243 73.5 28.5088C69.4161 30.4401 63.0776 36.3836 59.349 38.1304C55.1868 40.0802 54.1108 40.4504 52.7508 41.6696C48.2938 45.6652 46.0156 49.5413 42.1763 50.8146C36.5404 52.6838 27.7769 53.5852 24.6244 55.1151C21.4272 56.6667 18.8718 59.7544 15.4693 65.463C13.523 68.7284 12.0542 71.5664 10.7989 77.0157C9.80971 81.31 8.26155 88.5522 7.55422 98.146C6.8469 107.74 6.84757 119.338 7.15493 126.18C7.55397 135.062 8.18577 138.09 8.68646 139.943C9.10224 141.481 9.34277 144.944 11.3158 148.913C13.7977 153.907 18.7699 159.815 22.0607 163.081C24.0431 165.049 28.0015 166.818 38.191 171.232C43.9436 173.725 48.8395 175.949 52.8038 176.397C57.8808 176.97 60.6393 178.85 68.1987 179.33C72.8312 179.624 80.9301 179.97 88.5553 180.121C96.1804 180.272 103.121 180.231 108.292 179.943C113.463 179.656 116.763 179.138 120.414 178.336C124.066 177.535 127.935 176.415 130.112 175.946C132.698 175.39 135.735 175.107 141.383 173.369C148.608 171.145 153.158 170.028 154.77 169.634C161.804 167.916 168.145 166.586 170.152 165.043C174.614 161.611 177.36 158.147 178.321 155.834C179.556 152.862 182.219 146.387 184.595 139.271C185.567 136.361 185.235 134.4 186.118 130.915C187.368 125.976 188.53 122.17 188.642 115.697C188.736 110.218 189.125 100.51 188.352 93.9788C187.178 84.0606 186.51 80.0971 186.188 79.109C185.621 77.3668 183.906 74.2508 180.349 69.0125C176.363 63.1406 174.433 58.1712 173.146 56.6633C170.611 53.693 167.858 49.5709 166.534 47.082C165.098 44.3812 161.895 39.7763 152.738 34.0776C145.986 29.875 141.329 27.3795 138.287 26.0716C132.402 23.5417 128.352 21.912 127.418 21.5371Z" fill="url(#paint0_linear_4055_168)" stroke="#C9A16C" stroke-width="5" stroke-linecap="round"/>
<path d="M118.801 18.7951C118.815 18.8034 118.829 18.8116 118.844 18.82C119.883 19.4011 122.308 19.7506 122.792 20.1554C123.283 20.5659 123.799 21.0239 124.394 21.4204C127.838 22.9407 133.63 26.2037 141.53 29.9852C145.156 31.721 150.734 33.6746 156.675 37.2118C160.762 39.6448 164.194 41.8066 167.091 45.8657C173.33 54.6062 170.637 61.3728 175.677 65.8083C181.933 71.3125 186.022 75.3166 187.665 79.3216C189.384 83.5119 190.495 87.1248 190.061 95.6344C189.75 101.735 189.123 112.816 188.132 121.356C187.14 129.896 186.087 135.849 183.97 141.285C179.795 152.004 177.149 159.812 174.132 162.467C171.694 164.614 168.231 167.066 157.703 170.434C149.28 173.128 134.91 177.436 126.762 179.687C118.614 181.939 116.745 182.127 111.891 182.286C107.037 182.445 99.4281 182.571 87.6743 181.584C75.9205 180.597 60.4892 178.559 48.9497 175.572C37.4102 172.585 29.9874 168.764 25.811 166.442C21.6345 164.12 20.6795 163.387 19.8677 162.466C16.5712 158.723 12.2361 153.265 10.1053 145.431C8.35432 138.994 6.56953 130.372 6.12196 120.53C5.89132 115.458 5.93614 110.219 6.71224 102.05C7.48835 93.8813 8.39128 82.9507 9.88596 77.1285C12.4785 67.0296 15.042 60.1863 19.4337 56.844C23.8874 53.4545 33.996 56.593 41.7551 53.3254C43.3116 52.6698 49.7072 46.0787 60.9651 36.8097C66.0056 32.6597 69.9756 29.9286 75.6507 27.0013C81.3258 24.074 88.4 20.3491 95.3894 19.4742C108.733 17.8039 116.569 17.5183 118.801 18.7951Z" fill="url(#paint1_linear_4055_168)"/>
<path d="M126.704 28.0938C126.485 27.9148 126.313 27.5155 126.08 27.278C125.089 26.279 124.775 25.8507 123.84 24.9729C122.493 23.5832 117.717 20.6789 118.237 19.7794C118.237 19.7794 118.237 19.7794 118.237 19.7793C118.243 19.7698 118.249 19.7603 118.255 19.751C118.373 19.5698 118.921 19.6184 119.105 19.4465C119.29 19.2759 120.049 17.8968 120.724 18.2112C121.716 18.6694 123.562 20.4705 124.009 20.8059C124.324 21.0292 124.791 21.2101 125.188 21.4961C126.483 22.4372 127.038 23.0615 128.362 23.7606C128.643 24.3036 128.915 24.851 129.176 25.403C129.772 25.8623 130.354 26.8802 130.661 27.2049C130.919 27.474 131.184 27.531 131.443 27.821C131.736 28.1481 132.033 28.7711 132.541 29.3767C133.369 30.3767 133.838 30.3246 134.338 30.9429C134.855 31.5857 135.354 32.78 136.001 33.6166C136.107 33.7076 136.212 33.7993 136.317 33.8921C136.362 33.7583 136.407 33.6241 136.45 33.4894C136.757 33.9309 136.68 34.2397 136.905 34.6735C137.167 35.1869 137.479 35.3636 137.648 35.7173C137.786 36.0083 137.819 36.4706 137.993 36.8464C138.091 37.0578 138.174 37.1576 138.25 37.2159C138.368 37.3026 138.47 37.2879 138.568 37.4528C138.633 37.5536 139.626 39.6373 139.672 39.768C140.045 40.7007 139.774 40.8981 140.021 41.6652C140.705 43.7902 141.575 46.0233 141.932 48.19C142.095 49.1514 142.14 50.1767 142.091 51.1468C141.549 50.1833 141.119 51.2124 141.186 51.7238C141.226 52.0045 141.435 52.1442 141.903 51.7381C141.905 51.736 141.908 51.7339 141.91 51.7318C141.909 51.734 141.909 51.7361 141.909 51.7382C141.708 52.7339 142.04 53.4275 141.96 54.3619C141.908 54.955 141.719 55.3895 141.701 56.2441C141.671 57.768 142.121 59.4972 141.185 59.8894C141.281 61.7074 140.862 63.2463 141.63 63.9641C141.653 64.4261 141.084 65.6174 140.972 66.132C140.899 66.6225 140.219 70.4583 140.031 71.0851C139.901 71.7225 139.618 72.8291 139.515 73.3885C139.392 74.0629 140.021 74.9169 138.552 75.6958C137.916 77.0746 137.535 77.5475 136.489 78.504C136.488 78.5041 136.488 78.5042 136.488 78.5043C136.312 78.6556 136.189 78.572 136.093 78.6688C135.897 78.8674 135.636 79.2812 135.281 79.6394C134.696 80.2287 134.133 80.3122 134.517 80.6001C134.161 81.0271 133.791 81.4495 133.412 81.8626C133.202 81.9172 132.995 81.9678 132.786 82.0173C132.613 82.28 132.441 82.537 132.26 82.7961C132.14 82.0516 130.684 83.5858 131.458 83.5137C130.486 84.0209 129.496 84.474 128.491 84.8759C128.255 84.1457 126.39 85.8817 126.738 86.1606C126.627 86.2134 126.516 86.2652 126.404 86.317C125.343 86.5861 124.502 87.1259 123.228 87.4497C121.959 87.7609 122.05 87.6365 121.566 87.425C121.281 87.5395 121.008 87.6472 120.722 87.756C119.701 88.8936 119.374 87.9555 117.968 88.3428C117.667 88.4236 117.303 88.5694 116.873 88.8088C115.903 88.4123 113.936 89.1899 112.61 89.6559C112.456 89.7104 112.479 89.827 112.274 89.907C111.775 90.1027 110.424 90.2167 110.542 90.5829C110.062 90.5644 109.584 90.5435 109.103 90.5206C108.742 90.6592 108.379 90.7967 108.014 90.9328C108.037 91.0502 108.06 91.1676 108.083 91.285C107.253 91.021 106.088 91.3763 105.481 91.3733C105.361 91.3724 105.31 91.2139 104.938 91.2263C104.504 91.2403 103.717 91.4071 103.2 91.4269C103.028 91.6357 102.854 91.8441 102.679 92.0521C101.775 92.2728 101.392 91.8317 100.851 91.8579C100.799 91.8605 100.274 91.9298 99.7801 91.991C99.3477 92.0451 98.9409 92.0951 98.8965 92.1042C98.1264 92.2573 98.3872 92.6605 96.115 92.7521C95.7089 92.7666 95.373 92.6475 95.0084 92.6656C94.3666 92.703 92.4322 93.1179 92.2845 93.4167C91.4844 93.0806 89.3671 93.2607 88.7402 93.1365C88.5502 93.1005 88.5125 92.8644 87.9334 92.7998C87.4659 92.7498 86.2446 92.8861 85.6422 92.8054C85.005 92.7223 84.797 92.4988 84.5117 92.4556C84.2458 92.4144 83.9774 92.5465 83.6053 92.4965C83.2338 92.4453 82.8703 92.3612 82.5289 92.2634C81.8411 92.0635 81.214 91.8277 80.6268 91.7128C79.3679 91.4657 78.1623 91.7004 77.0363 91.6487C76.7813 91.5557 76.5423 91.391 76.2638 91.3181C74.061 90.6763 71.494 90.0862 69.2768 87.8776C68.347 86.8719 67.4554 85.6959 66.8994 84.3475C66.4498 83.3915 66.2748 81.4411 66.4398 80.204C66.521 79.2955 66.4415 78.7155 65.9061 79.1575C65.7486 78.5879 66.6202 74.5517 66.7787 73.7727C66.9045 72.9945 66.8231 72.3435 66.9425 71.7225C67.3227 69.856 67.7544 68.5745 68.4905 66.2816C68.6854 65.6904 68.7715 64.978 68.9487 64.6412C69.1614 64.2351 69.5911 63.9127 69.9114 63.4212C70.2911 62.8336 70.8565 61.9994 71.5039 61.233C72.0692 60.5566 72.6518 59.8578 73.0798 59.4033C73.2357 59.2383 73.4353 59.3064 73.6983 59.1057C74.7179 58.3165 75.7594 57.305 75.1473 57.0301C76.6174 56.1219 77.6892 54.891 79.1246 54.0542C80.9777 52.9145 84.2051 51.9209 87.0225 51.7633C88.5819 51.6436 90.0232 51.5265 91.0426 51.3829C92.749 51.1495 92.6986 50.8599 95.242 51.055C95.8065 51.1009 96.3689 51.1686 97.0527 51.2339C98.6618 51.3876 100.107 51.9451 101.364 51.3865C103.144 51.6382 104.596 51.6549 105.861 52.3446C106.032 52.2372 106.205 52.1308 106.38 52.0253C106.602 52.0515 106.82 52.0787 107.044 52.1082C107.095 52.2386 107.146 52.369 107.196 52.4996C108.328 52.6924 109.741 52.7006 110.958 52.8687C111.398 52.9262 111.811 52.997 112.168 53.0961C113.546 53.5732 117.203 54.243 119.261 57.3407C119.995 58.4847 120.405 59.7645 120.485 60.6341C120.584 62.0606 120.721 62.2514 120.127 62.9259C120.114 62.9371 120.1 62.9485 120.086 62.9602C120.071 63.2181 120.053 63.4777 120.032 63.7373C120.11 63.9205 120.186 64.1063 120.26 64.2931C119.908 65.7551 119.16 67.4093 118.484 68.7386C117.747 70.1905 116.566 72.3357 114.258 73.4756C113.085 74.0489 111.959 74.4302 110.973 74.6502C110.338 74.791 109.501 74.7698 108.893 74.9196C108.007 75.133 107.875 75.5782 106.718 75.7967C104.724 76.2118 100.895 75.971 98.9576 75.6912C98.3782 75.6269 98.0824 75.7251 97.6757 75.6624C96.4151 75.4599 95.3264 75.1191 94.1869 74.6682C93.6758 74.4552 93.1803 74.162 92.7261 73.8151C91.4901 71.8913 92.3021 71.7972 92.4217 71.0873C92.5474 70.5438 92.9389 69.1762 93.2079 68.9244C93.3893 68.7454 93.8076 69.0116 93.9952 68.7827C94.8218 70.292 94.8765 70.821 95.4264 71.6616C95.4866 71.698 95.548 71.7312 95.6112 71.7616C97.7583 72.7936 100.391 73.0208 102.976 72.8547C103.231 72.9794 103.489 73.1001 103.753 73.2168C103.753 73.2171 103.753 73.2174 103.753 73.2177C104.831 73.2783 105.235 72.8468 105.783 72.6783C107.659 72.0842 110.287 71.3746 112.756 70.2502C115.009 69.2368 116.561 65.4177 117.255 62.347C117.532 61.2773 117.156 60.1656 116.554 59.2452C116.545 59.2311 116.535 59.2165 116.525 59.2015C116.266 58.7676 115.482 58.0797 114.368 57.6084C113.28 57.125 112.064 56.7801 111.671 56.5485C111.465 56.4287 111.459 56.2034 111.219 56.1283C110.875 56.0554 110.528 55.9853 110.178 55.9165C108.361 55.5643 106.494 55.382 104.619 55.2917C100.087 54.4832 95.2394 54.8045 90.5666 55.0797C89.4635 55.1454 88.3612 55.2227 87.2602 55.309C81.7849 55.5779 77.7504 59.0639 74.2365 63.5722C70.8205 67.5955 70.1202 73.4298 69.5577 79.1131C69.5172 79.5391 69.482 79.9884 69.4499 80.4542C69.2983 82.1513 70.1776 83.7244 71.304 85.0734C71.4475 85.2514 71.5598 85.4172 71.6644 85.5781C71.8641 85.9246 72.0706 86.2941 72.8661 86.5253C72.8309 86.6123 72.7961 86.6996 72.7617 86.787C73.6931 87.1547 74.3893 87.1943 75.5288 87.5399C76.4775 87.8486 79.1747 88.4631 80.0873 88.6691C80.5564 88.7813 80.3477 88.9174 80.7918 89.0031C81.2971 89.0996 82.1947 89.1593 83.0562 89.2362C83.4728 89.2714 83.883 89.3016 84.2309 89.3451C85.1439 89.4683 86.7254 89.7733 87.4617 89.7654C90.1096 89.76 93.004 89.3544 95.8568 89.2193C96.6446 89.1837 97.679 89.3179 97.9252 89.2882C98.4081 89.23 98.5286 88.9975 98.8506 88.9372C99.0385 88.9019 99.2397 88.8703 99.4514 88.8414C101.048 88.6276 103.227 88.5356 104.644 88.3191C108.812 87.6913 113.152 86.7369 117.325 85.715C118.351 85.4633 119.357 85.1858 120.338 84.8831C123.474 84.0122 128.201 81.6072 130.57 79.8493C131.093 79.4869 131.107 79.7813 131.527 79.4393C131.988 79.0584 132.124 78.72 132.323 78.527C132.842 78.0212 133.579 77.2663 134.352 76.4224C135.482 75.2365 136.164 73.5222 136.567 72.5067C136.694 72.1967 136.935 72.0215 136.987 71.819C137.012 71.7182 136.943 71.4711 137.001 71.1475C137.475 68.3256 137.695 66.1463 137.926 63.2045C138.181 59.637 138.195 55.6274 138.245 51.6652C138.275 49.5334 137.979 47.4435 137.481 45.4285C137.186 44.2304 137.242 43.2903 137.183 43.1211C137.046 42.7522 136.729 42.5991 136.39 41.8762C135.933 40.9025 135.459 39.7622 134.981 38.5828C134.318 36.9309 133.495 35.283 132.645 34.0749C131.947 33.0654 130.714 31.8875 129.91 31.0042C129.288 30.2843 127.865 28.5144 127.461 28.3142C127.22 28.1846 126.942 28.2876 126.704 28.0938ZM141.467 57.1619C141.04 56.9613 141.342 58.8741 141.596 58.1704C141.653 58.0151 141.578 57.204 141.467 57.1619ZM71.95 88.9934C71.9106 89.1121 71.8718 89.2312 71.8335 89.3504C72.1013 89.4278 72.3701 89.4959 72.6361 89.5551C72.5294 89.4278 72.4202 89.297 72.319 89.1671C72.1933 89.1102 72.0744 89.0544 71.95 88.9934ZM142.653 33.2325C142.037 32.9961 141.244 32.4842 140.512 32.1115C140.482 32.0965 140.453 32.0819 140.424 32.0676C137.41 30.574 136.346 29.9124 133.672 28.4846C131.532 27.3651 127.058 24.9744 123.587 23.2485L123.286 23.0831C122.557 22.5678 122.005 22.0331 121.565 21.6218C121.745 21.7597 121.769 21.7478 121.78 21.7521C121.786 21.75 121.761 21.7338 121.728 21.7166C121.658 21.6807 121.553 21.6363 121.443 21.5929C121.221 21.5058 120.974 21.4176 120.736 21.3302C120.257 21.1552 119.805 20.9788 119.422 20.7933C118.661 20.4392 118.116 19.9549 118.226 19.7726C118.226 19.7726 118.226 19.7726 118.226 19.7726C118.231 19.7631 118.239 19.7544 118.248 19.7465C118.472 19.6759 119.716 19.8833 119.935 19.6766C120.185 19.4946 120.436 17.9489 122.036 18.2824C122.218 18.3236 122.42 18.3743 122.661 18.4496C122.784 18.4885 122.912 18.5313 123.072 18.597C123.239 18.6741 123.398 18.7121 123.761 18.9975C124.255 19.4165 124.725 19.8537 125.205 20.2038L124.985 20.0828C127.219 21.1762 129.477 22.5684 130.211 22.9237C130.975 23.3029 131.962 23.653 132.938 24.1274C136.076 25.6488 137.659 26.5682 140.64 27.5945C141.146 27.9521 141.651 28.3066 142.163 28.6621C142.675 29.0228 143.21 29.3775 143.752 29.7292C145.277 30.293 147.478 31.5129 148.402 31.9101C149.162 32.2323 149.67 32.2836 150.458 32.639C151.343 33.0392 152.612 33.8313 154.187 34.6314C155.756 35.4328 156.6 35.741 157.374 36.038C157.864 36.2266 158.325 36.4112 158.918 36.748C160.488 37.635 162.774 39.3751 164.658 40.8817C164.914 41.048 165.169 41.2197 165.421 41.397C165.335 41.1704 165.247 40.9445 165.154 40.7185C166.097 41.5231 166.317 42.06 167.063 42.9091C167.77 43.7316 168.267 44.1757 168.712 44.7091C168.812 44.831 168.909 44.9569 169.002 45.0924C169.411 45.6831 169.817 46.621 170.281 47.4336C170.952 48.6379 171.014 48.2785 171.381 48.9273C171.654 49.1478 173.571 54.3305 173.536 54.6302C174.089 56.8497 173.773 57.1052 174.135 58.7604C174.64 61.1422 175.468 63.0519 177.025 64.277C178.817 65.766 180.575 67.2279 182.204 68.7247C183.712 70.1122 185.227 71.678 186.539 73.3705C183.829 71.3266 187.836 77.4553 187.203 74.5103C188.108 75.9596 188.949 77.0892 189.62 78.5196C189.86 79.0287 190.094 79.5666 190.303 80.1737C190.759 81.5368 190.938 82.555 191.39 84.5944C192.189 88.2213 192.604 92.2016 191.674 93.1885C191.694 94.0613 191.674 94.9058 191.639 95.7149C191.509 98.6741 191.294 101.111 191.864 102.298C191.853 103.348 191.2 105.999 191.052 107.164C190.936 108.27 190.041 116.759 189.859 118.147C189.763 119.042 189.616 120.368 189.496 121.514C189.43 122.152 189.376 122.73 189.35 123.148C189.254 124.626 189.969 125.777 188.602 128.254C188.199 131.308 187.977 132.397 187.215 135.188C187.071 135.694 186.915 135.714 186.839 136.011C186.684 136.62 186.511 137.684 186.184 138.769C185.645 140.552 184.953 141.427 185.471 141.401C185.428 141.54 185.385 141.679 185.341 141.818C185.023 142.826 184.709 143.831 184.397 144.835C184.16 145.199 183.929 145.549 183.692 145.912C183.556 146.543 183.419 147.175 183.282 147.807C182.919 146.864 181.671 151.205 182.561 149.985C181.586 152.102 180.602 154.218 179.515 156.322C179.008 155.719 177.149 160.96 177.631 160.774C177.483 161.017 177.328 161.263 177.164 161.508C176.581 162.244 175.996 162.98 175.198 163.678C174.046 164.68 172.732 165.718 171.054 166.596C168.401 167.926 168.595 167.65 167.651 167.724C167.042 168.029 166.432 168.32 165.817 168.6C162.983 170.746 162.881 169.199 158.007 171.386C157.82 171.469 157.622 171.558 157.412 171.654C155.401 171.656 151.004 173.36 148.068 174.446C147.726 174.573 147.754 174.688 147.303 174.864C146.196 175.293 143.259 176.018 143.468 176.355C142.434 176.549 141.4 176.743 140.367 176.934C139.566 177.245 138.767 177.554 137.967 177.863C138.005 177.976 138.042 178.09 138.08 178.203C136.314 178.3 133.759 179.208 132.45 179.483C132.195 179.535 132.082 179.397 131.284 179.578C130.341 179.793 128.622 180.332 127.497 180.59C127.362 180.694 127.228 180.798 127.097 180.901C126.84 181.095 126.599 181.284 126.349 181.475C124.384 182.112 123.548 181.828 122.358 182.085C122.157 182.157 118.209 183.039 117.969 183.039C116.256 183.34 116.648 183.811 111.945 183.928C111.819 183.93 111.687 183.932 111.55 183.934C110.644 183.947 109.909 183.823 109.089 183.834C107.644 183.868 103.271 184.176 102.924 184.457C101.171 184.074 96.4625 184.05 95.0911 183.856C94.6718 183.8 94.595 183.56 93.3186 183.432C92.2852 183.331 89.6004 183.333 88.2918 183.191C88.0114 183.161 87.7658 183.127 87.5478 183.091C86.7048 182.95 86.2934 182.783 85.7999 182.728C85.2077 182.661 84.6557 182.772 83.8523 182.694C81.3478 182.446 79.115 181.94 77.1425 181.702C74.2931 181.358 71.7148 181.497 69.2979 181.364C68.7105 181.249 68.1439 181.062 67.5242 180.968C61.4548 180.04 54.7887 178.789 48.5531 177.104C46.9129 176.659 45.3065 176.184 43.7536 175.685C40.2347 174.689 32.1186 170.634 33.9374 172.54C32.9647 172.327 27.8228 169.72 24.9781 167.94C24.1231 167.426 23.4501 167.014 23.1015 166.81C21.5875 165.903 20.2637 165.411 18.9759 164.204C18.7981 164.032 18.632 163.854 18.4833 163.685C15.9548 160.761 14.1383 158.406 11.5914 154.145C10.9099 152.987 10.0895 151.761 9.77701 151.016C9.39819 150.12 9.22422 149.068 8.84478 147.878C8.6646 147.313 8.46507 146.658 8.26714 145.931C7.4847 143.105 6.58571 139.314 6.20403 137.132C6.11568 136.635 6.27295 136.423 6.20345 135.707C5.92472 132.909 5.50041 129.809 4.95679 130.439C4.83163 126.977 4.27145 123.826 4.08199 120.623C4.07357 120.48 4.06586 120.336 4.05893 120.192C3.76943 115.426 4.08107 107.978 4.66497 101.856C4.92031 98.9478 5.12119 96.2911 5.22871 94.3239C5.45219 90.4966 5.1208 90.5675 6.06402 84.9526C6.28339 83.7026 6.52856 82.4687 6.84663 80.9449C7.15943 79.4608 7.56509 78.0207 8.00042 76.6444C8.58541 74.8167 9.07346 73.1174 9.18078 71.4776C10.4701 67.6914 11.4915 64.5453 13.3763 62.036C13.4296 61.6548 13.4894 61.2747 13.5628 60.8858C13.8144 60.4343 14.0836 59.9818 14.37 59.537C14.5606 59.4672 14.7544 59.396 14.9466 59.3304C15.8401 58.0473 16.9406 56.618 18.353 55.4239C20.7092 53.5449 23.2954 53.2603 25.0668 53.09C28.8312 52.7363 36.3618 53.5699 41.0327 51.6101C40.9501 51.6609 41.1958 51.5259 41.3526 51.4121C41.5352 51.2853 41.7214 51.1455 41.9098 50.9997C42.2847 50.7093 42.6538 50.4073 43.0029 50.1187C43.6964 49.5446 44.3145 49.0204 44.8089 48.6073C46.6963 47.0244 46.6237 46.7358 48.0338 46.1872C48.4147 45.7946 48.8058 45.3936 49.1935 44.997C49.3805 44.6726 49.5497 44.3645 49.7362 44.0415C52.1068 41.9212 55.0786 39.5846 57.3996 37.6342C58.177 36.9797 59.0069 36.2733 59.9001 35.5162C63.8296 32.1008 69.1527 28.2033 73.3288 26.2342C73.8087 25.9985 74.3454 25.7686 74.8974 25.5409C75.7856 25.1763 76.7092 24.8033 77.4641 24.4168C79.2357 23.5172 79.4828 22.9294 81.795 21.8393C84.9483 20.3388 90.6756 18.383 95.2036 17.9898C96.314 17.8774 97.3025 17.7724 98.1419 17.6671C99.344 17.517 99.8962 17.3061 100.733 17.1997C104.233 16.7609 107.123 16.5044 110.548 16.1281C114.263 16.4014 113.961 16.9725 115.069 17.5051C115.939 17.865 118.436 19.2135 118.263 19.6854C118.274 19.9452 117.665 19.9969 117.758 20.3168C114.599 19.7334 112.296 19.8203 108.944 19.5835C104.5 19.8628 100.036 20.3747 95.5728 20.9392C93.7221 21.1755 91.8773 21.6204 90.0595 22.1945C89.4743 22.2316 88.8854 22.2823 88.2945 22.3446C88.2944 22.3443 88.2943 22.3441 88.2942 22.3438C85.9415 23.0272 85.1273 23.8 83.9557 24.4054C81.7929 25.5359 79.2558 26.9339 76.4117 28.4766C71.7488 30.9404 66.7877 34.2262 62.0534 38.1315C54.7386 43.896 48.6592 49.993 42.3124 54.6487C42.0898 54.7407 41.8685 54.8268 41.649 54.9075C38.4977 56.5651 28.2049 56.5987 26.2894 56.4833C25.7637 56.4495 25.6015 56.2422 25.0495 56.2758C23.1991 56.4749 21.3567 56.8665 20.1821 57.8273C17.9416 59.6359 16.4419 62.3541 15.2706 65.1911C13.4647 68.9772 12.2493 73.1997 11.1582 77.4551C9.75801 83.4406 9.34113 89.8899 8.74281 96.1261C8.55999 98.1468 8.38528 100.168 8.20321 102.192C7.64618 108.315 7.37687 114.39 7.70894 120.458C8.12825 128.765 9.53981 137.001 11.7377 144.987C13.3907 151.102 16.8588 156.527 21.168 161.32C22.3035 162.602 24.644 163.769 26.6541 164.926C29.2435 166.371 31.8876 167.691 34.5995 168.871C38.9547 170.794 44.5987 172.563 49.4005 173.83C50.0268 173.998 50.6484 174.162 51.2447 174.318C53.3913 174.873 54.2173 175.417 57.1351 175.747C57.147 175.845 57.159 175.942 57.1709 176.04C59.6964 176.425 61.3428 176.51 64.1689 176.961C66.5476 177.358 72.8742 178.25 74.9899 178.535C76.0875 178.69 75.6544 178.812 76.6816 178.936C78.4356 179.149 82.2212 179.325 84.6453 179.549C85.5346 179.634 86.6716 179.77 87.8155 179.904C89.5061 180.101 91.2252 180.289 92.2327 180.339C98.3414 180.647 104.97 180.536 111.456 180.393C111.58 180.391 111.704 180.39 111.829 180.389C113.57 180.389 115.537 180.448 116.034 180.375C117.078 180.244 117.349 179.973 118.039 179.828C120.254 179.358 123.366 178.61 126.262 177.879C127.921 177.461 129.523 177.044 130.82 176.676C139.451 174.215 148.44 171.47 157.146 168.694C160.103 167.743 162.98 166.73 165.693 165.542C167.988 164.529 170.639 163.185 172.941 161.114C176.467 157.257 178.661 149.751 180.489 145.684C181.063 144.286 181.143 144.749 181.599 143.561C182.106 142.244 182.229 141.479 182.457 140.856C182.474 140.81 182.491 140.763 182.509 140.715C184.252 136.61 185.692 127.009 186.291 122.809C186.401 122.133 186.6 121.626 186.693 121.189C186.71 121.11 186.723 121.033 186.732 120.958C186.76 120.714 186.695 120.148 186.764 119.377C187.348 112.572 187.753 107.586 188.199 100.88C188.311 99.14 188.413 97.3577 188.506 95.555C188.801 90.2452 188.485 84.9438 186.173 79.9335C183.933 74.9842 178.883 70.9598 174.613 67.0183C174.257 66.701 173.926 66.3652 173.619 66.01C171.346 63.2309 171.491 60.8295 171.307 60.4699C171.056 59.559 170.679 59.0084 170.224 57.2344C169.392 53.786 168.125 49.9785 165.813 46.7783C164.249 44.5236 162.277 42.733 160.363 41.4391C159.093 40.5669 157.417 39.6697 155.733 38.7946C154.441 38.122 153.152 37.5132 152.055 36.9863C150.096 35.997 145.313 33.7861 144.314 33.5231C143.717 33.3593 143.351 33.4981 142.653 33.2325ZM191.556 86.8065C191.127 86.4424 191.834 90.8208 191.943 89.1488C191.985 88.7711 191.695 86.9022 191.556 86.8065ZM57.4288 178.466C57.4434 178.595 57.4581 178.724 57.4728 178.852C58.0362 178.91 58.5921 178.964 59.155 179.016C58.858 178.885 58.5623 178.754 58.268 178.622C57.9903 178.571 57.7078 178.518 57.4288 178.466Z" fill="#C9A16C"/>
<path d="M170.743 74.5243C170.781 74.3125 171.027 74.0712 171.109 73.8316C171.454 72.8283 171.667 72.477 171.979 71.5543C172.45 70.205 173.206 65.8653 174.309 66.0925C174.309 66.0925 174.309 66.0925 174.309 66.0925C174.32 66.0948 174.33 66.0975 174.341 66.1008C174.546 66.1618 174.69 66.5777 174.914 66.6811C175.139 66.7842 176.673 67.0747 176.64 67.6093C176.582 68.3865 175.771 70.1183 175.688 70.5263C175.633 70.8067 175.688 71.1785 175.623 71.54C175.412 72.7058 175.15 73.2767 175.215 74.4152C174.897 74.7751 174.575 75.128 174.25 75.4757C174.169 76.037 173.64 76.7533 173.539 77.0753C173.457 77.34 173.554 77.5453 173.46 77.8205C173.356 78.1275 173.018 78.5362 172.827 79.091C172.61 79.7198 172.695 80.0594 172.71 80.3989L172.687 80.4535C172.688 80.6044 172.677 80.7528 172.617 80.9217C172.418 81.4836 171.818 82.231 171.629 82.9762C171.629 83.0822 171.63 83.188 171.631 83.2938C171.754 83.2755 171.878 83.257 172.002 83.2384C171.881 83.607 171.617 83.6661 171.463 83.9804C171.281 84.3513 171.37 84.6312 171.249 84.8813C171.149 85.0868 170.869 85.294 170.747 85.5676C170.57 85.9632 170.822 85.9784 170.76 86.2059C170.737 86.2937 170.09 87.893 170.045 87.9831C169.721 88.6479 169.406 88.5617 169.113 89.0756C168.303 90.4956 167.748 92.0979 167.099 93.4767C166.808 94.0951 166.444 94.7057 166.062 95.2673C165.878 93.9457 164.151 95.6673 165.704 95.5393C165.168 96.1003 165.193 96.7354 164.768 97.3231C164.493 97.7006 164.172 97.8857 163.823 98.4473C163.206 99.4463 162.882 100.819 161.936 100.578C161.272 101.819 160.264 102.575 160.571 103.474C160.373 103.804 159.398 104.217 159.067 104.482C158.862 104.655 157.699 105.736 156.787 106.385L156.652 106.485C156.272 106.698 155.955 106.877 155.838 106.948C155.441 107.192 154.744 107.622 154.448 107.892C154.078 108.229 154.218 109.129 152.96 108.759C152.129 109.364 151.802 109.529 150.928 109.92C150.769 109.991 150.679 109.875 150.593 109.926C150.416 110.031 150.165 110.305 149.852 110.503C149.338 110.829 148.885 110.737 149.174 111.109C148.866 111.377 148.552 111.647 148.241 111.913C148.074 111.903 147.908 111.894 147.741 111.884C147.6 112.076 147.461 112.266 147.319 112.457C147.219 111.743 146.084 112.823 146.696 112.928C145.944 113.181 145.192 113.426 144.438 113.664C144.186 112.933 142.881 114.371 143.198 114.675C143.118 114.715 143.038 114.755 142.958 114.795C142.169 114.964 141.597 115.434 140.677 115.723C139.758 116.009 139.807 115.9 139.4 115.7C139.205 115.813 139.011 115.925 138.815 116.037C138.128 117.408 137.663 115.793 136.1 117.263C135.281 116.949 133.94 117.833 133.013 118.371C132.905 118.434 132.943 118.546 132.802 118.637C132.456 118.859 131.446 119.052 131.597 119.402C131.226 119.413 130.859 119.42 130.489 119.425C130.299 119.542 130.108 119.658 129.917 119.773C129.853 119.812 129.788 119.85 129.724 119.889C129.759 120.003 129.794 120.117 129.829 120.23C129.152 120.018 128.311 120.423 127.845 120.446C127.752 120.451 127.695 120.296 127.414 120.324C127.082 120.356 126.505 120.55 126.114 120.588C126.004 120.801 125.896 121.013 125.784 121.225C125.115 121.475 124.783 121.05 124.376 121.093C124.301 121.105 122.991 121.381 122.917 121.399C122.348 121.573 122.571 121.97 120.853 122.118C120.551 122.141 120.283 122.031 120.013 122.057C119.526 122.109 118.099 122.571 117.996 122.875C117.381 122.558 115.813 122.813 115.345 122.724C115.204 122.697 115.164 122.462 114.733 122.43C114.388 122.404 113.495 122.623 113.051 122.599C112.587 122.574 112.417 122.375 112.208 122.364C112.012 122.353 111.83 122.516 111.559 122.516C110.719 122.513 109.966 122.245 109.305 122.227C108.346 122.201 107.485 122.649 106.664 122.825C106.629 122.818 106.594 122.809 106.559 122.798C106.398 122.749 106.239 122.672 106.067 122.662C103.478 122.522 100.567 122.153 98.0203 121.682C96.8284 121.479 94.0198 120.322 94.5958 121.524C94.1414 121.647 91.249 120.628 90.6935 120.488C90.1338 120.359 89.6418 120.447 89.1994 120.348C88.4947 120.189 87.9177 120.012 87.2809 119.843C86.7171 119.692 86.104 119.549 85.3274 119.433C84.9024 119.37 84.3983 119.477 84.1549 119.411C83.8616 119.33 83.6035 119.031 83.2269 118.917C82.327 118.646 80.6166 118.252 79.7595 117.967C79.6031 117.915 79.6036 117.711 79.3948 117.588C78.5823 117.107 77.5928 116.835 77.5812 117.484C76.5575 116.811 75.4188 116.801 74.3685 116.488C72.1455 115.841 68.2099 114.299 66.2182 113.742C65.3728 113.514 65.0518 113.553 64.4326 113.303C64.1347 113.181 63.783 113 63.2562 112.676C62.9029 112.458 62.5582 112.223 62.1306 111.958C61.1247 111.336 60.3731 110.414 59.2912 110.595C58.1794 109.89 57.1862 109.533 56.5605 108.619C56.3991 108.681 56.238 108.744 56.0773 108.806C55.9347 108.737 55.7844 108.664 55.64 108.594C55.652 108.462 55.6643 108.331 55.6769 108.199C54.6731 107.647 53.1254 107.377 52.2676 106.87C50.8053 106.082 47.2798 103.394 46.2596 102.033C46.0707 101.808 45.9218 101.669 45.8098 101.562C45.598 101.36 45.509 101.261 45.5536 100.784C45.4001 100.675 45.2453 100.563 45.091 100.45C44.9263 100.446 44.761 100.44 44.595 100.432C43.868 99.6386 43.1881 98.5573 42.5485 97.7762C41.3753 96.3595 39.4535 94.3514 38.5623 92.7257C38.3357 92.3161 38.2039 91.7065 37.9451 91.3398C37.568 90.8038 37.1472 90.9066 36.6711 90.2212C35.849 89.0433 34.7818 86.5509 34.0349 85.4291C33.8127 85.0973 33.5862 85.0191 33.4248 84.792C32.7504 83.8448 32.2625 83.0274 31.4875 82.1956C31.1973 80.9656 31.6815 80.7975 31.9216 80.2172C32.1015 79.7769 32.4236 78.5896 32.6474 78.3123C32.8048 78.1184 33.2239 78.2367 33.3841 78.0011C34.2767 79.108 34.389 79.7338 34.6755 80.904C35.7873 82.7028 36.9285 84.489 38.0979 86.2439C38.0871 86.4837 38.0763 86.7231 38.0656 86.9619C38.0654 86.9621 38.0651 86.9622 38.0649 86.9624C38.3797 87.7316 38.871 87.8111 39.1847 88.1284C41.6636 90.6448 45.0717 95.9166 48.1374 99.3015C48.716 99.9511 49.3152 100.518 49.8749 100.989C50.5657 101.633 53.2873 103.194 53.7622 103.705C53.8801 103.844 53.8145 104.057 53.9681 104.158C55.4683 104.879 57.0065 105.536 58.5608 106.163C60.8796 107.608 63.4853 108.666 66.0675 109.72C66.7385 109.993 67.4153 110.255 68.0909 110.515C74.6117 112.986 81.4217 114.751 88.1824 116.414C90.4614 116.968 92.7387 117.466 95.0265 117.896C96.7745 118.228 99.028 118.403 100.74 118.703C101.454 118.828 101.714 119.206 102.695 119.039C102.695 119.133 102.695 119.227 102.695 119.321C103.539 119.284 104.09 119.116 105.023 119.156C105.405 119.172 106.092 119.205 106.778 119.234C107.511 119.266 108.235 119.294 108.59 119.322C108.95 119.35 108.81 119.521 109.148 119.528C109.723 119.539 110.968 119.313 111.76 119.306C112.476 119.305 113.693 119.478 114.246 119.427C116.238 119.253 118.371 118.797 120.456 118.602C121.035 118.55 121.801 118.66 121.981 118.624C122.333 118.554 122.4 118.321 122.633 118.252C123.797 117.914 125.682 117.771 126.831 117.47C127.565 117.283 128.301 117.071 129.037 116.837C132.073 115.871 135.121 114.578 137.997 113.287C140.266 112.288 143.922 110.352 146.005 109.358C146.455 109.147 146.456 109.42 146.82 109.214C147.221 108.987 147.363 108.719 147.544 108.6C148.804 107.781 151.548 105.927 152.827 105.302C153.07 105.186 153.338 105.237 153.473 105.15C153.543 105.105 153.627 104.9 153.839 104.748C154.247 104.456 154.636 104.184 155.007 103.929L154.853 104.043C155.923 103.095 156.847 102.145 157.911 100.857C160.532 97.6497 162.794 93.2473 164.987 89.3617C165.466 88.5127 166.102 88.0785 166.16 87.958C166.29 87.6882 166.157 87.4026 166.377 86.8315C167.111 84.9369 168.54 82.5861 169.245 80.7805C169.432 80.3038 169.588 79.7233 169.748 79.134L169.718 79.2041C169.835 78.6838 169.943 78.1757 170.069 77.7615C170.29 77.0593 170.984 75.4836 170.949 75.1334C170.932 74.9205 170.703 74.7565 170.743 74.5243ZM163.265 98.9351C162.983 98.5868 162.483 99.9944 162.976 99.6663C163.088 99.5923 163.342 99.0233 163.265 98.9351ZM102.684 121.665C102.684 121.79 102.684 121.914 102.684 122.038C102.874 122.004 103.067 121.968 103.257 121.932C103.16 121.849 103.063 121.767 102.966 121.683C102.872 121.677 102.778 121.671 102.684 121.665Z" fill="#C9A16C"/>
<path d="M175.814 112.809C175.892 112.464 176.198 112.037 176.337 111.632C176.603 110.86 176.824 110.3 177.067 109.753C177.349 109.178 177.455 108.74 178.244 107.693C178.454 107.438 178.712 107.201 179.004 107.007C180.031 106.319 181.431 106.164 182.747 106.662C184.372 107.37 184.913 108.332 185.512 108.962C186.909 110.598 188.714 112.23 188.271 112.743C188.271 112.743 188.271 112.743 188.271 112.743C188.264 112.751 188.256 112.76 188.248 112.767C188.09 112.916 187.489 112.719 187.265 112.847C187.043 112.976 186.083 114.221 185.371 113.727C184.751 113.288 183.717 112.212 183.004 111.258C182.561 110.67 182.249 110.262 182.096 110.14C181.906 109.976 181.641 109.89 181.526 109.907C181.463 109.904 181.396 109.904 181.334 109.901C181.033 109.89 180.999 109.997 181.071 109.938C180.887 110.211 180.61 111.057 180.54 112.038C180.143 112.584 179.751 113.147 179.355 113.72C179.186 114.57 178.52 115.75 178.365 116.254C178.239 116.668 178.308 116.964 178.166 117.395C178.006 117.882 177.581 118.561 177.278 119.437C177.035 120.135 176.974 120.584 176.941 120.97C176.91 121.371 176.918 121.689 176.771 122.131C176.477 123.017 175.728 124.285 175.417 125.452C175.404 125.609 175.391 125.766 175.377 125.922C175.515 125.862 175.652 125.801 175.79 125.74C175.609 126.316 175.311 126.481 175.096 126.995C174.841 127.599 174.897 127.991 174.724 128.397C174.579 128.737 174.236 129.122 174.052 129.563C173.784 130.2 174.057 130.164 173.943 130.522C173.918 130.665 172.78 133.262 172.667 133.411C172.045 134.519 171.714 134.442 171.08 135.289C170.52 135.993 169.932 136.745 168.912 137.421C167.963 138.144 165.987 138.398 164.785 137.739C163.351 136.926 163.194 136.159 162.855 135.629C162.57 135.076 162.374 134.61 162.185 134.172C161.775 133.202 161.438 132.303 161.062 131.521C162.494 132.394 161.429 129.271 160.949 130.983C160.682 130.301 160.203 129.982 159.757 129.646C159.595 129.522 159.475 129.434 159.385 129.353C159.162 129.168 159.114 128.909 158.396 128.848C158.361 128.846 158.326 128.845 158.289 128.844C156.546 128.793 154.861 129.316 154.331 128.476C152.398 128.768 150.771 129.049 150.673 130.048C150.514 130.161 150.179 130.237 149.836 130.356C149.37 130.568 148.887 130.778 148.629 130.946C148.108 131.232 144.759 133.946 144.348 134.501C143.867 134.999 143.097 135.93 142.824 136.443C142.552 136.939 142.745 137.562 142.185 138.079C142.004 138.256 141.75 138.425 141.39 138.581C140.634 139.995 140.314 140.472 139.446 141.688C139.288 141.91 139.147 141.86 139.066 141.995C138.9 142.27 138.702 142.804 138.413 143.304C137.936 144.131 137.389 144.436 137.845 144.589C137.583 145.17 137.324 145.742 137.055 146.326C136.861 146.467 136.668 146.607 136.476 146.745C136.383 147.082 136.285 147.427 136.191 147.763C135.828 147.065 134.901 149.29 135.641 148.846C134.865 149.81 134.082 150.767 133.287 151.713C132.742 151.151 131.704 153.9 132.174 153.944C132.093 154.06 132.012 154.174 131.931 154.289C131.047 155.186 130.511 156.216 129.436 157.338C128.351 158.447 128.366 158.281 127.797 158.393C127.565 158.68 127.341 158.95 127.089 159.235C126.78 160.177 126.358 160.394 125.843 160.581C125.302 160.751 124.762 160.983 123.51 161.657C123.313 161.76 123.098 161.886 122.86 162.036C121.7 161.767 119.388 163.045 117.257 162.656C117.022 162.611 116.981 162.728 116.655 162.642C116.572 162.618 116.476 162.584 116.373 162.54C115.512 162.102 115.281 161.455 115.03 161.057C114.798 160.639 114.629 160.359 114.476 160.444C114.355 159.836 114.283 159.26 114.217 158.696C114.012 158.285 113.81 157.868 113.611 157.463C113.498 157.501 113.384 157.538 113.27 157.576C113.393 156.588 112.82 155.311 112.684 154.638C112.657 154.504 112.804 154.42 112.703 154.008C112.586 153.524 112.209 152.688 112.023 152.136C111.766 152 111.508 151.871 111.249 151.747C110.733 150.877 110.987 150.35 110.723 149.809C110.695 149.693 109.593 148.105 109.5 148.055C109.274 147.819 109.106 147.748 108.904 147.641C108.569 147.47 108.177 147.181 107.091 146.12C106.771 145.813 106.591 145.474 106.279 145.214C105.743 144.731 103.788 143.781 103.489 143.969C102.982 143.175 100.877 142.269 100.301 141.952C100.128 141.847 100.177 141.603 99.6085 141.342C99.1461 141.121 97.8569 140.942 97.2548 140.803C97.0616 140.754 96.9083 140.701 96.7799 140.648C96.5976 140.547 96.4734 140.446 96.3208 140.443C96.112 140.443 95.944 140.628 95.6491 140.71C94.7047 140.975 93.5788 141.367 92.7143 141.898C91.4613 142.678 90.581 143.83 89.4981 144.666C89.19 144.801 88.8509 144.864 88.5337 145.022C86.205 146.207 83.234 147.004 80.3414 146.792C78.5865 146.679 76.847 146.511 75.1955 146.287C73.2641 146.095 68.6624 144.51 69.7022 145.813C68.9821 145.941 64.2276 144.082 63.3746 143.516C62.4855 143.086 61.6888 142.849 61.0052 142.383C59.7933 141.542 58.8613 140.605 58.0581 139.319C57.5986 138.571 57.1338 137.764 56.577 136.82C56.2211 136.218 55.6935 135.659 55.5198 135.298C55.3109 134.862 55.2854 134.301 55.0256 133.75C54.4207 132.413 53.069 130.226 52.2959 129.509C52.1593 129.367 52.2437 129.175 52.0625 128.947C51.7046 128.494 51.2006 128.182 50.8069 128.128C50.4712 128.087 50.3078 128.252 50.3387 128.556C50.0229 128.365 49.6318 128.405 49.2241 128.636C48.5106 129.027 47.8716 129.63 47.5111 130.069C47.4368 130.158 47.3756 130.245 47.3388 130.309C46.3878 132.305 46.0381 139.356 44.9945 142.486C44.2183 144.64 44.9039 145.017 41.821 147.712C41.7263 147.78 41.6297 147.846 41.5311 147.91C40.8177 148.363 40.0321 148.748 38.8951 148.941C38.4293 149.014 37.93 149.024 37.4257 148.945C35.6699 148.646 34.6858 147.573 33.9445 146.799C33.5801 146.418 33.0864 145.97 32.5744 145.517C31.9902 144.44 31.7272 143.378 31.6239 142.473C31.5157 141.427 31.4673 140.472 31.6502 139.53C31.4988 139.367 31.3475 139.204 31.1963 139.041C31.1583 138.788 31.1206 138.534 31.0834 138.282C31.1933 138.187 31.3032 138.092 31.4131 137.997C31.2023 136.181 30.4244 133.944 30.2456 132.411C29.9426 129.838 29.3811 123.229 29.2051 120.811C29.118 119.527 28.8486 119.498 29.2715 118.689C29.1923 118.408 29.1132 118.133 29.0328 117.856C28.8891 117.694 28.7454 117.534 28.6016 117.376C28.3417 115.763 28.1703 113.823 27.8045 112.352C27.479 111.038 26.8884 109.258 26.1309 108.238C25.1129 106.838 24.0501 105.598 23.2927 105.03C22.9935 104.792 22.6984 104.51 22.3705 104.433C22.2329 104.41 22.098 104.396 21.972 104.395C21.0777 104.416 20.8874 104.813 19.9473 105.068C19.2688 105.271 18.4167 105.608 17.6775 106.302C16.3895 107.543 15.1093 108.947 14.4119 109.939C14.0545 110.445 14.0099 110.768 13.7779 111.129C12.8153 112.638 12.0153 113.883 11.3799 115.474C10.1708 116.873 9.82355 116.528 9.1181 116.822C8.57923 117.059 7.25592 117.904 6.88353 118.293C6.75218 118.388 6.63981 118.214 6.54293 118.032C6.44063 117.872 6.3408 117.717 6.17835 117.829C6.94682 115.005 7.65982 114.528 8.91845 112.992C10.6917 109.965 12.7165 107.107 15.0333 104.452C15.1615 104.392 15.29 104.333 15.4186 104.274C15.6289 104.165 15.8402 104.067 16.0541 103.98C16.0543 103.98 16.0545 103.98 16.0547 103.981C17.2823 103.091 17.7283 102.55 18.4895 102.15C19.6139 101.597 21.04 101.306 22.5249 101.324C25.9546 101.573 27.5823 104.259 29.0356 106.237C32.3535 112.656 32.0333 119.097 32.7404 123.589C32.9231 125.188 33.7116 130.361 33.6174 131.475C33.5923 131.764 33.3878 131.868 33.4144 132.17C33.8632 134.843 34.3257 137.506 34.8388 140.152C34.8885 140.747 34.9495 141.351 35.0186 141.946C35.1444 143.04 35.4679 143.769 36.313 144.666C36.7674 145.181 37.2983 145.487 37.7246 145.505C38.1492 145.541 38.7864 145.301 39.299 144.894C40.5008 143.966 41.2472 142.337 41.7454 140.609C42.9279 136.906 42.3057 133.268 44.223 128.442C45.2079 126.91 46.3813 126.198 47.6273 125.508C48.7768 124.875 50.4192 124.65 51.7592 125.099C58.0535 127.909 58.4255 133.82 61.0551 137.466C62.6625 139.984 66.479 141.346 70.0498 142.17C72.7449 142.8 76.3176 143.047 79.0723 143.313C79.641 143.369 80.0418 143.485 80.489 143.565C80.9054 143.644 81.3677 143.677 82.0462 143.492C82.0682 143.583 82.0906 143.675 82.1134 143.766C83.3144 143.532 84.0137 143.165 85.2765 142.698C86.356 142.365 89.0867 140.786 90.0548 140.17C90.5528 139.874 90.4667 140.135 90.9293 139.84C91.7238 139.352 93.3493 137.944 95.1062 137.54C95.6682 137.407 96.4771 137.337 97.301 137.511C98.3295 137.736 99.3483 138.096 99.9353 138.267C103.297 139.233 106.742 140.954 109.462 143.489C110.22 144.186 110.969 145.31 111.184 145.555C111.198 145.57 111.212 145.585 111.226 145.599C111.641 146.038 111.921 146.068 112.202 146.392C113.724 148.108 114.871 151.294 115.511 153.194C115.986 154.536 116.399 155.894 116.812 157.212C117.018 157.866 117.228 158.519 117.451 159.099C117.56 159.383 117.679 159.658 117.784 159.85C117.833 159.941 117.885 160.018 117.899 160.034C117.91 160.054 117.893 159.984 117.653 159.86C118.586 160.364 120.597 159.804 122.591 159.055C123.414 158.768 124.506 157.819 125.424 156.843C128.004 154.17 131.538 148.553 133.606 145.541C134.057 144.884 134.145 145.198 134.496 144.629C134.885 143.999 134.952 143.579 135.124 143.274C136.038 141.647 137.817 138.472 139.175 136.271C139.579 135.614 139.981 135.062 140.319 134.655C140.616 134.298 140.97 134.149 141.139 133.935C141.225 133.826 141.321 133.5 141.594 133.159C143.585 130.711 145.487 129.226 147.615 127.564C148.206 127.104 148.872 126.722 149.582 126.42C152.497 125.221 155.53 125.26 158.434 125.333C159.666 125.299 161.462 125.988 162.321 126.929C163.674 128.18 164.573 129.768 165.209 131.27C165.531 132.022 165.797 132.77 166.051 133.429C166.178 133.754 166.306 134.062 166.421 134.281C166.52 134.505 166.679 134.584 166.434 134.434C166.587 134.512 166.639 134.518 166.715 134.519C166.849 134.538 167.29 134.388 167.615 134.2C167.946 134.017 168.198 133.849 168.258 133.774C168.51 133.444 168.48 133.083 168.893 132.3C170.268 129.658 172.091 125.708 173.116 122.824C173.423 121.953 173.718 120.849 174.018 119.796C174.203 119.139 174.378 118.503 174.55 117.96C174.913 116.859 175.904 114.284 175.927 113.736C175.943 113.41 175.73 113.186 175.814 112.809ZM157.39 128.603C157.6 128.163 155.457 128.517 156.26 128.75C156.435 128.798 157.332 128.711 157.39 128.603ZM82.7213 146.046C82.7568 146.167 82.7941 146.287 82.8314 146.407C83.1498 146.317 83.4502 146.218 83.7586 146.108C83.5675 146.068 83.381 146.024 83.1963 145.977C83.0396 146.002 82.8805 146.026 82.7213 146.046Z" fill="#C9A16C"/>
<defs>
<linearGradient id="paint0_linear_4055_168" x1="97.8909" y1="19.0386" x2="97.8909" y2="180.207" gradientUnits="userSpaceOnUse">
<stop stop-color="#FFE8C9"/>
<stop offset="0.495192" stop-color="#FFEDAE"/>
<stop offset="1" stop-color="#FBC579"/>
</linearGradient>
<linearGradient id="paint1_linear_4055_168" x1="98.0777" y1="18" x2="98.0777" y2="182.395" gradientUnits="userSpaceOnUse">
<stop stop-color="#FFE8C9"/>
<stop offset="0.495192" stop-color="#FFEDAE"/>
<stop offset="1" stop-color="#FBC579"/>
</linearGradient>
</defs>
</svg>
