<svg width="195" height="200" viewBox="0 0 195 200" fill="none" xmlns="http://www.w3.org/2000/svg">
<path d="M120.237 26.4396C115.525 28.7318 110.484 30.9184 108.327 31.6046C107.937 31.685 105.822 32.0099 104.865 32.0382C103.908 32.0665 102.417 32.0456 100.86 31.8807C97.7268 31.4159 92.8657 31.4685 87.8085 31.382C85.4162 31.3412 81.7732 30.8153 75.8372 31.6186C69.9016 32.422 66.2291 33.2693 63.7871 33.3944C59.5015 33.614 54.6382 34.3679 50.8922 34.7669C48.7318 34.997 45.8185 34.9805 42.0502 36.4887C38.3928 37.9524 34.601 40.1034 31.6602 42.4607C30.1945 43.6357 28.3783 44.3821 26.6911 45.9076C24.4651 47.9202 21.6019 50.3652 20.6086 52.0683C17.8569 56.7864 15.3483 63.6981 14.8713 66.8364C14.734 67.7399 14.4132 71.5311 15.3118 78.3479C15.7901 81.9762 16.6307 85.8902 16.425 92.8088C16.2194 99.7274 15.0043 109.359 14.4141 115.062C13.8239 120.766 13.8576 122.49 14.5602 127.007C15.2627 131.523 16.5939 138.617 17.2689 143.259C17.9439 147.901 17.8844 150.034 18.2451 153.015C19.0595 159.743 19.9388 163.736 20.8072 164.16C21.3048 164.403 21.927 164.667 25.3601 165.719C28.7931 166.77 34.8533 168.556 38.1429 169.469C41.4325 170.383 41.9362 170.424 45.2508 170.891C48.5655 171.357 54.5498 172.043 58.004 172.88C62.5069 173.971 64.2288 174.684 65.737 174.942C67.3548 175.218 73.386 175.086 81.1491 175.452C84.3057 175.601 85.6218 175.955 92.5948 175.752C98.7046 175.574 109.725 175.113 115.832 174.864L116.17 174.85C121.984 174.614 123.165 174.566 126.559 173.86C130.017 173.141 135.591 171.723 138.577 171.091C141.9 170.388 144.122 170.336 148.431 169.032C154.496 167.196 159.101 166.284 162.36 165.61C172.381 163.536 176.295 162.189 177.338 160.546C178.686 158.421 179.274 157.126 180.312 152.718C180.98 149.878 181.793 146.787 181.78 136.65C181.768 128.127 181.532 113.149 181.387 99.6234C181.241 86.0982 181.432 74.3693 180.998 68.0112C180.495 60.6477 179.544 58.5131 178.668 56.576C178.13 55.389 177.498 54.8793 176.115 54.015C173.499 52.3801 169.397 50.4808 163.022 47.4927C158.973 45.5945 153.422 42.8504 150.384 41.2483C147.346 39.6462 146.661 39.2314 146.674 38.8131C146.698 38.1097 147.015 37.1816 147.657 35.5871C149.681 30.5645 151.203 25.9364 150.076 24.1751C149.697 23.5827 148.528 22.4103 145.439 22.0682C142.843 21.7806 139.704 22.3943 131.133 24.0695L130.943 24.1068C126.221 25.0296 122.62 25.2807 120.237 26.4396Z" fill="url(#paint0_linear_4055_167)" stroke="#C9A16C" stroke-width="5" stroke-linecap="round"/>
<path d="M94.614 46.6242C92.5204 51.9232 92.3271 65.9937 92.3271 72.6805C92.7753 74.5605 94.33 75.3506 94.7981 75.8757C95.8343 76.8503 97.7424 78.0473 101.525 78.2961C108.392 77.1106 116.177 75.2636 120.047 71.9361C122.169 70.1111 131.07 63.3498 138.982 49.3432C148.336 32.7824 151.733 26.5444 149.076 23.2907C148.223 22.2465 141.771 21.7449 127.143 24.2727C121.851 25.1873 117.333 26.0681 113.854 28.2718C107.592 32.2383 97.5657 39.1536 94.614 46.6242Z" fill="url(#paint1_linear_4055_167)"/>
<path d="M98.3537 80.3576C98.1012 80.3304 97.7883 80.082 97.5029 79.9871C96.298 79.5644 95.8806 79.2662 94.8671 78.6035C94.4926 78.3479 93.919 77.9526 93.3575 77.4073L93.2286 77.2749C93.3296 77.3683 93.1405 77.1875 92.9681 77.0432C92.7858 76.8861 92.5683 76.695 92.3553 76.4816C91.9279 76.058 91.5197 75.5306 91.2601 75.0015C90.7237 73.9221 90.8203 73.019 91.224 72.9435C91.2241 72.9435 91.2241 72.9435 91.2241 72.9435C91.2349 72.9409 91.2458 72.9389 91.2571 72.9373C91.4678 72.9142 91.8101 73.2573 92.0614 73.2252C92.3101 73.1911 93.7735 72.6708 93.9811 72.8992C94.1341 73.0809 94.2892 73.4458 94.5632 73.8248C94.8264 74.1996 95.1904 74.5887 95.3911 74.7549C95.4785 74.8263 95.5885 74.8954 95.7442 75.0323L95.6665 74.9525C95.8204 75.0317 96.001 75.0961 96.1563 75.1954C96.9074 75.6563 97.3283 75.9666 98.2412 75.8943C98.4849 76.1972 98.7653 76.4925 99.0689 76.7758C99.5433 76.7986 100.218 77.1811 100.52 77.2014C100.765 77.2199 100.924 77.0749 101.176 77.0904C101.296 77.0972 101.432 77.1359 101.598 77.1787L101.334 77.1926C101.584 77.1953 101.882 77.1973 102.194 77.1259C103.069 76.9252 103.147 76.4809 103.662 76.3282C104.195 76.1698 105.087 76.2242 105.746 75.9307C105.823 75.8669 105.899 75.803 105.976 75.739C105.892 75.6502 105.808 75.5612 105.724 75.4722C106.059 75.3499 106.253 75.5267 106.571 75.4591C106.945 75.3793 107.089 75.1368 107.338 75.0789C107.542 75.0317 107.857 75.1234 108.118 75.048C108.499 74.9385 108.358 74.7307 108.552 74.6357C108.632 74.6026 110.102 74.0694 110.182 74.039C110.815 73.8449 110.964 74.1355 111.479 74.0041C112.906 73.6355 114.222 72.8657 115.346 72.2297C115.851 71.9458 116.383 71.6927 116.886 71.4588C116.517 72.6305 118.584 72.1502 117.265 71.4372C117.891 71.2663 118.045 70.7322 118.496 70.442C118.556 70.4026 118.616 70.3706 118.676 70.3415C118.978 70.1689 119.271 70.0722 119.645 69.7559C120.481 69.0502 120.997 67.9254 121.843 68.4026C122.668 67.4565 123.686 66.9496 123.452 66.0492C123.645 65.7968 124.569 65.5679 124.877 65.3503C125.163 65.1702 127.151 63.3998 127.434 63.0861C127.739 62.7698 128.246 62.2171 128.431 61.8952C128.662 61.4935 128.23 60.7083 129.502 60.7208C130.045 59.9416 130.281 59.6934 130.913 59.078C131.028 58.965 131.154 59.0405 131.213 58.9664C131.335 58.8102 131.444 58.4925 131.643 58.2108C131.97 57.746 132.406 57.6739 131.992 57.443C132.149 57.102 132.31 56.7506 132.462 56.4069C132.611 56.3561 132.76 56.3043 132.909 56.2516C132.945 56.033 132.98 55.8136 133.014 55.5933C133.439 56.174 133.906 54.8035 133.327 54.9522C133.855 54.4384 134.367 53.9298 134.883 53.3989C135.474 53.913 135.821 52.1091 135.381 52.0117C135.425 51.9432 135.469 51.8744 135.513 51.8055C136.07 51.303 136.269 50.6559 136.837 49.9653C137.399 49.28 137.42 49.3872 137.863 49.3311C137.937 49.1669 138.01 49.002 138.084 48.8362C138.097 48.8083 138.109 48.7805 138.121 48.7526C137.826 47.295 139.182 48.3234 139.469 46.2932C140.293 46.0781 140.744 44.6199 141.067 43.6608C141.104 43.5507 141.001 43.4909 141.043 43.3412C141.141 42.9859 141.75 42.2064 141.395 42.055C141.65 41.824 141.906 41.592 142.165 41.3521C142.235 41.0808 142.304 40.8126 142.37 40.5474C142.265 40.4909 142.159 40.4344 142.054 40.3779C142.677 40.0925 142.939 39.2857 143.229 38.9536C143.287 38.889 143.441 38.9509 143.604 38.7439C143.795 38.5048 144.019 37.9845 144.236 37.6872C144.14 37.4773 144.044 37.2688 143.947 37.0616C144.16 36.4475 144.695 36.4644 144.899 36.1539C144.94 36.0939 145.472 34.9814 145.494 34.9115C145.668 34.3801 145.239 34.3424 145.997 32.9746C146.134 32.7254 146.357 32.5834 146.466 32.3632C146.672 31.954 146.899 30.6215 146.656 30.4162C147.211 30.0754 147.545 28.7267 147.749 28.3869C147.815 28.2805 148.05 28.3378 148.199 27.9867C148.321 27.7152 148.295 26.9406 148.357 26.6234C148.433 26.2744 148.632 26.1611 148.649 26.0055C148.664 25.8595 148.5 25.7289 148.484 25.554C148.438 25.0104 148.507 24.509 148.243 24.1393C148.217 24.1044 148.189 24.0712 148.159 24.0399C148.284 24.1888 148.189 24.1292 148.081 24.149C147.965 24.155 147.818 24.1768 147.662 24.2083C147.353 24.2726 147.032 24.3781 146.713 24.4367C146.566 24.3867 146.399 24.2658 146.23 24.2497C144.003 24.0435 141.294 24.1065 138.894 24.2105C137.779 24.2496 134.926 23.9327 135.795 24.9199C135.444 25.1439 132.573 25.0851 132.039 25.1642C131.503 25.236 131.107 25.4923 130.692 25.5595C129.552 25.7445 128.718 25.7683 127.457 26.0843C127.308 26.1215 127.155 26.1626 126.996 26.2083C126.605 26.3213 126.22 26.6224 125.986 26.6618C125.703 26.7087 125.36 26.5452 124.995 26.5991C124.119 26.7263 122.54 27.1224 121.73 27.2796C121.582 27.307 121.485 27.1296 121.26 27.122C120.383 27.0889 119.483 27.3764 119.82 27.9268C118.706 27.8847 117.891 28.5124 117.049 28.8997C116.442 29.1773 115.685 29.5404 114.949 30.0006C113.299 31.0278 111.515 32.2133 110.594 33.0683C109.725 33.8806 109.908 34.0828 108.378 34.9117C108.038 35.0977 107.691 35.2691 107.284 35.5019C106.332 36.0435 105.223 36.2787 104.989 37.2875C103.964 37.9397 103.337 38.6583 102.325 38.8828C102.336 39.0477 102.348 39.2121 102.361 39.3761C102.258 39.4797 102.155 39.5837 102.053 39.6879C101.935 39.6328 101.817 39.578 101.7 39.5234C100.918 40.2408 100.385 41.5497 99.8311 42.2047C98.8702 43.2368 96.8079 45.9896 96.2317 47.2634C96.2081 47.3064 96.1853 47.3484 96.1636 47.3888C95.8541 47.9909 96.1004 48.1172 95.4746 48.3543C95.4676 48.5188 95.4603 48.6944 95.4585 48.8556C95.5478 48.9818 95.6378 49.1082 95.7285 49.2349C95.5193 50.1386 95.1444 51.2352 95.0143 52.1504C94.7674 53.8169 94.8457 56.4018 94.5186 58.1021C94.4347 58.5293 94.1586 59.0535 94.136 59.4776C94.1034 60.0948 94.495 60.2673 94.4629 61.0489C94.404 62.3953 93.8522 64.9001 93.8613 66.1862C93.8629 66.5646 94.0083 66.7484 94.019 67.0115C94.0658 68.1155 94.0416 69.0203 94.2631 70.0799C93.8702 71.2097 93.3761 71.1111 92.8738 71.4632C92.4947 71.732 91.6181 72.5573 91.2875 72.6668C91.055 72.7472 90.756 72.4469 90.5001 72.5597C90.2971 71.1868 90.5259 70.6039 90.8965 69.4907C90.9035 67.4264 90.9326 65.3592 90.9932 63.2929C91.1396 63.1102 91.2863 62.9257 91.4332 62.7444C91.4335 62.7444 91.4338 62.7444 91.4341 62.7444C91.6266 61.96 91.2833 61.608 91.222 61.1757C90.76 57.5237 91.3453 50.8661 93.2351 46.0794C93.509 45.4471 93.804 44.8725 94.085 44.3643C94.5312 43.4116 96.3273 40.5783 96.9777 40.2245C97.1373 40.125 97.3338 40.2258 97.463 40.0882C98.4608 38.7194 99.5519 37.4338 100.7 36.2019C103.458 34.1188 106.087 31.7791 108.884 29.788C110.248 28.8176 111.641 27.875 113.027 26.9665C117.427 24.1715 122.31 23.4476 126.851 22.5795C129.603 22.086 132.331 21.663 135.105 21.3433C136.845 21.141 139.073 20.7609 140.824 20.7651C141.559 20.767 141.871 21.0951 142.824 20.8099C142.837 20.9028 142.85 20.9957 142.862 21.0886C143.696 20.9579 144.226 20.7397 145.198 20.7481C146.023 20.7509 148.167 20.8766 149.221 21.3868C149.476 21.5032 149.575 21.6183 149.635 21.7051C149.702 21.8078 149.755 21.8472 150.11 22.1805C150.155 22.2257 150.201 22.276 150.249 22.3328C150.819 22.8867 151.688 24.4323 151.691 25.4456C151.78 26.4073 151.344 27.7643 151.223 28.3403C150.808 30.4666 150.176 32.6107 149.191 34.5059C148.922 35.0188 148.379 35.6049 148.307 35.7621C148.16 36.0848 148.306 36.2818 148.221 36.5117C147.8 37.6604 146.686 39.2044 146.117 40.2314C144.297 43.5218 142.436 46.9942 140.566 50.2384C140.521 50.3163 140.477 50.3939 140.432 50.4711C139.214 52.604 137.05 56.057 135.581 57.7978C135.268 58.1748 135.149 57.9287 134.911 58.2566C134.645 58.6236 134.627 58.9195 134.512 59.0966C133.726 60.3359 131.809 62.9793 130.76 63.9064C130.567 64.0805 130.293 64.1064 130.189 64.2247C130.136 64.2848 130.112 64.5061 129.956 64.7C128.553 66.4325 127.366 67.5476 125.76 69.0196C124.307 70.3554 122.646 71.8163 121.09 73.1499C119.067 74.9068 116.74 75.9615 114.529 76.7209C113.603 77.0325 112.855 76.8772 112.731 76.9224C112.452 77.0197 112.347 77.3175 111.788 77.5504C109.927 78.328 107.261 78.6818 105.452 79.1735C104.557 79.4207 103.365 79.969 102.479 80.1963C102.319 80.2376 102.107 80.2782 101.874 80.3178L101.39 80.3433C100.505 80.2933 99.3198 80.0571 99.022 80.1017C98.7911 80.1424 98.6308 80.3863 98.3537 80.3576ZM120.273 69.5021C120.465 69.9089 121.226 68.7876 120.704 68.9273C120.581 68.9649 120.232 69.3901 120.273 69.5021ZM143.144 23.4129C143.158 23.5363 143.172 23.6597 143.186 23.7832C143.349 23.7285 143.532 23.6745 143.699 23.6218C143.603 23.5482 143.506 23.4749 143.406 23.4019C143.315 23.4054 143.23 23.409 143.144 23.4129Z" fill="#C9A16C"/>
<path d="M161.688 47.3308C161.301 47.1549 160.859 46.7317 160.431 46.4927C158.62 45.4839 157.997 45.031 156.367 44.1351C155.127 43.4532 152.637 42.2828 150.441 41.2826L150.482 41.2991C148.42 40.4253 146.463 39.4881 146.69 38.968C146.69 38.9679 146.69 38.9679 146.69 38.9679C146.694 38.9576 146.699 38.9474 146.704 38.9374C146.81 38.7487 147.559 38.7807 147.742 38.5889C147.925 38.3967 148.396 36.9042 149.355 37.1556C149.926 37.3111 150.82 37.6579 151.731 38.0787L151.761 38.0905C153.001 38.6939 154.25 39.3998 154.673 39.5844C155.169 39.7984 155.83 39.9519 156.46 40.2294C158.484 41.1264 159.465 41.7564 161.404 42.3412C162.002 42.8891 162.621 43.453 163.21 44.004C164.162 44.4115 165.413 45.4069 165.962 45.6952C166.43 45.9408 166.751 45.9345 167.235 46.196C167.759 46.4782 168.476 47.0792 169.45 47.5999C170.723 48.2809 171.278 48.2738 171.967 48.5118L172.236 48.7077C172.382 48.7986 172.53 48.9032 172.689 49.0353C173.55 49.7537 174.671 51.1171 175.799 52.0184C175.96 52.1121 176.124 52.2089 176.284 52.3029C176.266 52.1375 176.247 51.9712 176.227 51.8041C176.783 52.2846 176.85 52.656 177.321 53.1439C177.87 53.7154 178.299 53.8768 178.663 54.2742C178.966 54.6046 179.243 55.1588 179.629 55.5989C180.189 56.2439 180.25 55.9545 180.576 56.2916C180.734 56.3493 182.858 59.3125 182.886 59.6399C183.567 61.2393 183.309 61.5417 183.406 63.0204C183.408 63.0967 183.408 63.1729 183.407 63.2491C183.352 66.3162 183.385 69.6754 182.249 72.742C181.746 74.1151 180.908 75.4966 179.855 76.5928C179.851 76.5973 179.847 76.6019 179.842 76.6065C179.844 76.5999 179.847 76.5934 179.849 76.587C180.228 75.6033 179.724 75.717 179.242 76.0462C178.636 76.4277 178.004 77.2725 179.192 77.066C178.1 77.9946 177.653 78.9719 176.636 79.8962C175.976 80.4894 175.413 80.7865 174.473 81.6337C172.817 83.1395 171.09 85.0254 170.029 84.6332C167.952 86.2825 165.782 87.0566 165.301 88.2116C164.708 88.5795 162.913 88.886 162.19 89.1118C161.805 89.2422 159.984 89.8986 158.284 90.3743C157.015 90.7351 155.827 91.0682 155.461 91.1789C154.622 91.4344 153.161 91.8757 152.474 92.1589C151.615 92.5126 151.229 93.511 149.369 93.03C147.547 93.6423 146.881 93.8002 145.132 94.1613C144.815 94.2262 144.74 94.0949 144.557 94.1442C144.185 94.2446 143.573 94.5205 142.904 94.7095C141.807 95.0191 141.099 94.8796 141.338 95.3037C140.626 95.5662 139.917 95.824 139.201 96.0795C138.921 96.0544 138.646 96.0277 138.367 96.0014C137.996 96.1921 137.631 96.38 137.259 96.5686C137.564 95.8026 134.896 96.8259 135.878 97.0013C134.519 97.1751 133.16 97.3357 131.8 97.4821C131.701 97.4927 131.602 97.5033 131.502 97.5139C131.548 96.7223 128.345 98.0493 128.7 98.4036C128.535 98.4343 128.372 98.4645 128.207 98.4948C126.73 98.5621 125.437 98.9641 123.655 99.1212C121.874 99.2744 122.025 99.1693 121.437 98.9031C121.027 98.9878 120.615 99.0716 120.205 99.154C118.171 100.437 118.32 98.7275 114.694 99.9539C113.426 99.5015 110.531 100.166 108.596 100.546C108.372 100.59 108.38 100.709 108.08 100.776C107.348 100.939 105.444 100.961 105.542 101.336C104.877 101.284 104.211 101.23 103.548 101.173C103.018 101.287 102.489 101.398 101.957 101.508C101.969 101.627 101.981 101.747 101.992 101.866C100.882 101.542 99.1953 101.813 98.352 101.767C98.1843 101.757 98.137 101.595 97.6177 101.581C97.0097 101.564 95.8847 101.675 95.1607 101.659C94.8897 101.855 94.6178 102.051 94.345 102.247C94.2956 102.253 94.2474 102.258 94.2003 102.263C93.0239 102.371 92.5571 101.942 91.8285 101.937C91.6922 101.938 89.2084 102.07 89.0749 102.083C87.9808 102.202 88.3066 102.61 85.1271 102.613C84.5602 102.613 84.1005 102.482 83.5883 102.488C82.6857 102.502 79.9686 102.868 79.7545 103.166C78.652 102.81 75.7152 102.971 74.8476 102.853C74.586 102.818 74.5312 102.581 73.7266 102.523C73.0802 102.476 71.3941 102.638 70.5699 102.584C69.6921 102.526 69.3858 102.315 68.993 102.288C68.6244 102.262 68.2735 102.411 67.7677 102.389C66.1862 102.318 64.7691 101.976 63.5214 101.882C61.7215 101.745 60.0769 102.065 58.5242 102.087C58.1531 102.01 57.7892 101.86 57.3958 101.804C57.3233 101.793 57.2509 101.783 57.1785 101.772C52.4275 101.075 47.1266 100.161 42.4122 99.0344C40.1742 98.5699 34.8833 96.3363 36.0288 97.7926C35.1865 97.8378 29.7416 95.2271 28.8112 94.4493C28.4249 94.2131 28.0613 94.0085 27.7178 93.812C27.2084 93.5257 26.7341 93.2874 26.3053 92.9921C24.189 91.5202 22.7702 90.416 20.1238 88.543C19.4424 88.0554 18.5969 87.6282 18.2183 87.2766C17.7591 86.8512 17.4264 86.2272 16.8792 85.6064C15.8156 84.4732 13.9831 81.9045 13.8613 79.4856C13.8254 79.0821 13.7976 78.7073 13.7798 78.3897C13.7627 78.0703 13.9486 77.9477 13.978 77.4902C14.0904 75.7167 14.0169 73.75 13.4052 74.1165C13.691 71.8386 13.3813 69.7406 13.499 67.5943C13.6865 65.5784 13.6585 62.9799 15.2097 59.8019C16.8849 56.7975 18.8157 53.8388 19.9833 51.9811C21.3137 49.9035 21.0242 49.7472 23.5595 47.1057C24.1311 46.5247 24.7203 45.9705 25.438 45.2968C27.1292 43.7101 29.0067 42.6598 29.9423 41.0492C32.005 39.5092 33.6347 38.2133 35.5338 37.6446C35.5785 37.5615 35.6237 37.4784 35.6693 37.3953C35.7441 37.2538 35.8197 37.1121 35.8964 36.97C36.1569 36.8062 36.4211 36.6418 36.686 36.4796C36.8318 36.534 36.9779 36.5885 37.1233 36.6437C39.0292 35.5228 41.4532 33.808 43.2873 33.1584C46.3265 31.8462 54.4337 30.5577 57.3767 30.5031C58.9456 30.4233 59.0116 30.1622 59.9503 30.6153C60.0781 30.5905 60.2068 30.5658 60.3362 30.5414C60.5488 30.5 60.7643 30.4587 60.9825 30.4174C61.1905 30.2829 61.4039 30.1483 61.6063 30.0147C63.591 29.8521 65.9624 29.8654 67.8504 29.7362C71.2953 29.4971 76.4458 28.8618 79.9159 28.877C80.7852 28.8807 81.8823 29.0609 82.7315 29.011C83.9656 28.9387 84.2465 28.5214 85.8104 28.4289C88.5129 28.2689 93.5712 28.472 96.1217 28.3074C96.8709 28.259 97.2247 28.0917 97.747 28.0493C98.3232 28.0022 98.8813 27.9616 99.4019 27.9226C100.913 27.8107 102.292 27.7032 103.833 27.4559C106.119 27.7264 105.936 28.2325 106.667 28.6974C107.199 29.0495 108.923 29.8404 109.094 30.1691C109.126 30.2855 109.107 30.417 109.005 30.5572C108.911 30.6968 108.828 30.8394 108.942 30.9625C106.277 31.2923 105.105 31.1295 102.899 30.8788C101.784 30.9387 100.672 30.9986 99.5599 31.0586C96.6241 31.2168 93.6701 31.3775 90.7241 31.5424C90.3511 31.4221 89.966 31.3025 89.5937 31.1823C89.5937 31.182 89.5937 31.1817 89.5937 31.1814C88.0237 31.103 87.3841 31.4977 86.5506 31.6244C80.31 32.576 69.2868 32.9382 60.5803 33.4766C58.1309 33.6297 55.8939 33.8502 53.9959 34.1246C52.1065 34.3085 46.2799 35.8878 45.0614 36.1955C44.7401 36.2463 44.5704 36.0784 44.243 36.1906C41.7986 37.2118 39.5529 38.5498 37.3277 40.0721C36.9256 40.3447 36.5325 40.6225 36.1409 40.91C30.6107 44.2243 26.1448 49.4766 22.4449 54.854C20.9598 57.0077 19.5833 59.2603 18.3267 61.5488C16.4409 66.3859 16.9761 73.2379 17.4404 79.1595C18.197 83.9553 24.824 87.3998 29.6838 90.9794C31.7012 92.3732 34.1206 93.3598 36.619 94.17C39.7739 95.2019 44.0235 95.9473 47.2773 96.6457C48.6352 96.9368 49.1566 97.3806 51.0062 97.4256C51.0103 97.5207 51.0144 97.6158 51.0186 97.7109C52.617 97.8576 53.659 97.8052 55.4415 98.0494C55.9609 98.1205 56.7623 98.2324 57.6662 98.3581C59.3217 98.5926 61.3208 98.7887 62.1781 98.8836C62.8604 98.9591 62.5881 99.1115 63.2313 99.1607C64.328 99.2463 66.6844 99.1432 68.2035 99.1985C69.5771 99.2564 71.9014 99.5116 72.9627 99.4948C76.7896 99.4468 80.9566 99.1037 85.0422 99.0722C86.1704 99.0648 87.6302 99.2429 87.9838 99.2242C88.6738 99.1873 88.8724 98.9605 89.3348 98.9153C90.6447 98.7876 92.3678 98.7626 94.0379 98.7433C95.3602 98.7285 96.6482 98.7118 97.6665 98.6551C105.166 98.2433 113.074 97.3255 120.459 96.2252C123.37 95.7974 127.464 95.08 131.154 94.3463C133.387 93.9059 135.475 93.4665 137.085 93.1483C138.008 92.965 137.819 93.2572 138.587 93.0704C139.437 92.8625 139.861 92.5881 140.251 92.476C142.983 91.7135 148.952 89.8645 151.554 89.2222C152.047 89.1047 152.458 89.1748 152.75 89.0832C152.901 89.0366 153.191 88.8119 153.653 88.653C154.959 88.203 156.162 87.7955 157.312 87.4125C159.662 86.6223 161.794 85.8049 164.241 84.543C168.865 82.1899 173.213 78.3889 176.984 74.0342C178.646 72.171 179.392 69.5591 179.699 66.9092C179.897 65.1873 180.246 63.9453 180.25 63.6917C180.248 63.5392 180.228 63.4013 180.198 63.2591C180.113 62.9663 179.964 62.6832 179.739 62.0752C178.644 59.2134 174.925 55.3292 172.281 52.9513C171.637 52.3806 170.831 51.7514 170.015 51.1275L170.339 51.3642C169.315 50.8939 168.316 50.4461 167.492 50.0231C166.233 49.3732 163.377 47.6465 162.762 47.4734C162.381 47.3609 162.107 47.5199 161.688 47.3308ZM173.315 82.3571C173.249 81.8684 171.326 83.8639 172.278 83.4051C172.497 83.3048 173.339 82.4885 173.315 82.3571ZM51.0896 100.083C51.0938 100.209 51.0981 100.335 51.1024 100.461C51.4536 100.466 51.8194 100.472 52.1669 100.475C51.9872 100.371 51.8014 100.266 51.6176 100.162C51.4406 100.136 51.2646 100.109 51.0896 100.083Z" fill="#C9A16C"/>
<path d="M178.1 81.5467C178.116 81.1127 178.34 80.5261 178.4 80.0222C178.652 77.9103 178.84 77.1348 179.072 75.2297C179.206 74.1017 179.369 72.0567 179.495 70.0847L179.498 70.0293C179.752 66.8108 180.629 63.7278 181.278 63.8764C181.278 63.8764 181.278 63.8764 181.278 63.8764C181.289 63.8786 181.3 63.8816 181.311 63.8855C181.514 63.9582 181.605 64.7221 181.825 64.8721C182.046 65.0219 183.593 65.2339 183.514 66.2296C183.428 67.1671 183.064 68.9 182.879 70.2543L182.88 70.219C182.793 70.9851 182.708 71.6158 182.697 71.8981C182.675 72.4476 182.77 73.1331 182.741 73.8351C182.644 76.1 182.427 77.2605 182.614 79.3202C182.33 80.1102 182.044 80.8945 181.756 81.6789C181.74 82.7411 181.298 84.3066 181.241 84.9445C181.195 85.4674 181.32 85.7958 181.266 86.3396C181.205 86.9537 180.925 87.8723 180.82 88.987C180.671 90.5634 180.931 91.0552 180.955 91.8689L180.963 91.7866C180.974 91.9139 180.98 92.0489 180.979 92.1976C180.964 93.3103 180.681 95.0382 180.831 96.4721C180.878 96.6504 180.924 96.8321 180.971 97.0103C181.075 96.8827 181.18 96.7516 181.284 96.624C181.335 97.3416 181.124 97.6522 181.13 98.3167C181.139 99.1008 181.353 99.4902 181.367 100.022C181.377 100.45 181.233 101.044 181.262 101.607C181.305 102.43 181.534 102.236 181.595 102.679C181.617 102.851 181.878 106.113 181.888 106.301C181.955 107.709 181.638 107.837 181.655 108.966C181.695 111.539 181.956 114.134 182.15 116.601C182.191 117.115 182.23 117.647 182.263 118.149C182.345 119.435 182.364 120.779 182.347 122.066C181.469 120.062 180.944 124.559 182.191 122.848C182.044 124.278 182.417 125.285 182.388 126.64C182.369 127.513 182.204 128.124 182.234 129.375C182.289 131.59 182.837 134.011 181.927 134.663C182.13 137.263 181.819 139.523 182.639 140.454C182.695 141.131 182.223 142.847 182.16 143.608C182.109 144.32 181.878 149.796 181.841 150.693C181.823 151.368 181.793 152.431 181.796 153.229C181.796 153.504 181.801 153.741 181.813 153.926C181.864 154.885 182.692 155.596 181.581 157.266C181.392 159.333 181.664 159.892 180.346 162.234C179.99 162.674 179.798 162.618 179.528 162.819C179.119 163.121 178.467 163.324 178.069 163.436C177.873 163.493 177.668 163.55 177.459 163.6C176.351 163.865 175.645 163.731 175.881 164.155C175.171 164.41 174.464 164.677 173.759 164.954C173.48 164.936 173.201 164.921 172.921 164.906C172.559 165.112 172.198 165.319 171.836 165.529C172.103 164.738 169.471 165.946 170.475 166.051C169.019 166.345 167.56 166.649 166.087 166.946C166.069 166.15 162.921 167.789 163.311 168.107C163.148 168.154 162.983 168.2 162.816 168.247C161.317 168.458 160.022 168.985 158.217 169.3C157.473 169.431 157.073 169.481 156.794 169.489C156.411 169.494 156.299 169.406 155.94 169.278C155.528 169.4 155.118 169.522 154.713 169.643C152.771 171.126 152.755 169.4 149.199 171.036C147.863 170.732 144.997 171.746 143.078 172.371C142.856 172.444 142.878 172.561 142.581 172.666C141.86 172.921 139.928 173.191 140.075 173.55C139.392 173.586 138.711 173.619 138.031 173.65C137.505 173.832 136.983 174.013 136.458 174.192C136.485 174.309 136.511 174.426 136.538 174.542C135.37 174.368 133.691 174.862 132.83 174.928C132.657 174.941 132.59 174.786 132.06 174.841C131.438 174.906 130.312 175.164 129.573 175.244C129.505 175.307 129.437 175.369 129.369 175.432C129.186 175.6 129.004 175.768 128.82 175.936C127.534 176.264 126.993 175.866 126.222 175.96C126.083 175.979 123.574 176.432 123.439 176.462C122.343 176.721 122.723 177.085 119.491 177.495C118.915 177.567 118.431 177.496 117.912 177.567C116.995 177.696 114.28 178.406 114.1 178.729C112.935 178.517 109.972 179.054 109.076 179.05C108.806 179.049 108.721 178.821 107.896 178.867C107.229 178.905 105.542 179.283 104.695 179.335C103.801 179.391 103.458 179.221 103.054 179.244C102.673 179.266 102.335 179.458 101.819 179.5C100.802 179.58 99.8334 179.543 98.9343 179.511C98.4049 179.492 97.9055 179.479 97.4306 179.498C95.5865 179.574 93.9543 180.095 92.3721 180.295C91.9819 180.261 91.5977 180.153 91.1886 180.142C86.0974 180.022 80.486 179.105 75.6026 178.163C74.7877 178.006 73.6174 177.708 72.4384 177.426C70.2878 176.911 68.254 176.474 69.0953 177.357C68.2671 177.396 62.6327 175.803 61.5519 175.567C60.4685 175.335 59.5705 175.346 58.7162 175.171C56.1455 174.643 54.3629 174.126 51.2049 173.648C50.3881 173.525 49.4772 173.574 49.0016 173.475C48.4252 173.354 47.855 173.012 47.1079 172.849C45.3365 172.46 42.0184 171.895 40.3162 171.556C40.0045 171.493 39.9401 171.283 39.4975 171.144C37.8032 170.602 35.855 170.328 36.1078 170.997C36.016 170.968 35.9249 170.94 35.8346 170.913C33.7346 170.313 31.7102 170.324 29.72 170.066C28.2589 169.874 26.4173 169.62 24.4339 169.315C23.4288 169.157 22.4054 168.994 21.3197 168.755C20.7718 168.629 20.2085 168.496 19.5471 168.234C19.209 168.093 18.8413 167.933 18.39 167.581C17.9513 167.256 17.3753 166.518 17.2636 165.708C16.9199 163.652 16.6831 161.884 16.4088 160.6C15.9799 158.566 15.7214 158.357 15.4516 156.1C15.4056 155.724 15.3577 155.281 15.3094 154.759C15.2356 153.957 15.183 153.15 15.1039 152.166C14.9193 149.865 15.1761 147.714 14.3664 146.044C14.2476 143.49 13.9538 141.48 14.3294 139.551C14.1846 139.344 14.0399 139.133 13.8953 138.92C13.8673 138.604 13.8408 138.299 13.8143 137.988C13.9282 137.882 14.0422 137.776 14.1562 137.669C14.0223 135.446 13.3534 132.646 13.2617 130.763C13.231 130.147 13.2 129.355 13.1718 128.428C13.0509 124.631 13.0338 118.88 13.1089 116.467C13.1569 114.879 12.8953 114.797 13.4098 113.878C13.3647 113.524 13.3197 113.17 13.275 112.815C13.1531 112.595 13.0313 112.377 12.9095 112.157C12.8626 110.121 13.002 107.703 12.9704 105.764C12.9104 102.232 12.5279 96.9338 12.711 93.3827C12.7569 92.489 12.9898 91.3761 12.9809 90.5082C12.9681 89.238 12.5648 88.9308 12.5474 87.3286C12.5282 85.5256 12.7077 82.7099 12.8236 80.2573C12.8854 78.908 12.956 77.6601 12.9712 76.7276C12.9847 75.9406 12.8513 75.5717 12.8607 75.0173C12.9041 72.7237 13.0695 70.8461 13.117 68.6184C13.8186 66.2964 14.306 66.5954 14.9183 65.962C15.379 65.4764 16.5933 64.0186 16.9726 63.9546C17.2296 63.8926 17.3876 64.4613 17.6854 64.3354C17.3013 66.878 16.9506 68.0079 16.3308 70.1458C15.9752 73.4843 15.8474 76.8575 15.8737 80.2431C15.8796 80.9669 15.8856 81.7079 15.8917 82.457C15.7539 82.8279 15.6161 83.2078 15.4784 83.5962C15.4781 83.5962 15.4778 83.5962 15.4775 83.5962C15.3244 85.1851 15.6881 85.8806 15.7747 86.7274C16.5941 94.9794 16.1611 111.221 16.3676 120.295C16.3955 121.787 16.6402 125.85 16.7036 128.269C16.7227 129.034 16.7205 129.609 16.6832 129.938C16.6417 130.29 16.4315 130.398 16.4411 130.764C16.7408 134.053 17.0854 137.326 17.4962 140.593C17.6734 145.532 18.3629 150.54 19.2742 155.479C19.6059 157.329 19.9126 159.188 20.1713 161.03C20.3697 162.425 20.5445 163.807 20.7713 165.139C20.759 165.017 20.6636 164.856 20.6277 164.825C20.5892 164.785 20.6206 164.818 20.6919 164.853C20.8413 164.932 21.1228 165.032 21.4167 165.112C22.0171 165.276 22.7154 165.405 23.409 165.522C24.8093 165.753 26.2411 165.941 27.6945 166.135C30.571 166.513 33.4824 166.895 36.3723 167.307C47.571 169.002 58.4167 171.524 69.2707 173.688C70.4314 173.921 71.6989 174.149 72.9996 174.369C75.5773 174.806 78.2411 175.211 80.4749 175.612C81.875 175.861 82.4197 176.292 84.3002 176.258C84.3086 176.353 84.317 176.448 84.3254 176.543C85.9577 176.616 87.0036 176.508 88.8103 176.603C90.3262 176.715 94.341 176.719 95.7033 176.681C96.4094 176.674 96.15 176.858 96.8109 176.83C97.2902 176.809 98.004 176.732 98.7892 176.641C99.8151 176.522 100.977 176.355 101.863 176.279C103.268 176.164 105.655 176.117 106.734 175.962C110.62 175.418 114.819 174.544 118.968 173.992C120.114 173.84 121.62 173.83 121.976 173.766C122.674 173.64 122.846 173.39 123.31 173.285C124.824 172.945 126.911 172.667 128.825 172.392C129.893 172.24 130.906 172.088 131.738 171.932C139.31 170.53 147.22 168.531 154.718 166.699C155.132 166.599 155.581 166.49 156.037 166.381C160.78 165.292 167.449 163.148 171.496 162.118C172.45 161.881 172.264 162.184 173.06 161.963C173.943 161.721 174.387 161.442 174.801 161.324C175.512 161.122 176.44 160.873 177.487 160.629C177.694 160.582 177.859 160.543 177.93 160.515C178.005 160.486 177.966 160.488 177.929 160.513C177.845 160.585 177.955 160.468 178.036 160.189C178.215 159.621 178.327 158.792 178.408 158.001C178.567 156.414 178.637 154.855 178.736 153.843C178.762 153.584 178.827 153.354 178.885 153.146C178.939 152.963 178.987 152.799 178.991 152.647C178.995 152.484 178.875 152.132 178.871 151.632C178.828 147.241 178.882 144.036 178.889 139.719C178.889 132.56 178.548 124.405 178.343 116.723C178.311 115.522 178.281 114.346 178.257 113.186C178.216 111.288 178.536 109.982 178.522 109.712C178.491 109.127 178.226 108.766 178.116 107.584C177.759 103.663 177.759 98.3364 177.742 94.5009C177.734 93.6311 177.693 92.6083 177.674 91.5711L177.683 91.474C177.722 90.2896 177.753 89.093 177.829 88.1128C177.944 86.6635 178.448 83.2737 178.376 82.6203C178.334 82.2262 178.084 82.0118 178.1 81.5467ZM182.051 130.71C181.614 130.458 182.023 133.18 182.237 132.152C182.285 131.921 182.165 130.774 182.051 130.71ZM84.5233 178.911C84.5347 179.036 84.5462 179.162 84.5576 179.288C84.9206 179.277 85.291 179.264 85.6541 179.248C85.4606 179.154 85.2652 179.06 85.0677 178.964C84.8876 178.947 84.7068 178.929 84.5233 178.911Z" fill="#C9A16C"/>
<path d="M92.375 65.0049C92.5202 61.4555 91.6055 60.0292 91.6055 60.0292C91.6055 60.0292 88.9431 54.0054 88.0219 52.9289C86.6044 51.2724 84.329 48.9467 81.1215 48.0808C79.462 47.6328 76.6087 47.2634 72.9442 47.5209C71.1547 47.6467 69.481 47.8131 67.966 48.3133C65.0276 49.2834 62.9121 50.1507 61.8797 50.901C61.1985 51.396 59.0338 53.1324 56.7787 56.2019C55.5236 57.9104 55.0482 58.7818 54.8694 59.6496C54.6018 60.9485 54.2436 63.5885 54.4541 66.8211C54.6099 69.215 54.6847 71.022 55.3222 72.3717C56.5258 74.9198 57.4424 76.4951 59.1435 77.6302C60.7856 78.726 63.7245 80.368 67.3576 81.5565C68.9535 82.0786 70.1341 82.2844 71.8134 82.3681C73.4926 82.4518 75.6126 82.4799 76.9991 82.3242C79.0433 82.0947 80.654 81.7167 82.3103 80.8311C83.9608 79.9486 85.32 79.1069 86.1207 78.2866C86.7307 77.6617 88.4526 75.7068 90.1267 72.3795C91.3346 69.9787 92.261 67.7935 92.375 65.0049Z" fill="url(#paint2_linear_4055_167)"/>
<path d="M91.3884 53.73C91.4826 53.8473 91.4307 54.1025 91.5 54.2594C91.7849 54.9124 91.7965 55.1955 92.0132 55.7944C92.3408 56.6808 93.6748 59.1061 92.6427 59.5708C92.6427 59.5708 92.6427 59.5708 92.6427 59.5708C92.6326 59.5753 92.6223 59.5798 92.612 59.5843C92.4139 59.6666 92.1042 59.547 91.8667 59.6105C91.6309 59.6782 90.211 60.3413 89.9967 60.0797C89.6991 59.6987 89.5891 58.497 89.4655 58.2768C89.3822 58.127 89.1629 57.9945 89.0457 57.8055C88.6693 57.2007 88.6007 56.8181 87.9742 56.4239C88.0443 56.1063 88.114 55.7908 88.1797 55.4722C87.9464 55.2226 87.9516 54.6611 87.8425 54.4973C87.7522 54.3602 87.5689 54.3638 87.4795 54.2265C87.3894 54.0913 87.3638 53.7211 87.2348 53.6025C87.2325 53.6003 87.2303 53.598 87.2281 53.5957C86.8255 53.1934 86.4446 53.4031 86.1839 53.1981C85.9145 52.9872 85.7083 52.4482 85.2938 52.2643C85.2232 52.2616 85.1523 52.2589 85.0825 52.2576C85.0393 52.3601 84.9958 52.4625 84.9517 52.5645C84.7666 52.4592 84.8443 52.2406 84.7019 52.1104C84.5345 51.9584 84.3164 52.0421 84.2024 51.9477C84.1097 51.871 84.081 51.6402 83.9483 51.5526C83.7559 51.4257 83.6565 51.6462 83.5333 51.611C83.4852 51.5871 82.6879 51.2198 82.645 51.2071C82.3264 51.033 82.4518 50.7365 82.1977 50.5756C81.7034 50.2688 81.1126 50.1637 80.5691 50.1272C80.3299 50.1094 80.0838 50.0976 79.8449 50.0787C79.4891 50.0506 79.1187 49.9697 78.7601 49.8683C79.4682 49.133 78.2266 48.3188 78.5597 49.6642C78.1667 49.4301 77.8341 49.7474 77.4445 49.6575C77.1916 49.5998 77.0225 49.4085 76.6498 49.3953C75.9831 49.3723 75.2655 49.8818 75.0653 48.9649C74.2791 49.1328 73.5702 48.8394 73.3381 49.6675C73.2806 49.6856 73.1932 49.6602 73.0913 49.6144C72.8367 49.5039 72.5027 49.2727 72.3346 49.2399C72.1035 49.1864 70.4352 49.1483 70.181 49.1955C69.9182 49.2248 69.4675 49.3013 69.2759 49.4215C69.027 49.5714 69.0983 50.3872 68.4108 49.6607C68.3967 49.6479 68.3823 49.6346 68.3677 49.6208C67.8075 49.8907 67.5939 49.9336 67.0174 50.0142C66.913 50.029 66.8535 49.8951 66.7969 49.915C66.6788 49.9569 66.5164 50.1297 66.3143 50.2178C65.9817 50.3628 65.6797 50.1498 65.884 50.5743C65.6906 50.7319 65.4993 50.8909 65.312 51.0509C65.2033 50.9969 65.0918 50.9443 64.9821 50.8914C64.9037 51.0304 64.8279 51.1692 64.7535 51.3084C64.6186 50.624 63.9817 51.3441 64.4013 51.5845C63.9477 51.6351 63.5022 51.6966 63.0879 51.7764C62.8966 51.3735 62.6308 51.5714 62.5719 51.8536C62.5085 52.0749 62.5203 52.3539 62.6583 52.4723C62.6188 52.5023 62.5832 52.5294 62.5435 52.5602C62.0816 52.6663 61.8803 53.0592 61.3903 53.3234C60.8975 53.5948 60.8842 53.5093 60.5156 53.3711C60.4344 53.479 60.3573 53.5843 60.2787 53.6925C60.5044 54.8591 59.3517 53.6051 59.1152 54.998C58.4012 54.8813 58.0376 55.8257 57.8169 56.4312C57.7903 56.5021 57.8841 56.575 57.8566 56.6728C57.8375 56.7392 57.7867 56.8172 57.7302 56.9009C57.582 57.1194 57.3998 57.3696 57.6345 57.5172C57.4248 57.6201 57.2164 57.7244 57.0103 57.8304C56.9742 58.0076 56.9418 58.1827 56.9147 58.3548C57.016 58.4185 57.1173 58.4821 57.2185 58.5458C56.7001 58.595 56.5996 59.0902 56.4304 59.2326C56.3952 59.2621 56.2398 59.2013 56.1466 59.306C56.0346 59.4306 55.9971 59.7001 55.9147 59.8572C55.9209 59.8611 55.927 59.8649 55.9331 59.8687C56.0894 59.9826 56.2465 60.096 56.4043 60.2087C56.4325 60.6008 55.9363 60.6619 55.8639 60.8896C55.8481 60.9305 55.7836 61.7026 55.7921 61.746C55.8392 62.0963 56.2458 62.0384 56.0874 63.0059C56.0601 63.179 55.9102 63.3124 55.8968 63.4708C55.869 63.7535 56.1738 64.6038 56.4742 64.6674C56.0948 64.9996 56.2669 65.9022 56.1751 66.1697C56.1458 66.2508 55.9086 66.2807 55.8721 66.5322C55.865 66.5818 55.8727 66.6496 55.8887 66.7277C55.9392 66.9834 56.0648 67.3381 56.0539 67.5415C56.0375 67.8269 55.8451 67.9397 55.8397 68.0667C55.8347 68.1864 56.0031 68.2843 56.014 68.4439C56.0454 68.9419 55.8279 69.4066 55.8705 69.7855C55.9311 70.3347 56.4888 70.709 56.7904 70.9918C56.7848 71.0856 56.7132 71.1999 56.7421 71.286C56.7832 71.4096 56.8277 71.5272 56.8759 71.6378C57.4523 72.9211 58.0343 74.2606 58.6968 75.1944C58.9759 75.7057 59.844 77.1268 60.1322 75.9962C60.1572 75.9918 60.1876 75.9978 60.2231 76.0124C60.6117 76.1975 61.691 77.2575 61.964 77.4055C62.256 77.5746 62.5837 77.5295 62.8185 77.6486C63.529 78.0059 63.9773 78.3809 64.9352 78.6189C65.182 78.6789 65.518 78.5714 65.6524 78.6298C65.8141 78.7009 65.9076 78.9786 66.1184 79.0769C66.5736 79.2902 67.435 79.5413 67.9557 79.7281C68.006 79.7464 68.0522 79.764 68.0944 79.7811C68.1814 79.8167 68.1537 80.0125 68.264 80.1101C68.695 80.4938 69.2647 80.604 69.3058 79.9741C69.8414 80.4632 70.4759 80.2323 71.0671 80.266C71.3107 80.2805 71.5969 80.3 71.9156 80.3176C73.2976 80.3992 75.1354 80.4637 76.018 80.1943C76.3824 80.0857 76.5305 79.9515 76.7239 79.873C76.9281 79.798 77.1858 79.7685 77.6791 79.8085C77.9114 79.8267 78.1435 79.8605 78.4196 79.8706C79.0525 79.8992 79.7722 80.2292 80.0004 79.4866C80.5586 79.4268 80.9426 79.1874 81.4518 79.2254C81.5729 79.2272 81.699 79.2431 81.8337 79.2769C81.8328 79.1324 81.8313 78.9879 81.8287 78.8439C81.9101 78.7955 81.9908 78.7472 82.071 78.6988C82.1556 78.7907 82.2411 78.8821 82.3264 78.9736C82.9395 78.6688 83.3897 77.8053 83.7914 77.5198C84.0264 77.3558 84.3964 77.1067 84.6741 76.8746C85.3677 76.2694 86.2303 75.311 86.6436 74.8971C86.9846 74.5553 86.7792 74.3895 87.3769 74.4537C87.4053 74.3417 87.4305 74.2331 87.4571 74.1214C87.3948 74.0006 87.3296 73.8838 87.2654 73.7651C87.5828 73.2473 88.1008 72.7071 88.3741 72.1848C88.4618 72.0177 88.5471 71.8298 88.6312 71.627C89.0391 70.6598 89.3797 69.4755 89.8257 68.7504C89.9645 68.5293 90.2969 68.3016 90.3682 68.0582C90.47 67.7043 90.1091 67.5136 90.2048 67.0815C90.326 66.5441 90.7029 65.6965 90.8486 64.9425C90.9069 64.6445 90.9384 64.3792 90.9273 64.1652C90.9152 63.9375 90.7628 63.8384 90.7411 63.6841C90.6464 63.0489 90.6002 62.5216 90.2638 62.023C90.5117 61.3704 90.9842 61.2797 91.4008 60.928C91.7198 60.6706 92.3325 59.8468 92.4984 59.4963C92.6436 59.281 93.096 59.4752 93.2545 59.2337C94.0305 60.3978 93.8293 60.864 93.6424 61.7484C93.8422 62.8806 93.8848 63.9768 93.8528 65.0654C93.8416 65.4245 93.8178 65.7844 93.7808 66.1434C93.6269 66.2616 93.4716 66.3757 93.315 66.4862C93.3147 66.4862 93.3144 66.4861 93.3141 66.4861C93.0759 67.0059 93.3802 67.2961 93.3968 67.613C93.4979 69.1706 92.6775 71.3346 91.6555 73.1487C90.6747 74.9556 89.4108 76.6032 88.4497 77.7648C88.2119 78.055 87.7411 78.7367 87.1836 79.3242C86.6857 79.8418 86.2102 80.1576 85.9808 80.205C85.8447 80.2314 85.6922 80.0758 85.5824 80.142C84.7439 80.8803 83.8732 81.5116 83.0003 82.1215C82.9713 82.1413 82.9424 82.1609 82.9134 82.1803C81.0144 82.8903 79.0364 83.4514 77.1581 83.7397C76.726 83.8063 76.3129 83.8481 75.9052 83.8749C74.4854 83.9634 73.1148 83.965 71.7355 83.9308C70.147 83.9089 68.3693 83.6313 66.8405 83.1373C63.7936 82.1899 60.9166 80.8817 58.2384 79.1008C58.2209 79.089 58.2033 79.0772 58.1858 79.0654C57.0289 78.3359 55.7304 77.0481 55.2009 75.9472C54.9661 75.4796 55.1651 75.1324 54.6344 74.6837C54.7137 74.6342 54.793 74.5849 54.8724 74.5357C54.516 74.0963 54.1702 73.8732 53.8871 73.3315C53.8548 73.2694 53.8156 73.1925 53.7715 73.1042C53.3812 72.3631 53.1162 71.1328 53.0905 70.7145C53.0683 70.4557 53.2549 70.5257 53.2217 70.2936C53.1617 69.8972 52.845 69.0943 52.8097 68.5788C52.775 68.108 52.9278 67.326 52.8761 66.9812C52.8733 66.9623 52.8705 66.9434 52.8676 66.9244C52.6743 65.6238 52.3813 64.1788 52.553 62.7709C52.6004 62.3755 52.8717 61.8914 52.8784 61.7675C52.8894 61.5268 52.6797 61.4312 52.6704 61.2649C52.6398 60.7046 52.8286 59.9595 53.0414 59.273C53.1708 58.814 53.3524 58.4048 53.4913 58.0943C54.0589 56.871 54.7038 56.0238 55.3272 55.1354C56.2611 53.8362 57.2945 52.5933 58.4215 51.5092C59.0398 50.9171 59.8432 50.1566 60.8254 49.4502C61.947 48.6872 62.8968 48.3581 63.6269 48.1268C63.9441 48.0337 63.9546 48.2894 64.2054 48.1882C64.4843 48.0768 64.5766 47.8678 64.7036 47.805C65.3211 47.496 66.4788 46.978 67.4247 46.6739C67.8692 46.5294 68.2706 46.4471 68.5632 46.4277C68.7553 46.4153 68.9269 46.5713 69.0345 46.5483C69.089 46.5371 69.188 46.3856 69.3585 46.3408C70.6752 46.002 71.6707 45.9756 72.8325 45.9323C73.005 45.9263 73.178 45.9213 73.3603 45.9166C75.8739 45.8612 78.7536 45.7293 81.5459 46.5089C81.8396 46.5946 82.124 46.6929 82.4013 46.8038C83.0575 47.0676 83.3222 47.6148 83.407 47.6492C83.5963 47.7324 83.8289 47.5637 84.2361 47.7153C85.6106 48.2189 86.9239 49.6312 87.9047 50.4594C88.3583 50.8307 89.0851 51.2272 89.551 51.6204C89.6292 51.6971 89.6978 51.7727 89.7544 51.8388C90.2514 52.4143 90.648 53.4595 90.8802 53.5963C91.0159 53.6733 91.2865 53.6065 91.3884 53.73ZM76.2594 49.1709C76.3516 48.7382 75.5137 49.0811 75.8206 49.3195C75.8898 49.3725 76.2351 49.2821 76.2594 49.1709ZM56.869 73.3252C56.9752 73.2614 57.0816 73.1977 57.1879 73.1341C57.0922 73.061 56.9963 72.9862 56.9009 72.9111C56.862 72.9991 56.8243 73.0894 56.7863 73.1784C56.8137 73.2274 56.841 73.2759 56.869 73.3252Z" fill="#C9A16C"/>
<defs>
<linearGradient id="paint0_linear_4055_167" x1="97.8899" y1="22" x2="97.8899" y2="175.813" gradientUnits="userSpaceOnUse">
<stop stop-color="#FFE8C9"/>
<stop offset="0.495192" stop-color="#FFEDAE"/>
<stop offset="1" stop-color="#FBC579"/>
</linearGradient>
<linearGradient id="paint1_linear_4055_167" x1="121.139" y1="22.436" x2="121.139" y2="78.2961" gradientUnits="userSpaceOnUse">
<stop stop-color="#FFE8C9"/>
<stop offset="0.495192" stop-color="#FFEDAE"/>
<stop offset="1" stop-color="#FBC579"/>
</linearGradient>
<linearGradient id="paint2_linear_4055_167" x1="73.3906" y1="47.436" x2="73.3906" y2="82.436" gradientUnits="userSpaceOnUse">
<stop stop-color="#FFE8C9"/>
<stop offset="0.495192" stop-color="#FFEDAE"/>
<stop offset="1" stop-color="#FBC579"/>
</linearGradient>
</defs>
</svg>
